<?xml version="1.0" encoding="utf-8" standalone="no"?>
<!DOCTYPE svg PUBLIC "-//W3C//DTD SVG 1.1//EN"
  "http://www.w3.org/Graphics/SVG/1.1/DTD/svg11.dtd">
<svg height="345.6pt" version="1.1" viewBox="0 0 460.8 345.6" width="460.8pt" xmlns="http://www.w3.org/2000/svg" xmlns:xlink="http://www.w3.org/1999/xlink">
 <metadata>
  <rdf:RDF xmlns:cc="http://creativecommons.org/ns#" xmlns:dc="http://purl.org/dc/elements/1.1/" xmlns:rdf="http://www.w3.org/1999/02/22-rdf-syntax-ns#">
   <cc:Work>
    <dc:type rdf:resource="http://purl.org/dc/dcmitype/StillImage"/>
    <dc:date>2021-11-07T14:15:10.052488</dc:date>
    <dc:format>image/svg+xml</dc:format>
    <dc:creator>
     <cc:Agent>
      <dc:title>Matplotlib v3.4.3, https://matplotlib.org/</dc:title>
     </cc:Agent>
    </dc:creator>
   </cc:Work>
  </rdf:RDF>
 </metadata>
 <defs>
  <style type="text/css">*{stroke-linecap:butt;stroke-linejoin:round;}</style>
 </defs>
 <g id="figure_1">
  <g id="patch_1">
   <path d="M 0 345.6 
L 460.8 345.6 
L 460.8 0 
L 0 0 
z
" style="fill:#ffffff;"/>
  </g>
  <g id="axes_1">
   <g id="patch_2">
    <path d="M 57.6 307.584 
L 414.72 307.584 
L 414.72 41.472 
L 57.6 41.472 
z
" style="fill:#ffffff;"/>
   </g>
   <g id="matplotlib.axis_1">
    <g id="xtick_1">
     <g id="line2d_1">
      <defs>
       <path d="M 0 0 
L 0 3.5 
" id="me104a3098b" style="stroke:#000000;stroke-width:0.8;"/>
      </defs>
      <g>
       <use style="stroke:#000000;stroke-width:0.8;" x="73.832727" xlink:href="#me104a3098b" y="307.584"/>
      </g>
     </g>
     <g id="text_1">
      <!-- 0 -->
      <g transform="translate(70.651477 322.182437)scale(0.1 -0.1)">
       <defs>
        <path d="M 2034 4250 
Q 1547 4250 1301 3770 
Q 1056 3291 1056 2328 
Q 1056 1369 1301 889 
Q 1547 409 2034 409 
Q 2525 409 2770 889 
Q 3016 1369 3016 2328 
Q 3016 3291 2770 3770 
Q 2525 4250 2034 4250 
z
M 2034 4750 
Q 2819 4750 3233 4129 
Q 3647 3509 3647 2328 
Q 3647 1150 3233 529 
Q 2819 -91 2034 -91 
Q 1250 -91 836 529 
Q 422 1150 422 2328 
Q 422 3509 836 4129 
Q 1250 4750 2034 4750 
z
" id="DejaVuSans-30" transform="scale(0.015625)"/>
       </defs>
       <use xlink:href="#DejaVuSans-30"/>
      </g>
     </g>
    </g>
    <g id="xtick_2">
     <g id="line2d_2">
      <g>
       <use style="stroke:#000000;stroke-width:0.8;" x="128.122785" xlink:href="#me104a3098b" y="307.584"/>
      </g>
     </g>
     <g id="text_2">
      <!-- 50 -->
      <g transform="translate(121.760285 322.182437)scale(0.1 -0.1)">
       <defs>
        <path d="M 691 4666 
L 3169 4666 
L 3169 4134 
L 1269 4134 
L 1269 2991 
Q 1406 3038 1543 3061 
Q 1681 3084 1819 3084 
Q 2600 3084 3056 2656 
Q 3513 2228 3513 1497 
Q 3513 744 3044 326 
Q 2575 -91 1722 -91 
Q 1428 -91 1123 -41 
Q 819 9 494 109 
L 494 744 
Q 775 591 1075 516 
Q 1375 441 1709 441 
Q 2250 441 2565 725 
Q 2881 1009 2881 1497 
Q 2881 1984 2565 2268 
Q 2250 2553 1709 2553 
Q 1456 2553 1204 2497 
Q 953 2441 691 2322 
L 691 4666 
z
" id="DejaVuSans-35" transform="scale(0.015625)"/>
       </defs>
       <use xlink:href="#DejaVuSans-35"/>
       <use x="63.623047" xlink:href="#DejaVuSans-30"/>
      </g>
     </g>
    </g>
    <g id="xtick_3">
     <g id="line2d_3">
      <g>
       <use style="stroke:#000000;stroke-width:0.8;" x="182.412843" xlink:href="#me104a3098b" y="307.584"/>
      </g>
     </g>
     <g id="text_3">
      <!-- 100 -->
      <g transform="translate(172.869093 322.182437)scale(0.1 -0.1)">
       <defs>
        <path d="M 794 531 
L 1825 531 
L 1825 4091 
L 703 3866 
L 703 4441 
L 1819 4666 
L 2450 4666 
L 2450 531 
L 3481 531 
L 3481 0 
L 794 0 
L 794 531 
z
" id="DejaVuSans-31" transform="scale(0.015625)"/>
       </defs>
       <use xlink:href="#DejaVuSans-31"/>
       <use x="63.623047" xlink:href="#DejaVuSans-30"/>
       <use x="127.246094" xlink:href="#DejaVuSans-30"/>
      </g>
     </g>
    </g>
    <g id="xtick_4">
     <g id="line2d_4">
      <g>
       <use style="stroke:#000000;stroke-width:0.8;" x="236.702901" xlink:href="#me104a3098b" y="307.584"/>
      </g>
     </g>
     <g id="text_4">
      <!-- 150 -->
      <g transform="translate(227.159151 322.182437)scale(0.1 -0.1)">
       <use xlink:href="#DejaVuSans-31"/>
       <use x="63.623047" xlink:href="#DejaVuSans-35"/>
       <use x="127.246094" xlink:href="#DejaVuSans-30"/>
      </g>
     </g>
    </g>
    <g id="xtick_5">
     <g id="line2d_5">
      <g>
       <use style="stroke:#000000;stroke-width:0.8;" x="290.992958" xlink:href="#me104a3098b" y="307.584"/>
      </g>
     </g>
     <g id="text_5">
      <!-- 200 -->
      <g transform="translate(281.449208 322.182437)scale(0.1 -0.1)">
       <defs>
        <path d="M 1228 531 
L 3431 531 
L 3431 0 
L 469 0 
L 469 531 
Q 828 903 1448 1529 
Q 2069 2156 2228 2338 
Q 2531 2678 2651 2914 
Q 2772 3150 2772 3378 
Q 2772 3750 2511 3984 
Q 2250 4219 1831 4219 
Q 1534 4219 1204 4116 
Q 875 4013 500 3803 
L 500 4441 
Q 881 4594 1212 4672 
Q 1544 4750 1819 4750 
Q 2544 4750 2975 4387 
Q 3406 4025 3406 3419 
Q 3406 3131 3298 2873 
Q 3191 2616 2906 2266 
Q 2828 2175 2409 1742 
Q 1991 1309 1228 531 
z
" id="DejaVuSans-32" transform="scale(0.015625)"/>
       </defs>
       <use xlink:href="#DejaVuSans-32"/>
       <use x="63.623047" xlink:href="#DejaVuSans-30"/>
       <use x="127.246094" xlink:href="#DejaVuSans-30"/>
      </g>
     </g>
    </g>
    <g id="xtick_6">
     <g id="line2d_6">
      <g>
       <use style="stroke:#000000;stroke-width:0.8;" x="345.283016" xlink:href="#me104a3098b" y="307.584"/>
      </g>
     </g>
     <g id="text_6">
      <!-- 250 -->
      <g transform="translate(335.739266 322.182437)scale(0.1 -0.1)">
       <use xlink:href="#DejaVuSans-32"/>
       <use x="63.623047" xlink:href="#DejaVuSans-35"/>
       <use x="127.246094" xlink:href="#DejaVuSans-30"/>
      </g>
     </g>
    </g>
    <g id="xtick_7">
     <g id="line2d_7">
      <g>
       <use style="stroke:#000000;stroke-width:0.8;" x="399.573074" xlink:href="#me104a3098b" y="307.584"/>
      </g>
     </g>
     <g id="text_7">
      <!-- 300 -->
      <g transform="translate(390.029324 322.182437)scale(0.1 -0.1)">
       <defs>
        <path d="M 2597 2516 
Q 3050 2419 3304 2112 
Q 3559 1806 3559 1356 
Q 3559 666 3084 287 
Q 2609 -91 1734 -91 
Q 1441 -91 1130 -33 
Q 819 25 488 141 
L 488 750 
Q 750 597 1062 519 
Q 1375 441 1716 441 
Q 2309 441 2620 675 
Q 2931 909 2931 1356 
Q 2931 1769 2642 2001 
Q 2353 2234 1838 2234 
L 1294 2234 
L 1294 2753 
L 1863 2753 
Q 2328 2753 2575 2939 
Q 2822 3125 2822 3475 
Q 2822 3834 2567 4026 
Q 2313 4219 1838 4219 
Q 1578 4219 1281 4162 
Q 984 4106 628 3988 
L 628 4550 
Q 988 4650 1302 4700 
Q 1616 4750 1894 4750 
Q 2613 4750 3031 4423 
Q 3450 4097 3450 3541 
Q 3450 3153 3228 2886 
Q 3006 2619 2597 2516 
z
" id="DejaVuSans-33" transform="scale(0.015625)"/>
       </defs>
       <use xlink:href="#DejaVuSans-33"/>
       <use x="63.623047" xlink:href="#DejaVuSans-30"/>
       <use x="127.246094" xlink:href="#DejaVuSans-30"/>
      </g>
     </g>
    </g>
   </g>
   <g id="matplotlib.axis_2">
    <g id="ytick_1">
     <g id="line2d_8">
      <defs>
       <path d="M 0 0 
L -3.5 0 
" id="m3de0b3a88f" style="stroke:#000000;stroke-width:0.8;"/>
      </defs>
      <g>
       <use style="stroke:#000000;stroke-width:0.8;" x="57.6" xlink:href="#m3de0b3a88f" y="271.304087"/>
      </g>
     </g>
     <g id="text_8">
      <!-- −0.4 -->
      <g transform="translate(26.317187 275.103306)scale(0.1 -0.1)">
       <defs>
        <path d="M 678 2272 
L 4684 2272 
L 4684 1741 
L 678 1741 
L 678 2272 
z
" id="DejaVuSans-2212" transform="scale(0.015625)"/>
        <path d="M 684 794 
L 1344 794 
L 1344 0 
L 684 0 
L 684 794 
z
" id="DejaVuSans-2e" transform="scale(0.015625)"/>
        <path d="M 2419 4116 
L 825 1625 
L 2419 1625 
L 2419 4116 
z
M 2253 4666 
L 3047 4666 
L 3047 1625 
L 3713 1625 
L 3713 1100 
L 3047 1100 
L 3047 0 
L 2419 0 
L 2419 1100 
L 313 1100 
L 313 1709 
L 2253 4666 
z
" id="DejaVuSans-34" transform="scale(0.015625)"/>
       </defs>
       <use xlink:href="#DejaVuSans-2212"/>
       <use x="83.789062" xlink:href="#DejaVuSans-30"/>
       <use x="147.412109" xlink:href="#DejaVuSans-2e"/>
       <use x="179.199219" xlink:href="#DejaVuSans-34"/>
      </g>
     </g>
    </g>
    <g id="ytick_2">
     <g id="line2d_9">
      <g>
       <use style="stroke:#000000;stroke-width:0.8;" x="57.6" xlink:href="#m3de0b3a88f" y="222.918099"/>
      </g>
     </g>
     <g id="text_9">
      <!-- −0.2 -->
      <g transform="translate(26.317187 226.717318)scale(0.1 -0.1)">
       <use xlink:href="#DejaVuSans-2212"/>
       <use x="83.789062" xlink:href="#DejaVuSans-30"/>
       <use x="147.412109" xlink:href="#DejaVuSans-2e"/>
       <use x="179.199219" xlink:href="#DejaVuSans-32"/>
      </g>
     </g>
    </g>
    <g id="ytick_3">
     <g id="line2d_10">
      <g>
       <use style="stroke:#000000;stroke-width:0.8;" x="57.6" xlink:href="#m3de0b3a88f" y="174.532111"/>
      </g>
     </g>
     <g id="text_10">
      <!-- 0.0 -->
      <g transform="translate(34.696875 178.331329)scale(0.1 -0.1)">
       <use xlink:href="#DejaVuSans-30"/>
       <use x="63.623047" xlink:href="#DejaVuSans-2e"/>
       <use x="95.410156" xlink:href="#DejaVuSans-30"/>
      </g>
     </g>
    </g>
    <g id="ytick_4">
     <g id="line2d_11">
      <g>
       <use style="stroke:#000000;stroke-width:0.8;" x="57.6" xlink:href="#m3de0b3a88f" y="126.146123"/>
      </g>
     </g>
     <g id="text_11">
      <!-- 0.2 -->
      <g transform="translate(34.696875 129.945341)scale(0.1 -0.1)">
       <use xlink:href="#DejaVuSans-30"/>
       <use x="63.623047" xlink:href="#DejaVuSans-2e"/>
       <use x="95.410156" xlink:href="#DejaVuSans-32"/>
      </g>
     </g>
    </g>
    <g id="ytick_5">
     <g id="line2d_12">
      <g>
       <use style="stroke:#000000;stroke-width:0.8;" x="57.6" xlink:href="#m3de0b3a88f" y="77.760134"/>
      </g>
     </g>
     <g id="text_12">
      <!-- 0.4 -->
      <g transform="translate(34.696875 81.559353)scale(0.1 -0.1)">
       <use xlink:href="#DejaVuSans-30"/>
       <use x="63.623047" xlink:href="#DejaVuSans-2e"/>
       <use x="95.410156" xlink:href="#DejaVuSans-34"/>
      </g>
     </g>
    </g>
   </g>
   <g id="line2d_13">
    <path clip-path="url(#p58efe01afb)" d="M 73.832727 56.349776 
L 74.918528 72.893368 
L 76.00433 102.337493 
L 77.090131 140.944944 
L 79.261733 225.507679 
L 80.347534 260.729809 
L 81.433335 285.011267 
L 82.519137 295.270121 
L 83.604938 290.204262 
L 84.690739 270.456676 
L 85.77654 238.533832 
L 90.119745 81.672422 
L 91.205546 60.388955 
L 92.291347 53.593147 
L 93.377148 62.147558 
L 94.462949 84.966416 
L 95.54875 119.153431 
L 98.806154 242.734654 
L 99.891955 273.429695 
L 100.977756 291.572127 
L 102.063557 294.859215 
L 103.149358 282.873745 
L 104.23516 257.136976 
L 105.320961 220.915557 
L 108.578364 98.375379 
L 109.664165 70.261308 
L 110.749967 55.381843 
L 111.835768 55.625567 
L 112.921569 70.961543 
L 114.00737 99.443249 
L 115.093171 137.455635 
L 117.264773 222.176199 
L 118.350575 258.131193 
L 119.436376 283.475344 
L 120.522177 294.991839 
L 121.607978 291.218942 
L 122.693779 272.635529 
L 123.77958 241.600307 
L 125.951183 159.01153 
L 127.036984 117.940583 
L 128.122785 84.052535 
L 129.208586 61.648638 
L 130.294387 53.572514 
L 131.380189 60.849227 
L 132.46599 82.555179 
L 133.551791 115.935335 
L 136.809194 239.690734 
L 137.894995 271.28408 
L 138.980797 290.59715 
L 140.066598 295.178625 
L 141.152399 284.447001 
L 142.2382 259.764391 
L 143.324001 224.263646 
L 146.581405 101.244313 
L 147.667206 72.158003 
L 148.753007 56.065561 
L 149.838808 55.009526 
L 150.924609 69.123936 
L 152.01041 96.617314 
L 153.096212 134.000054 
L 155.267814 218.801379 
L 156.353615 255.456527 
L 157.439416 281.840316 
L 158.525217 294.603975 
L 159.611019 292.127472 
L 160.69682 274.725138 
L 161.782621 244.60577 
L 163.954223 162.636466 
L 165.040024 121.190511 
L 166.125825 86.514957 
L 167.211627 63.01101 
L 168.297428 53.661917 
L 169.383229 59.654313 
L 170.46903 80.227613 
L 171.554831 112.770544 
L 174.812235 236.587541 
L 175.898036 269.050451 
L 176.983837 289.516589 
L 178.069638 295.388284 
L 179.155439 285.920267 
L 180.24124 262.314272 
L 181.327042 227.566495 
L 184.584445 104.179916 
L 185.670246 74.147827 
L 186.756047 56.857047 
L 187.841849 54.502215 
L 188.92765 67.382218 
L 190.013451 93.862257 
L 191.099252 130.581345 
L 193.270854 215.386286 
L 194.356656 252.708244 
L 195.442457 280.10767 
L 196.528258 294.106882 
L 197.614059 292.929026 
L 198.69986 276.723602 
L 199.785661 247.547487 
L 200.871462 209.103872 
L 203.043065 124.488964 
L 204.128866 89.057448 
L 205.214667 64.474833 
L 206.300468 53.861275 
L 207.386269 58.563903 
L 208.472071 77.985836 
L 209.557872 109.661937 
L 213.901076 266.730839 
L 214.986877 288.331428 
L 216.072679 295.488 
L 217.15848 287.292205 
L 218.244281 264.784297 
L 219.330082 230.821099 
L 222.587486 107.179518 
L 223.673287 76.22897 
L 224.759088 57.755582 
L 225.844889 54.104094 
L 226.93069 65.737973 
L 228.016491 91.180585 
L 229.102292 127.202617 
L 232.359696 249.888845 
L 233.445497 278.278983 
L 234.531298 293.501013 
L 235.617099 293.622875 
L 236.702901 278.629102 
L 237.788702 250.422783 
L 238.874503 212.584014 
L 241.046105 127.832941 
L 242.131906 91.677696 
L 243.217708 66.038774 
L 244.303509 54.170407 
L 245.38931 57.578989 
L 246.475111 75.831886 
L 247.560912 106.612342 
L 249.732514 189.034463 
L 250.818316 230.214673 
L 251.904117 264.327354 
L 252.989918 287.042744 
L 254.075719 295.477683 
L 255.16152 288.561565 
L 256.247321 267.17222 
L 257.333123 234.024497 
L 260.590526 110.24039 
L 261.676327 78.399539 
L 262.762128 58.760348 
L 263.847929 53.815527 
L 264.933731 64.192699 
L 266.019532 88.574738 
L 267.105333 123.866946 
L 270.362736 247.000895 
L 271.448538 276.355917 
L 272.534339 292.786918 
L 273.62014 294.208388 
L 274.705941 280.439906 
L 275.791742 253.229041 
L 276.877543 216.029541 
L 279.049146 131.2194 
L 280.134947 94.373315 
L 281.220748 67.701412 
L 282.306549 54.589031 
L 283.39235 56.700466 
L 284.478151 73.767723 
L 285.563953 103.624534 
L 286.649754 142.481313 
L 288.821356 226.950796 
L 289.907157 261.842183 
L 290.992958 285.651709 
L 292.07876 295.357343 
L 293.164561 289.727193 
L 294.250362 269.475868 
L 295.336163 237.173775 
L 298.593566 113.359748 
L 299.679368 80.65756 
L 300.765169 59.870431 
L 301.85097 53.636774 
L 302.936771 62.747799 
L 304.022572 86.047086 
L 305.108373 120.577364 
L 308.365777 244.04702 
L 309.451578 274.340223 
L 310.537379 291.965248 
L 311.62318 294.685032 
L 312.708981 282.154366 
L 313.794783 255.963709 
L 314.880584 219.437318 
L 317.052186 134.645261 
L 318.137987 97.141854 
L 319.223788 69.461232 
L 320.30959 55.116767 
L 321.395391 55.929135 
L 322.481192 71.795225 
L 323.566993 100.70123 
L 324.652794 138.978244 
L 326.824396 223.639234 
L 327.910198 259.277586 
L 328.995999 284.15959 
L 330.0818 295.127088 
L 331.167601 290.788029 
L 332.253402 271.693147 
L 333.339203 240.266068 
L 335.510806 157.429866 
L 336.596607 116.534755 
L 337.682408 83.000978 
L 338.768209 61.084821 
L 339.85401 53.568 
L 340.939811 61.404589 
L 342.025613 83.599928 
L 343.111414 117.336864 
L 346.368817 241.029907 
L 347.454618 272.233734 
L 348.54042 291.036748 
L 349.626221 295.052373 
L 350.712022 283.770922 
L 351.797823 258.624298 
L 352.883624 222.804245 
L 356.141028 99.980795 
L 357.226829 71.316636 
L 358.31263 55.753135 
L 359.398431 55.265696 
L 360.484232 69.916187 
L 361.570033 97.845089 
L 362.655835 135.507518 
L 364.827437 220.283 
L 365.913238 256.635896 
L 366.999039 282.567742 
L 368.08484 294.787129 
L 369.170642 291.743107 
L 370.256443 273.822039 
L 371.342244 243.298564 
L 373.513846 161.04903 
L 374.599647 119.762521 
L 375.685448 85.427662 
L 376.77125 62.402414 
L 377.857051 53.609266 
L 378.942852 60.164291 
L 380.028653 81.235491 
L 381.114454 114.148395 
L 384.371858 237.952302 
L 385.457659 270.038365 
L 386.54346 290.002266 
L 387.629261 295.310077 
L 388.715062 285.288104 
L 389.800863 261.20839 
L 390.886665 226.127259 
L 394.144068 102.887556 
L 395.229869 73.265934 
L 396.31567 56.497555 
L 397.401472 54.710753 
L 398.487273 68.132317 
L 398.487273 68.132317 
" style="fill:none;stroke:#1f77b4;stroke-linecap:square;stroke-width:1.5;"/>
   </g>
   <g id="patch_3">
    <path d="M 57.6 307.584 
L 57.6 41.472 
" style="fill:none;stroke:#000000;stroke-linecap:square;stroke-linejoin:miter;stroke-width:0.8;"/>
   </g>
   <g id="patch_4">
    <path d="M 414.72 307.584 
L 414.72 41.472 
" style="fill:none;stroke:#000000;stroke-linecap:square;stroke-linejoin:miter;stroke-width:0.8;"/>
   </g>
   <g id="patch_5">
    <path d="M 57.6 307.584 
L 414.72 307.584 
" style="fill:none;stroke:#000000;stroke-linecap:square;stroke-linejoin:miter;stroke-width:0.8;"/>
   </g>
   <g id="patch_6">
    <path d="M 57.6 41.472 
L 414.72 41.472 
" style="fill:none;stroke:#000000;stroke-linecap:square;stroke-linejoin:miter;stroke-width:0.8;"/>
   </g>
  </g>
 </g>
 <defs>
  <clipPath id="p58efe01afb">
   <rect height="266.112" width="357.12" x="57.6" y="41.472"/>
  </clipPath>
 </defs>
</svg>
