<?xml version="1.0" encoding="utf-8" standalone="no"?>
<!DOCTYPE svg PUBLIC "-//W3C//DTD SVG 1.1//EN"
  "http://www.w3.org/Graphics/SVG/1.1/DTD/svg11.dtd">
<svg height="297.190125pt" version="1.1" viewBox="0 0 402.802812 297.190125" width="402.802812pt" xmlns="http://www.w3.org/2000/svg" xmlns:xlink="http://www.w3.org/1999/xlink">
 <metadata>
  <rdf:RDF xmlns:cc="http://creativecommons.org/ns#" xmlns:dc="http://purl.org/dc/elements/1.1/" xmlns:rdf="http://www.w3.org/1999/02/22-rdf-syntax-ns#">
   <cc:Work>
    <dc:type rdf:resource="http://purl.org/dc/dcmitype/StillImage"/>
    <dc:date>2021-11-07T16:32:51.557355</dc:date>
    <dc:format>image/svg+xml</dc:format>
    <dc:creator>
     <cc:Agent>
      <dc:title>Matplotlib v3.4.3, https://matplotlib.org/</dc:title>
     </cc:Agent>
    </dc:creator>
   </cc:Work>
  </rdf:RDF>
 </metadata>
 <defs>
  <style type="text/css">*{stroke-linecap:butt;stroke-linejoin:round;}</style>
 </defs>
 <g id="figure_1">
  <g id="patch_1">
   <path d="M 0 297.190125 
L 402.802812 297.190125 
L 402.802812 0 
L 0 0 
z
" style="fill:#ffffff;"/>
  </g>
  <g id="axes_1">
   <g id="patch_2">
    <path d="M 38.482813 273.312 
L 395.602813 273.312 
L 395.602813 7.2 
L 38.482813 7.2 
z
" style="fill:#ffffff;"/>
   </g>
   <g id="matplotlib.axis_1">
    <g id="xtick_1">
     <g id="line2d_1">
      <defs>
       <path d="M 0 0 
L 0 3.5 
" id="m0fbabcb246" style="stroke:#000000;stroke-width:0.8;"/>
      </defs>
      <g>
       <use style="stroke:#000000;stroke-width:0.8;" x="54.71554" xlink:href="#m0fbabcb246" y="273.312"/>
      </g>
     </g>
     <g id="text_1">
      <!-- 0 -->
      <g transform="translate(51.53429 287.910437)scale(0.1 -0.1)">
       <defs>
        <path d="M 2034 4250 
Q 1547 4250 1301 3770 
Q 1056 3291 1056 2328 
Q 1056 1369 1301 889 
Q 1547 409 2034 409 
Q 2525 409 2770 889 
Q 3016 1369 3016 2328 
Q 3016 3291 2770 3770 
Q 2525 4250 2034 4250 
z
M 2034 4750 
Q 2819 4750 3233 4129 
Q 3647 3509 3647 2328 
Q 3647 1150 3233 529 
Q 2819 -91 2034 -91 
Q 1250 -91 836 529 
Q 422 1150 422 2328 
Q 422 3509 836 4129 
Q 1250 4750 2034 4750 
z
" id="DejaVuSans-30" transform="scale(0.015625)"/>
       </defs>
       <use xlink:href="#DejaVuSans-30"/>
      </g>
     </g>
    </g>
    <g id="xtick_2">
     <g id="line2d_2">
      <g>
       <use style="stroke:#000000;stroke-width:0.8;" x="109.005598" xlink:href="#m0fbabcb246" y="273.312"/>
      </g>
     </g>
     <g id="text_2">
      <!-- 50 -->
      <g transform="translate(102.643098 287.910437)scale(0.1 -0.1)">
       <defs>
        <path d="M 691 4666 
L 3169 4666 
L 3169 4134 
L 1269 4134 
L 1269 2991 
Q 1406 3038 1543 3061 
Q 1681 3084 1819 3084 
Q 2600 3084 3056 2656 
Q 3513 2228 3513 1497 
Q 3513 744 3044 326 
Q 2575 -91 1722 -91 
Q 1428 -91 1123 -41 
Q 819 9 494 109 
L 494 744 
Q 775 591 1075 516 
Q 1375 441 1709 441 
Q 2250 441 2565 725 
Q 2881 1009 2881 1497 
Q 2881 1984 2565 2268 
Q 2250 2553 1709 2553 
Q 1456 2553 1204 2497 
Q 953 2441 691 2322 
L 691 4666 
z
" id="DejaVuSans-35" transform="scale(0.015625)"/>
       </defs>
       <use xlink:href="#DejaVuSans-35"/>
       <use x="63.623047" xlink:href="#DejaVuSans-30"/>
      </g>
     </g>
    </g>
    <g id="xtick_3">
     <g id="line2d_3">
      <g>
       <use style="stroke:#000000;stroke-width:0.8;" x="163.295655" xlink:href="#m0fbabcb246" y="273.312"/>
      </g>
     </g>
     <g id="text_3">
      <!-- 100 -->
      <g transform="translate(153.751905 287.910437)scale(0.1 -0.1)">
       <defs>
        <path d="M 794 531 
L 1825 531 
L 1825 4091 
L 703 3866 
L 703 4441 
L 1819 4666 
L 2450 4666 
L 2450 531 
L 3481 531 
L 3481 0 
L 794 0 
L 794 531 
z
" id="DejaVuSans-31" transform="scale(0.015625)"/>
       </defs>
       <use xlink:href="#DejaVuSans-31"/>
       <use x="63.623047" xlink:href="#DejaVuSans-30"/>
       <use x="127.246094" xlink:href="#DejaVuSans-30"/>
      </g>
     </g>
    </g>
    <g id="xtick_4">
     <g id="line2d_4">
      <g>
       <use style="stroke:#000000;stroke-width:0.8;" x="217.585713" xlink:href="#m0fbabcb246" y="273.312"/>
      </g>
     </g>
     <g id="text_4">
      <!-- 150 -->
      <g transform="translate(208.041963 287.910437)scale(0.1 -0.1)">
       <use xlink:href="#DejaVuSans-31"/>
       <use x="63.623047" xlink:href="#DejaVuSans-35"/>
       <use x="127.246094" xlink:href="#DejaVuSans-30"/>
      </g>
     </g>
    </g>
    <g id="xtick_5">
     <g id="line2d_5">
      <g>
       <use style="stroke:#000000;stroke-width:0.8;" x="271.875771" xlink:href="#m0fbabcb246" y="273.312"/>
      </g>
     </g>
     <g id="text_5">
      <!-- 200 -->
      <g transform="translate(262.332021 287.910437)scale(0.1 -0.1)">
       <defs>
        <path d="M 1228 531 
L 3431 531 
L 3431 0 
L 469 0 
L 469 531 
Q 828 903 1448 1529 
Q 2069 2156 2228 2338 
Q 2531 2678 2651 2914 
Q 2772 3150 2772 3378 
Q 2772 3750 2511 3984 
Q 2250 4219 1831 4219 
Q 1534 4219 1204 4116 
Q 875 4013 500 3803 
L 500 4441 
Q 881 4594 1212 4672 
Q 1544 4750 1819 4750 
Q 2544 4750 2975 4387 
Q 3406 4025 3406 3419 
Q 3406 3131 3298 2873 
Q 3191 2616 2906 2266 
Q 2828 2175 2409 1742 
Q 1991 1309 1228 531 
z
" id="DejaVuSans-32" transform="scale(0.015625)"/>
       </defs>
       <use xlink:href="#DejaVuSans-32"/>
       <use x="63.623047" xlink:href="#DejaVuSans-30"/>
       <use x="127.246094" xlink:href="#DejaVuSans-30"/>
      </g>
     </g>
    </g>
    <g id="xtick_6">
     <g id="line2d_6">
      <g>
       <use style="stroke:#000000;stroke-width:0.8;" x="326.165829" xlink:href="#m0fbabcb246" y="273.312"/>
      </g>
     </g>
     <g id="text_6">
      <!-- 250 -->
      <g transform="translate(316.622079 287.910437)scale(0.1 -0.1)">
       <use xlink:href="#DejaVuSans-32"/>
       <use x="63.623047" xlink:href="#DejaVuSans-35"/>
       <use x="127.246094" xlink:href="#DejaVuSans-30"/>
      </g>
     </g>
    </g>
    <g id="xtick_7">
     <g id="line2d_7">
      <g>
       <use style="stroke:#000000;stroke-width:0.8;" x="380.455886" xlink:href="#m0fbabcb246" y="273.312"/>
      </g>
     </g>
     <g id="text_7">
      <!-- 300 -->
      <g transform="translate(370.912136 287.910437)scale(0.1 -0.1)">
       <defs>
        <path d="M 2597 2516 
Q 3050 2419 3304 2112 
Q 3559 1806 3559 1356 
Q 3559 666 3084 287 
Q 2609 -91 1734 -91 
Q 1441 -91 1130 -33 
Q 819 25 488 141 
L 488 750 
Q 750 597 1062 519 
Q 1375 441 1716 441 
Q 2309 441 2620 675 
Q 2931 909 2931 1356 
Q 2931 1769 2642 2001 
Q 2353 2234 1838 2234 
L 1294 2234 
L 1294 2753 
L 1863 2753 
Q 2328 2753 2575 2939 
Q 2822 3125 2822 3475 
Q 2822 3834 2567 4026 
Q 2313 4219 1838 4219 
Q 1578 4219 1281 4162 
Q 984 4106 628 3988 
L 628 4550 
Q 988 4650 1302 4700 
Q 1616 4750 1894 4750 
Q 2613 4750 3031 4423 
Q 3450 4097 3450 3541 
Q 3450 3153 3228 2886 
Q 3006 2619 2597 2516 
z
" id="DejaVuSans-33" transform="scale(0.015625)"/>
       </defs>
       <use xlink:href="#DejaVuSans-33"/>
       <use x="63.623047" xlink:href="#DejaVuSans-30"/>
       <use x="127.246094" xlink:href="#DejaVuSans-30"/>
      </g>
     </g>
    </g>
   </g>
   <g id="matplotlib.axis_2">
    <g id="ytick_1">
     <g id="line2d_8">
      <defs>
       <path d="M 0 0 
L -3.5 0 
" id="m88e77f21de" style="stroke:#000000;stroke-width:0.8;"/>
      </defs>
      <g>
       <use style="stroke:#000000;stroke-width:0.8;" x="38.482813" xlink:href="#m88e77f21de" y="237.032087"/>
      </g>
     </g>
     <g id="text_8">
      <!-- −0.4 -->
      <g transform="translate(7.2 240.831306)scale(0.1 -0.1)">
       <defs>
        <path d="M 678 2272 
L 4684 2272 
L 4684 1741 
L 678 1741 
L 678 2272 
z
" id="DejaVuSans-2212" transform="scale(0.015625)"/>
        <path d="M 684 794 
L 1344 794 
L 1344 0 
L 684 0 
L 684 794 
z
" id="DejaVuSans-2e" transform="scale(0.015625)"/>
        <path d="M 2419 4116 
L 825 1625 
L 2419 1625 
L 2419 4116 
z
M 2253 4666 
L 3047 4666 
L 3047 1625 
L 3713 1625 
L 3713 1100 
L 3047 1100 
L 3047 0 
L 2419 0 
L 2419 1100 
L 313 1100 
L 313 1709 
L 2253 4666 
z
" id="DejaVuSans-34" transform="scale(0.015625)"/>
       </defs>
       <use xlink:href="#DejaVuSans-2212"/>
       <use x="83.789062" xlink:href="#DejaVuSans-30"/>
       <use x="147.412109" xlink:href="#DejaVuSans-2e"/>
       <use x="179.199219" xlink:href="#DejaVuSans-34"/>
      </g>
     </g>
    </g>
    <g id="ytick_2">
     <g id="line2d_9">
      <g>
       <use style="stroke:#000000;stroke-width:0.8;" x="38.482813" xlink:href="#m88e77f21de" y="188.646099"/>
      </g>
     </g>
     <g id="text_9">
      <!-- −0.2 -->
      <g transform="translate(7.2 192.445318)scale(0.1 -0.1)">
       <use xlink:href="#DejaVuSans-2212"/>
       <use x="83.789062" xlink:href="#DejaVuSans-30"/>
       <use x="147.412109" xlink:href="#DejaVuSans-2e"/>
       <use x="179.199219" xlink:href="#DejaVuSans-32"/>
      </g>
     </g>
    </g>
    <g id="ytick_3">
     <g id="line2d_10">
      <g>
       <use style="stroke:#000000;stroke-width:0.8;" x="38.482813" xlink:href="#m88e77f21de" y="140.260111"/>
      </g>
     </g>
     <g id="text_10">
      <!-- 0.0 -->
      <g transform="translate(15.579688 144.059329)scale(0.1 -0.1)">
       <use xlink:href="#DejaVuSans-30"/>
       <use x="63.623047" xlink:href="#DejaVuSans-2e"/>
       <use x="95.410156" xlink:href="#DejaVuSans-30"/>
      </g>
     </g>
    </g>
    <g id="ytick_4">
     <g id="line2d_11">
      <g>
       <use style="stroke:#000000;stroke-width:0.8;" x="38.482813" xlink:href="#m88e77f21de" y="91.874123"/>
      </g>
     </g>
     <g id="text_11">
      <!-- 0.2 -->
      <g transform="translate(15.579688 95.673341)scale(0.1 -0.1)">
       <use xlink:href="#DejaVuSans-30"/>
       <use x="63.623047" xlink:href="#DejaVuSans-2e"/>
       <use x="95.410156" xlink:href="#DejaVuSans-32"/>
      </g>
     </g>
    </g>
    <g id="ytick_5">
     <g id="line2d_12">
      <g>
       <use style="stroke:#000000;stroke-width:0.8;" x="38.482813" xlink:href="#m88e77f21de" y="43.488134"/>
      </g>
     </g>
     <g id="text_12">
      <!-- 0.4 -->
      <g transform="translate(15.579688 47.287353)scale(0.1 -0.1)">
       <use xlink:href="#DejaVuSans-30"/>
       <use x="63.623047" xlink:href="#DejaVuSans-2e"/>
       <use x="95.410156" xlink:href="#DejaVuSans-34"/>
      </g>
     </g>
    </g>
   </g>
   <g id="line2d_13">
    <path clip-path="url(#p23a32f225f)" d="M 54.71554 22.077776 
L 55.801341 38.621368 
L 56.887142 68.065493 
L 57.972943 106.672944 
L 60.144546 191.235679 
L 61.230347 226.457809 
L 62.316148 250.739267 
L 63.401949 260.998121 
L 64.48775 255.932262 
L 65.573551 236.184676 
L 66.659352 204.261832 
L 71.002557 47.400422 
L 72.088358 26.116955 
L 73.174159 19.321147 
L 74.259961 27.875558 
L 75.345762 50.694416 
L 76.431563 84.881431 
L 79.688966 208.462654 
L 80.774768 239.157695 
L 81.860569 257.300127 
L 82.94637 260.587215 
L 84.032171 248.601745 
L 85.117972 222.864976 
L 86.203773 186.643557 
L 89.461177 64.103379 
L 90.546978 35.989308 
L 91.632779 21.109843 
L 92.71858 21.353567 
L 93.804381 36.689543 
L 94.890183 65.171249 
L 95.975984 103.183635 
L 98.147586 187.904199 
L 99.233387 223.859193 
L 100.319188 249.203344 
L 101.404989 260.719839 
L 102.490791 256.946942 
L 103.576592 238.363529 
L 104.662393 207.328307 
L 106.833995 124.73953 
L 107.919796 83.668583 
L 109.005598 49.780535 
L 110.091399 27.376638 
L 111.1772 19.300514 
L 112.263001 26.577227 
L 113.348802 48.283179 
L 114.434603 81.663335 
L 117.692007 205.418734 
L 118.777808 237.01208 
L 119.863609 256.32515 
L 120.94941 260.906625 
L 122.035211 250.175001 
L 123.121013 225.492391 
L 124.206814 189.991646 
L 127.464217 66.972313 
L 128.550018 37.886003 
L 129.635819 21.793561 
L 130.721621 20.737526 
L 131.807422 34.851936 
L 132.893223 62.345314 
L 133.979024 99.728054 
L 136.150626 184.529379 
L 137.236428 221.184527 
L 138.322229 247.568316 
L 139.40803 260.331975 
L 140.493831 257.855472 
L 141.579632 240.453138 
L 142.665433 210.33377 
L 144.837036 128.364466 
L 145.922837 86.918511 
L 147.008638 52.242957 
L 148.094439 28.73901 
L 149.18024 19.389917 
L 150.266041 25.382313 
L 151.351843 45.955613 
L 152.437644 78.498544 
L 155.695047 202.315541 
L 156.780848 234.778451 
L 157.86665 255.244589 
L 158.952451 261.116284 
L 160.038252 251.648267 
L 161.124053 228.042272 
L 162.209854 193.294495 
L 165.467258 69.907916 
L 166.553059 39.875827 
L 167.63886 22.585047 
L 168.724661 20.230215 
L 169.810462 33.110218 
L 170.896263 59.590257 
L 171.982065 96.309345 
L 174.153667 181.114286 
L 175.239468 218.436244 
L 176.325269 245.83567 
L 177.41107 259.834882 
L 178.496871 258.657026 
L 179.582673 242.451602 
L 180.668474 213.275487 
L 181.754275 174.831872 
L 183.925877 90.216964 
L 185.011678 54.785448 
L 186.09748 30.202833 
L 187.183281 19.589275 
L 188.269082 24.291903 
L 189.354883 43.713836 
L 190.440684 75.389937 
L 194.783889 232.458839 
L 195.86969 254.059428 
L 196.955491 261.216 
L 198.041292 253.020205 
L 199.127093 230.512297 
L 200.212895 196.549099 
L 203.470298 72.907518 
L 204.556099 41.95697 
L 205.6419 23.483582 
L 206.727702 19.832094 
L 207.813503 31.465973 
L 208.899304 56.908585 
L 209.985105 92.930617 
L 213.242508 215.616845 
L 214.32831 244.006983 
L 215.414111 259.229013 
L 216.499912 259.350875 
L 217.585713 244.357102 
L 218.671514 216.150783 
L 219.757315 178.312014 
L 221.928918 93.560941 
L 223.014719 57.405696 
L 224.10052 31.766774 
L 225.186321 19.898407 
L 226.272122 23.306989 
L 227.357923 41.559886 
L 228.443725 72.340342 
L 230.615327 154.762463 
L 231.701128 195.942673 
L 232.786929 230.055354 
L 233.87273 252.770744 
L 234.958532 261.205683 
L 236.044333 254.289565 
L 237.130134 232.90022 
L 238.215935 199.752497 
L 241.473338 75.96839 
L 242.55914 44.127539 
L 243.644941 24.488348 
L 244.730742 19.543527 
L 245.816543 29.920699 
L 246.902344 54.302738 
L 247.988145 89.594946 
L 251.245549 212.728895 
L 252.33135 242.083917 
L 253.417151 258.514918 
L 254.502952 259.936388 
L 255.588754 246.167906 
L 256.674555 218.957041 
L 257.760356 181.757541 
L 259.931958 96.9474 
L 261.017759 60.101315 
L 262.10356 33.429412 
L 263.189362 20.317031 
L 264.275163 22.428466 
L 265.360964 39.495723 
L 266.446765 69.352534 
L 267.532566 108.209313 
L 269.704169 192.678796 
L 270.78997 227.570183 
L 271.875771 251.379709 
L 272.961572 261.085343 
L 274.047373 255.455193 
L 275.133174 235.203868 
L 276.218975 202.901775 
L 279.476379 79.087748 
L 280.56218 46.38556 
L 281.647981 25.598431 
L 282.733782 19.364774 
L 283.819584 28.475799 
L 284.905385 51.775086 
L 285.991186 86.305364 
L 289.248589 209.77502 
L 290.33439 240.068223 
L 291.420192 257.693248 
L 292.505993 260.413032 
L 293.591794 247.882366 
L 294.677595 221.691709 
L 295.763396 185.165318 
L 297.934999 100.373261 
L 299.0208 62.869854 
L 300.106601 35.189232 
L 301.192402 20.844767 
L 302.278203 21.657135 
L 303.364004 37.523225 
L 304.449806 66.42923 
L 305.535607 104.706244 
L 307.707209 189.367234 
L 308.79301 225.005586 
L 309.878811 249.88759 
L 310.964612 260.855088 
L 312.050414 256.516029 
L 313.136215 237.421147 
L 314.222016 205.994068 
L 316.393618 123.157866 
L 317.479419 82.262755 
L 318.565221 48.728978 
L 319.651022 26.812821 
L 320.736823 19.296 
L 321.822624 27.132589 
L 322.908425 49.327928 
L 323.994226 83.064864 
L 327.25163 206.757907 
L 328.337431 237.961734 
L 329.423232 256.764748 
L 330.509033 260.780373 
L 331.594834 249.498922 
L 332.680636 224.352298 
L 333.766437 188.532245 
L 337.02384 65.708795 
L 338.109641 37.044636 
L 339.195442 21.481135 
L 340.281244 20.993696 
L 341.367045 35.644187 
L 342.452846 63.573089 
L 343.538647 101.235518 
L 345.710249 186.011 
L 346.796051 222.363896 
L 347.881852 248.295742 
L 348.967653 260.515129 
L 350.053454 257.471107 
L 351.139255 239.550039 
L 352.225056 209.026564 
L 354.396659 126.77703 
L 355.48246 85.490521 
L 356.568261 51.155662 
L 357.654062 28.130414 
L 358.739863 19.337266 
L 359.825664 25.892291 
L 360.911466 46.963491 
L 361.997267 79.876395 
L 365.25467 203.680302 
L 366.340471 235.766365 
L 367.426273 255.730266 
L 368.512074 261.038077 
L 369.597875 251.016104 
L 370.683676 226.93639 
L 371.769477 191.855259 
L 375.026881 68.615556 
L 376.112682 38.993934 
L 377.198483 22.225555 
L 378.284284 20.438753 
L 379.370085 33.860317 
L 379.370085 33.860317 
" style="fill:none;stroke:#1f77b4;stroke-linecap:square;stroke-width:1.5;"/>
   </g>
   <g id="patch_3">
    <path d="M 38.482813 273.312 
L 38.482813 7.2 
" style="fill:none;stroke:#000000;stroke-linecap:square;stroke-linejoin:miter;stroke-width:0.8;"/>
   </g>
   <g id="patch_4">
    <path d="M 395.602813 273.312 
L 395.602813 7.2 
" style="fill:none;stroke:#000000;stroke-linecap:square;stroke-linejoin:miter;stroke-width:0.8;"/>
   </g>
   <g id="patch_5">
    <path d="M 38.482813 273.312 
L 395.602813 273.312 
" style="fill:none;stroke:#000000;stroke-linecap:square;stroke-linejoin:miter;stroke-width:0.8;"/>
   </g>
   <g id="patch_6">
    <path d="M 38.482813 7.2 
L 395.602813 7.2 
" style="fill:none;stroke:#000000;stroke-linecap:square;stroke-linejoin:miter;stroke-width:0.8;"/>
   </g>
  </g>
 </g>
 <defs>
  <clipPath id="p23a32f225f">
   <rect height="266.112" width="357.12" x="38.482813" y="7.2"/>
  </clipPath>
 </defs>
</svg>
