<?xml version="1.0" encoding="utf-8" standalone="no"?>
<!DOCTYPE svg PUBLIC "-//W3C//DTD SVG 1.1//EN"
  "http://www.w3.org/Graphics/SVG/1.1/DTD/svg11.dtd">
<svg height="345.6pt" version="1.1" viewBox="0 0 460.8 345.6" width="460.8pt" xmlns="http://www.w3.org/2000/svg" xmlns:xlink="http://www.w3.org/1999/xlink">
 <metadata>
  <rdf:RDF xmlns:cc="http://creativecommons.org/ns#" xmlns:dc="http://purl.org/dc/elements/1.1/" xmlns:rdf="http://www.w3.org/1999/02/22-rdf-syntax-ns#">
   <cc:Work>
    <dc:type rdf:resource="http://purl.org/dc/dcmitype/StillImage"/>
    <dc:date>2021-11-07T14:15:09.261120</dc:date>
    <dc:format>image/svg+xml</dc:format>
    <dc:creator>
     <cc:Agent>
      <dc:title>Matplotlib v3.4.3, https://matplotlib.org/</dc:title>
     </cc:Agent>
    </dc:creator>
   </cc:Work>
  </rdf:RDF>
 </metadata>
 <defs>
  <style type="text/css">*{stroke-linecap:butt;stroke-linejoin:round;}</style>
 </defs>
 <g id="figure_1">
  <g id="patch_1">
   <path d="M 0 345.6 
L 460.8 345.6 
L 460.8 0 
L 0 0 
z
" style="fill:#ffffff;"/>
  </g>
  <g id="axes_1">
   <g id="patch_2">
    <path d="M 57.6 307.584 
L 414.72 307.584 
L 414.72 41.472 
L 57.6 41.472 
z
" style="fill:#ffffff;"/>
   </g>
   <g id="matplotlib.axis_1">
    <g id="xtick_1">
     <g id="line2d_1">
      <defs>
       <path d="M 0 0 
L 0 3.5 
" id="m04c8fa71eb" style="stroke:#000000;stroke-width:0.8;"/>
      </defs>
      <g>
       <use style="stroke:#000000;stroke-width:0.8;" x="73.832727" xlink:href="#m04c8fa71eb" y="307.584"/>
      </g>
     </g>
     <g id="text_1">
      <!-- 0 -->
      <g transform="translate(70.651477 322.182437)scale(0.1 -0.1)">
       <defs>
        <path d="M 2034 4250 
Q 1547 4250 1301 3770 
Q 1056 3291 1056 2328 
Q 1056 1369 1301 889 
Q 1547 409 2034 409 
Q 2525 409 2770 889 
Q 3016 1369 3016 2328 
Q 3016 3291 2770 3770 
Q 2525 4250 2034 4250 
z
M 2034 4750 
Q 2819 4750 3233 4129 
Q 3647 3509 3647 2328 
Q 3647 1150 3233 529 
Q 2819 -91 2034 -91 
Q 1250 -91 836 529 
Q 422 1150 422 2328 
Q 422 3509 836 4129 
Q 1250 4750 2034 4750 
z
" id="DejaVuSans-30" transform="scale(0.015625)"/>
       </defs>
       <use xlink:href="#DejaVuSans-30"/>
      </g>
     </g>
    </g>
    <g id="xtick_2">
     <g id="line2d_2">
      <g>
       <use style="stroke:#000000;stroke-width:0.8;" x="128.122785" xlink:href="#m04c8fa71eb" y="307.584"/>
      </g>
     </g>
     <g id="text_2">
      <!-- 50 -->
      <g transform="translate(121.760285 322.182437)scale(0.1 -0.1)">
       <defs>
        <path d="M 691 4666 
L 3169 4666 
L 3169 4134 
L 1269 4134 
L 1269 2991 
Q 1406 3038 1543 3061 
Q 1681 3084 1819 3084 
Q 2600 3084 3056 2656 
Q 3513 2228 3513 1497 
Q 3513 744 3044 326 
Q 2575 -91 1722 -91 
Q 1428 -91 1123 -41 
Q 819 9 494 109 
L 494 744 
Q 775 591 1075 516 
Q 1375 441 1709 441 
Q 2250 441 2565 725 
Q 2881 1009 2881 1497 
Q 2881 1984 2565 2268 
Q 2250 2553 1709 2553 
Q 1456 2553 1204 2497 
Q 953 2441 691 2322 
L 691 4666 
z
" id="DejaVuSans-35" transform="scale(0.015625)"/>
       </defs>
       <use xlink:href="#DejaVuSans-35"/>
       <use x="63.623047" xlink:href="#DejaVuSans-30"/>
      </g>
     </g>
    </g>
    <g id="xtick_3">
     <g id="line2d_3">
      <g>
       <use style="stroke:#000000;stroke-width:0.8;" x="182.412843" xlink:href="#m04c8fa71eb" y="307.584"/>
      </g>
     </g>
     <g id="text_3">
      <!-- 100 -->
      <g transform="translate(172.869093 322.182437)scale(0.1 -0.1)">
       <defs>
        <path d="M 794 531 
L 1825 531 
L 1825 4091 
L 703 3866 
L 703 4441 
L 1819 4666 
L 2450 4666 
L 2450 531 
L 3481 531 
L 3481 0 
L 794 0 
L 794 531 
z
" id="DejaVuSans-31" transform="scale(0.015625)"/>
       </defs>
       <use xlink:href="#DejaVuSans-31"/>
       <use x="63.623047" xlink:href="#DejaVuSans-30"/>
       <use x="127.246094" xlink:href="#DejaVuSans-30"/>
      </g>
     </g>
    </g>
    <g id="xtick_4">
     <g id="line2d_4">
      <g>
       <use style="stroke:#000000;stroke-width:0.8;" x="236.702901" xlink:href="#m04c8fa71eb" y="307.584"/>
      </g>
     </g>
     <g id="text_4">
      <!-- 150 -->
      <g transform="translate(227.159151 322.182437)scale(0.1 -0.1)">
       <use xlink:href="#DejaVuSans-31"/>
       <use x="63.623047" xlink:href="#DejaVuSans-35"/>
       <use x="127.246094" xlink:href="#DejaVuSans-30"/>
      </g>
     </g>
    </g>
    <g id="xtick_5">
     <g id="line2d_5">
      <g>
       <use style="stroke:#000000;stroke-width:0.8;" x="290.992958" xlink:href="#m04c8fa71eb" y="307.584"/>
      </g>
     </g>
     <g id="text_5">
      <!-- 200 -->
      <g transform="translate(281.449208 322.182437)scale(0.1 -0.1)">
       <defs>
        <path d="M 1228 531 
L 3431 531 
L 3431 0 
L 469 0 
L 469 531 
Q 828 903 1448 1529 
Q 2069 2156 2228 2338 
Q 2531 2678 2651 2914 
Q 2772 3150 2772 3378 
Q 2772 3750 2511 3984 
Q 2250 4219 1831 4219 
Q 1534 4219 1204 4116 
Q 875 4013 500 3803 
L 500 4441 
Q 881 4594 1212 4672 
Q 1544 4750 1819 4750 
Q 2544 4750 2975 4387 
Q 3406 4025 3406 3419 
Q 3406 3131 3298 2873 
Q 3191 2616 2906 2266 
Q 2828 2175 2409 1742 
Q 1991 1309 1228 531 
z
" id="DejaVuSans-32" transform="scale(0.015625)"/>
       </defs>
       <use xlink:href="#DejaVuSans-32"/>
       <use x="63.623047" xlink:href="#DejaVuSans-30"/>
       <use x="127.246094" xlink:href="#DejaVuSans-30"/>
      </g>
     </g>
    </g>
    <g id="xtick_6">
     <g id="line2d_6">
      <g>
       <use style="stroke:#000000;stroke-width:0.8;" x="345.283016" xlink:href="#m04c8fa71eb" y="307.584"/>
      </g>
     </g>
     <g id="text_6">
      <!-- 250 -->
      <g transform="translate(335.739266 322.182437)scale(0.1 -0.1)">
       <use xlink:href="#DejaVuSans-32"/>
       <use x="63.623047" xlink:href="#DejaVuSans-35"/>
       <use x="127.246094" xlink:href="#DejaVuSans-30"/>
      </g>
     </g>
    </g>
    <g id="xtick_7">
     <g id="line2d_7">
      <g>
       <use style="stroke:#000000;stroke-width:0.8;" x="399.573074" xlink:href="#m04c8fa71eb" y="307.584"/>
      </g>
     </g>
     <g id="text_7">
      <!-- 300 -->
      <g transform="translate(390.029324 322.182437)scale(0.1 -0.1)">
       <defs>
        <path d="M 2597 2516 
Q 3050 2419 3304 2112 
Q 3559 1806 3559 1356 
Q 3559 666 3084 287 
Q 2609 -91 1734 -91 
Q 1441 -91 1130 -33 
Q 819 25 488 141 
L 488 750 
Q 750 597 1062 519 
Q 1375 441 1716 441 
Q 2309 441 2620 675 
Q 2931 909 2931 1356 
Q 2931 1769 2642 2001 
Q 2353 2234 1838 2234 
L 1294 2234 
L 1294 2753 
L 1863 2753 
Q 2328 2753 2575 2939 
Q 2822 3125 2822 3475 
Q 2822 3834 2567 4026 
Q 2313 4219 1838 4219 
Q 1578 4219 1281 4162 
Q 984 4106 628 3988 
L 628 4550 
Q 988 4650 1302 4700 
Q 1616 4750 1894 4750 
Q 2613 4750 3031 4423 
Q 3450 4097 3450 3541 
Q 3450 3153 3228 2886 
Q 3006 2619 2597 2516 
z
" id="DejaVuSans-33" transform="scale(0.015625)"/>
       </defs>
       <use xlink:href="#DejaVuSans-33"/>
       <use x="63.623047" xlink:href="#DejaVuSans-30"/>
       <use x="127.246094" xlink:href="#DejaVuSans-30"/>
      </g>
     </g>
    </g>
   </g>
   <g id="matplotlib.axis_2">
    <g id="ytick_1">
     <g id="line2d_8">
      <defs>
       <path d="M 0 0 
L -3.5 0 
" id="m1876977a8c" style="stroke:#000000;stroke-width:0.8;"/>
      </defs>
      <g>
       <use style="stroke:#000000;stroke-width:0.8;" x="57.6" xlink:href="#m1876977a8c" y="265.086762"/>
      </g>
     </g>
     <g id="text_8">
      <!-- −0.4 -->
      <g transform="translate(26.317187 268.885981)scale(0.1 -0.1)">
       <defs>
        <path d="M 678 2272 
L 4684 2272 
L 4684 1741 
L 678 1741 
L 678 2272 
z
" id="DejaVuSans-2212" transform="scale(0.015625)"/>
        <path d="M 684 794 
L 1344 794 
L 1344 0 
L 684 0 
L 684 794 
z
" id="DejaVuSans-2e" transform="scale(0.015625)"/>
        <path d="M 2419 4116 
L 825 1625 
L 2419 1625 
L 2419 4116 
z
M 2253 4666 
L 3047 4666 
L 3047 1625 
L 3713 1625 
L 3713 1100 
L 3047 1100 
L 3047 0 
L 2419 0 
L 2419 1100 
L 313 1100 
L 313 1709 
L 2253 4666 
z
" id="DejaVuSans-34" transform="scale(0.015625)"/>
       </defs>
       <use xlink:href="#DejaVuSans-2212"/>
       <use x="83.789062" xlink:href="#DejaVuSans-30"/>
       <use x="147.412109" xlink:href="#DejaVuSans-2e"/>
       <use x="179.199219" xlink:href="#DejaVuSans-34"/>
      </g>
     </g>
    </g>
    <g id="ytick_2">
     <g id="line2d_9">
      <g>
       <use style="stroke:#000000;stroke-width:0.8;" x="57.6" xlink:href="#m1876977a8c" y="219.294359"/>
      </g>
     </g>
     <g id="text_9">
      <!-- −0.2 -->
      <g transform="translate(26.317187 223.093578)scale(0.1 -0.1)">
       <use xlink:href="#DejaVuSans-2212"/>
       <use x="83.789062" xlink:href="#DejaVuSans-30"/>
       <use x="147.412109" xlink:href="#DejaVuSans-2e"/>
       <use x="179.199219" xlink:href="#DejaVuSans-32"/>
      </g>
     </g>
    </g>
    <g id="ytick_3">
     <g id="line2d_10">
      <g>
       <use style="stroke:#000000;stroke-width:0.8;" x="57.6" xlink:href="#m1876977a8c" y="173.501956"/>
      </g>
     </g>
     <g id="text_10">
      <!-- 0.0 -->
      <g transform="translate(34.696875 177.301175)scale(0.1 -0.1)">
       <use xlink:href="#DejaVuSans-30"/>
       <use x="63.623047" xlink:href="#DejaVuSans-2e"/>
       <use x="95.410156" xlink:href="#DejaVuSans-30"/>
      </g>
     </g>
    </g>
    <g id="ytick_4">
     <g id="line2d_11">
      <g>
       <use style="stroke:#000000;stroke-width:0.8;" x="57.6" xlink:href="#m1876977a8c" y="127.709554"/>
      </g>
     </g>
     <g id="text_11">
      <!-- 0.2 -->
      <g transform="translate(34.696875 131.508772)scale(0.1 -0.1)">
       <use xlink:href="#DejaVuSans-30"/>
       <use x="63.623047" xlink:href="#DejaVuSans-2e"/>
       <use x="95.410156" xlink:href="#DejaVuSans-32"/>
      </g>
     </g>
    </g>
    <g id="ytick_5">
     <g id="line2d_12">
      <g>
       <use style="stroke:#000000;stroke-width:0.8;" x="57.6" xlink:href="#m1876977a8c" y="81.917151"/>
      </g>
     </g>
     <g id="text_12">
      <!-- 0.4 -->
      <g transform="translate(34.696875 85.71637)scale(0.1 -0.1)">
       <use xlink:href="#DejaVuSans-30"/>
       <use x="63.623047" xlink:href="#DejaVuSans-2e"/>
       <use x="95.410156" xlink:href="#DejaVuSans-34"/>
      </g>
     </g>
    </g>
   </g>
   <g id="line2d_13">
    <path clip-path="url(#p559385422f)" d="M 73.832727 81.008254 
L 74.918528 86.075162 
L 76.00433 116.084332 
L 79.261733 238.400605 
L 80.347534 269.108453 
L 81.433335 288.476283 
L 82.519137 290.686081 
L 83.604938 275.54487 
L 84.690739 248.062018 
L 85.77654 205.569202 
L 87.948142 144.503639 
L 89.033943 99.384841 
L 90.119745 68.915953 
L 91.205546 56.648071 
L 92.291347 67.77939 
L 94.462949 102.780429 
L 95.54875 138.956871 
L 96.634552 183.828997 
L 97.720353 222.553783 
L 98.806154 253.39725 
L 99.891955 274.585221 
L 100.977756 281.691054 
L 102.063557 276.501088 
L 103.149358 258.64265 
L 104.23516 231.689381 
L 106.406762 151.293477 
L 108.578364 91.79388 
L 109.664165 72.440246 
L 110.749967 59.918808 
L 111.835768 68.496842 
L 114.00737 113.465581 
L 115.093171 150.968267 
L 116.178972 195.338991 
L 117.264773 230.61887 
L 118.350575 258.382147 
L 119.436376 283.300425 
L 120.522177 290.357266 
L 121.607978 281.927963 
L 122.693779 258.20638 
L 125.951183 143.496736 
L 128.122785 82.932972 
L 129.208586 63.49616 
L 130.294387 61.888815 
L 131.380189 65.737574 
L 132.46599 99.585227 
L 135.723393 224.358964 
L 136.809194 253.868248 
L 137.894995 278.544534 
L 138.980797 285.626427 
L 140.066598 279.501029 
L 141.152399 264.65151 
L 142.2382 236.846975 
L 143.324001 203.377402 
L 145.495604 122.278742 
L 147.667206 68.089078 
L 148.753007 59.562795 
L 149.838808 72.446609 
L 150.924609 92.642102 
L 152.01041 118.63802 
L 153.096212 150.939038 
L 155.267814 235.240046 
L 156.353615 256.269965 
L 157.439416 266.33847 
L 158.525217 280.153213 
L 159.611019 274.054227 
L 160.69682 258.729241 
L 161.782621 232.467434 
L 163.954223 143.254555 
L 165.040024 107.044115 
L 166.125825 94.0831 
L 168.297428 54.161057 
L 169.383229 68.126768 
L 170.46903 92.14043 
L 171.554831 130.967562 
L 172.640632 177.394098 
L 173.726434 209.319912 
L 174.812235 236.121436 
L 176.983837 281.809015 
L 178.069638 291.738996 
L 179.155439 274.805789 
L 180.24124 245.426873 
L 181.327042 208.856208 
L 182.412843 166.016068 
L 183.498644 127.704117 
L 184.584445 100.17952 
L 185.670246 77.030412 
L 186.756047 60.722742 
L 187.841849 63.068206 
L 188.92765 87.333261 
L 191.099252 152.472245 
L 193.270854 224.820942 
L 194.356656 253.403734 
L 195.442457 278.445746 
L 196.528258 293.161096 
L 197.614059 284.99532 
L 198.69986 261.00548 
L 200.871462 174.943245 
L 201.957264 141.57141 
L 203.043065 103.395797 
L 204.128866 79.217658 
L 205.214667 63.812075 
L 206.300468 58.519897 
L 207.386269 69.458192 
L 208.472071 89.408387 
L 211.729474 217.269543 
L 212.815275 249.358301 
L 214.986877 279.787001 
L 216.072679 284.246816 
L 217.15848 273.157004 
L 218.244281 244.397475 
L 221.501684 126.215936 
L 222.587486 96.60858 
L 223.673287 70.152574 
L 224.759088 56.941674 
L 225.844889 68.446595 
L 226.93069 93.765856 
L 229.102292 153.151394 
L 230.188094 197.492301 
L 231.273895 235.218351 
L 233.445497 276.260171 
L 234.531298 274.808868 
L 235.617099 268.510076 
L 236.702901 260.829773 
L 237.788702 230.879863 
L 239.960304 151.789515 
L 241.046105 118.389115 
L 242.131906 80.614746 
L 243.217708 71.263584 
L 244.303509 72.695749 
L 245.38931 69.424243 
L 246.475111 93.745868 
L 248.646713 172.118778 
L 249.732514 213.055399 
L 251.904117 271.545128 
L 252.989918 288.589535 
L 254.075719 282.946493 
L 255.16152 274.575408 
L 256.247321 242.906856 
L 257.333123 204.698104 
L 258.418924 171.025387 
L 259.504725 126.00406 
L 260.590526 91.955615 
L 261.676327 74.308348 
L 262.762128 53.568 
L 263.847929 57.72708 
L 264.933731 84.070055 
L 266.019532 107.542356 
L 268.191134 185.572361 
L 269.276935 215.962006 
L 271.448538 282.853361 
L 272.534339 291.73079 
L 273.62014 282.448447 
L 274.705941 258.360702 
L 276.877543 189.514329 
L 277.963344 146.495394 
L 279.049146 112.666497 
L 281.220748 68.247297 
L 282.306549 62.748045 
L 283.39235 65.029989 
L 284.478151 84.73364 
L 286.649754 164.684351 
L 287.735555 209.700977 
L 288.821356 239.129295 
L 289.907157 262.125844 
L 290.992958 277.698454 
L 292.07876 277.544214 
L 293.164561 276.8099 
L 294.250362 257.76853 
L 295.336163 215.22011 
L 297.507765 141.704092 
L 298.593566 99.10345 
L 299.679368 64.939775 
L 300.765169 54.106895 
L 301.85097 63.517612 
L 302.936771 77.99219 
L 304.022572 99.213084 
L 305.108373 134.653185 
L 308.365777 262.528683 
L 309.451578 289.778658 
L 310.537379 293.549988 
L 311.62318 288.001985 
L 312.708981 268.552026 
L 314.880584 199.295398 
L 317.052186 111.703056 
L 318.137987 81.089615 
L 319.223788 60.933942 
L 320.30959 54.014407 
L 321.395391 58.871062 
L 322.481192 84.36374 
L 324.652794 161.042078 
L 325.738595 201.686925 
L 327.910198 263.61117 
L 328.995999 285.94975 
L 330.0818 286.695201 
L 331.167601 269.794903 
L 332.253402 238.258681 
L 336.596607 95.285396 
L 337.682408 75.883505 
L 338.768209 66.008389 
L 339.85401 61.045197 
L 340.939811 75.641184 
L 342.025613 100.70455 
L 343.111414 142.245245 
L 344.197215 192.292856 
L 345.283016 223.723342 
L 347.454618 270.817943 
L 348.54042 286.343681 
L 349.626221 289.394474 
L 350.712022 262.835148 
L 352.883624 195.568257 
L 355.055227 120.525689 
L 356.141028 91.877429 
L 357.226829 69.234497 
L 358.31263 55.009193 
L 359.398431 63.211359 
L 360.484232 83.296623 
L 362.655835 152.093541 
L 365.913238 267.091933 
L 366.999039 288.861841 
L 368.08484 295.488 
L 369.170642 270.125373 
L 370.256443 239.71451 
L 371.342244 221.137526 
L 372.428045 184.049593 
L 373.513846 131.077789 
L 374.599647 94.828716 
L 376.77125 64.469563 
L 377.857051 67.347999 
L 380.028653 100.245971 
L 381.114454 136.181995 
L 383.286057 222.533464 
L 384.371858 257.989263 
L 385.457659 278.044505 
L 386.54346 286.477155 
L 387.629261 292.810041 
L 388.715062 274.032903 
L 390.886665 200.575854 
L 391.972466 150.435651 
L 393.058267 119.633874 
L 394.144068 96.002936 
L 395.229869 67.123369 
L 396.31567 55.981498 
L 397.401472 66.837039 
L 398.487273 88.182086 
L 398.487273 88.182086 
" style="fill:none;stroke:#1f77b4;stroke-linecap:square;stroke-width:1.5;"/>
   </g>
   <g id="patch_3">
    <path d="M 57.6 307.584 
L 57.6 41.472 
" style="fill:none;stroke:#000000;stroke-linecap:square;stroke-linejoin:miter;stroke-width:0.8;"/>
   </g>
   <g id="patch_4">
    <path d="M 414.72 307.584 
L 414.72 41.472 
" style="fill:none;stroke:#000000;stroke-linecap:square;stroke-linejoin:miter;stroke-width:0.8;"/>
   </g>
   <g id="patch_5">
    <path d="M 57.6 307.584 
L 414.72 307.584 
" style="fill:none;stroke:#000000;stroke-linecap:square;stroke-linejoin:miter;stroke-width:0.8;"/>
   </g>
   <g id="patch_6">
    <path d="M 57.6 41.472 
L 414.72 41.472 
" style="fill:none;stroke:#000000;stroke-linecap:square;stroke-linejoin:miter;stroke-width:0.8;"/>
   </g>
  </g>
 </g>
 <defs>
  <clipPath id="p559385422f">
   <rect height="266.112" width="357.12" x="57.6" y="41.472"/>
  </clipPath>
 </defs>
</svg>
