<?xml version="1.0" encoding="utf-8" standalone="no"?>
<!DOCTYPE svg PUBLIC "-//W3C//DTD SVG 1.1//EN"
  "http://www.w3.org/Graphics/SVG/1.1/DTD/svg11.dtd">
<svg height="297.190125pt" version="1.1" viewBox="0 0 402.802812 297.190125" width="402.802812pt" xmlns="http://www.w3.org/2000/svg" xmlns:xlink="http://www.w3.org/1999/xlink">
 <metadata>
  <rdf:RDF xmlns:cc="http://creativecommons.org/ns#" xmlns:dc="http://purl.org/dc/elements/1.1/" xmlns:rdf="http://www.w3.org/1999/02/22-rdf-syntax-ns#">
   <cc:Work>
    <dc:type rdf:resource="http://purl.org/dc/dcmitype/StillImage"/>
    <dc:date>2021-11-07T16:32:51.285150</dc:date>
    <dc:format>image/svg+xml</dc:format>
    <dc:creator>
     <cc:Agent>
      <dc:title>Matplotlib v3.4.3, https://matplotlib.org/</dc:title>
     </cc:Agent>
    </dc:creator>
   </cc:Work>
  </rdf:RDF>
 </metadata>
 <defs>
  <style type="text/css">*{stroke-linecap:butt;stroke-linejoin:round;}</style>
 </defs>
 <g id="figure_1">
  <g id="patch_1">
   <path d="M 0 297.190125 
L 402.802812 297.190125 
L 402.802812 0 
L 0 0 
z
" style="fill:#ffffff;"/>
  </g>
  <g id="axes_1">
   <g id="patch_2">
    <path d="M 38.482813 273.312 
L 395.602813 273.312 
L 395.602813 7.2 
L 38.482813 7.2 
z
" style="fill:#ffffff;"/>
   </g>
   <g id="matplotlib.axis_1">
    <g id="xtick_1">
     <g id="line2d_1">
      <defs>
       <path d="M 0 0 
L 0 3.5 
" id="m3a2ca07b52" style="stroke:#000000;stroke-width:0.8;"/>
      </defs>
      <g>
       <use style="stroke:#000000;stroke-width:0.8;" x="54.71554" xlink:href="#m3a2ca07b52" y="273.312"/>
      </g>
     </g>
     <g id="text_1">
      <!-- 0 -->
      <g transform="translate(51.53429 287.910437)scale(0.1 -0.1)">
       <defs>
        <path d="M 2034 4250 
Q 1547 4250 1301 3770 
Q 1056 3291 1056 2328 
Q 1056 1369 1301 889 
Q 1547 409 2034 409 
Q 2525 409 2770 889 
Q 3016 1369 3016 2328 
Q 3016 3291 2770 3770 
Q 2525 4250 2034 4250 
z
M 2034 4750 
Q 2819 4750 3233 4129 
Q 3647 3509 3647 2328 
Q 3647 1150 3233 529 
Q 2819 -91 2034 -91 
Q 1250 -91 836 529 
Q 422 1150 422 2328 
Q 422 3509 836 4129 
Q 1250 4750 2034 4750 
z
" id="DejaVuSans-30" transform="scale(0.015625)"/>
       </defs>
       <use xlink:href="#DejaVuSans-30"/>
      </g>
     </g>
    </g>
    <g id="xtick_2">
     <g id="line2d_2">
      <g>
       <use style="stroke:#000000;stroke-width:0.8;" x="109.005598" xlink:href="#m3a2ca07b52" y="273.312"/>
      </g>
     </g>
     <g id="text_2">
      <!-- 50 -->
      <g transform="translate(102.643098 287.910437)scale(0.1 -0.1)">
       <defs>
        <path d="M 691 4666 
L 3169 4666 
L 3169 4134 
L 1269 4134 
L 1269 2991 
Q 1406 3038 1543 3061 
Q 1681 3084 1819 3084 
Q 2600 3084 3056 2656 
Q 3513 2228 3513 1497 
Q 3513 744 3044 326 
Q 2575 -91 1722 -91 
Q 1428 -91 1123 -41 
Q 819 9 494 109 
L 494 744 
Q 775 591 1075 516 
Q 1375 441 1709 441 
Q 2250 441 2565 725 
Q 2881 1009 2881 1497 
Q 2881 1984 2565 2268 
Q 2250 2553 1709 2553 
Q 1456 2553 1204 2497 
Q 953 2441 691 2322 
L 691 4666 
z
" id="DejaVuSans-35" transform="scale(0.015625)"/>
       </defs>
       <use xlink:href="#DejaVuSans-35"/>
       <use x="63.623047" xlink:href="#DejaVuSans-30"/>
      </g>
     </g>
    </g>
    <g id="xtick_3">
     <g id="line2d_3">
      <g>
       <use style="stroke:#000000;stroke-width:0.8;" x="163.295655" xlink:href="#m3a2ca07b52" y="273.312"/>
      </g>
     </g>
     <g id="text_3">
      <!-- 100 -->
      <g transform="translate(153.751905 287.910437)scale(0.1 -0.1)">
       <defs>
        <path d="M 794 531 
L 1825 531 
L 1825 4091 
L 703 3866 
L 703 4441 
L 1819 4666 
L 2450 4666 
L 2450 531 
L 3481 531 
L 3481 0 
L 794 0 
L 794 531 
z
" id="DejaVuSans-31" transform="scale(0.015625)"/>
       </defs>
       <use xlink:href="#DejaVuSans-31"/>
       <use x="63.623047" xlink:href="#DejaVuSans-30"/>
       <use x="127.246094" xlink:href="#DejaVuSans-30"/>
      </g>
     </g>
    </g>
    <g id="xtick_4">
     <g id="line2d_4">
      <g>
       <use style="stroke:#000000;stroke-width:0.8;" x="217.585713" xlink:href="#m3a2ca07b52" y="273.312"/>
      </g>
     </g>
     <g id="text_4">
      <!-- 150 -->
      <g transform="translate(208.041963 287.910437)scale(0.1 -0.1)">
       <use xlink:href="#DejaVuSans-31"/>
       <use x="63.623047" xlink:href="#DejaVuSans-35"/>
       <use x="127.246094" xlink:href="#DejaVuSans-30"/>
      </g>
     </g>
    </g>
    <g id="xtick_5">
     <g id="line2d_5">
      <g>
       <use style="stroke:#000000;stroke-width:0.8;" x="271.875771" xlink:href="#m3a2ca07b52" y="273.312"/>
      </g>
     </g>
     <g id="text_5">
      <!-- 200 -->
      <g transform="translate(262.332021 287.910437)scale(0.1 -0.1)">
       <defs>
        <path d="M 1228 531 
L 3431 531 
L 3431 0 
L 469 0 
L 469 531 
Q 828 903 1448 1529 
Q 2069 2156 2228 2338 
Q 2531 2678 2651 2914 
Q 2772 3150 2772 3378 
Q 2772 3750 2511 3984 
Q 2250 4219 1831 4219 
Q 1534 4219 1204 4116 
Q 875 4013 500 3803 
L 500 4441 
Q 881 4594 1212 4672 
Q 1544 4750 1819 4750 
Q 2544 4750 2975 4387 
Q 3406 4025 3406 3419 
Q 3406 3131 3298 2873 
Q 3191 2616 2906 2266 
Q 2828 2175 2409 1742 
Q 1991 1309 1228 531 
z
" id="DejaVuSans-32" transform="scale(0.015625)"/>
       </defs>
       <use xlink:href="#DejaVuSans-32"/>
       <use x="63.623047" xlink:href="#DejaVuSans-30"/>
       <use x="127.246094" xlink:href="#DejaVuSans-30"/>
      </g>
     </g>
    </g>
    <g id="xtick_6">
     <g id="line2d_6">
      <g>
       <use style="stroke:#000000;stroke-width:0.8;" x="326.165829" xlink:href="#m3a2ca07b52" y="273.312"/>
      </g>
     </g>
     <g id="text_6">
      <!-- 250 -->
      <g transform="translate(316.622079 287.910437)scale(0.1 -0.1)">
       <use xlink:href="#DejaVuSans-32"/>
       <use x="63.623047" xlink:href="#DejaVuSans-35"/>
       <use x="127.246094" xlink:href="#DejaVuSans-30"/>
      </g>
     </g>
    </g>
    <g id="xtick_7">
     <g id="line2d_7">
      <g>
       <use style="stroke:#000000;stroke-width:0.8;" x="380.455886" xlink:href="#m3a2ca07b52" y="273.312"/>
      </g>
     </g>
     <g id="text_7">
      <!-- 300 -->
      <g transform="translate(370.912136 287.910437)scale(0.1 -0.1)">
       <defs>
        <path d="M 2597 2516 
Q 3050 2419 3304 2112 
Q 3559 1806 3559 1356 
Q 3559 666 3084 287 
Q 2609 -91 1734 -91 
Q 1441 -91 1130 -33 
Q 819 25 488 141 
L 488 750 
Q 750 597 1062 519 
Q 1375 441 1716 441 
Q 2309 441 2620 675 
Q 2931 909 2931 1356 
Q 2931 1769 2642 2001 
Q 2353 2234 1838 2234 
L 1294 2234 
L 1294 2753 
L 1863 2753 
Q 2328 2753 2575 2939 
Q 2822 3125 2822 3475 
Q 2822 3834 2567 4026 
Q 2313 4219 1838 4219 
Q 1578 4219 1281 4162 
Q 984 4106 628 3988 
L 628 4550 
Q 988 4650 1302 4700 
Q 1616 4750 1894 4750 
Q 2613 4750 3031 4423 
Q 3450 4097 3450 3541 
Q 3450 3153 3228 2886 
Q 3006 2619 2597 2516 
z
" id="DejaVuSans-33" transform="scale(0.015625)"/>
       </defs>
       <use xlink:href="#DejaVuSans-33"/>
       <use x="63.623047" xlink:href="#DejaVuSans-30"/>
       <use x="127.246094" xlink:href="#DejaVuSans-30"/>
      </g>
     </g>
    </g>
   </g>
   <g id="matplotlib.axis_2">
    <g id="ytick_1">
     <g id="line2d_8">
      <defs>
       <path d="M 0 0 
L -3.5 0 
" id="m734845472f" style="stroke:#000000;stroke-width:0.8;"/>
      </defs>
      <g>
       <use style="stroke:#000000;stroke-width:0.8;" x="38.482813" xlink:href="#m734845472f" y="230.814762"/>
      </g>
     </g>
     <g id="text_8">
      <!-- −0.4 -->
      <g transform="translate(7.2 234.613981)scale(0.1 -0.1)">
       <defs>
        <path d="M 678 2272 
L 4684 2272 
L 4684 1741 
L 678 1741 
L 678 2272 
z
" id="DejaVuSans-2212" transform="scale(0.015625)"/>
        <path d="M 684 794 
L 1344 794 
L 1344 0 
L 684 0 
L 684 794 
z
" id="DejaVuSans-2e" transform="scale(0.015625)"/>
        <path d="M 2419 4116 
L 825 1625 
L 2419 1625 
L 2419 4116 
z
M 2253 4666 
L 3047 4666 
L 3047 1625 
L 3713 1625 
L 3713 1100 
L 3047 1100 
L 3047 0 
L 2419 0 
L 2419 1100 
L 313 1100 
L 313 1709 
L 2253 4666 
z
" id="DejaVuSans-34" transform="scale(0.015625)"/>
       </defs>
       <use xlink:href="#DejaVuSans-2212"/>
       <use x="83.789062" xlink:href="#DejaVuSans-30"/>
       <use x="147.412109" xlink:href="#DejaVuSans-2e"/>
       <use x="179.199219" xlink:href="#DejaVuSans-34"/>
      </g>
     </g>
    </g>
    <g id="ytick_2">
     <g id="line2d_9">
      <g>
       <use style="stroke:#000000;stroke-width:0.8;" x="38.482813" xlink:href="#m734845472f" y="185.022359"/>
      </g>
     </g>
     <g id="text_9">
      <!-- −0.2 -->
      <g transform="translate(7.2 188.821578)scale(0.1 -0.1)">
       <use xlink:href="#DejaVuSans-2212"/>
       <use x="83.789062" xlink:href="#DejaVuSans-30"/>
       <use x="147.412109" xlink:href="#DejaVuSans-2e"/>
       <use x="179.199219" xlink:href="#DejaVuSans-32"/>
      </g>
     </g>
    </g>
    <g id="ytick_3">
     <g id="line2d_10">
      <g>
       <use style="stroke:#000000;stroke-width:0.8;" x="38.482813" xlink:href="#m734845472f" y="139.229956"/>
      </g>
     </g>
     <g id="text_10">
      <!-- 0.0 -->
      <g transform="translate(15.579688 143.029175)scale(0.1 -0.1)">
       <use xlink:href="#DejaVuSans-30"/>
       <use x="63.623047" xlink:href="#DejaVuSans-2e"/>
       <use x="95.410156" xlink:href="#DejaVuSans-30"/>
      </g>
     </g>
    </g>
    <g id="ytick_4">
     <g id="line2d_11">
      <g>
       <use style="stroke:#000000;stroke-width:0.8;" x="38.482813" xlink:href="#m734845472f" y="93.437554"/>
      </g>
     </g>
     <g id="text_11">
      <!-- 0.2 -->
      <g transform="translate(15.579688 97.236772)scale(0.1 -0.1)">
       <use xlink:href="#DejaVuSans-30"/>
       <use x="63.623047" xlink:href="#DejaVuSans-2e"/>
       <use x="95.410156" xlink:href="#DejaVuSans-32"/>
      </g>
     </g>
    </g>
    <g id="ytick_5">
     <g id="line2d_12">
      <g>
       <use style="stroke:#000000;stroke-width:0.8;" x="38.482813" xlink:href="#m734845472f" y="47.645151"/>
      </g>
     </g>
     <g id="text_12">
      <!-- 0.4 -->
      <g transform="translate(15.579688 51.44437)scale(0.1 -0.1)">
       <use xlink:href="#DejaVuSans-30"/>
       <use x="63.623047" xlink:href="#DejaVuSans-2e"/>
       <use x="95.410156" xlink:href="#DejaVuSans-34"/>
      </g>
     </g>
    </g>
   </g>
   <g id="line2d_13">
    <path clip-path="url(#p958fab7aca)" d="M 54.71554 46.736254 
L 55.801341 51.803162 
L 56.887142 81.812332 
L 60.144546 204.128605 
L 61.230347 234.836453 
L 62.316148 254.204283 
L 63.401949 256.414081 
L 64.48775 241.27287 
L 65.573551 213.790018 
L 66.659352 171.297202 
L 68.830955 110.231639 
L 69.916756 65.112841 
L 71.002557 34.643953 
L 72.088358 22.376071 
L 73.174159 33.50739 
L 75.345762 68.508429 
L 76.431563 104.684871 
L 77.517364 149.556997 
L 78.603165 188.281783 
L 79.688966 219.12525 
L 80.774768 240.313221 
L 81.860569 247.419054 
L 82.94637 242.229088 
L 84.032171 224.37065 
L 85.117972 197.417381 
L 87.289574 117.021477 
L 89.461177 57.52188 
L 90.546978 38.168246 
L 91.632779 25.646808 
L 92.71858 34.224842 
L 94.890183 79.193581 
L 95.975984 116.696267 
L 97.061785 161.066991 
L 98.147586 196.34687 
L 99.233387 224.110147 
L 100.319188 249.028425 
L 101.404989 256.085266 
L 102.490791 247.655963 
L 103.576592 223.93438 
L 106.833995 109.224736 
L 109.005598 48.660972 
L 110.091399 29.22416 
L 111.1772 27.616815 
L 112.263001 31.465574 
L 113.348802 65.313227 
L 116.606206 190.086964 
L 117.692007 219.596248 
L 118.777808 244.272534 
L 119.863609 251.354427 
L 120.94941 245.229029 
L 122.035211 230.37951 
L 123.121013 202.574975 
L 124.206814 169.105402 
L 126.378416 88.006742 
L 128.550018 33.817078 
L 129.635819 25.290795 
L 130.721621 38.174609 
L 131.807422 58.370102 
L 132.893223 84.36602 
L 133.979024 116.667038 
L 136.150626 200.968046 
L 137.236428 221.997965 
L 138.322229 232.06647 
L 139.40803 245.881213 
L 140.493831 239.782227 
L 141.579632 224.457241 
L 142.665433 198.195434 
L 144.837036 108.982555 
L 145.922837 72.772115 
L 147.008638 59.8111 
L 149.18024 19.889057 
L 150.266041 33.854768 
L 151.351843 57.86843 
L 152.437644 96.695562 
L 153.523445 143.122098 
L 154.609246 175.047912 
L 155.695047 201.849436 
L 157.86665 247.537015 
L 158.952451 257.466996 
L 160.038252 240.533789 
L 161.124053 211.154873 
L 162.209854 174.584208 
L 163.295655 131.744068 
L 164.381456 93.432117 
L 165.467258 65.90752 
L 166.553059 42.758412 
L 167.63886 26.450742 
L 168.724661 28.796206 
L 169.810462 53.061261 
L 171.982065 118.200245 
L 174.153667 190.548942 
L 175.239468 219.131734 
L 176.325269 244.173746 
L 177.41107 258.889096 
L 178.496871 250.72332 
L 179.582673 226.73348 
L 181.754275 140.671245 
L 182.840076 107.29941 
L 183.925877 69.123797 
L 185.011678 44.945658 
L 186.09748 29.540075 
L 187.183281 24.247897 
L 188.269082 35.186192 
L 189.354883 55.136387 
L 192.612287 182.997543 
L 193.698088 215.086301 
L 195.86969 245.515001 
L 196.955491 249.974816 
L 198.041292 238.885004 
L 199.127093 210.125475 
L 202.384497 91.943936 
L 203.470298 62.33658 
L 204.556099 35.880574 
L 205.6419 22.669674 
L 206.727702 34.174595 
L 207.813503 59.493856 
L 209.985105 118.879394 
L 211.070906 163.220301 
L 212.156707 200.946351 
L 214.32831 241.988171 
L 215.414111 240.536868 
L 216.499912 234.238076 
L 217.585713 226.557773 
L 218.671514 196.607863 
L 220.843117 117.517515 
L 221.928918 84.117115 
L 223.014719 46.342746 
L 224.10052 36.991584 
L 225.186321 38.423749 
L 226.272122 35.152243 
L 227.357923 59.473868 
L 229.529526 137.846778 
L 230.615327 178.783399 
L 232.786929 237.273128 
L 233.87273 254.317535 
L 234.958532 248.674493 
L 236.044333 240.303408 
L 237.130134 208.634856 
L 238.215935 170.426104 
L 239.301736 136.753387 
L 240.387537 91.73206 
L 241.473338 57.683615 
L 242.55914 40.036348 
L 243.644941 19.296 
L 244.730742 23.45508 
L 245.816543 49.798055 
L 246.902344 73.270356 
L 249.073947 151.300361 
L 250.159748 181.690006 
L 252.33135 248.581361 
L 253.417151 257.45879 
L 254.502952 248.176447 
L 255.588754 224.088702 
L 257.760356 155.242329 
L 258.846157 112.223394 
L 259.931958 78.394497 
L 262.10356 33.975297 
L 263.189362 28.476045 
L 264.275163 30.757989 
L 265.360964 50.46164 
L 267.532566 130.412351 
L 268.618367 175.428977 
L 269.704169 204.857295 
L 270.78997 227.853844 
L 271.875771 243.426454 
L 272.961572 243.272214 
L 274.047373 242.5379 
L 275.133174 223.49653 
L 276.218975 180.94811 
L 278.390578 107.432092 
L 279.476379 64.83145 
L 280.56218 30.667775 
L 281.647981 19.834895 
L 282.733782 29.245612 
L 283.819584 43.72019 
L 284.905385 64.941084 
L 285.991186 100.381185 
L 289.248589 228.256683 
L 290.33439 255.506658 
L 291.420192 259.277988 
L 292.505993 253.729985 
L 293.591794 234.280026 
L 295.763396 165.023398 
L 297.934999 77.431056 
L 299.0208 46.817615 
L 300.106601 26.661942 
L 301.192402 19.742407 
L 302.278203 24.599062 
L 303.364004 50.09174 
L 305.535607 126.770078 
L 306.621408 167.414925 
L 308.79301 229.33917 
L 309.878811 251.67775 
L 310.964612 252.423201 
L 312.050414 235.522903 
L 313.136215 203.986681 
L 317.479419 61.013396 
L 318.565221 41.611505 
L 319.651022 31.736389 
L 320.736823 26.773197 
L 321.822624 41.369184 
L 322.908425 66.43255 
L 323.994226 107.973245 
L 325.080027 158.020856 
L 326.165829 189.451342 
L 328.337431 236.545943 
L 329.423232 252.071681 
L 330.509033 255.122474 
L 331.594834 228.563148 
L 333.766437 161.296257 
L 335.938039 86.253689 
L 337.02384 57.605429 
L 338.109641 34.962497 
L 339.195442 20.737193 
L 340.281244 28.939359 
L 341.367045 49.024623 
L 343.538647 117.821541 
L 346.796051 232.819933 
L 347.881852 254.589841 
L 348.967653 261.216 
L 350.053454 235.853373 
L 351.139255 205.44251 
L 352.225056 186.865526 
L 353.310857 149.777593 
L 354.396659 96.805789 
L 355.48246 60.556716 
L 357.654062 30.197563 
L 358.739863 33.075999 
L 360.911466 65.973971 
L 361.997267 101.909995 
L 364.168869 188.261464 
L 365.25467 223.717263 
L 366.340471 243.772505 
L 367.426273 252.205155 
L 368.512074 258.538041 
L 369.597875 239.760903 
L 371.769477 166.303854 
L 372.855278 116.163651 
L 373.941079 85.361874 
L 375.026881 61.730936 
L 376.112682 32.851369 
L 377.198483 21.709498 
L 378.284284 32.565039 
L 379.370085 53.910086 
L 379.370085 53.910086 
" style="fill:none;stroke:#1f77b4;stroke-linecap:square;stroke-width:1.5;"/>
   </g>
   <g id="patch_3">
    <path d="M 38.482813 273.312 
L 38.482813 7.2 
" style="fill:none;stroke:#000000;stroke-linecap:square;stroke-linejoin:miter;stroke-width:0.8;"/>
   </g>
   <g id="patch_4">
    <path d="M 395.602813 273.312 
L 395.602813 7.2 
" style="fill:none;stroke:#000000;stroke-linecap:square;stroke-linejoin:miter;stroke-width:0.8;"/>
   </g>
   <g id="patch_5">
    <path d="M 38.482813 273.312 
L 395.602813 273.312 
" style="fill:none;stroke:#000000;stroke-linecap:square;stroke-linejoin:miter;stroke-width:0.8;"/>
   </g>
   <g id="patch_6">
    <path d="M 38.482813 7.2 
L 395.602813 7.2 
" style="fill:none;stroke:#000000;stroke-linecap:square;stroke-linejoin:miter;stroke-width:0.8;"/>
   </g>
  </g>
 </g>
 <defs>
  <clipPath id="p958fab7aca">
   <rect height="266.112" width="357.12" x="38.482813" y="7.2"/>
  </clipPath>
 </defs>
</svg>
