<?xml version="1.0" encoding="utf-8" standalone="no"?>
<!DOCTYPE svg PUBLIC "-//W3C//DTD SVG 1.1//EN"
  "http://www.w3.org/Graphics/SVG/1.1/DTD/svg11.dtd">
<svg height="325.986375pt" version="1.1" viewBox="0 0 417.648125 325.986375" width="417.648125pt" xmlns="http://www.w3.org/2000/svg" xmlns:xlink="http://www.w3.org/1999/xlink">
 <metadata>
  <rdf:RDF xmlns:cc="http://creativecommons.org/ns#" xmlns:dc="http://purl.org/dc/elements/1.1/" xmlns:rdf="http://www.w3.org/1999/02/22-rdf-syntax-ns#">
   <cc:Work>
    <dc:type rdf:resource="http://purl.org/dc/dcmitype/StillImage"/>
    <dc:date>2021-11-07T16:32:51.902444</dc:date>
    <dc:format>image/svg+xml</dc:format>
    <dc:creator>
     <cc:Agent>
      <dc:title>Matplotlib v3.4.3, https://matplotlib.org/</dc:title>
     </cc:Agent>
    </dc:creator>
   </cc:Work>
  </rdf:RDF>
 </metadata>
 <defs>
  <style type="text/css">*{stroke-linecap:butt;stroke-linejoin:round;}</style>
 </defs>
 <g id="figure_1">
  <g id="patch_1">
   <path d="M 0 325.986375 
L 417.648125 325.986375 
L 417.648125 0 
L 0 0 
z
" style="fill:#ffffff;"/>
  </g>
  <g id="axes_1">
   <g id="patch_2">
    <path d="M 53.328125 288.430125 
L 410.448125 288.430125 
L 410.448125 22.318125 
L 53.328125 22.318125 
z
" style="fill:#ffffff;"/>
   </g>
   <g id="matplotlib.axis_1">
    <g id="xtick_1">
     <g id="line2d_1">
      <defs>
       <path d="M 0 0 
L 0 3.5 
" id="m110797cb7f" style="stroke:#000000;stroke-width:0.8;"/>
      </defs>
      <g>
       <use style="stroke:#000000;stroke-width:0.8;" x="69.374059" xlink:href="#m110797cb7f" y="288.430125"/>
      </g>
     </g>
     <g id="text_1">
      <!-- −800 -->
      <g transform="translate(55.640465 303.028562)scale(0.1 -0.1)">
       <defs>
        <path d="M 678 2272 
L 4684 2272 
L 4684 1741 
L 678 1741 
L 678 2272 
z
" id="DejaVuSans-2212" transform="scale(0.015625)"/>
        <path d="M 2034 2216 
Q 1584 2216 1326 1975 
Q 1069 1734 1069 1313 
Q 1069 891 1326 650 
Q 1584 409 2034 409 
Q 2484 409 2743 651 
Q 3003 894 3003 1313 
Q 3003 1734 2745 1975 
Q 2488 2216 2034 2216 
z
M 1403 2484 
Q 997 2584 770 2862 
Q 544 3141 544 3541 
Q 544 4100 942 4425 
Q 1341 4750 2034 4750 
Q 2731 4750 3128 4425 
Q 3525 4100 3525 3541 
Q 3525 3141 3298 2862 
Q 3072 2584 2669 2484 
Q 3125 2378 3379 2068 
Q 3634 1759 3634 1313 
Q 3634 634 3220 271 
Q 2806 -91 2034 -91 
Q 1263 -91 848 271 
Q 434 634 434 1313 
Q 434 1759 690 2068 
Q 947 2378 1403 2484 
z
M 1172 3481 
Q 1172 3119 1398 2916 
Q 1625 2713 2034 2713 
Q 2441 2713 2670 2916 
Q 2900 3119 2900 3481 
Q 2900 3844 2670 4047 
Q 2441 4250 2034 4250 
Q 1625 4250 1398 4047 
Q 1172 3844 1172 3481 
z
" id="DejaVuSans-38" transform="scale(0.015625)"/>
        <path d="M 2034 4250 
Q 1547 4250 1301 3770 
Q 1056 3291 1056 2328 
Q 1056 1369 1301 889 
Q 1547 409 2034 409 
Q 2525 409 2770 889 
Q 3016 1369 3016 2328 
Q 3016 3291 2770 3770 
Q 2525 4250 2034 4250 
z
M 2034 4750 
Q 2819 4750 3233 4129 
Q 3647 3509 3647 2328 
Q 3647 1150 3233 529 
Q 2819 -91 2034 -91 
Q 1250 -91 836 529 
Q 422 1150 422 2328 
Q 422 3509 836 4129 
Q 1250 4750 2034 4750 
z
" id="DejaVuSans-30" transform="scale(0.015625)"/>
       </defs>
       <use xlink:href="#DejaVuSans-2212"/>
       <use x="83.789062" xlink:href="#DejaVuSans-38"/>
       <use x="147.412109" xlink:href="#DejaVuSans-30"/>
       <use x="211.035156" xlink:href="#DejaVuSans-30"/>
      </g>
     </g>
    </g>
    <g id="xtick_2">
     <g id="line2d_2">
      <g>
       <use style="stroke:#000000;stroke-width:0.8;" x="109.977196" xlink:href="#m110797cb7f" y="288.430125"/>
      </g>
     </g>
     <g id="text_2">
      <!-- −600 -->
      <g transform="translate(96.243602 303.028562)scale(0.1 -0.1)">
       <defs>
        <path d="M 2113 2584 
Q 1688 2584 1439 2293 
Q 1191 2003 1191 1497 
Q 1191 994 1439 701 
Q 1688 409 2113 409 
Q 2538 409 2786 701 
Q 3034 994 3034 1497 
Q 3034 2003 2786 2293 
Q 2538 2584 2113 2584 
z
M 3366 4563 
L 3366 3988 
Q 3128 4100 2886 4159 
Q 2644 4219 2406 4219 
Q 1781 4219 1451 3797 
Q 1122 3375 1075 2522 
Q 1259 2794 1537 2939 
Q 1816 3084 2150 3084 
Q 2853 3084 3261 2657 
Q 3669 2231 3669 1497 
Q 3669 778 3244 343 
Q 2819 -91 2113 -91 
Q 1303 -91 875 529 
Q 447 1150 447 2328 
Q 447 3434 972 4092 
Q 1497 4750 2381 4750 
Q 2619 4750 2861 4703 
Q 3103 4656 3366 4563 
z
" id="DejaVuSans-36" transform="scale(0.015625)"/>
       </defs>
       <use xlink:href="#DejaVuSans-2212"/>
       <use x="83.789062" xlink:href="#DejaVuSans-36"/>
       <use x="147.412109" xlink:href="#DejaVuSans-30"/>
       <use x="211.035156" xlink:href="#DejaVuSans-30"/>
      </g>
     </g>
    </g>
    <g id="xtick_3">
     <g id="line2d_3">
      <g>
       <use style="stroke:#000000;stroke-width:0.8;" x="150.580333" xlink:href="#m110797cb7f" y="288.430125"/>
      </g>
     </g>
     <g id="text_3">
      <!-- −400 -->
      <g transform="translate(136.846739 303.028562)scale(0.1 -0.1)">
       <defs>
        <path d="M 2419 4116 
L 825 1625 
L 2419 1625 
L 2419 4116 
z
M 2253 4666 
L 3047 4666 
L 3047 1625 
L 3713 1625 
L 3713 1100 
L 3047 1100 
L 3047 0 
L 2419 0 
L 2419 1100 
L 313 1100 
L 313 1709 
L 2253 4666 
z
" id="DejaVuSans-34" transform="scale(0.015625)"/>
       </defs>
       <use xlink:href="#DejaVuSans-2212"/>
       <use x="83.789062" xlink:href="#DejaVuSans-34"/>
       <use x="147.412109" xlink:href="#DejaVuSans-30"/>
       <use x="211.035156" xlink:href="#DejaVuSans-30"/>
      </g>
     </g>
    </g>
    <g id="xtick_4">
     <g id="line2d_4">
      <g>
       <use style="stroke:#000000;stroke-width:0.8;" x="191.18347" xlink:href="#m110797cb7f" y="288.430125"/>
      </g>
     </g>
     <g id="text_4">
      <!-- −200 -->
      <g transform="translate(177.449876 303.028562)scale(0.1 -0.1)">
       <defs>
        <path d="M 1228 531 
L 3431 531 
L 3431 0 
L 469 0 
L 469 531 
Q 828 903 1448 1529 
Q 2069 2156 2228 2338 
Q 2531 2678 2651 2914 
Q 2772 3150 2772 3378 
Q 2772 3750 2511 3984 
Q 2250 4219 1831 4219 
Q 1534 4219 1204 4116 
Q 875 4013 500 3803 
L 500 4441 
Q 881 4594 1212 4672 
Q 1544 4750 1819 4750 
Q 2544 4750 2975 4387 
Q 3406 4025 3406 3419 
Q 3406 3131 3298 2873 
Q 3191 2616 2906 2266 
Q 2828 2175 2409 1742 
Q 1991 1309 1228 531 
z
" id="DejaVuSans-32" transform="scale(0.015625)"/>
       </defs>
       <use xlink:href="#DejaVuSans-2212"/>
       <use x="83.789062" xlink:href="#DejaVuSans-32"/>
       <use x="147.412109" xlink:href="#DejaVuSans-30"/>
       <use x="211.035156" xlink:href="#DejaVuSans-30"/>
      </g>
     </g>
    </g>
    <g id="xtick_5">
     <g id="line2d_5">
      <g>
       <use style="stroke:#000000;stroke-width:0.8;" x="231.786607" xlink:href="#m110797cb7f" y="288.430125"/>
      </g>
     </g>
     <g id="text_5">
      <!-- 0 -->
      <g transform="translate(228.605357 303.028562)scale(0.1 -0.1)">
       <use xlink:href="#DejaVuSans-30"/>
      </g>
     </g>
    </g>
    <g id="xtick_6">
     <g id="line2d_6">
      <g>
       <use style="stroke:#000000;stroke-width:0.8;" x="272.389744" xlink:href="#m110797cb7f" y="288.430125"/>
      </g>
     </g>
     <g id="text_6">
      <!-- 200 -->
      <g transform="translate(262.845994 303.028562)scale(0.1 -0.1)">
       <use xlink:href="#DejaVuSans-32"/>
       <use x="63.623047" xlink:href="#DejaVuSans-30"/>
       <use x="127.246094" xlink:href="#DejaVuSans-30"/>
      </g>
     </g>
    </g>
    <g id="xtick_7">
     <g id="line2d_7">
      <g>
       <use style="stroke:#000000;stroke-width:0.8;" x="312.992881" xlink:href="#m110797cb7f" y="288.430125"/>
      </g>
     </g>
     <g id="text_7">
      <!-- 400 -->
      <g transform="translate(303.449131 303.028562)scale(0.1 -0.1)">
       <use xlink:href="#DejaVuSans-34"/>
       <use x="63.623047" xlink:href="#DejaVuSans-30"/>
       <use x="127.246094" xlink:href="#DejaVuSans-30"/>
      </g>
     </g>
    </g>
    <g id="xtick_8">
     <g id="line2d_8">
      <g>
       <use style="stroke:#000000;stroke-width:0.8;" x="353.596018" xlink:href="#m110797cb7f" y="288.430125"/>
      </g>
     </g>
     <g id="text_8">
      <!-- 600 -->
      <g transform="translate(344.052268 303.028562)scale(0.1 -0.1)">
       <use xlink:href="#DejaVuSans-36"/>
       <use x="63.623047" xlink:href="#DejaVuSans-30"/>
       <use x="127.246094" xlink:href="#DejaVuSans-30"/>
      </g>
     </g>
    </g>
    <g id="xtick_9">
     <g id="line2d_9">
      <g>
       <use style="stroke:#000000;stroke-width:0.8;" x="394.199155" xlink:href="#m110797cb7f" y="288.430125"/>
      </g>
     </g>
     <g id="text_9">
      <!-- 800 -->
      <g transform="translate(384.655405 303.028562)scale(0.1 -0.1)">
       <use xlink:href="#DejaVuSans-38"/>
       <use x="63.623047" xlink:href="#DejaVuSans-30"/>
       <use x="127.246094" xlink:href="#DejaVuSans-30"/>
      </g>
     </g>
    </g>
    <g id="text_10">
     <!-- frequency[Hz] -->
     <g transform="translate(196.525625 316.706687)scale(0.1 -0.1)">
      <defs>
       <path d="M 2375 4863 
L 2375 4384 
L 1825 4384 
Q 1516 4384 1395 4259 
Q 1275 4134 1275 3809 
L 1275 3500 
L 2222 3500 
L 2222 3053 
L 1275 3053 
L 1275 0 
L 697 0 
L 697 3053 
L 147 3053 
L 147 3500 
L 697 3500 
L 697 3744 
Q 697 4328 969 4595 
Q 1241 4863 1831 4863 
L 2375 4863 
z
" id="DejaVuSans-66" transform="scale(0.015625)"/>
       <path d="M 2631 2963 
Q 2534 3019 2420 3045 
Q 2306 3072 2169 3072 
Q 1681 3072 1420 2755 
Q 1159 2438 1159 1844 
L 1159 0 
L 581 0 
L 581 3500 
L 1159 3500 
L 1159 2956 
Q 1341 3275 1631 3429 
Q 1922 3584 2338 3584 
Q 2397 3584 2469 3576 
Q 2541 3569 2628 3553 
L 2631 2963 
z
" id="DejaVuSans-72" transform="scale(0.015625)"/>
       <path d="M 3597 1894 
L 3597 1613 
L 953 1613 
Q 991 1019 1311 708 
Q 1631 397 2203 397 
Q 2534 397 2845 478 
Q 3156 559 3463 722 
L 3463 178 
Q 3153 47 2828 -22 
Q 2503 -91 2169 -91 
Q 1331 -91 842 396 
Q 353 884 353 1716 
Q 353 2575 817 3079 
Q 1281 3584 2069 3584 
Q 2775 3584 3186 3129 
Q 3597 2675 3597 1894 
z
M 3022 2063 
Q 3016 2534 2758 2815 
Q 2500 3097 2075 3097 
Q 1594 3097 1305 2825 
Q 1016 2553 972 2059 
L 3022 2063 
z
" id="DejaVuSans-65" transform="scale(0.015625)"/>
       <path d="M 947 1747 
Q 947 1113 1208 752 
Q 1469 391 1925 391 
Q 2381 391 2643 752 
Q 2906 1113 2906 1747 
Q 2906 2381 2643 2742 
Q 2381 3103 1925 3103 
Q 1469 3103 1208 2742 
Q 947 2381 947 1747 
z
M 2906 525 
Q 2725 213 2448 61 
Q 2172 -91 1784 -91 
Q 1150 -91 751 415 
Q 353 922 353 1747 
Q 353 2572 751 3078 
Q 1150 3584 1784 3584 
Q 2172 3584 2448 3432 
Q 2725 3281 2906 2969 
L 2906 3500 
L 3481 3500 
L 3481 -1331 
L 2906 -1331 
L 2906 525 
z
" id="DejaVuSans-71" transform="scale(0.015625)"/>
       <path d="M 544 1381 
L 544 3500 
L 1119 3500 
L 1119 1403 
Q 1119 906 1312 657 
Q 1506 409 1894 409 
Q 2359 409 2629 706 
Q 2900 1003 2900 1516 
L 2900 3500 
L 3475 3500 
L 3475 0 
L 2900 0 
L 2900 538 
Q 2691 219 2414 64 
Q 2138 -91 1772 -91 
Q 1169 -91 856 284 
Q 544 659 544 1381 
z
M 1991 3584 
L 1991 3584 
z
" id="DejaVuSans-75" transform="scale(0.015625)"/>
       <path d="M 3513 2113 
L 3513 0 
L 2938 0 
L 2938 2094 
Q 2938 2591 2744 2837 
Q 2550 3084 2163 3084 
Q 1697 3084 1428 2787 
Q 1159 2491 1159 1978 
L 1159 0 
L 581 0 
L 581 3500 
L 1159 3500 
L 1159 2956 
Q 1366 3272 1645 3428 
Q 1925 3584 2291 3584 
Q 2894 3584 3203 3211 
Q 3513 2838 3513 2113 
z
" id="DejaVuSans-6e" transform="scale(0.015625)"/>
       <path d="M 3122 3366 
L 3122 2828 
Q 2878 2963 2633 3030 
Q 2388 3097 2138 3097 
Q 1578 3097 1268 2742 
Q 959 2388 959 1747 
Q 959 1106 1268 751 
Q 1578 397 2138 397 
Q 2388 397 2633 464 
Q 2878 531 3122 666 
L 3122 134 
Q 2881 22 2623 -34 
Q 2366 -91 2075 -91 
Q 1284 -91 818 406 
Q 353 903 353 1747 
Q 353 2603 823 3093 
Q 1294 3584 2113 3584 
Q 2378 3584 2631 3529 
Q 2884 3475 3122 3366 
z
" id="DejaVuSans-63" transform="scale(0.015625)"/>
       <path d="M 2059 -325 
Q 1816 -950 1584 -1140 
Q 1353 -1331 966 -1331 
L 506 -1331 
L 506 -850 
L 844 -850 
Q 1081 -850 1212 -737 
Q 1344 -625 1503 -206 
L 1606 56 
L 191 3500 
L 800 3500 
L 1894 763 
L 2988 3500 
L 3597 3500 
L 2059 -325 
z
" id="DejaVuSans-79" transform="scale(0.015625)"/>
       <path d="M 550 4863 
L 1875 4863 
L 1875 4416 
L 1125 4416 
L 1125 -397 
L 1875 -397 
L 1875 -844 
L 550 -844 
L 550 4863 
z
" id="DejaVuSans-5b" transform="scale(0.015625)"/>
       <path d="M 628 4666 
L 1259 4666 
L 1259 2753 
L 3553 2753 
L 3553 4666 
L 4184 4666 
L 4184 0 
L 3553 0 
L 3553 2222 
L 1259 2222 
L 1259 0 
L 628 0 
L 628 4666 
z
" id="DejaVuSans-48" transform="scale(0.015625)"/>
       <path d="M 353 3500 
L 3084 3500 
L 3084 2975 
L 922 459 
L 3084 459 
L 3084 0 
L 275 0 
L 275 525 
L 2438 3041 
L 353 3041 
L 353 3500 
z
" id="DejaVuSans-7a" transform="scale(0.015625)"/>
       <path d="M 1947 4863 
L 1947 -844 
L 622 -844 
L 622 -397 
L 1369 -397 
L 1369 4416 
L 622 4416 
L 622 4863 
L 1947 4863 
z
" id="DejaVuSans-5d" transform="scale(0.015625)"/>
      </defs>
      <use xlink:href="#DejaVuSans-66"/>
      <use x="35.205078" xlink:href="#DejaVuSans-72"/>
      <use x="74.068359" xlink:href="#DejaVuSans-65"/>
      <use x="135.591797" xlink:href="#DejaVuSans-71"/>
      <use x="199.068359" xlink:href="#DejaVuSans-75"/>
      <use x="262.447266" xlink:href="#DejaVuSans-65"/>
      <use x="323.970703" xlink:href="#DejaVuSans-6e"/>
      <use x="387.349609" xlink:href="#DejaVuSans-63"/>
      <use x="442.330078" xlink:href="#DejaVuSans-79"/>
      <use x="501.509766" xlink:href="#DejaVuSans-5b"/>
      <use x="540.523438" xlink:href="#DejaVuSans-48"/>
      <use x="615.71875" xlink:href="#DejaVuSans-7a"/>
      <use x="668.208984" xlink:href="#DejaVuSans-5d"/>
     </g>
    </g>
   </g>
   <g id="matplotlib.axis_2">
    <g id="ytick_1">
     <g id="line2d_10">
      <defs>
       <path d="M 0 0 
L -3.5 0 
" id="m76ad1e3e7b" style="stroke:#000000;stroke-width:0.8;"/>
      </defs>
      <g>
       <use style="stroke:#000000;stroke-width:0.8;" x="53.328125" xlink:href="#m76ad1e3e7b" y="276.342902"/>
      </g>
     </g>
     <g id="text_11">
      <!-- 0 -->
      <g transform="translate(39.965625 280.142121)scale(0.1 -0.1)">
       <use xlink:href="#DejaVuSans-30"/>
      </g>
     </g>
    </g>
    <g id="ytick_2">
     <g id="line2d_11">
      <g>
       <use style="stroke:#000000;stroke-width:0.8;" x="53.328125" xlink:href="#m76ad1e3e7b" y="227.214283"/>
      </g>
     </g>
     <g id="text_12">
      <!-- 500 -->
      <g transform="translate(27.240625 231.013502)scale(0.1 -0.1)">
       <defs>
        <path d="M 691 4666 
L 3169 4666 
L 3169 4134 
L 1269 4134 
L 1269 2991 
Q 1406 3038 1543 3061 
Q 1681 3084 1819 3084 
Q 2600 3084 3056 2656 
Q 3513 2228 3513 1497 
Q 3513 744 3044 326 
Q 2575 -91 1722 -91 
Q 1428 -91 1123 -41 
Q 819 9 494 109 
L 494 744 
Q 775 591 1075 516 
Q 1375 441 1709 441 
Q 2250 441 2565 725 
Q 2881 1009 2881 1497 
Q 2881 1984 2565 2268 
Q 2250 2553 1709 2553 
Q 1456 2553 1204 2497 
Q 953 2441 691 2322 
L 691 4666 
z
" id="DejaVuSans-35" transform="scale(0.015625)"/>
       </defs>
       <use xlink:href="#DejaVuSans-35"/>
       <use x="63.623047" xlink:href="#DejaVuSans-30"/>
       <use x="127.246094" xlink:href="#DejaVuSans-30"/>
      </g>
     </g>
    </g>
    <g id="ytick_3">
     <g id="line2d_12">
      <g>
       <use style="stroke:#000000;stroke-width:0.8;" x="53.328125" xlink:href="#m76ad1e3e7b" y="178.085665"/>
      </g>
     </g>
     <g id="text_13">
      <!-- 1000 -->
      <g transform="translate(20.878125 181.884883)scale(0.1 -0.1)">
       <defs>
        <path d="M 794 531 
L 1825 531 
L 1825 4091 
L 703 3866 
L 703 4441 
L 1819 4666 
L 2450 4666 
L 2450 531 
L 3481 531 
L 3481 0 
L 794 0 
L 794 531 
z
" id="DejaVuSans-31" transform="scale(0.015625)"/>
       </defs>
       <use xlink:href="#DejaVuSans-31"/>
       <use x="63.623047" xlink:href="#DejaVuSans-30"/>
       <use x="127.246094" xlink:href="#DejaVuSans-30"/>
       <use x="190.869141" xlink:href="#DejaVuSans-30"/>
      </g>
     </g>
    </g>
    <g id="ytick_4">
     <g id="line2d_13">
      <g>
       <use style="stroke:#000000;stroke-width:0.8;" x="53.328125" xlink:href="#m76ad1e3e7b" y="128.957046"/>
      </g>
     </g>
     <g id="text_14">
      <!-- 1500 -->
      <g transform="translate(20.878125 132.756265)scale(0.1 -0.1)">
       <use xlink:href="#DejaVuSans-31"/>
       <use x="63.623047" xlink:href="#DejaVuSans-35"/>
       <use x="127.246094" xlink:href="#DejaVuSans-30"/>
       <use x="190.869141" xlink:href="#DejaVuSans-30"/>
      </g>
     </g>
    </g>
    <g id="ytick_5">
     <g id="line2d_14">
      <g>
       <use style="stroke:#000000;stroke-width:0.8;" x="53.328125" xlink:href="#m76ad1e3e7b" y="79.828427"/>
      </g>
     </g>
     <g id="text_15">
      <!-- 2000 -->
      <g transform="translate(20.878125 83.627646)scale(0.1 -0.1)">
       <use xlink:href="#DejaVuSans-32"/>
       <use x="63.623047" xlink:href="#DejaVuSans-30"/>
       <use x="127.246094" xlink:href="#DejaVuSans-30"/>
       <use x="190.869141" xlink:href="#DejaVuSans-30"/>
      </g>
     </g>
    </g>
    <g id="ytick_6">
     <g id="line2d_15">
      <g>
       <use style="stroke:#000000;stroke-width:0.8;" x="53.328125" xlink:href="#m76ad1e3e7b" y="30.699809"/>
      </g>
     </g>
     <g id="text_16">
      <!-- 2500 -->
      <g transform="translate(20.878125 34.499028)scale(0.1 -0.1)">
       <use xlink:href="#DejaVuSans-32"/>
       <use x="63.623047" xlink:href="#DejaVuSans-35"/>
       <use x="127.246094" xlink:href="#DejaVuSans-30"/>
       <use x="190.869141" xlink:href="#DejaVuSans-30"/>
      </g>
     </g>
    </g>
    <g id="text_17">
     <!-- magnitude -->
     <g transform="translate(14.798438 182.420219)rotate(-90)scale(0.1 -0.1)">
      <defs>
       <path d="M 3328 2828 
Q 3544 3216 3844 3400 
Q 4144 3584 4550 3584 
Q 5097 3584 5394 3201 
Q 5691 2819 5691 2113 
L 5691 0 
L 5113 0 
L 5113 2094 
Q 5113 2597 4934 2840 
Q 4756 3084 4391 3084 
Q 3944 3084 3684 2787 
Q 3425 2491 3425 1978 
L 3425 0 
L 2847 0 
L 2847 2094 
Q 2847 2600 2669 2842 
Q 2491 3084 2119 3084 
Q 1678 3084 1418 2786 
Q 1159 2488 1159 1978 
L 1159 0 
L 581 0 
L 581 3500 
L 1159 3500 
L 1159 2956 
Q 1356 3278 1631 3431 
Q 1906 3584 2284 3584 
Q 2666 3584 2933 3390 
Q 3200 3197 3328 2828 
z
" id="DejaVuSans-6d" transform="scale(0.015625)"/>
       <path d="M 2194 1759 
Q 1497 1759 1228 1600 
Q 959 1441 959 1056 
Q 959 750 1161 570 
Q 1363 391 1709 391 
Q 2188 391 2477 730 
Q 2766 1069 2766 1631 
L 2766 1759 
L 2194 1759 
z
M 3341 1997 
L 3341 0 
L 2766 0 
L 2766 531 
Q 2569 213 2275 61 
Q 1981 -91 1556 -91 
Q 1019 -91 701 211 
Q 384 513 384 1019 
Q 384 1609 779 1909 
Q 1175 2209 1959 2209 
L 2766 2209 
L 2766 2266 
Q 2766 2663 2505 2880 
Q 2244 3097 1772 3097 
Q 1472 3097 1187 3025 
Q 903 2953 641 2809 
L 641 3341 
Q 956 3463 1253 3523 
Q 1550 3584 1831 3584 
Q 2591 3584 2966 3190 
Q 3341 2797 3341 1997 
z
" id="DejaVuSans-61" transform="scale(0.015625)"/>
       <path d="M 2906 1791 
Q 2906 2416 2648 2759 
Q 2391 3103 1925 3103 
Q 1463 3103 1205 2759 
Q 947 2416 947 1791 
Q 947 1169 1205 825 
Q 1463 481 1925 481 
Q 2391 481 2648 825 
Q 2906 1169 2906 1791 
z
M 3481 434 
Q 3481 -459 3084 -895 
Q 2688 -1331 1869 -1331 
Q 1566 -1331 1297 -1286 
Q 1028 -1241 775 -1147 
L 775 -588 
Q 1028 -725 1275 -790 
Q 1522 -856 1778 -856 
Q 2344 -856 2625 -561 
Q 2906 -266 2906 331 
L 2906 616 
Q 2728 306 2450 153 
Q 2172 0 1784 0 
Q 1141 0 747 490 
Q 353 981 353 1791 
Q 353 2603 747 3093 
Q 1141 3584 1784 3584 
Q 2172 3584 2450 3431 
Q 2728 3278 2906 2969 
L 2906 3500 
L 3481 3500 
L 3481 434 
z
" id="DejaVuSans-67" transform="scale(0.015625)"/>
       <path d="M 603 3500 
L 1178 3500 
L 1178 0 
L 603 0 
L 603 3500 
z
M 603 4863 
L 1178 4863 
L 1178 4134 
L 603 4134 
L 603 4863 
z
" id="DejaVuSans-69" transform="scale(0.015625)"/>
       <path d="M 1172 4494 
L 1172 3500 
L 2356 3500 
L 2356 3053 
L 1172 3053 
L 1172 1153 
Q 1172 725 1289 603 
Q 1406 481 1766 481 
L 2356 481 
L 2356 0 
L 1766 0 
Q 1100 0 847 248 
Q 594 497 594 1153 
L 594 3053 
L 172 3053 
L 172 3500 
L 594 3500 
L 594 4494 
L 1172 4494 
z
" id="DejaVuSans-74" transform="scale(0.015625)"/>
       <path d="M 2906 2969 
L 2906 4863 
L 3481 4863 
L 3481 0 
L 2906 0 
L 2906 525 
Q 2725 213 2448 61 
Q 2172 -91 1784 -91 
Q 1150 -91 751 415 
Q 353 922 353 1747 
Q 353 2572 751 3078 
Q 1150 3584 1784 3584 
Q 2172 3584 2448 3432 
Q 2725 3281 2906 2969 
z
M 947 1747 
Q 947 1113 1208 752 
Q 1469 391 1925 391 
Q 2381 391 2643 752 
Q 2906 1113 2906 1747 
Q 2906 2381 2643 2742 
Q 2381 3103 1925 3103 
Q 1469 3103 1208 2742 
Q 947 2381 947 1747 
z
" id="DejaVuSans-64" transform="scale(0.015625)"/>
      </defs>
      <use xlink:href="#DejaVuSans-6d"/>
      <use x="97.412109" xlink:href="#DejaVuSans-61"/>
      <use x="158.691406" xlink:href="#DejaVuSans-67"/>
      <use x="222.167969" xlink:href="#DejaVuSans-6e"/>
      <use x="285.546875" xlink:href="#DejaVuSans-69"/>
      <use x="313.330078" xlink:href="#DejaVuSans-74"/>
      <use x="352.539062" xlink:href="#DejaVuSans-75"/>
      <use x="415.917969" xlink:href="#DejaVuSans-64"/>
      <use x="479.394531" xlink:href="#DejaVuSans-65"/>
     </g>
    </g>
   </g>
   <g id="line2d_16">
    <path clip-path="url(#p09dd83dcfc)" d="M 69.560852 276.240427 
L 69.763888 275.630583 
L 69.966924 276.186539 
L 70.576032 275.983379 
L 70.779068 276.218904 
L 71.388176 276.237734 
L 71.794248 275.86739 
L 72.20032 276.173708 
L 72.606392 276.211171 
L 72.809428 276.242899 
L 73.012464 276.009728 
L 73.2155 276.138852 
L 73.418536 275.962296 
L 74.23068 276.20764 
L 74.433716 275.899657 
L 74.636752 275.894285 
L 75.042824 276.233472 
L 75.24586 276.156355 
L 75.448896 275.946209 
L 75.651932 276.258003 
L 75.854968 276.002101 
L 76.058004 276.247582 
L 76.464076 276.183447 
L 76.667112 276.005064 
L 77.682292 275.93786 
L 77.885328 276.206318 
L 78.088364 275.97224 
L 78.2914 276.202555 
L 78.494436 276.023781 
L 78.900508 276.175398 
L 79.103544 276.08285 
L 79.30658 276.267731 
L 79.509616 275.911215 
L 79.712652 276.194286 
L 80.118724 275.760748 
L 80.32176 276.226647 
L 80.524796 275.600829 
L 80.727832 276.021318 
L 80.930868 275.937375 
L 81.33694 276.307091 
L 81.539976 275.874467 
L 81.743012 276.124632 
L 82.149084 275.80893 
L 82.35212 276.216794 
L 82.555156 276.173636 
L 82.758192 275.955105 
L 83.164263 276.293966 
L 83.773371 275.982546 
L 83.976407 276.302562 
L 84.179443 276.104796 
L 84.382479 276.277418 
L 84.585515 275.897823 
L 84.991587 276.136158 
L 85.194623 276.155315 
L 85.397659 275.73835 
L 85.600695 276.152284 
L 86.006767 275.970985 
L 86.209803 275.744409 
L 86.412839 275.965155 
L 86.818911 276.147667 
L 87.021947 275.976155 
L 87.428019 276.009738 
L 87.631055 275.790805 
L 87.834091 276.13311 
L 88.240163 276.179009 
L 88.646235 275.943688 
L 88.849271 276.077974 
L 89.052307 275.709952 
L 89.458379 276.178796 
L 89.864451 275.897233 
L 90.067487 276.05069 
L 90.270523 275.811227 
L 90.676595 275.83703 
L 91.488739 276.227846 
L 91.691775 276.115086 
L 91.894811 275.699813 
L 92.300883 276.019236 
L 92.503919 275.858519 
L 92.706955 276.212975 
L 93.113027 276.252532 
L 93.316063 276.003488 
L 93.519099 276.140821 
L 93.925171 276.034153 
L 94.128207 275.858781 
L 94.331243 275.880006 
L 94.737315 276.130154 
L 94.940351 276.125822 
L 95.143387 275.9512 
L 95.346423 276.222454 
L 95.549459 276.226672 
L 95.752495 275.891477 
L 95.955531 276.070782 
L 96.158567 275.738817 
L 96.361603 276.236885 
L 96.564639 275.910054 
L 96.970711 276.182778 
L 97.782855 276.075093 
L 97.985891 275.713226 
L 98.188927 276.223008 
L 98.391963 276.026493 
L 98.594999 275.996869 
L 98.798035 276.156826 
L 99.204107 276.001918 
L 99.407143 276.067634 
L 99.610179 276.263385 
L 99.813215 276.206241 
L 100.016251 275.747581 
L 100.219287 276.128202 
L 100.422323 276.190559 
L 100.828394 275.794954 
L 101.03143 276.066296 
L 101.843574 275.553226 
L 102.04661 276.261101 
L 102.452682 275.906304 
L 102.655718 276.168833 
L 102.858754 276.060678 
L 103.06179 275.826186 
L 103.264826 276.127682 
L 103.467862 276.218172 
L 103.873934 276.124981 
L 104.07697 276.165694 
L 104.280006 276.024901 
L 104.686078 276.316524 
L 104.889114 275.85599 
L 105.295186 276.292665 
L 105.498222 275.857218 
L 105.701258 276.247114 
L 105.904294 276.197393 
L 106.10733 275.846104 
L 106.310366 276.240594 
L 106.513402 276.072229 
L 107.528582 276.036409 
L 107.731618 276.156651 
L 107.934654 275.752534 
L 108.13769 276.181584 
L 108.543762 276.129776 
L 108.949834 276.1848 
L 109.355906 276.240077 
L 109.558942 276.013708 
L 109.761978 276.17923 
L 110.371086 276.220967 
L 110.574122 275.694032 
L 110.777158 276.181991 
L 110.980194 276.065042 
L 111.18323 275.593948 
L 111.386266 276.019695 
L 112.19841 276.134381 
L 112.401446 275.895873 
L 112.604482 276.134012 
L 113.010554 275.732939 
L 113.21359 276.099063 
L 113.416626 276.233613 
L 113.822698 275.96225 
L 114.22877 275.710477 
L 114.431806 276.128715 
L 114.634842 276.01983 
L 114.837878 276.272311 
L 115.24395 276.228172 
L 115.650022 275.788384 
L 115.853058 275.954813 
L 116.056094 34.414125 
L 116.25913 276.109049 
L 116.462166 275.92123 
L 117.071274 276.039755 
L 117.27431 275.935488 
L 117.477346 276.226276 
L 117.680382 276.049323 
L 117.883418 276.191602 
L 118.086454 276.043941 
L 118.289489 276.085245 
L 118.695561 276.310262 
L 118.898597 276.00057 
L 119.101633 276.047945 
L 119.304669 276.334125 
L 119.507705 276.125103 
L 119.913777 276.201512 
L 120.116813 275.970438 
L 120.522885 276.239709 
L 120.928957 275.944376 
L 121.131993 276.241688 
L 121.335029 276.240427 
L 121.538065 275.562784 
L 121.741101 275.999876 
L 121.944137 275.822003 
L 122.147173 276.224091 
L 122.350209 276.057168 
L 122.553245 276.264584 
L 122.756281 275.808967 
L 122.959317 276.255602 
L 123.162353 275.659511 
L 123.365389 276.087068 
L 123.568425 276.01189 
L 123.771461 276.100002 
L 123.974497 275.912814 
L 124.177533 276.168376 
L 125.192713 276.229203 
L 125.395749 275.9776 
L 125.598785 275.995464 
L 125.801821 275.88247 
L 126.004857 276.080358 
L 126.207893 275.682947 
L 126.410929 275.785218 
L 126.817001 276.223034 
L 127.020037 275.95787 
L 127.223073 276.221177 
L 127.426109 276.020137 
L 127.629145 275.59449 
L 127.832181 276.268011 
L 128.441289 276.120301 
L 128.847361 276.261594 
L 130.065577 276.043191 
L 130.471649 276.240332 
L 130.674685 276.09833 
L 130.877721 275.718405 
L 131.080757 276.310204 
L 131.283793 276.142082 
L 131.486829 276.240323 
L 131.689865 276.033318 
L 131.892901 276.004476 
L 132.095937 276.22653 
L 132.298973 276.086443 
L 132.705045 276.164866 
L 133.111117 276.021085 
L 133.314153 276.191556 
L 133.923261 275.793137 
L 134.126297 275.790443 
L 134.938441 276.12398 
L 135.141477 276.074279 
L 135.344513 275.827614 
L 135.750584 276.13221 
L 136.156656 275.994633 
L 136.359692 276.12762 
L 136.562728 275.933821 
L 136.765764 276.211156 
L 136.9688 276.070218 
L 138.390052 276.052369 
L 138.593088 275.737829 
L 138.796124 276.200488 
L 138.99916 276.041454 
L 139.405232 276.087823 
L 139.608268 275.829098 
L 139.811304 275.872337 
L 140.01434 276.040455 
L 140.217376 275.912728 
L 140.826484 276.126067 
L 141.02952 276.146467 
L 141.232556 275.925697 
L 141.435592 275.965751 
L 141.638628 276.169489 
L 142.0447 275.740671 
L 142.247736 276.25725 
L 142.450772 275.979021 
L 142.856844 276.137477 
L 143.872024 276.101841 
L 144.07506 276.250935 
L 144.481132 275.909664 
L 144.887204 276.227965 
L 145.496312 275.875003 
L 145.699348 276.021296 
L 146.10542 275.89904 
L 146.308456 275.639024 
L 146.511492 275.954192 
L 146.714528 275.938241 
L 146.917564 276.102614 
L 147.1206 276.078921 
L 147.323636 276.187987 
L 147.729708 276.086594 
L 147.932744 275.871923 
L 148.13578 276.109997 
L 148.338816 276.079382 
L 148.541852 276.236276 
L 148.744888 275.990113 
L 148.947924 276.261842 
L 149.15096 276.285314 
L 149.557032 276.205627 
L 149.760068 276.185025 
L 149.963104 276.040259 
L 150.16614 276.275676 
L 150.369176 275.923922 
L 150.572212 276.015131 
L 150.775248 276.315568 
L 151.384356 275.872973 
L 151.587392 276.231563 
L 152.1965 275.899229 
L 152.399536 276.244799 
L 152.805608 276.022118 
L 153.008644 276.091281 
L 153.211679 275.864823 
L 153.414715 276.023621 
L 153.617751 275.977713 
L 154.023823 276.074964 
L 154.226859 276.120937 
L 154.632931 275.993143 
L 154.835967 276.179594 
L 155.242039 275.973378 
L 155.648111 276.242099 
L 155.851147 276.205559 
L 156.054183 275.761478 
L 156.257219 275.967881 
L 156.460255 275.879466 
L 156.663291 276.150261 
L 156.866327 276.215102 
L 157.069363 276.156688 
L 157.272399 275.971641 
L 157.678471 276.129428 
L 158.287579 276.141622 
L 158.490615 276.142254 
L 158.693651 276.314911 
L 158.896687 276.054762 
L 159.099723 276.268163 
L 159.505795 275.85496 
L 159.708831 276.11831 
L 159.911867 275.597457 
L 160.114903 276.1749 
L 160.317939 275.889576 
L 160.520975 276.177487 
L 160.724011 275.932934 
L 160.927047 276.174134 
L 161.130083 275.92931 
L 161.333119 276.125267 
L 161.739191 275.873131 
L 161.942227 276.085253 
L 162.551335 276.091177 
L 162.754371 275.936833 
L 162.957407 275.977774 
L 163.160443 275.686144 
L 163.363479 276.1836 
L 163.566515 276.014681 
L 163.769551 276.094306 
L 164.175623 275.870087 
L 164.378659 276.191071 
L 164.581695 275.945463 
L 164.784731 275.942396 
L 164.987767 276.091823 
L 165.190803 276.033116 
L 165.393839 276.216641 
L 165.596875 275.924791 
L 165.799911 276.092236 
L 166.002947 275.90031 
L 166.205983 276.252539 
L 166.409019 276.28365 
L 166.612055 276.120733 
L 167.018127 276.078408 
L 167.424199 276.018058 
L 167.627235 276.09658 
L 167.830271 276.294668 
L 168.033307 276.102641 
L 168.236343 275.722319 
L 168.439379 276.21048 
L 168.642415 275.964383 
L 168.845451 275.947246 
L 169.048487 276.091108 
L 169.454559 275.997482 
L 169.657595 276.209877 
L 169.860631 275.718749 
L 170.063667 276.005248 
L 170.672774 276.050221 
L 170.87581 276.263103 
L 171.078846 276.08474 
L 171.281882 276.21068 
L 171.484918 275.86986 
L 171.687954 275.955237 
L 171.89099 275.762108 
L 172.094026 275.952651 
L 172.297062 275.729155 
L 172.500098 276.076318 
L 172.90617 276.158196 
L 173.109206 275.904712 
L 173.312242 276.126892 
L 173.515278 275.934125 
L 173.718314 276.170167 
L 174.530458 276.192268 
L 174.733494 276.238685 
L 174.93653 275.991873 
L 175.139566 276.156231 
L 175.545638 275.822955 
L 175.748674 275.944096 
L 175.95171 276.27069 
L 176.154746 276.236783 
L 176.357782 275.935631 
L 176.763854 276.254786 
L 176.96689 276.010846 
L 177.372962 276.103862 
L 177.779034 275.935823 
L 177.98207 276.202025 
L 178.185106 275.800879 
L 178.388142 276.05133 
L 178.591178 275.736291 
L 178.794214 275.859869 
L 178.99725 276.145526 
L 179.200286 275.955687 
L 179.403322 276.110167 
L 180.01243 276.047233 
L 180.215466 275.892949 
L 180.418502 275.96153 
L 180.621538 276.195416 
L 180.824574 276.063602 
L 181.02761 276.287826 
L 181.230646 275.818548 
L 181.433682 275.651285 
L 181.636718 276.30211 
L 181.839754 276.163136 
L 182.04279 275.835848 
L 182.245826 276.052158 
L 182.448862 275.74645 
L 182.854934 276.229615 
L 183.261006 276.052544 
L 183.464042 275.962142 
L 183.870114 276.181219 
L 184.07315 276.037291 
L 184.276186 276.15699 
L 184.479222 276.034592 
L 184.682258 276.155615 
L 185.291366 275.737954 
L 185.494402 276.08429 
L 185.697438 276.034332 
L 185.900474 276.235609 
L 186.306546 275.985843 
L 186.712618 276.181911 
L 186.915654 275.833707 
L 187.11869 275.842105 
L 187.321726 276.208688 
L 187.524762 275.81108 
L 187.727798 276.198809 
L 187.930834 275.862115 
L 188.539941 275.781245 
L 188.946013 276.201224 
L 189.352085 276.039494 
L 189.555121 276.269311 
L 189.758157 275.756361 
L 190.367265 276.203019 
L 190.773337 276.081091 
L 191.382445 276.165427 
L 191.585481 276.141836 
L 191.788517 275.915172 
L 191.991553 276.149239 
L 192.194589 275.902207 
L 192.397625 276.138452 
L 192.803697 275.967341 
L 193.006733 276.243127 
L 193.412805 276.028417 
L 193.615841 276.13876 
L 194.021913 276.007563 
L 194.427985 276.227851 
L 195.646201 276.146483 
L 195.849237 275.743879 
L 196.052273 276.158285 
L 196.458345 275.91325 
L 196.661381 276.150295 
L 196.864417 275.865249 
L 197.067453 276.220931 
L 197.270489 276.020026 
L 197.473525 276.182751 
L 197.676561 276.139897 
L 197.879597 275.980143 
L 198.082633 276.19498 
L 198.285669 275.999486 
L 198.488705 276.250686 
L 198.894777 275.934023 
L 199.097813 275.758698 
L 199.300849 276.227541 
L 199.503885 276.234056 
L 199.706921 275.878056 
L 199.909957 276.021494 
L 200.112993 275.597399 
L 200.316029 276.096525 
L 200.519065 275.992563 
L 201.128173 276.158328 
L 201.331209 275.841946 
L 201.737281 275.75957 
L 201.940317 276.098687 
L 202.346389 275.914093 
L 202.549425 275.982185 
L 202.752461 275.781835 
L 203.158533 276.143786 
L 203.564605 275.837389 
L 203.970677 275.99436 
L 204.173713 275.873237 
L 204.376749 276.131616 
L 204.579785 275.928703 
L 204.985857 276.203455 
L 205.594965 275.790665 
L 205.798 276.188856 
L 206.204072 276.099909 
L 207.016216 276.096025 
L 207.219252 275.954861 
L 207.422288 275.971312 
L 207.625324 276.217345 
L 207.82836 275.976086 
L 208.031396 276.252956 
L 208.234432 275.810517 
L 208.84354 276.238952 
L 209.452648 275.935837 
L 209.655684 275.990258 
L 209.85872 275.703956 
L 210.264792 276.13677 
L 210.670864 276.02911 
L 211.076936 276.131437 
L 211.279972 276.083458 
L 211.483008 275.917827 
L 211.686044 276.046181 
L 211.88908 275.725571 
L 212.092116 276.074768 
L 212.295152 275.774937 
L 212.498188 276.143624 
L 212.701224 276.214298 
L 212.90426 276.07931 
L 213.107296 276.182185 
L 213.310332 275.825983 
L 213.513368 276.192922 
L 213.91944 276.215732 
L 214.122476 276.036287 
L 214.325512 276.209461 
L 214.528548 276.187713 
L 214.731584 275.987853 
L 214.93462 276.04457 
L 215.137656 275.756011 
L 215.340692 276.287241 
L 215.543728 276.243868 
L 215.746764 275.972771 
L 215.9498 276.144323 
L 216.152836 276.061441 
L 216.355872 276.231959 
L 216.761944 275.75334 
L 216.96498 276.081212 
L 217.168016 276.163604 
L 217.574088 275.897922 
L 217.777124 276.271766 
L 217.98016 276.092055 
L 218.183196 275.697798 
L 218.589268 276.223934 
L 219.198376 275.968258 
L 219.401412 276.173329 
L 220.01052 276.071672 
L 220.213556 276.313416 
L 220.416592 275.864272 
L 220.619628 276.172317 
L 220.822664 276.250621 
L 221.228736 275.685692 
L 221.431772 276.048084 
L 221.634808 275.920105 
L 221.837844 276.270756 
L 222.04088 276.229243 
L 222.243916 275.960398 
L 222.446952 276.298201 
L 222.649988 276.251939 
L 222.853024 275.78197 
L 223.05606 276.275119 
L 223.259095 276.051005 
L 223.462131 276.079632 
L 223.665167 276.243843 
L 223.868203 275.763382 
L 224.071239 276.195375 
L 224.274275 275.841523 
L 224.680347 276.252107 
L 224.883383 276.202708 
L 225.086419 276.01111 
L 225.289455 276.172966 
L 226.101599 276.0747 
L 226.304635 276.28998 
L 226.507671 275.807707 
L 226.710707 276.088575 
L 226.913743 275.85838 
L 227.116779 276.213489 
L 227.319815 276.21873 
L 227.522851 275.82739 
L 227.725887 276.131888 
L 227.928923 276.117747 
L 228.131959 276.298737 
L 228.334995 275.752805 
L 228.538031 276.047344 
L 228.944103 276.188951 
L 229.350175 276.102273 
L 229.756247 276.240636 
L 229.959283 275.801169 
L 230.365355 276.209048 
L 230.568391 276.037137 
L 230.771427 276.265118 
L 230.974463 276.139535 
L 231.177499 275.83917 
L 231.380535 276.016189 
L 231.583571 275.746499 
L 231.786607 276.287942 
L 231.989643 275.746499 
L 232.192679 276.016189 
L 232.395715 275.83917 
L 232.801787 276.265118 
L 233.004823 276.037137 
L 233.207859 276.209048 
L 233.613931 275.801169 
L 233.816967 276.240636 
L 234.426075 276.129035 
L 234.629111 276.188951 
L 235.035183 276.047344 
L 235.238219 275.752805 
L 235.441255 276.298737 
L 235.644291 276.117747 
L 235.847327 276.131888 
L 236.050363 275.82739 
L 236.253399 276.21873 
L 236.456435 276.213489 
L 236.659471 275.85838 
L 236.862507 276.088575 
L 237.065543 275.807707 
L 237.268579 276.28998 
L 237.471615 276.0747 
L 237.877687 276.171383 
L 238.283759 276.172966 
L 238.486795 276.01111 
L 238.892867 276.252107 
L 239.298939 275.841523 
L 239.501975 276.195375 
L 239.705011 275.763382 
L 239.908047 276.243843 
L 240.314119 276.051005 
L 240.517155 276.275119 
L 240.72019 275.78197 
L 240.923226 276.251939 
L 241.126262 276.298201 
L 241.329298 275.960398 
L 241.532334 276.229243 
L 241.73537 276.270756 
L 241.938406 275.920105 
L 242.141442 276.048084 
L 242.344478 275.685692 
L 242.75055 276.250621 
L 242.953586 276.172317 
L 243.156622 275.864272 
L 243.359658 276.313416 
L 243.562694 276.071672 
L 243.968766 276.108671 
L 244.171802 276.173329 
L 244.374838 275.968258 
L 244.983946 276.223934 
L 245.390018 275.697798 
L 245.79609 276.271766 
L 245.999126 275.897922 
L 246.608234 276.081212 
L 246.81127 275.75334 
L 247.014306 275.888742 
L 247.217342 276.231959 
L 247.420378 276.061441 
L 247.623414 276.144323 
L 247.82645 275.972771 
L 248.029486 276.243868 
L 248.232522 276.287241 
L 248.435558 275.756011 
L 248.638594 276.04457 
L 248.84163 275.987853 
L 249.044666 276.187713 
L 249.247702 276.209461 
L 249.450738 276.036287 
L 249.85681 276.246969 
L 250.059846 276.192922 
L 250.262882 275.825983 
L 250.465918 276.182185 
L 250.668954 276.07931 
L 250.87199 276.214298 
L 251.075026 276.143624 
L 251.278062 275.774937 
L 251.481098 276.074768 
L 251.684134 275.725571 
L 251.88717 276.046181 
L 252.090206 275.917827 
L 252.496278 276.131437 
L 252.699314 276.141183 
L 252.90235 276.02911 
L 253.308422 276.13677 
L 253.714494 275.703956 
L 253.91753 275.990258 
L 254.120566 275.935837 
L 254.323602 276.146247 
L 254.526638 276.134624 
L 254.729674 276.238952 
L 254.93271 276.201931 
L 255.338782 275.810517 
L 255.541818 276.252956 
L 255.744854 275.976086 
L 255.94789 276.217345 
L 256.150926 275.971312 
L 256.353962 275.954861 
L 256.556998 276.096025 
L 256.760034 275.997099 
L 256.96307 276.15182 
L 257.369142 276.099909 
L 257.775214 276.188856 
L 257.97825 275.790665 
L 258.181285 276.03461 
L 258.384321 276.052908 
L 258.587357 276.203455 
L 258.993429 275.928703 
L 259.196465 276.131616 
L 259.399501 275.873237 
L 259.602537 275.99436 
L 260.008609 275.837389 
L 260.414681 276.143786 
L 260.820753 275.781835 
L 261.023789 275.982185 
L 261.226825 275.914093 
L 261.632897 276.098687 
L 261.835933 275.75957 
L 262.242005 275.841946 
L 262.445041 276.158328 
L 262.648077 275.942141 
L 263.257185 276.096525 
L 263.460221 275.597399 
L 263.663257 276.021494 
L 263.866293 275.878056 
L 264.069329 276.234056 
L 264.272365 276.227541 
L 264.475401 275.758698 
L 265.084509 276.250686 
L 265.287545 275.999486 
L 265.490581 276.19498 
L 265.693617 275.980143 
L 266.099689 276.182751 
L 266.302725 276.020026 
L 266.505761 276.220931 
L 266.708797 275.865249 
L 266.911833 276.150295 
L 267.114869 275.91325 
L 267.520941 276.158285 
L 267.723977 275.743879 
L 267.927013 276.146483 
L 268.130049 276.073714 
L 269.145229 276.227851 
L 269.348265 276.182595 
L 269.551301 276.007563 
L 269.957373 276.13876 
L 270.160409 276.028417 
L 270.566481 276.243127 
L 270.769517 275.967341 
L 271.175589 276.138452 
L 271.378625 275.902207 
L 271.581661 276.149239 
L 271.784697 275.915172 
L 271.987733 276.141836 
L 272.596841 276.140993 
L 273.002913 276.080559 
L 273.205949 276.203019 
L 273.815057 275.756361 
L 274.018093 276.269311 
L 274.221129 276.039494 
L 274.627201 276.201224 
L 275.033273 275.781245 
L 275.642381 275.862115 
L 275.845416 276.198809 
L 276.048452 275.81108 
L 276.251488 276.208688 
L 276.454524 275.842105 
L 276.65756 275.833707 
L 276.860596 276.181911 
L 277.266668 275.985843 
L 277.67274 276.235609 
L 277.875776 276.034332 
L 278.078812 276.08429 
L 278.281848 275.737954 
L 278.484884 275.771179 
L 278.890956 276.155615 
L 279.093992 276.034592 
L 279.297028 276.15699 
L 279.500064 276.037291 
L 279.7031 276.181219 
L 280.312208 276.052544 
L 280.71828 276.229615 
L 281.124352 275.74645 
L 281.327388 276.052158 
L 281.530424 275.835848 
L 281.936496 276.30211 
L 282.139532 275.651285 
L 282.342568 275.818548 
L 282.545604 276.287826 
L 282.74864 276.063602 
L 282.951676 276.195416 
L 283.357748 275.892949 
L 283.76382 276.139734 
L 284.372928 275.955687 
L 284.575964 276.145526 
L 284.982036 275.736291 
L 285.185072 276.05133 
L 285.388108 275.800879 
L 285.591144 276.202025 
L 285.79418 275.935823 
L 286.403288 276.05369 
L 286.606324 276.010846 
L 286.80936 276.254786 
L 287.215432 275.935631 
L 287.418468 276.236783 
L 287.621504 276.27069 
L 288.027576 275.822955 
L 288.433648 276.156231 
L 288.636684 275.991873 
L 288.83972 276.238685 
L 289.651864 276.155873 
L 289.8549 276.170167 
L 290.057936 275.934125 
L 290.260972 276.126892 
L 290.464008 275.904712 
L 290.667044 276.158196 
L 291.073116 276.076318 
L 291.276152 275.729155 
L 291.479188 275.952651 
L 291.682224 275.762108 
L 291.88526 275.955237 
L 292.088296 275.86986 
L 292.291332 276.21068 
L 292.494368 276.08474 
L 292.697404 276.263103 
L 292.90044 276.050221 
L 293.103476 276.149917 
L 293.712583 275.718749 
L 293.915619 276.209877 
L 294.118655 275.997482 
L 294.930799 275.964383 
L 295.133835 276.21048 
L 295.336871 275.722319 
L 295.742943 276.294668 
L 296.149015 276.018058 
L 296.961159 276.120733 
L 297.164195 276.28365 
L 297.367231 276.252539 
L 297.570267 275.90031 
L 297.773303 276.092236 
L 297.976339 275.924791 
L 298.179375 276.216641 
L 298.382411 276.033116 
L 298.585447 276.091823 
L 298.788483 275.942396 
L 298.991519 275.945463 
L 299.194555 276.191071 
L 299.397591 275.870087 
L 300.209735 276.1836 
L 300.412771 275.686144 
L 300.615807 275.977774 
L 300.818843 275.936833 
L 301.021879 276.091177 
L 302.037059 275.943602 
L 302.240095 276.125267 
L 302.443131 275.92931 
L 302.646167 276.174134 
L 302.849203 275.932934 
L 303.052239 276.177487 
L 303.255275 275.889576 
L 303.458311 276.1749 
L 303.661347 275.597457 
L 303.864383 276.11831 
L 304.067419 275.85496 
L 304.473491 276.268163 
L 304.676527 276.054762 
L 304.879563 276.314911 
L 305.082599 276.142254 
L 305.285635 276.141622 
L 305.488671 276.012451 
L 305.894743 276.129428 
L 306.300815 275.971641 
L 306.706887 276.215102 
L 306.909923 276.150261 
L 307.112959 275.879466 
L 307.315995 275.967881 
L 307.519031 275.761478 
L 307.722067 276.205559 
L 307.925103 276.242099 
L 308.331175 275.973378 
L 308.737247 276.179594 
L 308.940283 275.993143 
L 309.143319 275.991805 
L 309.346355 276.120937 
L 310.361535 275.864823 
L 310.564571 276.091281 
L 310.767606 276.022118 
L 311.173678 276.244799 
L 311.376714 275.899229 
L 311.782786 276.093327 
L 311.985822 276.231563 
L 312.188858 275.872973 
L 312.59493 276.174374 
L 312.797966 276.315568 
L 313.001002 276.015131 
L 313.204038 275.923922 
L 313.407074 276.275676 
L 313.61011 276.040259 
L 314.016182 276.205627 
L 314.219218 276.186436 
L 314.62529 276.261842 
L 314.828326 275.990113 
L 315.031362 276.236276 
L 315.234398 276.079382 
L 315.437434 276.109997 
L 315.64047 275.871923 
L 316.046542 276.159524 
L 316.249578 276.187987 
L 316.452614 276.078921 
L 316.65565 276.102614 
L 316.858686 275.938241 
L 317.061722 275.954192 
L 317.264758 275.639024 
L 317.67083 276.005596 
L 317.873866 276.021296 
L 318.076902 275.875003 
L 318.68601 276.227965 
L 319.092082 275.909664 
L 319.498154 276.250935 
L 319.70119 276.101841 
L 319.904226 276.092295 
L 320.107262 276.201657 
L 321.122442 275.979021 
L 321.325478 276.25725 
L 321.528514 275.740671 
L 321.934586 276.169489 
L 322.137622 275.965751 
L 322.340658 275.925697 
L 322.543694 276.146467 
L 322.74673 276.126067 
L 322.949766 276.241021 
L 323.355838 275.912728 
L 323.558874 276.040455 
L 323.964946 275.829098 
L 324.167982 276.087823 
L 324.574054 276.041454 
L 324.77709 276.200488 
L 324.980126 275.737829 
L 325.183162 276.052369 
L 325.386198 276.111479 
L 325.79227 276.015548 
L 326.401378 276.065654 
L 326.604414 276.070218 
L 326.80745 276.211156 
L 327.010486 275.933821 
L 327.213522 276.12762 
L 327.416558 275.994633 
L 327.82263 276.13221 
L 328.025666 276.06286 
L 328.228701 275.827614 
L 328.431737 276.074279 
L 328.634773 276.12398 
L 329.649953 275.793137 
L 329.852989 275.831568 
L 330.259061 276.191556 
L 330.462097 276.021085 
L 331.071205 276.149517 
L 331.274241 276.086443 
L 331.477277 276.22653 
L 331.680313 276.004476 
L 331.883349 276.033318 
L 332.086385 276.240323 
L 332.289421 276.142082 
L 332.492457 276.310204 
L 332.695493 275.718405 
L 332.898529 276.09833 
L 333.101565 276.240332 
L 333.507637 276.043191 
L 333.710673 276.058014 
L 334.116745 276.260994 
L 334.522817 276.224249 
L 334.928889 276.238947 
L 335.334961 276.099881 
L 335.741033 276.268011 
L 335.944069 275.59449 
L 336.350141 276.221177 
L 336.553177 275.95787 
L 336.756213 276.223034 
L 337.365321 275.682947 
L 337.568357 276.080358 
L 337.771393 275.88247 
L 337.974429 275.995464 
L 338.177465 275.9776 
L 338.380501 276.229203 
L 339.395681 276.168376 
L 339.598717 275.912814 
L 339.801753 276.100002 
L 340.004789 276.01189 
L 340.207825 276.087068 
L 340.410861 275.659511 
L 340.613897 276.255602 
L 340.816933 275.808967 
L 341.019969 276.264584 
L 341.223005 276.057168 
L 341.426041 276.224091 
L 341.629077 275.822003 
L 341.832113 275.999876 
L 342.035149 275.562784 
L 342.238185 276.240427 
L 342.441221 276.241688 
L 342.644257 275.944376 
L 342.847293 276.022003 
L 343.050329 276.239709 
L 343.456401 275.970438 
L 343.659437 276.201512 
L 344.065509 276.125103 
L 344.268545 276.334125 
L 344.471581 276.047945 
L 344.674617 276.00057 
L 344.877653 276.310262 
L 345.080689 276.259126 
L 345.486761 276.043941 
L 345.689796 276.191602 
L 345.892832 276.049323 
L 346.095868 276.226276 
L 346.298904 275.935488 
L 346.50194 276.039755 
L 346.704976 275.954708 
L 347.314084 276.109049 
L 347.51712 34.414125 
L 347.720156 275.954813 
L 347.923192 275.788384 
L 348.329264 276.228172 
L 348.735336 276.272311 
L 348.938372 276.01983 
L 349.141408 276.128715 
L 349.344444 275.710477 
L 349.750516 275.96225 
L 350.156588 276.233613 
L 350.359624 276.099063 
L 350.56266 275.732939 
L 350.968732 276.134012 
L 351.171768 275.895873 
L 351.57784 276.223392 
L 352.186948 276.019695 
L 352.389984 275.593948 
L 352.59302 276.065042 
L 352.796056 276.181991 
L 352.999092 275.694032 
L 353.202128 276.220967 
L 353.811236 276.17923 
L 354.014272 276.013708 
L 354.217308 276.240077 
L 355.435524 276.181584 
L 355.63856 275.752534 
L 355.841596 276.156651 
L 356.247668 275.869901 
L 356.450704 275.995311 
L 356.65374 275.946739 
L 357.262848 276.240594 
L 357.465884 275.846104 
L 357.66892 276.197393 
L 357.871956 276.247114 
L 358.074992 275.857218 
L 358.278028 276.292665 
L 358.481064 276.171079 
L 358.6841 275.85599 
L 358.887136 276.316524 
L 359.090172 276.236641 
L 359.293208 276.024901 
L 359.496244 276.165694 
L 359.902316 276.117753 
L 360.105352 276.218172 
L 360.308388 276.127682 
L 360.511424 275.826186 
L 360.917496 276.168833 
L 361.120532 275.906304 
L 361.323568 276.014623 
L 361.526604 276.261101 
L 361.72964 275.553226 
L 362.135712 275.908187 
L 362.541784 276.066296 
L 362.74482 275.794954 
L 363.150892 276.190559 
L 363.353927 276.128202 
L 363.556963 275.747581 
L 363.759999 276.206241 
L 363.963035 276.263385 
L 364.369107 276.001918 
L 365.181251 276.026493 
L 365.384287 276.223008 
L 365.587323 275.713226 
L 365.790359 276.075093 
L 365.993395 276.003812 
L 366.196431 276.178626 
L 367.008575 275.910054 
L 367.211611 276.236885 
L 367.414647 275.738817 
L 367.617683 276.070782 
L 367.820719 275.891477 
L 368.023755 276.226672 
L 368.226791 276.222454 
L 368.429827 275.9512 
L 368.632863 276.125822 
L 369.038935 276.034189 
L 369.445007 275.858781 
L 369.851079 276.111531 
L 370.054115 276.140821 
L 370.257151 276.003488 
L 370.460187 276.252532 
L 370.866259 276.212975 
L 371.069295 275.858519 
L 371.272331 276.019236 
L 371.678403 275.699813 
L 371.881439 276.115086 
L 372.084475 276.227846 
L 372.693583 275.959979 
L 373.099655 275.808335 
L 373.302691 275.811227 
L 373.505727 276.05069 
L 373.708763 275.897233 
L 373.911799 275.9591 
L 374.114835 276.178796 
L 374.520907 275.709952 
L 374.723943 276.077974 
L 374.926979 275.943688 
L 375.333051 276.179009 
L 375.739123 276.13311 
L 375.942159 275.790805 
L 376.145195 276.009738 
L 376.754303 276.147667 
L 377.363411 275.744409 
L 377.769483 276.083556 
L 377.972519 276.152284 
L 378.175555 275.73835 
L 378.378591 276.155315 
L 378.784663 276.045679 
L 378.987699 275.897823 
L 379.190735 276.277418 
L 379.393771 276.104796 
L 379.596807 276.302562 
L 379.799843 275.982546 
L 380.002879 276.015296 
L 380.408951 276.293966 
L 380.815022 275.955105 
L 381.018058 276.173636 
L 381.221094 276.216794 
L 381.42413 275.80893 
L 381.830202 276.124632 
L 382.033238 275.874467 
L 382.236274 276.307091 
L 382.642346 275.937375 
L 382.845382 276.021318 
L 383.048418 275.600829 
L 383.251454 276.226647 
L 383.45449 275.760748 
L 383.860562 276.194286 
L 384.063598 275.911215 
L 384.266634 276.267731 
L 384.46967 276.08285 
L 384.672706 276.175398 
L 385.078778 276.023781 
L 385.281814 276.202555 
L 385.48485 275.97224 
L 385.687886 276.206318 
L 385.890922 275.93786 
L 386.093958 276.030432 
L 386.50003 275.897264 
L 387.51521 276.247582 
L 387.718246 276.002101 
L 387.921282 276.258003 
L 388.124318 275.946209 
L 388.53039 276.233472 
L 389.139498 275.899657 
L 389.342534 276.20764 
L 390.56075 276.009728 
L 390.763786 276.242899 
L 391.57593 276.072655 
L 391.778966 275.86739 
L 392.185038 276.237734 
L 392.388074 276.184329 
L 392.794146 276.218904 
L 392.997182 275.983379 
L 393.60629 276.186539 
L 393.809326 275.630583 
L 394.012362 276.240427 
L 394.215398 275.712694 
L 394.215398 275.712694 
" style="fill:none;stroke:#ff0000;stroke-linecap:square;stroke-width:1.5;"/>
   </g>
   <g id="patch_3">
    <path d="M 53.328125 288.430125 
L 53.328125 22.318125 
" style="fill:none;stroke:#000000;stroke-linecap:square;stroke-linejoin:miter;stroke-width:0.8;"/>
   </g>
   <g id="patch_4">
    <path d="M 410.448125 288.430125 
L 410.448125 22.318125 
" style="fill:none;stroke:#000000;stroke-linecap:square;stroke-linejoin:miter;stroke-width:0.8;"/>
   </g>
   <g id="patch_5">
    <path d="M 53.328125 288.430125 
L 410.448125 288.430125 
" style="fill:none;stroke:#000000;stroke-linecap:square;stroke-linejoin:miter;stroke-width:0.8;"/>
   </g>
   <g id="patch_6">
    <path d="M 53.328125 22.318125 
L 410.448125 22.318125 
" style="fill:none;stroke:#000000;stroke-linecap:square;stroke-linejoin:miter;stroke-width:0.8;"/>
   </g>
   <g id="text_18">
    <!-- received signal fft -->
    <g transform="translate(178.121563 16.318125)scale(0.12 -0.12)">
     <defs>
      <path d="M 191 3500 
L 800 3500 
L 1894 563 
L 2988 3500 
L 3597 3500 
L 2284 0 
L 1503 0 
L 191 3500 
z
" id="DejaVuSans-76" transform="scale(0.015625)"/>
      <path id="DejaVuSans-20" transform="scale(0.015625)"/>
      <path d="M 2834 3397 
L 2834 2853 
Q 2591 2978 2328 3040 
Q 2066 3103 1784 3103 
Q 1356 3103 1142 2972 
Q 928 2841 928 2578 
Q 928 2378 1081 2264 
Q 1234 2150 1697 2047 
L 1894 2003 
Q 2506 1872 2764 1633 
Q 3022 1394 3022 966 
Q 3022 478 2636 193 
Q 2250 -91 1575 -91 
Q 1294 -91 989 -36 
Q 684 19 347 128 
L 347 722 
Q 666 556 975 473 
Q 1284 391 1588 391 
Q 1994 391 2212 530 
Q 2431 669 2431 922 
Q 2431 1156 2273 1281 
Q 2116 1406 1581 1522 
L 1381 1569 
Q 847 1681 609 1914 
Q 372 2147 372 2553 
Q 372 3047 722 3315 
Q 1072 3584 1716 3584 
Q 2034 3584 2315 3537 
Q 2597 3491 2834 3397 
z
" id="DejaVuSans-73" transform="scale(0.015625)"/>
      <path d="M 603 4863 
L 1178 4863 
L 1178 0 
L 603 0 
L 603 4863 
z
" id="DejaVuSans-6c" transform="scale(0.015625)"/>
     </defs>
     <use xlink:href="#DejaVuSans-72"/>
     <use x="38.863281" xlink:href="#DejaVuSans-65"/>
     <use x="100.386719" xlink:href="#DejaVuSans-63"/>
     <use x="155.367188" xlink:href="#DejaVuSans-65"/>
     <use x="216.890625" xlink:href="#DejaVuSans-69"/>
     <use x="244.673828" xlink:href="#DejaVuSans-76"/>
     <use x="303.853516" xlink:href="#DejaVuSans-65"/>
     <use x="365.376953" xlink:href="#DejaVuSans-64"/>
     <use x="428.853516" xlink:href="#DejaVuSans-20"/>
     <use x="460.640625" xlink:href="#DejaVuSans-73"/>
     <use x="512.740234" xlink:href="#DejaVuSans-69"/>
     <use x="540.523438" xlink:href="#DejaVuSans-67"/>
     <use x="604" xlink:href="#DejaVuSans-6e"/>
     <use x="667.378906" xlink:href="#DejaVuSans-61"/>
     <use x="728.658203" xlink:href="#DejaVuSans-6c"/>
     <use x="756.441406" xlink:href="#DejaVuSans-20"/>
     <use x="788.228516" xlink:href="#DejaVuSans-66"/>
     <use x="823.433594" xlink:href="#DejaVuSans-66"/>
     <use x="856.888672" xlink:href="#DejaVuSans-74"/>
    </g>
   </g>
  </g>
 </g>
 <defs>
  <clipPath id="p09dd83dcfc">
   <rect height="266.112" width="357.12" x="53.328125" y="22.318125"/>
  </clipPath>
 </defs>
</svg>
