<?xml version="1.0" encoding="utf-8" standalone="no"?>
<!DOCTYPE svg PUBLIC "-//W3C//DTD SVG 1.1//EN"
  "http://www.w3.org/Graphics/SVG/1.1/DTD/svg11.dtd">
<svg height="345.6pt" version="1.1" viewBox="0 0 460.8 345.6" width="460.8pt" xmlns="http://www.w3.org/2000/svg" xmlns:xlink="http://www.w3.org/1999/xlink">
 <metadata>
  <rdf:RDF xmlns:cc="http://creativecommons.org/ns#" xmlns:dc="http://purl.org/dc/elements/1.1/" xmlns:rdf="http://www.w3.org/1999/02/22-rdf-syntax-ns#">
   <cc:Work>
    <dc:type rdf:resource="http://purl.org/dc/dcmitype/StillImage"/>
    <dc:date>2021-11-07T14:15:10.411531</dc:date>
    <dc:format>image/svg+xml</dc:format>
    <dc:creator>
     <cc:Agent>
      <dc:title>Matplotlib v3.4.3, https://matplotlib.org/</dc:title>
     </cc:Agent>
    </dc:creator>
   </cc:Work>
  </rdf:RDF>
 </metadata>
 <defs>
  <style type="text/css">*{stroke-linecap:butt;stroke-linejoin:round;}</style>
 </defs>
 <g id="figure_1">
  <g id="patch_1">
   <path d="M 0 345.6 
L 460.8 345.6 
L 460.8 0 
L 0 0 
z
" style="fill:#ffffff;"/>
  </g>
  <g id="axes_1">
   <g id="patch_2">
    <path d="M 57.6 307.584 
L 414.72 307.584 
L 414.72 41.472 
L 57.6 41.472 
z
" style="fill:#ffffff;"/>
   </g>
   <g id="matplotlib.axis_1">
    <g id="xtick_1">
     <g id="line2d_1">
      <defs>
       <path d="M 0 0 
L 0 3.5 
" id="m117b47cd6f" style="stroke:#000000;stroke-width:0.8;"/>
      </defs>
      <g>
       <use style="stroke:#000000;stroke-width:0.8;" x="73.645934" xlink:href="#m117b47cd6f" y="307.584"/>
      </g>
     </g>
     <g id="text_1">
      <!-- −800 -->
      <g transform="translate(59.91234 322.182437)scale(0.1 -0.1)">
       <defs>
        <path d="M 678 2272 
L 4684 2272 
L 4684 1741 
L 678 1741 
L 678 2272 
z
" id="DejaVuSans-2212" transform="scale(0.015625)"/>
        <path d="M 2034 2216 
Q 1584 2216 1326 1975 
Q 1069 1734 1069 1313 
Q 1069 891 1326 650 
Q 1584 409 2034 409 
Q 2484 409 2743 651 
Q 3003 894 3003 1313 
Q 3003 1734 2745 1975 
Q 2488 2216 2034 2216 
z
M 1403 2484 
Q 997 2584 770 2862 
Q 544 3141 544 3541 
Q 544 4100 942 4425 
Q 1341 4750 2034 4750 
Q 2731 4750 3128 4425 
Q 3525 4100 3525 3541 
Q 3525 3141 3298 2862 
Q 3072 2584 2669 2484 
Q 3125 2378 3379 2068 
Q 3634 1759 3634 1313 
Q 3634 634 3220 271 
Q 2806 -91 2034 -91 
Q 1263 -91 848 271 
Q 434 634 434 1313 
Q 434 1759 690 2068 
Q 947 2378 1403 2484 
z
M 1172 3481 
Q 1172 3119 1398 2916 
Q 1625 2713 2034 2713 
Q 2441 2713 2670 2916 
Q 2900 3119 2900 3481 
Q 2900 3844 2670 4047 
Q 2441 4250 2034 4250 
Q 1625 4250 1398 4047 
Q 1172 3844 1172 3481 
z
" id="DejaVuSans-38" transform="scale(0.015625)"/>
        <path d="M 2034 4250 
Q 1547 4250 1301 3770 
Q 1056 3291 1056 2328 
Q 1056 1369 1301 889 
Q 1547 409 2034 409 
Q 2525 409 2770 889 
Q 3016 1369 3016 2328 
Q 3016 3291 2770 3770 
Q 2525 4250 2034 4250 
z
M 2034 4750 
Q 2819 4750 3233 4129 
Q 3647 3509 3647 2328 
Q 3647 1150 3233 529 
Q 2819 -91 2034 -91 
Q 1250 -91 836 529 
Q 422 1150 422 2328 
Q 422 3509 836 4129 
Q 1250 4750 2034 4750 
z
" id="DejaVuSans-30" transform="scale(0.015625)"/>
       </defs>
       <use xlink:href="#DejaVuSans-2212"/>
       <use x="83.789062" xlink:href="#DejaVuSans-38"/>
       <use x="147.412109" xlink:href="#DejaVuSans-30"/>
       <use x="211.035156" xlink:href="#DejaVuSans-30"/>
      </g>
     </g>
    </g>
    <g id="xtick_2">
     <g id="line2d_2">
      <g>
       <use style="stroke:#000000;stroke-width:0.8;" x="114.249071" xlink:href="#m117b47cd6f" y="307.584"/>
      </g>
     </g>
     <g id="text_2">
      <!-- −600 -->
      <g transform="translate(100.515477 322.182437)scale(0.1 -0.1)">
       <defs>
        <path d="M 2113 2584 
Q 1688 2584 1439 2293 
Q 1191 2003 1191 1497 
Q 1191 994 1439 701 
Q 1688 409 2113 409 
Q 2538 409 2786 701 
Q 3034 994 3034 1497 
Q 3034 2003 2786 2293 
Q 2538 2584 2113 2584 
z
M 3366 4563 
L 3366 3988 
Q 3128 4100 2886 4159 
Q 2644 4219 2406 4219 
Q 1781 4219 1451 3797 
Q 1122 3375 1075 2522 
Q 1259 2794 1537 2939 
Q 1816 3084 2150 3084 
Q 2853 3084 3261 2657 
Q 3669 2231 3669 1497 
Q 3669 778 3244 343 
Q 2819 -91 2113 -91 
Q 1303 -91 875 529 
Q 447 1150 447 2328 
Q 447 3434 972 4092 
Q 1497 4750 2381 4750 
Q 2619 4750 2861 4703 
Q 3103 4656 3366 4563 
z
" id="DejaVuSans-36" transform="scale(0.015625)"/>
       </defs>
       <use xlink:href="#DejaVuSans-2212"/>
       <use x="83.789062" xlink:href="#DejaVuSans-36"/>
       <use x="147.412109" xlink:href="#DejaVuSans-30"/>
       <use x="211.035156" xlink:href="#DejaVuSans-30"/>
      </g>
     </g>
    </g>
    <g id="xtick_3">
     <g id="line2d_3">
      <g>
       <use style="stroke:#000000;stroke-width:0.8;" x="154.852208" xlink:href="#m117b47cd6f" y="307.584"/>
      </g>
     </g>
     <g id="text_3">
      <!-- −400 -->
      <g transform="translate(141.118614 322.182437)scale(0.1 -0.1)">
       <defs>
        <path d="M 2419 4116 
L 825 1625 
L 2419 1625 
L 2419 4116 
z
M 2253 4666 
L 3047 4666 
L 3047 1625 
L 3713 1625 
L 3713 1100 
L 3047 1100 
L 3047 0 
L 2419 0 
L 2419 1100 
L 313 1100 
L 313 1709 
L 2253 4666 
z
" id="DejaVuSans-34" transform="scale(0.015625)"/>
       </defs>
       <use xlink:href="#DejaVuSans-2212"/>
       <use x="83.789062" xlink:href="#DejaVuSans-34"/>
       <use x="147.412109" xlink:href="#DejaVuSans-30"/>
       <use x="211.035156" xlink:href="#DejaVuSans-30"/>
      </g>
     </g>
    </g>
    <g id="xtick_4">
     <g id="line2d_4">
      <g>
       <use style="stroke:#000000;stroke-width:0.8;" x="195.455345" xlink:href="#m117b47cd6f" y="307.584"/>
      </g>
     </g>
     <g id="text_4">
      <!-- −200 -->
      <g transform="translate(181.721751 322.182437)scale(0.1 -0.1)">
       <defs>
        <path d="M 1228 531 
L 3431 531 
L 3431 0 
L 469 0 
L 469 531 
Q 828 903 1448 1529 
Q 2069 2156 2228 2338 
Q 2531 2678 2651 2914 
Q 2772 3150 2772 3378 
Q 2772 3750 2511 3984 
Q 2250 4219 1831 4219 
Q 1534 4219 1204 4116 
Q 875 4013 500 3803 
L 500 4441 
Q 881 4594 1212 4672 
Q 1544 4750 1819 4750 
Q 2544 4750 2975 4387 
Q 3406 4025 3406 3419 
Q 3406 3131 3298 2873 
Q 3191 2616 2906 2266 
Q 2828 2175 2409 1742 
Q 1991 1309 1228 531 
z
" id="DejaVuSans-32" transform="scale(0.015625)"/>
       </defs>
       <use xlink:href="#DejaVuSans-2212"/>
       <use x="83.789062" xlink:href="#DejaVuSans-32"/>
       <use x="147.412109" xlink:href="#DejaVuSans-30"/>
       <use x="211.035156" xlink:href="#DejaVuSans-30"/>
      </g>
     </g>
    </g>
    <g id="xtick_5">
     <g id="line2d_5">
      <g>
       <use style="stroke:#000000;stroke-width:0.8;" x="236.058482" xlink:href="#m117b47cd6f" y="307.584"/>
      </g>
     </g>
     <g id="text_5">
      <!-- 0 -->
      <g transform="translate(232.877232 322.182437)scale(0.1 -0.1)">
       <use xlink:href="#DejaVuSans-30"/>
      </g>
     </g>
    </g>
    <g id="xtick_6">
     <g id="line2d_6">
      <g>
       <use style="stroke:#000000;stroke-width:0.8;" x="276.661619" xlink:href="#m117b47cd6f" y="307.584"/>
      </g>
     </g>
     <g id="text_6">
      <!-- 200 -->
      <g transform="translate(267.117869 322.182437)scale(0.1 -0.1)">
       <use xlink:href="#DejaVuSans-32"/>
       <use x="63.623047" xlink:href="#DejaVuSans-30"/>
       <use x="127.246094" xlink:href="#DejaVuSans-30"/>
      </g>
     </g>
    </g>
    <g id="xtick_7">
     <g id="line2d_7">
      <g>
       <use style="stroke:#000000;stroke-width:0.8;" x="317.264756" xlink:href="#m117b47cd6f" y="307.584"/>
      </g>
     </g>
     <g id="text_7">
      <!-- 400 -->
      <g transform="translate(307.721006 322.182437)scale(0.1 -0.1)">
       <use xlink:href="#DejaVuSans-34"/>
       <use x="63.623047" xlink:href="#DejaVuSans-30"/>
       <use x="127.246094" xlink:href="#DejaVuSans-30"/>
      </g>
     </g>
    </g>
    <g id="xtick_8">
     <g id="line2d_8">
      <g>
       <use style="stroke:#000000;stroke-width:0.8;" x="357.867893" xlink:href="#m117b47cd6f" y="307.584"/>
      </g>
     </g>
     <g id="text_8">
      <!-- 600 -->
      <g transform="translate(348.324143 322.182437)scale(0.1 -0.1)">
       <use xlink:href="#DejaVuSans-36"/>
       <use x="63.623047" xlink:href="#DejaVuSans-30"/>
       <use x="127.246094" xlink:href="#DejaVuSans-30"/>
      </g>
     </g>
    </g>
    <g id="xtick_9">
     <g id="line2d_9">
      <g>
       <use style="stroke:#000000;stroke-width:0.8;" x="398.47103" xlink:href="#m117b47cd6f" y="307.584"/>
      </g>
     </g>
     <g id="text_9">
      <!-- 800 -->
      <g transform="translate(388.92728 322.182437)scale(0.1 -0.1)">
       <use xlink:href="#DejaVuSans-38"/>
       <use x="63.623047" xlink:href="#DejaVuSans-30"/>
       <use x="127.246094" xlink:href="#DejaVuSans-30"/>
      </g>
     </g>
    </g>
    <g id="text_10">
     <!-- frequency[Hz] -->
     <g transform="translate(200.7975 335.860562)scale(0.1 -0.1)">
      <defs>
       <path d="M 2375 4863 
L 2375 4384 
L 1825 4384 
Q 1516 4384 1395 4259 
Q 1275 4134 1275 3809 
L 1275 3500 
L 2222 3500 
L 2222 3053 
L 1275 3053 
L 1275 0 
L 697 0 
L 697 3053 
L 147 3053 
L 147 3500 
L 697 3500 
L 697 3744 
Q 697 4328 969 4595 
Q 1241 4863 1831 4863 
L 2375 4863 
z
" id="DejaVuSans-66" transform="scale(0.015625)"/>
       <path d="M 2631 2963 
Q 2534 3019 2420 3045 
Q 2306 3072 2169 3072 
Q 1681 3072 1420 2755 
Q 1159 2438 1159 1844 
L 1159 0 
L 581 0 
L 581 3500 
L 1159 3500 
L 1159 2956 
Q 1341 3275 1631 3429 
Q 1922 3584 2338 3584 
Q 2397 3584 2469 3576 
Q 2541 3569 2628 3553 
L 2631 2963 
z
" id="DejaVuSans-72" transform="scale(0.015625)"/>
       <path d="M 3597 1894 
L 3597 1613 
L 953 1613 
Q 991 1019 1311 708 
Q 1631 397 2203 397 
Q 2534 397 2845 478 
Q 3156 559 3463 722 
L 3463 178 
Q 3153 47 2828 -22 
Q 2503 -91 2169 -91 
Q 1331 -91 842 396 
Q 353 884 353 1716 
Q 353 2575 817 3079 
Q 1281 3584 2069 3584 
Q 2775 3584 3186 3129 
Q 3597 2675 3597 1894 
z
M 3022 2063 
Q 3016 2534 2758 2815 
Q 2500 3097 2075 3097 
Q 1594 3097 1305 2825 
Q 1016 2553 972 2059 
L 3022 2063 
z
" id="DejaVuSans-65" transform="scale(0.015625)"/>
       <path d="M 947 1747 
Q 947 1113 1208 752 
Q 1469 391 1925 391 
Q 2381 391 2643 752 
Q 2906 1113 2906 1747 
Q 2906 2381 2643 2742 
Q 2381 3103 1925 3103 
Q 1469 3103 1208 2742 
Q 947 2381 947 1747 
z
M 2906 525 
Q 2725 213 2448 61 
Q 2172 -91 1784 -91 
Q 1150 -91 751 415 
Q 353 922 353 1747 
Q 353 2572 751 3078 
Q 1150 3584 1784 3584 
Q 2172 3584 2448 3432 
Q 2725 3281 2906 2969 
L 2906 3500 
L 3481 3500 
L 3481 -1331 
L 2906 -1331 
L 2906 525 
z
" id="DejaVuSans-71" transform="scale(0.015625)"/>
       <path d="M 544 1381 
L 544 3500 
L 1119 3500 
L 1119 1403 
Q 1119 906 1312 657 
Q 1506 409 1894 409 
Q 2359 409 2629 706 
Q 2900 1003 2900 1516 
L 2900 3500 
L 3475 3500 
L 3475 0 
L 2900 0 
L 2900 538 
Q 2691 219 2414 64 
Q 2138 -91 1772 -91 
Q 1169 -91 856 284 
Q 544 659 544 1381 
z
M 1991 3584 
L 1991 3584 
z
" id="DejaVuSans-75" transform="scale(0.015625)"/>
       <path d="M 3513 2113 
L 3513 0 
L 2938 0 
L 2938 2094 
Q 2938 2591 2744 2837 
Q 2550 3084 2163 3084 
Q 1697 3084 1428 2787 
Q 1159 2491 1159 1978 
L 1159 0 
L 581 0 
L 581 3500 
L 1159 3500 
L 1159 2956 
Q 1366 3272 1645 3428 
Q 1925 3584 2291 3584 
Q 2894 3584 3203 3211 
Q 3513 2838 3513 2113 
z
" id="DejaVuSans-6e" transform="scale(0.015625)"/>
       <path d="M 3122 3366 
L 3122 2828 
Q 2878 2963 2633 3030 
Q 2388 3097 2138 3097 
Q 1578 3097 1268 2742 
Q 959 2388 959 1747 
Q 959 1106 1268 751 
Q 1578 397 2138 397 
Q 2388 397 2633 464 
Q 2878 531 3122 666 
L 3122 134 
Q 2881 22 2623 -34 
Q 2366 -91 2075 -91 
Q 1284 -91 818 406 
Q 353 903 353 1747 
Q 353 2603 823 3093 
Q 1294 3584 2113 3584 
Q 2378 3584 2631 3529 
Q 2884 3475 3122 3366 
z
" id="DejaVuSans-63" transform="scale(0.015625)"/>
       <path d="M 2059 -325 
Q 1816 -950 1584 -1140 
Q 1353 -1331 966 -1331 
L 506 -1331 
L 506 -850 
L 844 -850 
Q 1081 -850 1212 -737 
Q 1344 -625 1503 -206 
L 1606 56 
L 191 3500 
L 800 3500 
L 1894 763 
L 2988 3500 
L 3597 3500 
L 2059 -325 
z
" id="DejaVuSans-79" transform="scale(0.015625)"/>
       <path d="M 550 4863 
L 1875 4863 
L 1875 4416 
L 1125 4416 
L 1125 -397 
L 1875 -397 
L 1875 -844 
L 550 -844 
L 550 4863 
z
" id="DejaVuSans-5b" transform="scale(0.015625)"/>
       <path d="M 628 4666 
L 1259 4666 
L 1259 2753 
L 3553 2753 
L 3553 4666 
L 4184 4666 
L 4184 0 
L 3553 0 
L 3553 2222 
L 1259 2222 
L 1259 0 
L 628 0 
L 628 4666 
z
" id="DejaVuSans-48" transform="scale(0.015625)"/>
       <path d="M 353 3500 
L 3084 3500 
L 3084 2975 
L 922 459 
L 3084 459 
L 3084 0 
L 275 0 
L 275 525 
L 2438 3041 
L 353 3041 
L 353 3500 
z
" id="DejaVuSans-7a" transform="scale(0.015625)"/>
       <path d="M 1947 4863 
L 1947 -844 
L 622 -844 
L 622 -397 
L 1369 -397 
L 1369 4416 
L 622 4416 
L 622 4863 
L 1947 4863 
z
" id="DejaVuSans-5d" transform="scale(0.015625)"/>
      </defs>
      <use xlink:href="#DejaVuSans-66"/>
      <use x="35.205078" xlink:href="#DejaVuSans-72"/>
      <use x="74.068359" xlink:href="#DejaVuSans-65"/>
      <use x="135.591797" xlink:href="#DejaVuSans-71"/>
      <use x="199.068359" xlink:href="#DejaVuSans-75"/>
      <use x="262.447266" xlink:href="#DejaVuSans-65"/>
      <use x="323.970703" xlink:href="#DejaVuSans-6e"/>
      <use x="387.349609" xlink:href="#DejaVuSans-63"/>
      <use x="442.330078" xlink:href="#DejaVuSans-79"/>
      <use x="501.509766" xlink:href="#DejaVuSans-5b"/>
      <use x="540.523438" xlink:href="#DejaVuSans-48"/>
      <use x="615.71875" xlink:href="#DejaVuSans-7a"/>
      <use x="668.208984" xlink:href="#DejaVuSans-5d"/>
     </g>
    </g>
   </g>
   <g id="matplotlib.axis_2">
    <g id="ytick_1">
     <g id="line2d_10">
      <defs>
       <path d="M 0 0 
L -3.5 0 
" id="m40213bbea0" style="stroke:#000000;stroke-width:0.8;"/>
      </defs>
      <g>
       <use style="stroke:#000000;stroke-width:0.8;" x="57.6" xlink:href="#m40213bbea0" y="295.496777"/>
      </g>
     </g>
     <g id="text_11">
      <!-- 0 -->
      <g transform="translate(44.2375 299.295996)scale(0.1 -0.1)">
       <use xlink:href="#DejaVuSans-30"/>
      </g>
     </g>
    </g>
    <g id="ytick_2">
     <g id="line2d_11">
      <g>
       <use style="stroke:#000000;stroke-width:0.8;" x="57.6" xlink:href="#m40213bbea0" y="246.368158"/>
      </g>
     </g>
     <g id="text_12">
      <!-- 500 -->
      <g transform="translate(31.5125 250.167377)scale(0.1 -0.1)">
       <defs>
        <path d="M 691 4666 
L 3169 4666 
L 3169 4134 
L 1269 4134 
L 1269 2991 
Q 1406 3038 1543 3061 
Q 1681 3084 1819 3084 
Q 2600 3084 3056 2656 
Q 3513 2228 3513 1497 
Q 3513 744 3044 326 
Q 2575 -91 1722 -91 
Q 1428 -91 1123 -41 
Q 819 9 494 109 
L 494 744 
Q 775 591 1075 516 
Q 1375 441 1709 441 
Q 2250 441 2565 725 
Q 2881 1009 2881 1497 
Q 2881 1984 2565 2268 
Q 2250 2553 1709 2553 
Q 1456 2553 1204 2497 
Q 953 2441 691 2322 
L 691 4666 
z
" id="DejaVuSans-35" transform="scale(0.015625)"/>
       </defs>
       <use xlink:href="#DejaVuSans-35"/>
       <use x="63.623047" xlink:href="#DejaVuSans-30"/>
       <use x="127.246094" xlink:href="#DejaVuSans-30"/>
      </g>
     </g>
    </g>
    <g id="ytick_3">
     <g id="line2d_12">
      <g>
       <use style="stroke:#000000;stroke-width:0.8;" x="57.6" xlink:href="#m40213bbea0" y="197.23954"/>
      </g>
     </g>
     <g id="text_13">
      <!-- 1000 -->
      <g transform="translate(25.15 201.038758)scale(0.1 -0.1)">
       <defs>
        <path d="M 794 531 
L 1825 531 
L 1825 4091 
L 703 3866 
L 703 4441 
L 1819 4666 
L 2450 4666 
L 2450 531 
L 3481 531 
L 3481 0 
L 794 0 
L 794 531 
z
" id="DejaVuSans-31" transform="scale(0.015625)"/>
       </defs>
       <use xlink:href="#DejaVuSans-31"/>
       <use x="63.623047" xlink:href="#DejaVuSans-30"/>
       <use x="127.246094" xlink:href="#DejaVuSans-30"/>
       <use x="190.869141" xlink:href="#DejaVuSans-30"/>
      </g>
     </g>
    </g>
    <g id="ytick_4">
     <g id="line2d_13">
      <g>
       <use style="stroke:#000000;stroke-width:0.8;" x="57.6" xlink:href="#m40213bbea0" y="148.110921"/>
      </g>
     </g>
     <g id="text_14">
      <!-- 1500 -->
      <g transform="translate(25.15 151.91014)scale(0.1 -0.1)">
       <use xlink:href="#DejaVuSans-31"/>
       <use x="63.623047" xlink:href="#DejaVuSans-35"/>
       <use x="127.246094" xlink:href="#DejaVuSans-30"/>
       <use x="190.869141" xlink:href="#DejaVuSans-30"/>
      </g>
     </g>
    </g>
    <g id="ytick_5">
     <g id="line2d_14">
      <g>
       <use style="stroke:#000000;stroke-width:0.8;" x="57.6" xlink:href="#m40213bbea0" y="98.982302"/>
      </g>
     </g>
     <g id="text_15">
      <!-- 2000 -->
      <g transform="translate(25.15 102.781521)scale(0.1 -0.1)">
       <use xlink:href="#DejaVuSans-32"/>
       <use x="63.623047" xlink:href="#DejaVuSans-30"/>
       <use x="127.246094" xlink:href="#DejaVuSans-30"/>
       <use x="190.869141" xlink:href="#DejaVuSans-30"/>
      </g>
     </g>
    </g>
    <g id="ytick_6">
     <g id="line2d_15">
      <g>
       <use style="stroke:#000000;stroke-width:0.8;" x="57.6" xlink:href="#m40213bbea0" y="49.853684"/>
      </g>
     </g>
     <g id="text_16">
      <!-- 2500 -->
      <g transform="translate(25.15 53.652903)scale(0.1 -0.1)">
       <use xlink:href="#DejaVuSans-32"/>
       <use x="63.623047" xlink:href="#DejaVuSans-35"/>
       <use x="127.246094" xlink:href="#DejaVuSans-30"/>
       <use x="190.869141" xlink:href="#DejaVuSans-30"/>
      </g>
     </g>
    </g>
    <g id="text_17">
     <!-- magnitude -->
     <g transform="translate(19.070312 201.574094)rotate(-90)scale(0.1 -0.1)">
      <defs>
       <path d="M 3328 2828 
Q 3544 3216 3844 3400 
Q 4144 3584 4550 3584 
Q 5097 3584 5394 3201 
Q 5691 2819 5691 2113 
L 5691 0 
L 5113 0 
L 5113 2094 
Q 5113 2597 4934 2840 
Q 4756 3084 4391 3084 
Q 3944 3084 3684 2787 
Q 3425 2491 3425 1978 
L 3425 0 
L 2847 0 
L 2847 2094 
Q 2847 2600 2669 2842 
Q 2491 3084 2119 3084 
Q 1678 3084 1418 2786 
Q 1159 2488 1159 1978 
L 1159 0 
L 581 0 
L 581 3500 
L 1159 3500 
L 1159 2956 
Q 1356 3278 1631 3431 
Q 1906 3584 2284 3584 
Q 2666 3584 2933 3390 
Q 3200 3197 3328 2828 
z
" id="DejaVuSans-6d" transform="scale(0.015625)"/>
       <path d="M 2194 1759 
Q 1497 1759 1228 1600 
Q 959 1441 959 1056 
Q 959 750 1161 570 
Q 1363 391 1709 391 
Q 2188 391 2477 730 
Q 2766 1069 2766 1631 
L 2766 1759 
L 2194 1759 
z
M 3341 1997 
L 3341 0 
L 2766 0 
L 2766 531 
Q 2569 213 2275 61 
Q 1981 -91 1556 -91 
Q 1019 -91 701 211 
Q 384 513 384 1019 
Q 384 1609 779 1909 
Q 1175 2209 1959 2209 
L 2766 2209 
L 2766 2266 
Q 2766 2663 2505 2880 
Q 2244 3097 1772 3097 
Q 1472 3097 1187 3025 
Q 903 2953 641 2809 
L 641 3341 
Q 956 3463 1253 3523 
Q 1550 3584 1831 3584 
Q 2591 3584 2966 3190 
Q 3341 2797 3341 1997 
z
" id="DejaVuSans-61" transform="scale(0.015625)"/>
       <path d="M 2906 1791 
Q 2906 2416 2648 2759 
Q 2391 3103 1925 3103 
Q 1463 3103 1205 2759 
Q 947 2416 947 1791 
Q 947 1169 1205 825 
Q 1463 481 1925 481 
Q 2391 481 2648 825 
Q 2906 1169 2906 1791 
z
M 3481 434 
Q 3481 -459 3084 -895 
Q 2688 -1331 1869 -1331 
Q 1566 -1331 1297 -1286 
Q 1028 -1241 775 -1147 
L 775 -588 
Q 1028 -725 1275 -790 
Q 1522 -856 1778 -856 
Q 2344 -856 2625 -561 
Q 2906 -266 2906 331 
L 2906 616 
Q 2728 306 2450 153 
Q 2172 0 1784 0 
Q 1141 0 747 490 
Q 353 981 353 1791 
Q 353 2603 747 3093 
Q 1141 3584 1784 3584 
Q 2172 3584 2450 3431 
Q 2728 3278 2906 2969 
L 2906 3500 
L 3481 3500 
L 3481 434 
z
" id="DejaVuSans-67" transform="scale(0.015625)"/>
       <path d="M 603 3500 
L 1178 3500 
L 1178 0 
L 603 0 
L 603 3500 
z
M 603 4863 
L 1178 4863 
L 1178 4134 
L 603 4134 
L 603 4863 
z
" id="DejaVuSans-69" transform="scale(0.015625)"/>
       <path d="M 1172 4494 
L 1172 3500 
L 2356 3500 
L 2356 3053 
L 1172 3053 
L 1172 1153 
Q 1172 725 1289 603 
Q 1406 481 1766 481 
L 2356 481 
L 2356 0 
L 1766 0 
Q 1100 0 847 248 
Q 594 497 594 1153 
L 594 3053 
L 172 3053 
L 172 3500 
L 594 3500 
L 594 4494 
L 1172 4494 
z
" id="DejaVuSans-74" transform="scale(0.015625)"/>
       <path d="M 2906 2969 
L 2906 4863 
L 3481 4863 
L 3481 0 
L 2906 0 
L 2906 525 
Q 2725 213 2448 61 
Q 2172 -91 1784 -91 
Q 1150 -91 751 415 
Q 353 922 353 1747 
Q 353 2572 751 3078 
Q 1150 3584 1784 3584 
Q 2172 3584 2448 3432 
Q 2725 3281 2906 2969 
z
M 947 1747 
Q 947 1113 1208 752 
Q 1469 391 1925 391 
Q 2381 391 2643 752 
Q 2906 1113 2906 1747 
Q 2906 2381 2643 2742 
Q 2381 3103 1925 3103 
Q 1469 3103 1208 2742 
Q 947 2381 947 1747 
z
" id="DejaVuSans-64" transform="scale(0.015625)"/>
      </defs>
      <use xlink:href="#DejaVuSans-6d"/>
      <use x="97.412109" xlink:href="#DejaVuSans-61"/>
      <use x="158.691406" xlink:href="#DejaVuSans-67"/>
      <use x="222.167969" xlink:href="#DejaVuSans-6e"/>
      <use x="285.546875" xlink:href="#DejaVuSans-69"/>
      <use x="313.330078" xlink:href="#DejaVuSans-74"/>
      <use x="352.539062" xlink:href="#DejaVuSans-75"/>
      <use x="415.917969" xlink:href="#DejaVuSans-64"/>
      <use x="479.394531" xlink:href="#DejaVuSans-65"/>
     </g>
    </g>
   </g>
   <g id="line2d_16">
    <path clip-path="url(#pd4c1bca15a)" d="M 73.832727 295.394302 
L 74.035763 294.784458 
L 74.238799 295.340414 
L 74.847907 295.137254 
L 75.050943 295.372779 
L 75.660051 295.391609 
L 76.066123 295.021265 
L 76.472195 295.327583 
L 76.878267 295.365046 
L 77.081303 295.396774 
L 77.284339 295.163603 
L 77.487375 295.292727 
L 77.690411 295.116171 
L 78.502555 295.361515 
L 78.705591 295.053532 
L 78.908627 295.04816 
L 79.314699 295.387347 
L 79.517735 295.31023 
L 79.720771 295.100084 
L 79.923807 295.411878 
L 80.126843 295.155976 
L 80.329879 295.401457 
L 80.735951 295.337322 
L 80.938987 295.158939 
L 81.954167 295.091735 
L 82.157203 295.360193 
L 82.360239 295.126115 
L 82.563275 295.35643 
L 82.766311 295.177656 
L 83.172383 295.329273 
L 83.375419 295.236725 
L 83.578455 295.421606 
L 83.781491 295.06509 
L 83.984527 295.348161 
L 84.390599 294.914623 
L 84.593635 295.380522 
L 84.796671 294.754704 
L 84.999707 295.175193 
L 85.202743 295.09125 
L 85.608815 295.460966 
L 85.811851 295.028342 
L 86.014887 295.278507 
L 86.420959 294.962805 
L 86.623995 295.370669 
L 86.827031 295.327511 
L 87.030067 295.10898 
L 87.436138 295.447841 
L 88.045246 295.136421 
L 88.248282 295.456437 
L 88.451318 295.258671 
L 88.654354 295.431293 
L 88.85739 295.051698 
L 89.263462 295.290033 
L 89.466498 295.30919 
L 89.669534 294.892225 
L 89.87257 295.306159 
L 90.278642 295.12486 
L 90.481678 294.898284 
L 90.684714 295.11903 
L 91.090786 295.301542 
L 91.293822 295.13003 
L 91.699894 295.163613 
L 91.90293 294.94468 
L 92.105966 295.286985 
L 92.512038 295.332884 
L 92.91811 295.097563 
L 93.121146 295.231849 
L 93.324182 294.863827 
L 93.730254 295.332671 
L 94.136326 295.051108 
L 94.339362 295.204565 
L 94.542398 294.965102 
L 94.94847 294.990905 
L 95.760614 295.381721 
L 95.96365 295.268961 
L 96.166686 294.853688 
L 96.572758 295.173111 
L 96.775794 295.012394 
L 96.97883 295.36685 
L 97.384902 295.406407 
L 97.587938 295.157363 
L 97.790974 295.294696 
L 98.197046 295.188028 
L 98.400082 295.012656 
L 98.603118 295.033881 
L 99.00919 295.284029 
L 99.212226 295.279697 
L 99.415262 295.105075 
L 99.618298 295.376329 
L 99.821334 295.380547 
L 100.02437 295.045352 
L 100.227406 295.224657 
L 100.430442 294.892692 
L 100.633478 295.39076 
L 100.836514 295.063929 
L 101.242586 295.336653 
L 102.05473 295.228968 
L 102.257766 294.867101 
L 102.460802 295.376883 
L 102.663838 295.180368 
L 102.866874 295.150744 
L 103.06991 295.310701 
L 103.475982 295.155793 
L 103.679018 295.221509 
L 103.882054 295.41726 
L 104.08509 295.360116 
L 104.288126 294.901456 
L 104.491162 295.282077 
L 104.694198 295.344434 
L 105.100269 294.948829 
L 105.303305 295.220171 
L 106.115449 294.707101 
L 106.318485 295.414976 
L 106.724557 295.060179 
L 106.927593 295.322708 
L 107.130629 295.214553 
L 107.333665 294.980061 
L 107.536701 295.281557 
L 107.739737 295.372047 
L 108.145809 295.278856 
L 108.348845 295.319569 
L 108.551881 295.178776 
L 108.957953 295.470399 
L 109.160989 295.009865 
L 109.567061 295.44654 
L 109.770097 295.011093 
L 109.973133 295.400989 
L 110.176169 295.351268 
L 110.379205 294.999979 
L 110.582241 295.394469 
L 110.785277 295.226104 
L 111.800457 295.190284 
L 112.003493 295.310526 
L 112.206529 294.906409 
L 112.409565 295.335459 
L 112.815637 295.283651 
L 113.221709 295.338675 
L 113.627781 295.393952 
L 113.830817 295.167583 
L 114.033853 295.333105 
L 114.642961 295.374842 
L 114.845997 294.847907 
L 115.049033 295.335866 
L 115.252069 295.218917 
L 115.455105 294.747823 
L 115.658141 295.17357 
L 116.470285 295.288256 
L 116.673321 295.049748 
L 116.876357 295.287887 
L 117.282429 294.886814 
L 117.485465 295.252938 
L 117.688501 295.387488 
L 118.094573 295.116125 
L 118.500645 294.864352 
L 118.703681 295.28259 
L 118.906717 295.173705 
L 119.109753 295.426186 
L 119.515825 295.382047 
L 119.921897 294.942259 
L 120.124933 295.108688 
L 120.327969 53.568 
L 120.531005 295.262924 
L 120.734041 295.075105 
L 121.343149 295.19363 
L 121.546185 295.089363 
L 121.749221 295.380151 
L 121.952257 295.203198 
L 122.155293 295.345477 
L 122.358329 295.197816 
L 122.561364 295.23912 
L 122.967436 295.464137 
L 123.170472 295.154445 
L 123.373508 295.20182 
L 123.576544 295.488 
L 123.77958 295.278978 
L 124.185652 295.355387 
L 124.388688 295.124313 
L 124.79476 295.393584 
L 125.200832 295.098251 
L 125.403868 295.395563 
L 125.606904 295.394302 
L 125.80994 294.716659 
L 126.012976 295.153751 
L 126.216012 294.975878 
L 126.419048 295.377966 
L 126.622084 295.211043 
L 126.82512 295.418459 
L 127.028156 294.962842 
L 127.231192 295.409477 
L 127.434228 294.813386 
L 127.637264 295.240943 
L 127.8403 295.165765 
L 128.043336 295.253877 
L 128.246372 295.066689 
L 128.449408 295.322251 
L 129.464588 295.383078 
L 129.667624 295.131475 
L 129.87066 295.149339 
L 130.073696 295.036345 
L 130.276732 295.234233 
L 130.479768 294.836822 
L 130.682804 294.939093 
L 131.088876 295.376909 
L 131.291912 295.111745 
L 131.494948 295.375052 
L 131.697984 295.174012 
L 131.90102 294.748365 
L 132.104056 295.421886 
L 132.713164 295.274176 
L 133.119236 295.415469 
L 134.337452 295.197066 
L 134.743524 295.394207 
L 134.94656 295.252205 
L 135.149596 294.87228 
L 135.352632 295.464079 
L 135.555668 295.295957 
L 135.758704 295.394198 
L 135.96174 295.187193 
L 136.164776 295.158351 
L 136.367812 295.380405 
L 136.570848 295.240318 
L 136.97692 295.318741 
L 137.382992 295.17496 
L 137.586028 295.345431 
L 138.195136 294.947012 
L 138.398172 294.944318 
L 139.210316 295.277855 
L 139.413352 295.228154 
L 139.616388 294.981489 
L 140.022459 295.286085 
L 140.428531 295.148508 
L 140.631567 295.281495 
L 140.834603 295.087696 
L 141.037639 295.365031 
L 141.240675 295.224093 
L 142.661927 295.206244 
L 142.864963 294.891704 
L 143.067999 295.354363 
L 143.271035 295.195329 
L 143.677107 295.241698 
L 143.880143 294.982973 
L 144.083179 295.026212 
L 144.286215 295.19433 
L 144.489251 295.066603 
L 145.098359 295.279942 
L 145.301395 295.300342 
L 145.504431 295.079572 
L 145.707467 295.119626 
L 145.910503 295.323364 
L 146.316575 294.894546 
L 146.519611 295.411125 
L 146.722647 295.132896 
L 147.128719 295.291352 
L 148.143899 295.255716 
L 148.346935 295.40481 
L 148.753007 295.063539 
L 149.159079 295.38184 
L 149.768187 295.028878 
L 149.971223 295.175171 
L 150.377295 295.052915 
L 150.580331 294.792899 
L 150.783367 295.108067 
L 150.986403 295.092116 
L 151.189439 295.256489 
L 151.392475 295.232796 
L 151.595511 295.341862 
L 152.001583 295.240469 
L 152.204619 295.025798 
L 152.407655 295.263872 
L 152.610691 295.233257 
L 152.813727 295.390151 
L 153.016763 295.143988 
L 153.219799 295.415717 
L 153.422835 295.439189 
L 153.828907 295.359502 
L 154.031943 295.3389 
L 154.234979 295.194134 
L 154.438015 295.429551 
L 154.641051 295.077797 
L 154.844087 295.169006 
L 155.047123 295.469443 
L 155.656231 295.026848 
L 155.859267 295.385438 
L 156.468375 295.053104 
L 156.671411 295.398674 
L 157.077483 295.175993 
L 157.280519 295.245156 
L 157.483554 295.018698 
L 157.68659 295.177496 
L 157.889626 295.131588 
L 158.295698 295.228839 
L 158.498734 295.274812 
L 158.904806 295.147018 
L 159.107842 295.333469 
L 159.513914 295.127253 
L 159.919986 295.395974 
L 160.123022 295.359434 
L 160.326058 294.915353 
L 160.529094 295.121756 
L 160.73213 295.033341 
L 160.935166 295.304136 
L 161.138202 295.368977 
L 161.341238 295.310563 
L 161.544274 295.125516 
L 161.950346 295.283303 
L 162.559454 295.295497 
L 162.76249 295.296129 
L 162.965526 295.468786 
L 163.168562 295.208637 
L 163.371598 295.422038 
L 163.77767 295.008835 
L 163.980706 295.272185 
L 164.183742 294.751332 
L 164.386778 295.328775 
L 164.589814 295.043451 
L 164.79285 295.331362 
L 164.995886 295.086809 
L 165.198922 295.328009 
L 165.401958 295.083185 
L 165.604994 295.279142 
L 166.011066 295.027006 
L 166.214102 295.239128 
L 166.82321 295.245052 
L 167.026246 295.090708 
L 167.229282 295.131649 
L 167.432318 294.840019 
L 167.635354 295.337475 
L 167.83839 295.168556 
L 168.041426 295.248181 
L 168.447498 295.023962 
L 168.650534 295.344946 
L 168.85357 295.099338 
L 169.056606 295.096271 
L 169.259642 295.245698 
L 169.462678 295.186991 
L 169.665714 295.370516 
L 169.86875 295.078666 
L 170.071786 295.246111 
L 170.274822 295.054185 
L 170.477858 295.406414 
L 170.680894 295.437525 
L 170.88393 295.274608 
L 171.290002 295.232283 
L 171.696074 295.171933 
L 171.89911 295.250455 
L 172.102146 295.448543 
L 172.305182 295.256516 
L 172.508218 294.876194 
L 172.711254 295.364355 
L 172.91429 295.118258 
L 173.117326 295.101121 
L 173.320362 295.244983 
L 173.726434 295.151357 
L 173.92947 295.363752 
L 174.132506 294.872624 
L 174.335542 295.159123 
L 174.944649 295.204096 
L 175.147685 295.416978 
L 175.350721 295.238615 
L 175.553757 295.364555 
L 175.756793 295.023735 
L 175.959829 295.109112 
L 176.162865 294.915983 
L 176.365901 295.106526 
L 176.568937 294.88303 
L 176.771973 295.230193 
L 177.178045 295.312071 
L 177.381081 295.058587 
L 177.584117 295.280767 
L 177.787153 295.088 
L 177.990189 295.324042 
L 178.802333 295.346143 
L 179.005369 295.39256 
L 179.208405 295.145748 
L 179.411441 295.310106 
L 179.817513 294.97683 
L 180.020549 295.097971 
L 180.223585 295.424565 
L 180.426621 295.390658 
L 180.629657 295.089506 
L 181.035729 295.408661 
L 181.238765 295.164721 
L 181.644837 295.257737 
L 182.050909 295.089698 
L 182.253945 295.3559 
L 182.456981 294.954754 
L 182.660017 295.205205 
L 182.863053 294.890166 
L 183.066089 295.013744 
L 183.269125 295.299401 
L 183.472161 295.109562 
L 183.675197 295.264042 
L 184.284305 295.201108 
L 184.487341 295.046824 
L 184.690377 295.115405 
L 184.893413 295.349291 
L 185.096449 295.217477 
L 185.299485 295.441701 
L 185.502521 294.972423 
L 185.705557 294.80516 
L 185.908593 295.455985 
L 186.111629 295.317011 
L 186.314665 294.989723 
L 186.517701 295.206033 
L 186.720737 294.900325 
L 187.126809 295.38349 
L 187.532881 295.206419 
L 187.735917 295.116017 
L 188.141989 295.335094 
L 188.345025 295.191166 
L 188.548061 295.310865 
L 188.751097 295.188467 
L 188.954133 295.30949 
L 189.563241 294.891829 
L 189.766277 295.238165 
L 189.969313 295.188207 
L 190.172349 295.389484 
L 190.578421 295.139718 
L 190.984493 295.335786 
L 191.187529 294.987582 
L 191.390565 294.99598 
L 191.593601 295.362563 
L 191.796637 294.964955 
L 191.999673 295.352684 
L 192.202709 295.01599 
L 192.811816 294.93512 
L 193.217888 295.355099 
L 193.62396 295.193369 
L 193.826996 295.423186 
L 194.030032 294.910236 
L 194.63914 295.356894 
L 195.045212 295.234966 
L 195.65432 295.319302 
L 195.857356 295.295711 
L 196.060392 295.069047 
L 196.263428 295.303114 
L 196.466464 295.056082 
L 196.6695 295.292327 
L 197.075572 295.121216 
L 197.278608 295.397002 
L 197.68468 295.182292 
L 197.887716 295.292635 
L 198.293788 295.161438 
L 198.69986 295.381726 
L 199.918076 295.300358 
L 200.121112 294.897754 
L 200.324148 295.31216 
L 200.73022 295.067125 
L 200.933256 295.30417 
L 201.136292 295.019124 
L 201.339328 295.374806 
L 201.542364 295.173901 
L 201.7454 295.336626 
L 201.948436 295.293772 
L 202.151472 295.134018 
L 202.354508 295.348855 
L 202.557544 295.153361 
L 202.76058 295.404561 
L 203.166652 295.087898 
L 203.369688 294.912573 
L 203.572724 295.381416 
L 203.77576 295.387931 
L 203.978796 295.031931 
L 204.181832 295.175369 
L 204.384868 294.751274 
L 204.587904 295.2504 
L 204.79094 295.146438 
L 205.400048 295.312203 
L 205.603084 294.995821 
L 206.009156 294.913445 
L 206.212192 295.252562 
L 206.618264 295.067968 
L 206.8213 295.13606 
L 207.024336 294.93571 
L 207.430408 295.297661 
L 207.83648 294.991264 
L 208.242552 295.148235 
L 208.445588 295.027112 
L 208.648624 295.285491 
L 208.85166 295.082578 
L 209.257732 295.35733 
L 209.86684 294.94454 
L 210.069875 295.342731 
L 210.475947 295.253784 
L 211.288091 295.2499 
L 211.491127 295.108736 
L 211.694163 295.125187 
L 211.897199 295.37122 
L 212.100235 295.129961 
L 212.303271 295.406831 
L 212.506307 294.964392 
L 213.115415 295.392827 
L 213.724523 295.089712 
L 213.927559 295.144133 
L 214.130595 294.857831 
L 214.536667 295.290645 
L 214.942739 295.182985 
L 215.348811 295.285312 
L 215.551847 295.237333 
L 215.754883 295.071702 
L 215.957919 295.200056 
L 216.160955 294.879446 
L 216.363991 295.228643 
L 216.567027 294.928812 
L 216.770063 295.297499 
L 216.973099 295.368173 
L 217.176135 295.233185 
L 217.379171 295.33606 
L 217.582207 294.979858 
L 217.785243 295.346797 
L 218.191315 295.369607 
L 218.394351 295.190162 
L 218.597387 295.363336 
L 218.800423 295.341588 
L 219.003459 295.141728 
L 219.206495 295.198445 
L 219.409531 294.909886 
L 219.612567 295.441116 
L 219.815603 295.397743 
L 220.018639 295.126646 
L 220.221675 295.298198 
L 220.424711 295.215316 
L 220.627747 295.385834 
L 221.033819 294.907215 
L 221.236855 295.235087 
L 221.439891 295.317479 
L 221.845963 295.051797 
L 222.048999 295.425641 
L 222.252035 295.24593 
L 222.455071 294.851673 
L 222.861143 295.377809 
L 223.470251 295.122133 
L 223.673287 295.327204 
L 224.282395 295.225547 
L 224.485431 295.467291 
L 224.688467 295.018147 
L 224.891503 295.326192 
L 225.094539 295.404496 
L 225.500611 294.839567 
L 225.703647 295.201959 
L 225.906683 295.07398 
L 226.109719 295.424631 
L 226.312755 295.383118 
L 226.515791 295.114273 
L 226.718827 295.452076 
L 226.921863 295.405814 
L 227.124899 294.935845 
L 227.327935 295.428994 
L 227.53097 295.20488 
L 227.734006 295.233507 
L 227.937042 295.397718 
L 228.140078 294.917257 
L 228.343114 295.34925 
L 228.54615 294.995398 
L 228.952222 295.405982 
L 229.155258 295.356583 
L 229.358294 295.164985 
L 229.56133 295.326841 
L 230.373474 295.228575 
L 230.57651 295.443855 
L 230.779546 294.961582 
L 230.982582 295.24245 
L 231.185618 295.012255 
L 231.388654 295.367364 
L 231.59169 295.372605 
L 231.794726 294.981265 
L 231.997762 295.285763 
L 232.200798 295.271622 
L 232.403834 295.452612 
L 232.60687 294.90668 
L 232.809906 295.201219 
L 233.215978 295.342826 
L 233.62205 295.256148 
L 234.028122 295.394511 
L 234.231158 294.955044 
L 234.63723 295.362923 
L 234.840266 295.191012 
L 235.043302 295.418993 
L 235.246338 295.29341 
L 235.449374 294.993045 
L 235.65241 295.170064 
L 235.855446 294.900374 
L 236.058482 295.441817 
L 236.261518 294.900374 
L 236.464554 295.170064 
L 236.66759 294.993045 
L 237.073662 295.418993 
L 237.276698 295.191012 
L 237.479734 295.362923 
L 237.885806 294.955044 
L 238.088842 295.394511 
L 238.69795 295.28291 
L 238.900986 295.342826 
L 239.307058 295.201219 
L 239.510094 294.90668 
L 239.71313 295.452612 
L 239.916166 295.271622 
L 240.119202 295.285763 
L 240.322238 294.981265 
L 240.525274 295.372605 
L 240.72831 295.367364 
L 240.931346 295.012255 
L 241.134382 295.24245 
L 241.337418 294.961582 
L 241.540454 295.443855 
L 241.74349 295.228575 
L 242.149562 295.325258 
L 242.555634 295.326841 
L 242.75867 295.164985 
L 243.164742 295.405982 
L 243.570814 294.995398 
L 243.77385 295.34925 
L 243.976886 294.917257 
L 244.179922 295.397718 
L 244.585994 295.20488 
L 244.78903 295.428994 
L 244.992065 294.935845 
L 245.195101 295.405814 
L 245.398137 295.452076 
L 245.601173 295.114273 
L 245.804209 295.383118 
L 246.007245 295.424631 
L 246.210281 295.07398 
L 246.413317 295.201959 
L 246.616353 294.839567 
L 247.022425 295.404496 
L 247.225461 295.326192 
L 247.428497 295.018147 
L 247.631533 295.467291 
L 247.834569 295.225547 
L 248.240641 295.262546 
L 248.443677 295.327204 
L 248.646713 295.122133 
L 249.255821 295.377809 
L 249.661893 294.851673 
L 250.067965 295.425641 
L 250.271001 295.051797 
L 250.880109 295.235087 
L 251.083145 294.907215 
L 251.286181 295.042617 
L 251.489217 295.385834 
L 251.692253 295.215316 
L 251.895289 295.298198 
L 252.098325 295.126646 
L 252.301361 295.397743 
L 252.504397 295.441116 
L 252.707433 294.909886 
L 252.910469 295.198445 
L 253.113505 295.141728 
L 253.316541 295.341588 
L 253.519577 295.363336 
L 253.722613 295.190162 
L 254.128685 295.400844 
L 254.331721 295.346797 
L 254.534757 294.979858 
L 254.737793 295.33606 
L 254.940829 295.233185 
L 255.143865 295.368173 
L 255.346901 295.297499 
L 255.549937 294.928812 
L 255.752973 295.228643 
L 255.956009 294.879446 
L 256.159045 295.200056 
L 256.362081 295.071702 
L 256.768153 295.285312 
L 256.971189 295.295058 
L 257.174225 295.182985 
L 257.580297 295.290645 
L 257.986369 294.857831 
L 258.189405 295.144133 
L 258.392441 295.089712 
L 258.595477 295.300122 
L 258.798513 295.288499 
L 259.001549 295.392827 
L 259.204585 295.355806 
L 259.610657 294.964392 
L 259.813693 295.406831 
L 260.016729 295.129961 
L 260.219765 295.37122 
L 260.422801 295.125187 
L 260.625837 295.108736 
L 260.828873 295.2499 
L 261.031909 295.150974 
L 261.234945 295.305695 
L 261.641017 295.253784 
L 262.047089 295.342731 
L 262.250125 294.94454 
L 262.45316 295.188485 
L 262.656196 295.206783 
L 262.859232 295.35733 
L 263.265304 295.082578 
L 263.46834 295.285491 
L 263.671376 295.027112 
L 263.874412 295.148235 
L 264.280484 294.991264 
L 264.686556 295.297661 
L 265.092628 294.93571 
L 265.295664 295.13606 
L 265.4987 295.067968 
L 265.904772 295.252562 
L 266.107808 294.913445 
L 266.51388 294.995821 
L 266.716916 295.312203 
L 266.919952 295.096016 
L 267.52906 295.2504 
L 267.732096 294.751274 
L 267.935132 295.175369 
L 268.138168 295.031931 
L 268.341204 295.387931 
L 268.54424 295.381416 
L 268.747276 294.912573 
L 269.356384 295.404561 
L 269.55942 295.153361 
L 269.762456 295.348855 
L 269.965492 295.134018 
L 270.371564 295.336626 
L 270.5746 295.173901 
L 270.777636 295.374806 
L 270.980672 295.019124 
L 271.183708 295.30417 
L 271.386744 295.067125 
L 271.792816 295.31216 
L 271.995852 294.897754 
L 272.198888 295.300358 
L 272.401924 295.227589 
L 273.417104 295.381726 
L 273.62014 295.33647 
L 273.823176 295.161438 
L 274.229248 295.292635 
L 274.432284 295.182292 
L 274.838356 295.397002 
L 275.041392 295.121216 
L 275.447464 295.292327 
L 275.6505 295.056082 
L 275.853536 295.303114 
L 276.056572 295.069047 
L 276.259608 295.295711 
L 276.868716 295.294868 
L 277.274788 295.234434 
L 277.477824 295.356894 
L 278.086932 294.910236 
L 278.289968 295.423186 
L 278.493004 295.193369 
L 278.899076 295.355099 
L 279.305148 294.93512 
L 279.914256 295.01599 
L 280.117291 295.352684 
L 280.320327 294.964955 
L 280.523363 295.362563 
L 280.726399 294.99598 
L 280.929435 294.987582 
L 281.132471 295.335786 
L 281.538543 295.139718 
L 281.944615 295.389484 
L 282.147651 295.188207 
L 282.350687 295.238165 
L 282.553723 294.891829 
L 282.756759 294.925054 
L 283.162831 295.30949 
L 283.365867 295.188467 
L 283.568903 295.310865 
L 283.771939 295.191166 
L 283.974975 295.335094 
L 284.584083 295.206419 
L 284.990155 295.38349 
L 285.396227 294.900325 
L 285.599263 295.206033 
L 285.802299 294.989723 
L 286.208371 295.455985 
L 286.411407 294.80516 
L 286.614443 294.972423 
L 286.817479 295.441701 
L 287.020515 295.217477 
L 287.223551 295.349291 
L 287.629623 295.046824 
L 288.035695 295.293609 
L 288.644803 295.109562 
L 288.847839 295.299401 
L 289.253911 294.890166 
L 289.456947 295.205205 
L 289.659983 294.954754 
L 289.863019 295.3559 
L 290.066055 295.089698 
L 290.675163 295.207565 
L 290.878199 295.164721 
L 291.081235 295.408661 
L 291.487307 295.089506 
L 291.690343 295.390658 
L 291.893379 295.424565 
L 292.299451 294.97683 
L 292.705523 295.310106 
L 292.908559 295.145748 
L 293.111595 295.39256 
L 293.923739 295.309748 
L 294.126775 295.324042 
L 294.329811 295.088 
L 294.532847 295.280767 
L 294.735883 295.058587 
L 294.938919 295.312071 
L 295.344991 295.230193 
L 295.548027 294.88303 
L 295.751063 295.106526 
L 295.954099 294.915983 
L 296.157135 295.109112 
L 296.360171 295.023735 
L 296.563207 295.364555 
L 296.766243 295.238615 
L 296.969279 295.416978 
L 297.172315 295.204096 
L 297.375351 295.303792 
L 297.984458 294.872624 
L 298.187494 295.363752 
L 298.39053 295.151357 
L 299.202674 295.118258 
L 299.40571 295.364355 
L 299.608746 294.876194 
L 300.014818 295.448543 
L 300.42089 295.171933 
L 301.233034 295.274608 
L 301.43607 295.437525 
L 301.639106 295.406414 
L 301.842142 295.054185 
L 302.045178 295.246111 
L 302.248214 295.078666 
L 302.45125 295.370516 
L 302.654286 295.186991 
L 302.857322 295.245698 
L 303.060358 295.096271 
L 303.263394 295.099338 
L 303.46643 295.344946 
L 303.669466 295.023962 
L 304.48161 295.337475 
L 304.684646 294.840019 
L 304.887682 295.131649 
L 305.090718 295.090708 
L 305.293754 295.245052 
L 306.308934 295.097477 
L 306.51197 295.279142 
L 306.715006 295.083185 
L 306.918042 295.328009 
L 307.121078 295.086809 
L 307.324114 295.331362 
L 307.52715 295.043451 
L 307.730186 295.328775 
L 307.933222 294.751332 
L 308.136258 295.272185 
L 308.339294 295.008835 
L 308.745366 295.422038 
L 308.948402 295.208637 
L 309.151438 295.468786 
L 309.354474 295.296129 
L 309.55751 295.295497 
L 309.760546 295.166326 
L 310.166618 295.283303 
L 310.57269 295.125516 
L 310.978762 295.368977 
L 311.181798 295.304136 
L 311.384834 295.033341 
L 311.58787 295.121756 
L 311.790906 294.915353 
L 311.993942 295.359434 
L 312.196978 295.395974 
L 312.60305 295.127253 
L 313.009122 295.333469 
L 313.212158 295.147018 
L 313.415194 295.14568 
L 313.61823 295.274812 
L 314.63341 295.018698 
L 314.836446 295.245156 
L 315.039481 295.175993 
L 315.445553 295.398674 
L 315.648589 295.053104 
L 316.054661 295.247202 
L 316.257697 295.385438 
L 316.460733 295.026848 
L 316.866805 295.328249 
L 317.069841 295.469443 
L 317.272877 295.169006 
L 317.475913 295.077797 
L 317.678949 295.429551 
L 317.881985 295.194134 
L 318.288057 295.359502 
L 318.491093 295.340311 
L 318.897165 295.415717 
L 319.100201 295.143988 
L 319.303237 295.390151 
L 319.506273 295.233257 
L 319.709309 295.263872 
L 319.912345 295.025798 
L 320.318417 295.313399 
L 320.521453 295.341862 
L 320.724489 295.232796 
L 320.927525 295.256489 
L 321.130561 295.092116 
L 321.333597 295.108067 
L 321.536633 294.792899 
L 321.942705 295.159471 
L 322.145741 295.175171 
L 322.348777 295.028878 
L 322.957885 295.38184 
L 323.363957 295.063539 
L 323.770029 295.40481 
L 323.973065 295.255716 
L 324.176101 295.24617 
L 324.379137 295.355532 
L 325.394317 295.132896 
L 325.597353 295.411125 
L 325.800389 294.894546 
L 326.206461 295.323364 
L 326.409497 295.119626 
L 326.612533 295.079572 
L 326.815569 295.300342 
L 327.018605 295.279942 
L 327.221641 295.394896 
L 327.627713 295.066603 
L 327.830749 295.19433 
L 328.236821 294.982973 
L 328.439857 295.241698 
L 328.845929 295.195329 
L 329.048965 295.354363 
L 329.252001 294.891704 
L 329.455037 295.206244 
L 329.658073 295.265354 
L 330.064145 295.169423 
L 330.673253 295.219529 
L 330.876289 295.224093 
L 331.079325 295.365031 
L 331.282361 295.087696 
L 331.485397 295.281495 
L 331.688433 295.148508 
L 332.094505 295.286085 
L 332.297541 295.216735 
L 332.500576 294.981489 
L 332.703612 295.228154 
L 332.906648 295.277855 
L 333.921828 294.947012 
L 334.124864 294.985443 
L 334.530936 295.345431 
L 334.733972 295.17496 
L 335.34308 295.303392 
L 335.546116 295.240318 
L 335.749152 295.380405 
L 335.952188 295.158351 
L 336.155224 295.187193 
L 336.35826 295.394198 
L 336.561296 295.295957 
L 336.764332 295.464079 
L 336.967368 294.87228 
L 337.170404 295.252205 
L 337.37344 295.394207 
L 337.779512 295.197066 
L 337.982548 295.211889 
L 338.38862 295.414869 
L 338.794692 295.378124 
L 339.200764 295.392822 
L 339.606836 295.253756 
L 340.012908 295.421886 
L 340.215944 294.748365 
L 340.622016 295.375052 
L 340.825052 295.111745 
L 341.028088 295.376909 
L 341.637196 294.836822 
L 341.840232 295.234233 
L 342.043268 295.036345 
L 342.246304 295.149339 
L 342.44934 295.131475 
L 342.652376 295.383078 
L 343.667556 295.322251 
L 343.870592 295.066689 
L 344.073628 295.253877 
L 344.276664 295.165765 
L 344.4797 295.240943 
L 344.682736 294.813386 
L 344.885772 295.409477 
L 345.088808 294.962842 
L 345.291844 295.418459 
L 345.49488 295.211043 
L 345.697916 295.377966 
L 345.900952 294.975878 
L 346.103988 295.153751 
L 346.307024 294.716659 
L 346.51006 295.394302 
L 346.713096 295.395563 
L 346.916132 295.098251 
L 347.119168 295.175878 
L 347.322204 295.393584 
L 347.728276 295.124313 
L 347.931312 295.355387 
L 348.337384 295.278978 
L 348.54042 295.488 
L 348.743456 295.20182 
L 348.946492 295.154445 
L 349.149528 295.464137 
L 349.352564 295.413001 
L 349.758636 295.197816 
L 349.961671 295.345477 
L 350.164707 295.203198 
L 350.367743 295.380151 
L 350.570779 295.089363 
L 350.773815 295.19363 
L 350.976851 295.108583 
L 351.585959 295.262924 
L 351.788995 53.568 
L 351.992031 295.108688 
L 352.195067 294.942259 
L 352.601139 295.382047 
L 353.007211 295.426186 
L 353.210247 295.173705 
L 353.413283 295.28259 
L 353.616319 294.864352 
L 354.022391 295.116125 
L 354.428463 295.387488 
L 354.631499 295.252938 
L 354.834535 294.886814 
L 355.240607 295.287887 
L 355.443643 295.049748 
L 355.849715 295.377267 
L 356.458823 295.17357 
L 356.661859 294.747823 
L 356.864895 295.218917 
L 357.067931 295.335866 
L 357.270967 294.847907 
L 357.474003 295.374842 
L 358.083111 295.333105 
L 358.286147 295.167583 
L 358.489183 295.393952 
L 359.707399 295.335459 
L 359.910435 294.906409 
L 360.113471 295.310526 
L 360.519543 295.023776 
L 360.722579 295.149186 
L 360.925615 295.100614 
L 361.534723 295.394469 
L 361.737759 294.999979 
L 361.940795 295.351268 
L 362.143831 295.400989 
L 362.346867 295.011093 
L 362.549903 295.44654 
L 362.752939 295.324954 
L 362.955975 295.009865 
L 363.159011 295.470399 
L 363.362047 295.390516 
L 363.565083 295.178776 
L 363.768119 295.319569 
L 364.174191 295.271628 
L 364.377227 295.372047 
L 364.580263 295.281557 
L 364.783299 294.980061 
L 365.189371 295.322708 
L 365.392407 295.060179 
L 365.595443 295.168498 
L 365.798479 295.414976 
L 366.001515 294.707101 
L 366.407587 295.062062 
L 366.813659 295.220171 
L 367.016695 294.948829 
L 367.422767 295.344434 
L 367.625802 295.282077 
L 367.828838 294.901456 
L 368.031874 295.360116 
L 368.23491 295.41726 
L 368.640982 295.155793 
L 369.453126 295.180368 
L 369.656162 295.376883 
L 369.859198 294.867101 
L 370.062234 295.228968 
L 370.26527 295.157687 
L 370.468306 295.332501 
L 371.28045 295.063929 
L 371.483486 295.39076 
L 371.686522 294.892692 
L 371.889558 295.224657 
L 372.092594 295.045352 
L 372.29563 295.380547 
L 372.498666 295.376329 
L 372.701702 295.105075 
L 372.904738 295.279697 
L 373.31081 295.188064 
L 373.716882 295.012656 
L 374.122954 295.265406 
L 374.32599 295.294696 
L 374.529026 295.157363 
L 374.732062 295.406407 
L 375.138134 295.36685 
L 375.34117 295.012394 
L 375.544206 295.173111 
L 375.950278 294.853688 
L 376.153314 295.268961 
L 376.35635 295.381721 
L 376.965458 295.113854 
L 377.37153 294.96221 
L 377.574566 294.965102 
L 377.777602 295.204565 
L 377.980638 295.051108 
L 378.183674 295.112975 
L 378.38671 295.332671 
L 378.792782 294.863827 
L 378.995818 295.231849 
L 379.198854 295.097563 
L 379.604926 295.332884 
L 380.010998 295.286985 
L 380.214034 294.94468 
L 380.41707 295.163613 
L 381.026178 295.301542 
L 381.635286 294.898284 
L 382.041358 295.237431 
L 382.244394 295.306159 
L 382.44743 294.892225 
L 382.650466 295.30919 
L 383.056538 295.199554 
L 383.259574 295.051698 
L 383.46261 295.431293 
L 383.665646 295.258671 
L 383.868682 295.456437 
L 384.071718 295.136421 
L 384.274754 295.169171 
L 384.680826 295.447841 
L 385.086897 295.10898 
L 385.289933 295.327511 
L 385.492969 295.370669 
L 385.696005 294.962805 
L 386.102077 295.278507 
L 386.305113 295.028342 
L 386.508149 295.460966 
L 386.914221 295.09125 
L 387.117257 295.175193 
L 387.320293 294.754704 
L 387.523329 295.380522 
L 387.726365 294.914623 
L 388.132437 295.348161 
L 388.335473 295.06509 
L 388.538509 295.421606 
L 388.741545 295.236725 
L 388.944581 295.329273 
L 389.350653 295.177656 
L 389.553689 295.35643 
L 389.756725 295.126115 
L 389.959761 295.360193 
L 390.162797 295.091735 
L 390.365833 295.184307 
L 390.771905 295.051139 
L 391.787085 295.401457 
L 391.990121 295.155976 
L 392.193157 295.411878 
L 392.396193 295.100084 
L 392.802265 295.387347 
L 393.411373 295.053532 
L 393.614409 295.361515 
L 394.832625 295.163603 
L 395.035661 295.396774 
L 395.847805 295.22653 
L 396.050841 295.021265 
L 396.456913 295.391609 
L 396.659949 295.338204 
L 397.066021 295.372779 
L 397.269057 295.137254 
L 397.878165 295.340414 
L 398.081201 294.784458 
L 398.284237 295.394302 
L 398.487273 294.866569 
L 398.487273 294.866569 
" style="fill:none;stroke:#ff0000;stroke-linecap:square;stroke-width:1.5;"/>
   </g>
   <g id="patch_3">
    <path d="M 57.6 307.584 
L 57.6 41.472 
" style="fill:none;stroke:#000000;stroke-linecap:square;stroke-linejoin:miter;stroke-width:0.8;"/>
   </g>
   <g id="patch_4">
    <path d="M 414.72 307.584 
L 414.72 41.472 
" style="fill:none;stroke:#000000;stroke-linecap:square;stroke-linejoin:miter;stroke-width:0.8;"/>
   </g>
   <g id="patch_5">
    <path d="M 57.6 307.584 
L 414.72 307.584 
" style="fill:none;stroke:#000000;stroke-linecap:square;stroke-linejoin:miter;stroke-width:0.8;"/>
   </g>
   <g id="patch_6">
    <path d="M 57.6 41.472 
L 414.72 41.472 
" style="fill:none;stroke:#000000;stroke-linecap:square;stroke-linejoin:miter;stroke-width:0.8;"/>
   </g>
   <g id="text_18">
    <!-- received signal fft -->
    <g transform="translate(182.393438 35.472)scale(0.12 -0.12)">
     <defs>
      <path d="M 191 3500 
L 800 3500 
L 1894 563 
L 2988 3500 
L 3597 3500 
L 2284 0 
L 1503 0 
L 191 3500 
z
" id="DejaVuSans-76" transform="scale(0.015625)"/>
      <path id="DejaVuSans-20" transform="scale(0.015625)"/>
      <path d="M 2834 3397 
L 2834 2853 
Q 2591 2978 2328 3040 
Q 2066 3103 1784 3103 
Q 1356 3103 1142 2972 
Q 928 2841 928 2578 
Q 928 2378 1081 2264 
Q 1234 2150 1697 2047 
L 1894 2003 
Q 2506 1872 2764 1633 
Q 3022 1394 3022 966 
Q 3022 478 2636 193 
Q 2250 -91 1575 -91 
Q 1294 -91 989 -36 
Q 684 19 347 128 
L 347 722 
Q 666 556 975 473 
Q 1284 391 1588 391 
Q 1994 391 2212 530 
Q 2431 669 2431 922 
Q 2431 1156 2273 1281 
Q 2116 1406 1581 1522 
L 1381 1569 
Q 847 1681 609 1914 
Q 372 2147 372 2553 
Q 372 3047 722 3315 
Q 1072 3584 1716 3584 
Q 2034 3584 2315 3537 
Q 2597 3491 2834 3397 
z
" id="DejaVuSans-73" transform="scale(0.015625)"/>
      <path d="M 603 4863 
L 1178 4863 
L 1178 0 
L 603 0 
L 603 4863 
z
" id="DejaVuSans-6c" transform="scale(0.015625)"/>
     </defs>
     <use xlink:href="#DejaVuSans-72"/>
     <use x="38.863281" xlink:href="#DejaVuSans-65"/>
     <use x="100.386719" xlink:href="#DejaVuSans-63"/>
     <use x="155.367188" xlink:href="#DejaVuSans-65"/>
     <use x="216.890625" xlink:href="#DejaVuSans-69"/>
     <use x="244.673828" xlink:href="#DejaVuSans-76"/>
     <use x="303.853516" xlink:href="#DejaVuSans-65"/>
     <use x="365.376953" xlink:href="#DejaVuSans-64"/>
     <use x="428.853516" xlink:href="#DejaVuSans-20"/>
     <use x="460.640625" xlink:href="#DejaVuSans-73"/>
     <use x="512.740234" xlink:href="#DejaVuSans-69"/>
     <use x="540.523438" xlink:href="#DejaVuSans-67"/>
     <use x="604" xlink:href="#DejaVuSans-6e"/>
     <use x="667.378906" xlink:href="#DejaVuSans-61"/>
     <use x="728.658203" xlink:href="#DejaVuSans-6c"/>
     <use x="756.441406" xlink:href="#DejaVuSans-20"/>
     <use x="788.228516" xlink:href="#DejaVuSans-66"/>
     <use x="823.433594" xlink:href="#DejaVuSans-66"/>
     <use x="856.888672" xlink:href="#DejaVuSans-74"/>
    </g>
   </g>
  </g>
 </g>
 <defs>
  <clipPath id="pd4c1bca15a">
   <rect height="266.112" width="357.12" x="57.6" y="41.472"/>
  </clipPath>
 </defs>
</svg>
