<?xml version="1.0" encoding="utf-8" standalone="no"?>
<!DOCTYPE svg PUBLIC "-//W3C//DTD SVG 1.1//EN"
  "http://www.w3.org/Graphics/SVG/1.1/DTD/svg11.dtd">
<svg height="307.788562pt" version="1.1" viewBox="0 0 393.32 307.788562" width="393.32pt" xmlns="http://www.w3.org/2000/svg" xmlns:xlink="http://www.w3.org/1999/xlink">
 <metadata>
  <rdf:RDF xmlns:cc="http://creativecommons.org/ns#" xmlns:dc="http://purl.org/dc/elements/1.1/" xmlns:rdf="http://www.w3.org/1999/02/22-rdf-syntax-ns#">
   <cc:Work>
    <dc:type rdf:resource="http://purl.org/dc/dcmitype/StillImage"/>
    <dc:date>2021-11-07T19:07:31.881323</dc:date>
    <dc:format>image/svg+xml</dc:format>
    <dc:creator>
     <cc:Agent>
      <dc:title>Matplotlib v3.4.3, https://matplotlib.org/</dc:title>
     </cc:Agent>
    </dc:creator>
   </cc:Work>
  </rdf:RDF>
 </metadata>
 <defs>
  <style type="text/css">*{stroke-linecap:butt;stroke-linejoin:round;}</style>
 </defs>
 <g id="figure_1">
  <g id="patch_1">
   <path d="M 0 307.788562 
L 393.32 307.788562 
L 393.32 0 
L 0 0 
z
" style="fill:#ffffff;"/>
  </g>
  <g id="axes_1">
   <g id="patch_2">
    <path d="M 29 283.910437 
L 386.12 283.910437 
L 386.12 17.798437 
L 29 17.798437 
z
" style="fill:#ffffff;"/>
   </g>
   <g id="matplotlib.axis_1">
    <g id="xtick_1">
     <g id="line2d_1">
      <defs>
       <path d="M 0 0 
L 0 3.5 
" id="m050add30f6" style="stroke:#000000;stroke-width:0.8;"/>
      </defs>
      <g>
       <use style="stroke:#000000;stroke-width:0.8;" x="45.232727" xlink:href="#m050add30f6" y="283.910437"/>
      </g>
     </g>
     <g id="text_1">
      <!-- 0 -->
      <g transform="translate(42.051477 298.508875)scale(0.1 -0.1)">
       <defs>
        <path d="M 2034 4250 
Q 1547 4250 1301 3770 
Q 1056 3291 1056 2328 
Q 1056 1369 1301 889 
Q 1547 409 2034 409 
Q 2525 409 2770 889 
Q 3016 1369 3016 2328 
Q 3016 3291 2770 3770 
Q 2525 4250 2034 4250 
z
M 2034 4750 
Q 2819 4750 3233 4129 
Q 3647 3509 3647 2328 
Q 3647 1150 3233 529 
Q 2819 -91 2034 -91 
Q 1250 -91 836 529 
Q 422 1150 422 2328 
Q 422 3509 836 4129 
Q 1250 4750 2034 4750 
z
" id="DejaVuSans-30" transform="scale(0.015625)"/>
       </defs>
       <use xlink:href="#DejaVuSans-30"/>
      </g>
     </g>
    </g>
    <g id="xtick_2">
     <g id="line2d_2">
      <g>
       <use style="stroke:#000000;stroke-width:0.8;" x="99.522785" xlink:href="#m050add30f6" y="283.910437"/>
      </g>
     </g>
     <g id="text_2">
      <!-- 50 -->
      <g transform="translate(93.160285 298.508875)scale(0.1 -0.1)">
       <defs>
        <path d="M 691 4666 
L 3169 4666 
L 3169 4134 
L 1269 4134 
L 1269 2991 
Q 1406 3038 1543 3061 
Q 1681 3084 1819 3084 
Q 2600 3084 3056 2656 
Q 3513 2228 3513 1497 
Q 3513 744 3044 326 
Q 2575 -91 1722 -91 
Q 1428 -91 1123 -41 
Q 819 9 494 109 
L 494 744 
Q 775 591 1075 516 
Q 1375 441 1709 441 
Q 2250 441 2565 725 
Q 2881 1009 2881 1497 
Q 2881 1984 2565 2268 
Q 2250 2553 1709 2553 
Q 1456 2553 1204 2497 
Q 953 2441 691 2322 
L 691 4666 
z
" id="DejaVuSans-35" transform="scale(0.015625)"/>
       </defs>
       <use xlink:href="#DejaVuSans-35"/>
       <use x="63.623047" xlink:href="#DejaVuSans-30"/>
      </g>
     </g>
    </g>
    <g id="xtick_3">
     <g id="line2d_3">
      <g>
       <use style="stroke:#000000;stroke-width:0.8;" x="153.812843" xlink:href="#m050add30f6" y="283.910437"/>
      </g>
     </g>
     <g id="text_3">
      <!-- 100 -->
      <g transform="translate(144.269093 298.508875)scale(0.1 -0.1)">
       <defs>
        <path d="M 794 531 
L 1825 531 
L 1825 4091 
L 703 3866 
L 703 4441 
L 1819 4666 
L 2450 4666 
L 2450 531 
L 3481 531 
L 3481 0 
L 794 0 
L 794 531 
z
" id="DejaVuSans-31" transform="scale(0.015625)"/>
       </defs>
       <use xlink:href="#DejaVuSans-31"/>
       <use x="63.623047" xlink:href="#DejaVuSans-30"/>
       <use x="127.246094" xlink:href="#DejaVuSans-30"/>
      </g>
     </g>
    </g>
    <g id="xtick_4">
     <g id="line2d_4">
      <g>
       <use style="stroke:#000000;stroke-width:0.8;" x="208.102901" xlink:href="#m050add30f6" y="283.910437"/>
      </g>
     </g>
     <g id="text_4">
      <!-- 150 -->
      <g transform="translate(198.559151 298.508875)scale(0.1 -0.1)">
       <use xlink:href="#DejaVuSans-31"/>
       <use x="63.623047" xlink:href="#DejaVuSans-35"/>
       <use x="127.246094" xlink:href="#DejaVuSans-30"/>
      </g>
     </g>
    </g>
    <g id="xtick_5">
     <g id="line2d_5">
      <g>
       <use style="stroke:#000000;stroke-width:0.8;" x="262.392958" xlink:href="#m050add30f6" y="283.910437"/>
      </g>
     </g>
     <g id="text_5">
      <!-- 200 -->
      <g transform="translate(252.849208 298.508875)scale(0.1 -0.1)">
       <defs>
        <path d="M 1228 531 
L 3431 531 
L 3431 0 
L 469 0 
L 469 531 
Q 828 903 1448 1529 
Q 2069 2156 2228 2338 
Q 2531 2678 2651 2914 
Q 2772 3150 2772 3378 
Q 2772 3750 2511 3984 
Q 2250 4219 1831 4219 
Q 1534 4219 1204 4116 
Q 875 4013 500 3803 
L 500 4441 
Q 881 4594 1212 4672 
Q 1544 4750 1819 4750 
Q 2544 4750 2975 4387 
Q 3406 4025 3406 3419 
Q 3406 3131 3298 2873 
Q 3191 2616 2906 2266 
Q 2828 2175 2409 1742 
Q 1991 1309 1228 531 
z
" id="DejaVuSans-32" transform="scale(0.015625)"/>
       </defs>
       <use xlink:href="#DejaVuSans-32"/>
       <use x="63.623047" xlink:href="#DejaVuSans-30"/>
       <use x="127.246094" xlink:href="#DejaVuSans-30"/>
      </g>
     </g>
    </g>
    <g id="xtick_6">
     <g id="line2d_6">
      <g>
       <use style="stroke:#000000;stroke-width:0.8;" x="316.683016" xlink:href="#m050add30f6" y="283.910437"/>
      </g>
     </g>
     <g id="text_6">
      <!-- 250 -->
      <g transform="translate(307.139266 298.508875)scale(0.1 -0.1)">
       <use xlink:href="#DejaVuSans-32"/>
       <use x="63.623047" xlink:href="#DejaVuSans-35"/>
       <use x="127.246094" xlink:href="#DejaVuSans-30"/>
      </g>
     </g>
    </g>
    <g id="xtick_7">
     <g id="line2d_7">
      <g>
       <use style="stroke:#000000;stroke-width:0.8;" x="370.973074" xlink:href="#m050add30f6" y="283.910437"/>
      </g>
     </g>
     <g id="text_7">
      <!-- 300 -->
      <g transform="translate(361.429324 298.508875)scale(0.1 -0.1)">
       <defs>
        <path d="M 2597 2516 
Q 3050 2419 3304 2112 
Q 3559 1806 3559 1356 
Q 3559 666 3084 287 
Q 2609 -91 1734 -91 
Q 1441 -91 1130 -33 
Q 819 25 488 141 
L 488 750 
Q 750 597 1062 519 
Q 1375 441 1716 441 
Q 2309 441 2620 675 
Q 2931 909 2931 1356 
Q 2931 1769 2642 2001 
Q 2353 2234 1838 2234 
L 1294 2234 
L 1294 2753 
L 1863 2753 
Q 2328 2753 2575 2939 
Q 2822 3125 2822 3475 
Q 2822 3834 2567 4026 
Q 2313 4219 1838 4219 
Q 1578 4219 1281 4162 
Q 984 4106 628 3988 
L 628 4550 
Q 988 4650 1302 4700 
Q 1616 4750 1894 4750 
Q 2613 4750 3031 4423 
Q 3450 4097 3450 3541 
Q 3450 3153 3228 2886 
Q 3006 2619 2597 2516 
z
" id="DejaVuSans-33" transform="scale(0.015625)"/>
       </defs>
       <use xlink:href="#DejaVuSans-33"/>
       <use x="63.623047" xlink:href="#DejaVuSans-30"/>
       <use x="127.246094" xlink:href="#DejaVuSans-30"/>
      </g>
     </g>
    </g>
   </g>
   <g id="matplotlib.axis_2">
    <g id="ytick_1">
     <g id="line2d_8">
      <defs>
       <path d="M 0 0 
L -3.5 0 
" id="mbc88a473b2" style="stroke:#000000;stroke-width:0.8;"/>
      </defs>
      <g>
       <use style="stroke:#000000;stroke-width:0.8;" x="29" xlink:href="#mbc88a473b2" y="247.630525"/>
      </g>
     </g>
     <g id="text_8">
      <!-- $\mathdefault{−4}$ -->
      <g transform="translate(7.2 251.429743)scale(0.1 -0.1)">
       <defs>
        <path d="M 678 2272 
L 4684 2272 
L 4684 1741 
L 678 1741 
L 678 2272 
z
" id="DejaVuSans-2212" transform="scale(0.015625)"/>
        <path d="M 2419 4116 
L 825 1625 
L 2419 1625 
L 2419 4116 
z
M 2253 4666 
L 3047 4666 
L 3047 1625 
L 3713 1625 
L 3713 1100 
L 3047 1100 
L 3047 0 
L 2419 0 
L 2419 1100 
L 313 1100 
L 313 1709 
L 2253 4666 
z
" id="DejaVuSans-34" transform="scale(0.015625)"/>
       </defs>
       <use transform="translate(0 0.09375)" xlink:href="#DejaVuSans-2212"/>
       <use transform="translate(83.789062 0.09375)" xlink:href="#DejaVuSans-34"/>
      </g>
     </g>
    </g>
    <g id="ytick_2">
     <g id="line2d_9">
      <g>
       <use style="stroke:#000000;stroke-width:0.8;" x="29" xlink:href="#mbc88a473b2" y="199.244536"/>
      </g>
     </g>
     <g id="text_9">
      <!-- $\mathdefault{−2}$ -->
      <g transform="translate(7.2 203.043755)scale(0.1 -0.1)">
       <use transform="translate(0 0.78125)" xlink:href="#DejaVuSans-2212"/>
       <use transform="translate(83.789062 0.78125)" xlink:href="#DejaVuSans-32"/>
      </g>
     </g>
    </g>
    <g id="ytick_3">
     <g id="line2d_10">
      <g>
       <use style="stroke:#000000;stroke-width:0.8;" x="29" xlink:href="#mbc88a473b2" y="150.858548"/>
      </g>
     </g>
     <g id="text_10">
      <!-- $\mathdefault{0}$ -->
      <g transform="translate(15.6 154.657767)scale(0.1 -0.1)">
       <use transform="translate(0 0.78125)" xlink:href="#DejaVuSans-30"/>
      </g>
     </g>
    </g>
    <g id="ytick_4">
     <g id="line2d_11">
      <g>
       <use style="stroke:#000000;stroke-width:0.8;" x="29" xlink:href="#mbc88a473b2" y="102.47256"/>
      </g>
     </g>
     <g id="text_11">
      <!-- $\mathdefault{2}$ -->
      <g transform="translate(15.6 106.271779)scale(0.1 -0.1)">
       <use transform="translate(0 0.78125)" xlink:href="#DejaVuSans-32"/>
      </g>
     </g>
    </g>
    <g id="ytick_5">
     <g id="line2d_12">
      <g>
       <use style="stroke:#000000;stroke-width:0.8;" x="29" xlink:href="#mbc88a473b2" y="54.086572"/>
      </g>
     </g>
     <g id="text_12">
      <!-- $\mathdefault{4}$ -->
      <g transform="translate(15.6 57.885791)scale(0.1 -0.1)">
       <use transform="translate(0 0.09375)" xlink:href="#DejaVuSans-34"/>
      </g>
     </g>
    </g>
    <g id="text_13">
     <!-- $\times\mathdefault{10^{−1}}\mathdefault{}$ -->
     <g transform="translate(29 14.798437)scale(0.1 -0.1)">
      <defs>
       <path d="M 4488 3438 
L 3059 2003 
L 4488 575 
L 4116 197 
L 2681 1631 
L 1247 197 
L 878 575 
L 2303 2003 
L 878 3438 
L 1247 3816 
L 2681 2381 
L 4116 3816 
L 4488 3438 
z
" id="DejaVuSans-d7" transform="scale(0.015625)"/>
      </defs>
      <use transform="translate(0 0.684375)" xlink:href="#DejaVuSans-d7"/>
      <use transform="translate(83.789062 0.684375)" xlink:href="#DejaVuSans-31"/>
      <use transform="translate(147.412109 0.684375)" xlink:href="#DejaVuSans-30"/>
      <use transform="translate(211.992188 38.965625)scale(0.7)" xlink:href="#DejaVuSans-2212"/>
      <use transform="translate(270.644531 38.965625)scale(0.7)" xlink:href="#DejaVuSans-31"/>
     </g>
    </g>
   </g>
   <g id="line2d_13">
    <path clip-path="url(#p35ed8b2436)" d="M 45.232727 32.676213 
L 46.318528 49.219806 
L 47.40433 78.663931 
L 48.490131 117.271381 
L 50.661733 201.834116 
L 51.747534 237.056246 
L 52.833335 261.337705 
L 53.919137 271.596558 
L 55.004938 266.5307 
L 56.090739 246.783114 
L 57.17654 214.86027 
L 61.519745 57.998859 
L 62.605546 36.715393 
L 63.691347 29.919585 
L 64.777148 38.473996 
L 65.862949 61.292854 
L 66.94875 95.479868 
L 70.206154 219.061091 
L 71.291955 249.756132 
L 72.377756 267.898564 
L 73.463557 271.185652 
L 74.549358 259.200182 
L 75.63516 233.463413 
L 76.720961 197.241994 
L 79.978364 74.701817 
L 81.064165 46.587745 
L 82.149967 31.708281 
L 83.235768 31.952004 
L 84.321569 47.287981 
L 85.40737 75.769687 
L 86.493171 113.782072 
L 88.664773 198.502637 
L 89.750575 234.45763 
L 90.836376 259.801782 
L 91.922177 271.318276 
L 93.007978 267.545379 
L 94.093779 248.961967 
L 95.17958 217.926745 
L 97.351183 135.337967 
L 98.436984 94.26702 
L 99.522785 60.378972 
L 100.608586 37.975075 
L 101.694387 29.898951 
L 102.780189 37.175665 
L 103.86599 58.881617 
L 104.951791 92.261772 
L 108.209194 216.017172 
L 109.294995 247.610518 
L 110.380797 266.923587 
L 111.466598 271.505063 
L 112.552399 260.773438 
L 113.6382 236.090829 
L 114.724001 200.590084 
L 117.981405 77.57075 
L 119.067206 48.48444 
L 120.153007 32.391998 
L 121.238808 31.335964 
L 122.324609 45.450373 
L 123.41041 72.943751 
L 124.496212 110.326491 
L 126.667814 195.127816 
L 127.753615 231.782964 
L 128.839416 258.166754 
L 129.925217 270.930413 
L 131.011019 268.45391 
L 132.09682 251.051575 
L 133.182621 220.932207 
L 135.354223 138.962903 
L 136.440024 97.516949 
L 137.525825 62.841395 
L 138.611627 39.337448 
L 139.697428 29.988354 
L 140.783229 35.980751 
L 141.86903 56.554051 
L 142.954831 89.096981 
L 146.212235 212.913978 
L 147.298036 245.376889 
L 148.383837 265.843027 
L 149.469638 271.714721 
L 150.555439 262.246705 
L 151.64124 238.640709 
L 152.727042 203.892933 
L 155.984445 80.506353 
L 157.070246 50.474264 
L 158.156047 33.183485 
L 159.241849 30.828652 
L 160.32765 43.708655 
L 161.413451 70.188694 
L 162.499252 106.907782 
L 164.670854 191.712724 
L 165.756656 229.034682 
L 166.842457 256.434108 
L 167.928258 270.43332 
L 169.014059 269.255464 
L 170.09986 253.050039 
L 171.185661 223.873925 
L 172.271462 185.430309 
L 174.443065 100.815402 
L 175.528866 65.383886 
L 176.614667 40.801271 
L 177.700468 30.187712 
L 178.786269 34.890341 
L 179.872071 54.312273 
L 180.957872 85.988374 
L 185.301076 243.057277 
L 186.386877 264.657865 
L 187.472679 271.814437 
L 188.55848 263.618642 
L 189.644281 241.110734 
L 190.730082 207.147537 
L 193.987486 83.505955 
L 195.073287 52.555408 
L 196.159088 34.08202 
L 197.244889 30.430532 
L 198.33069 42.064411 
L 199.416491 67.507023 
L 200.502292 103.529055 
L 203.759696 226.215283 
L 204.845497 254.60542 
L 205.931298 269.827451 
L 207.017099 269.949313 
L 208.102901 254.955539 
L 209.188702 226.74922 
L 210.274503 188.910452 
L 212.446105 104.159379 
L 213.531906 68.004133 
L 214.617708 42.365212 
L 215.703509 30.496844 
L 216.78931 33.905426 
L 217.875111 52.158323 
L 218.960912 82.93878 
L 221.132514 165.360901 
L 222.218316 206.54111 
L 223.304117 240.653792 
L 224.389918 263.369181 
L 225.475719 271.804121 
L 226.56152 264.888003 
L 227.647321 243.498657 
L 228.733123 210.350935 
L 231.990526 86.566828 
L 233.076327 54.725977 
L 234.162128 35.086785 
L 235.247929 30.141964 
L 236.333731 40.519136 
L 237.419532 64.901175 
L 238.505333 100.193383 
L 241.762736 223.327332 
L 242.848538 252.682355 
L 243.934339 269.113356 
L 245.02014 270.534826 
L 246.105941 256.766343 
L 247.191742 229.555478 
L 248.277543 192.355979 
L 250.449146 107.545838 
L 251.534947 70.699752 
L 252.620748 44.027849 
L 253.706549 30.915469 
L 254.79235 33.026904 
L 255.878151 50.094161 
L 256.963953 79.950971 
L 258.049754 118.80775 
L 260.221356 203.277234 
L 261.307157 238.16862 
L 262.392958 261.978147 
L 263.47876 271.68378 
L 264.564561 266.053631 
L 265.650362 245.802306 
L 266.736163 213.500213 
L 269.993566 89.686186 
L 271.079368 56.983998 
L 272.165169 36.196869 
L 273.25097 29.963212 
L 274.336771 39.074237 
L 275.422572 62.373523 
L 276.508373 96.903801 
L 279.765777 220.373457 
L 280.851578 250.66666 
L 281.937379 268.291685 
L 283.02318 271.011469 
L 284.108981 258.480803 
L 285.194783 232.290146 
L 286.280584 195.763756 
L 288.452186 110.971698 
L 289.537987 73.468292 
L 290.623788 45.78767 
L 291.70959 31.443205 
L 292.795391 32.255572 
L 293.881192 48.121663 
L 294.966993 77.027667 
L 296.052794 115.304681 
L 298.224396 199.965672 
L 299.310198 235.604023 
L 300.395999 260.486027 
L 301.4818 271.453526 
L 302.567601 267.114466 
L 303.653402 248.019585 
L 304.739203 216.592506 
L 306.910806 133.756303 
L 307.996607 92.861192 
L 309.082408 59.327416 
L 310.168209 37.411259 
L 311.25401 29.894438 
L 312.339811 37.731027 
L 313.425613 59.926365 
L 314.511414 93.663302 
L 317.768817 217.356345 
L 318.854618 248.560171 
L 319.94042 267.363186 
L 321.026221 271.37881 
L 322.112022 260.09736 
L 323.197823 234.950736 
L 324.283624 199.130683 
L 327.541028 76.307233 
L 328.626829 47.643073 
L 329.71263 32.079572 
L 330.798431 31.592133 
L 331.884232 46.242624 
L 332.970033 74.171527 
L 334.055835 111.833956 
L 336.227437 196.609437 
L 337.313238 232.962334 
L 338.399039 258.89418 
L 339.48484 271.113566 
L 340.570642 268.069544 
L 341.656443 250.148477 
L 342.742244 219.625001 
L 344.913846 137.375467 
L 345.999647 96.088959 
L 347.085448 61.754099 
L 348.17125 38.728852 
L 349.257051 29.935704 
L 350.342852 36.490729 
L 351.428653 57.561928 
L 352.514454 90.474832 
L 355.771858 214.278739 
L 356.857659 246.364803 
L 357.94346 266.328703 
L 359.029261 271.636515 
L 360.115062 261.614542 
L 361.200863 237.534827 
L 362.286665 202.453697 
L 365.544068 79.213993 
L 366.629869 49.592371 
L 367.71567 32.823993 
L 368.801472 31.03719 
L 369.887273 44.458754 
L 369.887273 44.458754 
" style="fill:none;stroke:#1f77b4;stroke-linecap:square;stroke-width:1.5;"/>
   </g>
   <g id="patch_3">
    <path d="M 29 283.910437 
L 29 17.798438 
" style="fill:none;stroke:#000000;stroke-linecap:square;stroke-linejoin:miter;stroke-width:0.8;"/>
   </g>
   <g id="patch_4">
    <path d="M 386.12 283.910437 
L 386.12 17.798438 
" style="fill:none;stroke:#000000;stroke-linecap:square;stroke-linejoin:miter;stroke-width:0.8;"/>
   </g>
   <g id="patch_5">
    <path d="M 29 283.910437 
L 386.12 283.910437 
" style="fill:none;stroke:#000000;stroke-linecap:square;stroke-linejoin:miter;stroke-width:0.8;"/>
   </g>
   <g id="patch_6">
    <path d="M 29 17.798437 
L 386.12 17.798437 
" style="fill:none;stroke:#000000;stroke-linecap:square;stroke-linejoin:miter;stroke-width:0.8;"/>
   </g>
  </g>
 </g>
 <defs>
  <clipPath id="p35ed8b2436">
   <rect height="266.112" width="357.12" x="29" y="17.798437"/>
  </clipPath>
 </defs>
</svg>
