<?xml version="1.0" encoding="utf-8" standalone="no"?>
<!DOCTYPE svg PUBLIC "-//W3C//DTD SVG 1.1//EN"
  "http://www.w3.org/Graphics/SVG/1.1/DTD/svg11.dtd">
<svg height="325.986375pt" version="1.1" viewBox="0 0 415.698125 325.986375" width="415.698125pt" xmlns="http://www.w3.org/2000/svg" xmlns:xlink="http://www.w3.org/1999/xlink">
 <metadata>
  <rdf:RDF xmlns:cc="http://creativecommons.org/ns#" xmlns:dc="http://purl.org/dc/elements/1.1/" xmlns:rdf="http://www.w3.org/1999/02/22-rdf-syntax-ns#">
   <cc:Work>
    <dc:type rdf:resource="http://purl.org/dc/dcmitype/StillImage"/>
    <dc:date>2021-11-07T19:07:32.674111</dc:date>
    <dc:format>image/svg+xml</dc:format>
    <dc:creator>
     <cc:Agent>
      <dc:title>Matplotlib v3.4.3, https://matplotlib.org/</dc:title>
     </cc:Agent>
    </dc:creator>
   </cc:Work>
  </rdf:RDF>
 </metadata>
 <defs>
  <style type="text/css">*{stroke-linecap:butt;stroke-linejoin:round;}</style>
 </defs>
 <g id="figure_1">
  <g id="patch_1">
   <path d="M 0 325.986375 
L 415.698125 325.986375 
L 415.698125 0 
L 0 0 
z
" style="fill:#ffffff;"/>
  </g>
  <g id="axes_1">
   <g id="patch_2">
    <path d="M 51.378125 288.430125 
L 408.498125 288.430125 
L 408.498125 22.318125 
L 51.378125 22.318125 
z
" style="fill:#ffffff;"/>
   </g>
   <g id="matplotlib.axis_1">
    <g id="xtick_1">
     <g id="line2d_1">
      <defs>
       <path d="M 0 0 
L 0 3.5 
" id="m0681306c7a" style="stroke:#000000;stroke-width:0.8;"/>
      </defs>
      <g>
       <use style="stroke:#000000;stroke-width:0.8;" x="67.424059" xlink:href="#m0681306c7a" y="288.430125"/>
      </g>
     </g>
     <g id="text_1">
      <!-- −800 -->
      <g transform="translate(53.690465 303.028562)scale(0.1 -0.1)">
       <defs>
        <path d="M 678 2272 
L 4684 2272 
L 4684 1741 
L 678 1741 
L 678 2272 
z
" id="DejaVuSans-2212" transform="scale(0.015625)"/>
        <path d="M 2034 2216 
Q 1584 2216 1326 1975 
Q 1069 1734 1069 1313 
Q 1069 891 1326 650 
Q 1584 409 2034 409 
Q 2484 409 2743 651 
Q 3003 894 3003 1313 
Q 3003 1734 2745 1975 
Q 2488 2216 2034 2216 
z
M 1403 2484 
Q 997 2584 770 2862 
Q 544 3141 544 3541 
Q 544 4100 942 4425 
Q 1341 4750 2034 4750 
Q 2731 4750 3128 4425 
Q 3525 4100 3525 3541 
Q 3525 3141 3298 2862 
Q 3072 2584 2669 2484 
Q 3125 2378 3379 2068 
Q 3634 1759 3634 1313 
Q 3634 634 3220 271 
Q 2806 -91 2034 -91 
Q 1263 -91 848 271 
Q 434 634 434 1313 
Q 434 1759 690 2068 
Q 947 2378 1403 2484 
z
M 1172 3481 
Q 1172 3119 1398 2916 
Q 1625 2713 2034 2713 
Q 2441 2713 2670 2916 
Q 2900 3119 2900 3481 
Q 2900 3844 2670 4047 
Q 2441 4250 2034 4250 
Q 1625 4250 1398 4047 
Q 1172 3844 1172 3481 
z
" id="DejaVuSans-38" transform="scale(0.015625)"/>
        <path d="M 2034 4250 
Q 1547 4250 1301 3770 
Q 1056 3291 1056 2328 
Q 1056 1369 1301 889 
Q 1547 409 2034 409 
Q 2525 409 2770 889 
Q 3016 1369 3016 2328 
Q 3016 3291 2770 3770 
Q 2525 4250 2034 4250 
z
M 2034 4750 
Q 2819 4750 3233 4129 
Q 3647 3509 3647 2328 
Q 3647 1150 3233 529 
Q 2819 -91 2034 -91 
Q 1250 -91 836 529 
Q 422 1150 422 2328 
Q 422 3509 836 4129 
Q 1250 4750 2034 4750 
z
" id="DejaVuSans-30" transform="scale(0.015625)"/>
       </defs>
       <use xlink:href="#DejaVuSans-2212"/>
       <use x="83.789062" xlink:href="#DejaVuSans-38"/>
       <use x="147.412109" xlink:href="#DejaVuSans-30"/>
       <use x="211.035156" xlink:href="#DejaVuSans-30"/>
      </g>
     </g>
    </g>
    <g id="xtick_2">
     <g id="line2d_2">
      <g>
       <use style="stroke:#000000;stroke-width:0.8;" x="108.027196" xlink:href="#m0681306c7a" y="288.430125"/>
      </g>
     </g>
     <g id="text_2">
      <!-- −600 -->
      <g transform="translate(94.293602 303.028562)scale(0.1 -0.1)">
       <defs>
        <path d="M 2113 2584 
Q 1688 2584 1439 2293 
Q 1191 2003 1191 1497 
Q 1191 994 1439 701 
Q 1688 409 2113 409 
Q 2538 409 2786 701 
Q 3034 994 3034 1497 
Q 3034 2003 2786 2293 
Q 2538 2584 2113 2584 
z
M 3366 4563 
L 3366 3988 
Q 3128 4100 2886 4159 
Q 2644 4219 2406 4219 
Q 1781 4219 1451 3797 
Q 1122 3375 1075 2522 
Q 1259 2794 1537 2939 
Q 1816 3084 2150 3084 
Q 2853 3084 3261 2657 
Q 3669 2231 3669 1497 
Q 3669 778 3244 343 
Q 2819 -91 2113 -91 
Q 1303 -91 875 529 
Q 447 1150 447 2328 
Q 447 3434 972 4092 
Q 1497 4750 2381 4750 
Q 2619 4750 2861 4703 
Q 3103 4656 3366 4563 
z
" id="DejaVuSans-36" transform="scale(0.015625)"/>
       </defs>
       <use xlink:href="#DejaVuSans-2212"/>
       <use x="83.789062" xlink:href="#DejaVuSans-36"/>
       <use x="147.412109" xlink:href="#DejaVuSans-30"/>
       <use x="211.035156" xlink:href="#DejaVuSans-30"/>
      </g>
     </g>
    </g>
    <g id="xtick_3">
     <g id="line2d_3">
      <g>
       <use style="stroke:#000000;stroke-width:0.8;" x="148.630333" xlink:href="#m0681306c7a" y="288.430125"/>
      </g>
     </g>
     <g id="text_3">
      <!-- −400 -->
      <g transform="translate(134.896739 303.028562)scale(0.1 -0.1)">
       <defs>
        <path d="M 2419 4116 
L 825 1625 
L 2419 1625 
L 2419 4116 
z
M 2253 4666 
L 3047 4666 
L 3047 1625 
L 3713 1625 
L 3713 1100 
L 3047 1100 
L 3047 0 
L 2419 0 
L 2419 1100 
L 313 1100 
L 313 1709 
L 2253 4666 
z
" id="DejaVuSans-34" transform="scale(0.015625)"/>
       </defs>
       <use xlink:href="#DejaVuSans-2212"/>
       <use x="83.789062" xlink:href="#DejaVuSans-34"/>
       <use x="147.412109" xlink:href="#DejaVuSans-30"/>
       <use x="211.035156" xlink:href="#DejaVuSans-30"/>
      </g>
     </g>
    </g>
    <g id="xtick_4">
     <g id="line2d_4">
      <g>
       <use style="stroke:#000000;stroke-width:0.8;" x="189.23347" xlink:href="#m0681306c7a" y="288.430125"/>
      </g>
     </g>
     <g id="text_4">
      <!-- −200 -->
      <g transform="translate(175.499876 303.028562)scale(0.1 -0.1)">
       <defs>
        <path d="M 1228 531 
L 3431 531 
L 3431 0 
L 469 0 
L 469 531 
Q 828 903 1448 1529 
Q 2069 2156 2228 2338 
Q 2531 2678 2651 2914 
Q 2772 3150 2772 3378 
Q 2772 3750 2511 3984 
Q 2250 4219 1831 4219 
Q 1534 4219 1204 4116 
Q 875 4013 500 3803 
L 500 4441 
Q 881 4594 1212 4672 
Q 1544 4750 1819 4750 
Q 2544 4750 2975 4387 
Q 3406 4025 3406 3419 
Q 3406 3131 3298 2873 
Q 3191 2616 2906 2266 
Q 2828 2175 2409 1742 
Q 1991 1309 1228 531 
z
" id="DejaVuSans-32" transform="scale(0.015625)"/>
       </defs>
       <use xlink:href="#DejaVuSans-2212"/>
       <use x="83.789062" xlink:href="#DejaVuSans-32"/>
       <use x="147.412109" xlink:href="#DejaVuSans-30"/>
       <use x="211.035156" xlink:href="#DejaVuSans-30"/>
      </g>
     </g>
    </g>
    <g id="xtick_5">
     <g id="line2d_5">
      <g>
       <use style="stroke:#000000;stroke-width:0.8;" x="229.836607" xlink:href="#m0681306c7a" y="288.430125"/>
      </g>
     </g>
     <g id="text_5">
      <!-- 0 -->
      <g transform="translate(226.655357 303.028562)scale(0.1 -0.1)">
       <use xlink:href="#DejaVuSans-30"/>
      </g>
     </g>
    </g>
    <g id="xtick_6">
     <g id="line2d_6">
      <g>
       <use style="stroke:#000000;stroke-width:0.8;" x="270.439744" xlink:href="#m0681306c7a" y="288.430125"/>
      </g>
     </g>
     <g id="text_6">
      <!-- 200 -->
      <g transform="translate(260.895994 303.028562)scale(0.1 -0.1)">
       <use xlink:href="#DejaVuSans-32"/>
       <use x="63.623047" xlink:href="#DejaVuSans-30"/>
       <use x="127.246094" xlink:href="#DejaVuSans-30"/>
      </g>
     </g>
    </g>
    <g id="xtick_7">
     <g id="line2d_7">
      <g>
       <use style="stroke:#000000;stroke-width:0.8;" x="311.042881" xlink:href="#m0681306c7a" y="288.430125"/>
      </g>
     </g>
     <g id="text_7">
      <!-- 400 -->
      <g transform="translate(301.499131 303.028562)scale(0.1 -0.1)">
       <use xlink:href="#DejaVuSans-34"/>
       <use x="63.623047" xlink:href="#DejaVuSans-30"/>
       <use x="127.246094" xlink:href="#DejaVuSans-30"/>
      </g>
     </g>
    </g>
    <g id="xtick_8">
     <g id="line2d_8">
      <g>
       <use style="stroke:#000000;stroke-width:0.8;" x="351.646018" xlink:href="#m0681306c7a" y="288.430125"/>
      </g>
     </g>
     <g id="text_8">
      <!-- 600 -->
      <g transform="translate(342.102268 303.028562)scale(0.1 -0.1)">
       <use xlink:href="#DejaVuSans-36"/>
       <use x="63.623047" xlink:href="#DejaVuSans-30"/>
       <use x="127.246094" xlink:href="#DejaVuSans-30"/>
      </g>
     </g>
    </g>
    <g id="xtick_9">
     <g id="line2d_9">
      <g>
       <use style="stroke:#000000;stroke-width:0.8;" x="392.249155" xlink:href="#m0681306c7a" y="288.430125"/>
      </g>
     </g>
     <g id="text_9">
      <!-- 800 -->
      <g transform="translate(382.705405 303.028562)scale(0.1 -0.1)">
       <use xlink:href="#DejaVuSans-38"/>
       <use x="63.623047" xlink:href="#DejaVuSans-30"/>
       <use x="127.246094" xlink:href="#DejaVuSans-30"/>
      </g>
     </g>
    </g>
    <g id="text_10">
     <!-- frequency[Hz] -->
     <g transform="translate(194.575625 316.706687)scale(0.1 -0.1)">
      <defs>
       <path d="M 2375 4863 
L 2375 4384 
L 1825 4384 
Q 1516 4384 1395 4259 
Q 1275 4134 1275 3809 
L 1275 3500 
L 2222 3500 
L 2222 3053 
L 1275 3053 
L 1275 0 
L 697 0 
L 697 3053 
L 147 3053 
L 147 3500 
L 697 3500 
L 697 3744 
Q 697 4328 969 4595 
Q 1241 4863 1831 4863 
L 2375 4863 
z
" id="DejaVuSans-66" transform="scale(0.015625)"/>
       <path d="M 2631 2963 
Q 2534 3019 2420 3045 
Q 2306 3072 2169 3072 
Q 1681 3072 1420 2755 
Q 1159 2438 1159 1844 
L 1159 0 
L 581 0 
L 581 3500 
L 1159 3500 
L 1159 2956 
Q 1341 3275 1631 3429 
Q 1922 3584 2338 3584 
Q 2397 3584 2469 3576 
Q 2541 3569 2628 3553 
L 2631 2963 
z
" id="DejaVuSans-72" transform="scale(0.015625)"/>
       <path d="M 3597 1894 
L 3597 1613 
L 953 1613 
Q 991 1019 1311 708 
Q 1631 397 2203 397 
Q 2534 397 2845 478 
Q 3156 559 3463 722 
L 3463 178 
Q 3153 47 2828 -22 
Q 2503 -91 2169 -91 
Q 1331 -91 842 396 
Q 353 884 353 1716 
Q 353 2575 817 3079 
Q 1281 3584 2069 3584 
Q 2775 3584 3186 3129 
Q 3597 2675 3597 1894 
z
M 3022 2063 
Q 3016 2534 2758 2815 
Q 2500 3097 2075 3097 
Q 1594 3097 1305 2825 
Q 1016 2553 972 2059 
L 3022 2063 
z
" id="DejaVuSans-65" transform="scale(0.015625)"/>
       <path d="M 947 1747 
Q 947 1113 1208 752 
Q 1469 391 1925 391 
Q 2381 391 2643 752 
Q 2906 1113 2906 1747 
Q 2906 2381 2643 2742 
Q 2381 3103 1925 3103 
Q 1469 3103 1208 2742 
Q 947 2381 947 1747 
z
M 2906 525 
Q 2725 213 2448 61 
Q 2172 -91 1784 -91 
Q 1150 -91 751 415 
Q 353 922 353 1747 
Q 353 2572 751 3078 
Q 1150 3584 1784 3584 
Q 2172 3584 2448 3432 
Q 2725 3281 2906 2969 
L 2906 3500 
L 3481 3500 
L 3481 -1331 
L 2906 -1331 
L 2906 525 
z
" id="DejaVuSans-71" transform="scale(0.015625)"/>
       <path d="M 544 1381 
L 544 3500 
L 1119 3500 
L 1119 1403 
Q 1119 906 1312 657 
Q 1506 409 1894 409 
Q 2359 409 2629 706 
Q 2900 1003 2900 1516 
L 2900 3500 
L 3475 3500 
L 3475 0 
L 2900 0 
L 2900 538 
Q 2691 219 2414 64 
Q 2138 -91 1772 -91 
Q 1169 -91 856 284 
Q 544 659 544 1381 
z
M 1991 3584 
L 1991 3584 
z
" id="DejaVuSans-75" transform="scale(0.015625)"/>
       <path d="M 3513 2113 
L 3513 0 
L 2938 0 
L 2938 2094 
Q 2938 2591 2744 2837 
Q 2550 3084 2163 3084 
Q 1697 3084 1428 2787 
Q 1159 2491 1159 1978 
L 1159 0 
L 581 0 
L 581 3500 
L 1159 3500 
L 1159 2956 
Q 1366 3272 1645 3428 
Q 1925 3584 2291 3584 
Q 2894 3584 3203 3211 
Q 3513 2838 3513 2113 
z
" id="DejaVuSans-6e" transform="scale(0.015625)"/>
       <path d="M 3122 3366 
L 3122 2828 
Q 2878 2963 2633 3030 
Q 2388 3097 2138 3097 
Q 1578 3097 1268 2742 
Q 959 2388 959 1747 
Q 959 1106 1268 751 
Q 1578 397 2138 397 
Q 2388 397 2633 464 
Q 2878 531 3122 666 
L 3122 134 
Q 2881 22 2623 -34 
Q 2366 -91 2075 -91 
Q 1284 -91 818 406 
Q 353 903 353 1747 
Q 353 2603 823 3093 
Q 1294 3584 2113 3584 
Q 2378 3584 2631 3529 
Q 2884 3475 3122 3366 
z
" id="DejaVuSans-63" transform="scale(0.015625)"/>
       <path d="M 2059 -325 
Q 1816 -950 1584 -1140 
Q 1353 -1331 966 -1331 
L 506 -1331 
L 506 -850 
L 844 -850 
Q 1081 -850 1212 -737 
Q 1344 -625 1503 -206 
L 1606 56 
L 191 3500 
L 800 3500 
L 1894 763 
L 2988 3500 
L 3597 3500 
L 2059 -325 
z
" id="DejaVuSans-79" transform="scale(0.015625)"/>
       <path d="M 550 4863 
L 1875 4863 
L 1875 4416 
L 1125 4416 
L 1125 -397 
L 1875 -397 
L 1875 -844 
L 550 -844 
L 550 4863 
z
" id="DejaVuSans-5b" transform="scale(0.015625)"/>
       <path d="M 628 4666 
L 1259 4666 
L 1259 2753 
L 3553 2753 
L 3553 4666 
L 4184 4666 
L 4184 0 
L 3553 0 
L 3553 2222 
L 1259 2222 
L 1259 0 
L 628 0 
L 628 4666 
z
" id="DejaVuSans-48" transform="scale(0.015625)"/>
       <path d="M 353 3500 
L 3084 3500 
L 3084 2975 
L 922 459 
L 3084 459 
L 3084 0 
L 275 0 
L 275 525 
L 2438 3041 
L 353 3041 
L 353 3500 
z
" id="DejaVuSans-7a" transform="scale(0.015625)"/>
       <path d="M 1947 4863 
L 1947 -844 
L 622 -844 
L 622 -397 
L 1369 -397 
L 1369 4416 
L 622 4416 
L 622 4863 
L 1947 4863 
z
" id="DejaVuSans-5d" transform="scale(0.015625)"/>
      </defs>
      <use xlink:href="#DejaVuSans-66"/>
      <use x="35.205078" xlink:href="#DejaVuSans-72"/>
      <use x="74.068359" xlink:href="#DejaVuSans-65"/>
      <use x="135.591797" xlink:href="#DejaVuSans-71"/>
      <use x="199.068359" xlink:href="#DejaVuSans-75"/>
      <use x="262.447266" xlink:href="#DejaVuSans-65"/>
      <use x="323.970703" xlink:href="#DejaVuSans-6e"/>
      <use x="387.349609" xlink:href="#DejaVuSans-63"/>
      <use x="442.330078" xlink:href="#DejaVuSans-79"/>
      <use x="501.509766" xlink:href="#DejaVuSans-5b"/>
      <use x="540.523438" xlink:href="#DejaVuSans-48"/>
      <use x="615.71875" xlink:href="#DejaVuSans-7a"/>
      <use x="668.208984" xlink:href="#DejaVuSans-5d"/>
     </g>
    </g>
   </g>
   <g id="matplotlib.axis_2">
    <g id="ytick_1">
     <g id="line2d_10">
      <defs>
       <path d="M 0 0 
L -3.5 0 
" id="m1af9d5b782" style="stroke:#000000;stroke-width:0.8;"/>
      </defs>
      <g>
       <use style="stroke:#000000;stroke-width:0.8;" x="51.378125" xlink:href="#m1af9d5b782" y="273.663618"/>
      </g>
     </g>
     <g id="text_11">
      <!-- $\mathdefault{10^{-1}}$ -->
      <g transform="translate(20.878125 277.462837)scale(0.1 -0.1)">
       <defs>
        <path d="M 794 531 
L 1825 531 
L 1825 4091 
L 703 3866 
L 703 4441 
L 1819 4666 
L 2450 4666 
L 2450 531 
L 3481 531 
L 3481 0 
L 794 0 
L 794 531 
z
" id="DejaVuSans-31" transform="scale(0.015625)"/>
       </defs>
       <use transform="translate(0 0.684375)" xlink:href="#DejaVuSans-31"/>
       <use transform="translate(63.623047 0.684375)" xlink:href="#DejaVuSans-30"/>
       <use transform="translate(128.203125 38.965625)scale(0.7)" xlink:href="#DejaVuSans-2212"/>
       <use transform="translate(186.855469 38.965625)scale(0.7)" xlink:href="#DejaVuSans-31"/>
      </g>
     </g>
    </g>
    <g id="ytick_2">
     <g id="line2d_11">
      <g>
       <use style="stroke:#000000;stroke-width:0.8;" x="51.378125" xlink:href="#m1af9d5b782" y="219.181291"/>
      </g>
     </g>
     <g id="text_12">
      <!-- $\mathdefault{10^{0}}$ -->
      <g transform="translate(26.778125 222.98051)scale(0.1 -0.1)">
       <use transform="translate(0 0.765625)" xlink:href="#DejaVuSans-31"/>
       <use transform="translate(63.623047 0.765625)" xlink:href="#DejaVuSans-30"/>
       <use transform="translate(128.203125 39.046875)scale(0.7)" xlink:href="#DejaVuSans-30"/>
      </g>
     </g>
    </g>
    <g id="ytick_3">
     <g id="line2d_12">
      <g>
       <use style="stroke:#000000;stroke-width:0.8;" x="51.378125" xlink:href="#m1af9d5b782" y="164.698965"/>
      </g>
     </g>
     <g id="text_13">
      <!-- $\mathdefault{10^{1}}$ -->
      <g transform="translate(26.778125 168.498183)scale(0.1 -0.1)">
       <use transform="translate(0 0.684375)" xlink:href="#DejaVuSans-31"/>
       <use transform="translate(63.623047 0.684375)" xlink:href="#DejaVuSans-30"/>
       <use transform="translate(128.203125 38.965625)scale(0.7)" xlink:href="#DejaVuSans-31"/>
      </g>
     </g>
    </g>
    <g id="ytick_4">
     <g id="line2d_13">
      <g>
       <use style="stroke:#000000;stroke-width:0.8;" x="51.378125" xlink:href="#m1af9d5b782" y="110.216638"/>
      </g>
     </g>
     <g id="text_14">
      <!-- $\mathdefault{10^{2}}$ -->
      <g transform="translate(26.778125 114.015857)scale(0.1 -0.1)">
       <use transform="translate(0 0.765625)" xlink:href="#DejaVuSans-31"/>
       <use transform="translate(63.623047 0.765625)" xlink:href="#DejaVuSans-30"/>
       <use transform="translate(128.203125 39.046875)scale(0.7)" xlink:href="#DejaVuSans-32"/>
      </g>
     </g>
    </g>
    <g id="ytick_5">
     <g id="line2d_14">
      <g>
       <use style="stroke:#000000;stroke-width:0.8;" x="51.378125" xlink:href="#m1af9d5b782" y="55.734311"/>
      </g>
     </g>
     <g id="text_15">
      <!-- $\mathdefault{10^{3}}$ -->
      <g transform="translate(26.778125 59.53353)scale(0.1 -0.1)">
       <defs>
        <path d="M 2597 2516 
Q 3050 2419 3304 2112 
Q 3559 1806 3559 1356 
Q 3559 666 3084 287 
Q 2609 -91 1734 -91 
Q 1441 -91 1130 -33 
Q 819 25 488 141 
L 488 750 
Q 750 597 1062 519 
Q 1375 441 1716 441 
Q 2309 441 2620 675 
Q 2931 909 2931 1356 
Q 2931 1769 2642 2001 
Q 2353 2234 1838 2234 
L 1294 2234 
L 1294 2753 
L 1863 2753 
Q 2328 2753 2575 2939 
Q 2822 3125 2822 3475 
Q 2822 3834 2567 4026 
Q 2313 4219 1838 4219 
Q 1578 4219 1281 4162 
Q 984 4106 628 3988 
L 628 4550 
Q 988 4650 1302 4700 
Q 1616 4750 1894 4750 
Q 2613 4750 3031 4423 
Q 3450 4097 3450 3541 
Q 3450 3153 3228 2886 
Q 3006 2619 2597 2516 
z
" id="DejaVuSans-33" transform="scale(0.015625)"/>
       </defs>
       <use transform="translate(0 0.765625)" xlink:href="#DejaVuSans-31"/>
       <use transform="translate(63.623047 0.765625)" xlink:href="#DejaVuSans-30"/>
       <use transform="translate(128.203125 39.046875)scale(0.7)" xlink:href="#DejaVuSans-33"/>
      </g>
     </g>
    </g>
    <g id="ytick_6">
     <g id="line2d_15">
      <defs>
       <path d="M 0 0 
L -2 0 
" id="m3b7e8dc7ae" style="stroke:#000000;stroke-width:0.6;"/>
      </defs>
      <g>
       <use style="stroke:#000000;stroke-width:0.6;" x="51.378125" xlink:href="#m3b7e8dc7ae" y="285.750454"/>
      </g>
     </g>
    </g>
    <g id="ytick_7">
     <g id="line2d_16">
      <g>
       <use style="stroke:#000000;stroke-width:0.6;" x="51.378125" xlink:href="#m3b7e8dc7ae" y="282.103037"/>
      </g>
     </g>
    </g>
    <g id="ytick_8">
     <g id="line2d_17">
      <g>
       <use style="stroke:#000000;stroke-width:0.6;" x="51.378125" xlink:href="#m3b7e8dc7ae" y="278.943501"/>
      </g>
     </g>
    </g>
    <g id="ytick_9">
     <g id="line2d_18">
      <g>
       <use style="stroke:#000000;stroke-width:0.6;" x="51.378125" xlink:href="#m3b7e8dc7ae" y="276.156592"/>
      </g>
     </g>
    </g>
    <g id="ytick_10">
     <g id="line2d_19">
      <g>
       <use style="stroke:#000000;stroke-width:0.6;" x="51.378125" xlink:href="#m3b7e8dc7ae" y="257.262803"/>
      </g>
     </g>
    </g>
    <g id="ytick_11">
     <g id="line2d_20">
      <g>
       <use style="stroke:#000000;stroke-width:0.6;" x="51.378125" xlink:href="#m3b7e8dc7ae" y="247.668942"/>
      </g>
     </g>
    </g>
    <g id="ytick_12">
     <g id="line2d_21">
      <g>
       <use style="stroke:#000000;stroke-width:0.6;" x="51.378125" xlink:href="#m3b7e8dc7ae" y="240.861989"/>
      </g>
     </g>
    </g>
    <g id="ytick_13">
     <g id="line2d_22">
      <g>
       <use style="stroke:#000000;stroke-width:0.6;" x="51.378125" xlink:href="#m3b7e8dc7ae" y="235.582106"/>
      </g>
     </g>
    </g>
    <g id="ytick_14">
     <g id="line2d_23">
      <g>
       <use style="stroke:#000000;stroke-width:0.6;" x="51.378125" xlink:href="#m3b7e8dc7ae" y="231.268127"/>
      </g>
     </g>
    </g>
    <g id="ytick_15">
     <g id="line2d_24">
      <g>
       <use style="stroke:#000000;stroke-width:0.6;" x="51.378125" xlink:href="#m3b7e8dc7ae" y="227.62071"/>
      </g>
     </g>
    </g>
    <g id="ytick_16">
     <g id="line2d_25">
      <g>
       <use style="stroke:#000000;stroke-width:0.6;" x="51.378125" xlink:href="#m3b7e8dc7ae" y="224.461174"/>
      </g>
     </g>
    </g>
    <g id="ytick_17">
     <g id="line2d_26">
      <g>
       <use style="stroke:#000000;stroke-width:0.6;" x="51.378125" xlink:href="#m3b7e8dc7ae" y="221.674266"/>
      </g>
     </g>
    </g>
    <g id="ytick_18">
     <g id="line2d_27">
      <g>
       <use style="stroke:#000000;stroke-width:0.6;" x="51.378125" xlink:href="#m3b7e8dc7ae" y="202.780477"/>
      </g>
     </g>
    </g>
    <g id="ytick_19">
     <g id="line2d_28">
      <g>
       <use style="stroke:#000000;stroke-width:0.6;" x="51.378125" xlink:href="#m3b7e8dc7ae" y="193.186615"/>
      </g>
     </g>
    </g>
    <g id="ytick_20">
     <g id="line2d_29">
      <g>
       <use style="stroke:#000000;stroke-width:0.6;" x="51.378125" xlink:href="#m3b7e8dc7ae" y="186.379662"/>
      </g>
     </g>
    </g>
    <g id="ytick_21">
     <g id="line2d_30">
      <g>
       <use style="stroke:#000000;stroke-width:0.6;" x="51.378125" xlink:href="#m3b7e8dc7ae" y="181.099779"/>
      </g>
     </g>
    </g>
    <g id="ytick_22">
     <g id="line2d_31">
      <g>
       <use style="stroke:#000000;stroke-width:0.6;" x="51.378125" xlink:href="#m3b7e8dc7ae" y="176.785801"/>
      </g>
     </g>
    </g>
    <g id="ytick_23">
     <g id="line2d_32">
      <g>
       <use style="stroke:#000000;stroke-width:0.6;" x="51.378125" xlink:href="#m3b7e8dc7ae" y="173.138384"/>
      </g>
     </g>
    </g>
    <g id="ytick_24">
     <g id="line2d_33">
      <g>
       <use style="stroke:#000000;stroke-width:0.6;" x="51.378125" xlink:href="#m3b7e8dc7ae" y="169.978848"/>
      </g>
     </g>
    </g>
    <g id="ytick_25">
     <g id="line2d_34">
      <g>
       <use style="stroke:#000000;stroke-width:0.6;" x="51.378125" xlink:href="#m3b7e8dc7ae" y="167.191939"/>
      </g>
     </g>
    </g>
    <g id="ytick_26">
     <g id="line2d_35">
      <g>
       <use style="stroke:#000000;stroke-width:0.6;" x="51.378125" xlink:href="#m3b7e8dc7ae" y="148.29815"/>
      </g>
     </g>
    </g>
    <g id="ytick_27">
     <g id="line2d_36">
      <g>
       <use style="stroke:#000000;stroke-width:0.6;" x="51.378125" xlink:href="#m3b7e8dc7ae" y="138.704289"/>
      </g>
     </g>
    </g>
    <g id="ytick_28">
     <g id="line2d_37">
      <g>
       <use style="stroke:#000000;stroke-width:0.6;" x="51.378125" xlink:href="#m3b7e8dc7ae" y="131.897336"/>
      </g>
     </g>
    </g>
    <g id="ytick_29">
     <g id="line2d_38">
      <g>
       <use style="stroke:#000000;stroke-width:0.6;" x="51.378125" xlink:href="#m3b7e8dc7ae" y="126.617453"/>
      </g>
     </g>
    </g>
    <g id="ytick_30">
     <g id="line2d_39">
      <g>
       <use style="stroke:#000000;stroke-width:0.6;" x="51.378125" xlink:href="#m3b7e8dc7ae" y="122.303474"/>
      </g>
     </g>
    </g>
    <g id="ytick_31">
     <g id="line2d_40">
      <g>
       <use style="stroke:#000000;stroke-width:0.6;" x="51.378125" xlink:href="#m3b7e8dc7ae" y="118.656057"/>
      </g>
     </g>
    </g>
    <g id="ytick_32">
     <g id="line2d_41">
      <g>
       <use style="stroke:#000000;stroke-width:0.6;" x="51.378125" xlink:href="#m3b7e8dc7ae" y="115.496521"/>
      </g>
     </g>
    </g>
    <g id="ytick_33">
     <g id="line2d_42">
      <g>
       <use style="stroke:#000000;stroke-width:0.6;" x="51.378125" xlink:href="#m3b7e8dc7ae" y="112.709613"/>
      </g>
     </g>
    </g>
    <g id="ytick_34">
     <g id="line2d_43">
      <g>
       <use style="stroke:#000000;stroke-width:0.6;" x="51.378125" xlink:href="#m3b7e8dc7ae" y="93.815824"/>
      </g>
     </g>
    </g>
    <g id="ytick_35">
     <g id="line2d_44">
      <g>
       <use style="stroke:#000000;stroke-width:0.6;" x="51.378125" xlink:href="#m3b7e8dc7ae" y="84.221962"/>
      </g>
     </g>
    </g>
    <g id="ytick_36">
     <g id="line2d_45">
      <g>
       <use style="stroke:#000000;stroke-width:0.6;" x="51.378125" xlink:href="#m3b7e8dc7ae" y="77.415009"/>
      </g>
     </g>
    </g>
    <g id="ytick_37">
     <g id="line2d_46">
      <g>
       <use style="stroke:#000000;stroke-width:0.6;" x="51.378125" xlink:href="#m3b7e8dc7ae" y="72.135126"/>
      </g>
     </g>
    </g>
    <g id="ytick_38">
     <g id="line2d_47">
      <g>
       <use style="stroke:#000000;stroke-width:0.6;" x="51.378125" xlink:href="#m3b7e8dc7ae" y="67.821148"/>
      </g>
     </g>
    </g>
    <g id="ytick_39">
     <g id="line2d_48">
      <g>
       <use style="stroke:#000000;stroke-width:0.6;" x="51.378125" xlink:href="#m3b7e8dc7ae" y="64.173731"/>
      </g>
     </g>
    </g>
    <g id="ytick_40">
     <g id="line2d_49">
      <g>
       <use style="stroke:#000000;stroke-width:0.6;" x="51.378125" xlink:href="#m3b7e8dc7ae" y="61.014194"/>
      </g>
     </g>
    </g>
    <g id="ytick_41">
     <g id="line2d_50">
      <g>
       <use style="stroke:#000000;stroke-width:0.6;" x="51.378125" xlink:href="#m3b7e8dc7ae" y="58.227286"/>
      </g>
     </g>
    </g>
    <g id="ytick_42">
     <g id="line2d_51">
      <g>
       <use style="stroke:#000000;stroke-width:0.6;" x="51.378125" xlink:href="#m3b7e8dc7ae" y="39.333497"/>
      </g>
     </g>
    </g>
    <g id="ytick_43">
     <g id="line2d_52">
      <g>
       <use style="stroke:#000000;stroke-width:0.6;" x="51.378125" xlink:href="#m3b7e8dc7ae" y="29.739635"/>
      </g>
     </g>
    </g>
    <g id="ytick_44">
     <g id="line2d_53">
      <g>
       <use style="stroke:#000000;stroke-width:0.6;" x="51.378125" xlink:href="#m3b7e8dc7ae" y="22.932682"/>
      </g>
     </g>
    </g>
    <g id="text_16">
     <!-- magnitude -->
     <g transform="translate(14.798438 182.420219)rotate(-90)scale(0.1 -0.1)">
      <defs>
       <path d="M 3328 2828 
Q 3544 3216 3844 3400 
Q 4144 3584 4550 3584 
Q 5097 3584 5394 3201 
Q 5691 2819 5691 2113 
L 5691 0 
L 5113 0 
L 5113 2094 
Q 5113 2597 4934 2840 
Q 4756 3084 4391 3084 
Q 3944 3084 3684 2787 
Q 3425 2491 3425 1978 
L 3425 0 
L 2847 0 
L 2847 2094 
Q 2847 2600 2669 2842 
Q 2491 3084 2119 3084 
Q 1678 3084 1418 2786 
Q 1159 2488 1159 1978 
L 1159 0 
L 581 0 
L 581 3500 
L 1159 3500 
L 1159 2956 
Q 1356 3278 1631 3431 
Q 1906 3584 2284 3584 
Q 2666 3584 2933 3390 
Q 3200 3197 3328 2828 
z
" id="DejaVuSans-6d" transform="scale(0.015625)"/>
       <path d="M 2194 1759 
Q 1497 1759 1228 1600 
Q 959 1441 959 1056 
Q 959 750 1161 570 
Q 1363 391 1709 391 
Q 2188 391 2477 730 
Q 2766 1069 2766 1631 
L 2766 1759 
L 2194 1759 
z
M 3341 1997 
L 3341 0 
L 2766 0 
L 2766 531 
Q 2569 213 2275 61 
Q 1981 -91 1556 -91 
Q 1019 -91 701 211 
Q 384 513 384 1019 
Q 384 1609 779 1909 
Q 1175 2209 1959 2209 
L 2766 2209 
L 2766 2266 
Q 2766 2663 2505 2880 
Q 2244 3097 1772 3097 
Q 1472 3097 1187 3025 
Q 903 2953 641 2809 
L 641 3341 
Q 956 3463 1253 3523 
Q 1550 3584 1831 3584 
Q 2591 3584 2966 3190 
Q 3341 2797 3341 1997 
z
" id="DejaVuSans-61" transform="scale(0.015625)"/>
       <path d="M 2906 1791 
Q 2906 2416 2648 2759 
Q 2391 3103 1925 3103 
Q 1463 3103 1205 2759 
Q 947 2416 947 1791 
Q 947 1169 1205 825 
Q 1463 481 1925 481 
Q 2391 481 2648 825 
Q 2906 1169 2906 1791 
z
M 3481 434 
Q 3481 -459 3084 -895 
Q 2688 -1331 1869 -1331 
Q 1566 -1331 1297 -1286 
Q 1028 -1241 775 -1147 
L 775 -588 
Q 1028 -725 1275 -790 
Q 1522 -856 1778 -856 
Q 2344 -856 2625 -561 
Q 2906 -266 2906 331 
L 2906 616 
Q 2728 306 2450 153 
Q 2172 0 1784 0 
Q 1141 0 747 490 
Q 353 981 353 1791 
Q 353 2603 747 3093 
Q 1141 3584 1784 3584 
Q 2172 3584 2450 3431 
Q 2728 3278 2906 2969 
L 2906 3500 
L 3481 3500 
L 3481 434 
z
" id="DejaVuSans-67" transform="scale(0.015625)"/>
       <path d="M 603 3500 
L 1178 3500 
L 1178 0 
L 603 0 
L 603 3500 
z
M 603 4863 
L 1178 4863 
L 1178 4134 
L 603 4134 
L 603 4863 
z
" id="DejaVuSans-69" transform="scale(0.015625)"/>
       <path d="M 1172 4494 
L 1172 3500 
L 2356 3500 
L 2356 3053 
L 1172 3053 
L 1172 1153 
Q 1172 725 1289 603 
Q 1406 481 1766 481 
L 2356 481 
L 2356 0 
L 1766 0 
Q 1100 0 847 248 
Q 594 497 594 1153 
L 594 3053 
L 172 3053 
L 172 3500 
L 594 3500 
L 594 4494 
L 1172 4494 
z
" id="DejaVuSans-74" transform="scale(0.015625)"/>
       <path d="M 2906 2969 
L 2906 4863 
L 3481 4863 
L 3481 0 
L 2906 0 
L 2906 525 
Q 2725 213 2448 61 
Q 2172 -91 1784 -91 
Q 1150 -91 751 415 
Q 353 922 353 1747 
Q 353 2572 751 3078 
Q 1150 3584 1784 3584 
Q 2172 3584 2448 3432 
Q 2725 3281 2906 2969 
z
M 947 1747 
Q 947 1113 1208 752 
Q 1469 391 1925 391 
Q 2381 391 2643 752 
Q 2906 1113 2906 1747 
Q 2906 2381 2643 2742 
Q 2381 3103 1925 3103 
Q 1469 3103 1208 2742 
Q 947 2381 947 1747 
z
" id="DejaVuSans-64" transform="scale(0.015625)"/>
      </defs>
      <use xlink:href="#DejaVuSans-6d"/>
      <use x="97.412109" xlink:href="#DejaVuSans-61"/>
      <use x="158.691406" xlink:href="#DejaVuSans-67"/>
      <use x="222.167969" xlink:href="#DejaVuSans-6e"/>
      <use x="285.546875" xlink:href="#DejaVuSans-69"/>
      <use x="313.330078" xlink:href="#DejaVuSans-74"/>
      <use x="352.539062" xlink:href="#DejaVuSans-75"/>
      <use x="415.917969" xlink:href="#DejaVuSans-64"/>
      <use x="479.394531" xlink:href="#DejaVuSans-65"/>
     </g>
    </g>
   </g>
   <g id="line2d_54">
    <path clip-path="url(#peab98f44e4)" d="M 67.610852 218.186686 
L 67.813888 172.309595 
L 68.016924 208.188464 
L 68.422996 193.270027 
L 68.626032 188.488006 
L 68.829068 213.675808 
L 69.032104 219.750216 
L 69.23514 207.8563 
L 69.438176 217.573086 
L 69.641212 191.386463 
L 69.844248 181.87195 
L 70.25032 206.322389 
L 70.453356 204.023396 
L 70.859428 218.764483 
L 71.062464 190.288965 
L 71.2655 201.890068 
L 71.468536 187.139607 
L 71.671572 190.18754 
L 71.874608 202.981715 
L 72.28068 211.618443 
L 72.483716 183.534612 
L 72.686752 183.249588 
L 73.092824 216.633062 
L 73.498896 186.160118 
L 73.701932 222.638823 
L 73.904968 189.753424 
L 74.108004 219.89948 
L 74.31104 222.291031 
L 74.717112 189.960047 
L 74.920148 188.994018 
L 75.123184 183.407213 
L 75.32622 183.973583 
L 75.529256 191.806951 
L 75.732292 185.66726 
L 75.935328 211.38833 
L 76.138364 187.766047 
L 76.3414 210.745309 
L 76.544436 191.308614 
L 76.950508 206.559823 
L 77.153544 196.151875 
L 77.35658 225.518478 
L 77.559616 184.159823 
L 77.762652 209.390771 
L 78.168724 177.084252 
L 78.37176 215.201448 
L 78.574796 171.341329 
L 78.777832 191.126726 
L 78.980868 185.638975 
L 79.183904 203.273927 
L 79.38694 243.063717 
L 79.589976 182.22674 
L 79.793012 200.296101 
L 80.199084 179.128404 
L 80.40212 213.276557 
L 80.605156 206.312328 
L 80.808192 186.696742 
L 81.011228 198.775859 
L 81.214263 235.675088 
L 81.620335 190.687754 
L 81.823371 188.433263 
L 82.026407 240.24594 
L 82.229443 198.237965 
L 82.432479 228.782757 
L 82.635515 183.436922 
L 83.041587 201.579793 
L 83.244623 203.880617 
L 83.447659 176.190982 
L 83.650695 203.501258 
L 84.056767 187.686075 
L 84.259803 176.429318 
L 84.462839 187.318036 
L 84.665875 190.658703 
L 84.868911 202.935042 
L 85.071947 188.017305 
L 85.274983 192.800701 
L 85.478019 190.289697 
L 85.681055 178.338551 
L 85.884091 201.233519 
L 86.087127 207.481578 
L 86.290163 207.075516 
L 86.696235 186.01018 
L 86.899271 195.71226 
L 87.102307 175.104826 
L 87.508379 207.044828 
L 87.711415 186.941746 
L 87.914451 183.405604 
L 88.117487 193.39296 
L 88.320523 179.230414 
L 88.523559 179.102046 
L 88.726595 180.407513 
L 89.335703 197.423575 
L 89.538739 215.446846 
L 89.944811 174.728802 
L 90.350883 190.973991 
L 90.553919 181.434624 
L 90.756955 212.570594 
L 90.959991 213.766445 
L 91.163027 221.161206 
L 91.366063 189.849885 
L 91.569099 202.119565 
L 91.772135 198.916872 
L 91.975171 192.090458 
L 92.178207 181.447388 
L 92.381243 182.50821 
L 92.787315 200.902423 
L 92.990351 200.425459 
L 93.193387 186.459658 
L 93.396423 214.363165 
L 93.599459 215.206595 
L 93.802495 183.101965 
L 94.005531 195.078543 
L 94.208567 176.209241 
L 94.411603 217.38267 
L 94.614639 184.096283 
L 95.020711 207.626071 
L 95.223747 200.758362 
L 95.426783 207.02026 
L 95.629819 189.872495 
L 95.832855 195.456422 
L 96.035891 175.227549 
L 96.238927 214.472242 
L 96.441963 191.510547 
L 96.644999 189.392893 
L 96.848035 204.071987 
L 97.051071 191.292406 
L 97.254107 189.74071 
L 97.457143 194.80639 
L 97.660179 224.188521 
L 97.863215 211.375 
L 98.066251 176.55503 
L 98.269287 200.686353 
L 98.472323 208.804732 
L 98.878394 178.517075 
L 99.08143 194.691646 
L 99.284466 186.749347 
L 99.487502 183.994413 
L 99.893574 169.870188 
L 100.09661 223.518289 
L 100.299646 190.639142 
L 100.502682 183.892147 
L 100.705718 205.650241 
L 101.11179 179.905656 
L 101.517862 213.5365 
L 101.720898 199.561915 
L 101.923934 200.333977 
L 102.12697 205.227372 
L 102.330006 191.391789 
L 102.736078 250.297094 
L 102.939114 181.311384 
L 103.345186 235.054198 
L 103.548222 181.37115 
L 103.751258 219.783562 
L 103.954294 209.890617 
L 104.15733 180.835798 
L 104.360366 218.225338 
L 104.563402 195.204646 
L 104.766438 193.246125 
L 104.969474 186.19175 
L 105.17251 189.286645 
L 105.375546 181.997221 
L 105.781618 204.049662 
L 105.984654 176.752712 
L 106.18769 207.450266 
L 106.390726 201.86142 
L 106.593762 200.860417 
L 106.796798 211.071121 
L 106.999834 207.926712 
L 107.20287 216.802596 
L 107.405906 218.106079 
L 107.608942 190.573339 
L 107.811978 207.107485 
L 108.015014 204.564706 
L 108.421086 214.072775 
L 108.624122 174.517063 
L 108.827158 207.509976 
L 109.030194 194.584619 
L 109.23323 171.122942 
L 109.436266 191.007563 
L 109.639302 193.868307 
L 110.045374 214.548064 
L 110.451446 183.3335 
L 110.654482 201.335457 
L 111.060554 175.980114 
L 111.466626 216.663442 
L 112.075734 178.425887 
L 112.27877 175.124444 
L 112.481806 200.742955 
L 112.684842 191.01747 
L 112.887878 227.0057 
L 113.29395 215.51403 
L 113.700022 178.235055 
L 113.903058 186.678965 
L 114.106094 34.414125 
L 114.30913 198.664384 
L 114.512166 184.715191 
L 114.715202 189.215726 
L 114.918238 186.672543 
L 115.121274 192.523713 
L 115.32431 185.529088 
L 115.527346 215.126057 
L 115.730382 193.282542 
L 115.933418 208.967221 
L 116.136454 192.852682 
L 116.339489 196.370804 
L 116.745561 245.257428 
L 116.948597 189.647342 
L 117.151633 193.171718 
L 117.354669 276.334125 
L 117.557705 200.347209 
L 117.760741 210.571433 
L 117.963777 210.570185 
L 118.166813 187.651289 
L 118.369849 194.504363 
L 118.572885 218.02168 
L 118.775921 191.177173 
L 118.978957 186.051042 
L 119.181993 218.479699 
L 119.385029 218.186751 
L 119.588065 170.158319 
L 119.791101 189.599428 
L 119.994137 179.714907 
L 120.197173 214.686939 
L 120.400209 193.923387 
L 120.603245 224.547922 
L 120.806281 179.130042 
L 121.009317 221.978963 
L 121.212353 173.290571 
L 121.415389 196.538807 
L 121.618425 190.442998 
L 121.821461 197.766312 
L 122.024497 184.247612 
L 122.227533 205.588148 
L 122.430569 207.994782 
L 122.633605 199.069787 
L 122.836641 202.952716 
L 123.242713 215.727586 
L 123.445749 188.110681 
L 123.648785 189.297045 
L 123.851821 182.63448 
L 124.054857 195.926205 
L 124.257893 174.11624 
L 124.460929 178.100324 
L 124.867001 214.477271 
L 125.070037 186.866051 
L 125.273073 214.113635 
L 125.679145 171.140082 
L 125.882181 225.606742 
L 126.288253 197.754564 
L 126.491289 199.831247 
L 126.694325 217.847568 
L 126.897361 223.661462 
L 127.303433 209.196579 
L 127.506469 223.48735 
L 127.709505 212.532193 
L 127.912541 193.993581 
L 128.115577 192.793414 
L 128.318613 201.644187 
L 128.521649 218.16479 
L 128.927721 175.422965 
L 129.130757 245.215401 
L 129.333793 202.267702 
L 129.536829 218.162851 
L 129.739865 192.026555 
L 129.942901 189.918876 
L 130.145937 215.177726 
L 130.348973 196.48101 
L 130.552009 203.160275 
L 130.755045 205.117061 
L 130.958081 194.992636 
L 131.161117 191.10958 
L 131.364153 208.959999 
L 131.770225 180.153403 
L 131.973261 178.438701 
L 132.176297 178.323056 
L 132.379333 183.744278 
L 132.582369 192.868131 
L 132.785405 192.748292 
L 132.988441 200.225581 
L 133.191477 195.384593 
L 133.394513 179.971166 
L 133.800584 201.132215 
L 134.206656 189.240531 
L 134.409692 200.622242 
L 134.612728 185.43251 
L 134.815764 212.241699 
L 135.0188 195.029534 
L 135.221836 194.636769 
L 135.424872 191.803737 
L 135.627908 194.974278 
L 135.830944 190.705952 
L 136.03398 191.064206 
L 136.237016 198.911585 
L 136.440052 193.529288 
L 136.643088 176.170578 
L 136.846124 210.399389 
L 137.04916 192.656666 
L 137.252196 192.005167 
L 137.455232 196.608673 
L 137.658268 180.039405 
L 137.861304 182.11942 
L 138.06434 192.578381 
L 138.267376 184.242897 
L 138.470412 190.959598 
L 138.673448 218.324435 
L 138.876484 200.452153 
L 139.07952 202.790057 
L 139.282556 184.967207 
L 139.485592 187.355421 
L 139.688628 205.739592 
L 139.891664 184.36662 
L 140.0947 176.281985 
L 140.297736 222.429998 
L 140.500772 188.202901 
L 140.906844 201.73119 
L 141.10988 200.943306 
L 141.515952 210.594354 
L 141.718988 197.027177 
L 141.922024 197.94609 
L 142.12506 220.746799 
L 142.531132 184.074958 
L 142.734168 193.52857 
L 142.937204 215.471316 
L 143.343276 191.791498 
L 143.546312 182.25387 
L 143.749348 191.125096 
L 143.952384 189.997287 
L 144.15542 183.501727 
L 144.358456 172.591649 
L 144.561492 186.641116 
L 144.764528 185.689516 
L 144.967564 198.022159 
L 145.1706 195.797008 
L 145.373636 208.408564 
L 145.576672 204.417522 
L 145.779708 196.494962 
L 145.982744 182.098609 
L 146.18578 198.760568 
L 146.388816 195.838398 
L 146.591852 217.247277 
L 146.794888 188.935383 
L 146.997924 223.733783 
L 147.20096 231.823028 
L 147.403996 208.172825 
L 147.607032 211.26893 
L 147.810068 207.960349 
L 148.013104 192.563105 
L 148.21614 228.1615 
L 148.419176 184.866764 
L 148.622212 190.675814 
L 148.825248 249.454777 
L 149.028284 206.415716 
L 149.23132 197.078511 
L 149.434356 182.15142 
L 149.637392 216.223799 
L 150.043464 187.524213 
L 150.2465 183.511789 
L 150.449536 219.218532 
L 150.855608 191.185609 
L 151.058644 196.931629 
L 151.261679 181.744586 
L 151.464715 191.296756 
L 151.667751 188.11803 
L 151.870787 196.402401 
L 152.073823 195.444996 
L 152.276859 199.898947 
L 152.479895 189.049156 
L 152.682931 189.139466 
L 152.885967 207.16016 
L 153.089003 199.854362 
L 153.292039 187.838774 
L 153.698111 218.576004 
L 153.901147 211.257322 
L 154.104183 177.113934 
L 154.307219 187.489419 
L 154.510255 182.48063 
L 154.916327 212.961227 
L 155.119363 204.054411 
L 155.322399 187.727849 
L 155.728471 200.821834 
L 155.931507 197.544808 
L 156.134543 190.48312 
L 156.337579 202.213552 
L 156.540615 202.287918 
L 156.743651 248.892692 
L 156.946687 193.725003 
L 157.149723 225.654848 
L 157.352759 194.101785 
L 157.555795 181.261366 
L 157.758831 199.620503 
L 157.961867 171.234074 
L 158.164903 206.489652 
L 158.367939 183.002489 
L 158.570975 206.85679 
L 158.774011 185.381258 
L 158.977047 206.38196 
L 159.180083 185.173031 
L 159.383119 200.365088 
L 159.586155 186.005101 
L 159.789191 182.15937 
L 159.992227 196.371527 
L 160.195263 198.943425 
L 160.398299 193.506743 
L 160.601335 196.921934 
L 160.804371 185.60737 
L 161.007407 188.121975 
L 161.210443 174.231142 
L 161.413479 207.747781 
L 161.616515 190.643355 
L 161.819551 197.217827 
L 162.022587 184.921289 
L 162.225623 182.006564 
L 162.428659 208.884299 
L 162.631695 186.115623 
L 162.834731 185.933766 
L 163.037767 196.982689 
L 163.240803 192.011073 
L 163.443839 213.247952 
L 163.646875 184.915889 
L 163.849911 197.021608 
L 164.052947 183.569509 
L 164.255983 221.163091 
L 164.459019 231.149076 
L 164.662055 199.87713 
L 164.865091 200.766008 
L 165.271163 191.531508 
L 165.474199 190.888086 
L 165.677235 197.435322 
L 165.880271 236.016839 
L 166.286343 175.571719 
L 166.489379 212.120683 
L 166.692415 187.269743 
L 166.895451 186.222007 
L 167.098487 196.9154 
L 167.301523 190.515425 
L 167.504559 189.43489 
L 167.707595 212.013054 
L 167.910631 175.435969 
L 168.113667 189.972926 
L 168.316703 191.527063 
L 168.519739 203.20926 
L 168.722774 193.355024 
L 168.92581 224.104655 
L 169.128846 196.32442 
L 169.331882 212.15629 
L 169.534918 181.995197 
L 169.737954 186.704791 
L 169.94099 177.139577 
L 170.144026 186.547498 
L 170.347062 175.833781 
L 170.550098 195.564838 
L 170.753134 196.813443 
L 170.95617 204.246786 
L 171.159206 183.806021 
L 171.362242 200.542401 
L 171.565278 185.450099 
L 171.768314 205.832284 
L 172.174386 201.933484 
L 172.377422 198.3213 
L 172.783494 217.7879 
L 172.98653 189.05375 
L 173.189566 203.996412 
L 173.595638 179.758175 
L 173.798674 186.034402 
L 174.00171 226.468576 
L 174.204746 217.35998 
L 174.407782 185.537397 
L 174.813854 221.758856 
L 175.01689 190.368493 
L 175.422962 198.145317 
L 175.829034 185.54855 
L 176.03207 210.656062 
L 176.235106 178.774302 
L 176.438142 193.444887 
L 176.641178 176.110502 
L 176.844214 181.500643 
L 177.04725 202.676991 
L 177.250286 186.732264 
L 177.453322 198.777782 
L 177.656358 197.787187 
L 177.859394 201.99258 
L 178.265466 183.179218 
L 178.468502 187.092037 
L 178.671538 209.571366 
L 178.874574 194.46234 
L 179.07761 232.878179 
L 179.280646 179.558484 
L 179.483682 173.007464 
L 179.686718 239.982019 
L 180.09279 180.352286 
L 180.295826 193.512181 
L 180.498862 176.510118 
L 180.701898 188.669472 
L 180.904934 215.813339 
L 181.10797 197.383666 
L 181.311006 193.543571 
L 181.514042 187.130031 
L 181.920114 207.396813 
L 182.12315 192.332192 
L 182.326186 204.092822 
L 182.529222 192.12408 
L 182.732258 203.918406 
L 183.13833 177.512058 
L 183.341366 176.175463 
L 183.544402 196.283228 
L 183.747438 192.104184 
L 183.950474 217.099595 
L 184.15351 194.139627 
L 184.356546 188.650703 
L 184.559582 195.497128 
L 184.762618 207.498293 
L 184.965654 180.252601 
L 185.16869 180.646073 
L 185.371726 211.802522 
L 185.574762 179.223839 
L 185.777798 210.121987 
L 185.980834 181.610934 
L 186.183869 180.706638 
L 186.386905 178.016703 
L 186.589941 177.93237 
L 186.792977 187.907082 
L 186.996013 210.522008 
L 187.199049 196.742636 
L 187.402085 192.503311 
L 187.605121 226.021071 
L 187.808157 176.906622 
L 188.011193 182.397612 
L 188.417265 210.823686 
L 188.620301 195.944331 
L 188.823337 195.992314 
L 189.026373 202.139726 
L 189.229409 202.90998 
L 189.432445 205.191729 
L 189.635481 202.238647 
L 189.838517 184.377679 
L 190.041553 203.126375 
L 190.244589 183.671144 
L 190.447625 201.843792 
L 190.650661 198.389449 
L 190.853697 187.455376 
L 191.056733 218.818623 
L 191.259769 195.930838 
L 191.462805 191.654906 
L 191.665841 201.87951 
L 192.071913 190.135697 
L 192.274949 207.598937 
L 192.477985 215.44788 
L 192.681021 211.36845 
L 192.884057 218.706135 
L 193.087093 196.668162 
L 193.290129 199.766753 
L 193.493165 195.334878 
L 193.696201 202.791954 
L 193.899237 176.408347 
L 194.102273 204.258195 
L 194.508345 184.271631 
L 194.711381 203.255721 
L 194.914417 181.765686 
L 195.117453 214.065756 
L 195.320489 191.031802 
L 195.523525 207.622011 
L 195.726561 202.01159 
L 195.929597 188.276 
L 196.132633 209.501479 
L 196.335669 189.572542 
L 196.538705 220.682674 
L 196.944777 185.444201 
L 197.147813 177.001088 
L 197.350849 215.384107 
L 197.553885 216.759639 
L 197.756921 182.408749 
L 197.959957 191.139695 
L 198.162993 171.232218 
L 198.366029 197.43001 
L 198.569065 189.100299 
L 198.772101 190.589991 
L 198.975137 185.918717 
L 199.178173 204.26376 
L 199.381209 180.638591 
L 199.584245 180.775206 
L 199.787281 177.036401 
L 199.990317 197.638553 
L 200.193353 188.000478 
L 200.396389 184.318111 
L 200.599425 188.409529 
L 200.802461 177.957238 
L 201.005497 185.185207 
L 201.208533 202.469324 
L 201.614605 180.424336 
L 202.020677 189.221939 
L 202.223713 182.164709 
L 202.426749 201.065624 
L 202.629785 185.138278 
L 202.832821 194.715659 
L 203.035857 210.897497 
L 203.238893 193.573222 
L 203.441929 192.125526 
L 203.644965 178.33258 
L 203.848 208.541673 
L 204.051036 199.516176 
L 204.254072 197.757246 
L 204.457108 197.444747 
L 204.660144 203.443755 
L 204.86318 189.408637 
L 205.066216 197.382069 
L 205.269252 186.681839 
L 205.472288 187.70686 
L 205.675324 213.380141 
L 205.87836 188.012852 
L 206.081396 221.272523 
L 206.284432 179.198814 
L 206.487468 187.014117 
L 206.690504 210.640294 
L 206.89354 217.848751 
L 207.096576 201.404809 
L 207.299612 202.763612 
L 207.502648 185.549411 
L 207.705684 188.945102 
L 207.90872 174.881728 
L 208.111756 184.630259 
L 208.314792 201.649875 
L 208.517828 192.954581 
L 208.720864 191.707103 
L 208.9239 202.161994 
L 209.126936 201.045535 
L 209.329972 196.207264 
L 209.533008 184.525049 
L 209.736044 193.030685 
L 209.93908 175.696026 
L 210.142116 195.42766 
L 210.345152 177.668105 
L 210.548188 202.450012 
L 210.751224 212.812807 
L 210.95426 195.83194 
L 211.157296 207.538491 
L 211.360332 179.896353 
L 211.563368 209.174586 
L 211.766404 219.747724 
L 211.96944 213.078167 
L 212.172476 192.254587 
L 212.375512 211.939276 
L 212.578548 208.366706 
L 212.781584 188.784317 
L 212.98462 192.902553 
L 213.187656 176.892511 
L 213.390692 232.628386 
L 213.593728 218.994885 
L 213.796764 187.799968 
L 213.9998 202.533229 
L 214.202836 194.279914 
L 214.405872 216.308232 
L 214.608908 182.95903 
L 214.811944 176.785041 
L 215.218016 204.949856 
L 215.421052 188.644326 
L 215.624088 183.442188 
L 215.827124 226.823899 
L 216.233196 174.654796 
L 216.436232 185.034769 
L 216.639268 214.65568 
L 216.842304 200.062795 
L 217.248376 187.51319 
L 217.451412 206.26941 
L 217.857484 193.383266 
L 218.06052 195.156083 
L 218.263556 247.661713 
L 218.466592 181.717338 
L 218.872664 220.665987 
L 219.0757 187.175531 
L 219.278736 174.214863 
L 219.481772 193.182895 
L 219.684808 184.65217 
L 219.887844 226.490284 
L 220.09088 215.735899 
L 220.293916 187.021929 
L 220.496952 237.816598 
L 220.699988 221.006441 
L 220.903024 177.962935 
L 221.10606 227.966309 
L 221.309095 193.418491 
L 221.512131 195.860827 
L 221.715167 218.989036 
L 221.918203 177.191536 
L 222.121239 209.564784 
L 222.324275 180.618612 
L 222.730347 221.050155 
L 222.933383 210.771178 
L 223.136419 190.387308 
L 223.339455 206.218872 
L 223.542491 204.590775 
L 223.745527 205.999346 
L 223.948563 206.072537 
L 224.151599 195.421677 
L 224.354635 233.822049 
L 224.557671 179.074269 
L 224.760707 196.678579 
L 224.963743 181.427826 
L 225.166779 212.66448 
L 225.369815 213.642649 
L 225.572851 179.960848 
L 225.775887 201.096068 
L 225.978923 199.56123 
L 226.181959 238.102314 
L 226.384995 176.763583 
L 226.588031 193.123589 
L 226.994103 208.556254 
L 227.197139 200.778282 
L 227.400175 197.988585 
L 227.806247 218.235053 
L 228.009283 178.786964 
L 228.212319 187.148813 
L 228.415355 211.866048 
L 228.618391 192.320257 
L 228.821427 224.709829 
L 229.227499 180.507835 
L 229.430535 190.752337 
L 229.633571 176.512083 
L 229.836607 232.928099 
L 230.039643 176.512083 
L 230.242679 190.752337 
L 230.445715 180.507835 
L 230.851787 224.709829 
L 231.054823 192.320257 
L 231.257859 211.866048 
L 231.460895 187.148813 
L 231.663931 178.786964 
L 231.866967 218.235053 
L 232.273039 197.988585 
L 232.476075 200.778282 
L 232.679111 208.556254 
L 233.085183 193.123589 
L 233.288219 176.763583 
L 233.491255 238.102314 
L 233.694291 199.56123 
L 233.897327 201.096068 
L 234.100363 179.960848 
L 234.303399 213.642649 
L 234.506435 212.66448 
L 234.709471 181.427826 
L 234.912507 196.678579 
L 235.115543 179.074269 
L 235.318579 233.822049 
L 235.521615 195.421677 
L 235.724651 206.072537 
L 235.927687 205.999346 
L 236.130723 204.590775 
L 236.333759 206.218872 
L 236.536795 190.387308 
L 236.942867 221.050155 
L 237.348939 180.618612 
L 237.551975 209.564784 
L 237.755011 177.191536 
L 237.958047 218.989036 
L 238.161083 195.860827 
L 238.364119 193.418491 
L 238.567155 227.966309 
L 238.77019 177.962935 
L 238.973226 221.006441 
L 239.176262 237.816598 
L 239.379298 187.021929 
L 239.582334 215.735899 
L 239.78537 226.490284 
L 239.988406 184.65217 
L 240.191442 193.182895 
L 240.394478 174.214863 
L 240.597514 187.175531 
L 240.80055 220.665987 
L 241.003586 206.128584 
L 241.206622 181.717338 
L 241.409658 247.661713 
L 241.612694 195.156083 
L 241.81573 193.383266 
L 242.221802 206.26941 
L 242.424838 187.51319 
L 242.83091 200.062795 
L 243.033946 214.65568 
L 243.236982 185.034769 
L 243.440018 174.654796 
L 243.84609 226.823899 
L 244.049126 183.442188 
L 244.252162 188.644326 
L 244.455198 204.949856 
L 244.658234 196.003231 
L 244.86127 176.785041 
L 245.064306 182.95903 
L 245.267342 216.308232 
L 245.470378 194.279914 
L 245.673414 202.533229 
L 245.87645 187.799968 
L 246.079486 218.994885 
L 246.282522 232.628386 
L 246.485558 176.892511 
L 246.688594 192.902553 
L 246.89163 188.784317 
L 247.094666 208.366706 
L 247.297702 211.939276 
L 247.500738 192.254587 
L 247.703774 213.078167 
L 247.90681 219.747724 
L 248.109846 209.174586 
L 248.312882 179.896353 
L 248.515918 207.538491 
L 248.718954 195.83194 
L 248.92199 212.812807 
L 249.125026 202.450012 
L 249.328062 177.668105 
L 249.531098 195.42766 
L 249.734134 175.696026 
L 249.93717 193.030685 
L 250.140206 184.525049 
L 250.343242 196.207264 
L 250.546278 201.045535 
L 250.749314 202.161994 
L 250.95235 191.707103 
L 251.155386 192.954581 
L 251.358422 201.649875 
L 251.764494 174.881728 
L 251.96753 188.945102 
L 252.170566 185.549411 
L 252.373602 202.763612 
L 252.576638 201.404809 
L 252.779674 217.848751 
L 252.98271 210.640294 
L 253.185746 187.014117 
L 253.388782 179.198814 
L 253.591818 221.272523 
L 253.794854 188.012852 
L 253.99789 213.380141 
L 254.200926 187.70686 
L 254.403962 186.681839 
L 254.606998 197.382069 
L 254.810034 189.408637 
L 255.01307 203.443755 
L 255.216106 197.444747 
L 255.419142 197.757246 
L 255.622178 199.516176 
L 255.825214 208.541673 
L 256.02825 178.33258 
L 256.231285 192.125526 
L 256.434321 193.573222 
L 256.637357 210.897497 
L 257.043429 185.138278 
L 257.246465 201.065624 
L 257.449501 182.164709 
L 257.652537 189.221939 
L 257.855573 186.10028 
L 258.058609 180.424336 
L 258.261645 188.057003 
L 258.464681 202.469324 
L 258.667717 185.185207 
L 258.870753 177.957238 
L 259.073789 188.409529 
L 259.276825 184.318111 
L 259.479861 188.000478 
L 259.682897 197.638553 
L 259.885933 177.036401 
L 260.088969 180.775206 
L 260.292005 180.638591 
L 260.495041 204.26376 
L 260.698077 185.918717 
L 260.901113 190.589991 
L 261.104149 189.100299 
L 261.307185 197.43001 
L 261.510221 171.232218 
L 261.713257 191.139695 
L 261.916293 182.408749 
L 262.119329 216.759639 
L 262.322365 215.384107 
L 262.525401 177.001088 
L 262.728437 185.444201 
L 263.134509 220.682674 
L 263.337545 189.572542 
L 263.540581 209.501479 
L 263.743617 188.276 
L 263.946653 202.01159 
L 264.149689 207.622011 
L 264.352725 191.031802 
L 264.555761 214.065756 
L 264.758797 181.765686 
L 264.961833 203.255721 
L 265.164869 184.271631 
L 265.570941 204.258195 
L 265.773977 176.408347 
L 265.977013 202.791954 
L 266.180049 195.334878 
L 266.383085 199.766753 
L 266.586121 196.668162 
L 266.789157 218.706135 
L 266.992193 211.36845 
L 267.195229 215.44788 
L 267.398265 207.598937 
L 267.601301 190.135697 
L 268.007373 201.87951 
L 268.210409 191.654906 
L 268.413445 195.930838 
L 268.616481 218.818623 
L 268.819517 187.455376 
L 269.022553 198.389449 
L 269.225589 201.843792 
L 269.428625 183.671144 
L 269.631661 203.126375 
L 269.834697 184.377679 
L 270.037733 202.238647 
L 270.240769 205.191729 
L 270.443805 202.90998 
L 270.646841 202.139726 
L 270.849877 195.992314 
L 271.052913 195.944331 
L 271.255949 210.823686 
L 271.662021 182.397612 
L 271.865057 176.906622 
L 272.068093 226.021071 
L 272.271129 192.503311 
L 272.474165 196.742636 
L 272.677201 210.522008 
L 272.880237 187.907082 
L 273.083273 177.93237 
L 273.286309 178.016703 
L 273.489345 180.706638 
L 273.692381 181.610934 
L 273.895416 210.121987 
L 274.098452 179.223839 
L 274.301488 211.802522 
L 274.504524 180.646073 
L 274.70756 180.252601 
L 274.910596 207.498293 
L 275.316668 188.650703 
L 275.519704 194.139627 
L 275.72274 217.099595 
L 275.925776 192.104184 
L 276.128812 196.283228 
L 276.331848 176.175463 
L 276.534884 177.512058 
L 276.940956 203.918406 
L 277.143992 192.12408 
L 277.347028 204.092822 
L 277.550064 192.332192 
L 277.7531 207.396813 
L 278.159172 187.130031 
L 278.565244 197.383666 
L 278.76828 215.813339 
L 278.971316 188.669472 
L 279.174352 176.510118 
L 279.377388 193.512181 
L 279.580424 180.352286 
L 279.986496 239.982019 
L 280.189532 173.007464 
L 280.392568 179.558484 
L 280.595604 232.878179 
L 280.79864 194.46234 
L 281.001676 209.571366 
L 281.204712 187.092037 
L 281.407748 183.179218 
L 281.81382 201.99258 
L 282.016856 197.787187 
L 282.219892 198.777782 
L 282.422928 186.732264 
L 282.625964 202.676991 
L 282.829 181.500643 
L 283.032036 176.110502 
L 283.235072 193.444887 
L 283.438108 178.774302 
L 283.641144 210.656062 
L 283.84418 185.54855 
L 284.047216 189.537702 
L 284.250252 198.145317 
L 284.656324 190.368493 
L 284.85936 221.758856 
L 285.265432 185.537397 
L 285.468468 217.35998 
L 285.671504 226.468576 
L 285.87454 186.034402 
L 286.077576 179.758175 
L 286.483648 203.996412 
L 286.686684 189.05375 
L 286.88972 217.7879 
L 287.295792 198.3213 
L 287.701864 203.951094 
L 287.9049 205.832284 
L 288.107936 185.450099 
L 288.310972 200.542401 
L 288.514008 183.806021 
L 288.717044 204.246786 
L 288.92008 196.813443 
L 289.123116 195.564838 
L 289.326152 175.833781 
L 289.529188 186.547498 
L 289.732224 177.139577 
L 289.93526 186.704791 
L 290.138296 181.995197 
L 290.341332 212.15629 
L 290.544368 196.32442 
L 290.747404 224.104655 
L 290.95044 193.355024 
L 291.153476 203.20926 
L 291.356511 191.527063 
L 291.559547 189.972926 
L 291.762583 175.435969 
L 291.965619 212.013054 
L 292.168655 189.43489 
L 292.371691 190.515425 
L 292.574727 196.9154 
L 292.777763 186.222007 
L 292.980799 187.269743 
L 293.183835 212.120683 
L 293.386871 175.571719 
L 293.589907 198.024796 
L 293.792943 236.016839 
L 293.995979 197.435322 
L 294.199015 190.888086 
L 294.402051 191.531508 
L 294.808123 200.766008 
L 295.011159 199.87713 
L 295.214195 231.149076 
L 295.417231 221.163091 
L 295.620267 183.569509 
L 295.823303 197.021608 
L 296.026339 184.915889 
L 296.229375 213.247952 
L 296.432411 192.011073 
L 296.635447 196.982689 
L 296.838483 185.933766 
L 297.041519 186.115623 
L 297.244555 208.884299 
L 297.447591 182.006564 
L 297.650627 184.921289 
L 297.853663 197.217827 
L 298.056699 190.643355 
L 298.259735 207.747781 
L 298.462771 174.231142 
L 298.665807 188.121975 
L 298.868843 185.60737 
L 299.071879 196.921934 
L 299.274915 193.506743 
L 299.477951 198.943425 
L 299.680987 196.371527 
L 299.884023 182.15937 
L 300.087059 186.005101 
L 300.290095 200.365088 
L 300.493131 185.173031 
L 300.696167 206.38196 
L 300.899203 185.381258 
L 301.102239 206.85679 
L 301.305275 183.002489 
L 301.508311 206.489652 
L 301.711347 171.234074 
L 301.914383 199.620503 
L 302.117419 181.261366 
L 302.320455 194.101785 
L 302.523491 225.654848 
L 302.726527 193.725003 
L 302.929563 248.892692 
L 303.132599 202.287918 
L 303.335635 202.213552 
L 303.538671 190.48312 
L 303.944743 200.821834 
L 304.350815 187.727849 
L 304.756887 212.961227 
L 304.959923 203.25155 
L 305.162959 182.48063 
L 305.365995 187.489419 
L 305.569031 177.113934 
L 305.772067 211.257322 
L 305.975103 218.576004 
L 306.381175 187.838774 
L 306.787247 207.16016 
L 306.990283 189.139466 
L 307.193319 189.049156 
L 307.396355 199.898947 
L 307.599391 195.444996 
L 307.802427 196.402401 
L 308.005463 188.11803 
L 308.208499 191.296756 
L 308.411535 181.744586 
L 308.614571 196.931629 
L 308.817606 191.185609 
L 309.020642 200.467677 
L 309.223678 219.218532 
L 309.426714 183.511789 
L 309.62975 187.524213 
L 309.832786 197.124879 
L 310.035822 216.223799 
L 310.238858 182.15142 
L 310.64493 206.415716 
L 310.847966 249.454777 
L 311.051002 190.675814 
L 311.254038 184.866764 
L 311.457074 228.1615 
L 311.66011 192.563105 
L 311.863146 207.960349 
L 312.066182 211.26893 
L 312.269218 208.172825 
L 312.472254 231.823028 
L 312.67529 223.733783 
L 312.878326 188.935383 
L 313.081362 217.247277 
L 313.284398 195.838398 
L 313.487434 198.760568 
L 313.69047 182.098609 
L 314.096542 204.417522 
L 314.299578 208.408564 
L 314.502614 195.797008 
L 314.70565 198.022159 
L 314.908686 185.689516 
L 315.111722 186.641116 
L 315.314758 172.591649 
L 315.72083 189.997287 
L 315.923866 191.125096 
L 316.126902 182.25387 
L 316.73601 215.471316 
L 316.939046 193.52857 
L 317.142082 184.074958 
L 317.548154 220.746799 
L 317.75119 197.94609 
L 317.954226 197.027177 
L 318.157262 210.594354 
L 318.563334 200.943306 
L 318.76637 201.73119 
L 319.172442 188.202901 
L 319.375478 222.429998 
L 319.578514 176.281985 
L 319.78155 184.36662 
L 319.984586 205.739592 
L 320.187622 187.355421 
L 320.390658 184.967207 
L 320.593694 202.790057 
L 320.79673 200.452153 
L 320.999766 218.324435 
L 321.202802 190.959598 
L 321.405838 184.242897 
L 321.608874 192.578381 
L 321.81191 182.11942 
L 322.014946 180.039405 
L 322.217982 196.608673 
L 322.421018 192.005167 
L 322.624054 192.656666 
L 322.82709 210.399389 
L 323.030126 176.170578 
L 323.233162 193.529288 
L 323.436198 198.911585 
L 323.639234 191.064206 
L 323.84227 190.705952 
L 324.045306 194.974278 
L 324.248342 191.803737 
L 324.451378 194.636769 
L 324.654414 195.029534 
L 324.85745 212.241699 
L 325.060486 185.43251 
L 325.263522 200.622242 
L 325.466558 189.240531 
L 325.87263 201.132215 
L 326.075666 194.399559 
L 326.278701 179.971166 
L 326.481737 195.384593 
L 326.684773 200.225581 
L 326.887809 192.748292 
L 327.090845 192.868131 
L 327.496917 178.323056 
L 327.699953 178.438701 
L 327.902989 180.153403 
L 328.309061 208.959999 
L 328.512097 191.10958 
L 328.715133 194.992636 
L 328.918169 205.117061 
L 329.121205 203.160275 
L 329.324241 196.48101 
L 329.527277 215.177726 
L 329.730313 189.918876 
L 329.933349 192.026555 
L 330.136385 218.162851 
L 330.339421 202.267702 
L 330.542457 245.215401 
L 330.745493 175.422965 
L 331.151565 218.16479 
L 331.557637 192.793414 
L 331.760673 193.993581 
L 332.166745 223.48735 
L 332.369781 209.196579 
L 332.572817 214.718335 
L 332.775853 223.661462 
L 332.978889 217.847568 
L 333.181925 199.831247 
L 333.384961 197.754564 
L 333.791033 225.606742 
L 333.994069 171.140082 
L 334.400141 214.113635 
L 334.603177 186.866051 
L 334.806213 214.477271 
L 335.212285 178.100324 
L 335.415321 174.11624 
L 335.618357 195.926205 
L 335.821393 182.63448 
L 336.024429 189.297045 
L 336.227465 188.110681 
L 336.430501 215.727586 
L 337.039609 199.069787 
L 337.242645 207.994782 
L 337.445681 205.588148 
L 337.648717 184.247612 
L 337.851753 197.766312 
L 338.054789 190.442998 
L 338.257825 196.538807 
L 338.460861 173.290571 
L 338.663897 221.978963 
L 338.866933 179.130042 
L 339.069969 224.547922 
L 339.273005 193.923387 
L 339.476041 214.686939 
L 339.679077 179.714907 
L 339.882113 189.599428 
L 340.085149 170.158319 
L 340.288185 218.186751 
L 340.491221 218.479699 
L 340.694257 186.051042 
L 340.897293 191.177173 
L 341.100329 218.02168 
L 341.303365 194.504363 
L 341.506401 187.651289 
L 341.709437 210.570185 
L 341.912473 210.571433 
L 342.115509 200.347209 
L 342.318545 276.334125 
L 342.521581 193.171718 
L 342.724617 189.647342 
L 342.927653 245.257428 
L 343.333725 196.370804 
L 343.536761 192.852682 
L 343.739796 208.967221 
L 343.942832 193.282542 
L 344.145868 215.126057 
L 344.348904 185.529088 
L 344.55194 192.523713 
L 344.754976 186.672543 
L 344.958012 189.215726 
L 345.161048 184.715191 
L 345.364084 198.664384 
L 345.56712 34.414125 
L 345.770156 186.678965 
L 345.973192 178.235055 
L 346.5823 220.031116 
L 346.785336 227.0057 
L 346.988372 191.01747 
L 347.191408 200.742955 
L 347.394444 175.124444 
L 347.59748 178.425887 
L 347.800516 187.136739 
L 348.206588 216.663442 
L 348.61266 175.980114 
L 349.018732 201.335457 
L 349.221768 183.3335 
L 349.62784 214.548064 
L 350.236948 191.007563 
L 350.439984 171.122942 
L 350.846056 207.509976 
L 351.049092 174.517063 
L 351.252128 214.072775 
L 351.455164 210.420311 
L 351.6582 204.564706 
L 351.861236 207.107485 
L 352.064272 190.573339 
L 352.267308 218.106079 
L 352.470344 216.802596 
L 352.67338 207.926712 
L 352.876416 211.071121 
L 353.079452 200.860417 
L 353.282488 201.86142 
L 353.485524 207.450266 
L 353.68856 176.752712 
L 353.891596 204.049662 
L 354.297668 181.997221 
L 354.500704 189.286645 
L 354.70374 186.19175 
L 354.906776 193.246125 
L 355.109812 195.204646 
L 355.312848 218.225338 
L 355.515884 180.835798 
L 355.71892 209.890617 
L 355.921956 219.783562 
L 356.124992 181.37115 
L 356.328028 235.054198 
L 356.7341 181.311384 
L 356.937136 250.297094 
L 357.343208 191.391789 
L 357.546244 205.227372 
L 357.74928 200.333977 
L 357.952316 199.561915 
L 358.155352 213.5365 
L 358.358388 200.629041 
L 358.561424 179.905656 
L 358.967496 205.650241 
L 359.170532 183.892147 
L 359.373568 190.639142 
L 359.576604 223.518289 
L 359.77964 169.870188 
L 360.185712 183.994413 
L 360.388748 186.749347 
L 360.591784 194.691646 
L 360.79482 178.517075 
L 360.997856 188.92284 
L 361.200892 208.804732 
L 361.403927 200.686353 
L 361.606963 176.55503 
L 361.809999 211.375 
L 362.013035 224.188521 
L 362.216071 194.80639 
L 362.419107 189.74071 
L 362.622143 191.292406 
L 362.825179 204.071987 
L 363.028215 189.392893 
L 363.231251 191.510547 
L 363.434287 214.472242 
L 363.637323 175.227549 
L 363.840359 195.456422 
L 364.043395 189.872495 
L 364.246431 207.02026 
L 364.449467 200.758362 
L 364.652503 207.626071 
L 365.058575 184.096283 
L 365.261611 217.38267 
L 365.464647 176.209241 
L 365.667683 195.078543 
L 365.870719 183.101965 
L 366.073755 215.206595 
L 366.276791 214.363165 
L 366.479827 186.459658 
L 366.682863 200.425459 
L 366.885899 200.902423 
L 367.291971 182.50821 
L 367.495007 181.447388 
L 367.901079 198.916872 
L 368.104115 202.119565 
L 368.307151 189.849885 
L 368.510187 221.161206 
L 368.713223 213.766445 
L 368.916259 212.570594 
L 369.119295 181.434624 
L 369.322331 190.973991 
L 369.728403 174.728802 
L 370.134475 215.446846 
L 370.337511 197.423575 
L 371.149655 179.102046 
L 371.352691 179.230414 
L 371.555727 193.39296 
L 371.758763 183.405604 
L 371.961799 186.941746 
L 372.164835 207.044828 
L 372.570907 175.104826 
L 372.773943 195.71226 
L 372.976979 186.01018 
L 373.383051 207.075516 
L 373.586087 207.481578 
L 373.789123 201.233519 
L 373.992159 178.338551 
L 374.195195 190.289697 
L 374.398231 192.800701 
L 374.601267 188.017305 
L 374.804303 202.935042 
L 375.007339 190.658703 
L 375.210375 187.318036 
L 375.413411 176.429318 
L 375.819483 196.216144 
L 376.022519 203.501258 
L 376.225555 176.190982 
L 376.428591 203.880617 
L 376.631627 201.579793 
L 377.037699 183.436922 
L 377.240735 228.782757 
L 377.443771 198.237965 
L 377.646807 240.24594 
L 377.849843 188.433263 
L 378.052879 190.687754 
L 378.255915 208.185803 
L 378.458951 235.675088 
L 378.661987 198.775859 
L 378.865022 186.696742 
L 379.068058 206.312328 
L 379.271094 213.276557 
L 379.47413 179.128404 
L 379.880202 200.296101 
L 380.083238 182.22674 
L 380.286274 243.063717 
L 380.48931 203.273927 
L 380.692346 185.638975 
L 380.895382 191.126726 
L 381.098418 171.341329 
L 381.301454 215.201448 
L 381.50449 177.084252 
L 381.910562 209.390771 
L 382.113598 184.159823 
L 382.316634 225.518478 
L 382.51967 196.151875 
L 382.722706 206.559823 
L 383.128778 191.308614 
L 383.331814 210.745309 
L 383.53485 187.766047 
L 383.737886 211.38833 
L 383.940922 185.66726 
L 384.143958 191.806951 
L 384.346994 183.973583 
L 384.55003 183.407213 
L 384.753066 188.994018 
L 384.956102 189.960047 
L 385.362174 222.291031 
L 385.56521 219.89948 
L 385.768246 189.753424 
L 385.971282 222.638823 
L 386.174318 186.160118 
L 386.58039 216.633062 
L 386.986462 183.249588 
L 387.189498 183.534612 
L 387.392534 211.618443 
L 387.798606 202.981715 
L 388.001642 190.18754 
L 388.204678 187.139607 
L 388.407714 201.890068 
L 388.61075 190.288965 
L 388.813786 218.764483 
L 389.219858 204.023396 
L 389.422894 206.322389 
L 389.828966 181.87195 
L 390.032002 191.386463 
L 390.235038 217.573086 
L 390.438074 207.8563 
L 390.64111 219.750216 
L 390.844146 213.675808 
L 391.047182 188.488006 
L 391.453254 199.678557 
L 391.65629 208.188464 
L 391.859326 172.309595 
L 392.062362 218.186686 
L 392.265398 175.207534 
L 392.265398 175.207534 
" style="fill:none;stroke:#ff0000;stroke-linecap:square;stroke-width:1.5;"/>
   </g>
   <g id="patch_3">
    <path d="M 51.378125 288.430125 
L 51.378125 22.318125 
" style="fill:none;stroke:#000000;stroke-linecap:square;stroke-linejoin:miter;stroke-width:0.8;"/>
   </g>
   <g id="patch_4">
    <path d="M 408.498125 288.430125 
L 408.498125 22.318125 
" style="fill:none;stroke:#000000;stroke-linecap:square;stroke-linejoin:miter;stroke-width:0.8;"/>
   </g>
   <g id="patch_5">
    <path d="M 51.378125 288.430125 
L 408.498125 288.430125 
" style="fill:none;stroke:#000000;stroke-linecap:square;stroke-linejoin:miter;stroke-width:0.8;"/>
   </g>
   <g id="patch_6">
    <path d="M 51.378125 22.318125 
L 408.498125 22.318125 
" style="fill:none;stroke:#000000;stroke-linecap:square;stroke-linejoin:miter;stroke-width:0.8;"/>
   </g>
   <g id="text_17">
    <!-- received signal fft -->
    <g transform="translate(176.171563 16.318125)scale(0.12 -0.12)">
     <defs>
      <path d="M 191 3500 
L 800 3500 
L 1894 563 
L 2988 3500 
L 3597 3500 
L 2284 0 
L 1503 0 
L 191 3500 
z
" id="DejaVuSans-76" transform="scale(0.015625)"/>
      <path id="DejaVuSans-20" transform="scale(0.015625)"/>
      <path d="M 2834 3397 
L 2834 2853 
Q 2591 2978 2328 3040 
Q 2066 3103 1784 3103 
Q 1356 3103 1142 2972 
Q 928 2841 928 2578 
Q 928 2378 1081 2264 
Q 1234 2150 1697 2047 
L 1894 2003 
Q 2506 1872 2764 1633 
Q 3022 1394 3022 966 
Q 3022 478 2636 193 
Q 2250 -91 1575 -91 
Q 1294 -91 989 -36 
Q 684 19 347 128 
L 347 722 
Q 666 556 975 473 
Q 1284 391 1588 391 
Q 1994 391 2212 530 
Q 2431 669 2431 922 
Q 2431 1156 2273 1281 
Q 2116 1406 1581 1522 
L 1381 1569 
Q 847 1681 609 1914 
Q 372 2147 372 2553 
Q 372 3047 722 3315 
Q 1072 3584 1716 3584 
Q 2034 3584 2315 3537 
Q 2597 3491 2834 3397 
z
" id="DejaVuSans-73" transform="scale(0.015625)"/>
      <path d="M 603 4863 
L 1178 4863 
L 1178 0 
L 603 0 
L 603 4863 
z
" id="DejaVuSans-6c" transform="scale(0.015625)"/>
     </defs>
     <use xlink:href="#DejaVuSans-72"/>
     <use x="38.863281" xlink:href="#DejaVuSans-65"/>
     <use x="100.386719" xlink:href="#DejaVuSans-63"/>
     <use x="155.367188" xlink:href="#DejaVuSans-65"/>
     <use x="216.890625" xlink:href="#DejaVuSans-69"/>
     <use x="244.673828" xlink:href="#DejaVuSans-76"/>
     <use x="303.853516" xlink:href="#DejaVuSans-65"/>
     <use x="365.376953" xlink:href="#DejaVuSans-64"/>
     <use x="428.853516" xlink:href="#DejaVuSans-20"/>
     <use x="460.640625" xlink:href="#DejaVuSans-73"/>
     <use x="512.740234" xlink:href="#DejaVuSans-69"/>
     <use x="540.523438" xlink:href="#DejaVuSans-67"/>
     <use x="604" xlink:href="#DejaVuSans-6e"/>
     <use x="667.378906" xlink:href="#DejaVuSans-61"/>
     <use x="728.658203" xlink:href="#DejaVuSans-6c"/>
     <use x="756.441406" xlink:href="#DejaVuSans-20"/>
     <use x="788.228516" xlink:href="#DejaVuSans-66"/>
     <use x="823.433594" xlink:href="#DejaVuSans-66"/>
     <use x="856.888672" xlink:href="#DejaVuSans-74"/>
    </g>
   </g>
  </g>
 </g>
 <defs>
  <clipPath id="peab98f44e4">
   <rect height="266.112" width="357.12" x="51.378125" y="22.318125"/>
  </clipPath>
 </defs>
</svg>
