<?xml version="1.0" encoding="utf-8" standalone="no"?>
<!DOCTYPE svg PUBLIC "-//W3C//DTD SVG 1.1//EN"
  "http://www.w3.org/Graphics/SVG/1.1/DTD/svg11.dtd">
<svg height="345.6pt" version="1.1" viewBox="0 0 460.8 345.6" width="460.8pt" xmlns="http://www.w3.org/2000/svg" xmlns:xlink="http://www.w3.org/1999/xlink">
 <metadata>
  <rdf:RDF xmlns:cc="http://creativecommons.org/ns#" xmlns:dc="http://purl.org/dc/elements/1.1/" xmlns:rdf="http://www.w3.org/1999/02/22-rdf-syntax-ns#">
   <cc:Work>
    <dc:type rdf:resource="http://purl.org/dc/dcmitype/StillImage"/>
    <dc:date>2021-11-07T21:56:32.725976</dc:date>
    <dc:format>image/svg+xml</dc:format>
    <dc:creator>
     <cc:Agent>
      <dc:title>Matplotlib v3.4.3, https://matplotlib.org/</dc:title>
     </cc:Agent>
    </dc:creator>
   </cc:Work>
  </rdf:RDF>
 </metadata>
 <defs>
  <style type="text/css">*{stroke-linecap:butt;stroke-linejoin:round;}</style>
 </defs>
 <g id="figure_1">
  <g id="patch_1">
   <path d="M 0 345.6 
L 460.8 345.6 
L 460.8 0 
L 0 0 
z
" style="fill:#ffffff;"/>
  </g>
  <g id="axes_1">
   <g id="patch_2">
    <path d="M 57.6 307.584 
L 414.72 307.584 
L 414.72 41.472 
L 57.6 41.472 
z
" style="fill:#ffffff;"/>
   </g>
   <g id="matplotlib.axis_1">
    <g id="xtick_1">
     <g id="line2d_1">
      <defs>
       <path d="M 0 0 
L 0 3.5 
" id="m81fc0c453d" style="stroke:#000000;stroke-width:0.8;"/>
      </defs>
      <g>
       <use style="stroke:#000000;stroke-width:0.8;" x="73.784017" xlink:href="#m81fc0c453d" y="307.584"/>
      </g>
     </g>
     <g id="text_1">
      <!-- 300 -->
      <g transform="translate(64.240267 322.182437)scale(0.1 -0.1)">
       <defs>
        <path d="M 2597 2516 
Q 3050 2419 3304 2112 
Q 3559 1806 3559 1356 
Q 3559 666 3084 287 
Q 2609 -91 1734 -91 
Q 1441 -91 1130 -33 
Q 819 25 488 141 
L 488 750 
Q 750 597 1062 519 
Q 1375 441 1716 441 
Q 2309 441 2620 675 
Q 2931 909 2931 1356 
Q 2931 1769 2642 2001 
Q 2353 2234 1838 2234 
L 1294 2234 
L 1294 2753 
L 1863 2753 
Q 2328 2753 2575 2939 
Q 2822 3125 2822 3475 
Q 2822 3834 2567 4026 
Q 2313 4219 1838 4219 
Q 1578 4219 1281 4162 
Q 984 4106 628 3988 
L 628 4550 
Q 988 4650 1302 4700 
Q 1616 4750 1894 4750 
Q 2613 4750 3031 4423 
Q 3450 4097 3450 3541 
Q 3450 3153 3228 2886 
Q 3006 2619 2597 2516 
z
" id="DejaVuSans-33" transform="scale(0.015625)"/>
        <path d="M 2034 4250 
Q 1547 4250 1301 3770 
Q 1056 3291 1056 2328 
Q 1056 1369 1301 889 
Q 1547 409 2034 409 
Q 2525 409 2770 889 
Q 3016 1369 3016 2328 
Q 3016 3291 2770 3770 
Q 2525 4250 2034 4250 
z
M 2034 4750 
Q 2819 4750 3233 4129 
Q 3647 3509 3647 2328 
Q 3647 1150 3233 529 
Q 2819 -91 2034 -91 
Q 1250 -91 836 529 
Q 422 1150 422 2328 
Q 422 3509 836 4129 
Q 1250 4750 2034 4750 
z
" id="DejaVuSans-30" transform="scale(0.015625)"/>
       </defs>
       <use xlink:href="#DejaVuSans-33"/>
       <use x="63.623047" xlink:href="#DejaVuSans-30"/>
       <use x="127.246094" xlink:href="#DejaVuSans-30"/>
      </g>
     </g>
    </g>
    <g id="xtick_2">
     <g id="line2d_2">
      <g>
       <use style="stroke:#000000;stroke-width:0.8;" x="114.371924" xlink:href="#m81fc0c453d" y="307.584"/>
      </g>
     </g>
     <g id="text_2">
      <!-- 325 -->
      <g transform="translate(104.828174 322.182437)scale(0.1 -0.1)">
       <defs>
        <path d="M 1228 531 
L 3431 531 
L 3431 0 
L 469 0 
L 469 531 
Q 828 903 1448 1529 
Q 2069 2156 2228 2338 
Q 2531 2678 2651 2914 
Q 2772 3150 2772 3378 
Q 2772 3750 2511 3984 
Q 2250 4219 1831 4219 
Q 1534 4219 1204 4116 
Q 875 4013 500 3803 
L 500 4441 
Q 881 4594 1212 4672 
Q 1544 4750 1819 4750 
Q 2544 4750 2975 4387 
Q 3406 4025 3406 3419 
Q 3406 3131 3298 2873 
Q 3191 2616 2906 2266 
Q 2828 2175 2409 1742 
Q 1991 1309 1228 531 
z
" id="DejaVuSans-32" transform="scale(0.015625)"/>
        <path d="M 691 4666 
L 3169 4666 
L 3169 4134 
L 1269 4134 
L 1269 2991 
Q 1406 3038 1543 3061 
Q 1681 3084 1819 3084 
Q 2600 3084 3056 2656 
Q 3513 2228 3513 1497 
Q 3513 744 3044 326 
Q 2575 -91 1722 -91 
Q 1428 -91 1123 -41 
Q 819 9 494 109 
L 494 744 
Q 775 591 1075 516 
Q 1375 441 1709 441 
Q 2250 441 2565 725 
Q 2881 1009 2881 1497 
Q 2881 1984 2565 2268 
Q 2250 2553 1709 2553 
Q 1456 2553 1204 2497 
Q 953 2441 691 2322 
L 691 4666 
z
" id="DejaVuSans-35" transform="scale(0.015625)"/>
       </defs>
       <use xlink:href="#DejaVuSans-33"/>
       <use x="63.623047" xlink:href="#DejaVuSans-32"/>
       <use x="127.246094" xlink:href="#DejaVuSans-35"/>
      </g>
     </g>
    </g>
    <g id="xtick_3">
     <g id="line2d_3">
      <g>
       <use style="stroke:#000000;stroke-width:0.8;" x="154.959831" xlink:href="#m81fc0c453d" y="307.584"/>
      </g>
     </g>
     <g id="text_3">
      <!-- 350 -->
      <g transform="translate(145.416081 322.182437)scale(0.1 -0.1)">
       <use xlink:href="#DejaVuSans-33"/>
       <use x="63.623047" xlink:href="#DejaVuSans-35"/>
       <use x="127.246094" xlink:href="#DejaVuSans-30"/>
      </g>
     </g>
    </g>
    <g id="xtick_4">
     <g id="line2d_4">
      <g>
       <use style="stroke:#000000;stroke-width:0.8;" x="195.547738" xlink:href="#m81fc0c453d" y="307.584"/>
      </g>
     </g>
     <g id="text_4">
      <!-- 375 -->
      <g transform="translate(186.003988 322.182437)scale(0.1 -0.1)">
       <defs>
        <path d="M 525 4666 
L 3525 4666 
L 3525 4397 
L 1831 0 
L 1172 0 
L 2766 4134 
L 525 4134 
L 525 4666 
z
" id="DejaVuSans-37" transform="scale(0.015625)"/>
       </defs>
       <use xlink:href="#DejaVuSans-33"/>
       <use x="63.623047" xlink:href="#DejaVuSans-37"/>
       <use x="127.246094" xlink:href="#DejaVuSans-35"/>
      </g>
     </g>
    </g>
    <g id="xtick_5">
     <g id="line2d_5">
      <g>
       <use style="stroke:#000000;stroke-width:0.8;" x="236.135645" xlink:href="#m81fc0c453d" y="307.584"/>
      </g>
     </g>
     <g id="text_5">
      <!-- 400 -->
      <g transform="translate(226.591895 322.182437)scale(0.1 -0.1)">
       <defs>
        <path d="M 2419 4116 
L 825 1625 
L 2419 1625 
L 2419 4116 
z
M 2253 4666 
L 3047 4666 
L 3047 1625 
L 3713 1625 
L 3713 1100 
L 3047 1100 
L 3047 0 
L 2419 0 
L 2419 1100 
L 313 1100 
L 313 1709 
L 2253 4666 
z
" id="DejaVuSans-34" transform="scale(0.015625)"/>
       </defs>
       <use xlink:href="#DejaVuSans-34"/>
       <use x="63.623047" xlink:href="#DejaVuSans-30"/>
       <use x="127.246094" xlink:href="#DejaVuSans-30"/>
      </g>
     </g>
    </g>
    <g id="xtick_6">
     <g id="line2d_6">
      <g>
       <use style="stroke:#000000;stroke-width:0.8;" x="276.723552" xlink:href="#m81fc0c453d" y="307.584"/>
      </g>
     </g>
     <g id="text_6">
      <!-- 425 -->
      <g transform="translate(267.179802 322.182437)scale(0.1 -0.1)">
       <use xlink:href="#DejaVuSans-34"/>
       <use x="63.623047" xlink:href="#DejaVuSans-32"/>
       <use x="127.246094" xlink:href="#DejaVuSans-35"/>
      </g>
     </g>
    </g>
    <g id="xtick_7">
     <g id="line2d_7">
      <g>
       <use style="stroke:#000000;stroke-width:0.8;" x="317.311459" xlink:href="#m81fc0c453d" y="307.584"/>
      </g>
     </g>
     <g id="text_7">
      <!-- 450 -->
      <g transform="translate(307.767709 322.182437)scale(0.1 -0.1)">
       <use xlink:href="#DejaVuSans-34"/>
       <use x="63.623047" xlink:href="#DejaVuSans-35"/>
       <use x="127.246094" xlink:href="#DejaVuSans-30"/>
      </g>
     </g>
    </g>
    <g id="xtick_8">
     <g id="line2d_8">
      <g>
       <use style="stroke:#000000;stroke-width:0.8;" x="357.899366" xlink:href="#m81fc0c453d" y="307.584"/>
      </g>
     </g>
     <g id="text_8">
      <!-- 475 -->
      <g transform="translate(348.355616 322.182437)scale(0.1 -0.1)">
       <use xlink:href="#DejaVuSans-34"/>
       <use x="63.623047" xlink:href="#DejaVuSans-37"/>
       <use x="127.246094" xlink:href="#DejaVuSans-35"/>
      </g>
     </g>
    </g>
    <g id="xtick_9">
     <g id="line2d_9">
      <g>
       <use style="stroke:#000000;stroke-width:0.8;" x="398.487273" xlink:href="#m81fc0c453d" y="307.584"/>
      </g>
     </g>
     <g id="text_9">
      <!-- 500 -->
      <g transform="translate(388.943523 322.182437)scale(0.1 -0.1)">
       <use xlink:href="#DejaVuSans-35"/>
       <use x="63.623047" xlink:href="#DejaVuSans-30"/>
       <use x="127.246094" xlink:href="#DejaVuSans-30"/>
      </g>
     </g>
    </g>
    <g id="text_10">
     <!-- time [ms] -->
     <g transform="translate(211.898281 335.860562)scale(0.1 -0.1)">
      <defs>
       <path d="M 1172 4494 
L 1172 3500 
L 2356 3500 
L 2356 3053 
L 1172 3053 
L 1172 1153 
Q 1172 725 1289 603 
Q 1406 481 1766 481 
L 2356 481 
L 2356 0 
L 1766 0 
Q 1100 0 847 248 
Q 594 497 594 1153 
L 594 3053 
L 172 3053 
L 172 3500 
L 594 3500 
L 594 4494 
L 1172 4494 
z
" id="DejaVuSans-74" transform="scale(0.015625)"/>
       <path d="M 603 3500 
L 1178 3500 
L 1178 0 
L 603 0 
L 603 3500 
z
M 603 4863 
L 1178 4863 
L 1178 4134 
L 603 4134 
L 603 4863 
z
" id="DejaVuSans-69" transform="scale(0.015625)"/>
       <path d="M 3328 2828 
Q 3544 3216 3844 3400 
Q 4144 3584 4550 3584 
Q 5097 3584 5394 3201 
Q 5691 2819 5691 2113 
L 5691 0 
L 5113 0 
L 5113 2094 
Q 5113 2597 4934 2840 
Q 4756 3084 4391 3084 
Q 3944 3084 3684 2787 
Q 3425 2491 3425 1978 
L 3425 0 
L 2847 0 
L 2847 2094 
Q 2847 2600 2669 2842 
Q 2491 3084 2119 3084 
Q 1678 3084 1418 2786 
Q 1159 2488 1159 1978 
L 1159 0 
L 581 0 
L 581 3500 
L 1159 3500 
L 1159 2956 
Q 1356 3278 1631 3431 
Q 1906 3584 2284 3584 
Q 2666 3584 2933 3390 
Q 3200 3197 3328 2828 
z
" id="DejaVuSans-6d" transform="scale(0.015625)"/>
       <path d="M 3597 1894 
L 3597 1613 
L 953 1613 
Q 991 1019 1311 708 
Q 1631 397 2203 397 
Q 2534 397 2845 478 
Q 3156 559 3463 722 
L 3463 178 
Q 3153 47 2828 -22 
Q 2503 -91 2169 -91 
Q 1331 -91 842 396 
Q 353 884 353 1716 
Q 353 2575 817 3079 
Q 1281 3584 2069 3584 
Q 2775 3584 3186 3129 
Q 3597 2675 3597 1894 
z
M 3022 2063 
Q 3016 2534 2758 2815 
Q 2500 3097 2075 3097 
Q 1594 3097 1305 2825 
Q 1016 2553 972 2059 
L 3022 2063 
z
" id="DejaVuSans-65" transform="scale(0.015625)"/>
       <path id="DejaVuSans-20" transform="scale(0.015625)"/>
       <path d="M 550 4863 
L 1875 4863 
L 1875 4416 
L 1125 4416 
L 1125 -397 
L 1875 -397 
L 1875 -844 
L 550 -844 
L 550 4863 
z
" id="DejaVuSans-5b" transform="scale(0.015625)"/>
       <path d="M 2834 3397 
L 2834 2853 
Q 2591 2978 2328 3040 
Q 2066 3103 1784 3103 
Q 1356 3103 1142 2972 
Q 928 2841 928 2578 
Q 928 2378 1081 2264 
Q 1234 2150 1697 2047 
L 1894 2003 
Q 2506 1872 2764 1633 
Q 3022 1394 3022 966 
Q 3022 478 2636 193 
Q 2250 -91 1575 -91 
Q 1294 -91 989 -36 
Q 684 19 347 128 
L 347 722 
Q 666 556 975 473 
Q 1284 391 1588 391 
Q 1994 391 2212 530 
Q 2431 669 2431 922 
Q 2431 1156 2273 1281 
Q 2116 1406 1581 1522 
L 1381 1569 
Q 847 1681 609 1914 
Q 372 2147 372 2553 
Q 372 3047 722 3315 
Q 1072 3584 1716 3584 
Q 2034 3584 2315 3537 
Q 2597 3491 2834 3397 
z
" id="DejaVuSans-73" transform="scale(0.015625)"/>
       <path d="M 1947 4863 
L 1947 -844 
L 622 -844 
L 622 -397 
L 1369 -397 
L 1369 4416 
L 622 4416 
L 622 4863 
L 1947 4863 
z
" id="DejaVuSans-5d" transform="scale(0.015625)"/>
      </defs>
      <use xlink:href="#DejaVuSans-74"/>
      <use x="39.208984" xlink:href="#DejaVuSans-69"/>
      <use x="66.992188" xlink:href="#DejaVuSans-6d"/>
      <use x="164.404297" xlink:href="#DejaVuSans-65"/>
      <use x="225.927734" xlink:href="#DejaVuSans-20"/>
      <use x="257.714844" xlink:href="#DejaVuSans-5b"/>
      <use x="296.728516" xlink:href="#DejaVuSans-6d"/>
      <use x="394.140625" xlink:href="#DejaVuSans-73"/>
      <use x="446.240234" xlink:href="#DejaVuSans-5d"/>
     </g>
    </g>
   </g>
   <g id="matplotlib.axis_2">
    <g id="ytick_1">
     <g id="line2d_10">
      <defs>
       <path d="M 0 0 
L -3.5 0 
" id="m2b6781b181" style="stroke:#000000;stroke-width:0.8;"/>
      </defs>
      <g>
       <use style="stroke:#000000;stroke-width:0.8;" x="57.6" xlink:href="#m2b6781b181" y="273.160721"/>
      </g>
     </g>
     <g id="text_11">
      <!-- $\mathdefault{0.0}$ -->
      <g transform="translate(34.6 276.95994)scale(0.1 -0.1)">
       <defs>
        <path d="M 684 794 
L 1344 794 
L 1344 0 
L 684 0 
L 684 794 
z
" id="DejaVuSans-2e" transform="scale(0.015625)"/>
       </defs>
       <use transform="translate(0 0.78125)" xlink:href="#DejaVuSans-30"/>
       <use transform="translate(63.623047 0.78125)" xlink:href="#DejaVuSans-2e"/>
       <use transform="translate(95.410156 0.78125)" xlink:href="#DejaVuSans-30"/>
      </g>
     </g>
    </g>
    <g id="ytick_2">
     <g id="line2d_11">
      <g>
       <use style="stroke:#000000;stroke-width:0.8;" x="57.6" xlink:href="#m2b6781b181" y="228.643907"/>
      </g>
     </g>
     <g id="text_12">
      <!-- $\mathdefault{0.2}$ -->
      <g transform="translate(35.2 232.443125)scale(0.1 -0.1)">
       <use transform="translate(0 0.78125)" xlink:href="#DejaVuSans-30"/>
       <use transform="translate(63.623047 0.78125)" xlink:href="#DejaVuSans-2e"/>
       <use transform="translate(89.910156 0.78125)" xlink:href="#DejaVuSans-32"/>
      </g>
     </g>
    </g>
    <g id="ytick_3">
     <g id="line2d_12">
      <g>
       <use style="stroke:#000000;stroke-width:0.8;" x="57.6" xlink:href="#m2b6781b181" y="184.127092"/>
      </g>
     </g>
     <g id="text_13">
      <!-- $\mathdefault{0.4}$ -->
      <g transform="translate(34.6 187.926311)scale(0.1 -0.1)">
       <use transform="translate(0 0.78125)" xlink:href="#DejaVuSans-30"/>
       <use transform="translate(63.623047 0.78125)" xlink:href="#DejaVuSans-2e"/>
       <use transform="translate(95.410156 0.78125)" xlink:href="#DejaVuSans-34"/>
      </g>
     </g>
    </g>
    <g id="ytick_4">
     <g id="line2d_13">
      <g>
       <use style="stroke:#000000;stroke-width:0.8;" x="57.6" xlink:href="#m2b6781b181" y="139.610278"/>
      </g>
     </g>
     <g id="text_14">
      <!-- $\mathdefault{0.6}$ -->
      <g transform="translate(34.6 143.409497)scale(0.1 -0.1)">
       <defs>
        <path d="M 2113 2584 
Q 1688 2584 1439 2293 
Q 1191 2003 1191 1497 
Q 1191 994 1439 701 
Q 1688 409 2113 409 
Q 2538 409 2786 701 
Q 3034 994 3034 1497 
Q 3034 2003 2786 2293 
Q 2538 2584 2113 2584 
z
M 3366 4563 
L 3366 3988 
Q 3128 4100 2886 4159 
Q 2644 4219 2406 4219 
Q 1781 4219 1451 3797 
Q 1122 3375 1075 2522 
Q 1259 2794 1537 2939 
Q 1816 3084 2150 3084 
Q 2853 3084 3261 2657 
Q 3669 2231 3669 1497 
Q 3669 778 3244 343 
Q 2819 -91 2113 -91 
Q 1303 -91 875 529 
Q 447 1150 447 2328 
Q 447 3434 972 4092 
Q 1497 4750 2381 4750 
Q 2619 4750 2861 4703 
Q 3103 4656 3366 4563 
z
" id="DejaVuSans-36" transform="scale(0.015625)"/>
       </defs>
       <use transform="translate(0 0.78125)" xlink:href="#DejaVuSans-30"/>
       <use transform="translate(63.623047 0.78125)" xlink:href="#DejaVuSans-2e"/>
       <use transform="translate(95.410156 0.78125)" xlink:href="#DejaVuSans-36"/>
      </g>
     </g>
    </g>
    <g id="ytick_5">
     <g id="line2d_14">
      <g>
       <use style="stroke:#000000;stroke-width:0.8;" x="57.6" xlink:href="#m2b6781b181" y="95.093464"/>
      </g>
     </g>
     <g id="text_15">
      <!-- $\mathdefault{0.8}$ -->
      <g transform="translate(34.9 98.892683)scale(0.1 -0.1)">
       <defs>
        <path d="M 2034 2216 
Q 1584 2216 1326 1975 
Q 1069 1734 1069 1313 
Q 1069 891 1326 650 
Q 1584 409 2034 409 
Q 2484 409 2743 651 
Q 3003 894 3003 1313 
Q 3003 1734 2745 1975 
Q 2488 2216 2034 2216 
z
M 1403 2484 
Q 997 2584 770 2862 
Q 544 3141 544 3541 
Q 544 4100 942 4425 
Q 1341 4750 2034 4750 
Q 2731 4750 3128 4425 
Q 3525 4100 3525 3541 
Q 3525 3141 3298 2862 
Q 3072 2584 2669 2484 
Q 3125 2378 3379 2068 
Q 3634 1759 3634 1313 
Q 3634 634 3220 271 
Q 2806 -91 2034 -91 
Q 1263 -91 848 271 
Q 434 634 434 1313 
Q 434 1759 690 2068 
Q 947 2378 1403 2484 
z
M 1172 3481 
Q 1172 3119 1398 2916 
Q 1625 2713 2034 2713 
Q 2441 2713 2670 2916 
Q 2900 3119 2900 3481 
Q 2900 3844 2670 4047 
Q 2441 4250 2034 4250 
Q 1625 4250 1398 4047 
Q 1172 3844 1172 3481 
z
" id="DejaVuSans-38" transform="scale(0.015625)"/>
       </defs>
       <use transform="translate(0 0.78125)" xlink:href="#DejaVuSans-30"/>
       <use transform="translate(63.623047 0.78125)" xlink:href="#DejaVuSans-2e"/>
       <use transform="translate(92.785156 0.78125)" xlink:href="#DejaVuSans-38"/>
      </g>
     </g>
    </g>
    <g id="ytick_6">
     <g id="line2d_15">
      <g>
       <use style="stroke:#000000;stroke-width:0.8;" x="57.6" xlink:href="#m2b6781b181" y="50.576649"/>
      </g>
     </g>
     <g id="text_16">
      <!-- $\mathdefault{1.0}$ -->
      <g transform="translate(34.6 54.375868)scale(0.1 -0.1)">
       <defs>
        <path d="M 794 531 
L 1825 531 
L 1825 4091 
L 703 3866 
L 703 4441 
L 1819 4666 
L 2450 4666 
L 2450 531 
L 3481 531 
L 3481 0 
L 794 0 
L 794 531 
z
" id="DejaVuSans-31" transform="scale(0.015625)"/>
       </defs>
       <use transform="translate(0 0.78125)" xlink:href="#DejaVuSans-31"/>
       <use transform="translate(63.623047 0.78125)" xlink:href="#DejaVuSans-2e"/>
       <use transform="translate(95.410156 0.78125)" xlink:href="#DejaVuSans-30"/>
      </g>
     </g>
    </g>
    <g id="text_17">
     <!-- $\times\mathdefault{10^{−4}}\mathdefault{}$ -->
     <g transform="translate(57.6 38.472)scale(0.1 -0.1)">
      <defs>
       <path d="M 4488 3438 
L 3059 2003 
L 4488 575 
L 4116 197 
L 2681 1631 
L 1247 197 
L 878 575 
L 2303 2003 
L 878 3438 
L 1247 3816 
L 2681 2381 
L 4116 3816 
L 4488 3438 
z
" id="DejaVuSans-d7" transform="scale(0.015625)"/>
       <path d="M 678 2272 
L 4684 2272 
L 4684 1741 
L 678 1741 
L 678 2272 
z
" id="DejaVuSans-2212" transform="scale(0.015625)"/>
      </defs>
      <use transform="translate(0 0.684375)" xlink:href="#DejaVuSans-d7"/>
      <use transform="translate(83.789062 0.684375)" xlink:href="#DejaVuSans-31"/>
      <use transform="translate(147.412109 0.684375)" xlink:href="#DejaVuSans-30"/>
      <use transform="translate(211.992188 38.965625)scale(0.7)" xlink:href="#DejaVuSans-2212"/>
      <use transform="translate(270.644531 38.965625)scale(0.7)" xlink:href="#DejaVuSans-34"/>
     </g>
    </g>
   </g>
   <g id="line2d_16">
    <path clip-path="url(#pdbae2c5405)" d="M 73.832727 291.168 
L 73.995095 291.168 
L 74.076279 289.728 
L 74.319831 292.608 
L 74.482199 291.168 
L 74.563383 292.608 
L 74.644567 289.728 
L 74.725751 292.608 
L 74.806934 289.728 
L 75.050486 292.608 
L 75.212854 291.168 
L 75.294038 291.168 
L 75.375222 292.608 
L 75.456406 289.728 
L 75.618774 292.608 
L 75.781142 289.728 
L 75.862326 291.168 
L 76.024693 289.728 
L 76.105877 276.768001 
L 76.592981 55.008 
L 76.674165 63.648001 
L 76.836533 127.008003 
L 77.161268 286.848001 
L 77.40482 294.048 
L 77.486004 291.168 
L 77.567188 292.608 
L 77.648372 289.728 
L 77.81074 292.608 
L 77.973108 292.608 
L 78.054292 291.168 
L 78.135476 292.608 
L 78.21666 291.168 
L 78.379027 294.048 
L 78.460211 289.728 
L 78.541395 291.168 
L 78.622579 291.168 
L 78.784947 292.608 
L 79.028499 289.728 
L 79.109683 289.728 
L 79.272051 291.168 
L 79.353235 291.168 
L 79.434419 289.728 
L 79.515603 292.608 
L 79.759154 289.728 
L 80.002706 292.608 
L 80.246258 289.728 
L 80.327442 289.728 
L 80.408626 291.168 
L 80.48981 289.728 
L 80.652178 292.608 
L 80.976913 286.848001 
L 81.382833 211.968003 
L 81.464017 213.408003 
L 81.869937 289.728 
L 82.032304 291.168 
L 82.113488 291.168 
L 82.194672 292.608 
L 82.35704 289.728 
L 82.519408 291.168 
L 82.600592 291.168 
L 82.681776 289.728 
L 82.76296 292.608 
L 82.844144 289.728 
L 82.925328 292.608 
L 83.006512 291.168 
L 83.087696 292.608 
L 83.168879 289.728 
L 83.250063 292.608 
L 83.331247 291.168 
L 83.412431 292.608 
L 83.574799 289.728 
L 83.655983 291.168 
L 83.899535 286.848001 
L 84.061903 255.168002 
L 84.305455 210.528003 
L 84.386638 216.288003 
L 84.792558 289.728 
L 84.954926 291.168 
L 85.03611 291.168 
L 85.198478 289.728 
L 85.360846 289.728 
L 85.523214 291.168 
L 85.604397 289.728 
L 85.685581 292.608 
L 85.847949 291.168 
L 85.929133 291.168 
L 86.091501 289.728 
L 86.172685 289.728 
L 86.253869 291.168 
L 86.416237 289.728 
L 86.497421 289.728 
L 86.659789 291.168 
L 86.822156 286.848001 
L 86.984524 292.608 
L 87.065708 288.288 
L 87.146892 292.608 
L 87.228076 289.728 
L 87.30926 291.168 
L 87.390444 289.728 
L 87.552812 291.168 
L 87.633996 288.288 
L 87.877548 291.168 
L 88.039915 291.168 
L 88.121099 288.288 
L 88.283467 289.728 
L 88.364651 289.728 
L 88.527019 288.288 
L 88.608203 272.448001 
L 89.095307 53.568 
L 89.17649 63.648001 
L 89.420042 186.048004 
L 89.663594 286.848001 
L 89.907146 292.608 
L 89.98833 292.608 
L 90.069514 289.728 
L 90.231882 292.608 
L 90.313066 291.168 
L 90.394249 292.608 
L 90.556617 291.168 
L 90.637801 291.168 
L 90.718985 288.288 
L 90.881353 294.048 
L 91.043721 292.608 
L 91.124905 292.608 
L 91.206089 294.048 
L 91.368457 291.168 
L 91.449641 289.728 
L 91.612008 294.048 
L 91.693192 291.168 
L 91.85556 292.608 
L 92.099112 288.288 
L 92.180296 291.168 
L 92.26148 289.728 
L 92.342664 292.608 
L 92.423848 289.728 
L 92.505032 292.608 
L 92.6674 289.728 
L 92.829767 291.168 
L 92.910951 289.728 
L 93.073319 291.168 
L 93.235687 291.168 
L 93.316871 292.608 
L 93.479239 288.288 
L 93.885159 213.408003 
L 93.966342 219.168003 
L 94.372262 291.168 
L 94.615814 291.168 
L 94.696998 288.288 
L 94.778182 294.048 
L 94.859366 289.728 
L 95.021734 292.608 
L 95.184101 292.608 
L 95.265285 294.048 
L 95.508837 289.728 
L 95.752389 292.608 
L 95.833573 292.608 
L 95.914757 289.728 
L 95.995941 291.168 
L 96.158309 288.288 
L 96.239493 291.168 
L 96.40186 288.288 
L 96.80778 213.408003 
L 96.888964 220.608003 
L 97.294884 292.608 
L 97.376068 291.168 
L 97.538436 294.048 
L 97.700803 292.608 
L 97.781987 292.608 
L 97.863171 288.288 
L 97.944355 289.728 
L 98.187907 292.608 
L 98.350275 289.728 
L 98.512643 291.168 
L 98.593827 289.728 
L 98.756195 291.168 
L 98.837378 291.168 
L 98.918562 292.608 
L 99.08093 289.728 
L 99.162114 292.608 
L 99.243298 291.168 
L 99.324482 292.608 
L 99.405666 289.728 
L 99.568034 291.168 
L 99.649218 291.168 
L 99.730402 292.608 
L 99.89277 291.168 
L 100.136321 291.168 
L 100.217505 289.728 
L 100.379873 294.048 
L 100.461057 291.168 
L 100.542241 292.608 
L 100.785793 288.288 
L 100.866977 292.608 
L 100.948161 291.168 
L 101.029345 289.728 
L 101.110529 271.008001 
L 101.516448 62.208001 
L 101.597632 53.568 
L 101.76 98.208002 
L 102.16592 289.728 
L 102.328288 289.728 
L 102.409471 292.608 
L 102.653023 289.728 
L 102.734207 291.168 
L 102.896575 289.728 
L 102.977759 294.048 
L 103.058943 291.168 
L 103.140127 294.048 
L 103.302495 289.728 
L 103.464863 292.608 
L 103.546047 292.608 
L 103.708414 289.728 
L 103.870782 291.168 
L 104.03315 289.728 
L 104.276702 289.728 
L 104.43907 291.168 
L 104.520254 288.288 
L 104.682622 291.168 
L 104.763805 292.608 
L 104.926173 291.168 
L 105.007357 291.168 
L 105.169725 292.608 
L 105.413277 289.728 
L 105.494461 291.168 
L 105.656829 288.288 
L 105.738013 292.608 
L 105.981564 283.968001 
L 106.387484 210.528003 
L 106.549852 237.888003 
L 106.793404 289.728 
L 106.955772 291.168 
L 107.036956 291.168 
L 107.199323 289.728 
L 107.280507 289.728 
L 107.361691 294.048 
L 107.442875 289.728 
L 107.524059 291.168 
L 107.605243 291.168 
L 107.767611 292.608 
L 107.929979 288.288 
L 108.011163 289.728 
L 108.092347 292.608 
L 108.173531 289.728 
L 108.335899 291.168 
L 108.498266 291.168 
L 108.57945 292.608 
L 108.660634 291.168 
L 108.741818 292.608 
L 108.904186 285.408001 
L 109.310106 211.968003 
L 109.472474 240.768003 
L 109.797209 291.168 
L 109.959577 292.608 
L 110.040761 292.608 
L 110.121945 289.728 
L 110.203129 292.608 
L 110.365497 291.168 
L 110.446681 292.608 
L 110.609049 291.168 
L 110.690233 292.608 
L 110.771416 291.168 
L 110.933784 292.608 
L 111.014968 292.608 
L 111.177336 289.728 
L 111.339704 292.608 
L 111.502072 291.168 
L 111.826808 291.168 
L 111.907992 292.608 
L 112.070359 291.168 
L 112.395095 291.168 
L 112.476279 289.728 
L 112.638647 291.168 
L 112.801015 291.168 
L 112.963383 288.288 
L 113.125751 291.168 
L 113.206934 291.168 
L 113.288118 288.288 
L 113.369302 291.168 
L 113.53167 289.728 
L 113.694038 216.288003 
L 114.018774 59.328 
L 114.099958 56.448 
L 114.262326 106.848003 
L 114.668245 289.728 
L 114.749429 292.608 
L 114.830613 289.728 
L 114.992981 291.168 
L 115.155349 291.168 
L 115.317717 292.608 
L 115.398901 289.728 
L 115.480085 294.048 
L 115.561268 289.728 
L 115.642452 291.168 
L 115.723636 292.608 
L 115.886004 288.288 
L 116.048372 291.168 
L 116.21074 289.728 
L 116.373108 291.168 
L 116.454292 291.168 
L 116.61666 289.728 
L 116.697844 292.608 
L 116.860211 289.728 
L 116.941395 291.168 
L 117.103763 288.288 
L 117.184947 292.608 
L 117.266131 291.168 
L 117.428499 291.168 
L 117.509683 292.608 
L 117.753235 289.728 
L 117.834419 289.728 
L 117.915603 292.608 
L 118.07797 291.168 
L 118.321522 291.168 
L 118.402706 289.728 
L 118.565074 265.248002 
L 118.808626 214.848003 
L 118.88981 213.408003 
L 118.970994 220.608003 
L 119.295729 289.728 
L 119.376913 289.728 
L 119.539281 291.168 
L 119.701649 291.168 
L 119.782833 292.608 
L 119.864017 289.728 
L 119.945201 292.608 
L 120.026385 288.288 
L 120.188753 291.168 
L 120.269937 292.608 
L 120.513488 289.728 
L 120.675856 291.168 
L 120.919408 291.168 
L 121.000592 289.728 
L 121.081776 292.608 
L 121.244144 291.168 
L 121.325328 291.168 
L 121.406512 283.968001 
L 121.731247 213.408003 
L 121.812431 214.848003 
L 121.974799 240.768003 
L 122.218351 288.288 
L 122.380719 291.168 
L 122.461903 288.288 
L 122.543087 291.168 
L 122.624271 289.728 
L 122.705455 292.608 
L 122.949006 289.728 
L 123.111374 292.608 
L 123.273742 291.168 
L 123.598478 291.168 
L 123.679662 292.608 
L 123.760846 289.728 
L 124.004397 292.608 
L 124.085581 289.728 
L 124.247949 292.608 
L 124.410317 288.288 
L 124.491501 292.608 
L 124.572685 291.168 
L 124.735053 292.608 
L 124.978605 289.728 
L 125.059789 292.608 
L 125.222156 289.728 
L 125.384524 292.608 
L 125.465708 289.728 
L 125.628076 292.608 
L 125.790444 289.728 
L 125.871628 291.168 
L 125.952812 289.728 
L 126.033996 285.408001 
L 126.196364 207.648003 
L 126.521099 57.888 
L 126.602283 56.448 
L 126.764651 112.608003 
L 127.170571 291.168 
L 127.251755 291.168 
L 127.414123 294.048 
L 127.57649 291.168 
L 127.738858 291.168 
L 127.820042 294.048 
L 127.901226 289.728 
L 127.98241 292.608 
L 128.144778 289.728 
L 128.38833 292.608 
L 128.550698 291.168 
L 128.631882 291.168 
L 128.794249 294.048 
L 128.875433 291.168 
L 128.956617 292.608 
L 129.037801 291.168 
L 129.200169 292.608 
L 129.281353 289.728 
L 129.362537 291.168 
L 129.443721 289.728 
L 129.606089 291.168 
L 129.687273 288.288 
L 129.849641 292.608 
L 129.930825 288.288 
L 130.012008 294.048 
L 130.093192 292.608 
L 130.25556 289.728 
L 130.417928 294.048 
L 130.499112 292.608 
L 130.66148 289.728 
L 130.823848 292.608 
L 130.905032 288.288 
L 131.148584 242.208003 
L 131.310951 213.408003 
L 131.392135 213.408003 
L 131.554503 245.088002 
L 131.798055 291.168 
L 131.879239 292.608 
L 132.041607 289.728 
L 132.122791 289.728 
L 132.285159 291.168 
L 132.366342 291.168 
L 132.52871 292.608 
L 132.691078 292.608 
L 132.772262 289.728 
L 132.93463 292.608 
L 133.015814 289.728 
L 133.178182 291.168 
L 133.259366 291.168 
L 133.421734 292.608 
L 133.502918 291.168 
L 133.584101 292.608 
L 133.665285 289.728 
L 133.746469 291.168 
L 133.827653 289.728 
L 133.990021 258.048002 
L 134.233573 211.968003 
L 134.314757 213.408003 
L 134.80186 289.728 
L 134.883044 286.848001 
L 135.126596 294.048 
L 135.20778 289.728 
L 135.288964 291.168 
L 135.370148 291.168 
L 135.532516 289.728 
L 135.6137 292.608 
L 135.776068 291.168 
L 135.857252 292.608 
L 136.181987 288.288 
L 136.263171 288.288 
L 136.344355 292.608 
L 136.425539 291.168 
L 136.506723 292.608 
L 136.669091 289.728 
L 136.831459 291.168 
L 137.156195 291.168 
L 137.318562 289.728 
L 137.48093 292.608 
L 137.562114 289.728 
L 137.643298 292.608 
L 137.724482 289.728 
L 137.805666 291.168 
L 137.88685 289.728 
L 137.968034 291.168 
L 138.049218 289.728 
L 138.130402 291.168 
L 138.211586 289.728 
L 138.29277 291.168 
L 138.455137 289.728 
L 138.536321 282.528001 
L 139.023425 55.008 
L 139.104609 60.768 
L 139.266977 116.928003 
L 139.591712 288.288 
L 139.672896 294.048 
L 139.75408 292.608 
L 139.916448 291.168 
L 139.997632 291.168 
L 140.16 292.608 
L 140.241184 291.168 
L 140.322368 294.048 
L 140.484736 291.168 
L 140.647104 292.608 
L 140.728288 291.168 
L 140.809471 292.608 
L 140.971839 291.168 
L 141.053023 292.608 
L 141.215391 289.728 
L 141.377759 292.608 
L 141.458943 291.168 
L 141.540127 294.048 
L 141.702495 291.168 
L 141.783679 292.608 
L 141.946047 291.168 
L 142.108414 292.608 
L 142.189598 291.168 
L 142.270782 295.488 
L 142.43315 291.168 
L 142.514334 292.608 
L 142.676702 291.168 
L 142.83907 294.048 
L 142.920254 289.728 
L 143.001438 292.608 
L 143.163805 291.168 
L 143.244989 292.608 
L 143.407357 286.848001 
L 143.569725 259.488002 
L 143.813277 213.408003 
L 143.894461 213.408003 
L 144.300381 292.608 
L 144.381564 289.728 
L 144.462748 289.728 
L 144.7063 292.608 
L 144.787484 289.728 
L 145.031036 294.048 
L 145.11222 291.168 
L 145.274588 292.608 
L 145.355772 292.608 
L 145.436956 294.048 
L 145.51814 288.288 
L 145.680507 292.608 
L 145.842875 291.168 
L 146.086427 291.168 
L 146.167611 292.608 
L 146.329979 289.728 
L 146.735899 213.408003 
L 146.817082 216.288003 
L 147.304186 292.608 
L 147.466554 289.728 
L 147.710106 292.608 
L 147.872474 291.168 
L 148.034841 292.608 
L 148.116025 291.168 
L 148.197209 292.608 
L 148.278393 288.288 
L 148.440761 291.168 
L 148.521945 291.168 
L 148.603129 294.048 
L 148.927865 288.288 
L 149.009049 294.048 
L 149.090233 289.728 
L 149.171416 292.608 
L 149.2526 289.728 
L 149.414968 291.168 
L 149.496152 289.728 
L 149.577336 292.608 
L 149.739704 291.168 
L 149.820888 292.608 
L 149.902072 289.728 
L 149.983256 292.608 
L 150.145624 289.728 
L 150.389175 292.608 
L 150.551543 291.168 
L 150.632727 291.168 
L 150.795095 288.288 
L 150.957463 291.168 
L 151.038647 276.768001 
L 151.525751 55.008 
L 151.606934 63.648001 
L 151.769302 127.008003 
L 152.094038 289.728 
L 152.175222 292.608 
L 152.33759 291.168 
L 152.418774 291.168 
L 152.499958 289.728 
L 152.581142 294.048 
L 152.662326 289.728 
L 152.74351 292.608 
L 152.905877 291.168 
L 153.068245 291.168 
L 153.149429 292.608 
L 153.230613 291.168 
L 153.392981 292.608 
L 153.555349 291.168 
L 153.636533 292.608 
L 153.717717 291.168 
L 153.798901 292.608 
L 154.042452 289.728 
L 154.123636 294.048 
L 154.20482 292.608 
L 154.286004 292.608 
L 154.448372 291.168 
L 154.61074 291.168 
L 154.691924 289.728 
L 154.773108 292.608 
L 154.935476 291.168 
L 155.097844 292.608 
L 155.179027 292.608 
L 155.260211 291.168 
L 155.341395 292.608 
L 155.503763 291.168 
L 155.584947 292.608 
L 155.666131 289.728 
L 155.747315 291.168 
L 155.909683 288.288 
L 156.315603 211.968003 
L 156.396786 217.728003 
L 156.88389 292.608 
L 157.046258 289.728 
L 157.127442 291.168 
L 157.208626 289.728 
L 157.28981 292.608 
L 157.370994 289.728 
L 157.614545 292.608 
L 157.695729 292.608 
L 157.776913 291.168 
L 157.858097 294.048 
L 157.939281 291.168 
L 158.101649 294.048 
L 158.182833 289.728 
L 158.264017 291.168 
L 158.345201 291.168 
L 158.507569 289.728 
L 158.669937 292.608 
L 158.832304 291.168 
L 159.238224 213.408003 
L 159.319408 217.728003 
L 159.725328 291.168 
L 159.806512 291.168 
L 159.887696 292.608 
L 160.050063 291.168 
L 160.131247 294.048 
L 160.212431 291.168 
L 160.293615 292.608 
L 160.455983 289.728 
L 160.537167 294.048 
L 160.618351 292.608 
L 160.699535 289.728 
L 160.780719 292.608 
L 160.943087 291.168 
L 161.024271 294.048 
L 161.105455 291.168 
L 161.186638 292.608 
L 161.349006 288.288 
L 161.511374 292.608 
L 161.592558 292.608 
L 161.673742 291.168 
L 161.754926 292.608 
L 161.83611 288.288 
L 161.998478 291.168 
L 162.079662 292.608 
L 162.24203 291.168 
L 162.323214 291.168 
L 162.404397 289.728 
L 162.566765 292.608 
L 162.729133 289.728 
L 162.891501 291.168 
L 162.972685 291.168 
L 163.053869 292.608 
L 163.135053 291.168 
L 163.216237 294.048 
L 163.378605 291.168 
L 163.459789 289.728 
L 163.540973 273.888001 
L 164.028076 53.568 
L 164.190444 93.888002 
L 164.677548 292.608 
L 164.839915 289.728 
L 165.002283 291.168 
L 165.083467 291.168 
L 165.245835 292.608 
L 165.327019 292.608 
L 165.408203 289.728 
L 165.489387 292.608 
L 165.651755 289.728 
L 165.732939 292.608 
L 165.814123 291.168 
L 165.895307 294.048 
L 166.138858 291.168 
L 166.220042 291.168 
L 166.38241 292.608 
L 166.544778 289.728 
L 166.625962 292.608 
L 166.78833 288.288 
L 166.950698 292.608 
L 167.194249 292.608 
L 167.356617 291.168 
L 167.437801 292.608 
L 167.518985 291.168 
L 167.600169 286.848001 
L 167.762537 292.608 
L 167.924905 289.728 
L 168.006089 291.168 
L 168.087273 289.728 
L 168.249641 292.608 
L 168.412008 285.408001 
L 168.817928 210.528003 
L 168.980296 233.568003 
L 169.223848 289.728 
L 169.4674 292.608 
L 169.548584 289.728 
L 169.792135 295.488 
L 169.873319 294.048 
L 169.954503 291.168 
L 170.035687 294.048 
L 170.198055 291.168 
L 170.360423 289.728 
L 170.441607 292.608 
L 170.522791 291.168 
L 170.603975 292.608 
L 170.685159 288.288 
L 170.766342 292.608 
L 170.847526 289.728 
L 171.009894 292.608 
L 171.091078 289.728 
L 171.172262 292.608 
L 171.253446 291.168 
L 171.415814 272.448001 
L 171.659366 213.408003 
L 171.74055 211.968003 
L 171.821734 219.168003 
L 172.227653 289.728 
L 172.308837 291.168 
L 172.390021 289.728 
L 172.633573 292.608 
L 172.795941 291.168 
L 172.877125 291.168 
L 172.958309 292.608 
L 173.039493 291.168 
L 173.120677 292.608 
L 173.20186 289.728 
L 173.283044 292.608 
L 173.364228 289.728 
L 173.445412 292.608 
L 173.526596 289.728 
L 173.688964 292.608 
L 173.851332 291.168 
L 173.932516 292.608 
L 174.094884 289.728 
L 174.176068 292.608 
L 174.257252 289.728 
L 174.419619 292.608 
L 174.500803 289.728 
L 174.581987 292.608 
L 174.663171 291.168 
L 174.744355 294.048 
L 175.069091 289.728 
L 175.231459 294.048 
L 175.312643 294.048 
L 175.393827 291.168 
L 175.475011 292.608 
L 175.637378 291.168 
L 175.799746 291.168 
L 175.88093 292.608 
L 175.962114 286.848001 
L 176.124482 224.928003 
L 176.449218 59.328 
L 176.530402 56.448 
L 176.69277 99.648002 
L 177.098689 292.608 
L 177.179873 289.728 
L 177.261057 292.608 
L 177.423425 289.728 
L 177.504609 292.608 
L 177.748161 289.728 
L 177.829345 292.608 
L 177.910529 291.168 
L 177.991712 292.608 
L 178.15408 291.168 
L 178.397632 291.168 
L 178.478816 292.608 
L 178.56 289.728 
L 178.803552 292.608 
L 178.96592 291.168 
L 179.128288 291.168 
L 179.209471 292.608 
L 179.371839 291.168 
L 179.453023 292.608 
L 179.534207 291.168 
L 179.615391 292.608 
L 179.777759 291.168 
L 179.858943 291.168 
L 179.940127 294.048 
L 180.102495 291.168 
L 180.183679 292.608 
L 180.264863 289.728 
L 180.346047 292.608 
L 180.508414 289.728 
L 180.589598 292.608 
L 180.751966 289.728 
L 180.83315 289.728 
L 180.995518 268.128001 
L 181.23907 214.848003 
L 181.320254 211.968003 
L 181.401438 217.728003 
L 181.807357 289.728 
L 181.888541 289.728 
L 181.969725 292.608 
L 182.050909 291.168 
L 182.132093 292.608 
L 182.213277 291.168 
L 182.294461 292.608 
L 182.456829 291.168 
L 182.619197 291.168 
L 182.700381 292.608 
L 182.943932 289.728 
L 183.1063 292.608 
L 183.187484 291.168 
L 183.268668 294.048 
L 183.431036 291.168 
L 183.51222 292.608 
L 183.674588 289.728 
L 183.755772 292.608 
L 183.836956 285.408001 
L 184.161691 213.408003 
L 184.242875 213.408003 
L 184.405243 240.768003 
L 184.729979 291.168 
L 184.811163 288.288 
L 184.973531 292.608 
L 185.054715 291.168 
L 185.135899 289.728 
L 185.37945 292.608 
L 185.541818 288.288 
L 185.704186 291.168 
L 185.78537 288.288 
L 185.947738 291.168 
L 186.110106 289.728 
L 186.272474 292.608 
L 186.353658 288.288 
L 186.434841 291.168 
L 186.516025 289.728 
L 186.678393 291.168 
L 186.759577 289.728 
L 186.921945 291.168 
L 187.003129 291.168 
L 187.084313 288.288 
L 187.327865 291.168 
L 187.571416 291.168 
L 187.6526 292.608 
L 187.814968 291.168 
L 188.139704 291.168 
L 188.220888 289.728 
L 188.383256 291.168 
L 188.46444 289.728 
L 188.626808 216.288003 
L 188.951543 57.888 
L 189.032727 56.448 
L 189.195095 105.408002 
L 189.601015 292.608 
L 189.682199 289.728 
L 189.844567 294.048 
L 189.925751 291.168 
L 190.006934 292.608 
L 190.088118 291.168 
L 190.250486 292.608 
L 190.33167 289.728 
L 190.494038 291.168 
L 190.575222 291.168 
L 190.73759 292.608 
L 190.818774 291.168 
L 190.899958 294.048 
L 191.062326 291.168 
L 191.14351 289.728 
L 191.224693 294.048 
L 191.387061 291.168 
L 191.468245 292.608 
L 191.549429 288.288 
L 191.711797 292.608 
L 191.792981 292.608 
L 191.874165 291.168 
L 191.955349 295.488 
L 192.036533 291.168 
L 192.117717 292.608 
L 192.280085 289.728 
L 192.361268 294.048 
L 192.523636 291.168 
L 192.60482 291.168 
L 192.767188 292.608 
L 192.848372 289.728 
L 192.929556 291.168 
L 193.01074 289.728 
L 193.254292 292.608 
L 193.41666 279.648001 
L 193.579027 245.088002 
L 193.822579 211.968003 
L 194.390867 292.608 
L 194.553235 291.168 
L 194.634419 291.168 
L 194.715603 292.608 
L 194.796786 291.168 
L 194.959154 294.048 
L 195.040338 294.048 
L 195.121522 291.168 
L 195.202706 294.048 
L 195.446258 291.168 
L 195.608626 292.608 
L 195.770994 291.168 
L 195.852178 291.168 
L 195.933362 294.048 
L 196.014545 292.608 
L 196.095729 288.288 
L 196.176913 289.728 
L 196.258097 291.168 
L 196.420465 265.248002 
L 196.664017 210.528003 
L 196.826385 226.368003 
L 197.232304 292.608 
L 197.394672 292.608 
L 197.55704 289.728 
L 197.638224 291.168 
L 197.719408 289.728 
L 197.881776 291.168 
L 197.96296 291.168 
L 198.044144 292.608 
L 198.125328 289.728 
L 198.206512 291.168 
L 198.287696 289.728 
L 198.531247 292.608 
L 198.612431 289.728 
L 198.693615 292.608 
L 198.855983 291.168 
L 199.099535 291.168 
L 199.180719 294.048 
L 199.261903 291.168 
L 199.343087 294.048 
L 199.586638 291.168 
L 199.83019 291.168 
L 199.992558 292.608 
L 200.073742 289.728 
L 200.154926 291.168 
L 200.23611 289.728 
L 200.317294 292.608 
L 200.479662 289.728 
L 200.64203 292.608 
L 200.804397 289.728 
L 200.885581 289.728 
L 200.966765 283.968001 
L 201.129133 204.768003 
L 201.453869 57.888 
L 201.535053 59.328 
L 201.697421 114.048003 
L 202.10334 289.728 
L 202.184524 292.608 
L 202.346892 291.168 
L 202.50926 291.168 
L 202.590444 292.608 
L 202.752812 291.168 
L 202.91518 291.168 
L 203.158732 294.048 
L 203.321099 291.168 
L 203.402283 294.048 
L 203.564651 289.728 
L 203.645835 294.048 
L 203.727019 291.168 
L 203.808203 294.048 
L 203.970571 291.168 
L 204.051755 291.168 
L 204.295307 294.048 
L 204.457674 291.168 
L 204.538858 291.168 
L 204.620042 292.608 
L 204.78241 291.168 
L 204.863594 292.608 
L 205.025962 289.728 
L 205.107146 292.608 
L 205.269514 291.168 
L 205.350698 291.168 
L 205.431882 289.728 
L 205.513066 292.608 
L 205.756617 289.728 
L 205.837801 289.728 
L 206.000169 260.928002 
L 206.243721 214.848003 
L 206.324905 214.848003 
L 206.487273 243.648002 
L 206.730825 289.728 
L 206.974376 292.608 
L 207.136744 291.168 
L 207.217928 291.168 
L 207.299112 292.608 
L 207.46148 291.168 
L 207.705032 291.168 
L 207.786216 289.728 
L 207.8674 291.168 
L 207.948584 289.728 
L 208.110951 292.608 
L 208.192135 289.728 
L 208.354503 292.608 
L 208.516871 291.168 
L 208.598055 292.608 
L 208.760423 289.728 
L 208.922791 260.928002 
L 209.166342 211.968003 
L 209.247526 214.848003 
L 209.409894 247.968002 
L 209.653446 289.728 
L 209.896998 292.608 
L 209.978182 289.728 
L 210.14055 291.168 
L 210.221734 289.728 
L 210.302918 292.608 
L 210.384101 289.728 
L 210.465285 292.608 
L 210.627653 291.168 
L 211.033573 291.168 
L 211.114757 292.608 
L 211.195941 289.728 
L 211.277125 291.168 
L 211.358309 289.728 
L 211.439493 292.608 
L 211.520677 291.168 
L 211.60186 292.608 
L 211.683044 291.168 
L 211.764228 292.608 
L 211.845412 289.728 
L 212.00778 292.608 
L 212.332516 288.288 
L 212.494884 291.168 
L 212.576068 292.608 
L 212.738436 288.288 
L 212.819619 291.168 
L 212.981987 289.728 
L 213.144355 291.168 
L 213.306723 291.168 
L 213.387907 289.728 
L 213.469091 279.648001 
L 213.712643 142.848003 
L 213.956195 56.448 
L 214.037378 62.208001 
L 214.199746 121.248003 
L 214.524482 288.288 
L 214.68685 291.168 
L 214.768034 292.608 
L 214.930402 291.168 
L 215.011586 295.488 
L 215.173953 291.168 
L 215.255137 291.168 
L 215.336321 292.608 
L 215.417505 291.168 
L 215.498689 292.608 
L 215.742241 289.728 
L 215.823425 292.608 
L 215.985793 291.168 
L 216.066977 292.608 
L 216.229345 289.728 
L 216.391712 292.608 
L 216.55408 291.168 
L 216.635264 292.608 
L 216.797632 291.168 
L 216.96 292.608 
L 217.041184 291.168 
L 217.122368 292.608 
L 217.203552 291.168 
L 217.284736 292.608 
L 217.36592 291.168 
L 217.528288 292.608 
L 217.609471 289.728 
L 217.771839 291.168 
L 217.934207 289.728 
L 218.177759 292.608 
L 218.340127 285.408001 
L 218.502495 259.488002 
L 218.746047 210.528003 
L 218.82723 213.408003 
L 219.314334 292.608 
L 219.476702 289.728 
L 219.63907 294.048 
L 219.720254 291.168 
L 219.882622 292.608 
L 220.044989 292.608 
L 220.126173 289.728 
L 220.288541 291.168 
L 220.369725 289.728 
L 220.450909 291.168 
L 220.532093 289.728 
L 220.694461 294.048 
L 220.775645 289.728 
L 220.856829 292.608 
L 220.938013 291.168 
L 221.019197 292.608 
L 221.262748 289.728 
L 221.425116 258.048002 
L 221.668668 211.968003 
L 221.749852 216.288003 
L 222.236956 292.608 
L 222.399323 291.168 
L 222.480507 291.168 
L 222.561691 292.608 
L 222.642875 291.168 
L 222.724059 292.608 
L 222.805243 291.168 
L 222.886427 292.608 
L 222.967611 291.168 
L 223.048795 292.608 
L 223.292347 289.728 
L 223.373531 289.728 
L 223.454715 292.608 
L 223.617082 291.168 
L 223.698266 291.168 
L 223.77945 289.728 
L 223.941818 292.608 
L 224.104186 291.168 
L 224.18537 291.168 
L 224.347738 294.048 
L 224.428922 291.168 
L 224.510106 292.608 
L 224.59129 291.168 
L 224.672474 292.608 
L 224.753658 289.728 
L 224.834841 292.608 
L 224.997209 291.168 
L 225.078393 292.608 
L 225.159577 291.168 
L 225.240761 294.048 
L 225.321945 291.168 
L 225.403129 294.048 
L 225.646681 291.168 
L 225.890233 291.168 
L 225.971416 276.768001 
L 226.45852 57.888 
L 226.539704 63.648001 
L 226.702072 128.448003 
L 227.026808 288.288 
L 227.189175 292.608 
L 227.351543 291.168 
L 227.432727 294.048 
L 227.513911 291.168 
L 227.676279 294.048 
L 227.838647 292.608 
L 227.919831 292.608 
L 228.082199 289.728 
L 228.244567 294.048 
L 228.406934 291.168 
L 228.569302 292.608 
L 228.73167 292.608 
L 228.894038 291.168 
L 228.975222 292.608 
L 229.056406 291.168 
L 229.218774 292.608 
L 229.381142 289.728 
L 229.624693 292.608 
L 229.705877 292.608 
L 229.787061 289.728 
L 230.030613 294.048 
L 230.274165 289.728 
L 230.355349 292.608 
L 230.436533 291.168 
L 230.598901 292.608 
L 230.761268 289.728 
L 230.842452 285.408001 
L 231.00482 253.728002 
L 231.248372 213.408003 
L 231.329556 216.288003 
L 231.735476 292.608 
L 231.81666 289.728 
L 231.897844 291.168 
L 231.979027 289.728 
L 232.141395 292.608 
L 232.222579 289.728 
L 232.303763 292.608 
L 232.384947 288.288 
L 232.466131 289.728 
L 232.628499 291.168 
L 232.709683 291.168 
L 232.790867 289.728 
L 232.872051 291.168 
L 232.953235 289.728 
L 233.115603 292.608 
L 233.27797 289.728 
L 233.440338 292.608 
L 233.521522 291.168 
L 233.602706 294.048 
L 233.846258 275.328001 
L 234.08981 216.288003 
L 234.170994 213.408003 
L 234.252178 219.168003 
L 234.658097 291.168 
L 234.739281 291.168 
L 234.820465 289.728 
L 234.901649 291.168 
L 234.982833 289.728 
L 235.145201 291.168 
L 235.388753 291.168 
L 235.469937 292.608 
L 235.713488 289.728 
L 235.875856 292.608 
L 235.95704 291.168 
L 236.119408 292.608 
L 236.200592 289.728 
L 236.281776 291.168 
L 236.36296 289.728 
L 236.606512 292.608 
L 236.768879 289.728 
L 236.931247 294.048 
L 237.093615 291.168 
L 237.174799 291.168 
L 237.255983 289.728 
L 237.499535 292.608 
L 237.580719 291.168 
L 237.824271 294.048 
L 237.986638 289.728 
L 238.149006 291.168 
L 238.23019 291.168 
L 238.311374 294.048 
L 238.392558 288.288 
L 238.473742 272.448001 
L 238.960846 55.008 
L 239.04203 65.088001 
L 239.285581 188.928004 
L 239.529133 291.168 
L 239.691501 292.608 
L 239.772685 289.728 
L 239.935053 294.048 
L 240.016237 291.168 
L 240.097421 295.488 
L 240.178605 289.728 
L 240.340973 292.608 
L 240.422156 292.608 
L 240.50334 291.168 
L 240.584524 292.608 
L 240.665708 289.728 
L 240.746892 292.608 
L 240.828076 291.168 
L 240.90926 292.608 
L 240.990444 289.728 
L 241.152812 292.608 
L 241.31518 294.048 
L 241.477548 289.728 
L 241.639915 292.608 
L 241.721099 294.048 
L 241.802283 292.608 
L 241.883467 294.048 
L 241.964651 289.728 
L 242.127019 292.608 
L 242.289387 291.168 
L 242.451755 294.048 
L 242.614123 289.728 
L 242.695307 292.608 
L 242.77649 291.168 
L 242.938858 292.608 
L 243.101226 292.608 
L 243.344778 286.848001 
L 243.750698 211.968003 
L 243.831882 217.728003 
L 244.237801 291.168 
L 244.318985 292.608 
L 244.562537 289.728 
L 244.724905 292.608 
L 244.806089 292.608 
L 244.968457 291.168 
L 245.212008 291.168 
L 245.374376 292.608 
L 245.45556 289.728 
L 245.536744 292.608 
L 245.699112 289.728 
L 245.86148 294.048 
L 246.023848 291.168 
L 246.2674 285.408001 
L 246.510951 229.248003 
L 246.673319 211.968003 
L 246.835687 235.008003 
L 247.079239 286.848001 
L 247.241607 291.168 
L 247.322791 292.608 
L 247.485159 291.168 
L 247.891078 291.168 
L 247.972262 289.728 
L 248.053446 292.608 
L 248.215814 291.168 
L 248.296998 292.608 
L 248.378182 291.168 
L 248.54055 292.608 
L 248.865285 288.288 
L 249.027653 292.608 
L 249.108837 289.728 
L 249.271205 291.168 
L 249.352389 289.728 
L 249.514757 291.168 
L 249.595941 289.728 
L 249.677125 291.168 
L 249.758309 289.728 
L 249.839493 292.608 
L 249.920677 291.168 
L 250.00186 292.608 
L 250.245412 289.728 
L 250.40778 292.608 
L 250.570148 289.728 
L 250.732516 291.168 
L 250.8137 291.168 
L 250.894884 289.728 
L 251.057252 222.048003 
L 251.381987 62.208001 
L 251.463171 57.888 
L 251.625539 101.088002 
L 252.031459 289.728 
L 252.112643 294.048 
L 252.275011 291.168 
L 252.356195 294.048 
L 252.437378 289.728 
L 252.518562 291.168 
L 252.68093 294.048 
L 252.843298 292.608 
L 253.005666 292.608 
L 253.08685 289.728 
L 253.249218 291.168 
L 253.330402 291.168 
L 253.411586 292.608 
L 253.573953 291.168 
L 253.736321 294.048 
L 253.898689 289.728 
L 254.061057 292.608 
L 254.142241 291.168 
L 254.304609 292.608 
L 254.385793 292.608 
L 254.466977 291.168 
L 254.629345 292.608 
L 254.710529 292.608 
L 254.872896 291.168 
L 254.95408 292.608 
L 255.035264 291.168 
L 255.197632 292.608 
L 255.36 292.608 
L 255.684736 288.288 
L 255.76592 291.168 
L 255.928288 269.568001 
L 256.253023 211.968003 
L 256.334207 219.168003 
L 256.740127 292.608 
L 256.821311 292.608 
L 256.902495 291.168 
L 256.983679 294.048 
L 257.064863 291.168 
L 257.22723 292.608 
L 257.308414 292.608 
L 257.389598 291.168 
L 257.470782 292.608 
L 257.551966 291.168 
L 257.63315 292.608 
L 257.795518 289.728 
L 257.957886 292.608 
L 258.120254 291.168 
L 258.363805 294.048 
L 258.526173 291.168 
L 258.607357 294.048 
L 258.769725 285.408001 
L 259.094461 213.408003 
L 259.175645 214.848003 
L 259.338013 240.768003 
L 259.581564 288.288 
L 259.743932 292.608 
L 259.825116 291.168 
L 259.987484 292.608 
L 260.149852 291.168 
L 260.231036 292.608 
L 260.393404 289.728 
L 260.555772 292.608 
L 260.636956 292.608 
L 260.71814 291.168 
L 260.799323 292.608 
L 260.880507 291.168 
L 261.042875 292.608 
L 261.286427 289.728 
L 261.529979 292.608 
L 261.692347 292.608 
L 261.773531 294.048 
L 262.017082 291.168 
L 262.17945 291.168 
L 262.260634 292.608 
L 262.423002 291.168 
L 262.504186 292.608 
L 262.58537 291.168 
L 262.666554 292.608 
L 262.747738 289.728 
L 262.99129 292.608 
L 263.072474 292.608 
L 263.234841 291.168 
L 263.316025 292.608 
L 263.397209 285.408001 
L 263.559577 214.848003 
L 263.884313 59.328 
L 263.965497 56.448 
L 264.127865 105.408002 
L 264.533784 289.728 
L 264.696152 292.608 
L 264.777336 291.168 
L 264.85852 292.608 
L 264.939704 291.168 
L 265.020888 292.608 
L 265.183256 291.168 
L 265.26444 291.168 
L 265.345624 289.728 
L 265.507992 292.608 
L 265.589175 291.168 
L 265.670359 292.608 
L 265.832727 289.728 
L 265.995095 291.168 
L 266.076279 291.168 
L 266.157463 292.608 
L 266.401015 289.728 
L 266.482199 289.728 
L 266.563383 292.608 
L 266.644567 291.168 
L 266.806934 294.048 
L 266.888118 289.728 
L 266.969302 291.168 
L 267.050486 292.608 
L 267.212854 291.168 
L 267.294038 291.168 
L 267.456406 292.608 
L 267.53759 292.608 
L 267.699958 288.288 
L 267.862326 291.168 
L 268.024693 291.168 
L 268.105877 292.608 
L 268.268245 288.288 
L 268.430613 265.248002 
L 268.674165 213.408003 
L 268.755349 213.408003 
L 268.917717 242.208003 
L 269.161268 289.728 
L 269.323636 292.608 
L 269.40482 292.608 
L 269.567188 289.728 
L 269.648372 292.608 
L 269.729556 289.728 
L 270.054292 294.048 
L 270.21666 292.608 
L 270.379027 294.048 
L 270.541395 291.168 
L 270.622579 294.048 
L 270.866131 291.168 
L 270.947315 291.168 
L 271.028499 294.048 
L 271.272051 282.528001 
L 271.67797 213.408003 
L 272.246258 292.608 
L 272.327442 289.728 
L 272.48981 292.608 
L 272.570994 289.728 
L 272.733362 292.608 
L 272.814545 292.608 
L 272.976913 291.168 
L 273.058097 292.608 
L 273.139281 291.168 
L 273.301649 292.608 
L 273.382833 291.168 
L 273.545201 292.608 
L 273.626385 289.728 
L 273.869937 292.608 
L 274.113488 288.288 
L 274.275856 292.608 
L 274.35704 289.728 
L 274.519408 291.168 
L 274.600592 291.168 
L 274.681776 294.048 
L 274.844144 291.168 
L 275.006512 292.608 
L 275.168879 292.608 
L 275.412431 289.728 
L 275.493615 294.048 
L 275.655983 291.168 
L 275.737167 289.728 
L 275.818351 291.168 
L 275.899535 282.528001 
L 276.061903 206.208003 
L 276.386638 59.328 
L 276.467822 59.328 
L 276.63019 112.608003 
L 276.954926 285.408001 
L 277.117294 292.608 
L 277.198478 289.728 
L 277.360846 292.608 
L 277.44203 291.168 
L 277.523214 292.608 
L 277.604397 291.168 
L 277.685581 292.608 
L 277.766765 291.168 
L 277.929133 292.608 
L 278.091501 288.288 
L 278.172685 294.048 
L 278.335053 289.728 
L 278.497421 292.608 
L 278.659789 291.168 
L 279.065708 291.168 
L 279.146892 292.608 
L 279.228076 288.288 
L 279.30926 292.608 
L 279.390444 291.168 
L 279.471628 292.608 
L 279.633996 291.168 
L 279.71518 294.048 
L 279.877548 292.608 
L 279.958732 292.608 
L 280.039915 289.728 
L 280.121099 291.168 
L 280.202283 289.728 
L 280.283467 292.608 
L 280.445835 289.728 
L 280.527019 294.048 
L 280.608203 289.728 
L 280.689387 291.168 
L 280.770571 289.728 
L 280.932939 260.928002 
L 281.17649 213.408003 
L 281.257674 214.848003 
L 281.420042 243.648002 
L 281.663594 289.728 
L 281.907146 292.608 
L 281.98833 289.728 
L 282.069514 291.168 
L 282.150698 289.728 
L 282.394249 292.608 
L 282.475433 289.728 
L 282.637801 294.048 
L 282.718985 289.728 
L 282.800169 292.608 
L 282.962537 291.168 
L 283.043721 291.168 
L 283.124905 294.048 
L 283.206089 289.728 
L 283.287273 292.608 
L 283.368457 291.168 
L 283.530825 292.608 
L 283.693192 289.728 
L 283.774376 281.088001 
L 284.099112 210.528003 
L 284.180296 213.408003 
L 284.6674 292.608 
L 284.829767 291.168 
L 284.992135 292.608 
L 285.154503 289.728 
L 285.316871 291.168 
L 285.398055 291.168 
L 285.479239 294.048 
L 285.560423 289.728 
L 285.722791 292.608 
L 285.803975 291.168 
L 285.966342 292.608 
L 286.047526 291.168 
L 286.12871 292.608 
L 286.209894 289.728 
L 286.372262 292.608 
L 286.453446 294.048 
L 286.615814 289.728 
L 286.696998 291.168 
L 286.778182 292.608 
L 286.94055 291.168 
L 287.102918 294.048 
L 287.265285 291.168 
L 287.346469 289.728 
L 287.508837 294.048 
L 287.590021 289.728 
L 287.671205 292.608 
L 287.833573 289.728 
L 287.995941 292.608 
L 288.158309 289.728 
L 288.320677 291.168 
L 288.40186 281.088001 
L 288.645412 147.168003 
L 288.888964 57.888 
L 288.970148 62.208001 
L 289.132516 119.808003 
L 289.457252 288.288 
L 289.619619 292.608 
L 289.700803 288.288 
L 289.944355 295.488 
L 290.187907 291.168 
L 290.269091 292.608 
L 290.350275 291.168 
L 290.593827 294.048 
L 290.756195 289.728 
L 290.837378 291.168 
L 290.999746 291.168 
L 291.08093 292.608 
L 291.243298 291.168 
L 291.324482 292.608 
L 291.405666 289.728 
L 291.568034 292.608 
L 291.649218 291.168 
L 291.730402 292.608 
L 291.89277 289.728 
L 292.055137 294.048 
L 292.136321 292.608 
L 292.298689 291.168 
L 292.379873 294.048 
L 292.461057 289.728 
L 292.542241 292.608 
L 292.623425 289.728 
L 292.704609 292.608 
L 292.785793 288.288 
L 292.866977 292.608 
L 292.948161 291.168 
L 293.029345 292.608 
L 293.110529 289.728 
L 293.191712 292.608 
L 293.35408 275.328001 
L 293.678816 211.968003 
L 293.76 213.408003 
L 294.16592 291.168 
L 294.247104 289.728 
L 294.409471 291.168 
L 294.571839 291.168 
L 294.653023 292.608 
L 294.815391 291.168 
L 294.896575 291.168 
L 294.977759 292.608 
L 295.058943 289.728 
L 295.140127 292.608 
L 295.302495 291.168 
L 295.464863 292.608 
L 295.546047 292.608 
L 295.62723 291.168 
L 295.708414 292.608 
L 295.951966 289.728 
L 296.114334 292.608 
L 296.195518 291.168 
L 296.43907 235.008003 
L 296.601438 214.848003 
L 296.682622 214.848003 
L 297.169725 291.168 
L 297.250909 291.168 
L 297.332093 289.728 
L 297.575645 292.608 
L 297.738013 291.168 
L 297.900381 291.168 
L 298.062748 292.608 
L 298.143932 292.608 
L 298.387484 288.288 
L 298.468668 294.048 
L 298.549852 291.168 
L 298.71222 292.608 
L 298.955772 289.728 
L 299.199323 292.608 
L 299.280507 289.728 
L 299.361691 292.608 
L 299.442875 291.168 
L 299.524059 294.048 
L 299.686427 289.728 
L 299.848795 292.608 
L 300.011163 289.728 
L 300.092347 292.608 
L 300.173531 288.288 
L 300.254715 291.168 
L 300.417082 289.728 
L 300.660634 292.608 
L 300.823002 292.608 
L 300.904186 278.208001 
L 301.39129 55.008 
L 301.472474 63.648001 
L 301.634841 127.008003 
L 301.959577 289.728 
L 302.121945 294.048 
L 302.203129 292.608 
L 302.284313 294.048 
L 302.446681 292.608 
L 302.690233 292.608 
L 302.8526 291.168 
L 302.933784 291.168 
L 303.014968 294.048 
L 303.177336 291.168 
L 303.25852 291.168 
L 303.420888 292.608 
L 303.583256 289.728 
L 303.66444 294.048 
L 303.745624 292.608 
L 303.826808 292.608 
L 303.907992 291.168 
L 304.151543 294.048 
L 304.395095 291.168 
L 304.638647 291.168 
L 304.801015 294.048 
L 304.882199 291.168 
L 304.963383 292.608 
L 305.044567 291.168 
L 305.125751 292.608 
L 305.206934 289.728 
L 305.369302 291.168 
L 305.450486 291.168 
L 305.53167 292.608 
L 305.612854 291.168 
L 305.694038 292.608 
L 305.856406 273.888001 
L 306.181142 213.408003 
L 306.262326 219.168003 
L 306.668245 291.168 
L 306.749429 289.728 
L 306.830613 289.728 
L 306.992981 292.608 
L 307.074165 289.728 
L 307.236533 292.608 
L 307.398901 291.168 
L 307.480085 292.608 
L 307.561268 291.168 
L 307.642452 292.608 
L 307.723636 291.168 
L 307.80482 292.608 
L 307.967188 291.168 
L 308.129556 291.168 
L 308.21074 289.728 
L 308.291924 291.168 
L 308.373108 289.728 
L 308.535476 292.608 
L 308.697844 288.288 
L 308.941395 232.128003 
L 309.103763 210.528003 
L 309.266131 235.008003 
L 309.590867 289.728 
L 309.753235 292.608 
L 309.915603 289.728 
L 309.996786 292.608 
L 310.07797 291.168 
L 310.240338 292.608 
L 310.402706 291.168 
L 310.565074 291.168 
L 310.646258 292.608 
L 310.727442 291.168 
L 310.808626 292.608 
L 310.970994 291.168 
L 311.295729 291.168 
L 311.376913 292.608 
L 311.539281 291.168 
L 311.620465 294.048 
L 311.701649 289.728 
L 311.782833 292.608 
L 311.945201 291.168 
L 312.026385 292.608 
L 312.107569 291.168 
L 312.188753 292.608 
L 312.351121 291.168 
L 312.432304 292.608 
L 312.594672 289.728 
L 312.75704 291.168 
L 312.838224 291.168 
L 312.919408 292.608 
L 313.081776 289.728 
L 313.244144 292.608 
L 313.325328 288.288 
L 313.406512 272.448001 
L 313.893615 53.568 
L 314.055983 93.888002 
L 314.543087 292.608 
L 314.705455 291.168 
L 314.867822 291.168 
L 314.949006 292.608 
L 315.03019 289.728 
L 315.192558 292.608 
L 315.273742 289.728 
L 315.354926 292.608 
L 315.43611 291.168 
L 315.517294 294.048 
L 315.679662 289.728 
L 315.760846 292.608 
L 315.84203 291.168 
L 315.923214 292.608 
L 316.085581 291.168 
L 316.166765 291.168 
L 316.247949 288.288 
L 316.329133 292.608 
L 316.410317 289.728 
L 316.491501 292.608 
L 316.653869 291.168 
L 316.816237 291.168 
L 316.897421 292.608 
L 317.059789 291.168 
L 317.140973 292.608 
L 317.30334 291.168 
L 317.465708 292.608 
L 317.628076 291.168 
L 317.70926 291.168 
L 317.790444 292.608 
L 317.871628 291.168 
L 317.952812 292.608 
L 318.033996 291.168 
L 318.11518 292.608 
L 318.196364 289.728 
L 318.358732 269.568001 
L 318.602283 214.848003 
L 318.683467 216.288003 
L 318.764651 219.168003 
L 318.927019 256.608002 
L 319.170571 292.608 
L 319.332939 291.168 
L 319.495307 291.168 
L 319.57649 294.048 
L 319.820042 291.168 
L 319.901226 291.168 
L 319.98241 292.608 
L 320.225962 289.728 
L 320.38833 292.608 
L 320.469514 289.728 
L 320.550698 294.048 
L 320.631882 291.168 
L 320.794249 292.608 
L 320.956617 292.608 
L 321.037801 289.728 
L 321.118985 292.608 
L 321.200169 286.848001 
L 321.606089 213.408003 
L 321.768457 236.448003 
L 322.012008 285.408001 
L 322.093192 292.608 
L 322.174376 291.168 
L 322.336744 292.608 
L 322.417928 291.168 
L 322.499112 292.608 
L 322.66148 289.728 
L 322.823848 292.608 
L 322.986216 291.168 
L 323.148584 292.608 
L 323.310951 291.168 
L 323.473319 291.168 
L 323.554503 292.608 
L 323.635687 291.168 
L 323.716871 294.048 
L 323.798055 291.168 
L 323.960423 292.608 
L 324.122791 289.728 
L 324.285159 291.168 
L 324.447526 291.168 
L 324.52871 289.728 
L 324.772262 292.608 
L 324.853446 291.168 
L 324.93463 292.608 
L 325.096998 291.168 
L 325.259366 292.608 
L 325.502918 292.608 
L 325.584101 289.728 
L 325.665285 291.168 
L 325.827653 286.848001 
L 325.908837 268.128001 
L 326.395941 53.568 
L 326.558309 99.648002 
L 326.964228 292.608 
L 327.126596 291.168 
L 327.288964 292.608 
L 327.370148 292.608 
L 327.532516 291.168 
L 327.6137 292.608 
L 327.694884 289.728 
L 327.938436 292.608 
L 328.181987 292.608 
L 328.425539 289.728 
L 328.506723 292.608 
L 328.669091 289.728 
L 328.750275 294.048 
L 328.912643 289.728 
L 328.993827 291.168 
L 329.075011 289.728 
L 329.156195 291.168 
L 329.237378 289.728 
L 329.318562 291.168 
L 329.48093 289.728 
L 329.724482 292.608 
L 329.805666 289.728 
L 329.88685 292.608 
L 329.968034 291.168 
L 330.049218 292.608 
L 330.130402 291.168 
L 330.29277 292.608 
L 330.373953 288.288 
L 330.455137 292.608 
L 330.536321 289.728 
L 330.698689 291.168 
L 330.861057 268.128001 
L 331.185793 210.528003 
L 331.348161 239.328003 
L 331.672896 292.608 
L 331.75408 292.608 
L 331.916448 291.168 
L 331.997632 292.608 
L 332.16 291.168 
L 332.647104 291.168 
L 332.728288 292.608 
L 332.971839 289.728 
L 333.134207 291.168 
L 333.215391 291.168 
L 333.296575 292.608 
L 333.377759 291.168 
L 333.458943 294.048 
L 333.702495 285.408001 
L 334.02723 214.848003 
L 334.108414 214.848003 
L 334.270782 239.328003 
L 334.514334 286.848001 
L 334.676702 292.608 
L 334.920254 292.608 
L 335.082622 289.728 
L 335.326173 292.608 
L 335.407357 292.608 
L 335.569725 291.168 
L 335.732093 291.168 
L 335.894461 294.048 
L 336.056829 291.168 
L 336.138013 292.608 
L 336.381564 289.728 
L 336.543932 292.608 
L 336.625116 292.608 
L 336.7063 289.728 
L 336.868668 292.608 
L 337.031036 289.728 
L 337.193404 292.608 
L 337.355772 291.168 
L 337.436956 291.168 
L 337.680507 294.048 
L 337.842875 291.168 
L 338.086427 294.048 
L 338.329979 285.408001 
L 338.492347 213.408003 
L 338.817082 60.768 
L 338.898266 59.328 
L 339.060634 106.848003 
L 339.466554 291.168 
L 339.710106 294.048 
L 339.872474 294.048 
L 340.034841 292.608 
L 340.116025 294.048 
L 340.278393 292.608 
L 340.440761 292.608 
L 340.521945 294.048 
L 340.684313 289.728 
L 340.765497 291.168 
L 340.927865 292.608 
L 341.090233 289.728 
L 341.2526 291.168 
L 341.333784 291.168 
L 341.496152 292.608 
L 341.577336 291.168 
L 341.739704 292.608 
L 341.820888 292.608 
L 341.902072 289.728 
L 341.983256 292.608 
L 342.145624 289.728 
L 342.226808 292.608 
L 342.389175 291.168 
L 342.551543 291.168 
L 342.713911 292.608 
L 342.795095 291.168 
L 342.957463 292.608 
L 343.038647 291.168 
L 343.119831 292.608 
L 343.282199 278.208001 
L 343.688118 211.968003 
L 343.850486 242.208003 
L 344.094038 292.608 
L 344.175222 292.608 
L 344.33759 289.728 
L 344.499958 292.608 
L 344.662326 291.168 
L 344.74351 291.168 
L 344.824693 289.728 
L 345.068245 292.608 
L 345.149429 292.608 
L 345.311797 289.728 
L 345.392981 291.168 
L 345.555349 289.728 
L 345.636533 292.608 
L 345.717717 289.728 
L 345.961268 292.608 
L 346.123636 288.288 
L 346.20482 281.088001 
L 346.61074 211.968003 
L 347.097844 291.168 
L 347.260211 291.168 
L 347.422579 292.608 
L 347.503763 292.608 
L 347.666131 291.168 
L 347.747315 292.608 
L 347.909683 291.168 
L 348.072051 291.168 
L 348.153235 292.608 
L 348.315603 291.168 
L 348.47797 291.168 
L 348.559154 288.288 
L 348.640338 291.168 
L 348.802706 289.728 
L 348.88389 292.608 
L 348.965074 289.728 
L 349.208626 292.608 
L 349.370994 288.288 
L 349.452178 289.728 
L 349.614545 289.728 
L 349.776913 292.608 
L 349.858097 289.728 
L 349.939281 292.608 
L 350.020465 291.168 
L 350.101649 292.608 
L 350.182833 291.168 
L 350.345201 294.048 
L 350.426385 291.168 
L 350.507569 292.608 
L 350.751121 289.728 
L 350.832304 282.528001 
L 351.075856 151.488004 
L 351.319408 56.448 
L 351.400592 59.328 
L 351.56296 115.488003 
L 351.968879 291.168 
L 352.131247 294.048 
L 352.212431 291.168 
L 352.293615 292.608 
L 352.374799 291.168 
L 352.455983 294.048 
L 352.618351 291.168 
L 352.699535 294.048 
L 352.780719 291.168 
L 352.943087 292.608 
L 353.024271 291.168 
L 353.105455 292.608 
L 353.186638 291.168 
L 353.267822 294.048 
L 353.43019 289.728 
L 353.673742 294.048 
L 353.83611 292.608 
L 353.998478 292.608 
L 354.160846 291.168 
L 354.24203 294.048 
L 354.323214 291.168 
L 354.404397 294.048 
L 354.566765 291.168 
L 354.647949 292.608 
L 354.729133 291.168 
L 354.810317 292.608 
L 354.891501 289.728 
L 355.053869 294.048 
L 355.216237 292.608 
L 355.297421 294.048 
L 355.378605 291.168 
L 355.459789 292.608 
L 355.70334 286.848001 
L 355.865708 260.928002 
L 356.10926 213.408003 
L 356.190444 214.848003 
L 356.352812 243.648002 
L 356.596364 292.608 
L 356.677548 291.168 
L 356.758732 292.608 
L 356.839915 291.168 
L 356.921099 292.608 
L 357.083467 291.168 
L 357.164651 294.048 
L 357.245835 292.608 
L 357.327019 288.288 
L 357.408203 292.608 
L 357.489387 291.168 
L 357.570571 292.608 
L 357.814123 288.288 
L 357.97649 292.608 
L 358.057674 292.608 
L 358.220042 289.728 
L 358.38241 292.608 
L 358.544778 292.608 
L 358.625962 289.728 
L 358.78833 260.928002 
L 359.031882 211.968003 
L 359.113066 216.288003 
L 359.275433 249.408002 
L 359.518985 289.728 
L 359.681353 292.608 
L 359.843721 291.168 
L 360.006089 292.608 
L 360.087273 291.168 
L 360.168457 292.608 
L 360.330825 291.168 
L 360.412008 292.608 
L 360.493192 291.168 
L 360.574376 292.608 
L 360.65556 291.168 
L 360.817928 292.608 
L 360.899112 289.728 
L 361.06148 294.048 
L 361.142664 292.608 
L 361.305032 289.728 
L 361.4674 292.608 
L 361.629767 291.168 
L 361.792135 294.048 
L 361.954503 291.168 
L 362.116871 291.168 
L 362.198055 289.728 
L 362.360423 294.048 
L 362.441607 291.168 
L 362.522791 292.608 
L 362.603975 289.728 
L 362.685159 292.608 
L 362.766342 291.168 
L 362.847526 292.608 
L 363.009894 289.728 
L 363.172262 292.608 
L 363.253446 291.168 
L 363.33463 281.088001 
L 363.902918 53.568 
L 364.065285 85.248002 
L 364.633573 291.168 
L 364.714757 291.168 
L 364.958309 294.048 
L 365.039493 294.048 
L 365.20186 289.728 
L 365.445412 292.608 
L 365.60778 289.728 
L 365.770148 292.608 
L 365.932516 291.168 
L 366.0137 292.608 
L 366.176068 291.168 
L 366.257252 292.608 
L 366.338436 291.168 
L 366.419619 294.048 
L 366.744355 289.728 
L 366.825539 289.728 
L 366.987907 292.608 
L 367.069091 291.168 
L 367.150275 294.048 
L 367.231459 291.168 
L 367.393827 292.608 
L 367.475011 289.728 
L 367.556195 294.048 
L 367.637378 292.608 
L 367.718562 292.608 
L 367.799746 291.168 
L 367.88093 292.608 
L 368.043298 291.168 
L 368.205666 291.168 
L 368.28685 288.288 
L 368.69277 211.968003 
L 368.773953 216.288003 
L 369.342241 291.168 
L 369.423425 292.608 
L 369.666977 289.728 
L 369.829345 292.608 
L 369.991712 291.168 
L 370.15408 292.608 
L 370.235264 291.168 
L 370.316448 294.048 
L 370.478816 291.168 
L 370.641184 294.048 
L 370.884736 291.168 
L 370.96592 295.488 
L 371.128288 291.168 
L 371.209471 289.728 
L 371.453023 235.008003 
L 371.615391 213.408003 
L 371.696575 217.728003 
L 372.183679 292.608 
L 372.264863 291.168 
L 372.346047 292.608 
L 372.42723 289.728 
L 372.508414 292.608 
L 372.670782 291.168 
L 372.751966 291.168 
L 372.83315 292.608 
L 372.914334 289.728 
L 373.076702 292.608 
L 373.157886 292.608 
L 373.23907 294.048 
L 373.401438 291.168 
L 373.482622 291.168 
L 373.563805 292.608 
L 373.644989 291.168 
L 373.726173 294.048 
L 373.969725 291.168 
L 374.213277 291.168 
L 374.294461 295.488 
L 374.456829 291.168 
L 374.619197 288.288 
L 374.781564 291.168 
L 374.943932 291.168 
L 375.025116 292.608 
L 375.1063 291.168 
L 375.187484 292.608 
L 375.349852 291.168 
L 375.51222 292.608 
L 375.593404 289.728 
L 375.755772 294.048 
L 375.836956 291.168 
L 375.91814 276.768001 
L 376.405243 53.568 
L 376.567611 89.568002 
L 377.054715 289.728 
L 377.135899 292.608 
L 377.298266 291.168 
L 377.460634 292.608 
L 377.541818 291.168 
L 377.704186 292.608 
L 377.866554 288.288 
L 378.028922 292.608 
L 378.110106 291.168 
L 378.272474 292.608 
L 378.353658 289.728 
L 378.434841 292.608 
L 378.597209 291.168 
L 378.759577 292.608 
L 378.840761 289.728 
L 379.003129 292.608 
L 379.084313 292.608 
L 379.246681 291.168 
L 379.409049 292.608 
L 379.490233 292.608 
L 379.571416 291.168 
L 379.6526 292.608 
L 379.814968 289.728 
L 380.05852 292.608 
L 380.220888 289.728 
L 380.383256 292.608 
L 380.545624 289.728 
L 380.626808 292.608 
L 380.707992 291.168 
L 380.870359 272.448001 
L 381.195095 213.408003 
L 381.276279 216.288003 
L 381.763383 294.048 
L 381.925751 289.728 
L 382.088118 292.608 
L 382.169302 291.168 
L 382.250486 292.608 
L 382.412854 291.168 
L 382.494038 291.168 
L 382.656406 292.608 
L 382.818774 291.168 
L 383.062326 294.048 
L 383.224693 292.608 
L 383.305877 292.608 
L 383.387061 289.728 
L 383.468245 292.608 
L 383.549429 289.728 
L 383.630613 292.608 
L 383.711797 289.728 
L 384.117717 213.408003 
L 384.198901 219.168003 
L 384.686004 292.608 
L 384.767188 294.048 
L 384.929556 292.608 
L 385.01074 294.048 
L 385.091924 291.168 
L 385.173108 292.608 
L 385.254292 289.728 
L 385.335476 294.048 
L 385.41666 292.608 
L 385.660211 292.608 
L 385.741395 291.168 
L 385.903763 292.608 
L 386.066131 292.608 
L 386.147315 294.048 
L 386.309683 291.168 
L 386.634419 291.168 
L 386.715603 292.608 
L 386.796786 291.168 
L 386.959154 292.608 
L 387.040338 292.608 
L 387.202706 291.168 
L 387.365074 291.168 
L 387.446258 292.608 
L 387.527442 291.168 
L 387.608626 292.608 
L 387.852178 289.728 
L 388.014545 292.608 
L 388.176913 289.728 
L 388.258097 292.608 
L 388.339281 288.288 
L 388.420465 272.448001 
L 388.907569 55.008 
L 388.988753 63.648001 
L 389.313488 240.768003 
L 389.475856 292.608 
L 389.638224 291.168 
L 389.719408 291.168 
L 389.800592 292.608 
L 389.96296 289.728 
L 390.206512 292.608 
L 390.287696 292.608 
L 390.368879 291.168 
L 390.450063 292.608 
L 390.612431 289.728 
L 390.774799 292.608 
L 390.855983 292.608 
L 390.937167 294.048 
L 391.180719 291.168 
L 391.343087 294.048 
L 391.505455 292.608 
L 391.911374 292.608 
L 392.073742 291.168 
L 392.154926 291.168 
L 392.23611 292.608 
L 392.398478 291.168 
L 392.560846 292.608 
L 392.723214 289.728 
L 392.885581 291.168 
L 392.966765 289.728 
L 393.047949 292.608 
L 393.210317 291.168 
L 393.372685 269.568001 
L 393.697421 211.968003 
L 393.859789 237.888003 
L 394.184524 292.608 
L 394.265708 291.168 
L 394.428076 292.608 
L 394.590444 291.168 
L 394.752812 292.608 
L 394.91518 291.168 
L 395.158732 291.168 
L 395.321099 292.608 
L 395.402283 292.608 
L 395.483467 294.048 
L 395.564651 291.168 
L 395.645835 292.608 
L 395.808203 291.168 
L 395.970571 291.168 
L 396.051755 292.608 
L 396.214123 283.968001 
L 396.620042 213.408003 
L 396.701226 220.608003 
L 397.107146 292.608 
L 397.269514 289.728 
L 397.513066 292.608 
L 397.594249 292.608 
L 397.756617 289.728 
L 397.837801 292.608 
L 397.918985 289.728 
L 398.081353 292.608 
L 398.162537 291.168 
L 398.324905 292.608 
L 398.487273 292.608 
L 398.487273 292.608 
" style="fill:none;stroke:#1f77b4;stroke-linecap:square;stroke-width:1.5;"/>
   </g>
   <g id="patch_3">
    <path d="M 57.6 307.584 
L 57.6 41.472 
" style="fill:none;stroke:#000000;stroke-linecap:square;stroke-linejoin:miter;stroke-width:0.8;"/>
   </g>
   <g id="patch_4">
    <path d="M 414.72 307.584 
L 414.72 41.472 
" style="fill:none;stroke:#000000;stroke-linecap:square;stroke-linejoin:miter;stroke-width:0.8;"/>
   </g>
   <g id="patch_5">
    <path d="M 57.6 307.584 
L 414.72 307.584 
" style="fill:none;stroke:#000000;stroke-linecap:square;stroke-linejoin:miter;stroke-width:0.8;"/>
   </g>
   <g id="patch_6">
    <path d="M 57.6 41.472 
L 414.72 41.472 
" style="fill:none;stroke:#000000;stroke-linecap:square;stroke-linejoin:miter;stroke-width:0.8;"/>
   </g>
   <g id="text_18">
    <!-- received signal sliced -->
    <g transform="translate(171.605625 35.472)scale(0.12 -0.12)">
     <defs>
      <path d="M 2631 2963 
Q 2534 3019 2420 3045 
Q 2306 3072 2169 3072 
Q 1681 3072 1420 2755 
Q 1159 2438 1159 1844 
L 1159 0 
L 581 0 
L 581 3500 
L 1159 3500 
L 1159 2956 
Q 1341 3275 1631 3429 
Q 1922 3584 2338 3584 
Q 2397 3584 2469 3576 
Q 2541 3569 2628 3553 
L 2631 2963 
z
" id="DejaVuSans-72" transform="scale(0.015625)"/>
      <path d="M 3122 3366 
L 3122 2828 
Q 2878 2963 2633 3030 
Q 2388 3097 2138 3097 
Q 1578 3097 1268 2742 
Q 959 2388 959 1747 
Q 959 1106 1268 751 
Q 1578 397 2138 397 
Q 2388 397 2633 464 
Q 2878 531 3122 666 
L 3122 134 
Q 2881 22 2623 -34 
Q 2366 -91 2075 -91 
Q 1284 -91 818 406 
Q 353 903 353 1747 
Q 353 2603 823 3093 
Q 1294 3584 2113 3584 
Q 2378 3584 2631 3529 
Q 2884 3475 3122 3366 
z
" id="DejaVuSans-63" transform="scale(0.015625)"/>
      <path d="M 191 3500 
L 800 3500 
L 1894 563 
L 2988 3500 
L 3597 3500 
L 2284 0 
L 1503 0 
L 191 3500 
z
" id="DejaVuSans-76" transform="scale(0.015625)"/>
      <path d="M 2906 2969 
L 2906 4863 
L 3481 4863 
L 3481 0 
L 2906 0 
L 2906 525 
Q 2725 213 2448 61 
Q 2172 -91 1784 -91 
Q 1150 -91 751 415 
Q 353 922 353 1747 
Q 353 2572 751 3078 
Q 1150 3584 1784 3584 
Q 2172 3584 2448 3432 
Q 2725 3281 2906 2969 
z
M 947 1747 
Q 947 1113 1208 752 
Q 1469 391 1925 391 
Q 2381 391 2643 752 
Q 2906 1113 2906 1747 
Q 2906 2381 2643 2742 
Q 2381 3103 1925 3103 
Q 1469 3103 1208 2742 
Q 947 2381 947 1747 
z
" id="DejaVuSans-64" transform="scale(0.015625)"/>
      <path d="M 2906 1791 
Q 2906 2416 2648 2759 
Q 2391 3103 1925 3103 
Q 1463 3103 1205 2759 
Q 947 2416 947 1791 
Q 947 1169 1205 825 
Q 1463 481 1925 481 
Q 2391 481 2648 825 
Q 2906 1169 2906 1791 
z
M 3481 434 
Q 3481 -459 3084 -895 
Q 2688 -1331 1869 -1331 
Q 1566 -1331 1297 -1286 
Q 1028 -1241 775 -1147 
L 775 -588 
Q 1028 -725 1275 -790 
Q 1522 -856 1778 -856 
Q 2344 -856 2625 -561 
Q 2906 -266 2906 331 
L 2906 616 
Q 2728 306 2450 153 
Q 2172 0 1784 0 
Q 1141 0 747 490 
Q 353 981 353 1791 
Q 353 2603 747 3093 
Q 1141 3584 1784 3584 
Q 2172 3584 2450 3431 
Q 2728 3278 2906 2969 
L 2906 3500 
L 3481 3500 
L 3481 434 
z
" id="DejaVuSans-67" transform="scale(0.015625)"/>
      <path d="M 3513 2113 
L 3513 0 
L 2938 0 
L 2938 2094 
Q 2938 2591 2744 2837 
Q 2550 3084 2163 3084 
Q 1697 3084 1428 2787 
Q 1159 2491 1159 1978 
L 1159 0 
L 581 0 
L 581 3500 
L 1159 3500 
L 1159 2956 
Q 1366 3272 1645 3428 
Q 1925 3584 2291 3584 
Q 2894 3584 3203 3211 
Q 3513 2838 3513 2113 
z
" id="DejaVuSans-6e" transform="scale(0.015625)"/>
      <path d="M 2194 1759 
Q 1497 1759 1228 1600 
Q 959 1441 959 1056 
Q 959 750 1161 570 
Q 1363 391 1709 391 
Q 2188 391 2477 730 
Q 2766 1069 2766 1631 
L 2766 1759 
L 2194 1759 
z
M 3341 1997 
L 3341 0 
L 2766 0 
L 2766 531 
Q 2569 213 2275 61 
Q 1981 -91 1556 -91 
Q 1019 -91 701 211 
Q 384 513 384 1019 
Q 384 1609 779 1909 
Q 1175 2209 1959 2209 
L 2766 2209 
L 2766 2266 
Q 2766 2663 2505 2880 
Q 2244 3097 1772 3097 
Q 1472 3097 1187 3025 
Q 903 2953 641 2809 
L 641 3341 
Q 956 3463 1253 3523 
Q 1550 3584 1831 3584 
Q 2591 3584 2966 3190 
Q 3341 2797 3341 1997 
z
" id="DejaVuSans-61" transform="scale(0.015625)"/>
      <path d="M 603 4863 
L 1178 4863 
L 1178 0 
L 603 0 
L 603 4863 
z
" id="DejaVuSans-6c" transform="scale(0.015625)"/>
     </defs>
     <use xlink:href="#DejaVuSans-72"/>
     <use x="38.863281" xlink:href="#DejaVuSans-65"/>
     <use x="100.386719" xlink:href="#DejaVuSans-63"/>
     <use x="155.367188" xlink:href="#DejaVuSans-65"/>
     <use x="216.890625" xlink:href="#DejaVuSans-69"/>
     <use x="244.673828" xlink:href="#DejaVuSans-76"/>
     <use x="303.853516" xlink:href="#DejaVuSans-65"/>
     <use x="365.376953" xlink:href="#DejaVuSans-64"/>
     <use x="428.853516" xlink:href="#DejaVuSans-20"/>
     <use x="460.640625" xlink:href="#DejaVuSans-73"/>
     <use x="512.740234" xlink:href="#DejaVuSans-69"/>
     <use x="540.523438" xlink:href="#DejaVuSans-67"/>
     <use x="604" xlink:href="#DejaVuSans-6e"/>
     <use x="667.378906" xlink:href="#DejaVuSans-61"/>
     <use x="728.658203" xlink:href="#DejaVuSans-6c"/>
     <use x="756.441406" xlink:href="#DejaVuSans-20"/>
     <use x="788.228516" xlink:href="#DejaVuSans-73"/>
     <use x="840.328125" xlink:href="#DejaVuSans-6c"/>
     <use x="868.111328" xlink:href="#DejaVuSans-69"/>
     <use x="895.894531" xlink:href="#DejaVuSans-63"/>
     <use x="950.875" xlink:href="#DejaVuSans-65"/>
     <use x="1012.398438" xlink:href="#DejaVuSans-64"/>
    </g>
   </g>
  </g>
 </g>
 <defs>
  <clipPath id="pdbae2c5405">
   <rect height="266.112" width="357.12" x="57.6" y="41.472"/>
  </clipPath>
 </defs>
</svg>
