<?xml version="1.0" encoding="utf-8" standalone="no"?>
<!DOCTYPE svg PUBLIC "-//W3C//DTD SVG 1.1//EN"
  "http://www.w3.org/Graphics/SVG/1.1/DTD/svg11.dtd">
<svg height="345.6pt" version="1.1" viewBox="0 0 460.8 345.6" width="460.8pt" xmlns="http://www.w3.org/2000/svg" xmlns:xlink="http://www.w3.org/1999/xlink">
 <metadata>
  <rdf:RDF xmlns:cc="http://creativecommons.org/ns#" xmlns:dc="http://purl.org/dc/elements/1.1/" xmlns:rdf="http://www.w3.org/1999/02/22-rdf-syntax-ns#">
   <cc:Work>
    <dc:type rdf:resource="http://purl.org/dc/dcmitype/StillImage"/>
    <dc:date>2021-11-04T01:37:12.789303</dc:date>
    <dc:format>image/svg+xml</dc:format>
    <dc:creator>
     <cc:Agent>
      <dc:title>Matplotlib v3.4.3, https://matplotlib.org/</dc:title>
     </cc:Agent>
    </dc:creator>
   </cc:Work>
  </rdf:RDF>
 </metadata>
 <defs>
  <style type="text/css">*{stroke-linecap:butt;stroke-linejoin:round;}</style>
 </defs>
 <g id="figure_1">
  <g id="patch_1">
   <path d="M 0 345.6 
L 460.8 345.6 
L 460.8 0 
L 0 0 
z
" style="fill:#ffffff;"/>
  </g>
  <g id="axes_1">
   <g id="patch_2">
    <path d="M 57.6 307.584 
L 414.72 307.584 
L 414.72 41.472 
L 57.6 41.472 
z
" style="fill:#ffffff;"/>
   </g>
   <g id="matplotlib.axis_1">
    <g id="xtick_1">
     <g id="line2d_1">
      <defs>
       <path d="M 0 0 
L 0 3.5 
" id="m7a40a317ec" style="stroke:#000000;stroke-width:0.8;"/>
      </defs>
      <g>
       <use style="stroke:#000000;stroke-width:0.8;" x="73.784017" xlink:href="#m7a40a317ec" y="307.584"/>
      </g>
     </g>
     <g id="text_1">
      <!-- 300 -->
      <g transform="translate(64.240267 322.182437)scale(0.1 -0.1)">
       <defs>
        <path d="M 2597 2516 
Q 3050 2419 3304 2112 
Q 3559 1806 3559 1356 
Q 3559 666 3084 287 
Q 2609 -91 1734 -91 
Q 1441 -91 1130 -33 
Q 819 25 488 141 
L 488 750 
Q 750 597 1062 519 
Q 1375 441 1716 441 
Q 2309 441 2620 675 
Q 2931 909 2931 1356 
Q 2931 1769 2642 2001 
Q 2353 2234 1838 2234 
L 1294 2234 
L 1294 2753 
L 1863 2753 
Q 2328 2753 2575 2939 
Q 2822 3125 2822 3475 
Q 2822 3834 2567 4026 
Q 2313 4219 1838 4219 
Q 1578 4219 1281 4162 
Q 984 4106 628 3988 
L 628 4550 
Q 988 4650 1302 4700 
Q 1616 4750 1894 4750 
Q 2613 4750 3031 4423 
Q 3450 4097 3450 3541 
Q 3450 3153 3228 2886 
Q 3006 2619 2597 2516 
z
" id="DejaVuSans-33" transform="scale(0.015625)"/>
        <path d="M 2034 4250 
Q 1547 4250 1301 3770 
Q 1056 3291 1056 2328 
Q 1056 1369 1301 889 
Q 1547 409 2034 409 
Q 2525 409 2770 889 
Q 3016 1369 3016 2328 
Q 3016 3291 2770 3770 
Q 2525 4250 2034 4250 
z
M 2034 4750 
Q 2819 4750 3233 4129 
Q 3647 3509 3647 2328 
Q 3647 1150 3233 529 
Q 2819 -91 2034 -91 
Q 1250 -91 836 529 
Q 422 1150 422 2328 
Q 422 3509 836 4129 
Q 1250 4750 2034 4750 
z
" id="DejaVuSans-30" transform="scale(0.015625)"/>
       </defs>
       <use xlink:href="#DejaVuSans-33"/>
       <use x="63.623047" xlink:href="#DejaVuSans-30"/>
       <use x="127.246094" xlink:href="#DejaVuSans-30"/>
      </g>
     </g>
    </g>
    <g id="xtick_2">
     <g id="line2d_2">
      <g>
       <use style="stroke:#000000;stroke-width:0.8;" x="114.371924" xlink:href="#m7a40a317ec" y="307.584"/>
      </g>
     </g>
     <g id="text_2">
      <!-- 325 -->
      <g transform="translate(104.828174 322.182437)scale(0.1 -0.1)">
       <defs>
        <path d="M 1228 531 
L 3431 531 
L 3431 0 
L 469 0 
L 469 531 
Q 828 903 1448 1529 
Q 2069 2156 2228 2338 
Q 2531 2678 2651 2914 
Q 2772 3150 2772 3378 
Q 2772 3750 2511 3984 
Q 2250 4219 1831 4219 
Q 1534 4219 1204 4116 
Q 875 4013 500 3803 
L 500 4441 
Q 881 4594 1212 4672 
Q 1544 4750 1819 4750 
Q 2544 4750 2975 4387 
Q 3406 4025 3406 3419 
Q 3406 3131 3298 2873 
Q 3191 2616 2906 2266 
Q 2828 2175 2409 1742 
Q 1991 1309 1228 531 
z
" id="DejaVuSans-32" transform="scale(0.015625)"/>
        <path d="M 691 4666 
L 3169 4666 
L 3169 4134 
L 1269 4134 
L 1269 2991 
Q 1406 3038 1543 3061 
Q 1681 3084 1819 3084 
Q 2600 3084 3056 2656 
Q 3513 2228 3513 1497 
Q 3513 744 3044 326 
Q 2575 -91 1722 -91 
Q 1428 -91 1123 -41 
Q 819 9 494 109 
L 494 744 
Q 775 591 1075 516 
Q 1375 441 1709 441 
Q 2250 441 2565 725 
Q 2881 1009 2881 1497 
Q 2881 1984 2565 2268 
Q 2250 2553 1709 2553 
Q 1456 2553 1204 2497 
Q 953 2441 691 2322 
L 691 4666 
z
" id="DejaVuSans-35" transform="scale(0.015625)"/>
       </defs>
       <use xlink:href="#DejaVuSans-33"/>
       <use x="63.623047" xlink:href="#DejaVuSans-32"/>
       <use x="127.246094" xlink:href="#DejaVuSans-35"/>
      </g>
     </g>
    </g>
    <g id="xtick_3">
     <g id="line2d_3">
      <g>
       <use style="stroke:#000000;stroke-width:0.8;" x="154.959831" xlink:href="#m7a40a317ec" y="307.584"/>
      </g>
     </g>
     <g id="text_3">
      <!-- 350 -->
      <g transform="translate(145.416081 322.182437)scale(0.1 -0.1)">
       <use xlink:href="#DejaVuSans-33"/>
       <use x="63.623047" xlink:href="#DejaVuSans-35"/>
       <use x="127.246094" xlink:href="#DejaVuSans-30"/>
      </g>
     </g>
    </g>
    <g id="xtick_4">
     <g id="line2d_4">
      <g>
       <use style="stroke:#000000;stroke-width:0.8;" x="195.547738" xlink:href="#m7a40a317ec" y="307.584"/>
      </g>
     </g>
     <g id="text_4">
      <!-- 375 -->
      <g transform="translate(186.003988 322.182437)scale(0.1 -0.1)">
       <defs>
        <path d="M 525 4666 
L 3525 4666 
L 3525 4397 
L 1831 0 
L 1172 0 
L 2766 4134 
L 525 4134 
L 525 4666 
z
" id="DejaVuSans-37" transform="scale(0.015625)"/>
       </defs>
       <use xlink:href="#DejaVuSans-33"/>
       <use x="63.623047" xlink:href="#DejaVuSans-37"/>
       <use x="127.246094" xlink:href="#DejaVuSans-35"/>
      </g>
     </g>
    </g>
    <g id="xtick_5">
     <g id="line2d_5">
      <g>
       <use style="stroke:#000000;stroke-width:0.8;" x="236.135645" xlink:href="#m7a40a317ec" y="307.584"/>
      </g>
     </g>
     <g id="text_5">
      <!-- 400 -->
      <g transform="translate(226.591895 322.182437)scale(0.1 -0.1)">
       <defs>
        <path d="M 2419 4116 
L 825 1625 
L 2419 1625 
L 2419 4116 
z
M 2253 4666 
L 3047 4666 
L 3047 1625 
L 3713 1625 
L 3713 1100 
L 3047 1100 
L 3047 0 
L 2419 0 
L 2419 1100 
L 313 1100 
L 313 1709 
L 2253 4666 
z
" id="DejaVuSans-34" transform="scale(0.015625)"/>
       </defs>
       <use xlink:href="#DejaVuSans-34"/>
       <use x="63.623047" xlink:href="#DejaVuSans-30"/>
       <use x="127.246094" xlink:href="#DejaVuSans-30"/>
      </g>
     </g>
    </g>
    <g id="xtick_6">
     <g id="line2d_6">
      <g>
       <use style="stroke:#000000;stroke-width:0.8;" x="276.723552" xlink:href="#m7a40a317ec" y="307.584"/>
      </g>
     </g>
     <g id="text_6">
      <!-- 425 -->
      <g transform="translate(267.179802 322.182437)scale(0.1 -0.1)">
       <use xlink:href="#DejaVuSans-34"/>
       <use x="63.623047" xlink:href="#DejaVuSans-32"/>
       <use x="127.246094" xlink:href="#DejaVuSans-35"/>
      </g>
     </g>
    </g>
    <g id="xtick_7">
     <g id="line2d_7">
      <g>
       <use style="stroke:#000000;stroke-width:0.8;" x="317.311459" xlink:href="#m7a40a317ec" y="307.584"/>
      </g>
     </g>
     <g id="text_7">
      <!-- 450 -->
      <g transform="translate(307.767709 322.182437)scale(0.1 -0.1)">
       <use xlink:href="#DejaVuSans-34"/>
       <use x="63.623047" xlink:href="#DejaVuSans-35"/>
       <use x="127.246094" xlink:href="#DejaVuSans-30"/>
      </g>
     </g>
    </g>
    <g id="xtick_8">
     <g id="line2d_8">
      <g>
       <use style="stroke:#000000;stroke-width:0.8;" x="357.899366" xlink:href="#m7a40a317ec" y="307.584"/>
      </g>
     </g>
     <g id="text_8">
      <!-- 475 -->
      <g transform="translate(348.355616 322.182437)scale(0.1 -0.1)">
       <use xlink:href="#DejaVuSans-34"/>
       <use x="63.623047" xlink:href="#DejaVuSans-37"/>
       <use x="127.246094" xlink:href="#DejaVuSans-35"/>
      </g>
     </g>
    </g>
    <g id="xtick_9">
     <g id="line2d_9">
      <g>
       <use style="stroke:#000000;stroke-width:0.8;" x="398.487273" xlink:href="#m7a40a317ec" y="307.584"/>
      </g>
     </g>
     <g id="text_9">
      <!-- 500 -->
      <g transform="translate(388.943523 322.182437)scale(0.1 -0.1)">
       <use xlink:href="#DejaVuSans-35"/>
       <use x="63.623047" xlink:href="#DejaVuSans-30"/>
       <use x="127.246094" xlink:href="#DejaVuSans-30"/>
      </g>
     </g>
    </g>
    <g id="text_10">
     <!-- time [ms] -->
     <g transform="translate(211.898281 335.860562)scale(0.1 -0.1)">
      <defs>
       <path d="M 1172 4494 
L 1172 3500 
L 2356 3500 
L 2356 3053 
L 1172 3053 
L 1172 1153 
Q 1172 725 1289 603 
Q 1406 481 1766 481 
L 2356 481 
L 2356 0 
L 1766 0 
Q 1100 0 847 248 
Q 594 497 594 1153 
L 594 3053 
L 172 3053 
L 172 3500 
L 594 3500 
L 594 4494 
L 1172 4494 
z
" id="DejaVuSans-74" transform="scale(0.015625)"/>
       <path d="M 603 3500 
L 1178 3500 
L 1178 0 
L 603 0 
L 603 3500 
z
M 603 4863 
L 1178 4863 
L 1178 4134 
L 603 4134 
L 603 4863 
z
" id="DejaVuSans-69" transform="scale(0.015625)"/>
       <path d="M 3328 2828 
Q 3544 3216 3844 3400 
Q 4144 3584 4550 3584 
Q 5097 3584 5394 3201 
Q 5691 2819 5691 2113 
L 5691 0 
L 5113 0 
L 5113 2094 
Q 5113 2597 4934 2840 
Q 4756 3084 4391 3084 
Q 3944 3084 3684 2787 
Q 3425 2491 3425 1978 
L 3425 0 
L 2847 0 
L 2847 2094 
Q 2847 2600 2669 2842 
Q 2491 3084 2119 3084 
Q 1678 3084 1418 2786 
Q 1159 2488 1159 1978 
L 1159 0 
L 581 0 
L 581 3500 
L 1159 3500 
L 1159 2956 
Q 1356 3278 1631 3431 
Q 1906 3584 2284 3584 
Q 2666 3584 2933 3390 
Q 3200 3197 3328 2828 
z
" id="DejaVuSans-6d" transform="scale(0.015625)"/>
       <path d="M 3597 1894 
L 3597 1613 
L 953 1613 
Q 991 1019 1311 708 
Q 1631 397 2203 397 
Q 2534 397 2845 478 
Q 3156 559 3463 722 
L 3463 178 
Q 3153 47 2828 -22 
Q 2503 -91 2169 -91 
Q 1331 -91 842 396 
Q 353 884 353 1716 
Q 353 2575 817 3079 
Q 1281 3584 2069 3584 
Q 2775 3584 3186 3129 
Q 3597 2675 3597 1894 
z
M 3022 2063 
Q 3016 2534 2758 2815 
Q 2500 3097 2075 3097 
Q 1594 3097 1305 2825 
Q 1016 2553 972 2059 
L 3022 2063 
z
" id="DejaVuSans-65" transform="scale(0.015625)"/>
       <path id="DejaVuSans-20" transform="scale(0.015625)"/>
       <path d="M 550 4863 
L 1875 4863 
L 1875 4416 
L 1125 4416 
L 1125 -397 
L 1875 -397 
L 1875 -844 
L 550 -844 
L 550 4863 
z
" id="DejaVuSans-5b" transform="scale(0.015625)"/>
       <path d="M 2834 3397 
L 2834 2853 
Q 2591 2978 2328 3040 
Q 2066 3103 1784 3103 
Q 1356 3103 1142 2972 
Q 928 2841 928 2578 
Q 928 2378 1081 2264 
Q 1234 2150 1697 2047 
L 1894 2003 
Q 2506 1872 2764 1633 
Q 3022 1394 3022 966 
Q 3022 478 2636 193 
Q 2250 -91 1575 -91 
Q 1294 -91 989 -36 
Q 684 19 347 128 
L 347 722 
Q 666 556 975 473 
Q 1284 391 1588 391 
Q 1994 391 2212 530 
Q 2431 669 2431 922 
Q 2431 1156 2273 1281 
Q 2116 1406 1581 1522 
L 1381 1569 
Q 847 1681 609 1914 
Q 372 2147 372 2553 
Q 372 3047 722 3315 
Q 1072 3584 1716 3584 
Q 2034 3584 2315 3537 
Q 2597 3491 2834 3397 
z
" id="DejaVuSans-73" transform="scale(0.015625)"/>
       <path d="M 1947 4863 
L 1947 -844 
L 622 -844 
L 622 -397 
L 1369 -397 
L 1369 4416 
L 622 4416 
L 622 4863 
L 1947 4863 
z
" id="DejaVuSans-5d" transform="scale(0.015625)"/>
      </defs>
      <use xlink:href="#DejaVuSans-74"/>
      <use x="39.208984" xlink:href="#DejaVuSans-69"/>
      <use x="66.992188" xlink:href="#DejaVuSans-6d"/>
      <use x="164.404297" xlink:href="#DejaVuSans-65"/>
      <use x="225.927734" xlink:href="#DejaVuSans-20"/>
      <use x="257.714844" xlink:href="#DejaVuSans-5b"/>
      <use x="296.728516" xlink:href="#DejaVuSans-6d"/>
      <use x="394.140625" xlink:href="#DejaVuSans-73"/>
      <use x="446.240234" xlink:href="#DejaVuSans-5d"/>
     </g>
    </g>
   </g>
   <g id="matplotlib.axis_2">
    <g id="ytick_1">
     <g id="line2d_10">
      <defs>
       <path d="M 0 0 
L -3.5 0 
" id="mf93839fe8c" style="stroke:#000000;stroke-width:0.8;"/>
      </defs>
      <g>
       <use style="stroke:#000000;stroke-width:0.8;" x="57.6" xlink:href="#mf93839fe8c" y="306.842292"/>
      </g>
     </g>
     <g id="text_11">
      <!-- $\mathdefault{−1.5}$ -->
      <g transform="translate(26.3 310.641511)scale(0.1 -0.1)">
       <defs>
        <path d="M 678 2272 
L 4684 2272 
L 4684 1741 
L 678 1741 
L 678 2272 
z
" id="DejaVuSans-2212" transform="scale(0.015625)"/>
        <path d="M 794 531 
L 1825 531 
L 1825 4091 
L 703 3866 
L 703 4441 
L 1819 4666 
L 2450 4666 
L 2450 531 
L 3481 531 
L 3481 0 
L 794 0 
L 794 531 
z
" id="DejaVuSans-31" transform="scale(0.015625)"/>
        <path d="M 684 794 
L 1344 794 
L 1344 0 
L 684 0 
L 684 794 
z
" id="DejaVuSans-2e" transform="scale(0.015625)"/>
       </defs>
       <use transform="translate(0 0.09375)" xlink:href="#DejaVuSans-2212"/>
       <use transform="translate(83.789062 0.09375)" xlink:href="#DejaVuSans-31"/>
       <use transform="translate(147.412109 0.09375)" xlink:href="#DejaVuSans-2e"/>
       <use transform="translate(179.199219 0.09375)" xlink:href="#DejaVuSans-35"/>
      </g>
     </g>
    </g>
    <g id="ytick_2">
     <g id="line2d_11">
      <g>
       <use style="stroke:#000000;stroke-width:0.8;" x="57.6" xlink:href="#mf93839fe8c" y="268.097118"/>
      </g>
     </g>
     <g id="text_12">
      <!-- $\mathdefault{−1.0}$ -->
      <g transform="translate(26.3 271.896337)scale(0.1 -0.1)">
       <use transform="translate(0 0.78125)" xlink:href="#DejaVuSans-2212"/>
       <use transform="translate(83.789062 0.78125)" xlink:href="#DejaVuSans-31"/>
       <use transform="translate(147.412109 0.78125)" xlink:href="#DejaVuSans-2e"/>
       <use transform="translate(179.199219 0.78125)" xlink:href="#DejaVuSans-30"/>
      </g>
     </g>
    </g>
    <g id="ytick_3">
     <g id="line2d_12">
      <g>
       <use style="stroke:#000000;stroke-width:0.8;" x="57.6" xlink:href="#mf93839fe8c" y="229.351944"/>
      </g>
     </g>
     <g id="text_13">
      <!-- $\mathdefault{−0.5}$ -->
      <g transform="translate(26.3 233.151163)scale(0.1 -0.1)">
       <use transform="translate(0 0.78125)" xlink:href="#DejaVuSans-2212"/>
       <use transform="translate(83.789062 0.78125)" xlink:href="#DejaVuSans-30"/>
       <use transform="translate(147.412109 0.78125)" xlink:href="#DejaVuSans-2e"/>
       <use transform="translate(179.199219 0.78125)" xlink:href="#DejaVuSans-35"/>
      </g>
     </g>
    </g>
    <g id="ytick_4">
     <g id="line2d_13">
      <g>
       <use style="stroke:#000000;stroke-width:0.8;" x="57.6" xlink:href="#mf93839fe8c" y="190.60677"/>
      </g>
     </g>
     <g id="text_14">
      <!-- $\mathdefault{0.0}$ -->
      <g transform="translate(34.6 194.405989)scale(0.1 -0.1)">
       <use transform="translate(0 0.78125)" xlink:href="#DejaVuSans-30"/>
       <use transform="translate(63.623047 0.78125)" xlink:href="#DejaVuSans-2e"/>
       <use transform="translate(95.410156 0.78125)" xlink:href="#DejaVuSans-30"/>
      </g>
     </g>
    </g>
    <g id="ytick_5">
     <g id="line2d_14">
      <g>
       <use style="stroke:#000000;stroke-width:0.8;" x="57.6" xlink:href="#mf93839fe8c" y="151.861597"/>
      </g>
     </g>
     <g id="text_15">
      <!-- $\mathdefault{0.5}$ -->
      <g transform="translate(34.6 155.660815)scale(0.1 -0.1)">
       <use transform="translate(0 0.78125)" xlink:href="#DejaVuSans-30"/>
       <use transform="translate(63.623047 0.78125)" xlink:href="#DejaVuSans-2e"/>
       <use transform="translate(95.410156 0.78125)" xlink:href="#DejaVuSans-35"/>
      </g>
     </g>
    </g>
    <g id="ytick_6">
     <g id="line2d_15">
      <g>
       <use style="stroke:#000000;stroke-width:0.8;" x="57.6" xlink:href="#mf93839fe8c" y="113.116423"/>
      </g>
     </g>
     <g id="text_16">
      <!-- $\mathdefault{1.0}$ -->
      <g transform="translate(34.6 116.915641)scale(0.1 -0.1)">
       <use transform="translate(0 0.78125)" xlink:href="#DejaVuSans-31"/>
       <use transform="translate(63.623047 0.78125)" xlink:href="#DejaVuSans-2e"/>
       <use transform="translate(95.410156 0.78125)" xlink:href="#DejaVuSans-30"/>
      </g>
     </g>
    </g>
    <g id="ytick_7">
     <g id="line2d_16">
      <g>
       <use style="stroke:#000000;stroke-width:0.8;" x="57.6" xlink:href="#mf93839fe8c" y="74.371249"/>
      </g>
     </g>
     <g id="text_17">
      <!-- $\mathdefault{1.5}$ -->
      <g transform="translate(34.6 78.170468)scale(0.1 -0.1)">
       <use transform="translate(0 0.09375)" xlink:href="#DejaVuSans-31"/>
       <use transform="translate(63.623047 0.09375)" xlink:href="#DejaVuSans-2e"/>
       <use transform="translate(95.410156 0.09375)" xlink:href="#DejaVuSans-35"/>
      </g>
     </g>
    </g>
   </g>
   <g id="line2d_17">
    <path clip-path="url(#pb5c45a421b)" d="M 73.832727 200.942219 
L 74.076279 194.7463 
L 74.319831 189.750116 
L 74.401015 189.594696 
L 74.563383 191.279789 
L 74.888118 195.288739 
L 74.969302 195.296256 
L 75.375222 193.158327 
L 75.456406 193.28748 
L 75.781142 194.304765 
L 75.94351 193.097694 
L 76.917717 177.185544 
L 77.323636 170.761799 
L 77.40482 170.585042 
L 77.567188 171.699481 
L 77.891924 177.426919 
L 78.703763 192.253317 
L 78.866131 193.070533 
L 78.947315 193.052619 
L 79.434419 191.868298 
L 79.596786 192.301719 
L 80.327442 195.027218 
L 80.570994 195.696736 
L 80.733362 196.936873 
L 80.895729 199.901762 
L 81.139281 209.141193 
L 81.951121 246.427969 
L 82.275856 251.182905 
L 82.438224 251.899273 
L 82.519408 251.60589 
L 82.681776 249.380978 
L 83.006512 239.104642 
L 84.224271 193.946085 
L 84.386638 193.042666 
L 84.549006 193.061203 
L 84.711374 193.086281 
L 84.954926 192.578136 
L 85.117294 192.354508 
L 85.279662 192.587847 
L 85.604397 193.435641 
L 85.685581 193.359126 
L 85.847949 192.553364 
L 86.091501 189.658745 
L 86.497421 181.11588 
L 86.984524 171.246212 
L 87.228076 169.92928 
L 87.30926 169.966076 
L 87.471628 170.487532 
L 87.71518 172.281858 
L 88.039915 177.2144 
L 88.527019 185.065801 
L 89.014123 190.810999 
L 89.338858 194.8667 
L 89.420042 195.157648 
L 89.501226 195.063863 
L 89.744778 193.208308 
L 89.98833 191.53392 
L 90.069514 191.407358 
L 90.150698 191.484999 
L 90.718985 192.701674 
L 90.881353 193.117471 
L 91.287273 194.991703 
L 91.368457 194.960977 
L 91.530825 194.074249 
L 92.017928 188.28931 
L 92.423848 181.918914 
L 92.829767 174.682022 
L 92.992135 174.057557 
L 93.154503 174.756448 
L 93.479239 176.312077 
L 93.803975 176.476002 
L 93.966342 177.740485 
L 94.291078 183.50601 
L 94.696998 189.657258 
L 95.184101 193.529781 
L 95.346469 194.054845 
L 95.427653 194.024881 
L 95.590021 193.475534 
L 95.914757 192.296128 
L 96.077125 192.401234 
L 96.320677 192.780588 
L 96.483044 192.58689 
L 97.051332 190.639611 
L 97.2137 189.361823 
L 97.457252 184.54996 
L 98.512643 155.310241 
L 98.837378 150.842264 
L 98.999746 150.393869 
L 99.162114 151.850727 
L 99.405666 157.726156 
L 100.461057 191.981629 
L 100.542241 192.136485 
L 100.704609 191.595975 
L 100.948161 190.606684 
L 101.029345 190.62657 
L 101.191712 191.327545 
L 101.597632 193.606971 
L 101.678816 193.506796 
L 101.922368 192.051286 
L 102.084736 191.212815 
L 102.16592 191.277585 
L 102.328288 193.039399 
L 102.571839 200.503701 
L 103.383679 232.595318 
L 103.708414 236.215427 
L 103.951966 237.337907 
L 104.03315 237.35979 
L 104.195518 236.499934 
L 104.43907 232.201687 
L 104.844989 218.418054 
L 105.413277 200.161792 
L 105.819197 192.840885 
L 106.062748 191.681945 
L 106.225116 192.181468 
L 106.549852 193.628054 
L 106.631036 193.632159 
L 106.793404 193.070342 
L 107.199323 191.226635 
L 107.361691 191.344467 
L 107.605243 191.585934 
L 107.767611 190.983328 
L 108.254715 187.714225 
L 108.335899 187.790309 
L 108.498266 188.690217 
L 110.121945 201.902005 
L 110.203129 201.923688 
L 110.365497 201.600922 
L 110.609049 200.212613 
L 111.096152 194.919015 
L 111.420888 192.70985 
L 111.989175 191.40192 
L 112.232727 191.136753 
L 112.395095 191.424749 
L 112.882199 192.900439 
L 112.963383 192.87273 
L 113.125751 192.315885 
L 113.369302 189.87337 
L 114.099958 178.806017 
L 114.181142 178.819265 
L 114.424693 180.058459 
L 114.668245 180.82064 
L 114.992981 180.55854 
L 115.155349 181.560988 
L 115.480085 186.783447 
L 115.80482 190.627121 
L 115.967188 190.902664 
L 116.129556 190.838873 
L 116.291924 191.127286 
L 116.697844 192.765606 
L 116.779027 192.742609 
L 116.941395 192.172007 
L 117.347315 190.465089 
L 117.509683 190.520004 
L 118.321522 191.665702 
L 118.402706 191.590898 
L 118.565074 190.635154 
L 118.808626 186.018203 
L 119.214545 170.739818 
L 119.864017 147.856944 
L 120.188753 141.690004 
L 120.351121 140.884342 
L 120.432304 141.190613 
L 120.594672 143.275873 
L 120.919408 152.576607 
L 121.893615 186.622298 
L 122.218351 191.258376 
L 122.380719 191.581551 
L 122.543087 190.867581 
L 122.867822 189.139158 
L 122.949006 189.13156 
L 123.111374 189.780181 
L 123.679662 193.000073 
L 123.84203 193.59226 
L 124.004397 194.912612 
L 124.247949 199.047641 
L 124.978605 214.380453 
L 125.222156 216.023739 
L 125.30334 216.085389 
L 125.465708 215.511067 
L 125.70926 213.176879 
L 126.277548 204.400922 
L 127.170571 190.035123 
L 127.332939 189.412517 
L 127.414123 189.402424 
L 127.57649 189.838299 
L 128.063594 191.596207 
L 128.225962 191.37965 
L 128.713066 190.170483 
L 128.875433 190.580141 
L 129.362537 192.284688 
L 129.606089 192.66056 
L 129.768457 193.489726 
L 130.012008 196.470072 
L 131.0674 213.874747 
L 131.310951 214.76803 
L 131.473319 214.850354 
L 131.635687 214.533629 
L 131.798055 213.562272 
L 132.041607 210.011274 
L 132.447526 198.675856 
L 132.772262 191.222018 
L 133.015814 189.627459 
L 133.096998 189.713879 
L 133.421734 191.145052 
L 133.665285 191.877405 
L 133.827653 191.833036 
L 133.990021 191.319902 
L 134.477125 189.098033 
L 134.558309 189.084664 
L 134.720677 189.482336 
L 135.045412 190.314028 
L 135.20778 189.82004 
L 135.6137 188.113773 
L 135.776068 189.195887 
L 136.100803 194.896815 
L 136.506723 201.543879 
L 136.831459 203.774142 
L 137.075011 204.279425 
L 137.237378 203.850078 
L 137.48093 201.596157 
L 138.373953 189.857252 
L 138.536321 189.737471 
L 138.942241 190.266092 
L 139.104609 189.898743 
L 139.591712 188.162268 
L 139.75408 188.331607 
L 139.997632 188.699373 
L 140.078816 188.515904 
L 140.241184 187.165893 
L 140.484736 181.999438 
L 140.971839 163.731484 
L 141.458943 149.355916 
L 141.702495 146.729549 
L 141.783679 146.553005 
L 141.864863 146.719126 
L 142.02723 148.062758 
L 142.270782 152.427458 
L 142.920254 170.741047 
L 143.569725 186.720076 
L 143.813277 189.539266 
L 143.975645 189.962195 
L 144.138013 189.646411 
L 144.462748 189.010286 
L 144.7063 189.281783 
L 144.868668 189.36919 
L 145.031036 189.112207 
L 145.355772 188.449067 
L 145.51814 188.932479 
L 145.761691 191.159245 
L 146.248795 195.802754 
L 146.329979 195.943298 
L 146.411163 195.859159 
L 146.573531 195.111793 
L 146.97945 191.306363 
L 148.034841 180.227962 
L 148.116025 180.108143 
L 148.197209 180.16473 
L 148.359577 180.731877 
L 148.765497 183.66796 
L 149.414968 188.442466 
L 149.65852 188.909419 
L 150.06444 189.04417 
L 150.389175 189.348712 
L 150.551543 189.144887 
L 150.876279 188.581542 
L 151.038647 189.282772 
L 151.282199 192.694997 
L 151.93167 208.595585 
L 152.499958 220.325758 
L 152.662326 221.424464 
L 152.74351 221.381021 
L 152.905877 220.269789 
L 153.311797 214.731064 
L 153.636533 208.505397 
L 154.448372 189.378802 
L 154.529556 189.52511 
L 154.935476 191.291395 
L 155.097844 190.365263 
L 155.503763 187.546751 
L 155.666131 188.145187 
L 155.990867 189.991519 
L 156.072051 189.942875 
L 156.315603 188.612619 
L 156.47797 188.091776 
L 156.559154 188.400125 
L 156.721522 190.534157 
L 158.182833 221.041288 
L 158.345201 221.928846 
L 158.426385 221.775318 
L 158.588753 220.409558 
L 158.913488 214.688131 
L 159.400592 201.055248 
L 159.806512 192.009075 
L 160.050063 190.490737 
L 160.537167 189.516786 
L 160.780719 188.915778 
L 160.943087 188.952743 
L 161.267822 189.799505 
L 161.511374 190.168427 
L 161.592558 190.08896 
L 161.754926 189.408587 
L 161.998478 186.344217 
L 162.323214 177.686616 
L 162.810317 165.598777 
L 163.053869 164.226647 
L 163.216237 164.220311 
L 163.459789 164.537265 
L 163.622156 165.289723 
L 163.865708 168.378822 
L 165.002283 188.675721 
L 165.327019 190.685165 
L 165.489387 190.889081 
L 165.732939 190.684353 
L 166.057674 190.194333 
L 166.38241 189.037294 
L 166.625962 188.325666 
L 166.707146 188.361861 
L 166.869514 188.973667 
L 167.275433 191.338998 
L 167.356617 191.306124 
L 167.518985 190.253541 
L 167.762537 186.334764 
L 168.736744 167.255287 
L 169.223848 162.693847 
L 169.386216 162.050458 
L 169.4674 162.047673 
L 169.629767 162.88255 
L 169.873319 166.492477 
L 170.360423 179.50206 
L 170.847526 190.28562 
L 171.091078 191.751872 
L 171.172262 191.657955 
L 171.415814 190.45488 
L 171.74055 189.118349 
L 171.984101 189.001487 
L 172.227653 188.909337 
L 172.390021 188.835624 
L 172.471205 188.9201 
L 172.633573 189.637735 
L 172.877125 192.679547 
L 173.932516 211.590052 
L 174.0137 211.835645 
L 174.094884 211.806314 
L 174.257252 210.937105 
L 174.581987 206.873515 
L 175.88093 189.256747 
L 175.962114 189.095638 
L 176.043298 189.193483 
L 176.449218 190.542201 
L 176.611586 190.157742 
L 176.936321 188.851189 
L 177.017505 188.885518 
L 177.179873 189.591422 
L 177.504609 191.526533 
L 177.585793 191.593762 
L 177.748161 191.042938 
L 177.991712 189.858846 
L 178.072896 189.907298 
L 178.235264 191.34191 
L 178.478816 197.047406 
L 179.453023 225.012048 
L 179.696575 227.603488 
L 179.777759 227.728071 
L 179.940127 226.814589 
L 180.183679 223.063789 
L 180.751966 209.317755 
L 181.482622 190.404881 
L 181.726173 188.946191 
L 181.888541 189.490951 
L 182.213277 190.98998 
L 182.294461 191.007131 
L 182.456829 190.532379 
L 182.781564 189.208647 
L 182.862748 189.146468 
L 183.025116 189.403252 
L 183.268668 189.85062 
L 183.349852 189.732233 
L 183.51222 188.872721 
L 184.161691 183.771002 
L 184.324059 183.649613 
L 184.486427 183.816191 
L 184.729979 184.516756 
L 184.973531 186.294003 
L 186.110106 197.727904 
L 186.272474 198.285166 
L 186.353658 198.254252 
L 186.516025 197.387981 
L 186.840761 193.182902 
L 187.165497 190.0835 
L 187.246681 189.975218 
L 187.409049 190.454553 
L 187.814968 192.238701 
L 187.896152 192.212883 
L 188.05852 191.713601 
L 188.545624 189.842761 
L 188.870359 189.587474 
L 189.032727 188.585535 
L 189.276279 184.470088 
L 189.763383 168.928745 
L 190.33167 153.697621 
L 190.656406 149.319127 
L 190.73759 149.015154 
L 190.818774 149.096316 
L 190.981142 150.422746 
L 191.224693 154.914298 
L 191.630613 166.824985 
L 192.361268 190.086709 
L 192.523636 191.452957 
L 192.60482 191.506507 
L 192.767188 190.861193 
L 193.091924 189.604534 
L 193.173108 189.665199 
L 193.41666 190.555044 
L 193.822579 191.978998 
L 194.228499 193.042901 
L 194.796786 194.730695 
L 195.365074 195.4328 
L 195.446258 195.354214 
L 195.608626 194.683277 
L 195.852178 191.929762 
L 196.582833 180.492978 
L 196.745201 180.069426 
L 196.907569 180.438384 
L 197.151121 182.050084 
L 197.475856 185.940704 
L 197.96296 191.881793 
L 198.125328 192.250609 
L 198.287696 191.835381 
L 198.612431 190.936777 
L 198.774799 191.238883 
L 199.180719 192.557932 
L 199.343087 192.464916 
L 199.586638 192.19528 
L 199.749006 192.793898 
L 199.992558 196.002395 
L 200.398478 206.434369 
L 200.804397 215.493689 
L 201.047949 217.597043 
L 201.129133 217.764428 
L 201.210317 217.713175 
L 201.372685 217.055904 
L 201.616237 214.861446 
L 201.940973 209.769442 
L 202.91518 192.216521 
L 203.158732 190.783405 
L 203.239915 190.729047 
L 203.402283 191.061879 
L 203.645835 191.710494 
L 203.727019 191.732572 
L 203.889387 191.380531 
L 204.214123 190.339227 
L 204.295307 190.341281 
L 204.457674 190.784093 
L 204.78241 191.994308 
L 204.863594 192.030477 
L 205.025962 191.722694 
L 205.269514 191.263918 
L 205.350698 191.433509 
L 205.513066 192.575107 
L 205.837801 197.674953 
L 206.730825 213.003515 
L 207.217928 217.6397 
L 207.380296 218.149887 
L 207.46148 218.048896 
L 207.623848 216.932239 
L 207.8674 212.875793 
L 209.003975 188.909772 
L 209.166342 188.521699 
L 209.32871 189.4174 
L 209.73463 192.276058 
L 209.815814 192.240663 
L 210.059366 191.09218 
L 210.384101 189.893655 
L 210.546469 189.465601 
L 210.708837 188.060215 
L 210.952389 182.433923 
L 212.00778 149.213503 
L 212.170148 148.424604 
L 212.251332 148.494536 
L 212.4137 149.538099 
L 212.657252 153.332623 
L 212.981987 162.38956 
L 213.793827 187.975427 
L 214.118562 191.360084 
L 214.28093 191.805752 
L 214.362114 191.788889 
L 214.524482 191.390066 
L 214.849218 190.413581 
L 214.930402 190.453683 
L 215.09277 191.057997 
L 215.498689 193.095558 
L 215.579873 193.002664 
L 215.742241 192.146329 
L 216.229345 189.077364 
L 216.472896 188.353937 
L 216.635264 186.970908 
L 216.96 180.869944 
L 217.447104 172.064151 
L 217.690655 170.881162 
L 217.853023 170.927616 
L 218.096575 171.643877 
L 218.340127 173.082735 
L 218.583679 175.88424 
L 218.989598 184.467087 
L 219.314334 190.467942 
L 219.476702 191.404923 
L 219.557886 191.385274 
L 219.882622 190.51883 
L 219.963805 190.608758 
L 220.207357 191.841635 
L 220.450909 192.746262 
L 220.532093 192.616668 
L 220.775645 191.197952 
L 221.019197 190.300579 
L 221.181564 191.032922 
L 221.587484 195.860725 
L 221.993404 199.71853 
L 222.236956 200.912852 
L 222.31814 201.00837 
L 222.399323 200.901508 
L 222.561691 200.047441 
L 223.129979 194.101258 
L 224.023002 186.67031 
L 224.18537 186.340886 
L 224.347738 186.614333 
L 224.59129 187.927599 
L 225.078393 191.11636 
L 225.240761 191.282704 
L 225.565497 190.706193 
L 225.646681 190.77271 
L 225.809049 191.501938 
L 226.296152 194.582763 
L 226.45852 194.164704 
L 226.702072 193.423872 
L 226.783256 193.676682 
L 226.945624 195.460829 
L 227.270359 203.37677 
L 228.406934 235.203717 
L 228.650486 236.485643 
L 228.812854 236.0659 
L 229.056406 233.975065 
L 229.299958 228.971027 
L 229.705877 212.996881 
L 230.192981 195.992917 
L 230.517717 191.189963 
L 230.680085 190.475136 
L 230.761268 190.486139 
L 231.00482 191.39508 
L 231.248372 191.962308 
L 231.41074 191.467491 
L 231.735476 189.960629 
L 231.81666 189.903959 
L 232.141395 190.340981 
L 232.303763 189.230835 
L 232.547315 183.907138 
L 233.196786 165.436265 
L 233.440338 163.057269 
L 233.602706 162.602376 
L 233.68389 162.68621 
L 233.846258 163.543058 
L 234.08981 166.627984 
L 234.576913 176.929737 
L 235.145201 188.683681 
L 235.388753 190.271558 
L 235.469937 190.270657 
L 235.794672 189.815079 
L 235.95704 190.264057 
L 236.281776 191.634897 
L 236.36296 191.65242 
L 236.525328 191.123048 
L 236.850063 189.703855 
L 236.931247 189.728787 
L 237.093615 190.333344 
L 237.337167 191.412611 
L 237.418351 191.416371 
L 237.580719 190.534905 
L 237.905455 186.033944 
L 238.960846 169.634091 
L 239.123214 169.37303 
L 239.285581 169.985213 
L 239.772685 172.976729 
L 240.016237 176.466479 
L 240.746892 189.939154 
L 240.828076 190.011796 
L 241.071628 189.78714 
L 241.233996 190.251736 
L 241.721099 192.834723 
L 241.883467 192.349417 
L 242.451755 189.428265 
L 242.614123 189.494408 
L 242.857674 190.119236 
L 243.18241 190.979877 
L 243.263594 190.923212 
L 243.425962 190.072145 
L 243.669514 186.602401 
L 244.318985 175.587828 
L 244.724905 170.26146 
L 245.049641 165.936563 
L 245.212008 165.534173 
L 245.374376 166.571407 
L 245.780296 172.094572 
L 246.186216 179.964643 
L 246.673319 189.508733 
L 246.835687 190.219165 
L 246.998055 190.052751 
L 247.160423 189.889759 
L 247.322791 190.228362 
L 247.647526 191.13813 
L 247.809894 190.67962 
L 248.13463 189.270112 
L 248.215814 189.472799 
L 248.378182 191.145523 
L 248.621734 196.796 
L 249.108837 215.211432 
L 249.839493 243.024015 
L 250.083044 246.232061 
L 250.245412 246.756141 
L 250.326596 246.571076 
L 250.488964 245.155264 
L 250.732516 239.694054 
L 251.138436 221.780573 
L 251.706723 196.285078 
L 252.031459 190.108846 
L 252.193827 189.457393 
L 252.275011 189.540308 
L 252.843298 190.925476 
L 253.330402 190.654288 
L 253.49277 190.663203 
L 253.655137 190.388413 
L 253.898689 189.034251 
L 254.791712 182.060374 
L 254.95408 181.845537 
L 255.116448 182.108106 
L 255.36 183.563788 
L 255.684736 187.747828 
L 256.253023 195.739727 
L 256.415391 196.015016 
L 256.577759 195.221083 
L 257.470782 188.763663 
L 257.714334 188.406506 
L 257.876702 188.682188 
L 258.282622 190.493789 
L 258.607357 191.410567 
L 258.769725 191.467223 
L 258.932093 191.228466 
L 259.094461 190.565647 
L 259.338013 188.476325 
L 260.068668 180.787264 
L 260.231036 180.711877 
L 260.393404 181.242106 
L 260.880507 184.371849 
L 261.611163 189.332299 
L 262.17945 194.571574 
L 262.260634 194.565554 
L 262.423002 193.788389 
L 262.99129 189.600615 
L 263.153658 189.573168 
L 263.397209 190.37745 
L 263.803129 191.8512 
L 263.965497 191.830293 
L 264.127865 191.272478 
L 264.4526 188.897918 
L 264.85852 184.431088 
L 265.183256 177.533323 
L 266.319831 145.607595 
L 266.563383 144.632007 
L 266.644567 144.613532 
L 266.806934 144.997609 
L 266.969302 146.204358 
L 267.212854 150.733423 
L 267.53759 163.123982 
L 268.105877 185.577709 
L 268.349429 189.05677 
L 268.511797 189.678381 
L 268.592981 189.664383 
L 268.755349 189.241098 
L 269.161268 188.000929 
L 269.242452 188.040283 
L 269.486004 188.784254 
L 269.81074 189.58573 
L 269.973108 189.847687 
L 270.135476 191.084085 
L 270.297844 194.423231 
L 270.622579 208.329087 
L 271.109683 230.046163 
L 271.515603 238.591316 
L 271.759154 241.068182 
L 271.840338 241.155314 
L 272.002706 239.80593 
L 272.246258 234.065887 
L 272.814545 212.362875 
L 273.382833 191.685088 
L 273.626385 188.627375 
L 273.788753 188.421251 
L 274.35704 189.791411 
L 274.681776 190.382589 
L 274.844144 190.258739 
L 275.331247 188.715342 
L 275.412431 188.745569 
L 275.574799 189.23846 
L 276.061903 192.261124 
L 276.63019 197.390754 
L 277.117294 200.396327 
L 277.523214 202.58634 
L 277.604397 202.560492 
L 277.766765 201.525467 
L 278.659789 191.741693 
L 279.228076 189.477193 
L 279.390444 189.873907 
L 279.633996 190.628961 
L 279.71518 190.579579 
L 279.877548 189.852957 
L 280.202283 188.023239 
L 280.283467 188.040133 
L 280.445835 188.778966 
L 280.770571 190.410758 
L 280.851755 190.322104 
L 281.257674 188.643219 
L 281.338858 188.810422 
L 281.501226 190.084263 
L 281.98833 197.451635 
L 282.962537 211.303315 
L 283.206089 211.902938 
L 283.287273 211.917484 
L 283.449641 211.529101 
L 283.612008 210.184365 
L 283.85556 205.71123 
L 284.505032 191.876444 
L 284.748584 190.568223 
L 284.992135 190.361137 
L 285.398055 190.271075 
L 286.12871 189.498244 
L 286.291078 188.152455 
L 286.53463 182.304435 
L 286.94055 163.250638 
L 287.508837 139.634814 
L 287.914757 128.25798 
L 288.077125 126.745636 
L 288.158309 126.918033 
L 288.320677 128.886664 
L 288.726596 138.832659 
L 289.051332 151.826292 
L 289.781987 187.526945 
L 289.944355 188.952209 
L 290.025539 189.027852 
L 290.269091 188.94702 
L 290.431459 189.512545 
L 290.756195 190.622113 
L 290.918562 190.219481 
L 291.324482 188.803995 
L 291.48685 189.408348 
L 291.730402 192.075247 
L 292.055137 199.129153 
L 292.948161 221.981787 
L 293.272896 224.358621 
L 293.35408 224.310369 
L 293.516448 223.060869 
L 293.76 218.038608 
L 294.653023 194.6524 
L 295.058943 189.210145 
L 295.221311 188.678422 
L 295.302495 188.761707 
L 295.870782 190.266154 
L 296.195518 189.811998 
L 297.007357 188.858103 
L 297.169725 189.515126 
L 297.413277 192.025806 
L 297.981564 198.847718 
L 298.143932 199.321354 
L 298.225116 199.27164 
L 298.387484 198.737127 
L 298.874588 195.690298 
L 299.361691 191.608968 
L 299.848795 187.149246 
L 300.011163 186.752337 
L 300.173531 187.126024 
L 300.904186 190.421354 
L 301.147738 190.386597 
L 301.39129 190.390457 
L 301.959577 190.684351 
L 302.365497 190.532792 
L 302.527865 191.02132 
L 302.690233 192.304681 
L 302.933784 196.32355 
L 303.339704 208.836858 
L 303.989175 229.72863 
L 304.313911 234.010209 
L 304.557463 235.139056 
L 304.638647 235.197429 
L 304.719831 235.058278 
L 304.882199 233.98331 
L 305.125751 229.553636 
L 305.450486 217.76685 
L 306.099958 193.54806 
L 306.34351 191.091585 
L 306.424693 190.987671 
L 306.587061 191.296633 
L 306.830613 191.734704 
L 306.992981 191.467058 
L 307.398901 190.311295 
L 307.561268 190.440852 
L 307.723636 190.529528 
L 307.80482 190.262378 
L 307.967188 188.390675 
L 308.21074 180.782291 
L 309.509683 123.456828 
L 309.753235 121.160251 
L 309.915603 123.361918 
L 310.240338 135.331701 
L 311.539281 191.717572 
L 311.620465 192.043359 
L 311.782833 191.23883 
L 312.026385 189.781059 
L 312.107569 189.864699 
L 312.351121 191.56864 
L 312.594672 192.52029 
L 312.75704 191.639212 
L 313.081776 189.307355 
L 313.16296 189.321383 
L 313.325328 190.28815 
L 314.786638 204.370253 
L 314.949006 204.00154 
L 315.192558 202.420136 
L 315.43611 199.232424 
L 316.004397 189.814602 
L 316.085581 189.514499 
L 316.166765 189.556879 
L 316.653869 191.179124 
L 317.140973 190.121427 
L 317.628076 190.730443 
L 317.952812 190.402102 
L 318.11518 190.694234 
L 318.521099 191.698439 
L 318.927019 191.687794 
L 319.332939 192.614502 
L 319.495307 191.881124 
L 319.820042 187.757009 
L 320.875433 173.117568 
L 320.956617 172.86946 
L 321.037801 172.950237 
L 321.281353 174.469089 
L 321.849641 179.579225 
L 322.66148 192.416741 
L 322.823848 191.975047 
L 323.148584 191.044917 
L 323.392135 190.678927 
L 323.798055 189.517515 
L 323.879239 189.665186 
L 324.041607 190.909698 
L 324.285159 195.468237 
L 324.609894 206.420394 
L 325.746469 253.007686 
L 326.071205 258.236662 
L 326.152389 258.520021 
L 326.233573 258.145304 
L 326.395941 255.177617 
L 326.720677 242.0001 
L 327.776068 194.34995 
L 328.019619 192.020143 
L 328.181987 192.308226 
L 328.344355 192.52027 
L 328.506723 191.946772 
L 328.831459 190.247515 
L 328.912643 190.295203 
L 329.075011 191.127053 
L 329.318562 192.648292 
L 329.399746 192.652779 
L 329.562114 191.195161 
L 329.805666 184.707941 
L 330.211586 164.54895 
L 330.779873 137.36788 
L 331.104609 131.855829 
L 331.266977 131.503973 
L 331.429345 132.740877 
L 331.672896 138.252184 
L 332.078816 155.742451 
L 332.809471 186.536079 
L 333.134207 192.360655 
L 333.215391 192.613597 
L 333.296575 192.537685 
L 333.621311 191.780573 
L 333.783679 192.289174 
L 334.02723 193.150094 
L 334.108414 193.059571 
L 334.270782 192.152279 
L 334.595518 190.12923 
L 334.676702 190.203373 
L 334.920254 191.739722 
L 335.163805 192.799468 
L 335.326173 192.267576 
L 335.650909 190.563524 
L 335.732093 190.527888 
L 335.894461 190.974513 
L 336.219197 191.973051 
L 336.543932 192.093383 
L 336.949852 193.037196 
L 337.031036 192.928732 
L 337.274588 191.665295 
L 337.51814 190.917374 
L 337.680507 191.83321 
L 338.086427 195.336353 
L 338.167611 195.298636 
L 338.329979 194.357408 
L 338.654715 192.277211 
L 338.735899 192.237766 
L 339.141818 192.892243 
L 339.547738 191.836255 
L 339.710106 192.521553 
L 340.116025 195.64446 
L 340.197209 195.625668 
L 340.359577 194.489916 
L 340.684313 189.232364 
L 341.171416 177.980932 
L 341.983256 156.415367 
L 342.307992 153.330409 
L 342.551543 152.209966 
L 342.632727 152.105267 
L 342.713911 152.229315 
L 342.876279 153.489772 
L 343.119831 158.942714 
L 344.094038 190.208978 
L 344.662326 193.387883 
L 344.824693 193.752289 
L 344.905877 193.682497 
L 345.149429 192.718424 
L 345.392981 191.942173 
L 345.474165 192.040747 
L 345.636533 193.102022 
L 345.880085 197.617987 
L 346.20482 210.803842 
L 347.260211 264.258555 
L 347.503763 269.170152 
L 347.584947 269.710599 
L 347.666131 269.646423 
L 347.828499 267.789377 
L 348.072051 261.502462 
L 348.396786 247.599891 
L 349.370994 195.552605 
L 349.695729 193.102634 
L 350.101649 190.64335 
L 350.182833 190.662103 
L 350.345201 191.429109 
L 350.751121 193.854251 
L 350.913488 193.929423 
L 351.075856 193.658145 
L 351.238224 192.926886 
L 351.400592 191.010243 
L 351.644144 184.168878 
L 352.455983 154.939054 
L 352.699535 152.875786 
L 352.780719 152.754328 
L 352.861903 152.970463 
L 353.024271 154.605478 
L 353.267822 160.102644 
L 354.404397 191.897754 
L 354.566765 192.362135 
L 354.891501 191.484975 
L 355.053869 192.064419 
L 355.378605 193.614179 
L 355.540973 192.971535 
L 355.865708 191.275212 
L 356.028076 192.176044 
L 356.352812 194.907264 
L 356.433996 194.832745 
L 356.596364 193.565843 
L 356.839915 191.390959 
L 356.921099 191.297936 
L 357.083467 192.267945 
L 357.408203 194.659691 
L 357.489387 194.615722 
L 357.732939 194.114648 
L 357.895307 195.334836 
L 358.544778 204.790401 
L 358.707146 204.623102 
L 358.78833 204.789272 
L 358.950698 206.091245 
L 359.194249 208.444355 
L 359.275433 208.378214 
L 359.437801 206.169312 
L 359.924905 197.00457 
L 360.006089 197.026845 
L 360.168457 197.317084 
L 360.249641 197.008294 
L 360.412008 194.829041 
L 360.736744 190.000398 
L 360.817928 190.431516 
L 361.223848 197.470232 
L 361.305032 197.102574 
L 361.548584 191.366838 
L 361.710951 188.440313 
L 361.792135 188.58382 
L 362.116871 195.197633 
L 362.198055 194.982976 
L 362.360423 188.390049 
L 362.847526 156.288747 
L 362.92871 156.650482 
L 363.172262 160.118551 
L 363.253446 157.390126 
L 363.415814 140.014162 
L 363.984101 53.568 
L 364.146469 66.21498 
L 364.633573 128.828093 
L 365.120677 149.456742 
L 365.688964 194.702904 
L 365.770148 194.637283 
L 366.094884 190.080368 
L 366.176068 190.433838 
L 366.581987 195.85414 
L 366.744355 194.27627 
L 367.069091 190.135315 
L 367.150275 190.492194 
L 367.393827 194.546707 
L 367.88093 205.562534 
L 368.205666 222.007778 
L 368.611586 239.721484 
L 368.855137 242.643439 
L 369.261057 245.341063 
L 369.342241 245.001013 
L 369.504609 242.141289 
L 369.910529 226.527569 
L 370.884736 194.132205 
L 370.96592 193.544009 
L 371.047104 193.609093 
L 371.371839 195.596713 
L 371.453023 195.434414 
L 371.858943 192.406057 
L 371.940127 192.597054 
L 372.346047 195.9648 
L 372.42723 195.801277 
L 372.670782 193.105602 
L 372.914334 191.001732 
L 372.995518 191.0138 
L 373.23907 191.578329 
L 373.320254 191.135685 
L 373.482622 188.185635 
L 373.807357 175.147325 
L 374.538013 145.926864 
L 374.781564 141.046887 
L 374.862748 140.721506 
L 374.943932 141.089008 
L 375.1063 143.580657 
L 375.51222 155.052946 
L 375.91814 172.500663 
L 376.405243 191.857025 
L 376.648795 194.349347 
L 376.811163 194.456654 
L 377.054715 194.031861 
L 377.37945 192.823963 
L 377.623002 192.195696 
L 377.704186 192.271936 
L 377.947738 193.259617 
L 378.272474 195.552066 
L 378.434841 198.510028 
L 378.678393 209.131419 
L 379.165497 249.542961 
L 379.6526 281.548195 
L 379.977336 293.520228 
L 380.139704 295.488 
L 380.220888 295.198151 
L 380.383256 292.257437 
L 380.707992 280.332985 
L 381.113911 256.949419 
L 381.925751 196.807562 
L 382.169302 193.576243 
L 382.33167 193.538442 
L 382.494038 193.642738 
L 382.656406 193.459006 
L 382.899958 193.130567 
L 383.062326 193.338478 
L 383.468245 194.438259 
L 383.630613 193.198371 
L 383.792981 189.353233 
L 384.036533 177.212366 
L 385.091924 111.49393 
L 385.335476 106.703126 
L 385.41666 106.327541 
L 385.497844 106.647199 
L 385.660211 109.344208 
L 385.984947 120.780481 
L 386.472051 145.413799 
L 387.28389 190.877787 
L 387.527442 193.257976 
L 387.68981 192.737788 
L 388.014545 191.434699 
L 388.095729 191.468453 
L 388.258097 191.959746 
L 388.582833 193.140863 
L 388.745201 193.146132 
L 388.988753 192.963393 
L 389.151121 193.794644 
L 389.394672 198.017262 
L 390.287696 220.191062 
L 390.774799 225.027356 
L 390.937167 225.285829 
L 391.099535 224.298603 
L 391.343087 220.318249 
L 391.83019 206.453032 
L 392.317294 195.135265 
L 392.560846 192.942799 
L 392.723214 192.52721 
L 392.804397 192.558529 
L 392.966765 192.987463 
L 393.453869 194.737501 
L 393.535053 194.686026 
L 393.778605 193.844092 
L 394.022156 193.041151 
L 394.10334 193.010753 
L 394.265708 193.325251 
L 394.50926 193.870424 
L 394.590444 193.725821 
L 394.752812 192.397508 
L 394.996364 186.729836 
L 395.321099 171.140264 
L 396.051755 131.73186 
L 396.457674 123.187606 
L 396.620042 121.957503 
L 396.701226 122.256111 
L 396.863594 125.406137 
L 397.107146 136.594291 
L 398.081353 188.333143 
L 398.406089 200.900317 
L 398.487273 201.508061 
L 398.487273 201.508061 
" style="fill:none;stroke:#1f77b4;stroke-linecap:square;stroke-width:1.5;"/>
   </g>
   <g id="patch_3">
    <path d="M 57.6 307.584 
L 57.6 41.472 
" style="fill:none;stroke:#000000;stroke-linecap:square;stroke-linejoin:miter;stroke-width:0.8;"/>
   </g>
   <g id="patch_4">
    <path d="M 414.72 307.584 
L 414.72 41.472 
" style="fill:none;stroke:#000000;stroke-linecap:square;stroke-linejoin:miter;stroke-width:0.8;"/>
   </g>
   <g id="patch_5">
    <path d="M 57.6 307.584 
L 414.72 307.584 
" style="fill:none;stroke:#000000;stroke-linecap:square;stroke-linejoin:miter;stroke-width:0.8;"/>
   </g>
   <g id="patch_6">
    <path d="M 57.6 41.472 
L 414.72 41.472 
" style="fill:none;stroke:#000000;stroke-linecap:square;stroke-linejoin:miter;stroke-width:0.8;"/>
   </g>
   <g id="text_18">
    <!-- demodulated data -->
    <g transform="translate(180.913125 35.472)scale(0.12 -0.12)">
     <defs>
      <path d="M 2906 2969 
L 2906 4863 
L 3481 4863 
L 3481 0 
L 2906 0 
L 2906 525 
Q 2725 213 2448 61 
Q 2172 -91 1784 -91 
Q 1150 -91 751 415 
Q 353 922 353 1747 
Q 353 2572 751 3078 
Q 1150 3584 1784 3584 
Q 2172 3584 2448 3432 
Q 2725 3281 2906 2969 
z
M 947 1747 
Q 947 1113 1208 752 
Q 1469 391 1925 391 
Q 2381 391 2643 752 
Q 2906 1113 2906 1747 
Q 2906 2381 2643 2742 
Q 2381 3103 1925 3103 
Q 1469 3103 1208 2742 
Q 947 2381 947 1747 
z
" id="DejaVuSans-64" transform="scale(0.015625)"/>
      <path d="M 1959 3097 
Q 1497 3097 1228 2736 
Q 959 2375 959 1747 
Q 959 1119 1226 758 
Q 1494 397 1959 397 
Q 2419 397 2687 759 
Q 2956 1122 2956 1747 
Q 2956 2369 2687 2733 
Q 2419 3097 1959 3097 
z
M 1959 3584 
Q 2709 3584 3137 3096 
Q 3566 2609 3566 1747 
Q 3566 888 3137 398 
Q 2709 -91 1959 -91 
Q 1206 -91 779 398 
Q 353 888 353 1747 
Q 353 2609 779 3096 
Q 1206 3584 1959 3584 
z
" id="DejaVuSans-6f" transform="scale(0.015625)"/>
      <path d="M 544 1381 
L 544 3500 
L 1119 3500 
L 1119 1403 
Q 1119 906 1312 657 
Q 1506 409 1894 409 
Q 2359 409 2629 706 
Q 2900 1003 2900 1516 
L 2900 3500 
L 3475 3500 
L 3475 0 
L 2900 0 
L 2900 538 
Q 2691 219 2414 64 
Q 2138 -91 1772 -91 
Q 1169 -91 856 284 
Q 544 659 544 1381 
z
M 1991 3584 
L 1991 3584 
z
" id="DejaVuSans-75" transform="scale(0.015625)"/>
      <path d="M 603 4863 
L 1178 4863 
L 1178 0 
L 603 0 
L 603 4863 
z
" id="DejaVuSans-6c" transform="scale(0.015625)"/>
      <path d="M 2194 1759 
Q 1497 1759 1228 1600 
Q 959 1441 959 1056 
Q 959 750 1161 570 
Q 1363 391 1709 391 
Q 2188 391 2477 730 
Q 2766 1069 2766 1631 
L 2766 1759 
L 2194 1759 
z
M 3341 1997 
L 3341 0 
L 2766 0 
L 2766 531 
Q 2569 213 2275 61 
Q 1981 -91 1556 -91 
Q 1019 -91 701 211 
Q 384 513 384 1019 
Q 384 1609 779 1909 
Q 1175 2209 1959 2209 
L 2766 2209 
L 2766 2266 
Q 2766 2663 2505 2880 
Q 2244 3097 1772 3097 
Q 1472 3097 1187 3025 
Q 903 2953 641 2809 
L 641 3341 
Q 956 3463 1253 3523 
Q 1550 3584 1831 3584 
Q 2591 3584 2966 3190 
Q 3341 2797 3341 1997 
z
" id="DejaVuSans-61" transform="scale(0.015625)"/>
     </defs>
     <use xlink:href="#DejaVuSans-64"/>
     <use x="63.476562" xlink:href="#DejaVuSans-65"/>
     <use x="125" xlink:href="#DejaVuSans-6d"/>
     <use x="222.412109" xlink:href="#DejaVuSans-6f"/>
     <use x="283.59375" xlink:href="#DejaVuSans-64"/>
     <use x="347.070312" xlink:href="#DejaVuSans-75"/>
     <use x="410.449219" xlink:href="#DejaVuSans-6c"/>
     <use x="438.232422" xlink:href="#DejaVuSans-61"/>
     <use x="499.511719" xlink:href="#DejaVuSans-74"/>
     <use x="538.720703" xlink:href="#DejaVuSans-65"/>
     <use x="600.244141" xlink:href="#DejaVuSans-64"/>
     <use x="663.720703" xlink:href="#DejaVuSans-20"/>
     <use x="695.507812" xlink:href="#DejaVuSans-64"/>
     <use x="758.984375" xlink:href="#DejaVuSans-61"/>
     <use x="820.263672" xlink:href="#DejaVuSans-74"/>
     <use x="859.472656" xlink:href="#DejaVuSans-61"/>
    </g>
   </g>
  </g>
 </g>
 <defs>
  <clipPath id="pb5c45a421b">
   <rect height="266.112" width="357.12" x="57.6" y="41.472"/>
  </clipPath>
 </defs>
</svg>
