<?xml version="1.0" encoding="utf-8" standalone="no"?>
<!DOCTYPE svg PUBLIC "-//W3C//DTD SVG 1.1//EN"
  "http://www.w3.org/Graphics/SVG/1.1/DTD/svg11.dtd">
<svg height="345.6pt" version="1.1" viewBox="0 0 460.8 345.6" width="460.8pt" xmlns="http://www.w3.org/2000/svg" xmlns:xlink="http://www.w3.org/1999/xlink">
 <metadata>
  <rdf:RDF xmlns:cc="http://creativecommons.org/ns#" xmlns:dc="http://purl.org/dc/elements/1.1/" xmlns:rdf="http://www.w3.org/1999/02/22-rdf-syntax-ns#">
   <cc:Work>
    <dc:type rdf:resource="http://purl.org/dc/dcmitype/StillImage"/>
    <dc:date>2021-11-04T01:37:09.631205</dc:date>
    <dc:format>image/svg+xml</dc:format>
    <dc:creator>
     <cc:Agent>
      <dc:title>Matplotlib v3.4.3, https://matplotlib.org/</dc:title>
     </cc:Agent>
    </dc:creator>
   </cc:Work>
  </rdf:RDF>
 </metadata>
 <defs>
  <style type="text/css">*{stroke-linecap:butt;stroke-linejoin:round;}</style>
 </defs>
 <g id="figure_1">
  <g id="patch_1">
   <path d="M 0 345.6 
L 460.8 345.6 
L 460.8 0 
L 0 0 
z
" style="fill:#ffffff;"/>
  </g>
  <g id="axes_1">
   <g id="patch_2">
    <path d="M 57.6 307.584 
L 414.72 307.584 
L 414.72 41.472 
L 57.6 41.472 
z
" style="fill:#ffffff;"/>
   </g>
   <g id="matplotlib.axis_1">
    <g id="xtick_1">
     <g id="line2d_1">
      <defs>
       <path d="M 0 0 
L 0 3.5 
" id="m4e919ef5e3" style="stroke:#000000;stroke-width:0.8;"/>
      </defs>
      <g>
       <use style="stroke:#000000;stroke-width:0.8;" x="73.832727" xlink:href="#m4e919ef5e3" y="307.584"/>
      </g>
     </g>
     <g id="text_1">
      <!-- −10000 -->
      <g transform="translate(53.736634 322.182437)scale(0.1 -0.1)">
       <defs>
        <path d="M 678 2272 
L 4684 2272 
L 4684 1741 
L 678 1741 
L 678 2272 
z
" id="DejaVuSans-2212" transform="scale(0.015625)"/>
        <path d="M 794 531 
L 1825 531 
L 1825 4091 
L 703 3866 
L 703 4441 
L 1819 4666 
L 2450 4666 
L 2450 531 
L 3481 531 
L 3481 0 
L 794 0 
L 794 531 
z
" id="DejaVuSans-31" transform="scale(0.015625)"/>
        <path d="M 2034 4250 
Q 1547 4250 1301 3770 
Q 1056 3291 1056 2328 
Q 1056 1369 1301 889 
Q 1547 409 2034 409 
Q 2525 409 2770 889 
Q 3016 1369 3016 2328 
Q 3016 3291 2770 3770 
Q 2525 4250 2034 4250 
z
M 2034 4750 
Q 2819 4750 3233 4129 
Q 3647 3509 3647 2328 
Q 3647 1150 3233 529 
Q 2819 -91 2034 -91 
Q 1250 -91 836 529 
Q 422 1150 422 2328 
Q 422 3509 836 4129 
Q 1250 4750 2034 4750 
z
" id="DejaVuSans-30" transform="scale(0.015625)"/>
       </defs>
       <use xlink:href="#DejaVuSans-2212"/>
       <use x="83.789062" xlink:href="#DejaVuSans-31"/>
       <use x="147.412109" xlink:href="#DejaVuSans-30"/>
       <use x="211.035156" xlink:href="#DejaVuSans-30"/>
       <use x="274.658203" xlink:href="#DejaVuSans-30"/>
       <use x="338.28125" xlink:href="#DejaVuSans-30"/>
      </g>
     </g>
    </g>
    <g id="xtick_2">
     <g id="line2d_2">
      <g>
       <use style="stroke:#000000;stroke-width:0.8;" x="114.424693" xlink:href="#m4e919ef5e3" y="307.584"/>
      </g>
     </g>
     <g id="text_2">
      <!-- −7500 -->
      <g transform="translate(97.50985 322.182437)scale(0.1 -0.1)">
       <defs>
        <path d="M 525 4666 
L 3525 4666 
L 3525 4397 
L 1831 0 
L 1172 0 
L 2766 4134 
L 525 4134 
L 525 4666 
z
" id="DejaVuSans-37" transform="scale(0.015625)"/>
        <path d="M 691 4666 
L 3169 4666 
L 3169 4134 
L 1269 4134 
L 1269 2991 
Q 1406 3038 1543 3061 
Q 1681 3084 1819 3084 
Q 2600 3084 3056 2656 
Q 3513 2228 3513 1497 
Q 3513 744 3044 326 
Q 2575 -91 1722 -91 
Q 1428 -91 1123 -41 
Q 819 9 494 109 
L 494 744 
Q 775 591 1075 516 
Q 1375 441 1709 441 
Q 2250 441 2565 725 
Q 2881 1009 2881 1497 
Q 2881 1984 2565 2268 
Q 2250 2553 1709 2553 
Q 1456 2553 1204 2497 
Q 953 2441 691 2322 
L 691 4666 
z
" id="DejaVuSans-35" transform="scale(0.015625)"/>
       </defs>
       <use xlink:href="#DejaVuSans-2212"/>
       <use x="83.789062" xlink:href="#DejaVuSans-37"/>
       <use x="147.412109" xlink:href="#DejaVuSans-35"/>
       <use x="211.035156" xlink:href="#DejaVuSans-30"/>
       <use x="274.658203" xlink:href="#DejaVuSans-30"/>
      </g>
     </g>
    </g>
    <g id="xtick_3">
     <g id="line2d_3">
      <g>
       <use style="stroke:#000000;stroke-width:0.8;" x="155.01666" xlink:href="#m4e919ef5e3" y="307.584"/>
      </g>
     </g>
     <g id="text_3">
      <!-- −5000 -->
      <g transform="translate(138.101816 322.182437)scale(0.1 -0.1)">
       <use xlink:href="#DejaVuSans-2212"/>
       <use x="83.789062" xlink:href="#DejaVuSans-35"/>
       <use x="147.412109" xlink:href="#DejaVuSans-30"/>
       <use x="211.035156" xlink:href="#DejaVuSans-30"/>
       <use x="274.658203" xlink:href="#DejaVuSans-30"/>
      </g>
     </g>
    </g>
    <g id="xtick_4">
     <g id="line2d_4">
      <g>
       <use style="stroke:#000000;stroke-width:0.8;" x="195.608626" xlink:href="#m4e919ef5e3" y="307.584"/>
      </g>
     </g>
     <g id="text_4">
      <!-- −2500 -->
      <g transform="translate(178.693782 322.182437)scale(0.1 -0.1)">
       <defs>
        <path d="M 1228 531 
L 3431 531 
L 3431 0 
L 469 0 
L 469 531 
Q 828 903 1448 1529 
Q 2069 2156 2228 2338 
Q 2531 2678 2651 2914 
Q 2772 3150 2772 3378 
Q 2772 3750 2511 3984 
Q 2250 4219 1831 4219 
Q 1534 4219 1204 4116 
Q 875 4013 500 3803 
L 500 4441 
Q 881 4594 1212 4672 
Q 1544 4750 1819 4750 
Q 2544 4750 2975 4387 
Q 3406 4025 3406 3419 
Q 3406 3131 3298 2873 
Q 3191 2616 2906 2266 
Q 2828 2175 2409 1742 
Q 1991 1309 1228 531 
z
" id="DejaVuSans-32" transform="scale(0.015625)"/>
       </defs>
       <use xlink:href="#DejaVuSans-2212"/>
       <use x="83.789062" xlink:href="#DejaVuSans-32"/>
       <use x="147.412109" xlink:href="#DejaVuSans-35"/>
       <use x="211.035156" xlink:href="#DejaVuSans-30"/>
       <use x="274.658203" xlink:href="#DejaVuSans-30"/>
      </g>
     </g>
    </g>
    <g id="xtick_5">
     <g id="line2d_5">
      <g>
       <use style="stroke:#000000;stroke-width:0.8;" x="236.200592" xlink:href="#m4e919ef5e3" y="307.584"/>
      </g>
     </g>
     <g id="text_5">
      <!-- 0 -->
      <g transform="translate(233.019342 322.182437)scale(0.1 -0.1)">
       <use xlink:href="#DejaVuSans-30"/>
      </g>
     </g>
    </g>
    <g id="xtick_6">
     <g id="line2d_6">
      <g>
       <use style="stroke:#000000;stroke-width:0.8;" x="276.792558" xlink:href="#m4e919ef5e3" y="307.584"/>
      </g>
     </g>
     <g id="text_6">
      <!-- 2500 -->
      <g transform="translate(264.067558 322.182437)scale(0.1 -0.1)">
       <use xlink:href="#DejaVuSans-32"/>
       <use x="63.623047" xlink:href="#DejaVuSans-35"/>
       <use x="127.246094" xlink:href="#DejaVuSans-30"/>
       <use x="190.869141" xlink:href="#DejaVuSans-30"/>
      </g>
     </g>
    </g>
    <g id="xtick_7">
     <g id="line2d_7">
      <g>
       <use style="stroke:#000000;stroke-width:0.8;" x="317.384524" xlink:href="#m4e919ef5e3" y="307.584"/>
      </g>
     </g>
     <g id="text_7">
      <!-- 5000 -->
      <g transform="translate(304.659524 322.182437)scale(0.1 -0.1)">
       <use xlink:href="#DejaVuSans-35"/>
       <use x="63.623047" xlink:href="#DejaVuSans-30"/>
       <use x="127.246094" xlink:href="#DejaVuSans-30"/>
       <use x="190.869141" xlink:href="#DejaVuSans-30"/>
      </g>
     </g>
    </g>
    <g id="xtick_8">
     <g id="line2d_8">
      <g>
       <use style="stroke:#000000;stroke-width:0.8;" x="357.97649" xlink:href="#m4e919ef5e3" y="307.584"/>
      </g>
     </g>
     <g id="text_8">
      <!-- 7500 -->
      <g transform="translate(345.25149 322.182437)scale(0.1 -0.1)">
       <use xlink:href="#DejaVuSans-37"/>
       <use x="63.623047" xlink:href="#DejaVuSans-35"/>
       <use x="127.246094" xlink:href="#DejaVuSans-30"/>
       <use x="190.869141" xlink:href="#DejaVuSans-30"/>
      </g>
     </g>
    </g>
    <g id="xtick_9">
     <g id="line2d_9">
      <g>
       <use style="stroke:#000000;stroke-width:0.8;" x="398.568457" xlink:href="#m4e919ef5e3" y="307.584"/>
      </g>
     </g>
     <g id="text_9">
      <!-- 10000 -->
      <g transform="translate(382.662207 322.182437)scale(0.1 -0.1)">
       <use xlink:href="#DejaVuSans-31"/>
       <use x="63.623047" xlink:href="#DejaVuSans-30"/>
       <use x="127.246094" xlink:href="#DejaVuSans-30"/>
       <use x="190.869141" xlink:href="#DejaVuSans-30"/>
       <use x="254.492188" xlink:href="#DejaVuSans-30"/>
      </g>
     </g>
    </g>
    <g id="text_10">
     <!-- frequency $\left[Hz\right]$ -->
     <g transform="translate(199.06 335.862125)scale(0.1 -0.1)">
      <defs>
       <path d="M 2375 4863 
L 2375 4384 
L 1825 4384 
Q 1516 4384 1395 4259 
Q 1275 4134 1275 3809 
L 1275 3500 
L 2222 3500 
L 2222 3053 
L 1275 3053 
L 1275 0 
L 697 0 
L 697 3053 
L 147 3053 
L 147 3500 
L 697 3500 
L 697 3744 
Q 697 4328 969 4595 
Q 1241 4863 1831 4863 
L 2375 4863 
z
" id="DejaVuSans-66" transform="scale(0.015625)"/>
       <path d="M 2631 2963 
Q 2534 3019 2420 3045 
Q 2306 3072 2169 3072 
Q 1681 3072 1420 2755 
Q 1159 2438 1159 1844 
L 1159 0 
L 581 0 
L 581 3500 
L 1159 3500 
L 1159 2956 
Q 1341 3275 1631 3429 
Q 1922 3584 2338 3584 
Q 2397 3584 2469 3576 
Q 2541 3569 2628 3553 
L 2631 2963 
z
" id="DejaVuSans-72" transform="scale(0.015625)"/>
       <path d="M 3597 1894 
L 3597 1613 
L 953 1613 
Q 991 1019 1311 708 
Q 1631 397 2203 397 
Q 2534 397 2845 478 
Q 3156 559 3463 722 
L 3463 178 
Q 3153 47 2828 -22 
Q 2503 -91 2169 -91 
Q 1331 -91 842 396 
Q 353 884 353 1716 
Q 353 2575 817 3079 
Q 1281 3584 2069 3584 
Q 2775 3584 3186 3129 
Q 3597 2675 3597 1894 
z
M 3022 2063 
Q 3016 2534 2758 2815 
Q 2500 3097 2075 3097 
Q 1594 3097 1305 2825 
Q 1016 2553 972 2059 
L 3022 2063 
z
" id="DejaVuSans-65" transform="scale(0.015625)"/>
       <path d="M 947 1747 
Q 947 1113 1208 752 
Q 1469 391 1925 391 
Q 2381 391 2643 752 
Q 2906 1113 2906 1747 
Q 2906 2381 2643 2742 
Q 2381 3103 1925 3103 
Q 1469 3103 1208 2742 
Q 947 2381 947 1747 
z
M 2906 525 
Q 2725 213 2448 61 
Q 2172 -91 1784 -91 
Q 1150 -91 751 415 
Q 353 922 353 1747 
Q 353 2572 751 3078 
Q 1150 3584 1784 3584 
Q 2172 3584 2448 3432 
Q 2725 3281 2906 2969 
L 2906 3500 
L 3481 3500 
L 3481 -1331 
L 2906 -1331 
L 2906 525 
z
" id="DejaVuSans-71" transform="scale(0.015625)"/>
       <path d="M 544 1381 
L 544 3500 
L 1119 3500 
L 1119 1403 
Q 1119 906 1312 657 
Q 1506 409 1894 409 
Q 2359 409 2629 706 
Q 2900 1003 2900 1516 
L 2900 3500 
L 3475 3500 
L 3475 0 
L 2900 0 
L 2900 538 
Q 2691 219 2414 64 
Q 2138 -91 1772 -91 
Q 1169 -91 856 284 
Q 544 659 544 1381 
z
M 1991 3584 
L 1991 3584 
z
" id="DejaVuSans-75" transform="scale(0.015625)"/>
       <path d="M 3513 2113 
L 3513 0 
L 2938 0 
L 2938 2094 
Q 2938 2591 2744 2837 
Q 2550 3084 2163 3084 
Q 1697 3084 1428 2787 
Q 1159 2491 1159 1978 
L 1159 0 
L 581 0 
L 581 3500 
L 1159 3500 
L 1159 2956 
Q 1366 3272 1645 3428 
Q 1925 3584 2291 3584 
Q 2894 3584 3203 3211 
Q 3513 2838 3513 2113 
z
" id="DejaVuSans-6e" transform="scale(0.015625)"/>
       <path d="M 3122 3366 
L 3122 2828 
Q 2878 2963 2633 3030 
Q 2388 3097 2138 3097 
Q 1578 3097 1268 2742 
Q 959 2388 959 1747 
Q 959 1106 1268 751 
Q 1578 397 2138 397 
Q 2388 397 2633 464 
Q 2878 531 3122 666 
L 3122 134 
Q 2881 22 2623 -34 
Q 2366 -91 2075 -91 
Q 1284 -91 818 406 
Q 353 903 353 1747 
Q 353 2603 823 3093 
Q 1294 3584 2113 3584 
Q 2378 3584 2631 3529 
Q 2884 3475 3122 3366 
z
" id="DejaVuSans-63" transform="scale(0.015625)"/>
       <path d="M 2059 -325 
Q 1816 -950 1584 -1140 
Q 1353 -1331 966 -1331 
L 506 -1331 
L 506 -850 
L 844 -850 
Q 1081 -850 1212 -737 
Q 1344 -625 1503 -206 
L 1606 56 
L 191 3500 
L 800 3500 
L 1894 763 
L 2988 3500 
L 3597 3500 
L 2059 -325 
z
" id="DejaVuSans-79" transform="scale(0.015625)"/>
       <path id="DejaVuSans-20" transform="scale(0.015625)"/>
       <path d="M 550 4863 
L 1875 4863 
L 1875 4416 
L 1125 4416 
L 1125 -397 
L 1875 -397 
L 1875 -844 
L 550 -844 
L 550 4863 
z
" id="DejaVuSans-5b" transform="scale(0.015625)"/>
       <path d="M 1081 4666 
L 1716 4666 
L 1344 2753 
L 3634 2753 
L 4006 4666 
L 4641 4666 
L 3731 0 
L 3097 0 
L 3531 2222 
L 1241 2222 
L 806 0 
L 172 0 
L 1081 4666 
z
" id="DejaVuSans-Oblique-48" transform="scale(0.015625)"/>
       <path d="M 744 3500 
L 3475 3500 
L 3372 2975 
L 738 459 
L 2913 459 
L 2822 0 
L -19 0 
L 84 525 
L 2719 3041 
L 653 3041 
L 744 3500 
z
" id="DejaVuSans-Oblique-7a" transform="scale(0.015625)"/>
       <path d="M 1947 4863 
L 1947 -844 
L 622 -844 
L 622 -397 
L 1369 -397 
L 1369 4416 
L 622 4416 
L 622 4863 
L 1947 4863 
z
" id="DejaVuSans-5d" transform="scale(0.015625)"/>
      </defs>
      <use transform="translate(0 0.015625)" xlink:href="#DejaVuSans-66"/>
      <use transform="translate(35.205078 0.015625)" xlink:href="#DejaVuSans-72"/>
      <use transform="translate(76.318359 0.015625)" xlink:href="#DejaVuSans-65"/>
      <use transform="translate(137.841797 0.015625)" xlink:href="#DejaVuSans-71"/>
      <use transform="translate(201.318359 0.015625)" xlink:href="#DejaVuSans-75"/>
      <use transform="translate(264.697266 0.015625)" xlink:href="#DejaVuSans-65"/>
      <use transform="translate(326.220703 0.015625)" xlink:href="#DejaVuSans-6e"/>
      <use transform="translate(389.599609 0.015625)" xlink:href="#DejaVuSans-63"/>
      <use transform="translate(444.580078 0.015625)" xlink:href="#DejaVuSans-79"/>
      <use transform="translate(503.759766 0.015625)" xlink:href="#DejaVuSans-20"/>
      <use transform="translate(535.546875 0.015625)" xlink:href="#DejaVuSans-5b"/>
      <use transform="translate(574.560547 0.015625)" xlink:href="#DejaVuSans-Oblique-48"/>
      <use transform="translate(649.755859 0.015625)" xlink:href="#DejaVuSans-Oblique-7a"/>
      <use transform="translate(702.246094 0.015625)" xlink:href="#DejaVuSans-5d"/>
     </g>
    </g>
   </g>
   <g id="matplotlib.axis_2">
    <g id="ytick_1">
     <g id="line2d_10">
      <defs>
       <path d="M 0 0 
L -3.5 0 
" id="m2ab15e37ad" style="stroke:#000000;stroke-width:0.8;"/>
      </defs>
      <g>
       <use style="stroke:#000000;stroke-width:0.8;" x="57.6" xlink:href="#m2ab15e37ad" y="295.492895"/>
      </g>
     </g>
     <g id="text_11">
      <!-- 0.00 -->
      <g transform="translate(28.334375 299.292113)scale(0.1 -0.1)">
       <defs>
        <path d="M 684 794 
L 1344 794 
L 1344 0 
L 684 0 
L 684 794 
z
" id="DejaVuSans-2e" transform="scale(0.015625)"/>
       </defs>
       <use xlink:href="#DejaVuSans-30"/>
       <use x="63.623047" xlink:href="#DejaVuSans-2e"/>
       <use x="95.410156" xlink:href="#DejaVuSans-30"/>
       <use x="159.033203" xlink:href="#DejaVuSans-30"/>
      </g>
     </g>
    </g>
    <g id="ytick_2">
     <g id="line2d_11">
      <g>
       <use style="stroke:#000000;stroke-width:0.8;" x="57.6" xlink:href="#m2ab15e37ad" y="254.982021"/>
      </g>
     </g>
     <g id="text_12">
      <!-- 0.05 -->
      <g transform="translate(28.334375 258.78124)scale(0.1 -0.1)">
       <use xlink:href="#DejaVuSans-30"/>
       <use x="63.623047" xlink:href="#DejaVuSans-2e"/>
       <use x="95.410156" xlink:href="#DejaVuSans-30"/>
       <use x="159.033203" xlink:href="#DejaVuSans-35"/>
      </g>
     </g>
    </g>
    <g id="ytick_3">
     <g id="line2d_12">
      <g>
       <use style="stroke:#000000;stroke-width:0.8;" x="57.6" xlink:href="#m2ab15e37ad" y="214.471147"/>
      </g>
     </g>
     <g id="text_13">
      <!-- 0.10 -->
      <g transform="translate(28.334375 218.270366)scale(0.1 -0.1)">
       <use xlink:href="#DejaVuSans-30"/>
       <use x="63.623047" xlink:href="#DejaVuSans-2e"/>
       <use x="95.410156" xlink:href="#DejaVuSans-31"/>
       <use x="159.033203" xlink:href="#DejaVuSans-30"/>
      </g>
     </g>
    </g>
    <g id="ytick_4">
     <g id="line2d_13">
      <g>
       <use style="stroke:#000000;stroke-width:0.8;" x="57.6" xlink:href="#m2ab15e37ad" y="173.960274"/>
      </g>
     </g>
     <g id="text_14">
      <!-- 0.15 -->
      <g transform="translate(28.334375 177.759492)scale(0.1 -0.1)">
       <use xlink:href="#DejaVuSans-30"/>
       <use x="63.623047" xlink:href="#DejaVuSans-2e"/>
       <use x="95.410156" xlink:href="#DejaVuSans-31"/>
       <use x="159.033203" xlink:href="#DejaVuSans-35"/>
      </g>
     </g>
    </g>
    <g id="ytick_5">
     <g id="line2d_14">
      <g>
       <use style="stroke:#000000;stroke-width:0.8;" x="57.6" xlink:href="#m2ab15e37ad" y="133.4494"/>
      </g>
     </g>
     <g id="text_15">
      <!-- 0.20 -->
      <g transform="translate(28.334375 137.248619)scale(0.1 -0.1)">
       <use xlink:href="#DejaVuSans-30"/>
       <use x="63.623047" xlink:href="#DejaVuSans-2e"/>
       <use x="95.410156" xlink:href="#DejaVuSans-32"/>
       <use x="159.033203" xlink:href="#DejaVuSans-30"/>
      </g>
     </g>
    </g>
    <g id="ytick_6">
     <g id="line2d_15">
      <g>
       <use style="stroke:#000000;stroke-width:0.8;" x="57.6" xlink:href="#m2ab15e37ad" y="92.938526"/>
      </g>
     </g>
     <g id="text_16">
      <!-- 0.25 -->
      <g transform="translate(28.334375 96.737745)scale(0.1 -0.1)">
       <use xlink:href="#DejaVuSans-30"/>
       <use x="63.623047" xlink:href="#DejaVuSans-2e"/>
       <use x="95.410156" xlink:href="#DejaVuSans-32"/>
       <use x="159.033203" xlink:href="#DejaVuSans-35"/>
      </g>
     </g>
    </g>
    <g id="ytick_7">
     <g id="line2d_16">
      <g>
       <use style="stroke:#000000;stroke-width:0.8;" x="57.6" xlink:href="#m2ab15e37ad" y="52.427653"/>
      </g>
     </g>
     <g id="text_17">
      <!-- 0.30 -->
      <g transform="translate(28.334375 56.226871)scale(0.1 -0.1)">
       <defs>
        <path d="M 2597 2516 
Q 3050 2419 3304 2112 
Q 3559 1806 3559 1356 
Q 3559 666 3084 287 
Q 2609 -91 1734 -91 
Q 1441 -91 1130 -33 
Q 819 25 488 141 
L 488 750 
Q 750 597 1062 519 
Q 1375 441 1716 441 
Q 2309 441 2620 675 
Q 2931 909 2931 1356 
Q 2931 1769 2642 2001 
Q 2353 2234 1838 2234 
L 1294 2234 
L 1294 2753 
L 1863 2753 
Q 2328 2753 2575 2939 
Q 2822 3125 2822 3475 
Q 2822 3834 2567 4026 
Q 2313 4219 1838 4219 
Q 1578 4219 1281 4162 
Q 984 4106 628 3988 
L 628 4550 
Q 988 4650 1302 4700 
Q 1616 4750 1894 4750 
Q 2613 4750 3031 4423 
Q 3450 4097 3450 3541 
Q 3450 3153 3228 2886 
Q 3006 2619 2597 2516 
z
" id="DejaVuSans-33" transform="scale(0.015625)"/>
       </defs>
       <use xlink:href="#DejaVuSans-30"/>
       <use x="63.623047" xlink:href="#DejaVuSans-2e"/>
       <use x="95.410156" xlink:href="#DejaVuSans-33"/>
       <use x="159.033203" xlink:href="#DejaVuSans-30"/>
      </g>
     </g>
    </g>
    <g id="text_18">
     <!-- magnitude -->
     <g transform="translate(22.254687 201.574094)rotate(-90)scale(0.1 -0.1)">
      <defs>
       <path d="M 3328 2828 
Q 3544 3216 3844 3400 
Q 4144 3584 4550 3584 
Q 5097 3584 5394 3201 
Q 5691 2819 5691 2113 
L 5691 0 
L 5113 0 
L 5113 2094 
Q 5113 2597 4934 2840 
Q 4756 3084 4391 3084 
Q 3944 3084 3684 2787 
Q 3425 2491 3425 1978 
L 3425 0 
L 2847 0 
L 2847 2094 
Q 2847 2600 2669 2842 
Q 2491 3084 2119 3084 
Q 1678 3084 1418 2786 
Q 1159 2488 1159 1978 
L 1159 0 
L 581 0 
L 581 3500 
L 1159 3500 
L 1159 2956 
Q 1356 3278 1631 3431 
Q 1906 3584 2284 3584 
Q 2666 3584 2933 3390 
Q 3200 3197 3328 2828 
z
" id="DejaVuSans-6d" transform="scale(0.015625)"/>
       <path d="M 2194 1759 
Q 1497 1759 1228 1600 
Q 959 1441 959 1056 
Q 959 750 1161 570 
Q 1363 391 1709 391 
Q 2188 391 2477 730 
Q 2766 1069 2766 1631 
L 2766 1759 
L 2194 1759 
z
M 3341 1997 
L 3341 0 
L 2766 0 
L 2766 531 
Q 2569 213 2275 61 
Q 1981 -91 1556 -91 
Q 1019 -91 701 211 
Q 384 513 384 1019 
Q 384 1609 779 1909 
Q 1175 2209 1959 2209 
L 2766 2209 
L 2766 2266 
Q 2766 2663 2505 2880 
Q 2244 3097 1772 3097 
Q 1472 3097 1187 3025 
Q 903 2953 641 2809 
L 641 3341 
Q 956 3463 1253 3523 
Q 1550 3584 1831 3584 
Q 2591 3584 2966 3190 
Q 3341 2797 3341 1997 
z
" id="DejaVuSans-61" transform="scale(0.015625)"/>
       <path d="M 2906 1791 
Q 2906 2416 2648 2759 
Q 2391 3103 1925 3103 
Q 1463 3103 1205 2759 
Q 947 2416 947 1791 
Q 947 1169 1205 825 
Q 1463 481 1925 481 
Q 2391 481 2648 825 
Q 2906 1169 2906 1791 
z
M 3481 434 
Q 3481 -459 3084 -895 
Q 2688 -1331 1869 -1331 
Q 1566 -1331 1297 -1286 
Q 1028 -1241 775 -1147 
L 775 -588 
Q 1028 -725 1275 -790 
Q 1522 -856 1778 -856 
Q 2344 -856 2625 -561 
Q 2906 -266 2906 331 
L 2906 616 
Q 2728 306 2450 153 
Q 2172 0 1784 0 
Q 1141 0 747 490 
Q 353 981 353 1791 
Q 353 2603 747 3093 
Q 1141 3584 1784 3584 
Q 2172 3584 2450 3431 
Q 2728 3278 2906 2969 
L 2906 3500 
L 3481 3500 
L 3481 434 
z
" id="DejaVuSans-67" transform="scale(0.015625)"/>
       <path d="M 603 3500 
L 1178 3500 
L 1178 0 
L 603 0 
L 603 3500 
z
M 603 4863 
L 1178 4863 
L 1178 4134 
L 603 4134 
L 603 4863 
z
" id="DejaVuSans-69" transform="scale(0.015625)"/>
       <path d="M 1172 4494 
L 1172 3500 
L 2356 3500 
L 2356 3053 
L 1172 3053 
L 1172 1153 
Q 1172 725 1289 603 
Q 1406 481 1766 481 
L 2356 481 
L 2356 0 
L 1766 0 
Q 1100 0 847 248 
Q 594 497 594 1153 
L 594 3053 
L 172 3053 
L 172 3500 
L 594 3500 
L 594 4494 
L 1172 4494 
z
" id="DejaVuSans-74" transform="scale(0.015625)"/>
       <path d="M 2906 2969 
L 2906 4863 
L 3481 4863 
L 3481 0 
L 2906 0 
L 2906 525 
Q 2725 213 2448 61 
Q 2172 -91 1784 -91 
Q 1150 -91 751 415 
Q 353 922 353 1747 
Q 353 2572 751 3078 
Q 1150 3584 1784 3584 
Q 2172 3584 2448 3432 
Q 2725 3281 2906 2969 
z
M 947 1747 
Q 947 1113 1208 752 
Q 1469 391 1925 391 
Q 2381 391 2643 752 
Q 2906 1113 2906 1747 
Q 2906 2381 2643 2742 
Q 2381 3103 1925 3103 
Q 1469 3103 1208 2742 
Q 947 2381 947 1747 
z
" id="DejaVuSans-64" transform="scale(0.015625)"/>
      </defs>
      <use xlink:href="#DejaVuSans-6d"/>
      <use x="97.412109" xlink:href="#DejaVuSans-61"/>
      <use x="158.691406" xlink:href="#DejaVuSans-67"/>
      <use x="222.167969" xlink:href="#DejaVuSans-6e"/>
      <use x="285.546875" xlink:href="#DejaVuSans-69"/>
      <use x="313.330078" xlink:href="#DejaVuSans-74"/>
      <use x="352.539062" xlink:href="#DejaVuSans-75"/>
      <use x="415.917969" xlink:href="#DejaVuSans-64"/>
      <use x="479.394531" xlink:href="#DejaVuSans-65"/>
     </g>
    </g>
   </g>
   <g id="line2d_17">
    <path clip-path="url(#p1ca6feb9fa)" d="M 73.832727 295.337218 
L 74.076279 295.291941 
L 74.319831 295.323745 
L 74.401015 295.435572 
L 74.482199 294.678432 
L 74.644567 295.317919 
L 74.969302 295.377623 
L 75.212854 295.375146 
L 75.618774 295.425173 
L 75.862326 295.40735 
L 76.105877 295.400767 
L 76.349429 295.393451 
L 77.323636 295.366543 
L 77.40482 295.029247 
L 77.567188 295.476813 
L 78.297844 295.385259 
L 78.622579 295.392938 
L 78.784947 295.199667 
L 79.109683 295.452025 
L 79.353235 295.3783 
L 79.759154 295.392253 
L 80.002706 295.451043 
L 80.246258 295.327446 
L 80.408626 295.399486 
L 83.087696 295.363262 
L 83.412431 295.415719 
L 83.655983 295.458265 
L 83.899535 295.368309 
L 84.467822 295.424228 
L 84.63019 295.360363 
L 84.954926 295.442188 
L 85.685581 295.432325 
L 86.010317 295.396501 
L 86.253869 295.350813 
L 86.578605 295.428784 
L 86.822156 295.374418 
L 87.065708 295.374031 
L 87.30926 295.440714 
L 87.877548 295.417183 
L 88.202283 295.395418 
L 88.527019 295.388186 
L 88.770571 295.384634 
L 89.095307 295.350155 
L 89.501226 295.444238 
L 89.825962 295.400991 
L 90.069514 295.406788 
L 90.313066 295.425204 
L 90.637801 295.329835 
L 90.881353 295.468307 
L 91.368457 295.357958 
L 91.693192 295.461758 
L 92.017928 295.346892 
L 92.342664 295.456823 
L 92.910951 295.375907 
L 93.316871 295.377174 
L 93.560423 295.329809 
L 93.885159 295.481536 
L 94.12871 295.346914 
L 94.53463 295.472849 
L 94.94055 295.338931 
L 96.158309 295.396078 
L 96.564228 295.355757 
L 96.80778 295.45132 
L 97.294884 295.371505 
L 97.538436 295.436287 
L 97.944355 295.310023 
L 98.431459 295.373 
L 98.675011 295.375829 
L 99.649218 295.433689 
L 99.811586 295.427585 
L 99.973953 295.321577 
L 100.623425 295.371495 
L 100.866977 295.316454 
L 101.272896 295.438267 
L 101.516448 295.283181 
L 102.003552 295.395959 
L 102.328288 295.315435 
L 102.653023 295.44127 
L 103.221311 295.37851 
L 103.383679 295.484281 
L 103.708414 295.304336 
L 103.951966 295.379932 
L 104.114334 295.459382 
L 104.43907 295.297933 
L 104.926173 295.416206 
L 105.169725 295.309616 
L 105.413277 295.348414 
L 105.575645 295.447661 
L 106.225116 295.414808 
L 106.387484 295.462846 
L 106.631036 295.305165 
L 106.874588 295.34982 
L 107.036956 295.445747 
L 107.280507 295.32171 
L 107.605243 295.352532 
L 107.767611 295.47597 
L 108.254715 295.274044 
L 108.57945 295.424647 
L 108.904186 295.2682 
L 109.066554 295.356419 
L 109.310106 295.387983 
L 109.634841 295.249515 
L 109.797209 295.331634 
L 110.040761 295.41309 
L 110.527865 295.327174 
L 110.690233 295.488 
L 111.014968 295.289955 
L 111.177336 295.305454 
L 111.583256 295.360684 
L 111.745624 295.270287 
L 112.313911 295.362677 
L 112.557463 295.251986 
L 112.801015 295.369559 
L 112.963383 295.431102 
L 113.288118 295.208686 
L 113.775222 295.359162 
L 114.018774 295.204466 
L 114.181142 295.319347 
L 114.505877 295.393819 
L 114.749429 295.232994 
L 115.236533 295.374774 
L 115.561268 295.240698 
L 115.967188 295.360731 
L 116.21074 295.208605 
L 116.697844 295.316861 
L 117.022579 295.20108 
L 117.347315 295.447755 
L 117.672051 295.207061 
L 118.159154 295.352057 
L 118.48389 295.173883 
L 118.808626 295.439917 
L 119.214545 295.160389 
L 119.539281 295.415192 
L 120.026385 295.222712 
L 120.269937 295.446123 
L 120.594672 295.118136 
L 121.000592 295.441936 
L 121.244144 295.217783 
L 121.487696 295.194696 
L 121.731247 295.399173 
L 122.055983 295.147904 
L 122.543087 295.325524 
L 122.786638 295.143682 
L 123.03019 295.261454 
L 123.192558 295.438519 
L 123.517294 295.119816 
L 123.760846 295.245845 
L 123.923214 295.410816 
L 124.410317 295.142761 
L 124.653869 295.430325 
L 125.059789 295.098797 
L 125.384524 295.425909 
L 125.790444 295.104047 
L 125.871628 295.092911 
L 126.11518 295.419052 
L 126.439915 295.078613 
L 126.683467 295.211785 
L 126.845835 295.381914 
L 127.332939 295.061436 
L 127.57649 295.38007 
L 127.98241 295.072728 
L 128.144778 295.190793 
L 128.307146 295.408786 
L 128.38833 295.339891 
L 128.713066 295.037324 
L 128.956617 295.271213 
L 129.037801 295.424496 
L 129.443721 295.030349 
L 129.606089 295.125013 
L 129.768457 295.336704 
L 129.930825 295.194236 
L 130.174376 294.974141 
L 130.580296 295.322825 
L 130.905032 294.995273 
L 131.310951 295.293916 
L 131.635687 294.97113 
L 131.798055 295.104632 
L 132.041607 295.288688 
L 132.447526 295.004779 
L 132.609894 295.179782 
L 132.772262 295.316336 
L 133.096998 294.925584 
L 133.259366 295.064149 
L 133.502918 295.323912 
L 133.827653 294.874253 
L 133.990021 295.039792 
L 134.233573 295.291541 
L 134.558309 294.879354 
L 134.720677 295.003393 
L 134.964228 295.287128 
L 135.288964 294.841929 
L 135.451332 294.933949 
L 135.6137 295.271416 
L 135.694884 295.231305 
L 135.857252 294.980183 
L 136.100803 294.825761 
L 136.263171 295.123236 
L 136.425539 295.2832 
L 136.831459 294.819832 
L 137.156195 295.276925 
L 137.48093 294.754681 
L 137.562114 294.772713 
L 137.88685 295.20733 
L 138.29277 294.747829 
L 138.617505 295.26745 
L 138.942241 294.637407 
L 139.104609 294.791637 
L 139.348161 295.260241 
L 139.75408 294.647034 
L 139.916448 294.904298 
L 140.078816 295.258562 
L 140.484736 294.575962 
L 140.809471 295.182724 
L 140.890655 295.024374 
L 141.134207 294.556073 
L 141.296575 294.624566 
L 141.540127 295.188144 
L 141.946047 294.454538 
L 142.270782 295.18768 
L 142.351966 295.015013 
L 142.676702 294.366001 
L 142.83907 294.684387 
L 143.001438 295.110811 
L 143.163805 294.742194 
L 143.326173 294.32466 
L 143.407357 294.274507 
L 143.569725 294.644478 
L 143.732093 295.083551 
L 143.813277 294.98462 
L 144.056829 294.222473 
L 144.138013 294.181028 
L 144.462748 295.083849 
L 144.543932 294.936522 
L 144.787484 294.153849 
L 144.868668 294.077601 
L 145.031036 294.467968 
L 145.193404 295.029696 
L 145.274588 294.925918 
L 145.599323 293.912889 
L 145.761691 294.304231 
L 145.924059 294.951429 
L 146.086427 294.47647 
L 146.248795 293.846708 
L 146.329979 293.781617 
L 146.492347 294.171841 
L 146.654715 294.89339 
L 146.735899 294.816462 
L 147.060634 293.544912 
L 147.223002 293.964405 
L 147.38537 294.757991 
L 147.466554 294.693736 
L 147.79129 293.307923 
L 147.872474 293.417597 
L 148.197209 294.65495 
L 148.521945 292.958611 
L 148.603129 293.021459 
L 148.927865 294.525319 
L 149.2526 292.484317 
L 149.333784 292.513956 
L 149.65852 294.404253 
L 149.983256 291.720932 
L 150.06444 291.733644 
L 150.226808 292.872249 
L 150.389175 294.134837 
L 150.795095 290.332923 
L 150.957463 291.747526 
L 151.119831 293.651929 
L 151.525751 287.071889 
L 151.606934 287.382255 
L 151.850486 292.26882 
L 152.012854 285.862249 
L 152.418774 256.341167 
L 152.499958 240.9462 
L 152.581142 57.8611 
L 152.74351 270.320025 
L 152.905877 273.847026 
L 153.392981 294.363639 
L 153.636533 289.887864 
L 153.717717 289.827051 
L 153.880085 291.377069 
L 154.123636 294.637833 
L 154.448372 292.813542 
L 154.529556 292.914828 
L 154.773108 293.430421 
L 155.01666 293.019981 
L 155.097844 293.124938 
L 155.341395 294.377755 
L 155.747315 289.816984 
L 155.828499 290.033587 
L 155.990867 292.816398 
L 156.072051 294.762826 
L 156.315603 283.029246 
L 156.640338 260.232367 
L 156.721522 245.69856 
L 156.802706 53.568 
L 156.965074 269.311877 
L 157.046258 270.244067 
L 157.28981 279.714524 
L 157.614545 292.170992 
L 157.858097 287.820533 
L 157.939281 287.727658 
L 158.101649 289.724522 
L 158.345201 293.531445 
L 158.669937 290.454118 
L 158.751121 290.680231 
L 159.075856 293.969033 
L 159.15704 293.483975 
L 159.400592 291.683455 
L 159.481776 291.759898 
L 159.806512 294.273555 
L 159.887696 293.939301 
L 160.131247 292.435011 
L 160.212431 292.420561 
L 160.455983 293.989148 
L 160.537167 294.42504 
L 160.699535 293.686523 
L 160.861903 292.888039 
L 160.943087 292.873084 
L 161.267822 294.500128 
L 161.349006 294.417321 
L 161.673742 293.225391 
L 161.83611 293.77322 
L 161.998478 294.607816 
L 162.079662 294.57285 
L 162.404397 293.439652 
L 162.566765 293.920569 
L 162.810317 294.666542 
L 163.135053 293.63127 
L 163.297421 294.063946 
L 163.540973 294.747163 
L 163.865708 293.825947 
L 164.028076 294.130423 
L 164.271628 294.817425 
L 164.596364 293.912719 
L 164.758732 294.195979 
L 165.002283 294.848041 
L 165.408203 294.097115 
L 165.732939 294.911493 
L 166.057674 294.106362 
L 166.138858 294.196455 
L 166.463594 294.970628 
L 166.544778 294.751115 
L 166.78833 294.203639 
L 166.869514 294.204772 
L 167.194249 294.980819 
L 167.518985 294.280911 
L 167.600169 294.345954 
L 167.762537 294.706102 
L 167.924905 294.968412 
L 168.249641 294.333385 
L 168.330825 294.400195 
L 168.493192 294.727265 
L 168.65556 295.04432 
L 169.06148 294.409386 
L 169.386216 295.083257 
L 169.4674 294.932515 
L 169.710951 294.461049 
L 169.792135 294.429052 
L 170.116871 295.049745 
L 170.522791 294.438526 
L 170.603975 294.62051 
L 170.847526 295.130906 
L 171.253446 294.590094 
L 171.33463 294.617557 
L 171.578182 295.089129 
L 171.659366 295.013766 
L 171.902918 294.548196 
L 172.065285 294.692548 
L 172.308837 295.110409 
L 172.390021 295.025915 
L 172.633573 294.599843 
L 172.877125 294.825472 
L 173.039493 295.133949 
L 173.445412 294.58124 
L 173.60778 294.855533 
L 173.770148 295.118845 
L 173.932516 294.923071 
L 174.094884 294.681061 
L 174.338436 294.870444 
L 174.500803 295.150719 
L 174.987907 294.747682 
L 175.231459 295.121442 
L 175.312643 295.097936 
L 175.637378 294.729738 
L 176.043298 295.111585 
L 176.28685 294.763673 
L 176.449218 294.843724 
L 176.773953 295.151404 
L 177.098689 294.77446 
L 177.179873 294.783857 
L 177.423425 295.163093 
L 177.504609 295.108667 
L 177.910529 294.81514 
L 178.15408 295.187219 
L 178.316448 295.042982 
L 178.56 294.771298 
L 178.96592 295.19199 
L 179.290655 294.828161 
L 179.453023 294.961109 
L 179.696575 295.190783 
L 180.021311 294.824715 
L 180.42723 295.148054 
L 180.83315 294.862412 
L 181.076702 295.15768 
L 181.23907 295.11238 
L 181.482622 294.849087 
L 181.969725 295.103693 
L 182.294461 294.89764 
L 182.700381 295.138164 
L 182.943932 294.869815 
L 183.1063 294.97304 
L 183.349852 295.215366 
L 183.755772 294.920618 
L 184.080507 295.22584 
L 184.405243 294.926138 
L 184.567611 294.976977 
L 184.811163 295.221244 
L 184.892347 295.198726 
L 185.135899 294.917005 
L 185.298266 294.988976 
L 185.541818 295.242959 
L 185.623002 295.15034 
L 185.866554 294.953426 
L 185.947738 294.927549 
L 186.272474 295.243013 
L 186.353658 295.223236 
L 186.597209 294.917888 
L 186.840761 295.096646 
L 187.003129 295.228779 
L 187.490233 295.043321 
L 187.814968 295.189375 
L 188.05852 294.93251 
L 188.626808 295.096921 
L 188.789175 294.978679 
L 189.032727 295.11662 
L 189.195095 295.286912 
L 189.601015 294.953386 
L 189.925751 295.254008 
L 190.412854 294.997187 
L 190.656406 295.240781 
L 190.818774 295.121505 
L 191.062326 294.960585 
L 191.468245 295.240846 
L 191.711797 294.986272 
L 191.874165 295.032974 
L 192.117717 295.258912 
L 192.686004 295.112346 
L 192.929556 295.203684 
L 193.254292 294.975449 
L 193.579027 295.261196 
L 194.066131 295.058813 
L 194.390867 295.264328 
L 194.715603 295.034048 
L 194.87797 295.119089 
L 195.121522 295.266123 
L 195.527442 295.041134 
L 195.852178 295.286473 
L 196.176913 295.014324 
L 196.420465 295.194098 
L 196.582833 295.246948 
L 196.988753 295.059994 
L 197.394672 295.179598 
L 197.638224 294.999141 
L 197.96296 295.240392 
L 198.125328 295.199522 
L 198.368879 295.050255 
L 198.612431 295.232345 
L 198.774799 295.278336 
L 199.180719 295.052715 
L 199.424271 295.262664 
L 199.505455 295.303511 
L 199.749006 295.06244 
L 199.911374 295.068409 
L 200.154926 295.276395 
L 200.723214 295.126462 
L 200.966765 295.291295 
L 201.291501 295.042668 
L 201.778605 295.200855 
L 202.184524 295.12762 
L 202.428076 295.31306 
L 202.752812 295.05303 
L 202.91518 295.150773 
L 203.077548 295.290305 
L 203.645835 295.161527 
L 204.051755 295.156056 
L 204.214123 295.105125 
L 204.863594 295.130232 
L 205.025962 295.063463 
L 205.350698 295.305306 
L 205.756617 295.065982 
L 206.162537 295.274204 
L 206.406089 295.061091 
L 206.974376 295.171255 
L 207.217928 295.067836 
L 207.542664 295.280172 
L 208.110951 295.25444 
L 208.273319 295.317142 
L 208.598055 295.119055 
L 208.760423 295.12981 
L 209.003975 295.297766 
L 209.409894 295.070247 
L 209.815814 295.284032 
L 210.14055 295.098096 
L 210.708837 295.151686 
L 210.952389 295.137934 
L 211.195941 295.298499 
L 211.60186 295.124884 
L 212.00778 295.290483 
L 212.251332 295.090036 
L 212.657252 295.294958 
L 213.306723 295.25042 
L 213.387907 295.344414 
L 213.469091 295.272304 
L 213.712643 295.110434 
L 213.875011 295.134365 
L 214.118562 295.29998 
L 214.605666 295.127905 
L 214.849218 295.323352 
L 215.09277 295.148484 
L 215.255137 295.139015 
L 215.336321 295.112572 
L 215.579873 295.301906 
L 215.661057 295.332033 
L 215.904609 295.117543 
L 216.472896 295.211094 
L 216.635264 295.141861 
L 216.878816 295.198614 
L 217.122368 295.295729 
L 217.447104 295.089576 
L 217.853023 295.261601 
L 218.340127 295.196142 
L 218.583679 295.294255 
L 218.82723 295.110218 
L 218.989598 295.178331 
L 219.395518 295.227482 
L 219.63907 295.088461 
L 219.963805 295.313513 
L 220.450909 295.113561 
L 220.775645 295.345209 
L 221.019197 295.137302 
L 221.262748 295.191295 
L 221.5063 295.318922 
L 221.749852 295.110322 
L 221.993404 295.1862 
L 222.155772 295.331439 
L 222.399323 295.170543 
L 222.561691 295.12591 
L 222.886427 295.357295 
L 223.292347 295.117219 
L 223.373531 295.088847 
L 223.617082 295.34993 
L 223.77945 295.217545 
L 224.104186 295.09921 
L 224.347738 295.402495 
L 224.672474 295.085269 
L 224.834841 295.121888 
L 225.159577 295.32567 
L 225.321945 295.139013 
L 225.565497 295.108642 
L 225.809049 295.377525 
L 226.377336 295.16669 
L 226.539704 295.352716 
L 227.026808 295.109435 
L 227.351543 295.322136 
L 227.595095 295.071009 
L 227.757463 295.114738 
L 228.082199 295.334964 
L 228.325751 295.094005 
L 228.488118 295.117138 
L 228.73167 295.377179 
L 229.218774 295.086672 
L 229.462326 295.440268 
L 229.54351 295.28128 
L 229.868245 295.017711 
L 230.030613 295.203118 
L 230.192981 295.430351 
L 230.598901 294.987051 
L 230.680085 295.077533 
L 230.923636 295.463715 
L 231.00482 295.338235 
L 231.248372 294.981501 
L 231.41074 295.057205 
L 231.654292 295.479118 
L 231.897844 295.01435 
L 232.060211 294.948674 
L 232.384947 295.422084 
L 232.466131 295.26567 
L 232.709683 294.882614 
L 232.872051 294.920993 
L 233.115603 295.339316 
L 233.196786 295.225048 
L 233.440338 294.777953 
L 233.602706 294.867553 
L 233.846258 295.263039 
L 234.252178 294.616933 
L 234.576913 294.985849 
L 234.658097 294.904147 
L 234.982833 294.243533 
L 235.307569 294.426061 
L 235.551121 293.480968 
L 235.875856 291.900829 
L 236.038224 288.523147 
L 236.119408 281.654839 
L 236.200592 249.194832 
L 236.36296 288.523147 
L 236.606512 292.44891 
L 237.093615 294.426061 
L 237.255983 294.426793 
L 237.418351 294.243533 
L 237.580719 294.448187 
L 237.905455 295.040137 
L 238.149006 294.616933 
L 238.392558 294.896156 
L 238.554926 295.263039 
L 238.63611 295.202805 
L 238.879662 294.776162 
L 239.04203 294.879387 
L 239.285581 295.339316 
L 239.447949 295.032941 
L 239.691501 294.882614 
L 239.853869 295.093335 
L 240.016237 295.422084 
L 240.422156 294.975984 
L 240.584524 295.115815 
L 240.746892 295.479118 
L 241.071628 294.993625 
L 241.233996 295.059775 
L 241.477548 295.463715 
L 241.802283 294.987051 
L 242.045835 295.169678 
L 242.208203 295.430351 
L 242.614123 295.0158 
L 242.938858 295.440268 
L 243.020042 295.304549 
L 243.263594 295.033627 
L 243.425962 295.095149 
L 243.750698 295.321704 
L 243.994249 295.090351 
L 244.156617 295.146838 
L 244.481353 295.312908 
L 244.724905 295.039878 
L 244.968457 295.187826 
L 245.130825 295.346228 
L 245.293192 295.199375 
L 245.536744 295.089193 
L 245.699112 295.227301 
L 245.942664 295.336228 
L 246.186216 295.068989 
L 246.673319 295.31508 
L 246.916871 295.083554 
L 247.403975 295.327444 
L 247.647526 295.061955 
L 247.891078 295.232 
L 248.13463 295.3158 
L 248.378182 295.069139 
L 248.621734 295.217545 
L 248.784101 295.34993 
L 249.271205 295.159126 
L 249.595941 295.322737 
L 249.839493 295.12591 
L 250.00186 295.170543 
L 250.245412 295.331439 
L 250.40778 295.1862 
L 250.651332 295.110322 
L 251.057252 295.280172 
L 251.300803 295.124697 
L 251.544355 295.239204 
L 251.706723 295.319477 
L 252.193827 295.155178 
L 252.599746 295.225002 
L 252.843298 295.111739 
L 253.249218 295.288821 
L 253.573953 295.110218 
L 253.979873 295.272587 
L 254.304609 295.113306 
L 254.466977 295.237967 
L 254.791712 295.221163 
L 255.035264 295.084631 
L 255.36 295.319752 
L 255.847104 295.127229 
L 256.090655 295.309156 
L 256.253023 295.201121 
L 256.496575 295.117543 
L 256.821311 295.301906 
L 256.983679 295.212896 
L 257.22723 295.07376 
L 257.551966 295.323352 
L 258.03907 295.145312 
L 258.282622 295.29998 
L 258.850909 295.170156 
L 259.013277 295.344414 
L 259.338013 295.108343 
L 259.581564 295.190609 
L 259.743932 295.294958 
L 260.231036 295.146217 
L 260.555772 295.290582 
L 260.880507 295.106525 
L 261.286427 295.282055 
L 261.611163 295.116769 
L 262.098266 295.21711 
L 262.260634 295.098096 
L 262.828922 295.251984 
L 263.072474 295.047586 
L 263.478393 295.29196 
L 263.803129 295.119055 
L 264.209049 295.299552 
L 264.614968 295.159125 
L 265.102072 295.152929 
L 265.26444 295.101862 
L 265.507992 295.231184 
L 265.670359 295.262987 
L 265.832727 295.130897 
L 266.076279 295.086335 
L 266.401015 295.332561 
L 266.644567 295.065982 
L 266.806934 295.091016 
L 267.13167 295.280958 
L 267.53759 295.130232 
L 267.94351 295.186239 
L 268.105877 295.122077 
L 268.349429 295.156056 
L 268.592981 295.290352 
L 268.836533 295.096639 
L 269.080085 295.142617 
L 269.323636 295.290305 
L 269.486004 295.150773 
L 269.648372 295.05303 
L 270.054292 295.274089 
L 270.460211 295.051944 
L 270.703763 295.271373 
L 270.866131 295.229214 
L 271.109683 295.042668 
L 271.515603 295.29837 
L 271.921522 295.076138 
L 272.08389 295.220299 
L 272.327442 295.237245 
L 272.652178 295.06244 
L 272.976913 295.262664 
L 273.382833 295.076274 
L 273.707569 295.309982 
L 274.032304 295.050255 
L 274.519408 295.249961 
L 274.76296 294.999141 
L 275.250063 295.230398 
L 275.493615 295.030253 
L 275.737167 295.189462 
L 275.899535 295.274151 
L 276.224271 295.014324 
L 276.711374 295.229857 
L 276.954926 295.053593 
L 277.117294 295.095761 
L 277.360846 295.262318 
L 277.847949 295.083471 
L 278.091501 295.245524 
L 278.578605 295.064041 
L 278.822156 295.261196 
L 279.228076 295.021825 
L 279.552812 295.279023 
L 279.877548 295.000947 
L 280.121099 295.107903 
L 280.283467 295.258912 
L 280.689387 294.986272 
L 281.014123 295.284175 
L 281.17649 295.080649 
L 281.420042 295.007877 
L 281.501226 295.008181 
L 281.744778 295.240781 
L 281.825962 295.25327 
L 282.069514 294.932737 
L 282.313066 295.121315 
L 282.475433 295.254008 
L 282.718985 295.050638 
L 282.881353 294.967178 
L 283.043721 295.1054 
L 283.206089 295.286912 
L 283.612008 294.978679 
L 283.774376 295.096921 
L 283.936744 295.223604 
L 284.423848 295.019505 
L 284.586216 295.189375 
L 284.748584 295.221122 
L 284.992135 294.961451 
L 285.235687 295.018266 
L 285.398055 295.228779 
L 285.885159 295.016583 
L 286.291078 295.121289 
L 286.53463 294.953426 
L 286.696998 295.040522 
L 286.859366 295.242959 
L 287.265285 294.917005 
L 287.427653 295.059826 
L 287.590021 295.221244 
L 287.752389 295.087361 
L 287.995941 294.926138 
L 288.077125 294.915929 
L 288.40186 295.243131 
L 288.726596 294.926548 
L 288.888964 295.02674 
L 289.132516 295.175045 
L 289.538436 294.910071 
L 289.781987 295.225091 
L 289.944355 295.101244 
L 290.187907 294.851563 
L 290.269091 294.865727 
L 290.512643 295.188188 
L 290.675011 295.075041 
L 290.918562 294.849087 
L 291.324482 295.15768 
L 291.730402 294.867163 
L 291.973953 295.148054 
L 292.136321 295.057125 
L 292.379873 294.824715 
L 292.866977 295.10264 
L 293.110529 294.828161 
L 293.191712 294.819322 
L 293.516448 295.143614 
L 293.922368 294.824415 
L 294.247104 295.187219 
L 294.571839 294.762491 
L 294.653023 294.784433 
L 294.977759 295.163093 
L 295.302495 294.77446 
L 295.464863 294.863707 
L 295.708414 295.169052 
L 296.03315 294.765336 
L 296.114334 294.763673 
L 296.43907 295.138751 
L 296.844989 294.730018 
L 297.169725 295.121442 
L 297.575645 294.688406 
L 297.656829 294.795759 
L 297.900381 295.150719 
L 298.3063 294.681061 
L 298.468668 294.923071 
L 298.631036 295.118845 
L 299.036956 294.637297 
L 299.361691 295.133949 
L 299.767611 294.599843 
L 300.092347 295.110409 
L 300.173531 294.986004 
L 300.498266 294.548196 
L 300.823002 295.089129 
L 300.904186 295.028419 
L 301.147738 294.590094 
L 301.310106 294.647818 
L 301.553658 295.130906 
L 301.878393 294.438526 
L 301.959577 294.528897 
L 302.284313 295.049745 
L 302.365497 294.955361 
L 302.609049 294.429052 
L 302.771416 294.555188 
L 303.014968 295.083257 
L 303.096152 295.015125 
L 303.339704 294.409386 
L 303.502072 294.487669 
L 303.745624 295.04432 
L 303.826808 294.95957 
L 304.151543 294.333385 
L 304.313911 294.60233 
L 304.476279 294.968412 
L 304.557463 294.944193 
L 304.882199 294.280911 
L 305.044567 294.550949 
L 305.206934 294.980819 
L 305.288118 294.909674 
L 305.612854 294.203639 
L 305.694038 294.278077 
L 305.93759 294.970628 
L 306.099958 294.639636 
L 306.34351 294.106362 
L 306.424693 294.191103 
L 306.668245 294.911493 
L 306.749429 294.814368 
L 307.074165 294.06687 
L 307.155349 294.097605 
L 307.398901 294.848041 
L 307.480085 294.789671 
L 307.80482 293.912719 
L 307.886004 293.948985 
L 308.129556 294.817425 
L 308.21074 294.777515 
L 308.535476 293.825947 
L 308.61666 293.859489 
L 308.779027 294.444762 
L 308.941395 294.760195 
L 309.266131 293.63127 
L 309.347315 293.697766 
L 309.672051 294.658471 
L 309.996786 293.439652 
L 310.07797 293.465565 
L 310.402706 294.607816 
L 310.727442 293.225391 
L 310.808626 293.2807 
L 310.970994 293.967433 
L 311.133362 294.500128 
L 311.539281 292.888039 
L 311.701649 293.686523 
L 311.864017 294.42504 
L 312.269937 292.435011 
L 312.432304 293.302418 
L 312.594672 294.273555 
L 313.000592 291.683455 
L 313.16296 292.65561 
L 313.325328 293.969033 
L 313.487696 292.39644 
L 313.731247 290.454118 
L 313.812431 290.740776 
L 314.055983 293.531445 
L 314.137167 292.943156 
L 314.461903 287.727658 
L 314.543087 287.820533 
L 314.705455 290.390979 
L 314.786638 292.170992 
L 314.867822 291.431186 
L 315.517294 268.278751 
L 315.598478 53.568 
L 315.760846 260.232367 
L 316.247949 291.838627 
L 316.329133 294.762826 
L 316.572685 290.033587 
L 316.653869 289.816984 
L 316.816237 291.088505 
L 317.059789 294.377755 
L 317.140973 294.242597 
L 317.384524 293.019981 
L 317.465708 293.068237 
L 317.628076 293.430421 
L 317.70926 293.422939 
L 317.952812 292.813542 
L 318.033996 292.94038 
L 318.277548 294.637833 
L 318.683467 289.827051 
L 318.764651 289.887864 
L 318.927019 292.232573 
L 319.008203 294.363639 
L 319.089387 293.022528 
L 319.657674 270.320025 
L 319.738858 269.732295 
L 319.820042 57.8611 
L 319.98241 256.341167 
L 320.469514 290.290509 
L 320.550698 292.26882 
L 320.875433 287.071889 
L 321.037801 288.956845 
L 321.281353 293.651929 
L 321.606089 290.332923 
L 321.687273 290.456909 
L 321.849641 292.091266 
L 322.012008 294.134837 
L 322.093192 293.776675 
L 322.336744 291.733644 
L 322.417928 291.720932 
L 322.580296 292.79111 
L 322.742664 294.404253 
L 322.823848 294.241151 
L 323.0674 292.513956 
L 323.148584 292.484317 
L 323.310951 293.23416 
L 323.473319 294.525319 
L 323.554503 294.471908 
L 323.798055 293.021459 
L 323.879239 292.958611 
L 323.960423 293.077885 
L 324.285159 294.665431 
L 324.609894 293.307923 
L 324.691078 293.44245 
L 325.015814 294.757991 
L 325.34055 293.544912 
L 325.502918 293.95422 
L 325.746469 294.89339 
L 326.071205 293.781617 
L 326.233573 294.040868 
L 326.477125 294.951429 
L 326.80186 293.912889 
L 326.883044 293.969906 
L 327.045412 294.558465 
L 327.20778 295.029696 
L 327.532516 294.077601 
L 327.694884 294.29797 
L 327.938436 295.083849 
L 328.263171 294.181028 
L 328.425539 294.340154 
L 328.669091 295.083551 
L 328.993827 294.274507 
L 329.075011 294.32466 
L 329.156195 294.410064 
L 329.399746 295.110811 
L 329.48093 295.011485 
L 329.724482 294.366001 
L 329.88685 294.548889 
L 330.130402 295.18768 
L 330.536321 294.465786 
L 330.861057 295.188144 
L 330.942241 295.066462 
L 331.185793 294.571225 
L 331.348161 294.625299 
L 331.591712 295.182724 
L 331.672896 295.118523 
L 331.916448 294.575962 
L 332.078816 294.687841 
L 332.322368 295.258562 
L 332.403552 295.15836 
L 332.647104 294.647034 
L 332.728288 294.618154 
L 332.890655 294.871075 
L 333.053023 295.260241 
L 333.215391 294.988958 
L 333.458943 294.637407 
L 333.702495 295.096422 
L 333.783679 295.26745 
L 333.864863 295.216481 
L 334.189598 294.703225 
L 334.595518 295.199719 
L 334.83907 294.772713 
L 335.001438 294.828403 
L 335.326173 295.233646 
L 335.650909 294.760253 
L 336.056829 295.257829 
L 336.381564 294.864016 
L 336.543932 294.980183 
L 336.787484 295.271416 
L 337.11222 294.841929 
L 337.274588 295.006887 
L 337.51814 295.249381 
L 337.924059 294.88722 
L 338.248795 295.264657 
L 338.573531 294.874253 
L 338.735899 295.03193 
L 338.97945 295.296976 
L 339.304186 294.925584 
L 339.38537 294.916012 
L 339.710106 295.351769 
L 339.953658 295.004779 
L 340.116025 295.00107 
L 340.440761 295.324329 
L 340.846681 294.972222 
L 341.171416 295.323423 
L 341.577336 294.989718 
L 341.902072 295.372701 
L 341.983256 295.290759 
L 342.226808 294.974141 
L 342.713911 295.264006 
L 342.957463 295.030349 
L 343.038647 295.02287 
L 343.363383 295.424496 
L 343.688118 295.037324 
L 343.850486 295.107113 
L 344.094038 295.408786 
L 344.418774 295.072728 
L 344.581142 295.120449 
L 344.824693 295.38007 
L 344.905877 295.289012 
L 345.230613 295.094847 
L 345.392981 295.20257 
L 345.555349 295.381914 
L 345.717717 295.211785 
L 345.961268 295.078613 
L 346.367188 295.325327 
L 346.691924 295.096499 
L 346.935476 295.334635 
L 347.097844 295.386571 
L 347.341395 295.098797 
L 347.584947 295.281623 
L 347.828499 295.338016 
L 348.153235 295.097982 
L 348.559154 295.399338 
L 348.802706 295.142388 
L 348.965074 295.149606 
L 349.28981 295.376466 
L 349.533362 295.167583 
L 349.695729 295.167421 
L 349.939281 295.444243 
L 350.020465 295.348457 
L 350.345201 295.147904 
L 350.588753 295.307934 
L 350.751121 295.391925 
L 350.994672 295.13692 
L 351.481776 295.376926 
L 351.806512 295.118136 
L 352.212431 295.395477 
L 352.537167 295.154025 
L 353.024271 295.302023 
L 353.349006 295.184617 
L 353.673742 295.423831 
L 353.998478 295.148253 
L 354.404397 295.436009 
L 354.810317 295.184045 
L 355.053869 295.447755 
L 355.216237 295.371073 
L 355.459789 295.233748 
L 355.622156 295.273313 
L 355.946892 295.33284 
L 356.190444 295.208605 
L 356.433996 295.360731 
L 356.596364 295.459583 
L 356.839915 295.240698 
L 357.002283 295.192227 
L 357.245835 295.419722 
L 357.408203 295.345368 
L 357.651755 295.232994 
L 357.814123 295.284461 
L 358.057674 295.432017 
L 358.38241 295.204466 
L 358.869514 295.408549 
L 359.194249 295.240059 
L 359.518985 295.428736 
L 359.924905 295.261389 
L 360.330825 295.383958 
L 360.493192 295.279322 
L 360.899112 295.416167 
L 361.06148 295.417516 
L 361.305032 295.246943 
L 361.792135 295.429461 
L 362.035687 295.242226 
L 362.198055 295.297846 
L 362.441607 295.469002 
L 362.847526 295.246399 
L 363.253446 295.379045 
L 363.74055 295.354326 
L 363.984101 295.4338 
L 364.227653 295.262729 
L 364.795941 295.352532 
L 365.039493 295.30168 
L 365.60778 295.331323 
L 365.851332 295.328708 
L 366.257252 295.35618 
L 366.581987 295.331521 
L 366.906723 295.434992 
L 367.150275 295.298218 
L 367.475011 295.416206 
L 367.637378 295.436502 
L 367.962114 295.297933 
L 368.205666 295.395455 
L 368.368034 295.453773 
L 368.69277 295.304336 
L 368.936321 295.405944 
L 369.098689 295.432447 
L 369.423425 295.304979 
L 369.910529 295.391001 
L 370.316448 295.355488 
L 370.56 295.427816 
L 370.884736 295.283181 
L 371.290655 295.471689 
L 371.534207 295.316454 
L 371.858943 295.432132 
L 372.508414 295.321877 
L 372.670782 295.463487 
L 373.23907 295.354487 
L 373.482622 295.435121 
L 373.807357 295.326264 
L 375.025116 295.416414 
L 375.349852 295.321959 
L 375.755772 295.434201 
L 375.999323 295.329888 
L 376.161691 295.36931 
L 376.486427 295.399733 
L 376.811163 295.326071 
L 377.217082 295.431982 
L 377.541818 295.339405 
L 377.866554 295.472849 
L 378.110106 295.362875 
L 378.678393 295.405244 
L 379.084313 295.377174 
L 379.409049 295.393083 
L 379.896152 295.399942 
L 380.139704 295.37878 
L 383.062326 295.421179 
L 383.305877 295.350155 
L 383.874165 295.388186 
L 385.091924 295.440714 
L 385.254292 295.433737 
L 385.497844 295.336601 
L 385.903763 295.432047 
L 386.472051 295.362278 
L 386.715603 295.432325 
L 387.202706 295.40153 
L 387.446258 295.442188 
L 387.770994 295.360363 
L 388.014545 295.43037 
L 388.339281 295.403777 
L 388.664017 295.392472 
L 388.826385 295.428913 
L 389.069937 295.410495 
L 389.313488 295.363262 
L 389.55704 295.445361 
L 389.96296 295.350398 
L 393.535053 295.287229 
L 393.697421 295.188232 
L 393.859789 295.382194 
L 394.91518 295.416063 
L 394.996364 295.029247 
L 395.158732 295.371651 
L 395.808203 295.392947 
L 396.051755 295.393451 
L 396.214123 295.433808 
L 396.620042 295.372782 
L 397.675433 295.353381 
L 397.756617 295.317919 
L 397.918985 294.678432 
L 398.000169 295.435572 
L 398.081353 295.323745 
L 398.487273 295.357555 
L 398.487273 295.357555 
" style="fill:none;stroke:#1f77b4;stroke-linecap:square;stroke-width:1.5;"/>
   </g>
   <g id="patch_3">
    <path d="M 57.6 307.584 
L 57.6 41.472 
" style="fill:none;stroke:#000000;stroke-linecap:square;stroke-linejoin:miter;stroke-width:0.8;"/>
   </g>
   <g id="patch_4">
    <path d="M 414.72 307.584 
L 414.72 41.472 
" style="fill:none;stroke:#000000;stroke-linecap:square;stroke-linejoin:miter;stroke-width:0.8;"/>
   </g>
   <g id="patch_5">
    <path d="M 57.6 307.584 
L 414.72 307.584 
" style="fill:none;stroke:#000000;stroke-linecap:square;stroke-linejoin:miter;stroke-width:0.8;"/>
   </g>
   <g id="patch_6">
    <path d="M 57.6 41.472 
L 414.72 41.472 
" style="fill:none;stroke:#000000;stroke-linecap:square;stroke-linejoin:miter;stroke-width:0.8;"/>
   </g>
   <g id="text_19">
    <!-- AM frequency domain -->
    <g transform="translate(170.502187 35.472)scale(0.12 -0.12)">
     <defs>
      <path d="M 2188 4044 
L 1331 1722 
L 3047 1722 
L 2188 4044 
z
M 1831 4666 
L 2547 4666 
L 4325 0 
L 3669 0 
L 3244 1197 
L 1141 1197 
L 716 0 
L 50 0 
L 1831 4666 
z
" id="DejaVuSans-41" transform="scale(0.015625)"/>
      <path d="M 628 4666 
L 1569 4666 
L 2759 1491 
L 3956 4666 
L 4897 4666 
L 4897 0 
L 4281 0 
L 4281 4097 
L 3078 897 
L 2444 897 
L 1241 4097 
L 1241 0 
L 628 0 
L 628 4666 
z
" id="DejaVuSans-4d" transform="scale(0.015625)"/>
      <path d="M 1959 3097 
Q 1497 3097 1228 2736 
Q 959 2375 959 1747 
Q 959 1119 1226 758 
Q 1494 397 1959 397 
Q 2419 397 2687 759 
Q 2956 1122 2956 1747 
Q 2956 2369 2687 2733 
Q 2419 3097 1959 3097 
z
M 1959 3584 
Q 2709 3584 3137 3096 
Q 3566 2609 3566 1747 
Q 3566 888 3137 398 
Q 2709 -91 1959 -91 
Q 1206 -91 779 398 
Q 353 888 353 1747 
Q 353 2609 779 3096 
Q 1206 3584 1959 3584 
z
" id="DejaVuSans-6f" transform="scale(0.015625)"/>
     </defs>
     <use xlink:href="#DejaVuSans-41"/>
     <use x="68.408203" xlink:href="#DejaVuSans-4d"/>
     <use x="154.6875" xlink:href="#DejaVuSans-20"/>
     <use x="186.474609" xlink:href="#DejaVuSans-66"/>
     <use x="221.679688" xlink:href="#DejaVuSans-72"/>
     <use x="260.542969" xlink:href="#DejaVuSans-65"/>
     <use x="322.066406" xlink:href="#DejaVuSans-71"/>
     <use x="385.542969" xlink:href="#DejaVuSans-75"/>
     <use x="448.921875" xlink:href="#DejaVuSans-65"/>
     <use x="510.445312" xlink:href="#DejaVuSans-6e"/>
     <use x="573.824219" xlink:href="#DejaVuSans-63"/>
     <use x="628.804688" xlink:href="#DejaVuSans-79"/>
     <use x="687.984375" xlink:href="#DejaVuSans-20"/>
     <use x="719.771484" xlink:href="#DejaVuSans-64"/>
     <use x="783.248047" xlink:href="#DejaVuSans-6f"/>
     <use x="844.429688" xlink:href="#DejaVuSans-6d"/>
     <use x="941.841797" xlink:href="#DejaVuSans-61"/>
     <use x="1003.121094" xlink:href="#DejaVuSans-69"/>
     <use x="1030.904297" xlink:href="#DejaVuSans-6e"/>
    </g>
   </g>
  </g>
 </g>
 <defs>
  <clipPath id="p1ca6feb9fa">
   <rect height="266.112" width="357.12" x="57.6" y="41.472"/>
  </clipPath>
 </defs>
</svg>
