<?xml version="1.0" encoding="utf-8" standalone="no"?>
<!DOCTYPE svg PUBLIC "-//W3C//DTD SVG 1.1//EN"
  "http://www.w3.org/Graphics/SVG/1.1/DTD/svg11.dtd">
<svg height="345.6pt" version="1.1" viewBox="0 0 460.8 345.6" width="460.8pt" xmlns="http://www.w3.org/2000/svg" xmlns:xlink="http://www.w3.org/1999/xlink">
 <metadata>
  <rdf:RDF xmlns:cc="http://creativecommons.org/ns#" xmlns:dc="http://purl.org/dc/elements/1.1/" xmlns:rdf="http://www.w3.org/1999/02/22-rdf-syntax-ns#">
   <cc:Work>
    <dc:type rdf:resource="http://purl.org/dc/dcmitype/StillImage"/>
    <dc:date>2021-12-13T12:13:00.426178</dc:date>
    <dc:format>image/svg+xml</dc:format>
    <dc:creator>
     <cc:Agent>
      <dc:title>Matplotlib v3.4.3, https://matplotlib.org/</dc:title>
     </cc:Agent>
    </dc:creator>
   </cc:Work>
  </rdf:RDF>
 </metadata>
 <defs>
  <style type="text/css">*{stroke-linecap:butt;stroke-linejoin:round;}</style>
 </defs>
 <g id="figure_1">
  <g id="patch_1">
   <path d="M 0 345.6 
L 460.8 345.6 
L 460.8 0 
L 0 0 
z
" style="fill:#ffffff;"/>
  </g>
  <g id="axes_1">
   <g id="patch_2">
    <path d="M 57.6 307.584 
L 414.72 307.584 
L 414.72 41.472 
L 57.6 41.472 
z
" style="fill:#ffffff;"/>
   </g>
   <g id="matplotlib.axis_1">
    <g id="xtick_1">
     <g id="line2d_1">
      <defs>
       <path d="M 0 0 
L 0 3.5 
" id="m09d49f9c63" style="stroke:#000000;stroke-width:0.8;"/>
      </defs>
      <g>
       <use style="stroke:#000000;stroke-width:0.8;" x="73.784017" xlink:href="#m09d49f9c63" y="307.584"/>
      </g>
     </g>
     <g id="text_1">
      <!-- 300 -->
      <g transform="translate(64.240267 322.182437)scale(0.1 -0.1)">
       <defs>
        <path d="M 2597 2516 
Q 3050 2419 3304 2112 
Q 3559 1806 3559 1356 
Q 3559 666 3084 287 
Q 2609 -91 1734 -91 
Q 1441 -91 1130 -33 
Q 819 25 488 141 
L 488 750 
Q 750 597 1062 519 
Q 1375 441 1716 441 
Q 2309 441 2620 675 
Q 2931 909 2931 1356 
Q 2931 1769 2642 2001 
Q 2353 2234 1838 2234 
L 1294 2234 
L 1294 2753 
L 1863 2753 
Q 2328 2753 2575 2939 
Q 2822 3125 2822 3475 
Q 2822 3834 2567 4026 
Q 2313 4219 1838 4219 
Q 1578 4219 1281 4162 
Q 984 4106 628 3988 
L 628 4550 
Q 988 4650 1302 4700 
Q 1616 4750 1894 4750 
Q 2613 4750 3031 4423 
Q 3450 4097 3450 3541 
Q 3450 3153 3228 2886 
Q 3006 2619 2597 2516 
z
" id="DejaVuSans-33" transform="scale(0.015625)"/>
        <path d="M 2034 4250 
Q 1547 4250 1301 3770 
Q 1056 3291 1056 2328 
Q 1056 1369 1301 889 
Q 1547 409 2034 409 
Q 2525 409 2770 889 
Q 3016 1369 3016 2328 
Q 3016 3291 2770 3770 
Q 2525 4250 2034 4250 
z
M 2034 4750 
Q 2819 4750 3233 4129 
Q 3647 3509 3647 2328 
Q 3647 1150 3233 529 
Q 2819 -91 2034 -91 
Q 1250 -91 836 529 
Q 422 1150 422 2328 
Q 422 3509 836 4129 
Q 1250 4750 2034 4750 
z
" id="DejaVuSans-30" transform="scale(0.015625)"/>
       </defs>
       <use xlink:href="#DejaVuSans-33"/>
       <use x="63.623047" xlink:href="#DejaVuSans-30"/>
       <use x="127.246094" xlink:href="#DejaVuSans-30"/>
      </g>
     </g>
    </g>
    <g id="xtick_2">
     <g id="line2d_2">
      <g>
       <use style="stroke:#000000;stroke-width:0.8;" x="114.371924" xlink:href="#m09d49f9c63" y="307.584"/>
      </g>
     </g>
     <g id="text_2">
      <!-- 325 -->
      <g transform="translate(104.828174 322.182437)scale(0.1 -0.1)">
       <defs>
        <path d="M 1228 531 
L 3431 531 
L 3431 0 
L 469 0 
L 469 531 
Q 828 903 1448 1529 
Q 2069 2156 2228 2338 
Q 2531 2678 2651 2914 
Q 2772 3150 2772 3378 
Q 2772 3750 2511 3984 
Q 2250 4219 1831 4219 
Q 1534 4219 1204 4116 
Q 875 4013 500 3803 
L 500 4441 
Q 881 4594 1212 4672 
Q 1544 4750 1819 4750 
Q 2544 4750 2975 4387 
Q 3406 4025 3406 3419 
Q 3406 3131 3298 2873 
Q 3191 2616 2906 2266 
Q 2828 2175 2409 1742 
Q 1991 1309 1228 531 
z
" id="DejaVuSans-32" transform="scale(0.015625)"/>
        <path d="M 691 4666 
L 3169 4666 
L 3169 4134 
L 1269 4134 
L 1269 2991 
Q 1406 3038 1543 3061 
Q 1681 3084 1819 3084 
Q 2600 3084 3056 2656 
Q 3513 2228 3513 1497 
Q 3513 744 3044 326 
Q 2575 -91 1722 -91 
Q 1428 -91 1123 -41 
Q 819 9 494 109 
L 494 744 
Q 775 591 1075 516 
Q 1375 441 1709 441 
Q 2250 441 2565 725 
Q 2881 1009 2881 1497 
Q 2881 1984 2565 2268 
Q 2250 2553 1709 2553 
Q 1456 2553 1204 2497 
Q 953 2441 691 2322 
L 691 4666 
z
" id="DejaVuSans-35" transform="scale(0.015625)"/>
       </defs>
       <use xlink:href="#DejaVuSans-33"/>
       <use x="63.623047" xlink:href="#DejaVuSans-32"/>
       <use x="127.246094" xlink:href="#DejaVuSans-35"/>
      </g>
     </g>
    </g>
    <g id="xtick_3">
     <g id="line2d_3">
      <g>
       <use style="stroke:#000000;stroke-width:0.8;" x="154.959831" xlink:href="#m09d49f9c63" y="307.584"/>
      </g>
     </g>
     <g id="text_3">
      <!-- 350 -->
      <g transform="translate(145.416081 322.182437)scale(0.1 -0.1)">
       <use xlink:href="#DejaVuSans-33"/>
       <use x="63.623047" xlink:href="#DejaVuSans-35"/>
       <use x="127.246094" xlink:href="#DejaVuSans-30"/>
      </g>
     </g>
    </g>
    <g id="xtick_4">
     <g id="line2d_4">
      <g>
       <use style="stroke:#000000;stroke-width:0.8;" x="195.547738" xlink:href="#m09d49f9c63" y="307.584"/>
      </g>
     </g>
     <g id="text_4">
      <!-- 375 -->
      <g transform="translate(186.003988 322.182437)scale(0.1 -0.1)">
       <defs>
        <path d="M 525 4666 
L 3525 4666 
L 3525 4397 
L 1831 0 
L 1172 0 
L 2766 4134 
L 525 4134 
L 525 4666 
z
" id="DejaVuSans-37" transform="scale(0.015625)"/>
       </defs>
       <use xlink:href="#DejaVuSans-33"/>
       <use x="63.623047" xlink:href="#DejaVuSans-37"/>
       <use x="127.246094" xlink:href="#DejaVuSans-35"/>
      </g>
     </g>
    </g>
    <g id="xtick_5">
     <g id="line2d_5">
      <g>
       <use style="stroke:#000000;stroke-width:0.8;" x="236.135645" xlink:href="#m09d49f9c63" y="307.584"/>
      </g>
     </g>
     <g id="text_5">
      <!-- 400 -->
      <g transform="translate(226.591895 322.182437)scale(0.1 -0.1)">
       <defs>
        <path d="M 2419 4116 
L 825 1625 
L 2419 1625 
L 2419 4116 
z
M 2253 4666 
L 3047 4666 
L 3047 1625 
L 3713 1625 
L 3713 1100 
L 3047 1100 
L 3047 0 
L 2419 0 
L 2419 1100 
L 313 1100 
L 313 1709 
L 2253 4666 
z
" id="DejaVuSans-34" transform="scale(0.015625)"/>
       </defs>
       <use xlink:href="#DejaVuSans-34"/>
       <use x="63.623047" xlink:href="#DejaVuSans-30"/>
       <use x="127.246094" xlink:href="#DejaVuSans-30"/>
      </g>
     </g>
    </g>
    <g id="xtick_6">
     <g id="line2d_6">
      <g>
       <use style="stroke:#000000;stroke-width:0.8;" x="276.723552" xlink:href="#m09d49f9c63" y="307.584"/>
      </g>
     </g>
     <g id="text_6">
      <!-- 425 -->
      <g transform="translate(267.179802 322.182437)scale(0.1 -0.1)">
       <use xlink:href="#DejaVuSans-34"/>
       <use x="63.623047" xlink:href="#DejaVuSans-32"/>
       <use x="127.246094" xlink:href="#DejaVuSans-35"/>
      </g>
     </g>
    </g>
    <g id="xtick_7">
     <g id="line2d_7">
      <g>
       <use style="stroke:#000000;stroke-width:0.8;" x="317.311459" xlink:href="#m09d49f9c63" y="307.584"/>
      </g>
     </g>
     <g id="text_7">
      <!-- 450 -->
      <g transform="translate(307.767709 322.182437)scale(0.1 -0.1)">
       <use xlink:href="#DejaVuSans-34"/>
       <use x="63.623047" xlink:href="#DejaVuSans-35"/>
       <use x="127.246094" xlink:href="#DejaVuSans-30"/>
      </g>
     </g>
    </g>
    <g id="xtick_8">
     <g id="line2d_8">
      <g>
       <use style="stroke:#000000;stroke-width:0.8;" x="357.899366" xlink:href="#m09d49f9c63" y="307.584"/>
      </g>
     </g>
     <g id="text_8">
      <!-- 475 -->
      <g transform="translate(348.355616 322.182437)scale(0.1 -0.1)">
       <use xlink:href="#DejaVuSans-34"/>
       <use x="63.623047" xlink:href="#DejaVuSans-37"/>
       <use x="127.246094" xlink:href="#DejaVuSans-35"/>
      </g>
     </g>
    </g>
    <g id="xtick_9">
     <g id="line2d_9">
      <g>
       <use style="stroke:#000000;stroke-width:0.8;" x="398.487273" xlink:href="#m09d49f9c63" y="307.584"/>
      </g>
     </g>
     <g id="text_9">
      <!-- 500 -->
      <g transform="translate(388.943523 322.182437)scale(0.1 -0.1)">
       <use xlink:href="#DejaVuSans-35"/>
       <use x="63.623047" xlink:href="#DejaVuSans-30"/>
       <use x="127.246094" xlink:href="#DejaVuSans-30"/>
      </g>
     </g>
    </g>
    <g id="text_10">
     <!-- time [ms] -->
     <g transform="translate(211.898281 335.860562)scale(0.1 -0.1)">
      <defs>
       <path d="M 1172 4494 
L 1172 3500 
L 2356 3500 
L 2356 3053 
L 1172 3053 
L 1172 1153 
Q 1172 725 1289 603 
Q 1406 481 1766 481 
L 2356 481 
L 2356 0 
L 1766 0 
Q 1100 0 847 248 
Q 594 497 594 1153 
L 594 3053 
L 172 3053 
L 172 3500 
L 594 3500 
L 594 4494 
L 1172 4494 
z
" id="DejaVuSans-74" transform="scale(0.015625)"/>
       <path d="M 603 3500 
L 1178 3500 
L 1178 0 
L 603 0 
L 603 3500 
z
M 603 4863 
L 1178 4863 
L 1178 4134 
L 603 4134 
L 603 4863 
z
" id="DejaVuSans-69" transform="scale(0.015625)"/>
       <path d="M 3328 2828 
Q 3544 3216 3844 3400 
Q 4144 3584 4550 3584 
Q 5097 3584 5394 3201 
Q 5691 2819 5691 2113 
L 5691 0 
L 5113 0 
L 5113 2094 
Q 5113 2597 4934 2840 
Q 4756 3084 4391 3084 
Q 3944 3084 3684 2787 
Q 3425 2491 3425 1978 
L 3425 0 
L 2847 0 
L 2847 2094 
Q 2847 2600 2669 2842 
Q 2491 3084 2119 3084 
Q 1678 3084 1418 2786 
Q 1159 2488 1159 1978 
L 1159 0 
L 581 0 
L 581 3500 
L 1159 3500 
L 1159 2956 
Q 1356 3278 1631 3431 
Q 1906 3584 2284 3584 
Q 2666 3584 2933 3390 
Q 3200 3197 3328 2828 
z
" id="DejaVuSans-6d" transform="scale(0.015625)"/>
       <path d="M 3597 1894 
L 3597 1613 
L 953 1613 
Q 991 1019 1311 708 
Q 1631 397 2203 397 
Q 2534 397 2845 478 
Q 3156 559 3463 722 
L 3463 178 
Q 3153 47 2828 -22 
Q 2503 -91 2169 -91 
Q 1331 -91 842 396 
Q 353 884 353 1716 
Q 353 2575 817 3079 
Q 1281 3584 2069 3584 
Q 2775 3584 3186 3129 
Q 3597 2675 3597 1894 
z
M 3022 2063 
Q 3016 2534 2758 2815 
Q 2500 3097 2075 3097 
Q 1594 3097 1305 2825 
Q 1016 2553 972 2059 
L 3022 2063 
z
" id="DejaVuSans-65" transform="scale(0.015625)"/>
       <path id="DejaVuSans-20" transform="scale(0.015625)"/>
       <path d="M 550 4863 
L 1875 4863 
L 1875 4416 
L 1125 4416 
L 1125 -397 
L 1875 -397 
L 1875 -844 
L 550 -844 
L 550 4863 
z
" id="DejaVuSans-5b" transform="scale(0.015625)"/>
       <path d="M 2834 3397 
L 2834 2853 
Q 2591 2978 2328 3040 
Q 2066 3103 1784 3103 
Q 1356 3103 1142 2972 
Q 928 2841 928 2578 
Q 928 2378 1081 2264 
Q 1234 2150 1697 2047 
L 1894 2003 
Q 2506 1872 2764 1633 
Q 3022 1394 3022 966 
Q 3022 478 2636 193 
Q 2250 -91 1575 -91 
Q 1294 -91 989 -36 
Q 684 19 347 128 
L 347 722 
Q 666 556 975 473 
Q 1284 391 1588 391 
Q 1994 391 2212 530 
Q 2431 669 2431 922 
Q 2431 1156 2273 1281 
Q 2116 1406 1581 1522 
L 1381 1569 
Q 847 1681 609 1914 
Q 372 2147 372 2553 
Q 372 3047 722 3315 
Q 1072 3584 1716 3584 
Q 2034 3584 2315 3537 
Q 2597 3491 2834 3397 
z
" id="DejaVuSans-73" transform="scale(0.015625)"/>
       <path d="M 1947 4863 
L 1947 -844 
L 622 -844 
L 622 -397 
L 1369 -397 
L 1369 4416 
L 622 4416 
L 622 4863 
L 1947 4863 
z
" id="DejaVuSans-5d" transform="scale(0.015625)"/>
      </defs>
      <use xlink:href="#DejaVuSans-74"/>
      <use x="39.208984" xlink:href="#DejaVuSans-69"/>
      <use x="66.992188" xlink:href="#DejaVuSans-6d"/>
      <use x="164.404297" xlink:href="#DejaVuSans-65"/>
      <use x="225.927734" xlink:href="#DejaVuSans-20"/>
      <use x="257.714844" xlink:href="#DejaVuSans-5b"/>
      <use x="296.728516" xlink:href="#DejaVuSans-6d"/>
      <use x="394.140625" xlink:href="#DejaVuSans-73"/>
      <use x="446.240234" xlink:href="#DejaVuSans-5d"/>
     </g>
    </g>
   </g>
   <g id="matplotlib.axis_2">
    <g id="ytick_1">
     <g id="line2d_10">
      <defs>
       <path d="M 0 0 
L -3.5 0 
" id="mce00e6e1bd" style="stroke:#000000;stroke-width:0.8;"/>
      </defs>
      <g>
       <use style="stroke:#000000;stroke-width:0.8;" x="57.6" xlink:href="#mce00e6e1bd" y="305.387548"/>
      </g>
     </g>
     <g id="text_11">
      <!-- $\mathdefault{−2.0}$ -->
      <g transform="translate(26.3 309.186766)scale(0.1 -0.1)">
       <defs>
        <path d="M 678 2272 
L 4684 2272 
L 4684 1741 
L 678 1741 
L 678 2272 
z
" id="DejaVuSans-2212" transform="scale(0.015625)"/>
        <path d="M 684 794 
L 1344 794 
L 1344 0 
L 684 0 
L 684 794 
z
" id="DejaVuSans-2e" transform="scale(0.015625)"/>
       </defs>
       <use transform="translate(0 0.78125)" xlink:href="#DejaVuSans-2212"/>
       <use transform="translate(83.789062 0.78125)" xlink:href="#DejaVuSans-32"/>
       <use transform="translate(147.412109 0.78125)" xlink:href="#DejaVuSans-2e"/>
       <use transform="translate(179.199219 0.78125)" xlink:href="#DejaVuSans-30"/>
      </g>
     </g>
    </g>
    <g id="ytick_2">
     <g id="line2d_11">
      <g>
       <use style="stroke:#000000;stroke-width:0.8;" x="57.6" xlink:href="#mce00e6e1bd" y="274.277727"/>
      </g>
     </g>
     <g id="text_12">
      <!-- $\mathdefault{−1.5}$ -->
      <g transform="translate(26.3 278.076946)scale(0.1 -0.1)">
       <defs>
        <path d="M 794 531 
L 1825 531 
L 1825 4091 
L 703 3866 
L 703 4441 
L 1819 4666 
L 2450 4666 
L 2450 531 
L 3481 531 
L 3481 0 
L 794 0 
L 794 531 
z
" id="DejaVuSans-31" transform="scale(0.015625)"/>
       </defs>
       <use transform="translate(0 0.09375)" xlink:href="#DejaVuSans-2212"/>
       <use transform="translate(83.789062 0.09375)" xlink:href="#DejaVuSans-31"/>
       <use transform="translate(147.412109 0.09375)" xlink:href="#DejaVuSans-2e"/>
       <use transform="translate(179.199219 0.09375)" xlink:href="#DejaVuSans-35"/>
      </g>
     </g>
    </g>
    <g id="ytick_3">
     <g id="line2d_12">
      <g>
       <use style="stroke:#000000;stroke-width:0.8;" x="57.6" xlink:href="#mce00e6e1bd" y="243.167907"/>
      </g>
     </g>
     <g id="text_13">
      <!-- $\mathdefault{−1.0}$ -->
      <g transform="translate(26.3 246.967125)scale(0.1 -0.1)">
       <use transform="translate(0 0.78125)" xlink:href="#DejaVuSans-2212"/>
       <use transform="translate(83.789062 0.78125)" xlink:href="#DejaVuSans-31"/>
       <use transform="translate(147.412109 0.78125)" xlink:href="#DejaVuSans-2e"/>
       <use transform="translate(179.199219 0.78125)" xlink:href="#DejaVuSans-30"/>
      </g>
     </g>
    </g>
    <g id="ytick_4">
     <g id="line2d_13">
      <g>
       <use style="stroke:#000000;stroke-width:0.8;" x="57.6" xlink:href="#mce00e6e1bd" y="212.058086"/>
      </g>
     </g>
     <g id="text_14">
      <!-- $\mathdefault{−0.5}$ -->
      <g transform="translate(26.3 215.857305)scale(0.1 -0.1)">
       <use transform="translate(0 0.78125)" xlink:href="#DejaVuSans-2212"/>
       <use transform="translate(83.789062 0.78125)" xlink:href="#DejaVuSans-30"/>
       <use transform="translate(147.412109 0.78125)" xlink:href="#DejaVuSans-2e"/>
       <use transform="translate(179.199219 0.78125)" xlink:href="#DejaVuSans-35"/>
      </g>
     </g>
    </g>
    <g id="ytick_5">
     <g id="line2d_14">
      <g>
       <use style="stroke:#000000;stroke-width:0.8;" x="57.6" xlink:href="#mce00e6e1bd" y="180.948266"/>
      </g>
     </g>
     <g id="text_15">
      <!-- $\mathdefault{0.0}$ -->
      <g transform="translate(34.6 184.747484)scale(0.1 -0.1)">
       <use transform="translate(0 0.78125)" xlink:href="#DejaVuSans-30"/>
       <use transform="translate(63.623047 0.78125)" xlink:href="#DejaVuSans-2e"/>
       <use transform="translate(95.410156 0.78125)" xlink:href="#DejaVuSans-30"/>
      </g>
     </g>
    </g>
    <g id="ytick_6">
     <g id="line2d_15">
      <g>
       <use style="stroke:#000000;stroke-width:0.8;" x="57.6" xlink:href="#mce00e6e1bd" y="149.838445"/>
      </g>
     </g>
     <g id="text_16">
      <!-- $\mathdefault{0.5}$ -->
      <g transform="translate(34.6 153.637664)scale(0.1 -0.1)">
       <use transform="translate(0 0.78125)" xlink:href="#DejaVuSans-30"/>
       <use transform="translate(63.623047 0.78125)" xlink:href="#DejaVuSans-2e"/>
       <use transform="translate(95.410156 0.78125)" xlink:href="#DejaVuSans-35"/>
      </g>
     </g>
    </g>
    <g id="ytick_7">
     <g id="line2d_16">
      <g>
       <use style="stroke:#000000;stroke-width:0.8;" x="57.6" xlink:href="#mce00e6e1bd" y="118.728625"/>
      </g>
     </g>
     <g id="text_17">
      <!-- $\mathdefault{1.0}$ -->
      <g transform="translate(34.6 122.527843)scale(0.1 -0.1)">
       <use transform="translate(0 0.78125)" xlink:href="#DejaVuSans-31"/>
       <use transform="translate(63.623047 0.78125)" xlink:href="#DejaVuSans-2e"/>
       <use transform="translate(95.410156 0.78125)" xlink:href="#DejaVuSans-30"/>
      </g>
     </g>
    </g>
    <g id="ytick_8">
     <g id="line2d_17">
      <g>
       <use style="stroke:#000000;stroke-width:0.8;" x="57.6" xlink:href="#mce00e6e1bd" y="87.618804"/>
      </g>
     </g>
     <g id="text_18">
      <!-- $\mathdefault{1.5}$ -->
      <g transform="translate(34.6 91.418023)scale(0.1 -0.1)">
       <use transform="translate(0 0.09375)" xlink:href="#DejaVuSans-31"/>
       <use transform="translate(63.623047 0.09375)" xlink:href="#DejaVuSans-2e"/>
       <use transform="translate(95.410156 0.09375)" xlink:href="#DejaVuSans-35"/>
      </g>
     </g>
    </g>
    <g id="ytick_9">
     <g id="line2d_18">
      <g>
       <use style="stroke:#000000;stroke-width:0.8;" x="57.6" xlink:href="#mce00e6e1bd" y="56.508984"/>
      </g>
     </g>
     <g id="text_19">
      <!-- $\mathdefault{2.0}$ -->
      <g transform="translate(34.6 60.308202)scale(0.1 -0.1)">
       <use transform="translate(0 0.78125)" xlink:href="#DejaVuSans-32"/>
       <use transform="translate(63.623047 0.78125)" xlink:href="#DejaVuSans-2e"/>
       <use transform="translate(95.410156 0.78125)" xlink:href="#DejaVuSans-30"/>
      </g>
     </g>
    </g>
   </g>
   <g id="line2d_19">
    <path clip-path="url(#pfb5e31c58b)" d="M 73.832727 170.270336 
L 74.157463 242.020511 
L 74.319831 251.978974 
L 74.401015 251.074153 
L 74.725751 239.066068 
L 74.806934 239.093336 
L 74.969302 243.691756 
L 75.212854 251.633491 
L 75.294038 252.116575 
L 75.456406 249.412728 
L 75.781142 241.960202 
L 75.862326 241.748393 
L 76.105877 242.980111 
L 76.187061 242.696142 
L 76.349429 239.661507 
L 76.998901 222.292971 
L 77.242452 217.095507 
L 80.002706 124.860093 
L 80.895729 108.349418 
L 81.139281 107.165657 
L 81.626385 104.017874 
L 81.788753 104.929923 
L 82.600592 114.37147 
L 83.168879 128.448905 
L 83.737167 144.284775 
L 85.523214 205.056236 
L 86.253869 226.10153 
L 87.146892 242.058839 
L 87.633996 244.804381 
L 87.877548 245.449126 
L 88.039915 244.926827 
L 88.364651 241.843926 
L 88.932939 234.155815 
L 89.501226 220.257205 
L 90.231882 198.699245 
L 92.26148 133.686932 
L 92.910951 119.647716 
L 93.398055 112.537866 
L 93.722791 110.59355 
L 94.047526 109.742541 
L 94.12871 109.786033 
L 94.291078 110.362492 
L 94.53463 112.407351 
L 95.021734 118.651307 
L 95.427653 126.669064 
L 96.239493 148.207569 
L 98.837378 227.486664 
L 99.48685 238.718029 
L 99.811586 241.582434 
L 100.217505 243.159989 
L 100.379873 243.335658 
L 100.542241 242.932337 
L 100.785793 241.053963 
L 101.35408 233.953067 
L 101.76 225.953902 
L 102.734207 199.320215 
L 104.682622 139.820473 
L 105.250909 127.577653 
L 105.900381 118.150443 
L 106.225116 116.307661 
L 106.468668 115.911341 
L 106.631036 115.979143 
L 106.793404 116.467464 
L 107.036956 118.260926 
L 107.524059 124.452574 
L 107.929979 131.749866 
L 108.741818 152.344642 
L 110.203129 197.725465 
L 111.014968 219.650353 
L 111.66444 233.059798 
L 112.151543 239.559708 
L 112.476279 241.528023 
L 112.719831 241.832073 
L 112.882199 241.658512 
L 113.125751 240.755005 
L 113.450486 237.992491 
L 113.93759 231.277057 
L 114.424693 221.095889 
L 115.480085 192.465451 
L 117.184947 144.017528 
L 117.834419 130.775163 
L 118.402706 123.894547 
L 118.727442 121.712223 
L 118.88981 121.366804 
L 119.052178 121.477169 
L 119.295729 122.342322 
L 119.620465 124.747894 
L 120.026385 129.739764 
L 120.513488 138.514031 
L 121.406512 160.74666 
L 123.760846 224.462998 
L 124.410317 234.795071 
L 124.816237 238.652965 
L 125.059789 239.578827 
L 125.222156 239.655376 
L 125.384524 239.392511 
L 125.628076 238.402261 
L 125.952812 235.742528 
L 126.439915 229.089701 
L 127.008203 217.854408 
L 127.98241 192.787051 
L 129.524905 150.895746 
L 130.25556 136.262224 
L 130.823848 129.154148 
L 131.148584 126.828438 
L 131.392135 126.276962 
L 131.554503 126.412681 
L 131.798055 127.1848 
L 132.041607 128.70227 
L 132.366342 132.173541 
L 132.93463 140.866123 
L 133.502918 153.254883 
L 135.126596 196.133281 
L 136.100803 219.411739 
L 136.831459 231.384224 
L 137.237378 234.966769 
L 137.562114 236.160565 
L 137.724482 236.208101 
L 137.88685 235.915724 
L 138.130402 234.918924 
L 138.455137 232.53025 
L 138.861057 227.452718 
L 139.510529 215.518179 
L 140.322368 196.381428 
L 142.189598 149.508301 
L 142.920254 137.347276 
L 143.407357 132.221283 
L 143.732093 130.599706 
L 143.894461 130.384228 
L 144.056829 130.525983 
L 144.300381 131.325525 
L 144.625116 133.491382 
L 145.031036 137.964011 
L 145.51814 145.588735 
L 146.411163 164.71372 
L 148.927865 222.059686 
L 149.414968 228.126869 
L 149.902072 231.431769 
L 150.145624 231.954105 
L 150.307992 231.822588 
L 150.551543 231.084157 
L 150.876279 229.123467 
L 151.201015 225.500918 
L 152.012854 212.492045 
L 152.824693 194.466558 
L 154.935476 146.724223 
L 155.503763 138.883271 
L 155.990867 134.968029 
L 156.315603 133.581542 
L 156.47797 133.487959 
L 156.640338 133.854439 
L 156.965074 135.560403 
L 157.370994 138.779222 
L 157.776913 143.922599 
L 158.507569 156.851029 
L 159.644144 182.683758 
L 160.943087 210.564031 
L 161.592558 220.419385 
L 162.079662 224.665387 
L 162.485581 226.858243 
L 162.647949 227.093605 
L 162.810317 226.855229 
L 163.135053 225.413705 
L 163.540973 222.626906 
L 163.946892 217.884457 
L 164.596364 207.243756 
L 165.732939 182.928027 
L 166.869514 158.375679 
L 167.518985 147.534072 
L 168.168457 139.810824 
L 168.574376 137.444583 
L 168.899112 136.694077 
L 169.06148 136.794955 
L 169.305032 137.623698 
L 169.710951 140.17329 
L 170.116871 144.285716 
L 170.847526 155.484261 
L 171.496998 168.328886 
L 173.283044 204.627814 
L 173.932516 214.284915 
L 174.500803 219.844231 
L 174.906723 221.818059 
L 175.150275 222.081949 
L 175.312643 221.829887 
L 175.556195 220.895173 
L 176.043298 217.846407 
L 176.449218 213.481505 
L 177.342241 199.604705 
L 178.478816 176.569253 
L 179.534207 156.811555 
L 180.102495 148.809351 
L 180.751966 142.225431 
L 181.076702 141.042421 
L 181.401438 140.759595 
L 181.563805 140.766114 
L 181.726173 140.9992 
L 181.969725 141.992381 
L 182.375645 145.069681 
L 182.862748 150.512425 
L 183.674588 163.121872 
L 184.811163 185.109258 
L 185.947738 204.645956 
L 186.597209 212.397105 
L 187.084313 216.032628 
L 187.490233 217.324005 
L 187.733784 217.564072 
L 187.896152 217.366498 
L 188.139704 216.382528 
L 188.707992 212.396791 
L 189.113911 208.122725 
L 190.006934 194.385379 
L 192.523636 152.735344 
L 193.254292 146.28476 
L 193.579027 144.82988 
L 193.822579 144.55415 
L 193.984947 144.641204 
L 194.228499 145.157068 
L 194.553235 146.751885 
L 195.121522 151.27233 
L 195.608626 156.841705 
L 196.420465 169.337216 
L 198.206512 198.795148 
L 199.099535 209.331239 
L 199.667822 212.70794 
L 199.911374 213.406661 
L 200.073742 213.494103 
L 200.317294 213.236947 
L 200.64203 212.47451 
L 200.966765 210.886101 
L 201.453869 206.767943 
L 202.022156 200.131599 
L 203.077548 183.976218 
L 204.37649 163.869597 
L 204.944778 157.020378 
L 205.675433 150.981683 
L 206.000169 149.81885 
L 206.324905 149.53543 
L 206.568457 149.551209 
L 206.730825 149.76953 
L 206.974376 150.66371 
L 207.380296 153.483294 
L 208.029767 159.518366 
L 208.841607 170.404346 
L 211.277125 203.669252 
L 211.926596 208.303861 
L 212.332516 209.928647 
L 212.494884 210.084427 
L 212.657252 210.013537 
L 212.981987 209.492757 
L 213.306723 208.491498 
L 213.631459 206.694482 
L 214.118562 202.443261 
L 215.011586 191.945652 
L 217.284736 162.462743 
L 217.771839 158.220485 
L 218.340127 155.395615 
L 218.664863 154.5606 
L 218.82723 154.538681 
L 219.070782 154.856828 
L 219.395518 155.67884 
L 219.720254 157.18399 
L 220.288541 161.207706 
L 220.775645 165.959925 
L 221.993404 181.22988 
L 223.292347 196.669827 
L 224.104186 203.730452 
L 224.59129 205.683263 
L 224.916025 206.424561 
L 225.078393 206.452141 
L 225.321945 206.162664 
L 225.727865 205.344166 
L 225.971416 204.350394 
L 226.45852 200.909455 
L 227.107992 195.14026 
L 230.030613 163.875502 
L 230.517717 160.975073 
L 231.00482 159.515372 
L 231.329556 158.899771 
L 231.491924 158.890812 
L 231.654292 159.162435 
L 231.979027 160.403474 
L 232.790867 164.940979 
L 233.27797 168.962306 
L 234.658097 183.515677 
L 235.95704 195.974233 
L 236.525328 199.592388 
L 237.174799 202.136021 
L 237.418351 202.511556 
L 237.580719 202.369753 
L 238.473742 200.497466 
L 238.798478 198.594444 
L 239.772685 191.059661 
L 242.370571 167.874488 
L 243.101226 164.211413 
L 243.425962 163.725172 
L 243.913066 163.40943 
L 244.075433 163.571301 
L 244.400169 164.355758 
L 244.968457 166.181842 
L 245.45556 169.083161 
L 246.2674 175.184056 
L 247.972262 189.296818 
L 248.784101 194.658005 
L 249.271205 196.549895 
L 249.677125 197.163138 
L 250.164228 197.655408 
L 250.326596 197.546679 
L 250.570148 196.965443 
L 251.381987 193.958547 
L 251.950275 190.755282 
L 252.843298 184.081478 
L 254.791712 170.897755 
L 255.441184 168.235342 
L 255.76592 167.537567 
L 256.171839 167.255751 
L 256.496575 167.238386 
L 256.740127 167.501011 
L 257.146047 168.418188 
L 257.63315 169.909805 
L 258.120254 172.311203 
L 259.256829 179.349818 
L 260.149852 184.964166 
L 261.286427 190.287076 
L 262.017082 192.063044 
L 262.423002 192.676193 
L 262.58537 192.645684 
L 262.828922 192.254121 
L 263.884313 189.645462 
L 265.670359 180.884628 
L 266.644567 175.626267 
L 267.456406 172.620654 
L 268.187061 170.937102 
L 268.836533 170.443232 
L 268.998901 170.419984 
L 269.161268 170.578631 
L 270.054292 172.370738 
L 270.379027 173.65986 
L 270.947315 175.933248 
L 271.434419 177.939876 
L 272.408626 182.054762 
L 273.301649 185.161314 
L 273.707569 186.148438 
L 274.76296 187.321848 
L 275.331247 187.452103 
L 275.493615 187.256533 
L 275.899535 186.14845 
L 276.305455 185.390806 
L 276.63019 184.846479 
L 277.279662 182.911755 
L 279.796364 175.75729 
L 280.689387 174.69918 
L 280.932939 174.682662 
L 281.907146 175.138982 
L 283.530825 178.019306 
L 284.505032 179.955225 
L 284.829767 180.66156 
L 285.316871 181.747504 
L 286.047526 182.351417 
L 286.615814 182.997272 
L 287.021734 183.279952 
L 287.265285 183.176314 
L 287.752389 182.842445 
L 288.158309 182.724403 
L 288.80778 182.163762 
L 289.051332 182.060046 
L 289.294884 181.664743 
L 289.781987 180.817732 
L 290.350275 180.438912 
L 290.837378 179.93667 
L 291.243298 179.650111 
L 291.730402 179.156856 
L 292.055137 179.227633 
L 292.379873 179.238082 
L 292.948161 179.099045 
L 293.516448 179.369842 
L 294.815391 179.975014 
L 295.302495 180.08503 
L 295.789598 180.261005 
L 296.195518 180.306357 
L 296.844989 180.797359 
L 297.494461 180.433318 
L 297.819197 180.401795 
L 298.549852 180.049563 
L 298.793404 179.912332 
L 299.361691 179.401026 
L 299.767611 179.275692 
L 300.173531 178.964862 
L 300.417082 179.16773 
L 300.741818 179.47412 
L 300.98537 179.319762 
L 301.228922 179.142916 
L 301.472474 179.286603 
L 301.797209 179.578657 
L 302.365497 179.693916 
L 303.177336 180.826992 
L 303.502072 181.147081 
L 304.557463 182.683005 
L 304.882199 183.051391 
L 305.612854 184.351892 
L 306.099958 184.324526 
L 306.587061 184.859862 
L 306.830613 184.70535 
L 307.074165 184.571591 
L 307.642452 184.633713 
L 308.291924 183.780302 
L 308.535476 183.687467 
L 308.779027 183.149668 
L 309.347315 181.528664 
L 309.753235 180.772911 
L 310.402706 179.261315 
L 310.727442 178.606331 
L 311.376913 176.983022 
L 312.513488 176.003236 
L 313.16296 175.946022 
L 313.406512 176.06383 
L 313.731247 176.576602 
L 315.03019 179.570653 
L 315.84203 182.70288 
L 316.247949 184.063512 
L 316.653869 185.006297 
L 317.546892 187.965736 
L 317.871628 188.850547 
L 318.277548 189.893819 
L 318.521099 189.988706 
L 318.845835 190.115572 
L 319.170571 190.246265 
L 319.414123 189.939485 
L 319.820042 189.346634 
L 320.144778 189.065713 
L 320.38833 188.474844 
L 321.362537 184.925625 
L 322.012008 182.175366 
L 322.580296 179.796856 
L 323.798055 174.708559 
L 324.203975 173.583283 
L 324.609894 172.596829 
L 324.772262 172.599383 
L 325.096998 172.774551 
L 325.34055 172.606827 
L 325.584101 172.465423 
L 325.746469 172.612496 
L 326.071205 173.407997 
L 326.883044 175.974289 
L 327.776068 180.379738 
L 330.211586 192.774271 
L 330.861057 194.618212 
L 331.104609 194.792596 
L 331.75408 194.901252 
L 331.997632 194.525327 
L 332.728288 192.658303 
L 333.783679 187.221143 
L 335.813277 174.03616 
L 336.787484 168.951906 
L 337.11222 168.217191 
L 337.355772 168.114038 
L 337.680507 168.122098 
L 338.086427 168.027114 
L 338.248795 168.311881 
L 338.817082 170.259024 
L 339.141818 171.604846 
L 339.953658 176.999757 
L 340.684313 182.324887 
L 342.632727 195.867504 
L 343.201015 197.892595 
L 343.525751 198.844036 
L 343.688118 198.761029 
L 344.012854 198.365657 
L 344.418774 198.439094 
L 344.581142 197.985614 
L 345.555349 193.042555 
L 346.773108 182.831088 
L 347.503763 176.406308 
L 348.234419 170.508966 
L 349.370994 163.976875 
L 349.858097 162.448434 
L 350.020465 162.521778 
L 350.345201 162.916282 
L 350.751121 163.009851 
L 350.913488 163.62518 
L 352.050063 170.753356 
L 353.673742 185.600053 
L 355.135053 198.535021 
L 355.378605 199.437379 
L 355.622156 199.720109 
L 355.865708 200.91935 
L 356.10926 202.22466 
L 356.190444 202.314145 
L 356.352812 201.842457 
L 356.677548 200.398232 
L 356.758732 200.383184 
L 357.083467 200.826136 
L 357.245835 200.06389 
L 357.814123 195.528895 
L 357.97649 195.13919 
L 358.138858 194.064248 
L 358.869514 186.206718 
L 359.031882 185.525972 
L 359.194249 183.553756 
L 359.681353 175.595856 
L 359.843721 175.305231 
L 359.924905 175.237699 
L 360.087273 174.125328 
L 360.412008 167.206772 
L 360.65556 164.420761 
L 360.817928 165.502755 
L 360.980296 166.544146 
L 361.06148 166.121725 
L 361.223848 162.650126 
L 361.548584 154.357045 
L 361.629767 154.872785 
L 361.873319 163.054924 
L 362.035687 166.183943 
L 362.116871 163.9665 
L 362.279239 148.822672 
L 362.92871 53.568 
L 363.009894 53.9075 
L 363.253446 67.008007 
L 363.496998 77.927918 
L 363.659366 79.405661 
L 363.74055 79.563394 
L 363.821734 80.149225 
L 363.984101 84.281167 
L 365.039493 137.111745 
L 366.338436 216.032009 
L 367.069091 252.022808 
L 367.556195 273.019894 
L 368.449218 294.704234 
L 368.611586 295.313662 
L 368.936321 295.412346 
L 369.098689 295.448733 
L 369.261057 294.512532 
L 369.504609 289.982023 
L 370.316448 266.016255 
L 371.128288 226.948052 
L 371.777759 188.548942 
L 373.482622 96.199248 
L 373.969725 77.964669 
L 374.700381 61.448028 
L 374.943932 60.146143 
L 375.1063 60.262667 
L 375.349852 60.732688 
L 375.51222 61.618059 
L 375.755772 65.381228 
L 376.324059 81.81435 
L 376.729979 96.405661 
L 377.704186 146.507024 
L 379.490233 246.16227 
L 380.302072 278.024348 
L 380.951543 291.789496 
L 381.195095 293.343378 
L 381.276279 293.247825 
L 381.519831 292.13515 
L 381.844567 289.651371 
L 382.088118 285.246638 
L 382.656406 267.853994 
L 383.062326 252.191073 
L 384.198901 191.112496 
L 385.497844 116.797098 
L 386.472051 76.08427 
L 387.040338 63.972547 
L 387.365074 59.135173 
L 387.446258 58.810534 
L 387.527442 58.875643 
L 387.770994 60.495453 
L 388.258097 65.105309 
L 388.501649 70.975543 
L 389.394672 103.411366 
L 390.612431 170.532432 
L 391.505455 220.884142 
L 392.073742 248.731154 
L 392.966765 280.704509 
L 393.778605 292.225918 
L 393.940973 290.82203 
L 394.346892 286.333074 
L 394.50926 285.103197 
L 394.671628 282.300409 
L 394.996364 270.233818 
L 395.483467 254.24304 
L 395.727019 243.735673 
L 396.457674 205.522261 
L 396.701226 192.482967 
L 397.269514 154.791327 
L 397.513066 149.022321 
L 397.675433 139.345413 
L 398.162537 98.683718 
L 398.324905 113.268925 
L 398.487273 148.32907 
L 398.487273 148.32907 
" style="fill:none;stroke:#1f77b4;stroke-linecap:square;stroke-width:1.5;"/>
   </g>
   <g id="patch_3">
    <path d="M 57.6 307.584 
L 57.6 41.472 
" style="fill:none;stroke:#000000;stroke-linecap:square;stroke-linejoin:miter;stroke-width:0.8;"/>
   </g>
   <g id="patch_4">
    <path d="M 414.72 307.584 
L 414.72 41.472 
" style="fill:none;stroke:#000000;stroke-linecap:square;stroke-linejoin:miter;stroke-width:0.8;"/>
   </g>
   <g id="patch_5">
    <path d="M 57.6 307.584 
L 414.72 307.584 
" style="fill:none;stroke:#000000;stroke-linecap:square;stroke-linejoin:miter;stroke-width:0.8;"/>
   </g>
   <g id="patch_6">
    <path d="M 57.6 41.472 
L 414.72 41.472 
" style="fill:none;stroke:#000000;stroke-linecap:square;stroke-linejoin:miter;stroke-width:0.8;"/>
   </g>
   <g id="text_20">
    <!-- demodulated data -->
    <g transform="translate(180.913125 35.472)scale(0.12 -0.12)">
     <defs>
      <path d="M 2906 2969 
L 2906 4863 
L 3481 4863 
L 3481 0 
L 2906 0 
L 2906 525 
Q 2725 213 2448 61 
Q 2172 -91 1784 -91 
Q 1150 -91 751 415 
Q 353 922 353 1747 
Q 353 2572 751 3078 
Q 1150 3584 1784 3584 
Q 2172 3584 2448 3432 
Q 2725 3281 2906 2969 
z
M 947 1747 
Q 947 1113 1208 752 
Q 1469 391 1925 391 
Q 2381 391 2643 752 
Q 2906 1113 2906 1747 
Q 2906 2381 2643 2742 
Q 2381 3103 1925 3103 
Q 1469 3103 1208 2742 
Q 947 2381 947 1747 
z
" id="DejaVuSans-64" transform="scale(0.015625)"/>
      <path d="M 1959 3097 
Q 1497 3097 1228 2736 
Q 959 2375 959 1747 
Q 959 1119 1226 758 
Q 1494 397 1959 397 
Q 2419 397 2687 759 
Q 2956 1122 2956 1747 
Q 2956 2369 2687 2733 
Q 2419 3097 1959 3097 
z
M 1959 3584 
Q 2709 3584 3137 3096 
Q 3566 2609 3566 1747 
Q 3566 888 3137 398 
Q 2709 -91 1959 -91 
Q 1206 -91 779 398 
Q 353 888 353 1747 
Q 353 2609 779 3096 
Q 1206 3584 1959 3584 
z
" id="DejaVuSans-6f" transform="scale(0.015625)"/>
      <path d="M 544 1381 
L 544 3500 
L 1119 3500 
L 1119 1403 
Q 1119 906 1312 657 
Q 1506 409 1894 409 
Q 2359 409 2629 706 
Q 2900 1003 2900 1516 
L 2900 3500 
L 3475 3500 
L 3475 0 
L 2900 0 
L 2900 538 
Q 2691 219 2414 64 
Q 2138 -91 1772 -91 
Q 1169 -91 856 284 
Q 544 659 544 1381 
z
M 1991 3584 
L 1991 3584 
z
" id="DejaVuSans-75" transform="scale(0.015625)"/>
      <path d="M 603 4863 
L 1178 4863 
L 1178 0 
L 603 0 
L 603 4863 
z
" id="DejaVuSans-6c" transform="scale(0.015625)"/>
      <path d="M 2194 1759 
Q 1497 1759 1228 1600 
Q 959 1441 959 1056 
Q 959 750 1161 570 
Q 1363 391 1709 391 
Q 2188 391 2477 730 
Q 2766 1069 2766 1631 
L 2766 1759 
L 2194 1759 
z
M 3341 1997 
L 3341 0 
L 2766 0 
L 2766 531 
Q 2569 213 2275 61 
Q 1981 -91 1556 -91 
Q 1019 -91 701 211 
Q 384 513 384 1019 
Q 384 1609 779 1909 
Q 1175 2209 1959 2209 
L 2766 2209 
L 2766 2266 
Q 2766 2663 2505 2880 
Q 2244 3097 1772 3097 
Q 1472 3097 1187 3025 
Q 903 2953 641 2809 
L 641 3341 
Q 956 3463 1253 3523 
Q 1550 3584 1831 3584 
Q 2591 3584 2966 3190 
Q 3341 2797 3341 1997 
z
" id="DejaVuSans-61" transform="scale(0.015625)"/>
     </defs>
     <use xlink:href="#DejaVuSans-64"/>
     <use x="63.476562" xlink:href="#DejaVuSans-65"/>
     <use x="125" xlink:href="#DejaVuSans-6d"/>
     <use x="222.412109" xlink:href="#DejaVuSans-6f"/>
     <use x="283.59375" xlink:href="#DejaVuSans-64"/>
     <use x="347.070312" xlink:href="#DejaVuSans-75"/>
     <use x="410.449219" xlink:href="#DejaVuSans-6c"/>
     <use x="438.232422" xlink:href="#DejaVuSans-61"/>
     <use x="499.511719" xlink:href="#DejaVuSans-74"/>
     <use x="538.720703" xlink:href="#DejaVuSans-65"/>
     <use x="600.244141" xlink:href="#DejaVuSans-64"/>
     <use x="663.720703" xlink:href="#DejaVuSans-20"/>
     <use x="695.507812" xlink:href="#DejaVuSans-64"/>
     <use x="758.984375" xlink:href="#DejaVuSans-61"/>
     <use x="820.263672" xlink:href="#DejaVuSans-74"/>
     <use x="859.472656" xlink:href="#DejaVuSans-61"/>
    </g>
   </g>
  </g>
 </g>
 <defs>
  <clipPath id="pfb5e31c58b">
   <rect height="266.112" width="357.12" x="57.6" y="41.472"/>
  </clipPath>
 </defs>
</svg>
