<?xml version="1.0" encoding="utf-8" standalone="no"?>
<!DOCTYPE svg PUBLIC "-//W3C//DTD SVG 1.1//EN"
  "http://www.w3.org/Graphics/SVG/1.1/DTD/svg11.dtd">
<svg height="345.6pt" version="1.1" viewBox="0 0 460.8 345.6" width="460.8pt" xmlns="http://www.w3.org/2000/svg" xmlns:xlink="http://www.w3.org/1999/xlink">
 <metadata>
  <rdf:RDF xmlns:cc="http://creativecommons.org/ns#" xmlns:dc="http://purl.org/dc/elements/1.1/" xmlns:rdf="http://www.w3.org/1999/02/22-rdf-syntax-ns#">
   <cc:Work>
    <dc:type rdf:resource="http://purl.org/dc/dcmitype/StillImage"/>
    <dc:date>2021-11-04T01:54:32.125077</dc:date>
    <dc:format>image/svg+xml</dc:format>
    <dc:creator>
     <cc:Agent>
      <dc:title>Matplotlib v3.4.3, https://matplotlib.org/</dc:title>
     </cc:Agent>
    </dc:creator>
   </cc:Work>
  </rdf:RDF>
 </metadata>
 <defs>
  <style type="text/css">*{stroke-linecap:butt;stroke-linejoin:round;}</style>
 </defs>
 <g id="figure_1">
  <g id="patch_1">
   <path d="M 0 345.6 
L 460.8 345.6 
L 460.8 0 
L 0 0 
z
" style="fill:#ffffff;"/>
  </g>
  <g id="axes_1">
   <g id="patch_2">
    <path d="M 57.6 307.584 
L 414.72 307.584 
L 414.72 41.472 
L 57.6 41.472 
z
" style="fill:#ffffff;"/>
   </g>
   <g id="matplotlib.axis_1">
    <g id="xtick_1">
     <g id="line2d_1">
      <defs>
       <path d="M 0 0 
L 0 3.5 
" id="m81dd1156fc" style="stroke:#000000;stroke-width:0.8;"/>
      </defs>
      <g>
       <use style="stroke:#000000;stroke-width:0.8;" x="73.832727" xlink:href="#m81dd1156fc" y="307.584"/>
      </g>
     </g>
     <g id="text_1">
      <!-- −10000 -->
      <g transform="translate(53.736634 322.182437)scale(0.1 -0.1)">
       <defs>
        <path d="M 678 2272 
L 4684 2272 
L 4684 1741 
L 678 1741 
L 678 2272 
z
" id="DejaVuSans-2212" transform="scale(0.015625)"/>
        <path d="M 794 531 
L 1825 531 
L 1825 4091 
L 703 3866 
L 703 4441 
L 1819 4666 
L 2450 4666 
L 2450 531 
L 3481 531 
L 3481 0 
L 794 0 
L 794 531 
z
" id="DejaVuSans-31" transform="scale(0.015625)"/>
        <path d="M 2034 4250 
Q 1547 4250 1301 3770 
Q 1056 3291 1056 2328 
Q 1056 1369 1301 889 
Q 1547 409 2034 409 
Q 2525 409 2770 889 
Q 3016 1369 3016 2328 
Q 3016 3291 2770 3770 
Q 2525 4250 2034 4250 
z
M 2034 4750 
Q 2819 4750 3233 4129 
Q 3647 3509 3647 2328 
Q 3647 1150 3233 529 
Q 2819 -91 2034 -91 
Q 1250 -91 836 529 
Q 422 1150 422 2328 
Q 422 3509 836 4129 
Q 1250 4750 2034 4750 
z
" id="DejaVuSans-30" transform="scale(0.015625)"/>
       </defs>
       <use xlink:href="#DejaVuSans-2212"/>
       <use x="83.789062" xlink:href="#DejaVuSans-31"/>
       <use x="147.412109" xlink:href="#DejaVuSans-30"/>
       <use x="211.035156" xlink:href="#DejaVuSans-30"/>
       <use x="274.658203" xlink:href="#DejaVuSans-30"/>
       <use x="338.28125" xlink:href="#DejaVuSans-30"/>
      </g>
     </g>
    </g>
    <g id="xtick_2">
     <g id="line2d_2">
      <g>
       <use style="stroke:#000000;stroke-width:0.8;" x="114.424693" xlink:href="#m81dd1156fc" y="307.584"/>
      </g>
     </g>
     <g id="text_2">
      <!-- −7500 -->
      <g transform="translate(97.50985 322.182437)scale(0.1 -0.1)">
       <defs>
        <path d="M 525 4666 
L 3525 4666 
L 3525 4397 
L 1831 0 
L 1172 0 
L 2766 4134 
L 525 4134 
L 525 4666 
z
" id="DejaVuSans-37" transform="scale(0.015625)"/>
        <path d="M 691 4666 
L 3169 4666 
L 3169 4134 
L 1269 4134 
L 1269 2991 
Q 1406 3038 1543 3061 
Q 1681 3084 1819 3084 
Q 2600 3084 3056 2656 
Q 3513 2228 3513 1497 
Q 3513 744 3044 326 
Q 2575 -91 1722 -91 
Q 1428 -91 1123 -41 
Q 819 9 494 109 
L 494 744 
Q 775 591 1075 516 
Q 1375 441 1709 441 
Q 2250 441 2565 725 
Q 2881 1009 2881 1497 
Q 2881 1984 2565 2268 
Q 2250 2553 1709 2553 
Q 1456 2553 1204 2497 
Q 953 2441 691 2322 
L 691 4666 
z
" id="DejaVuSans-35" transform="scale(0.015625)"/>
       </defs>
       <use xlink:href="#DejaVuSans-2212"/>
       <use x="83.789062" xlink:href="#DejaVuSans-37"/>
       <use x="147.412109" xlink:href="#DejaVuSans-35"/>
       <use x="211.035156" xlink:href="#DejaVuSans-30"/>
       <use x="274.658203" xlink:href="#DejaVuSans-30"/>
      </g>
     </g>
    </g>
    <g id="xtick_3">
     <g id="line2d_3">
      <g>
       <use style="stroke:#000000;stroke-width:0.8;" x="155.01666" xlink:href="#m81dd1156fc" y="307.584"/>
      </g>
     </g>
     <g id="text_3">
      <!-- −5000 -->
      <g transform="translate(138.101816 322.182437)scale(0.1 -0.1)">
       <use xlink:href="#DejaVuSans-2212"/>
       <use x="83.789062" xlink:href="#DejaVuSans-35"/>
       <use x="147.412109" xlink:href="#DejaVuSans-30"/>
       <use x="211.035156" xlink:href="#DejaVuSans-30"/>
       <use x="274.658203" xlink:href="#DejaVuSans-30"/>
      </g>
     </g>
    </g>
    <g id="xtick_4">
     <g id="line2d_4">
      <g>
       <use style="stroke:#000000;stroke-width:0.8;" x="195.608626" xlink:href="#m81dd1156fc" y="307.584"/>
      </g>
     </g>
     <g id="text_4">
      <!-- −2500 -->
      <g transform="translate(178.693782 322.182437)scale(0.1 -0.1)">
       <defs>
        <path d="M 1228 531 
L 3431 531 
L 3431 0 
L 469 0 
L 469 531 
Q 828 903 1448 1529 
Q 2069 2156 2228 2338 
Q 2531 2678 2651 2914 
Q 2772 3150 2772 3378 
Q 2772 3750 2511 3984 
Q 2250 4219 1831 4219 
Q 1534 4219 1204 4116 
Q 875 4013 500 3803 
L 500 4441 
Q 881 4594 1212 4672 
Q 1544 4750 1819 4750 
Q 2544 4750 2975 4387 
Q 3406 4025 3406 3419 
Q 3406 3131 3298 2873 
Q 3191 2616 2906 2266 
Q 2828 2175 2409 1742 
Q 1991 1309 1228 531 
z
" id="DejaVuSans-32" transform="scale(0.015625)"/>
       </defs>
       <use xlink:href="#DejaVuSans-2212"/>
       <use x="83.789062" xlink:href="#DejaVuSans-32"/>
       <use x="147.412109" xlink:href="#DejaVuSans-35"/>
       <use x="211.035156" xlink:href="#DejaVuSans-30"/>
       <use x="274.658203" xlink:href="#DejaVuSans-30"/>
      </g>
     </g>
    </g>
    <g id="xtick_5">
     <g id="line2d_5">
      <g>
       <use style="stroke:#000000;stroke-width:0.8;" x="236.200592" xlink:href="#m81dd1156fc" y="307.584"/>
      </g>
     </g>
     <g id="text_5">
      <!-- 0 -->
      <g transform="translate(233.019342 322.182437)scale(0.1 -0.1)">
       <use xlink:href="#DejaVuSans-30"/>
      </g>
     </g>
    </g>
    <g id="xtick_6">
     <g id="line2d_6">
      <g>
       <use style="stroke:#000000;stroke-width:0.8;" x="276.792558" xlink:href="#m81dd1156fc" y="307.584"/>
      </g>
     </g>
     <g id="text_6">
      <!-- 2500 -->
      <g transform="translate(264.067558 322.182437)scale(0.1 -0.1)">
       <use xlink:href="#DejaVuSans-32"/>
       <use x="63.623047" xlink:href="#DejaVuSans-35"/>
       <use x="127.246094" xlink:href="#DejaVuSans-30"/>
       <use x="190.869141" xlink:href="#DejaVuSans-30"/>
      </g>
     </g>
    </g>
    <g id="xtick_7">
     <g id="line2d_7">
      <g>
       <use style="stroke:#000000;stroke-width:0.8;" x="317.384524" xlink:href="#m81dd1156fc" y="307.584"/>
      </g>
     </g>
     <g id="text_7">
      <!-- 5000 -->
      <g transform="translate(304.659524 322.182437)scale(0.1 -0.1)">
       <use xlink:href="#DejaVuSans-35"/>
       <use x="63.623047" xlink:href="#DejaVuSans-30"/>
       <use x="127.246094" xlink:href="#DejaVuSans-30"/>
       <use x="190.869141" xlink:href="#DejaVuSans-30"/>
      </g>
     </g>
    </g>
    <g id="xtick_8">
     <g id="line2d_8">
      <g>
       <use style="stroke:#000000;stroke-width:0.8;" x="357.97649" xlink:href="#m81dd1156fc" y="307.584"/>
      </g>
     </g>
     <g id="text_8">
      <!-- 7500 -->
      <g transform="translate(345.25149 322.182437)scale(0.1 -0.1)">
       <use xlink:href="#DejaVuSans-37"/>
       <use x="63.623047" xlink:href="#DejaVuSans-35"/>
       <use x="127.246094" xlink:href="#DejaVuSans-30"/>
       <use x="190.869141" xlink:href="#DejaVuSans-30"/>
      </g>
     </g>
    </g>
    <g id="xtick_9">
     <g id="line2d_9">
      <g>
       <use style="stroke:#000000;stroke-width:0.8;" x="398.568457" xlink:href="#m81dd1156fc" y="307.584"/>
      </g>
     </g>
     <g id="text_9">
      <!-- 10000 -->
      <g transform="translate(382.662207 322.182437)scale(0.1 -0.1)">
       <use xlink:href="#DejaVuSans-31"/>
       <use x="63.623047" xlink:href="#DejaVuSans-30"/>
       <use x="127.246094" xlink:href="#DejaVuSans-30"/>
       <use x="190.869141" xlink:href="#DejaVuSans-30"/>
       <use x="254.492188" xlink:href="#DejaVuSans-30"/>
      </g>
     </g>
    </g>
    <g id="text_10">
     <!-- frequency $\left[Hz\right]$ -->
     <g transform="translate(199.06 335.862125)scale(0.1 -0.1)">
      <defs>
       <path d="M 2375 4863 
L 2375 4384 
L 1825 4384 
Q 1516 4384 1395 4259 
Q 1275 4134 1275 3809 
L 1275 3500 
L 2222 3500 
L 2222 3053 
L 1275 3053 
L 1275 0 
L 697 0 
L 697 3053 
L 147 3053 
L 147 3500 
L 697 3500 
L 697 3744 
Q 697 4328 969 4595 
Q 1241 4863 1831 4863 
L 2375 4863 
z
" id="DejaVuSans-66" transform="scale(0.015625)"/>
       <path d="M 2631 2963 
Q 2534 3019 2420 3045 
Q 2306 3072 2169 3072 
Q 1681 3072 1420 2755 
Q 1159 2438 1159 1844 
L 1159 0 
L 581 0 
L 581 3500 
L 1159 3500 
L 1159 2956 
Q 1341 3275 1631 3429 
Q 1922 3584 2338 3584 
Q 2397 3584 2469 3576 
Q 2541 3569 2628 3553 
L 2631 2963 
z
" id="DejaVuSans-72" transform="scale(0.015625)"/>
       <path d="M 3597 1894 
L 3597 1613 
L 953 1613 
Q 991 1019 1311 708 
Q 1631 397 2203 397 
Q 2534 397 2845 478 
Q 3156 559 3463 722 
L 3463 178 
Q 3153 47 2828 -22 
Q 2503 -91 2169 -91 
Q 1331 -91 842 396 
Q 353 884 353 1716 
Q 353 2575 817 3079 
Q 1281 3584 2069 3584 
Q 2775 3584 3186 3129 
Q 3597 2675 3597 1894 
z
M 3022 2063 
Q 3016 2534 2758 2815 
Q 2500 3097 2075 3097 
Q 1594 3097 1305 2825 
Q 1016 2553 972 2059 
L 3022 2063 
z
" id="DejaVuSans-65" transform="scale(0.015625)"/>
       <path d="M 947 1747 
Q 947 1113 1208 752 
Q 1469 391 1925 391 
Q 2381 391 2643 752 
Q 2906 1113 2906 1747 
Q 2906 2381 2643 2742 
Q 2381 3103 1925 3103 
Q 1469 3103 1208 2742 
Q 947 2381 947 1747 
z
M 2906 525 
Q 2725 213 2448 61 
Q 2172 -91 1784 -91 
Q 1150 -91 751 415 
Q 353 922 353 1747 
Q 353 2572 751 3078 
Q 1150 3584 1784 3584 
Q 2172 3584 2448 3432 
Q 2725 3281 2906 2969 
L 2906 3500 
L 3481 3500 
L 3481 -1331 
L 2906 -1331 
L 2906 525 
z
" id="DejaVuSans-71" transform="scale(0.015625)"/>
       <path d="M 544 1381 
L 544 3500 
L 1119 3500 
L 1119 1403 
Q 1119 906 1312 657 
Q 1506 409 1894 409 
Q 2359 409 2629 706 
Q 2900 1003 2900 1516 
L 2900 3500 
L 3475 3500 
L 3475 0 
L 2900 0 
L 2900 538 
Q 2691 219 2414 64 
Q 2138 -91 1772 -91 
Q 1169 -91 856 284 
Q 544 659 544 1381 
z
M 1991 3584 
L 1991 3584 
z
" id="DejaVuSans-75" transform="scale(0.015625)"/>
       <path d="M 3513 2113 
L 3513 0 
L 2938 0 
L 2938 2094 
Q 2938 2591 2744 2837 
Q 2550 3084 2163 3084 
Q 1697 3084 1428 2787 
Q 1159 2491 1159 1978 
L 1159 0 
L 581 0 
L 581 3500 
L 1159 3500 
L 1159 2956 
Q 1366 3272 1645 3428 
Q 1925 3584 2291 3584 
Q 2894 3584 3203 3211 
Q 3513 2838 3513 2113 
z
" id="DejaVuSans-6e" transform="scale(0.015625)"/>
       <path d="M 3122 3366 
L 3122 2828 
Q 2878 2963 2633 3030 
Q 2388 3097 2138 3097 
Q 1578 3097 1268 2742 
Q 959 2388 959 1747 
Q 959 1106 1268 751 
Q 1578 397 2138 397 
Q 2388 397 2633 464 
Q 2878 531 3122 666 
L 3122 134 
Q 2881 22 2623 -34 
Q 2366 -91 2075 -91 
Q 1284 -91 818 406 
Q 353 903 353 1747 
Q 353 2603 823 3093 
Q 1294 3584 2113 3584 
Q 2378 3584 2631 3529 
Q 2884 3475 3122 3366 
z
" id="DejaVuSans-63" transform="scale(0.015625)"/>
       <path d="M 2059 -325 
Q 1816 -950 1584 -1140 
Q 1353 -1331 966 -1331 
L 506 -1331 
L 506 -850 
L 844 -850 
Q 1081 -850 1212 -737 
Q 1344 -625 1503 -206 
L 1606 56 
L 191 3500 
L 800 3500 
L 1894 763 
L 2988 3500 
L 3597 3500 
L 2059 -325 
z
" id="DejaVuSans-79" transform="scale(0.015625)"/>
       <path id="DejaVuSans-20" transform="scale(0.015625)"/>
       <path d="M 550 4863 
L 1875 4863 
L 1875 4416 
L 1125 4416 
L 1125 -397 
L 1875 -397 
L 1875 -844 
L 550 -844 
L 550 4863 
z
" id="DejaVuSans-5b" transform="scale(0.015625)"/>
       <path d="M 1081 4666 
L 1716 4666 
L 1344 2753 
L 3634 2753 
L 4006 4666 
L 4641 4666 
L 3731 0 
L 3097 0 
L 3531 2222 
L 1241 2222 
L 806 0 
L 172 0 
L 1081 4666 
z
" id="DejaVuSans-Oblique-48" transform="scale(0.015625)"/>
       <path d="M 744 3500 
L 3475 3500 
L 3372 2975 
L 738 459 
L 2913 459 
L 2822 0 
L -19 0 
L 84 525 
L 2719 3041 
L 653 3041 
L 744 3500 
z
" id="DejaVuSans-Oblique-7a" transform="scale(0.015625)"/>
       <path d="M 1947 4863 
L 1947 -844 
L 622 -844 
L 622 -397 
L 1369 -397 
L 1369 4416 
L 622 4416 
L 622 4863 
L 1947 4863 
z
" id="DejaVuSans-5d" transform="scale(0.015625)"/>
      </defs>
      <use transform="translate(0 0.015625)" xlink:href="#DejaVuSans-66"/>
      <use transform="translate(35.205078 0.015625)" xlink:href="#DejaVuSans-72"/>
      <use transform="translate(76.318359 0.015625)" xlink:href="#DejaVuSans-65"/>
      <use transform="translate(137.841797 0.015625)" xlink:href="#DejaVuSans-71"/>
      <use transform="translate(201.318359 0.015625)" xlink:href="#DejaVuSans-75"/>
      <use transform="translate(264.697266 0.015625)" xlink:href="#DejaVuSans-65"/>
      <use transform="translate(326.220703 0.015625)" xlink:href="#DejaVuSans-6e"/>
      <use transform="translate(389.599609 0.015625)" xlink:href="#DejaVuSans-63"/>
      <use transform="translate(444.580078 0.015625)" xlink:href="#DejaVuSans-79"/>
      <use transform="translate(503.759766 0.015625)" xlink:href="#DejaVuSans-20"/>
      <use transform="translate(535.546875 0.015625)" xlink:href="#DejaVuSans-5b"/>
      <use transform="translate(574.560547 0.015625)" xlink:href="#DejaVuSans-Oblique-48"/>
      <use transform="translate(649.755859 0.015625)" xlink:href="#DejaVuSans-Oblique-7a"/>
      <use transform="translate(702.246094 0.015625)" xlink:href="#DejaVuSans-5d"/>
     </g>
    </g>
   </g>
   <g id="matplotlib.axis_2">
    <g id="ytick_1">
     <g id="line2d_10">
      <defs>
       <path d="M 0 0 
L -3.5 0 
" id="m195428d601" style="stroke:#000000;stroke-width:0.8;"/>
      </defs>
      <g>
       <use style="stroke:#000000;stroke-width:0.8;" x="57.6" xlink:href="#m195428d601" y="295.49959"/>
      </g>
     </g>
     <g id="text_11">
      <!-- 0.00 -->
      <g transform="translate(28.334375 299.298809)scale(0.1 -0.1)">
       <defs>
        <path d="M 684 794 
L 1344 794 
L 1344 0 
L 684 0 
L 684 794 
z
" id="DejaVuSans-2e" transform="scale(0.015625)"/>
       </defs>
       <use xlink:href="#DejaVuSans-30"/>
       <use x="63.623047" xlink:href="#DejaVuSans-2e"/>
       <use x="95.410156" xlink:href="#DejaVuSans-30"/>
       <use x="159.033203" xlink:href="#DejaVuSans-30"/>
      </g>
     </g>
    </g>
    <g id="ytick_2">
     <g id="line2d_11">
      <g>
       <use style="stroke:#000000;stroke-width:0.8;" x="57.6" xlink:href="#m195428d601" y="250.850765"/>
      </g>
     </g>
     <g id="text_12">
      <!-- 0.02 -->
      <g transform="translate(28.334375 254.649984)scale(0.1 -0.1)">
       <use xlink:href="#DejaVuSans-30"/>
       <use x="63.623047" xlink:href="#DejaVuSans-2e"/>
       <use x="95.410156" xlink:href="#DejaVuSans-30"/>
       <use x="159.033203" xlink:href="#DejaVuSans-32"/>
      </g>
     </g>
    </g>
    <g id="ytick_3">
     <g id="line2d_12">
      <g>
       <use style="stroke:#000000;stroke-width:0.8;" x="57.6" xlink:href="#m195428d601" y="206.20194"/>
      </g>
     </g>
     <g id="text_13">
      <!-- 0.04 -->
      <g transform="translate(28.334375 210.001158)scale(0.1 -0.1)">
       <defs>
        <path d="M 2419 4116 
L 825 1625 
L 2419 1625 
L 2419 4116 
z
M 2253 4666 
L 3047 4666 
L 3047 1625 
L 3713 1625 
L 3713 1100 
L 3047 1100 
L 3047 0 
L 2419 0 
L 2419 1100 
L 313 1100 
L 313 1709 
L 2253 4666 
z
" id="DejaVuSans-34" transform="scale(0.015625)"/>
       </defs>
       <use xlink:href="#DejaVuSans-30"/>
       <use x="63.623047" xlink:href="#DejaVuSans-2e"/>
       <use x="95.410156" xlink:href="#DejaVuSans-30"/>
       <use x="159.033203" xlink:href="#DejaVuSans-34"/>
      </g>
     </g>
    </g>
    <g id="ytick_4">
     <g id="line2d_13">
      <g>
       <use style="stroke:#000000;stroke-width:0.8;" x="57.6" xlink:href="#m195428d601" y="161.553114"/>
      </g>
     </g>
     <g id="text_14">
      <!-- 0.06 -->
      <g transform="translate(28.334375 165.352333)scale(0.1 -0.1)">
       <defs>
        <path d="M 2113 2584 
Q 1688 2584 1439 2293 
Q 1191 2003 1191 1497 
Q 1191 994 1439 701 
Q 1688 409 2113 409 
Q 2538 409 2786 701 
Q 3034 994 3034 1497 
Q 3034 2003 2786 2293 
Q 2538 2584 2113 2584 
z
M 3366 4563 
L 3366 3988 
Q 3128 4100 2886 4159 
Q 2644 4219 2406 4219 
Q 1781 4219 1451 3797 
Q 1122 3375 1075 2522 
Q 1259 2794 1537 2939 
Q 1816 3084 2150 3084 
Q 2853 3084 3261 2657 
Q 3669 2231 3669 1497 
Q 3669 778 3244 343 
Q 2819 -91 2113 -91 
Q 1303 -91 875 529 
Q 447 1150 447 2328 
Q 447 3434 972 4092 
Q 1497 4750 2381 4750 
Q 2619 4750 2861 4703 
Q 3103 4656 3366 4563 
z
" id="DejaVuSans-36" transform="scale(0.015625)"/>
       </defs>
       <use xlink:href="#DejaVuSans-30"/>
       <use x="63.623047" xlink:href="#DejaVuSans-2e"/>
       <use x="95.410156" xlink:href="#DejaVuSans-30"/>
       <use x="159.033203" xlink:href="#DejaVuSans-36"/>
      </g>
     </g>
    </g>
    <g id="ytick_5">
     <g id="line2d_14">
      <g>
       <use style="stroke:#000000;stroke-width:0.8;" x="57.6" xlink:href="#m195428d601" y="116.904289"/>
      </g>
     </g>
     <g id="text_15">
      <!-- 0.08 -->
      <g transform="translate(28.334375 120.703508)scale(0.1 -0.1)">
       <defs>
        <path d="M 2034 2216 
Q 1584 2216 1326 1975 
Q 1069 1734 1069 1313 
Q 1069 891 1326 650 
Q 1584 409 2034 409 
Q 2484 409 2743 651 
Q 3003 894 3003 1313 
Q 3003 1734 2745 1975 
Q 2488 2216 2034 2216 
z
M 1403 2484 
Q 997 2584 770 2862 
Q 544 3141 544 3541 
Q 544 4100 942 4425 
Q 1341 4750 2034 4750 
Q 2731 4750 3128 4425 
Q 3525 4100 3525 3541 
Q 3525 3141 3298 2862 
Q 3072 2584 2669 2484 
Q 3125 2378 3379 2068 
Q 3634 1759 3634 1313 
Q 3634 634 3220 271 
Q 2806 -91 2034 -91 
Q 1263 -91 848 271 
Q 434 634 434 1313 
Q 434 1759 690 2068 
Q 947 2378 1403 2484 
z
M 1172 3481 
Q 1172 3119 1398 2916 
Q 1625 2713 2034 2713 
Q 2441 2713 2670 2916 
Q 2900 3119 2900 3481 
Q 2900 3844 2670 4047 
Q 2441 4250 2034 4250 
Q 1625 4250 1398 4047 
Q 1172 3844 1172 3481 
z
" id="DejaVuSans-38" transform="scale(0.015625)"/>
       </defs>
       <use xlink:href="#DejaVuSans-30"/>
       <use x="63.623047" xlink:href="#DejaVuSans-2e"/>
       <use x="95.410156" xlink:href="#DejaVuSans-30"/>
       <use x="159.033203" xlink:href="#DejaVuSans-38"/>
      </g>
     </g>
    </g>
    <g id="ytick_6">
     <g id="line2d_15">
      <g>
       <use style="stroke:#000000;stroke-width:0.8;" x="57.6" xlink:href="#m195428d601" y="72.255464"/>
      </g>
     </g>
     <g id="text_16">
      <!-- 0.10 -->
      <g transform="translate(28.334375 76.054683)scale(0.1 -0.1)">
       <use xlink:href="#DejaVuSans-30"/>
       <use x="63.623047" xlink:href="#DejaVuSans-2e"/>
       <use x="95.410156" xlink:href="#DejaVuSans-31"/>
       <use x="159.033203" xlink:href="#DejaVuSans-30"/>
      </g>
     </g>
    </g>
    <g id="text_17">
     <!-- magnitude -->
     <g transform="translate(22.254687 201.574094)rotate(-90)scale(0.1 -0.1)">
      <defs>
       <path d="M 3328 2828 
Q 3544 3216 3844 3400 
Q 4144 3584 4550 3584 
Q 5097 3584 5394 3201 
Q 5691 2819 5691 2113 
L 5691 0 
L 5113 0 
L 5113 2094 
Q 5113 2597 4934 2840 
Q 4756 3084 4391 3084 
Q 3944 3084 3684 2787 
Q 3425 2491 3425 1978 
L 3425 0 
L 2847 0 
L 2847 2094 
Q 2847 2600 2669 2842 
Q 2491 3084 2119 3084 
Q 1678 3084 1418 2786 
Q 1159 2488 1159 1978 
L 1159 0 
L 581 0 
L 581 3500 
L 1159 3500 
L 1159 2956 
Q 1356 3278 1631 3431 
Q 1906 3584 2284 3584 
Q 2666 3584 2933 3390 
Q 3200 3197 3328 2828 
z
" id="DejaVuSans-6d" transform="scale(0.015625)"/>
       <path d="M 2194 1759 
Q 1497 1759 1228 1600 
Q 959 1441 959 1056 
Q 959 750 1161 570 
Q 1363 391 1709 391 
Q 2188 391 2477 730 
Q 2766 1069 2766 1631 
L 2766 1759 
L 2194 1759 
z
M 3341 1997 
L 3341 0 
L 2766 0 
L 2766 531 
Q 2569 213 2275 61 
Q 1981 -91 1556 -91 
Q 1019 -91 701 211 
Q 384 513 384 1019 
Q 384 1609 779 1909 
Q 1175 2209 1959 2209 
L 2766 2209 
L 2766 2266 
Q 2766 2663 2505 2880 
Q 2244 3097 1772 3097 
Q 1472 3097 1187 3025 
Q 903 2953 641 2809 
L 641 3341 
Q 956 3463 1253 3523 
Q 1550 3584 1831 3584 
Q 2591 3584 2966 3190 
Q 3341 2797 3341 1997 
z
" id="DejaVuSans-61" transform="scale(0.015625)"/>
       <path d="M 2906 1791 
Q 2906 2416 2648 2759 
Q 2391 3103 1925 3103 
Q 1463 3103 1205 2759 
Q 947 2416 947 1791 
Q 947 1169 1205 825 
Q 1463 481 1925 481 
Q 2391 481 2648 825 
Q 2906 1169 2906 1791 
z
M 3481 434 
Q 3481 -459 3084 -895 
Q 2688 -1331 1869 -1331 
Q 1566 -1331 1297 -1286 
Q 1028 -1241 775 -1147 
L 775 -588 
Q 1028 -725 1275 -790 
Q 1522 -856 1778 -856 
Q 2344 -856 2625 -561 
Q 2906 -266 2906 331 
L 2906 616 
Q 2728 306 2450 153 
Q 2172 0 1784 0 
Q 1141 0 747 490 
Q 353 981 353 1791 
Q 353 2603 747 3093 
Q 1141 3584 1784 3584 
Q 2172 3584 2450 3431 
Q 2728 3278 2906 2969 
L 2906 3500 
L 3481 3500 
L 3481 434 
z
" id="DejaVuSans-67" transform="scale(0.015625)"/>
       <path d="M 603 3500 
L 1178 3500 
L 1178 0 
L 603 0 
L 603 3500 
z
M 603 4863 
L 1178 4863 
L 1178 4134 
L 603 4134 
L 603 4863 
z
" id="DejaVuSans-69" transform="scale(0.015625)"/>
       <path d="M 1172 4494 
L 1172 3500 
L 2356 3500 
L 2356 3053 
L 1172 3053 
L 1172 1153 
Q 1172 725 1289 603 
Q 1406 481 1766 481 
L 2356 481 
L 2356 0 
L 1766 0 
Q 1100 0 847 248 
Q 594 497 594 1153 
L 594 3053 
L 172 3053 
L 172 3500 
L 594 3500 
L 594 4494 
L 1172 4494 
z
" id="DejaVuSans-74" transform="scale(0.015625)"/>
       <path d="M 2906 2969 
L 2906 4863 
L 3481 4863 
L 3481 0 
L 2906 0 
L 2906 525 
Q 2725 213 2448 61 
Q 2172 -91 1784 -91 
Q 1150 -91 751 415 
Q 353 922 353 1747 
Q 353 2572 751 3078 
Q 1150 3584 1784 3584 
Q 2172 3584 2448 3432 
Q 2725 3281 2906 2969 
z
M 947 1747 
Q 947 1113 1208 752 
Q 1469 391 1925 391 
Q 2381 391 2643 752 
Q 2906 1113 2906 1747 
Q 2906 2381 2643 2742 
Q 2381 3103 1925 3103 
Q 1469 3103 1208 2742 
Q 947 2381 947 1747 
z
" id="DejaVuSans-64" transform="scale(0.015625)"/>
      </defs>
      <use xlink:href="#DejaVuSans-6d"/>
      <use x="97.412109" xlink:href="#DejaVuSans-61"/>
      <use x="158.691406" xlink:href="#DejaVuSans-67"/>
      <use x="222.167969" xlink:href="#DejaVuSans-6e"/>
      <use x="285.546875" xlink:href="#DejaVuSans-69"/>
      <use x="313.330078" xlink:href="#DejaVuSans-74"/>
      <use x="352.539062" xlink:href="#DejaVuSans-75"/>
      <use x="415.917969" xlink:href="#DejaVuSans-64"/>
      <use x="479.394531" xlink:href="#DejaVuSans-65"/>
     </g>
    </g>
   </g>
   <g id="line2d_16">
    <path clip-path="url(#pd957d373f6)" d="M 73.832727 295.086528 
L 73.995095 294.932996 
L 74.157463 294.904274 
L 74.238647 294.582567 
L 74.319831 294.99415 
L 74.401015 294.931584 
L 74.482199 289.839342 
L 74.644567 293.997403 
L 74.969302 294.674375 
L 75.294038 294.582411 
L 75.456406 294.042602 
L 75.53759 293.091193 
L 75.618774 289.469813 
L 75.781142 295.007823 
L 75.862326 294.577576 
L 75.94351 294.671766 
L 76.187061 294.805936 
L 76.511797 295.222031 
L 76.836533 295.086959 
L 76.917717 292.369937 
L 77.080085 294.105685 
L 77.648372 295.311458 
L 77.891924 295.080722 
L 77.973108 294.620979 
L 78.054292 292.763001 
L 78.21666 294.913503 
L 78.784947 295.156501 
L 79.028499 295.08471 
L 79.109683 295.315397 
L 79.353235 294.310941 
L 79.434419 294.409321 
L 79.67797 294.826236 
L 80.002706 295.069402 
L 80.165074 295.089905 
L 80.408626 294.798336 
L 80.48981 295.119758 
L 80.570994 295.035331 
L 80.652178 295.017557 
L 80.895729 295.230562 
L 81.301649 295.175433 
L 81.626385 295.061893 
L 81.707569 295.237708 
L 81.788753 295.036792 
L 82.032304 295.36375 
L 82.35704 295.118922 
L 82.600592 295.160304 
L 82.681776 295.100298 
L 82.844144 295.283315 
L 82.925328 295.167492 
L 83.006512 295.367039 
L 83.168879 295.126023 
L 83.331247 295.232383 
L 83.737167 295.274158 
L 83.818351 295.078847 
L 84.061903 295.320404 
L 84.224271 295.032394 
L 84.305455 295.394862 
L 84.386638 295.28868 
L 84.467822 295.418274 
L 84.63019 295.232485 
L 84.954926 295.277388 
L 85.117294 295.256186 
L 85.279662 295.418096 
L 85.360846 294.998177 
L 85.44203 295.313481 
L 85.523214 295.206063 
L 85.766765 295.135793 
L 86.253869 295.391638 
L 86.416237 295.240762 
L 86.497421 295.326376 
L 86.578605 295.082291 
L 86.659789 295.271867 
L 86.822156 295.087005 
L 87.30926 295.328471 
L 87.390444 295.079717 
L 87.471628 295.180519 
L 87.633996 295.138121 
L 87.71518 295.13277 
L 88.039915 295.408306 
L 88.364651 295.107795 
L 88.932939 295.347056 
L 89.17649 295.15551 
L 89.257674 295.285838 
L 89.420042 295.165921 
L 89.663594 295.371951 
L 89.98833 295.014964 
L 90.069514 295.165821 
L 90.313066 295.174323 
L 90.556617 295.307409 
L 90.800169 295.277717 
L 90.962537 295.238712 
L 91.287273 295.199405 
L 91.368457 295.359191 
L 91.530825 295.262672 
L 91.774376 295.23936 
L 91.85556 295.141663 
L 92.099112 295.306052 
L 92.26148 295.276034 
L 92.423848 295.33644 
L 92.6674 295.055837 
L 92.829767 295.295487 
L 92.992135 295.23201 
L 93.073319 295.23024 
L 93.235687 295.46611 
L 93.398055 295.253909 
L 93.641607 295.116373 
L 93.803975 295.219137 
L 94.047526 295.305094 
L 94.291078 295.175153 
L 94.453446 295.183002 
L 95.021734 295.267507 
L 95.265285 295.166767 
L 95.833573 295.290828 
L 95.995941 295.268955 
L 96.158309 295.165243 
L 96.320677 295.252209 
L 96.970148 295.263711 
L 97.051332 295.102492 
L 97.132516 295.303861 
L 97.294884 295.204139 
L 97.457252 295.409821 
L 97.781987 295.229166 
L 98.187907 295.163998 
L 98.431459 295.31218 
L 98.837378 295.165298 
L 99.162114 295.332775 
L 99.324482 295.374674 
L 99.649218 295.175117 
L 100.217505 295.357691 
L 100.298689 295.10959 
L 100.379873 295.161156 
L 101.191712 295.219641 
L 101.516448 295.198375 
L 101.597632 295.219137 
L 101.76 295.469241 
L 101.922368 295.267456 
L 102.084736 295.339226 
L 102.16592 295.181284 
L 102.247104 295.243953 
L 102.571839 295.266552 
L 102.653023 295.427905 
L 102.734207 295.3608 
L 103.058943 295.200579 
L 103.383679 295.204451 
L 103.464863 295.467898 
L 103.546047 295.357994 
L 103.62723 295.392987 
L 103.708414 295.206015 
L 103.789598 295.33003 
L 103.870782 295.209504 
L 103.951966 295.336114 
L 104.114334 295.179955 
L 104.357886 295.382135 
L 105.088541 295.267994 
L 105.250909 295.339985 
L 105.413277 295.284086 
L 105.494461 295.375972 
L 105.656829 295.163654 
L 106.225116 295.332806 
L 106.549852 295.235067 
L 106.793404 295.307601 
L 106.955772 295.433213 
L 107.11814 295.227862 
L 107.280507 295.29183 
L 107.442875 295.172601 
L 107.767611 295.386263 
L 107.848795 295.427248 
L 108.011163 295.232119 
L 108.498266 295.364302 
L 108.57945 295.189435 
L 108.741818 295.387379 
L 109.066554 295.255845 
L 109.472474 295.33503 
L 109.553658 295.196317 
L 109.634841 295.446572 
L 109.716025 295.3604 
L 110.121945 295.23992 
L 110.203129 295.170534 
L 110.527865 295.381805 
L 110.8526 295.239208 
L 111.014968 295.395148 
L 111.096152 295.243289 
L 111.177336 295.320581 
L 111.826808 295.307534 
L 111.989175 295.399321 
L 112.232727 295.336371 
L 112.395095 295.346525 
L 112.719831 295.20903 
L 112.882199 295.363094 
L 113.044567 295.356642 
L 113.369302 295.21217 
L 113.53167 295.30383 
L 113.612854 295.216684 
L 113.775222 295.402296 
L 114.099958 295.360874 
L 114.181142 295.19598 
L 114.262326 295.280079 
L 114.424693 295.256881 
L 114.749429 295.393907 
L 114.911797 295.387746 
L 115.155349 295.193561 
L 115.317717 295.335648 
L 115.480085 295.306748 
L 115.723636 295.485773 
L 115.886004 295.149185 
L 115.967188 295.27051 
L 116.129556 295.349892 
L 116.291924 295.321608 
L 116.535476 295.42267 
L 116.779027 295.23949 
L 117.103763 295.367977 
L 117.753235 295.321499 
L 117.915603 295.267112 
L 118.159154 295.449083 
L 118.565074 295.262428 
L 118.727442 295.348735 
L 118.88981 295.319391 
L 119.052178 295.488 
L 119.295729 295.319713 
L 119.539281 295.237975 
L 119.945201 295.412693 
L 120.351121 295.309799 
L 120.919408 295.38196 
L 121.325328 295.26156 
L 121.568879 295.484085 
L 121.731247 295.375371 
L 121.893615 295.305039 
L 122.299535 295.354379 
L 122.461903 295.430272 
L 122.543087 295.353884 
L 122.624271 295.441482 
L 122.867822 295.247861 
L 123.03019 295.409329 
L 123.111374 295.292867 
L 123.192558 295.457293 
L 123.273742 295.395166 
L 123.43611 295.400788 
L 123.679662 295.218008 
L 123.760846 295.293673 
L 123.84203 295.204643 
L 124.085581 295.404307 
L 124.166765 295.307078 
L 124.247949 295.379313 
L 124.410317 295.437405 
L 124.572685 295.350221 
L 124.816237 295.324165 
L 124.897421 295.30332 
L 125.140973 295.452891 
L 125.70926 295.339602 
L 125.790444 295.424546 
L 125.871628 295.281461 
L 126.033996 295.467741 
L 126.277548 295.332111 
L 126.521099 295.422276 
L 126.683467 295.276624 
L 126.845835 295.436794 
L 127.089387 295.324825 
L 127.738858 295.348955 
L 127.901226 295.407683 
L 128.225962 295.263606 
L 128.307146 295.398003 
L 128.38833 295.336772 
L 128.956617 295.371896 
L 129.281353 295.339447 
L 129.443721 295.344049 
L 129.768457 295.342873 
L 130.093192 295.319277 
L 130.25556 295.44351 
L 130.336744 295.171528 
L 130.499112 295.359598 
L 130.66148 295.345772 
L 131.229767 295.256948 
L 131.473319 295.453567 
L 132.122791 295.302601 
L 132.447526 295.467971 
L 132.609894 295.371239 
L 132.853446 295.351951 
L 133.178182 295.470133 
L 133.259366 295.364285 
L 133.34055 295.470874 
L 133.584101 295.325373 
L 133.665285 295.327911 
L 133.746469 295.186746 
L 133.990021 295.376878 
L 134.233573 295.316908 
L 134.558309 295.250594 
L 134.639493 295.139907 
L 134.720677 295.202834 
L 135.045412 295.42906 
L 135.126596 295.410108 
L 135.20778 295.184536 
L 135.288964 295.261869 
L 135.532516 295.233653 
L 135.694884 295.341652 
L 135.857252 295.430235 
L 136.263171 295.022688 
L 136.506723 295.458429 
L 136.587907 295.280182 
L 136.669091 295.364094 
L 136.912643 295.352672 
L 137.075011 295.140101 
L 137.237378 295.107771 
L 137.562114 295.396557 
L 137.643298 294.934115 
L 137.805666 295.14904 
L 137.88685 294.926383 
L 138.049218 295.035574 
L 138.455137 295.354494 
L 138.617505 295.22849 
L 138.698689 295.251419 
L 138.779873 294.738501 
L 138.861057 294.901771 
L 138.942241 295.115451 
L 139.023425 294.838485 
L 139.266977 295.431127 
L 139.75408 294.916024 
L 139.997632 295.272351 
L 140.078816 295.012514 
L 140.16 295.330349 
L 140.241184 295.275018 
L 140.322368 295.260957 
L 140.56592 294.841954 
L 140.809471 295.059486 
L 140.971839 295.315072 
L 141.134207 295.320678 
L 141.296575 294.741212 
L 141.458943 294.533805 
L 141.540127 294.59438 
L 141.864863 295.226087 
L 142.514334 293.931039 
L 142.676702 295.109521 
L 142.757886 295.132157 
L 142.83907 295.389334 
L 143.244989 294.666905 
L 143.407357 294.719144 
L 143.488541 294.925986 
L 143.569725 294.743747 
L 143.650909 294.886747 
L 143.732093 295.340458 
L 143.813277 294.263491 
L 143.894461 295.274009 
L 143.975645 295.050981 
L 144.138013 294.742582 
L 144.219197 294.789616 
L 144.462748 295.472839 
L 144.543932 295.439695 
L 144.868668 294.573422 
L 144.949852 291.75949 
L 145.11222 294.553385 
L 145.193404 294.360916 
L 145.436956 294.763181 
L 145.761691 294.139958 
L 145.842875 294.49193 
L 145.924059 294.388394 
L 146.005243 294.39097 
L 146.167611 295.108145 
L 146.248795 294.898911 
L 146.329979 295.061592 
L 146.654715 294.152296 
L 146.735899 294.209352 
L 147.060634 295.388136 
L 147.141818 295.161907 
L 147.304186 294.08831 
L 147.38537 288.317273 
L 147.547738 293.311686 
L 147.628922 292.759132 
L 147.953658 294.359851 
L 148.034841 294.48671 
L 148.197209 293.699657 
L 148.278393 294.084398 
L 148.359577 293.463637 
L 148.440761 293.651827 
L 148.521945 290.044198 
L 148.603129 291.536491 
L 148.684313 290.767005 
L 148.927865 292.700713 
L 149.009049 292.679589 
L 149.2526 291.439078 
L 149.65852 288.574549 
L 149.739704 286.224036 
L 149.820888 259.685543 
L 149.902072 294.245077 
L 149.983256 293.510567 
L 150.06444 293.358849 
L 150.145624 293.583602 
L 150.389175 295.145067 
L 150.551543 293.885822 
L 150.632727 292.932605 
L 150.713911 293.351098 
L 150.876279 291.21866 
L 150.957463 284.578269 
L 151.119831 289.498575 
L 151.363383 293.2207 
L 151.444567 293.067136 
L 151.688118 287.082587 
L 152.094038 274.400488 
L 152.175222 266.112455 
L 152.256406 163.563672 
L 152.418774 285.366067 
L 152.499958 283.503266 
L 152.987061 292.633188 
L 153.068245 292.465025 
L 153.149429 292.776665 
L 153.230613 291.443636 
L 153.392981 285.505167 
L 153.474165 291.194343 
L 153.555349 275.036167 
L 153.636533 280.103765 
L 153.880085 292.72644 
L 153.961268 291.962771 
L 154.367188 276.624256 
L 154.529556 268.352318 
L 154.61074 256.877391 
L 154.691924 103.075158 
L 154.854292 278.724282 
L 154.935476 275.827574 
L 155.503763 293.769912 
L 155.584947 293.488921 
L 155.747315 285.313822 
L 155.909683 292.961423 
L 155.990867 262.074723 
L 156.072051 269.867659 
L 156.234419 284.740531 
L 156.47797 290.267038 
L 156.559154 290.016197 
L 156.802706 284.035344 
L 157.046258 270.525423 
L 157.127442 151.265512 
L 157.28981 281.819871 
L 157.370994 278.986063 
L 157.858097 290.871864 
L 158.020465 293.650418 
L 158.182833 288.580651 
L 158.264017 293.50438 
L 158.345201 290.521563 
L 158.426385 273.393011 
L 158.507569 277.284148 
L 158.669937 285.994834 
L 159.15704 294.946245 
L 159.481776 289.825468 
L 159.56296 249.58355 
L 159.725328 289.992715 
L 159.806512 286.847079 
L 159.968879 289.680701 
L 160.131247 290.900902 
L 160.618351 292.414416 
L 160.699535 291.8155 
L 160.780719 291.938314 
L 160.861903 291.947049 
L 160.943087 291.394056 
L 161.024271 291.551078 
L 161.43019 292.600242 
L 161.511374 292.807986 
L 161.754926 292.44831 
L 161.998478 291.020286 
L 162.160846 293.78547 
L 162.24203 291.251586 
L 162.404397 293.456629 
L 162.485581 293.999803 
L 162.810317 292.613634 
L 162.891501 292.655943 
L 162.972685 292.752345 
L 163.053869 293.034289 
L 163.135053 292.644602 
L 163.216237 293.57847 
L 163.297421 291.58827 
L 163.459789 294.418578 
L 163.540973 294.408387 
L 163.946892 293.258807 
L 164.028076 293.302787 
L 164.10926 293.438186 
L 164.190444 293.26661 
L 164.271628 293.705283 
L 164.352812 293.609415 
L 164.433996 293.50463 
L 164.51518 294.042195 
L 164.596364 294.003743 
L 164.677548 292.939851 
L 164.921099 293.893397 
L 165.164651 294.22707 
L 165.245835 294.16579 
L 165.489387 293.513384 
L 165.651755 293.786217 
L 165.732939 293.762459 
L 165.895307 294.046424 
L 165.97649 293.825671 
L 166.057674 293.984856 
L 166.138858 293.812748 
L 166.220042 293.97223 
L 166.38241 293.809336 
L 166.625962 294.123303 
L 166.78833 294.619124 
L 166.869514 291.445568 
L 166.950698 293.791367 
L 167.031882 293.787382 
L 167.113066 294.253226 
L 167.275433 293.512579 
L 167.600169 294.206423 
L 167.681353 294.424908 
L 167.924905 293.79213 
L 168.006089 294.097913 
L 168.168457 293.576069 
L 168.249641 293.691074 
L 168.493192 293.920367 
L 168.65556 294.226226 
L 168.980296 293.974582 
L 169.223848 294.080631 
L 169.305032 294.579061 
L 169.4674 294.230914 
L 169.548584 294.686943 
L 169.792135 294.025743 
L 170.035687 293.986207 
L 170.279239 294.351145 
L 170.360423 294.398054 
L 170.603975 293.973905 
L 170.685159 294.241992 
L 170.766342 294.123685 
L 171.091078 294.532828 
L 171.33463 294.306773 
L 171.496998 294.089754 
L 171.659366 294.102972 
L 171.74055 295.051763 
L 171.821734 294.39269 
L 171.902918 294.542233 
L 171.984101 294.339926 
L 172.146469 294.461584 
L 172.471205 294.147205 
L 172.552389 294.132806 
L 172.877125 294.46913 
L 173.120677 294.315646 
L 173.364228 294.240392 
L 173.770148 294.571037 
L 174.0137 294.296781 
L 174.094884 294.406624 
L 174.176068 293.678829 
L 174.338436 294.287653 
L 174.419619 294.219486 
L 174.581987 294.448317 
L 174.906723 294.303403 
L 175.069091 294.310134 
L 175.231459 294.194923 
L 175.393827 294.550301 
L 175.88093 294.26785 
L 175.962114 294.233779 
L 176.205666 294.529915 
L 176.368034 294.582667 
L 176.449218 294.650569 
L 176.611586 294.370044 
L 176.69277 294.379112 
L 176.773953 294.233989 
L 176.855137 294.500201 
L 176.936321 294.403851 
L 177.179873 294.638507 
L 177.261057 294.459123 
L 177.342241 294.551639 
L 177.504609 294.339633 
L 178.15408 294.660512 
L 178.316448 294.427685 
L 178.722368 294.399681 
L 178.803552 294.593833 
L 178.884736 294.521673 
L 178.96592 294.48387 
L 179.047104 294.802997 
L 179.128288 294.476557 
L 179.209471 294.576834 
L 179.290655 294.338513 
L 179.371839 294.422632 
L 179.453023 294.374555 
L 179.534207 294.51708 
L 179.615391 294.41423 
L 179.858943 294.683319 
L 180.021311 294.528965 
L 180.183679 294.440976 
L 180.264863 294.28859 
L 180.346047 294.556236 
L 180.42723 294.484768 
L 180.670782 294.755508 
L 181.076702 294.505287 
L 181.23907 294.508088 
L 181.726173 294.475058 
L 182.132093 294.519892 
L 182.375645 294.577195 
L 182.943932 294.521453 
L 183.025116 294.628056 
L 183.1063 294.555755 
L 183.268668 294.727612 
L 183.349852 294.637735 
L 183.431036 294.728643 
L 183.593404 294.382327 
L 183.674588 294.52573 
L 183.755772 294.475793 
L 184.161691 294.619427 
L 184.405243 294.553188 
L 184.567611 294.515344 
L 184.729979 294.617139 
L 184.892347 294.863987 
L 184.973531 294.717428 
L 185.054715 294.570727 
L 185.217082 294.657389 
L 185.298266 294.408982 
L 185.37945 294.515594 
L 185.541818 294.461474 
L 185.78537 294.709401 
L 185.947738 294.622367 
L 186.19129 294.515163 
L 186.434841 294.674585 
L 186.597209 294.65297 
L 186.678393 294.594498 
L 186.840761 294.662914 
L 186.921945 294.692876 
L 187.165497 294.475066 
L 187.246681 294.445212 
L 187.409049 294.669119 
L 187.490233 294.663749 
L 187.571416 294.83667 
L 187.814968 294.62514 
L 187.896152 294.517916 
L 187.977336 294.580389 
L 188.302072 294.672606 
L 188.46444 294.774884 
L 188.870359 294.548052 
L 189.032727 294.603277 
L 189.113911 294.791031 
L 189.195095 294.70051 
L 189.357463 294.840193 
L 189.438647 294.544697 
L 189.519831 294.684076 
L 189.601015 294.604994 
L 190.250486 294.622586 
L 190.412854 294.611273 
L 190.73759 294.571772 
L 190.899958 294.764968 
L 191.305877 294.650571 
L 191.387061 294.498972 
L 191.468245 294.551213 
L 191.549429 294.546282 
L 191.711797 294.687214 
L 192.117717 294.651057 
L 192.361268 294.524546 
L 192.523636 294.692761 
L 192.848372 294.805847 
L 193.254292 294.602923 
L 193.335476 294.767705 
L 193.41666 294.711101 
L 193.497844 294.594673 
L 193.579027 294.813144 
L 193.660211 294.750899 
L 194.228499 294.600261 
L 194.472051 294.808147 
L 194.715603 294.612897 
L 195.121522 294.749391 
L 195.28389 294.744372 
L 195.527442 294.738477 
L 195.852178 294.596949 
L 196.095729 294.751892 
L 196.258097 294.813058 
L 196.339281 294.611597 
L 196.420465 294.678577 
L 196.745201 294.714024 
L 196.826385 294.820287 
L 196.907569 294.70499 
L 196.988753 294.819914 
L 197.232304 294.674202 
L 197.313488 294.766759 
L 197.394672 294.646762 
L 197.475856 294.704511 
L 197.638224 294.721126 
L 197.719408 294.859303 
L 197.881776 294.746265 
L 198.044144 294.766243 
L 198.287696 294.569997 
L 198.450063 294.669317 
L 199.018351 294.68204 
L 199.343087 294.603489 
L 199.505455 294.826691 
L 200.154926 294.601029 
L 200.398478 294.78744 
L 200.723214 294.74799 
L 200.885581 294.568428 
L 201.047949 294.666187 
L 201.129133 294.660772 
L 201.291501 294.901661 
L 201.859789 294.56123 
L 201.940973 294.744204 
L 202.022156 294.707239 
L 202.10334 294.639475 
L 202.346892 294.865025 
L 202.590444 294.600282 
L 202.671628 294.719334 
L 202.752812 294.646243 
L 202.91518 294.794104 
L 203.158732 294.835142 
L 203.321099 294.822097 
L 203.402283 294.790961 
L 203.483467 294.594999 
L 203.564651 294.700358 
L 203.645835 294.613874 
L 203.808203 294.68653 
L 203.970571 294.766768 
L 204.051755 294.893598 
L 204.214123 294.645291 
L 204.295307 294.730906 
L 204.457674 294.641095 
L 204.620042 294.737884 
L 204.863594 294.864567 
L 204.944778 294.68423 
L 205.025962 294.722194 
L 205.269514 294.698048 
L 205.431882 294.714392 
L 205.756617 294.901725 
L 205.837801 294.665892 
L 205.918985 294.754056 
L 206.000169 294.782447 
L 206.162537 294.669842 
L 206.406089 294.691085 
L 206.568457 294.844124 
L 206.812008 294.798827 
L 207.136744 294.708552 
L 207.46148 294.898925 
L 207.542664 294.670878 
L 207.623848 294.727718 
L 207.705032 294.735809 
L 207.8674 294.635911 
L 208.029767 294.765997 
L 208.110951 294.646847 
L 208.273319 294.81665 
L 208.435687 294.665523 
L 208.516871 294.832609 
L 208.598055 294.582486 
L 208.679239 294.66037 
L 209.32871 294.791292 
L 209.409894 294.550647 
L 209.491078 294.753594 
L 209.572262 294.68208 
L 209.815814 294.777758 
L 210.059366 294.895515 
L 210.221734 294.664167 
L 210.302918 294.791358 
L 210.465285 294.717981 
L 210.546469 294.678034 
L 210.790021 294.838017 
L 210.952389 294.782953 
L 211.033573 294.787598 
L 211.195941 294.655872 
L 211.277125 294.781202 
L 211.358309 294.653521 
L 211.520677 294.791814 
L 211.60186 294.68495 
L 211.845412 295.119813 
L 212.00778 294.644399 
L 212.170148 294.727698 
L 212.332516 294.696506 
L 212.576068 294.856754 
L 212.819619 294.720348 
L 213.144355 294.899842 
L 213.306723 294.71749 
L 213.550275 294.844869 
L 213.712643 294.71912 
L 213.875011 294.757821 
L 213.956195 294.733848 
L 214.037378 294.885439 
L 214.118562 294.707433 
L 214.28093 294.883119 
L 214.443298 294.809956 
L 214.605666 294.714021 
L 214.768034 294.742255 
L 214.930402 294.719587 
L 215.09277 294.869862 
L 215.417505 294.551077 
L 215.498689 294.661902 
L 215.661057 294.824289 
L 215.742241 294.732132 
L 215.985793 294.96521 
L 216.310529 294.767007 
L 216.391712 294.696489 
L 216.55408 294.733812 
L 216.635264 294.647322 
L 216.716448 294.109091 
L 216.797632 294.874323 
L 216.878816 294.83759 
L 217.122368 294.671079 
L 217.284736 294.68912 
L 217.36592 294.633598 
L 217.528288 294.915575 
L 217.609471 294.857902 
L 217.690655 294.778418 
L 217.771839 294.875098 
L 217.934207 294.605203 
L 218.015391 294.545431 
L 218.258943 294.760019 
L 218.340127 294.633101 
L 218.502495 294.856043 
L 218.664863 294.835779 
L 218.82723 294.67021 
L 218.908414 294.317005 
L 219.151966 295.081747 
L 219.314334 294.729723 
L 219.476702 294.93069 
L 219.801438 294.710954 
L 219.963805 294.692463 
L 220.126173 294.981373 
L 220.207357 294.697977 
L 220.288541 294.792215 
L 220.369725 295.048477 
L 220.450909 295.000466 
L 220.694461 294.582887 
L 220.775645 294.69122 
L 220.856829 294.519765 
L 221.019197 294.782627 
L 221.262748 294.806633 
L 221.343932 294.663325 
L 221.425116 294.730119 
L 221.5063 294.630754 
L 221.587484 295.014488 
L 221.749852 294.590438 
L 221.993404 294.934488 
L 222.074588 294.925919 
L 222.399323 294.407674 
L 222.480507 294.722399 
L 222.561691 294.5862 
L 222.805243 294.96958 
L 222.967611 294.860673 
L 223.048795 294.949471 
L 223.211163 294.718371 
L 223.535899 294.74833 
L 223.77945 295.049226 
L 223.860634 294.842265 
L 223.941818 294.947378 
L 224.023002 290.76909 
L 224.18537 294.750226 
L 224.266554 294.40561 
L 224.510106 294.850345 
L 224.672474 295.098976 
L 225.159577 293.228212 
L 225.403129 294.687328 
L 225.565497 295.007237 
L 226.0526 294.590956 
L 226.133784 294.751695 
L 226.214968 295.235505 
L 226.296152 294.703289 
L 226.377336 294.968624 
L 226.45852 290.349245 
L 226.539704 295.094678 
L 226.620888 294.84968 
L 226.702072 294.530791 
L 226.783256 294.583004 
L 226.945624 294.529421 
L 227.026808 294.661659 
L 227.189175 295.042373 
L 227.270359 295.275145 
L 227.513911 293.665061 
L 227.595095 293.85013 
L 227.676279 294.557043 
L 227.757463 293.639571 
L 228.001015 294.848569 
L 228.082199 294.703376 
L 228.244567 294.881313 
L 228.569302 294.503095 
L 228.650486 293.494368 
L 228.73167 294.917917 
L 228.812854 294.820325 
L 228.894038 286.256057 
L 228.975222 294.957707 
L 229.056406 294.901865 
L 229.13759 295.359969 
L 229.299958 294.684455 
L 229.462326 294.448029 
L 229.54351 294.867775 
L 229.624693 294.769137 
L 229.705877 295.091979 
L 229.868245 294.480732 
L 230.030613 289.340197 
L 230.111797 293.900425 
L 230.192981 292.991677 
L 230.355349 295.282518 
L 230.517717 294.894426 
L 230.680085 294.875654 
L 230.761268 295.16895 
L 230.842452 295.11936 
L 231.00482 294.83431 
L 231.086004 291.625103 
L 231.248372 294.66391 
L 231.329556 222.374819 
L 231.491924 294.173439 
L 231.573108 294.927707 
L 231.654292 294.539518 
L 231.735476 294.560716 
L 231.81666 294.428936 
L 231.979027 294.692721 
L 232.060211 294.568989 
L 232.141395 294.725474 
L 232.222579 294.304918 
L 232.303763 295.169124 
L 232.466131 291.743545 
L 232.547315 293.705921 
L 232.628499 289.071759 
L 232.872051 295.181771 
L 233.440338 294.544876 
L 233.521522 290.647487 
L 233.68389 294.315286 
L 233.765074 53.568 
L 233.927442 293.856955 
L 234.008626 292.343687 
L 234.170994 293.92967 
L 234.414545 294.824479 
L 234.495729 294.674759 
L 234.576913 295.158183 
L 234.658097 293.68997 
L 234.901649 294.977382 
L 234.982833 295.040192 
L 235.064017 292.753558 
L 235.145201 292.822959 
L 235.226385 294.575285 
L 235.307569 294.508321 
L 235.388753 294.994131 
L 235.713488 294.017553 
L 235.794672 294.147022 
L 235.875856 294.006996 
L 235.95704 291.140886 
L 236.038224 294.363723 
L 236.119408 293.472013 
L 236.200592 289.901297 
L 236.36296 294.363723 
L 236.444144 291.140886 
L 236.606512 294.147022 
L 236.687696 294.017553 
L 236.768879 294.124257 
L 237.012431 294.994131 
L 237.093615 294.508321 
L 237.174799 294.575285 
L 237.337167 292.753558 
L 237.418351 295.040192 
L 237.499535 294.977382 
L 237.743087 293.68997 
L 237.824271 295.158183 
L 237.905455 294.674759 
L 237.986638 294.824479 
L 238.392558 292.343687 
L 238.473742 293.856955 
L 238.554926 293.427283 
L 238.63611 53.568 
L 238.717294 294.315286 
L 238.798478 293.784405 
L 238.879662 290.647487 
L 239.04203 294.83351 
L 239.529133 295.181771 
L 239.610317 294.403663 
L 239.772685 289.071759 
L 239.853869 293.705921 
L 239.935053 291.743545 
L 240.097421 295.169124 
L 240.178605 294.304918 
L 240.259789 294.725474 
L 240.340973 294.568989 
L 240.422156 294.692721 
L 240.584524 294.428936 
L 240.828076 294.927707 
L 240.990444 294.048138 
L 241.071628 222.374819 
L 241.152812 294.66391 
L 241.233996 294.267555 
L 241.31518 291.625103 
L 241.477548 294.992277 
L 241.639915 295.16895 
L 241.802283 294.838884 
L 241.964651 294.949105 
L 242.045835 295.282518 
L 242.208203 292.991677 
L 242.289387 293.900425 
L 242.370571 289.340197 
L 242.695307 295.091979 
L 242.938858 294.448029 
L 243.101226 294.684455 
L 243.18241 294.793232 
L 243.263594 295.359969 
L 243.344778 294.901865 
L 243.425962 294.957707 
L 243.507146 286.256057 
L 243.669514 294.917917 
L 243.750698 293.494368 
L 243.913066 294.616589 
L 244.075433 294.774644 
L 244.156617 294.881313 
L 244.318985 294.703376 
L 244.400169 294.848569 
L 244.562537 294.261336 
L 244.643721 293.639571 
L 244.724905 294.557043 
L 244.887273 293.665061 
L 245.130825 295.275145 
L 245.45556 294.529421 
L 245.699112 294.530791 
L 245.86148 295.094678 
L 245.942664 290.349245 
L 246.023848 294.968624 
L 246.105032 294.703289 
L 246.186216 295.235505 
L 246.348584 294.590956 
L 246.429767 294.541577 
L 246.835687 295.007237 
L 246.998055 294.687328 
L 247.241607 293.228212 
L 247.403975 294.322556 
L 247.485159 294.069527 
L 247.647526 294.840424 
L 247.72871 295.098976 
L 248.13463 294.40561 
L 248.215814 294.750226 
L 248.296998 294.670933 
L 248.378182 290.76909 
L 248.459366 294.947378 
L 248.54055 294.842265 
L 248.621734 295.049226 
L 248.702918 294.997064 
L 248.946469 294.679674 
L 249.027653 294.817201 
L 249.190021 294.718371 
L 249.271205 294.739645 
L 249.352389 294.949471 
L 249.433573 294.860673 
L 249.595941 294.96958 
L 249.839493 294.5862 
L 249.920677 294.722399 
L 250.00186 294.407674 
L 250.326596 294.925919 
L 250.488964 294.899833 
L 250.651332 294.590438 
L 250.732516 294.681547 
L 250.8137 295.014488 
L 250.894884 294.630754 
L 250.976068 294.730119 
L 251.057252 294.663325 
L 251.219619 294.827454 
L 251.463171 294.756281 
L 251.544355 294.519765 
L 251.625539 294.69122 
L 251.706723 294.582887 
L 252.031459 295.048477 
L 252.193827 294.697977 
L 252.356195 294.965014 
L 252.518562 294.671278 
L 253.005666 294.94042 
L 253.08685 294.729723 
L 253.168034 294.787559 
L 253.249218 295.081747 
L 253.49277 294.317005 
L 253.655137 294.726579 
L 253.817505 294.854575 
L 253.979873 294.881346 
L 254.061057 294.633101 
L 254.142241 294.760019 
L 254.385793 294.545431 
L 254.548161 294.603629 
L 254.629345 294.875098 
L 254.710529 294.778418 
L 254.872896 294.915575 
L 255.035264 294.633598 
L 255.116448 294.68912 
L 255.603552 294.874323 
L 255.684736 294.109091 
L 255.847104 294.733812 
L 255.928288 294.788746 
L 256.090655 294.767007 
L 256.415391 294.96521 
L 256.658943 294.732132 
L 256.821311 294.790372 
L 256.983679 294.551077 
L 257.146047 294.779517 
L 257.389598 294.844687 
L 257.551966 294.708777 
L 257.795518 294.714021 
L 257.876702 294.691473 
L 258.120254 294.883119 
L 258.201438 294.892055 
L 258.282622 294.707433 
L 258.363805 294.885439 
L 258.526173 294.757821 
L 259.013277 294.767719 
L 259.175645 294.736634 
L 259.256829 294.899842 
L 259.338013 294.815217 
L 259.662748 294.687851 
L 259.825116 294.856754 
L 260.231036 294.727698 
L 260.31222 294.748911 
L 260.393404 294.644399 
L 260.474588 294.758495 
L 260.555772 295.119813 
L 260.71814 294.812225 
L 260.799323 294.68495 
L 260.961691 294.761894 
L 261.042875 294.653521 
L 261.124059 294.781202 
L 261.286427 294.672967 
L 261.529979 294.867788 
L 262.017082 294.679089 
L 262.098266 294.791358 
L 262.17945 294.664167 
L 262.341818 294.895515 
L 262.423002 294.801292 
L 262.666554 294.793534 
L 262.828922 294.68208 
L 262.910106 294.753594 
L 262.99129 294.550647 
L 263.153658 294.815007 
L 263.478393 294.689826 
L 263.559577 294.756852 
L 263.803129 294.582486 
L 263.884313 294.832609 
L 263.965497 294.665523 
L 264.046681 294.715152 
L 264.127865 294.81665 
L 264.290233 294.646847 
L 264.371416 294.765997 
L 264.4526 294.710355 
L 264.614968 294.613941 
L 264.777336 294.727718 
L 264.85852 294.670878 
L 265.020888 294.878797 
L 265.426808 294.605367 
L 265.589175 294.798827 
L 266.319831 294.678793 
L 266.482199 294.754056 
L 266.563383 294.665892 
L 266.644567 294.901725 
L 266.725751 294.76248 
L 266.806934 294.883029 
L 267.050486 294.654414 
L 267.375222 294.722194 
L 267.456406 294.68423 
L 267.618774 294.94388 
L 267.781142 294.737884 
L 267.862326 294.751402 
L 268.024693 294.63934 
L 268.105877 294.730906 
L 268.268245 294.707795 
L 268.349429 294.893598 
L 268.592981 294.68653 
L 268.674165 294.720731 
L 268.755349 294.613874 
L 268.836533 294.700358 
L 268.917717 294.594999 
L 269.080085 294.822097 
L 269.323636 294.777367 
L 269.486004 294.794104 
L 269.648372 294.646243 
L 269.729556 294.719334 
L 269.81074 294.600282 
L 269.891924 294.65996 
L 270.054292 294.865025 
L 270.135476 294.781857 
L 270.379027 294.707239 
L 270.460211 294.744204 
L 270.541395 294.56123 
L 270.622579 294.673522 
L 270.703763 294.509297 
L 270.947315 294.789397 
L 271.190867 294.884444 
L 271.353235 294.666187 
L 271.434419 294.700133 
L 271.515603 294.568428 
L 271.840338 294.833066 
L 272.327442 294.622834 
L 272.570994 294.70657 
L 272.814545 294.797363 
L 272.976913 294.802962 
L 273.139281 294.534288 
L 273.382833 294.68204 
L 273.869937 294.686221 
L 274.275856 294.696166 
L 274.438224 294.827254 
L 274.600592 294.737742 
L 274.681776 294.859303 
L 274.844144 294.667553 
L 275.087696 294.766759 
L 275.168879 294.674202 
L 275.250063 294.747776 
L 275.331247 294.718405 
L 275.412431 294.819914 
L 275.493615 294.70499 
L 275.574799 294.820287 
L 275.818351 294.64641 
L 275.980719 294.678577 
L 276.061903 294.611597 
L 276.224271 294.801764 
L 276.711374 294.566308 
L 276.954926 294.756811 
L 277.117294 294.744372 
L 277.198478 294.668591 
L 277.279662 294.749391 
L 277.44203 294.657716 
L 277.847949 294.705987 
L 278.010317 294.837631 
L 278.253869 294.623912 
L 278.416237 294.569537 
L 278.578605 294.635272 
L 278.822156 294.813144 
L 278.90334 294.594673 
L 279.065708 294.767705 
L 279.228076 294.582278 
L 279.552812 294.805847 
L 280.121099 294.513322 
L 280.608203 294.687663 
L 280.770571 294.676635 
L 280.932939 294.551213 
L 281.014123 294.498972 
L 281.17649 294.678678 
L 281.338858 294.712156 
L 281.58241 294.748196 
L 281.663594 294.571772 
L 281.744778 294.610447 
L 281.907146 294.613994 
L 282.313066 294.663253 
L 282.475433 294.734587 
L 282.637801 294.538978 
L 282.718985 294.617333 
L 282.962537 294.544697 
L 283.043721 294.840193 
L 283.124905 294.721864 
L 283.530825 294.548052 
L 283.612008 294.456047 
L 283.936744 294.774884 
L 284.017928 294.779675 
L 284.26148 294.625501 
L 284.505032 294.517916 
L 284.829767 294.83667 
L 284.992135 294.669119 
L 285.073319 294.639439 
L 285.235687 294.475066 
L 285.641607 294.694024 
L 285.803975 294.65297 
L 285.966342 294.674585 
L 286.372262 294.575708 
L 286.696998 294.750262 
L 286.94055 294.472426 
L 287.021734 294.515594 
L 287.102918 294.408982 
L 287.265285 294.65388 
L 287.346469 294.570727 
L 287.508837 294.863987 
L 287.752389 294.528966 
L 287.995941 294.553188 
L 288.158309 294.621042 
L 288.239493 294.619427 
L 288.320677 294.735676 
L 288.645412 294.475793 
L 288.726596 294.52573 
L 288.80778 294.382327 
L 288.970148 294.728643 
L 289.051332 294.637735 
L 289.132516 294.727612 
L 289.538436 294.395771 
L 289.700803 294.489452 
L 289.781987 294.595342 
L 289.944355 294.559761 
L 290.269091 294.519892 
L 290.675011 294.475058 
L 290.837378 294.662699 
L 291.243298 294.452273 
L 291.811586 294.698865 
L 291.973953 294.484768 
L 292.055137 294.556236 
L 292.136321 294.28859 
L 292.379873 294.528965 
L 292.461057 294.548661 
L 292.542241 294.683319 
L 292.785793 294.41423 
L 292.866977 294.51708 
L 292.948161 294.374555 
L 293.029345 294.422632 
L 293.110529 294.338513 
L 293.35408 294.802997 
L 293.435264 294.48387 
L 293.516448 294.521673 
L 293.597632 294.593833 
L 293.76 294.402022 
L 293.922368 294.377679 
L 294.409471 294.642125 
L 294.815391 294.384748 
L 294.977759 294.419547 
L 295.058943 294.551639 
L 295.140127 294.459123 
L 295.221311 294.638507 
L 295.302495 294.577228 
L 295.789598 294.370044 
L 296.03315 294.582667 
L 296.520254 294.26785 
L 296.763805 294.349176 
L 297.088541 294.564731 
L 297.169725 294.194923 
L 297.250909 294.241961 
L 297.575645 294.414587 
L 297.900381 294.406931 
L 297.981564 294.219486 
L 298.062748 294.287653 
L 298.143932 294.140862 
L 298.225116 293.678829 
L 298.3063 294.406624 
L 298.387484 294.296781 
L 298.468668 294.328168 
L 298.71222 294.62218 
L 298.874588 294.41765 
L 299.11814 294.313113 
L 299.280507 294.315646 
L 299.686427 294.372563 
L 299.929979 294.147205 
L 300.011163 294.135574 
L 300.335899 294.48712 
L 300.417082 294.339926 
L 300.498266 294.542233 
L 300.57945 294.39269 
L 300.660634 295.051763 
L 300.823002 294.09778 
L 300.98537 294.089713 
L 301.228922 294.465969 
L 301.310106 294.532828 
L 301.797209 293.973905 
L 302.040761 294.398054 
L 302.284313 294.196801 
L 302.446681 293.913212 
L 302.771416 294.380811 
L 302.8526 294.686943 
L 302.933784 294.230914 
L 303.014968 294.298535 
L 303.096152 294.579061 
L 303.25852 293.963922 
L 303.420888 293.974582 
L 303.502072 293.907848 
L 303.745624 294.226226 
L 304.232727 293.576069 
L 304.395095 294.097913 
L 304.476279 293.79213 
L 304.638647 294.261639 
L 304.719831 294.424908 
L 305.125751 293.512579 
L 305.206934 293.71889 
L 305.288118 294.253226 
L 305.450486 293.791367 
L 305.53167 291.445568 
L 305.612854 294.619124 
L 305.694038 294.378822 
L 305.93759 293.868399 
L 306.099958 293.78602 
L 306.181142 293.97223 
L 306.262326 293.812748 
L 306.34351 293.984856 
L 306.424693 293.825671 
L 306.505877 294.046424 
L 306.587061 293.982322 
L 306.749429 293.786217 
L 306.830613 293.798282 
L 306.911797 293.513384 
L 307.236533 294.22707 
L 307.480085 293.893397 
L 307.723636 292.939851 
L 307.886004 294.042195 
L 307.967188 293.50463 
L 308.048372 293.609415 
L 308.129556 293.705283 
L 308.21074 293.26661 
L 308.291924 293.438186 
L 308.454292 293.258807 
L 308.535476 293.299312 
L 308.697844 293.808486 
L 308.941395 294.418578 
L 309.103763 291.58827 
L 309.184947 293.57847 
L 309.266131 292.644602 
L 309.347315 293.034289 
L 309.509683 292.655943 
L 309.590867 292.613634 
L 309.915603 293.999803 
L 310.07797 293.096297 
L 310.159154 291.251586 
L 310.240338 293.78547 
L 310.321522 293.236201 
L 310.402706 291.020286 
L 310.48389 291.668658 
L 310.808626 292.69045 
L 310.88981 292.807986 
L 311.458097 291.394056 
L 311.620465 291.938314 
L 311.701649 291.8155 
L 311.782833 292.414416 
L 312.107569 291.27601 
L 312.351121 290.643185 
L 312.594672 286.847079 
L 312.675856 289.992715 
L 312.75704 288.166806 
L 312.838224 249.58355 
L 313.000592 291.518236 
L 313.081776 291.579101 
L 313.244144 294.946245 
L 313.406512 292.6268 
L 313.812431 283.758419 
L 313.974799 273.393011 
L 314.137167 293.50438 
L 314.218351 288.580651 
L 314.380719 293.650418 
L 314.461903 292.90268 
L 315.03019 278.986063 
L 315.111374 281.819871 
L 315.192558 279.531594 
L 315.273742 151.265512 
L 315.43611 278.303792 
L 315.923214 290.267038 
L 316.085581 287.150309 
L 316.247949 280.964983 
L 316.410317 262.074723 
L 316.491501 292.961423 
L 316.572685 291.994655 
L 316.653869 285.313822 
L 316.816237 293.488921 
L 316.897421 293.769912 
L 317.465708 275.827574 
L 317.546892 278.724282 
L 317.628076 276.89219 
L 317.70926 103.075158 
L 317.871628 268.352318 
L 318.358732 289.406789 
L 318.521099 292.72644 
L 318.683467 287.566726 
L 318.845835 275.036167 
L 318.927019 291.194343 
L 319.008203 285.505167 
L 319.089387 287.079757 
L 319.251755 292.776665 
L 319.332939 292.465025 
L 319.414123 292.633188 
L 319.57649 290.37205 
L 319.901226 283.503266 
L 319.98241 285.366067 
L 320.063594 284.506654 
L 320.144778 163.563672 
L 320.307146 274.400488 
L 320.631882 284.740334 
L 320.956617 293.067136 
L 321.037801 293.2207 
L 321.362537 288.630304 
L 321.443721 284.578269 
L 321.606089 292.623198 
L 321.687273 293.351098 
L 321.768457 292.932605 
L 322.012008 295.145067 
L 322.336744 293.358849 
L 322.417928 293.510567 
L 322.499112 294.245077 
L 322.580296 259.685543 
L 322.742664 288.574549 
L 323.392135 292.679589 
L 323.473319 292.700713 
L 323.554503 292.530492 
L 323.716871 290.767005 
L 323.798055 291.536491 
L 323.879239 290.044198 
L 323.960423 293.651827 
L 324.041607 293.463637 
L 324.122791 294.084398 
L 324.203975 293.699657 
L 324.366342 294.48671 
L 324.52871 294.052779 
L 324.772262 292.759132 
L 324.853446 293.311686 
L 324.93463 293.115692 
L 325.015814 288.317273 
L 325.178182 294.565372 
L 325.34055 295.388136 
L 325.665285 294.209352 
L 325.827653 294.198464 
L 325.990021 294.745969 
L 326.071205 295.061592 
L 326.152389 294.898911 
L 326.233573 295.108145 
L 326.477125 294.388394 
L 326.558309 294.49193 
L 326.639493 294.139958 
L 326.720677 294.246604 
L 327.045412 294.728752 
L 327.370148 294.153608 
L 327.451332 291.75949 
L 327.6137 294.696928 
L 327.938436 295.472839 
L 328.181987 294.789616 
L 328.263171 294.742582 
L 328.425539 295.050981 
L 328.506723 295.274009 
L 328.587907 294.263491 
L 328.669091 295.340458 
L 328.831459 294.743747 
L 328.912643 294.925986 
L 329.075011 294.658117 
L 329.318562 294.727914 
L 329.399746 294.850864 
L 329.562114 295.389334 
L 329.724482 295.109521 
L 329.805666 295.045573 
L 329.88685 293.931039 
L 329.968034 294.192037 
L 330.373953 294.798749 
L 330.536321 295.226087 
L 330.942241 294.533805 
L 331.023425 294.596843 
L 331.185793 294.773563 
L 331.348161 295.367933 
L 331.510529 295.271656 
L 331.75408 294.894284 
L 331.835264 294.841954 
L 332.16 295.275018 
L 332.241184 295.330349 
L 332.322368 295.012514 
L 332.403552 295.272351 
L 332.484736 295.011081 
L 332.56592 295.094099 
L 332.647104 294.916024 
L 332.890655 295.10014 
L 333.134207 295.431127 
L 333.215391 295.283407 
L 333.377759 294.838485 
L 333.458943 295.115451 
L 333.621311 294.738501 
L 333.702495 295.251419 
L 333.783679 295.22849 
L 333.864863 295.207837 
L 334.02723 295.417071 
L 334.189598 295.152736 
L 334.43315 295.078458 
L 334.514334 294.926383 
L 334.676702 295.148199 
L 334.757886 294.934115 
L 334.83907 295.396557 
L 334.920254 295.300446 
L 335.001438 295.401216 
L 335.244989 295.105108 
L 335.407357 295.167205 
L 335.488541 295.352672 
L 335.569725 295.288263 
L 335.732093 295.364094 
L 335.813277 295.280182 
L 335.894461 295.458429 
L 336.138013 295.022688 
L 336.300381 295.313065 
L 336.7063 295.341652 
L 336.949852 295.222361 
L 337.193404 295.184536 
L 337.355772 295.42906 
L 337.599323 295.288126 
L 337.761691 295.139907 
L 337.924059 295.301815 
L 338.167611 295.316908 
L 338.411163 295.376878 
L 338.654715 295.186746 
L 338.817082 295.325373 
L 339.304186 295.411887 
L 339.628922 295.2492 
L 339.953658 295.467971 
L 340.521945 295.276096 
L 340.927865 295.453567 
L 341.171416 295.256948 
L 341.333784 295.34616 
L 341.414968 295.239247 
L 341.496152 295.310937 
L 341.577336 295.431742 
L 341.739704 295.345772 
L 341.902072 295.359598 
L 341.983256 295.353065 
L 342.06444 295.171528 
L 342.145624 295.44351 
L 342.226808 295.331962 
L 342.713911 295.36087 
L 344.094038 295.398003 
L 344.175222 295.263606 
L 344.256406 295.405794 
L 344.33759 295.326077 
L 344.581142 295.452378 
L 344.824693 295.319426 
L 345.636533 295.44538 
L 345.717717 295.276624 
L 345.880085 295.422276 
L 346.042452 295.373706 
L 346.20482 295.310384 
L 346.367188 295.467741 
L 346.529556 295.281461 
L 346.61074 295.424546 
L 346.773108 295.289803 
L 346.935476 295.360691 
L 347.01666 295.298557 
L 347.179027 295.429615 
L 347.422579 295.405699 
L 347.584947 295.324165 
L 347.747315 295.303289 
L 348.072051 295.452344 
L 348.234419 295.307078 
L 348.396786 295.410651 
L 348.559154 295.204643 
L 348.802706 295.357138 
L 348.88389 295.300471 
L 349.046258 295.408643 
L 349.695729 295.31586 
L 349.776913 295.441482 
L 349.858097 295.353884 
L 350.020465 295.469376 
L 350.264017 295.26623 
L 350.913488 295.457342 
L 351.15704 295.240536 
L 351.319408 295.34717 
L 352.455983 295.412693 
L 352.618351 295.414357 
L 352.861903 295.237975 
L 353.105455 295.319713 
L 353.43019 295.451653 
L 353.592558 295.295777 
L 353.754926 295.358904 
L 353.917294 295.265423 
L 354.24203 295.449083 
L 354.566765 295.225858 
L 354.729133 295.268982 
L 355.297421 295.367977 
L 355.70334 295.273021 
L 356.028076 295.358909 
L 356.51518 295.149185 
L 356.677548 295.485773 
L 356.839915 295.395056 
L 357.002283 295.312916 
L 357.164651 295.354124 
L 357.245835 295.193561 
L 357.327019 295.364202 
L 357.408203 295.310511 
L 357.651755 295.393907 
L 358.057674 295.225434 
L 358.138858 295.280079 
L 358.220042 295.19598 
L 358.38241 295.339996 
L 358.625962 295.402296 
L 358.707146 295.374443 
L 358.78833 295.216684 
L 358.950698 295.316003 
L 359.113066 295.270686 
L 359.518985 295.363094 
L 359.600169 295.357632 
L 359.762537 295.207943 
L 360.493192 295.370235 
L 360.736744 295.190392 
L 360.980296 295.373364 
L 361.305032 295.243289 
L 361.386216 295.395148 
L 361.629767 295.237572 
L 362.035687 295.421117 
L 362.198055 295.170534 
L 362.522791 295.348409 
L 362.766342 295.446572 
L 362.847526 295.196317 
L 362.92871 295.33503 
L 363.009894 295.254139 
L 363.33463 295.255845 
L 363.496998 295.236084 
L 363.74055 295.368987 
L 363.821734 295.189435 
L 363.902918 295.364302 
L 364.065285 295.199392 
L 364.227653 295.186684 
L 364.633573 295.386263 
L 365.039493 295.160318 
L 365.20186 295.34207 
L 365.364228 295.213915 
L 365.526596 295.43825 
L 365.770148 295.256446 
L 366.0137 295.270781 
L 366.176068 295.332806 
L 366.257252 295.446191 
L 366.338436 295.338166 
L 366.419619 295.417194 
L 366.744355 295.163654 
L 366.825539 295.198488 
L 366.906723 295.375972 
L 367.069091 295.266932 
L 367.231459 295.362712 
L 367.556195 295.140062 
L 367.637378 295.303034 
L 367.718562 295.237773 
L 367.88093 295.324102 
L 368.124482 295.336394 
L 368.368034 295.231638 
L 368.449218 295.336114 
L 368.530402 295.209504 
L 368.611586 295.33003 
L 368.69277 295.206015 
L 368.855137 295.357994 
L 368.936321 295.467898 
L 369.017505 295.204451 
L 369.098689 295.297093 
L 369.179873 295.16289 
L 369.261057 295.213499 
L 369.504609 295.212879 
L 369.748161 295.427905 
L 369.910529 295.2656 
L 370.235264 295.181284 
L 370.397632 295.322815 
L 370.56 295.252069 
L 370.641184 295.469241 
L 370.722368 295.373901 
L 370.96592 295.1103 
L 371.453023 295.354899 
L 371.777759 295.225373 
L 372.102495 295.10959 
L 372.183679 295.357691 
L 372.264863 295.27736 
L 372.42723 295.330891 
L 372.751966 295.175117 
L 372.914334 295.226256 
L 373.157886 295.384351 
L 373.644989 295.193053 
L 374.375645 295.218697 
L 374.456829 295.110767 
L 374.700381 295.248716 
L 374.862748 295.327096 
L 375.025116 295.347022 
L 375.187484 295.179977 
L 375.268668 295.303861 
L 375.349852 295.102492 
L 375.51222 295.313246 
L 375.755772 295.296606 
L 376.324059 295.207135 
L 376.729979 295.42082 
L 376.973531 295.192321 
L 377.460634 295.321226 
L 377.623002 295.341003 
L 377.866554 295.205196 
L 378.110106 295.175153 
L 378.434841 295.329883 
L 378.759577 295.116373 
L 379.003129 295.253909 
L 379.084313 295.2594 
L 379.165497 295.46611 
L 379.490233 295.184076 
L 379.6526 295.251325 
L 379.733784 295.055837 
L 379.814968 295.301547 
L 379.896152 295.230853 
L 380.05852 295.312306 
L 380.545624 295.141663 
L 380.789175 295.28396 
L 380.951543 295.229315 
L 381.032727 295.359191 
L 381.195095 295.204524 
L 381.519831 295.187864 
L 381.763383 295.325783 
L 382.088118 295.174323 
L 382.250486 295.131539 
L 382.33167 295.165821 
L 382.412854 295.014964 
L 382.575222 295.370426 
L 382.818774 295.209215 
L 382.899958 295.285043 
L 383.062326 295.144378 
L 383.14351 295.285838 
L 383.305877 295.158943 
L 383.468245 295.347056 
L 384.036533 295.107795 
L 384.198901 295.25117 
L 384.361268 295.408306 
L 384.523636 295.304479 
L 384.848372 295.096154 
L 384.929556 295.180519 
L 385.01074 295.079717 
L 385.091924 295.328471 
L 385.254292 295.232751 
L 385.41666 295.208445 
L 385.660211 295.075849 
L 385.741395 295.271867 
L 385.822579 295.082291 
L 385.903763 295.326376 
L 385.984947 295.240762 
L 386.066131 295.238369 
L 386.228499 295.353962 
L 386.472051 295.174621 
L 386.959154 295.313481 
L 387.040338 294.998177 
L 387.121522 295.418096 
L 387.202706 295.30573 
L 387.446258 295.277388 
L 387.770994 295.232485 
L 388.095729 295.394862 
L 388.176913 295.032394 
L 388.339281 295.320404 
L 388.420465 295.131708 
L 388.501649 295.195902 
L 388.582833 295.078847 
L 388.745201 295.3376 
L 388.907569 295.318782 
L 389.232304 295.126023 
L 389.394672 295.367039 
L 389.475856 295.167492 
L 389.55704 295.283315 
L 389.719408 295.100298 
L 389.800592 295.160304 
L 389.881776 295.077912 
L 390.125328 295.183745 
L 390.206512 295.143019 
L 390.368879 295.36375 
L 390.612431 295.036792 
L 390.693615 295.237708 
L 390.855983 295.091738 
L 391.667822 295.153515 
L 391.83019 295.035331 
L 391.911374 295.119758 
L 391.992558 294.798336 
L 392.23611 295.089905 
L 392.479662 295.071939 
L 392.64203 294.928547 
L 393.047949 294.310941 
L 393.129133 295.136623 
L 393.210317 295.037411 
L 393.291501 295.315397 
L 393.372685 295.08471 
L 393.453869 295.214298 
L 393.535053 295.149243 
L 393.778605 295.189287 
L 394.022156 294.90819 
L 394.184524 294.913503 
L 394.265708 294.874441 
L 394.346892 292.763001 
L 394.50926 295.080722 
L 394.590444 295.091173 
L 394.752812 295.311458 
L 394.91518 295.036256 
L 395.321099 294.105685 
L 395.483467 292.369937 
L 395.564651 295.086959 
L 395.645835 295.03069 
L 395.727019 295.032801 
L 395.889387 295.222031 
L 396.051755 295.223947 
L 396.214123 294.805936 
L 396.538858 294.577576 
L 396.620042 295.007823 
L 396.701226 294.772091 
L 396.78241 289.469813 
L 396.944778 294.042602 
L 397.269514 294.753862 
L 397.594249 294.40814 
L 397.756617 293.997403 
L 397.837801 293.018671 
L 397.918985 289.839342 
L 398.081353 294.99415 
L 398.162537 294.582567 
L 398.324905 294.928977 
L 398.487273 294.96295 
L 398.487273 294.96295 
" style="fill:none;stroke:#1f77b4;stroke-linecap:square;stroke-width:1.5;"/>
   </g>
   <g id="patch_3">
    <path d="M 57.6 307.584 
L 57.6 41.472 
" style="fill:none;stroke:#000000;stroke-linecap:square;stroke-linejoin:miter;stroke-width:0.8;"/>
   </g>
   <g id="patch_4">
    <path d="M 414.72 307.584 
L 414.72 41.472 
" style="fill:none;stroke:#000000;stroke-linecap:square;stroke-linejoin:miter;stroke-width:0.8;"/>
   </g>
   <g id="patch_5">
    <path d="M 57.6 307.584 
L 414.72 307.584 
" style="fill:none;stroke:#000000;stroke-linecap:square;stroke-linejoin:miter;stroke-width:0.8;"/>
   </g>
   <g id="patch_6">
    <path d="M 57.6 41.472 
L 414.72 41.472 
" style="fill:none;stroke:#000000;stroke-linecap:square;stroke-linejoin:miter;stroke-width:0.8;"/>
   </g>
   <g id="text_18">
    <!-- AM frequency domain -->
    <g transform="translate(170.502187 35.472)scale(0.12 -0.12)">
     <defs>
      <path d="M 2188 4044 
L 1331 1722 
L 3047 1722 
L 2188 4044 
z
M 1831 4666 
L 2547 4666 
L 4325 0 
L 3669 0 
L 3244 1197 
L 1141 1197 
L 716 0 
L 50 0 
L 1831 4666 
z
" id="DejaVuSans-41" transform="scale(0.015625)"/>
      <path d="M 628 4666 
L 1569 4666 
L 2759 1491 
L 3956 4666 
L 4897 4666 
L 4897 0 
L 4281 0 
L 4281 4097 
L 3078 897 
L 2444 897 
L 1241 4097 
L 1241 0 
L 628 0 
L 628 4666 
z
" id="DejaVuSans-4d" transform="scale(0.015625)"/>
      <path d="M 1959 3097 
Q 1497 3097 1228 2736 
Q 959 2375 959 1747 
Q 959 1119 1226 758 
Q 1494 397 1959 397 
Q 2419 397 2687 759 
Q 2956 1122 2956 1747 
Q 2956 2369 2687 2733 
Q 2419 3097 1959 3097 
z
M 1959 3584 
Q 2709 3584 3137 3096 
Q 3566 2609 3566 1747 
Q 3566 888 3137 398 
Q 2709 -91 1959 -91 
Q 1206 -91 779 398 
Q 353 888 353 1747 
Q 353 2609 779 3096 
Q 1206 3584 1959 3584 
z
" id="DejaVuSans-6f" transform="scale(0.015625)"/>
     </defs>
     <use xlink:href="#DejaVuSans-41"/>
     <use x="68.408203" xlink:href="#DejaVuSans-4d"/>
     <use x="154.6875" xlink:href="#DejaVuSans-20"/>
     <use x="186.474609" xlink:href="#DejaVuSans-66"/>
     <use x="221.679688" xlink:href="#DejaVuSans-72"/>
     <use x="260.542969" xlink:href="#DejaVuSans-65"/>
     <use x="322.066406" xlink:href="#DejaVuSans-71"/>
     <use x="385.542969" xlink:href="#DejaVuSans-75"/>
     <use x="448.921875" xlink:href="#DejaVuSans-65"/>
     <use x="510.445312" xlink:href="#DejaVuSans-6e"/>
     <use x="573.824219" xlink:href="#DejaVuSans-63"/>
     <use x="628.804688" xlink:href="#DejaVuSans-79"/>
     <use x="687.984375" xlink:href="#DejaVuSans-20"/>
     <use x="719.771484" xlink:href="#DejaVuSans-64"/>
     <use x="783.248047" xlink:href="#DejaVuSans-6f"/>
     <use x="844.429688" xlink:href="#DejaVuSans-6d"/>
     <use x="941.841797" xlink:href="#DejaVuSans-61"/>
     <use x="1003.121094" xlink:href="#DejaVuSans-69"/>
     <use x="1030.904297" xlink:href="#DejaVuSans-6e"/>
    </g>
   </g>
  </g>
 </g>
 <defs>
  <clipPath id="pd957d373f6">
   <rect height="266.112" width="357.12" x="57.6" y="41.472"/>
  </clipPath>
 </defs>
</svg>
