<?xml version="1.0" encoding="utf-8" standalone="no"?>
<!DOCTYPE svg PUBLIC "-//W3C//DTD SVG 1.1//EN"
  "http://www.w3.org/Graphics/SVG/1.1/DTD/svg11.dtd">
<svg height="345.6pt" version="1.1" viewBox="0 0 460.8 345.6" width="460.8pt" xmlns="http://www.w3.org/2000/svg" xmlns:xlink="http://www.w3.org/1999/xlink">
 <metadata>
  <rdf:RDF xmlns:cc="http://creativecommons.org/ns#" xmlns:dc="http://purl.org/dc/elements/1.1/" xmlns:rdf="http://www.w3.org/1999/02/22-rdf-syntax-ns#">
   <cc:Work>
    <dc:type rdf:resource="http://purl.org/dc/dcmitype/StillImage"/>
    <dc:date>2021-12-13T12:13:00.629820</dc:date>
    <dc:format>image/svg+xml</dc:format>
    <dc:creator>
     <cc:Agent>
      <dc:title>Matplotlib v3.4.3, https://matplotlib.org/</dc:title>
     </cc:Agent>
    </dc:creator>
   </cc:Work>
  </rdf:RDF>
 </metadata>
 <defs>
  <style type="text/css">*{stroke-linecap:butt;stroke-linejoin:round;}</style>
 </defs>
 <g id="figure_1">
  <g id="patch_1">
   <path d="M 0 345.6 
L 460.8 345.6 
L 460.8 0 
L 0 0 
z
" style="fill:#ffffff;"/>
  </g>
  <g id="axes_1">
   <g id="patch_2">
    <path d="M 57.6 307.584 
L 414.72 307.584 
L 414.72 41.472 
L 57.6 41.472 
z
" style="fill:#ffffff;"/>
   </g>
   <g id="matplotlib.axis_1">
    <g id="xtick_1">
     <g id="line2d_1">
      <defs>
       <path d="M 0 0 
L 0 3.5 
" id="m0549d28a37" style="stroke:#000000;stroke-width:0.8;"/>
      </defs>
      <g>
       <use style="stroke:#000000;stroke-width:0.8;" x="73.832727" xlink:href="#m0549d28a37" y="307.584"/>
      </g>
     </g>
     <g id="text_1">
      <!-- 0 -->
      <g transform="translate(70.651477 322.182437)scale(0.1 -0.1)">
       <defs>
        <path d="M 2034 4250 
Q 1547 4250 1301 3770 
Q 1056 3291 1056 2328 
Q 1056 1369 1301 889 
Q 1547 409 2034 409 
Q 2525 409 2770 889 
Q 3016 1369 3016 2328 
Q 3016 3291 2770 3770 
Q 2525 4250 2034 4250 
z
M 2034 4750 
Q 2819 4750 3233 4129 
Q 3647 3509 3647 2328 
Q 3647 1150 3233 529 
Q 2819 -91 2034 -91 
Q 1250 -91 836 529 
Q 422 1150 422 2328 
Q 422 3509 836 4129 
Q 1250 4750 2034 4750 
z
" id="DejaVuSans-30" transform="scale(0.015625)"/>
       </defs>
       <use xlink:href="#DejaVuSans-30"/>
      </g>
     </g>
    </g>
    <g id="xtick_2">
     <g id="line2d_2">
      <g>
       <use style="stroke:#000000;stroke-width:0.8;" x="138.763636" xlink:href="#m0549d28a37" y="307.584"/>
      </g>
     </g>
     <g id="text_2">
      <!-- 100 -->
      <g transform="translate(129.219886 322.182437)scale(0.1 -0.1)">
       <defs>
        <path d="M 794 531 
L 1825 531 
L 1825 4091 
L 703 3866 
L 703 4441 
L 1819 4666 
L 2450 4666 
L 2450 531 
L 3481 531 
L 3481 0 
L 794 0 
L 794 531 
z
" id="DejaVuSans-31" transform="scale(0.015625)"/>
       </defs>
       <use xlink:href="#DejaVuSans-31"/>
       <use x="63.623047" xlink:href="#DejaVuSans-30"/>
       <use x="127.246094" xlink:href="#DejaVuSans-30"/>
      </g>
     </g>
    </g>
    <g id="xtick_3">
     <g id="line2d_3">
      <g>
       <use style="stroke:#000000;stroke-width:0.8;" x="203.694545" xlink:href="#m0549d28a37" y="307.584"/>
      </g>
     </g>
     <g id="text_3">
      <!-- 200 -->
      <g transform="translate(194.150795 322.182437)scale(0.1 -0.1)">
       <defs>
        <path d="M 1228 531 
L 3431 531 
L 3431 0 
L 469 0 
L 469 531 
Q 828 903 1448 1529 
Q 2069 2156 2228 2338 
Q 2531 2678 2651 2914 
Q 2772 3150 2772 3378 
Q 2772 3750 2511 3984 
Q 2250 4219 1831 4219 
Q 1534 4219 1204 4116 
Q 875 4013 500 3803 
L 500 4441 
Q 881 4594 1212 4672 
Q 1544 4750 1819 4750 
Q 2544 4750 2975 4387 
Q 3406 4025 3406 3419 
Q 3406 3131 3298 2873 
Q 3191 2616 2906 2266 
Q 2828 2175 2409 1742 
Q 1991 1309 1228 531 
z
" id="DejaVuSans-32" transform="scale(0.015625)"/>
       </defs>
       <use xlink:href="#DejaVuSans-32"/>
       <use x="63.623047" xlink:href="#DejaVuSans-30"/>
       <use x="127.246094" xlink:href="#DejaVuSans-30"/>
      </g>
     </g>
    </g>
    <g id="xtick_4">
     <g id="line2d_4">
      <g>
       <use style="stroke:#000000;stroke-width:0.8;" x="268.625455" xlink:href="#m0549d28a37" y="307.584"/>
      </g>
     </g>
     <g id="text_4">
      <!-- 300 -->
      <g transform="translate(259.081705 322.182437)scale(0.1 -0.1)">
       <defs>
        <path d="M 2597 2516 
Q 3050 2419 3304 2112 
Q 3559 1806 3559 1356 
Q 3559 666 3084 287 
Q 2609 -91 1734 -91 
Q 1441 -91 1130 -33 
Q 819 25 488 141 
L 488 750 
Q 750 597 1062 519 
Q 1375 441 1716 441 
Q 2309 441 2620 675 
Q 2931 909 2931 1356 
Q 2931 1769 2642 2001 
Q 2353 2234 1838 2234 
L 1294 2234 
L 1294 2753 
L 1863 2753 
Q 2328 2753 2575 2939 
Q 2822 3125 2822 3475 
Q 2822 3834 2567 4026 
Q 2313 4219 1838 4219 
Q 1578 4219 1281 4162 
Q 984 4106 628 3988 
L 628 4550 
Q 988 4650 1302 4700 
Q 1616 4750 1894 4750 
Q 2613 4750 3031 4423 
Q 3450 4097 3450 3541 
Q 3450 3153 3228 2886 
Q 3006 2619 2597 2516 
z
" id="DejaVuSans-33" transform="scale(0.015625)"/>
       </defs>
       <use xlink:href="#DejaVuSans-33"/>
       <use x="63.623047" xlink:href="#DejaVuSans-30"/>
       <use x="127.246094" xlink:href="#DejaVuSans-30"/>
      </g>
     </g>
    </g>
    <g id="xtick_5">
     <g id="line2d_5">
      <g>
       <use style="stroke:#000000;stroke-width:0.8;" x="333.556364" xlink:href="#m0549d28a37" y="307.584"/>
      </g>
     </g>
     <g id="text_5">
      <!-- 400 -->
      <g transform="translate(324.012614 322.182437)scale(0.1 -0.1)">
       <defs>
        <path d="M 2419 4116 
L 825 1625 
L 2419 1625 
L 2419 4116 
z
M 2253 4666 
L 3047 4666 
L 3047 1625 
L 3713 1625 
L 3713 1100 
L 3047 1100 
L 3047 0 
L 2419 0 
L 2419 1100 
L 313 1100 
L 313 1709 
L 2253 4666 
z
" id="DejaVuSans-34" transform="scale(0.015625)"/>
       </defs>
       <use xlink:href="#DejaVuSans-34"/>
       <use x="63.623047" xlink:href="#DejaVuSans-30"/>
       <use x="127.246094" xlink:href="#DejaVuSans-30"/>
      </g>
     </g>
    </g>
    <g id="xtick_6">
     <g id="line2d_6">
      <g>
       <use style="stroke:#000000;stroke-width:0.8;" x="398.487273" xlink:href="#m0549d28a37" y="307.584"/>
      </g>
     </g>
     <g id="text_6">
      <!-- 500 -->
      <g transform="translate(388.943523 322.182437)scale(0.1 -0.1)">
       <defs>
        <path d="M 691 4666 
L 3169 4666 
L 3169 4134 
L 1269 4134 
L 1269 2991 
Q 1406 3038 1543 3061 
Q 1681 3084 1819 3084 
Q 2600 3084 3056 2656 
Q 3513 2228 3513 1497 
Q 3513 744 3044 326 
Q 2575 -91 1722 -91 
Q 1428 -91 1123 -41 
Q 819 9 494 109 
L 494 744 
Q 775 591 1075 516 
Q 1375 441 1709 441 
Q 2250 441 2565 725 
Q 2881 1009 2881 1497 
Q 2881 1984 2565 2268 
Q 2250 2553 1709 2553 
Q 1456 2553 1204 2497 
Q 953 2441 691 2322 
L 691 4666 
z
" id="DejaVuSans-35" transform="scale(0.015625)"/>
       </defs>
       <use xlink:href="#DejaVuSans-35"/>
       <use x="63.623047" xlink:href="#DejaVuSans-30"/>
       <use x="127.246094" xlink:href="#DejaVuSans-30"/>
      </g>
     </g>
    </g>
    <g id="text_7">
     <!-- time [ms] -->
     <g transform="translate(211.898281 335.860562)scale(0.1 -0.1)">
      <defs>
       <path d="M 1172 4494 
L 1172 3500 
L 2356 3500 
L 2356 3053 
L 1172 3053 
L 1172 1153 
Q 1172 725 1289 603 
Q 1406 481 1766 481 
L 2356 481 
L 2356 0 
L 1766 0 
Q 1100 0 847 248 
Q 594 497 594 1153 
L 594 3053 
L 172 3053 
L 172 3500 
L 594 3500 
L 594 4494 
L 1172 4494 
z
" id="DejaVuSans-74" transform="scale(0.015625)"/>
       <path d="M 603 3500 
L 1178 3500 
L 1178 0 
L 603 0 
L 603 3500 
z
M 603 4863 
L 1178 4863 
L 1178 4134 
L 603 4134 
L 603 4863 
z
" id="DejaVuSans-69" transform="scale(0.015625)"/>
       <path d="M 3328 2828 
Q 3544 3216 3844 3400 
Q 4144 3584 4550 3584 
Q 5097 3584 5394 3201 
Q 5691 2819 5691 2113 
L 5691 0 
L 5113 0 
L 5113 2094 
Q 5113 2597 4934 2840 
Q 4756 3084 4391 3084 
Q 3944 3084 3684 2787 
Q 3425 2491 3425 1978 
L 3425 0 
L 2847 0 
L 2847 2094 
Q 2847 2600 2669 2842 
Q 2491 3084 2119 3084 
Q 1678 3084 1418 2786 
Q 1159 2488 1159 1978 
L 1159 0 
L 581 0 
L 581 3500 
L 1159 3500 
L 1159 2956 
Q 1356 3278 1631 3431 
Q 1906 3584 2284 3584 
Q 2666 3584 2933 3390 
Q 3200 3197 3328 2828 
z
" id="DejaVuSans-6d" transform="scale(0.015625)"/>
       <path d="M 3597 1894 
L 3597 1613 
L 953 1613 
Q 991 1019 1311 708 
Q 1631 397 2203 397 
Q 2534 397 2845 478 
Q 3156 559 3463 722 
L 3463 178 
Q 3153 47 2828 -22 
Q 2503 -91 2169 -91 
Q 1331 -91 842 396 
Q 353 884 353 1716 
Q 353 2575 817 3079 
Q 1281 3584 2069 3584 
Q 2775 3584 3186 3129 
Q 3597 2675 3597 1894 
z
M 3022 2063 
Q 3016 2534 2758 2815 
Q 2500 3097 2075 3097 
Q 1594 3097 1305 2825 
Q 1016 2553 972 2059 
L 3022 2063 
z
" id="DejaVuSans-65" transform="scale(0.015625)"/>
       <path id="DejaVuSans-20" transform="scale(0.015625)"/>
       <path d="M 550 4863 
L 1875 4863 
L 1875 4416 
L 1125 4416 
L 1125 -397 
L 1875 -397 
L 1875 -844 
L 550 -844 
L 550 4863 
z
" id="DejaVuSans-5b" transform="scale(0.015625)"/>
       <path d="M 2834 3397 
L 2834 2853 
Q 2591 2978 2328 3040 
Q 2066 3103 1784 3103 
Q 1356 3103 1142 2972 
Q 928 2841 928 2578 
Q 928 2378 1081 2264 
Q 1234 2150 1697 2047 
L 1894 2003 
Q 2506 1872 2764 1633 
Q 3022 1394 3022 966 
Q 3022 478 2636 193 
Q 2250 -91 1575 -91 
Q 1294 -91 989 -36 
Q 684 19 347 128 
L 347 722 
Q 666 556 975 473 
Q 1284 391 1588 391 
Q 1994 391 2212 530 
Q 2431 669 2431 922 
Q 2431 1156 2273 1281 
Q 2116 1406 1581 1522 
L 1381 1569 
Q 847 1681 609 1914 
Q 372 2147 372 2553 
Q 372 3047 722 3315 
Q 1072 3584 1716 3584 
Q 2034 3584 2315 3537 
Q 2597 3491 2834 3397 
z
" id="DejaVuSans-73" transform="scale(0.015625)"/>
       <path d="M 1947 4863 
L 1947 -844 
L 622 -844 
L 622 -397 
L 1369 -397 
L 1369 4416 
L 622 4416 
L 622 4863 
L 1947 4863 
z
" id="DejaVuSans-5d" transform="scale(0.015625)"/>
      </defs>
      <use xlink:href="#DejaVuSans-74"/>
      <use x="39.208984" xlink:href="#DejaVuSans-69"/>
      <use x="66.992188" xlink:href="#DejaVuSans-6d"/>
      <use x="164.404297" xlink:href="#DejaVuSans-65"/>
      <use x="225.927734" xlink:href="#DejaVuSans-20"/>
      <use x="257.714844" xlink:href="#DejaVuSans-5b"/>
      <use x="296.728516" xlink:href="#DejaVuSans-6d"/>
      <use x="394.140625" xlink:href="#DejaVuSans-73"/>
      <use x="446.240234" xlink:href="#DejaVuSans-5d"/>
     </g>
    </g>
   </g>
   <g id="matplotlib.axis_2">
    <g id="ytick_1">
     <g id="line2d_7">
      <defs>
       <path d="M 0 0 
L -3.5 0 
" id="me2889288f2" style="stroke:#000000;stroke-width:0.8;"/>
      </defs>
      <g>
       <use style="stroke:#000000;stroke-width:0.8;" x="57.6" xlink:href="#me2889288f2" y="295.488101"/>
      </g>
     </g>
     <g id="text_8">
      <!-- −1.00 -->
      <g transform="translate(19.954687 299.28732)scale(0.1 -0.1)">
       <defs>
        <path d="M 678 2272 
L 4684 2272 
L 4684 1741 
L 678 1741 
L 678 2272 
z
" id="DejaVuSans-2212" transform="scale(0.015625)"/>
        <path d="M 684 794 
L 1344 794 
L 1344 0 
L 684 0 
L 684 794 
z
" id="DejaVuSans-2e" transform="scale(0.015625)"/>
       </defs>
       <use xlink:href="#DejaVuSans-2212"/>
       <use x="83.789062" xlink:href="#DejaVuSans-31"/>
       <use x="147.412109" xlink:href="#DejaVuSans-2e"/>
       <use x="179.199219" xlink:href="#DejaVuSans-30"/>
       <use x="242.822266" xlink:href="#DejaVuSans-30"/>
      </g>
     </g>
    </g>
    <g id="ytick_2">
     <g id="line2d_8">
      <g>
       <use style="stroke:#000000;stroke-width:0.8;" x="57.6" xlink:href="#me2889288f2" y="265.248089"/>
      </g>
     </g>
     <g id="text_9">
      <!-- −0.75 -->
      <g transform="translate(19.954687 269.047308)scale(0.1 -0.1)">
       <defs>
        <path d="M 525 4666 
L 3525 4666 
L 3525 4397 
L 1831 0 
L 1172 0 
L 2766 4134 
L 525 4134 
L 525 4666 
z
" id="DejaVuSans-37" transform="scale(0.015625)"/>
       </defs>
       <use xlink:href="#DejaVuSans-2212"/>
       <use x="83.789062" xlink:href="#DejaVuSans-30"/>
       <use x="147.412109" xlink:href="#DejaVuSans-2e"/>
       <use x="179.199219" xlink:href="#DejaVuSans-37"/>
       <use x="242.822266" xlink:href="#DejaVuSans-35"/>
      </g>
     </g>
    </g>
    <g id="ytick_3">
     <g id="line2d_9">
      <g>
       <use style="stroke:#000000;stroke-width:0.8;" x="57.6" xlink:href="#me2889288f2" y="235.008076"/>
      </g>
     </g>
     <g id="text_10">
      <!-- −0.50 -->
      <g transform="translate(19.954687 238.807295)scale(0.1 -0.1)">
       <use xlink:href="#DejaVuSans-2212"/>
       <use x="83.789062" xlink:href="#DejaVuSans-30"/>
       <use x="147.412109" xlink:href="#DejaVuSans-2e"/>
       <use x="179.199219" xlink:href="#DejaVuSans-35"/>
       <use x="242.822266" xlink:href="#DejaVuSans-30"/>
      </g>
     </g>
    </g>
    <g id="ytick_4">
     <g id="line2d_10">
      <g>
       <use style="stroke:#000000;stroke-width:0.8;" x="57.6" xlink:href="#me2889288f2" y="204.768063"/>
      </g>
     </g>
     <g id="text_11">
      <!-- −0.25 -->
      <g transform="translate(19.954687 208.567282)scale(0.1 -0.1)">
       <use xlink:href="#DejaVuSans-2212"/>
       <use x="83.789062" xlink:href="#DejaVuSans-30"/>
       <use x="147.412109" xlink:href="#DejaVuSans-2e"/>
       <use x="179.199219" xlink:href="#DejaVuSans-32"/>
       <use x="242.822266" xlink:href="#DejaVuSans-35"/>
      </g>
     </g>
    </g>
    <g id="ytick_5">
     <g id="line2d_11">
      <g>
       <use style="stroke:#000000;stroke-width:0.8;" x="57.6" xlink:href="#me2889288f2" y="174.528051"/>
      </g>
     </g>
     <g id="text_12">
      <!-- 0.00 -->
      <g transform="translate(28.334375 178.327269)scale(0.1 -0.1)">
       <use xlink:href="#DejaVuSans-30"/>
       <use x="63.623047" xlink:href="#DejaVuSans-2e"/>
       <use x="95.410156" xlink:href="#DejaVuSans-30"/>
       <use x="159.033203" xlink:href="#DejaVuSans-30"/>
      </g>
     </g>
    </g>
    <g id="ytick_6">
     <g id="line2d_12">
      <g>
       <use style="stroke:#000000;stroke-width:0.8;" x="57.6" xlink:href="#me2889288f2" y="144.288038"/>
      </g>
     </g>
     <g id="text_13">
      <!-- 0.25 -->
      <g transform="translate(28.334375 148.087257)scale(0.1 -0.1)">
       <use xlink:href="#DejaVuSans-30"/>
       <use x="63.623047" xlink:href="#DejaVuSans-2e"/>
       <use x="95.410156" xlink:href="#DejaVuSans-32"/>
       <use x="159.033203" xlink:href="#DejaVuSans-35"/>
      </g>
     </g>
    </g>
    <g id="ytick_7">
     <g id="line2d_13">
      <g>
       <use style="stroke:#000000;stroke-width:0.8;" x="57.6" xlink:href="#me2889288f2" y="114.048025"/>
      </g>
     </g>
     <g id="text_14">
      <!-- 0.50 -->
      <g transform="translate(28.334375 117.847244)scale(0.1 -0.1)">
       <use xlink:href="#DejaVuSans-30"/>
       <use x="63.623047" xlink:href="#DejaVuSans-2e"/>
       <use x="95.410156" xlink:href="#DejaVuSans-35"/>
       <use x="159.033203" xlink:href="#DejaVuSans-30"/>
      </g>
     </g>
    </g>
    <g id="ytick_8">
     <g id="line2d_14">
      <g>
       <use style="stroke:#000000;stroke-width:0.8;" x="57.6" xlink:href="#me2889288f2" y="83.808013"/>
      </g>
     </g>
     <g id="text_15">
      <!-- 0.75 -->
      <g transform="translate(28.334375 87.607231)scale(0.1 -0.1)">
       <use xlink:href="#DejaVuSans-30"/>
       <use x="63.623047" xlink:href="#DejaVuSans-2e"/>
       <use x="95.410156" xlink:href="#DejaVuSans-37"/>
       <use x="159.033203" xlink:href="#DejaVuSans-35"/>
      </g>
     </g>
    </g>
    <g id="ytick_9">
     <g id="line2d_15">
      <g>
       <use style="stroke:#000000;stroke-width:0.8;" x="57.6" xlink:href="#me2889288f2" y="53.568"/>
      </g>
     </g>
     <g id="text_16">
      <!-- 1.00 -->
      <g transform="translate(28.334375 57.367219)scale(0.1 -0.1)">
       <use xlink:href="#DejaVuSans-31"/>
       <use x="63.623047" xlink:href="#DejaVuSans-2e"/>
       <use x="95.410156" xlink:href="#DejaVuSans-30"/>
       <use x="159.033203" xlink:href="#DejaVuSans-30"/>
      </g>
     </g>
    </g>
   </g>
   <g id="line2d_16">
    <path clip-path="url(#p7530a0c190)" d="M 73.832727 53.568 
L 73.897665 60.350287 
L 74.060008 126.452007 
L 74.384695 261.386171 
L 74.417164 262.441167 
L 74.449633 260.795122 
L 74.579507 232.796269 
L 74.904194 157.731458 
L 74.969132 160.147055 
L 75.26135 191.286963 
L 75.326288 186.708817 
L 75.488631 147.235087 
L 75.748381 86.597215 
L 75.813318 92.006298 
L 75.943193 135.275471 
L 76.332817 295.475821 
L 76.365286 293.477108 
L 76.495161 254.343997 
L 76.917254 86.652052 
L 76.982191 92.84262 
L 77.209472 159.170988 
L 77.404284 191.350143 
L 77.469222 188.680977 
L 77.76144 157.819083 
L 77.826378 162.699664 
L 77.988721 202.718065 
L 78.248471 262.457108 
L 78.313408 256.570534 
L 78.475752 196.109206 
L 78.832907 53.61712 
L 78.897845 61.530362 
L 79.060188 129.483151 
L 79.384875 261.761082 
L 79.417344 262.347642 
L 79.51475 249.108253 
L 79.904374 157.692555 
L 79.969312 160.612062 
L 80.26153 191.174732 
L 80.293999 189.482451 
L 80.423874 165.390985 
L 80.748561 86.62037 
L 80.781029 88.384415 
L 80.878435 110.541607 
L 81.332997 295.377593 
L 81.397935 286.901743 
L 81.560278 218.048088 
L 81.884965 87.137852 
L 81.917434 86.784044 
L 82.01484 100.594501 
L 82.404464 191.364947 
L 82.436933 190.509571 
L 82.566808 175.5346 
L 82.729151 157.849489 
L 82.76162 157.956072 
L 82.859026 168.859315 
L 83.248651 262.394668 
L 83.313588 255.551045 
L 83.475932 193.19886 
L 83.833087 53.764431 
L 83.930493 72.078989 
L 84.417524 262.177412 
L 84.482461 254.760028 
L 84.904554 157.701663 
L 85.001961 164.691446 
L 85.229241 191.261634 
L 85.26171 191.012843 
L 85.359116 179.660336 
L 85.748741 86.722272 
L 85.813678 94.045196 
L 85.976022 157.325468 
L 86.333177 295.181236 
L 86.430583 276.059106 
L 86.885145 86.883814 
L 86.982551 94.810358 
L 87.404644 191.332121 
L 87.469582 187.681839 
L 87.729331 157.75095 
L 87.794269 160.288699 
L 87.924144 185.99617 
L 88.248831 262.253134 
L 88.313768 254.450564 
L 88.476112 190.254134 
L 88.800799 53.983435 
L 88.833267 54.009786 
L 88.930673 73.934764 
L 89.385235 262.269286 
L 89.482641 253.716932 
L 89.904734 157.758001 
L 89.969672 161.644836 
L 90.229421 191.337053 
L 90.294359 188.503135 
L 90.424234 162.266965 
L 90.748921 86.903596 
L 90.846327 103.546258 
L 91.073608 215.261236 
L 91.300889 295.203137 
L 91.333357 294.886943 
L 91.430763 274.164038 
L 91.885325 86.709736 
L 91.982731 95.882279 
L 92.404824 191.252483 
L 92.469762 187.132757 
L 92.729511 157.698871 
L 92.794449 160.830194 
L 92.924324 187.589729 
L 93.216542 262.196032 
L 93.249011 262.031874 
L 93.346417 244.67834 
L 93.573698 132.259891 
L 93.800979 53.746984 
L 93.833447 54.352943 
L 93.930853 75.868658 
L 94.385415 262.403603 
L 94.482821 252.616646 
L 94.904914 157.86072 
L 94.969852 162.209592 
L 95.229602 191.365581 
L 95.294539 187.935723 
L 95.424414 160.658368 
L 95.716632 86.76888 
L 95.749101 87.164929 
L 95.846507 105.228095 
L 96.073788 218.325771 
L 96.301069 295.39058 
L 96.333537 294.495007 
L 96.430943 272.191793 
L 96.885505 86.615021 
L 96.950443 91.194049 
L 97.145255 145.60174 
L 97.372536 191.186978 
L 97.405005 191.126913 
L 97.502411 182.581891 
L 97.729692 157.694096 
L 97.76216 158.668556 
L 97.859566 172.25234 
L 98.216722 262.359328 
L 98.281659 258.290843 
L 98.411534 217.40022 
L 98.801159 53.608595 
L 98.833627 54.793562 
L 98.931033 77.878771 
L 99.385595 262.458886 
L 99.450533 257.452646 
L 99.645345 202.554724 
L 99.872626 157.809086 
L 99.905095 158.008904 
L 100.002501 166.846034 
L 100.229782 191.346409 
L 100.26225 190.224259 
L 100.359656 176.198407 
L 100.716812 86.643865 
L 100.781749 91.187084 
L 100.911624 132.928061 
L 101.301249 295.47988 
L 101.333717 294.005816 
L 101.431123 270.144307 
L 101.885685 86.598989 
L 101.950623 92.028856 
L 102.145435 147.39783 
L 102.372716 191.294724 
L 102.405185 190.956361 
L 102.535059 177.121519 
L 102.729872 157.7374 
L 102.76234 159.007967 
L 102.892215 181.544468 
L 103.216902 262.445834 
L 103.249371 261.348073 
L 103.346777 241.165415 
L 103.801339 53.568406 
L 103.898745 68.759617 
L 104.126026 181.792979 
L 104.385775 262.435858 
L 104.450713 256.586055 
L 104.645525 200.765269 
L 104.872806 157.725918 
L 104.937743 160.187855 
L 105.229962 191.278797 
L 105.294899 186.645704 
L 105.457242 147.072233 
L 105.716992 86.596085 
L 105.781929 92.091925 
L 105.911804 135.512603 
L 106.301429 295.470949 
L 106.333897 293.419855 
L 106.463772 254.113508 
L 106.885865 86.660876 
L 106.950803 92.926819 
L 107.178084 159.320758 
L 107.372896 191.353477 
L 107.437833 188.638552 
L 107.730052 157.829487 
L 107.794989 162.765112 
L 107.957332 202.88151 
L 108.217082 262.454681 
L 108.282019 256.481209 
L 108.444363 195.846117 
L 108.801519 53.626456 
L 108.866456 61.64214 
L 109.0288 129.759958 
L 109.353487 261.791157 
L 109.385955 262.335323 
L 109.483361 248.991595 
L 109.872986 157.69141 
L 109.905455 158.437676 
L 110.035329 173.180261 
L 110.230142 191.162075 
L 110.327548 180.626873 
L 110.717172 86.626369 
L 110.782109 93.078183 
L 110.944453 154.662345 
L 111.301609 295.363795 
L 111.366546 286.785874 
L 111.52889 217.770217 
L 111.853577 87.111439 
L 111.886045 86.799838 
L 111.983451 100.713387 
L 112.373076 191.363919 
L 112.405545 190.484427 
L 112.535419 175.458711 
L 112.697763 157.838635 
L 112.730232 157.970994 
L 112.827638 168.955971 
L 113.217262 262.38508 
L 113.282199 255.454343 
L 113.444543 192.932539 
L 113.801699 53.782687 
L 113.899105 72.244419 
L 114.386135 262.158165 
L 114.451073 254.667613 
L 114.873166 157.704845 
L 114.970572 164.753854 
L 115.197853 191.270406 
L 115.230322 190.995644 
L 115.327728 179.561531 
L 115.717352 86.735465 
L 115.78229 94.145576 
L 115.944633 157.593317 
L 116.301789 295.158525 
L 116.399195 275.890066 
L 116.853757 86.864693 
L 116.951163 94.905431 
L 117.373256 191.326803 
L 117.438193 187.633243 
L 117.697943 157.744282 
L 117.76288 160.335784 
L 117.892755 186.139769 
L 118.217442 262.236323 
L 118.314848 246.176068 
L 118.542129 135.054524 
L 118.76941 53.957893 
L 118.801879 54.036945 
L 118.899285 74.107372 
L 119.353847 262.28478 
L 119.451253 253.619242 
L 119.873346 157.765436 
L 119.938283 161.69489 
L 120.198033 191.341596 
L 120.26297 188.453694 
L 120.392845 162.121964 
L 120.717532 86.924039 
L 120.814938 103.696034 
L 121.042219 215.540709 
L 121.2695 295.224229 
L 121.301969 294.855342 
L 121.399375 273.987904 
L 121.853937 86.697856 
L 121.951343 95.982545 
L 122.373436 191.242951 
L 122.438373 187.081282 
L 122.698123 157.69647 
L 122.76306 160.881992 
L 122.892935 187.736094 
L 123.185153 262.214026 
L 123.217622 262.007786 
L 123.315028 244.525131 
L 123.542309 131.981376 
L 123.76959 53.730349 
L 123.802059 54.388978 
L 123.899465 76.048275 
L 124.354027 262.411884 
L 124.451433 252.513849 
L 124.873526 157.872327 
L 124.938463 162.262453 
L 125.198213 191.36582 
L 125.230682 190.511619 
L 125.328088 177.29074 
L 125.685243 86.754347 
L 125.750181 90.435317 
L 125.880056 130.625218 
L 126.26968 295.402756 
L 126.302149 294.454547 
L 126.399555 272.008737 
L 126.854117 86.610323 
L 126.919054 91.267288 
L 127.113866 145.765536 
L 127.341147 191.198814 
L 127.373616 191.113252 
L 127.471022 182.514636 
L 127.698303 157.696035 
L 127.730772 158.697291 
L 127.828178 172.361577 
L 128.185333 262.370379 
L 128.250271 258.215666 
L 128.380146 217.169929 
L 128.76977 53.600883 
L 128.802239 54.838436 
L 128.899645 78.06522 
L 129.354207 262.460017 
L 129.419144 257.376485 
L 129.613956 202.391488 
L 129.841237 157.799497 
L 129.873706 158.024596 
L 129.971112 166.914136 
L 130.198393 191.342275 
L 130.230862 190.193193 
L 130.328268 176.087152 
L 130.685423 86.636317 
L 130.750361 91.265972 
L 130.880236 133.160822 
L 131.26986 295.483128 
L 131.302329 293.956537 
L 131.399735 269.95451 
L 131.854297 86.601408 
L 131.919234 92.107904 
L 132.114046 147.560458 
L 132.341327 191.30208 
L 132.373796 190.93866 
L 132.503671 177.046347 
L 132.698483 157.743746 
L 132.730952 159.041372 
L 132.860826 181.679175 
L 133.185513 262.44986 
L 133.217982 261.309305 
L 133.315388 240.998725 
L 133.76995 53.569624 
L 133.867356 68.910897 
L 134.094637 182.069251 
L 134.354387 262.429908 
L 134.419324 256.504158 
L 134.646605 190.411069 
L 134.841417 157.72078 
L 134.906355 160.228952 
L 135.198573 191.270225 
L 135.26351 186.582165 
L 135.425854 146.909267 
L 135.685603 86.5956 
L 135.750541 92.178224 
L 135.880416 135.750162 
L 136.27004 295.465266 
L 136.302509 293.361807 
L 136.432384 253.882544 
L 136.854477 86.670338 
L 136.919414 93.011526 
L 137.146695 159.470303 
L 137.341507 191.356412 
L 137.406445 188.595835 
L 137.698663 157.840301 
L 137.7636 162.830984 
L 137.925944 203.045057 
L 138.185693 262.451607 
L 138.250631 256.391213 
L 138.412974 195.582725 
L 138.77013 53.636603 
L 138.835068 61.754664 
L 138.997411 130.036963 
L 139.322098 261.820566 
L 139.354567 262.32237 
L 139.451973 248.874528 
L 139.841597 157.690662 
L 139.874066 158.461256 
L 140.003941 173.256051 
L 140.166284 191.165661 
L 140.198753 191.149008 
L 140.296159 180.531988 
L 140.685783 86.633019 
L 140.750721 93.171871 
L 140.913064 154.927371 
L 141.27022 295.349186 
L 141.335158 286.669264 
L 141.497501 217.492158 
L 141.822188 87.085691 
L 141.854657 86.816262 
L 141.952063 100.832673 
L 142.341687 191.362498 
L 142.374156 190.458937 
L 142.504031 175.382804 
L 142.666374 157.828157 
L 142.698843 157.986328 
L 142.796249 169.053019 
L 143.185873 262.374837 
L 143.250811 255.356971 
L 143.413154 192.665937 
L 143.77031 53.801754 
L 143.867716 72.410509 
L 144.354747 262.138293 
L 144.419684 254.574711 
L 144.841777 157.708418 
L 144.939183 164.816456 
L 145.166464 191.278796 
L 145.198933 190.97803 
L 145.296339 179.462338 
L 145.685964 86.749314 
L 145.750901 94.246622 
L 145.913244 157.861437 
L 146.2704 295.135005 
L 146.367806 275.720374 
L 146.822368 86.846232 
L 146.919774 95.000984 
L 147.341867 191.321099 
L 147.406805 187.584379 
L 147.666554 157.738 
L 147.731492 160.383297 
L 147.861367 186.283626 
L 148.186054 262.218852 
L 148.28346 246.029119 
L 148.510741 134.774318 
L 148.738021 53.93316 
L 148.77049 54.064913 
L 148.867896 74.280625 
L 149.322458 262.299616 
L 149.419864 253.52108 
L 149.841957 157.773254 
L 149.906895 161.745204 
L 150.166644 191.345752 
L 150.231582 188.403825 
L 150.361457 161.976712 
L 150.653675 86.927978 
L 150.686144 86.945144 
L 150.78355 103.846436 
L 151.010831 215.820012 
L 151.238111 295.24451 
L 151.27058 294.822934 
L 151.367986 273.811133 
L 151.822548 86.686631 
L 151.919954 96.083274 
L 152.342047 191.233041 
L 152.406985 187.029552 
L 152.666734 157.694461 
L 152.731672 160.934217 
L 152.861547 187.882703 
L 153.153765 262.231392 
L 153.186234 261.983035 
L 153.28364 244.371299 
L 153.510921 131.703042 
L 153.738201 53.714524 
L 153.77067 54.425818 
L 153.868076 76.228521 
L 154.322638 262.419513 
L 154.387575 258.114163 
L 154.549919 214.816115 
L 154.809669 157.913782 
L 154.842137 157.884309 
L 154.939543 166.240074 
L 155.166824 191.365665 
L 155.199293 190.484787 
L 155.296699 177.183173 
L 155.653855 86.740446 
L 155.718792 90.507455 
L 155.848667 130.853452 
L 156.238291 295.41412 
L 156.27076 294.413284 
L 156.368166 271.825061 
L 156.822728 86.606275 
L 156.887665 91.341061 
L 157.082478 145.929233 
L 157.309759 191.210241 
L 157.342227 191.09922 
L 157.439633 182.447225 
L 157.666914 157.698372 
L 157.699383 158.726449 
L 157.796789 172.471182 
L 158.153945 262.380794 
L 158.218882 258.139814 
L 158.348757 216.939186 
L 158.738381 53.593982 
L 158.77085 54.884112 
L 158.868256 78.252281 
L 159.322818 262.460501 
L 159.387756 257.299795 
L 159.582568 202.228359 
L 159.809849 157.790315 
L 159.842317 158.040655 
L 159.939723 166.982386 
L 160.167004 191.337739 
L 160.199473 190.161701 
L 160.296879 175.975531 
L 160.654035 86.629408 
L 160.718972 91.345534 
L 160.848847 133.394028 
L 161.238471 295.485564 
L 161.27094 293.906459 
L 161.368346 269.764109 
L 161.822908 86.604469 
L 161.887846 92.187473 
L 162.082658 147.722971 
L 162.309939 191.309032 
L 162.342407 190.920597 
L 162.472282 176.971126 
L 162.667094 157.750495 
L 162.699563 159.075202 
L 162.829438 181.814178 
L 163.154125 262.453243 
L 163.186594 261.269866 
L 163.284 240.831432 
L 163.738561 53.571654 
L 163.835968 69.062863 
L 164.063249 182.34532 
L 164.322998 262.423319 
L 164.387936 256.421747 
L 164.615216 190.260519 
L 164.810029 157.716044 
L 164.874966 160.270346 
L 165.167184 191.261246 
L 165.232122 186.518202 
L 165.394465 146.746192 
L 165.654215 86.595762 
L 165.719152 92.265196 
L 165.849027 135.988147 
L 166.238652 295.458771 
L 166.27112 293.302964 
L 166.400995 253.651106 
L 166.823088 86.680435 
L 166.888026 93.09674 
L 167.115306 159.61962 
L 167.310119 191.358948 
L 167.375056 188.552826 
L 167.667274 157.851523 
L 167.732212 162.89728 
L 167.894555 203.208705 
L 168.154305 262.447883 
L 168.219242 256.300544 
L 168.381586 195.319031 
L 168.738742 53.647562 
L 168.803679 61.867933 
L 168.966022 130.314164 
L 169.290709 261.849308 
L 169.323178 262.308784 
L 169.420584 248.757055 
L 169.810209 157.690309 
L 169.842677 158.485186 
L 169.972552 173.331866 
L 170.134896 191.177831 
L 170.167364 191.135529 
L 170.26477 180.436709 
L 170.654395 86.640322 
L 170.719332 93.266229 
L 170.881676 155.192688 
L 171.238832 295.333767 
L 171.303769 286.551915 
L 171.466112 217.213915 
L 171.790799 87.060608 
L 171.823268 86.833314 
L 171.920674 100.952357 
L 172.310299 191.360685 
L 172.342767 190.433104 
L 172.472642 175.306879 
L 172.634986 157.818058 
L 172.667454 158.002077 
L 172.76486 169.150459 
L 173.154485 262.36394 
L 173.219422 255.258931 
L 173.381766 192.399054 
L 173.738922 53.821631 
L 173.836328 72.577256 
L 174.290889 262.121593 
L 174.388296 254.481324 
L 174.810389 157.712379 
L 174.907795 164.879251 
L 175.135076 191.286804 
L 175.167544 190.960001 
L 175.26495 179.362758 
L 175.654575 86.763821 
L 175.719512 94.348336 
L 175.881856 158.129827 
L 176.239012 295.110676 
L 176.336418 275.550031 
L 176.790979 86.828432 
L 176.888386 95.097014 
L 177.310479 191.315009 
L 177.375416 187.535249 
L 177.635166 157.732102 
L 177.700103 160.431238 
L 177.829978 186.427739 
L 178.154665 262.200721 
L 178.252071 245.88154 
L 178.479352 134.494271 
L 178.706633 53.909235 
L 178.739102 54.093688 
L 178.836508 74.454521 
L 179.291069 262.313794 
L 179.388476 253.422448 
L 179.810569 157.781453 
L 179.875506 161.795779 
L 180.135256 191.349519 
L 180.200193 188.353527 
L 180.330068 161.83121 
L 180.622286 86.907794 
L 180.654755 86.966911 
L 180.752161 103.997463 
L 180.979442 216.099144 
L 181.206723 295.263982 
L 181.239192 294.78972 
L 181.336598 273.633727 
L 181.791159 86.676061 
L 181.888566 96.184465 
L 182.310659 191.222753 
L 182.375596 186.977569 
L 182.635346 157.692844 
L 182.700283 160.986871 
L 182.830158 188.029554 
L 183.122376 262.24813 
L 183.154845 261.957619 
L 183.252251 244.216847 
L 183.479532 131.424891 
L 183.706813 53.699509 
L 183.739282 54.463463 
L 183.836688 76.409394 
L 184.291249 262.426489 
L 184.356187 258.042804 
L 184.51853 214.649529 
L 184.77828 157.900509 
L 184.810749 157.896665 
L 184.908155 166.306769 
L 185.135436 191.365115 
L 185.167904 190.457532 
L 185.265311 177.075234 
L 185.622466 86.727176 
L 185.687404 90.580269 
L 185.817278 131.082146 
L 186.206903 295.424673 
L 186.239372 294.371217 
L 186.336778 271.640766 
L 186.791339 86.602876 
L 186.856277 91.415367 
L 187.051089 146.092831 
L 187.27837 191.221259 
L 187.310839 191.084818 
L 187.408245 182.379657 
L 187.635526 157.701107 
L 187.667994 158.756032 
L 187.765401 172.581155 
L 188.122556 262.390574 
L 188.187494 258.063287 
L 188.317368 216.707991 
L 188.706993 53.587892 
L 188.739462 54.93059 
L 188.836868 78.439953 
L 189.29143 262.460339 
L 189.356367 257.222579 
L 189.551179 202.065338 
L 189.77846 157.78154 
L 189.810929 158.05708 
L 189.908335 167.050785 
L 190.135616 191.332803 
L 190.168084 190.129785 
L 190.265491 175.863548 
L 190.622646 86.623138 
L 190.687584 91.425771 
L 190.817458 133.627676 
L 191.207083 295.487188 
L 191.239552 293.855583 
L 191.336958 269.573106 
L 191.79152 86.608174 
L 191.856457 92.267561 
L 192.051269 147.885366 
L 192.27855 191.315579 
L 192.311019 190.902172 
L 192.440894 176.895857 
L 192.635706 157.757649 
L 192.668174 159.109458 
L 192.798049 181.949476 
L 193.122736 262.455984 
L 193.155205 261.229755 
L 193.252611 240.663538 
L 193.707173 53.574496 
L 193.804579 69.215515 
L 194.03186 182.621185 
L 194.29161 262.41609 
L 194.356547 256.338824 
L 194.583828 190.11019 
L 194.77864 157.71171 
L 194.843577 160.312037 
L 195.135796 191.251861 
L 195.200733 186.453815 
L 195.363077 146.583009 
L 195.622826 86.596569 
L 195.687764 92.35284 
L 195.817638 136.226558 
L 196.207263 295.451464 
L 196.239732 293.243327 
L 196.369606 253.419196 
L 196.7917 86.691169 
L 196.856637 93.18246 
L 197.083918 159.768709 
L 197.27873 191.361085 
L 197.343667 188.509528 
L 197.635886 157.863154 
L 197.668354 159.514424 
L 197.798229 183.456891 
L 198.122916 262.44351 
L 198.155385 260.744205 
L 198.252791 238.777272 
L 198.707353 53.659332 
L 198.77229 61.981946 
L 198.934634 130.59156 
L 199.259321 261.877384 
L 199.29179 262.294567 
L 199.389196 248.639176 
L 199.77882 157.690352 
L 199.811289 158.509463 
L 199.941164 173.407704 
L 200.103507 191.189625 
L 200.135976 191.121638 
L 200.233382 180.341035 
L 200.623006 86.648277 
L 200.687944 93.361258 
L 200.850287 155.458295 
L 201.207443 295.317536 
L 201.27238 286.433827 
L 201.434724 216.93549 
L 201.759411 87.036189 
L 201.79188 86.850994 
L 201.889286 101.072439 
L 202.27891 191.35848 
L 202.311379 190.406927 
L 202.473722 170.332941 
L 202.603597 157.808337 
L 202.636066 158.018239 
L 202.733472 169.248289 
L 203.123096 262.352388 
L 203.188034 255.160222 
L 203.350377 192.131893 
L 203.707533 53.842318 
L 203.804939 72.744661 
L 204.259501 262.142367 
L 204.356907 254.387453 
L 204.779 157.716728 
L 204.876406 164.942237 
L 205.103687 191.294431 
L 205.136156 190.941555 
L 205.233562 179.26279 
L 205.623186 86.778986 
L 205.688124 94.450717 
L 205.850467 158.398484 
L 206.207623 295.085538 
L 206.305029 275.379039 
L 206.759591 86.811291 
L 206.856997 95.19352 
L 207.27909 191.308533 
L 207.344027 187.485853 
L 207.603777 157.726591 
L 207.668715 160.479608 
L 207.798589 186.572108 
L 208.123276 262.181931 
L 208.220682 245.733332 
L 208.447963 134.214386 
L 208.675244 53.88612 
L 208.707713 54.123271 
L 208.805119 74.629058 
L 209.259681 262.327315 
L 209.357087 253.323348 
L 209.77918 157.790034 
L 209.844118 161.846612 
L 210.103867 191.352896 
L 210.168805 188.3028 
L 210.298679 161.68546 
L 210.590898 86.888235 
L 210.623366 86.989341 
L 210.720772 104.149115 
L 210.948053 216.378103 
L 211.175334 295.282644 
L 211.207803 294.7557 
L 211.305209 273.455687 
L 211.759771 86.666146 
L 211.857177 96.286117 
L 212.27927 191.212087 
L 212.344208 186.925333 
L 212.603957 157.69162 
L 212.668895 161.039953 
L 212.798769 188.176646 
L 213.090988 262.264239 
L 213.123456 261.931539 
L 213.220862 244.061775 
L 213.448143 131.146926 
L 213.675424 53.685306 
L 213.707893 54.501913 
L 213.805299 76.590892 
L 214.259861 262.432814 
L 214.324798 257.970906 
L 214.519611 203.700235 
L 214.746891 157.887647 
L 214.77936 157.909395 
L 214.876766 166.373625 
L 215.104047 191.364168 
L 215.136516 190.429855 
L 215.233922 176.966923 
L 215.591078 86.71454 
L 215.656015 90.653759 
L 215.78589 131.311298 
L 216.175514 295.434415 
L 216.207983 294.328348 
L 216.305389 271.455853 
L 216.759951 86.600126 
L 216.824888 91.490204 
L 217.019701 146.256327 
L 217.246981 191.231867 
L 217.27945 191.070047 
L 217.376856 182.311936 
L 217.604137 157.704242 
L 217.636606 158.786038 
L 217.734012 172.691496 
L 218.091168 262.399717 
L 218.156105 257.986085 
L 218.28598 216.476347 
L 218.675604 53.582615 
L 218.708073 54.977868 
L 218.805479 78.628235 
L 219.260041 262.459532 
L 219.324978 257.144839 
L 219.519791 201.902428 
L 219.747071 157.773171 
L 219.77954 158.073871 
L 219.876946 167.11933 
L 220.104227 191.327464 
L 220.136696 190.097444 
L 220.266571 167.713137 
L 220.591258 86.617509 
L 220.623726 87.651132 
L 220.721132 107.641783 
L 221.013351 255.489238 
L 221.175694 295.488 
L 221.208163 293.803907 
L 221.305569 269.381502 
L 221.760131 86.612521 
L 221.825068 92.348168 
L 222.019881 148.047643 
L 222.247161 191.321723 
L 222.27963 190.883386 
L 222.409505 176.820543 
L 222.604317 157.765207 
L 222.636786 159.14414 
L 222.766661 182.085068 
L 223.091348 262.45808 
L 223.123816 261.188974 
L 223.221222 240.495043 
L 223.675784 53.578149 
L 223.77319 69.36885 
L 224.000471 182.896843 
L 224.227752 261.566616 
L 224.260221 262.408222 
L 224.29269 260.562311 
L 224.422564 232.024752 
L 224.747251 157.707776 
L 224.812189 160.354022 
L 225.104407 191.242068 
L 225.169345 186.389003 
L 225.331688 146.41972 
L 225.591438 86.598024 
L 225.656375 92.441157 
L 225.78625 136.465392 
L 226.175874 295.443345 
L 226.208343 293.182897 
L 226.338218 253.186816 
L 226.760311 86.702537 
L 226.857717 99.889673 
L 227.247341 191.362825 
L 227.312279 188.465941 
L 227.604497 157.875195 
L 227.636966 159.553801 
L 227.766841 183.595638 
L 228.091528 262.438487 
L 228.123996 260.696028 
L 228.221403 238.602234 
L 228.675964 53.671913 
L 228.740902 62.096702 
L 228.903245 130.869148 
L 229.227932 261.904794 
L 229.260401 262.279718 
L 229.357807 248.520893 
L 229.747431 157.690789 
L 229.7799 158.534088 
L 229.909775 173.483564 
L 230.072118 191.201044 
L 230.104587 191.107335 
L 230.201993 180.244968 
L 230.591618 86.656884 
L 230.656555 93.456956 
L 230.818899 155.724188 
L 231.176054 295.300495 
L 231.240992 286.315001 
L 231.403335 216.656885 
L 231.728022 87.012433 
L 231.760491 86.869301 
L 231.857897 101.192915 
L 232.247521 191.355883 
L 232.27999 190.380408 
L 232.442334 170.259251 
L 232.572208 157.798996 
L 232.604677 158.034815 
L 232.702083 169.34651 
L 233.091708 262.340179 
L 233.156645 255.060844 
L 233.318989 191.864455 
L 233.676144 53.863814 
L 233.77355 72.91272 
L 234.228112 262.162479 
L 234.325518 254.293101 
L 234.747611 157.721466 
L 234.812549 161.350065 
L 235.072299 191.301674 
L 235.137236 188.790783 
L 235.267111 163.131634 
L 235.591798 86.794809 
L 235.656735 94.553764 
L 235.819079 158.667407 
L 236.176234 295.059592 
L 236.27364 275.2074 
L 236.728202 86.794809 
L 236.825608 95.290501 
L 237.247701 191.301674 
L 237.312639 187.436194 
L 237.572389 157.721466 
L 237.637326 160.528406 
L 237.767201 186.71673 
L 238.091888 262.162479 
L 238.189294 245.584497 
L 238.416575 133.934664 
L 238.643856 53.863814 
L 238.676324 54.153661 
L 238.77373 74.804235 
L 239.228292 262.340179 
L 239.325698 253.223781 
L 239.747792 157.798996 
L 239.812729 161.897703 
L 240.072479 191.355883 
L 240.137416 188.251645 
L 240.267291 161.539463 
L 240.559509 86.869301 
L 240.591978 87.012433 
L 240.689384 104.30139 
L 240.916665 216.656885 
L 241.143946 295.300495 
L 241.176414 294.720873 
L 241.27382 273.277016 
L 241.728382 86.656884 
L 241.825788 96.388228 
L 242.247882 191.201044 
L 242.312819 186.872847 
L 242.572569 157.690789 
L 242.637506 161.093463 
L 242.767381 188.323978 
L 243.059599 262.279718 
L 243.092068 261.904794 
L 243.189474 243.906084 
L 243.416755 130.869148 
L 243.644036 53.671913 
L 243.676504 54.541166 
L 243.77391 76.773014 
L 244.228472 262.438487 
L 244.29341 257.898471 
L 244.488222 203.536295 
L 244.715503 157.875195 
L 244.747972 157.922498 
L 244.845378 166.440642 
L 245.072659 191.362825 
L 245.105127 190.401754 
L 245.202533 176.858241 
L 245.559689 86.702537 
L 245.624626 90.727923 
L 245.754501 131.540906 
L 246.144126 295.443345 
L 246.176594 294.284677 
L 246.274 271.270325 
L 246.728562 86.598024 
L 246.7935 91.565572 
L 246.988312 146.41972 
L 247.215593 191.242068 
L 247.248062 191.054906 
L 247.345468 182.244061 
L 247.572749 157.707776 
L 247.605217 158.816468 
L 247.702623 172.802204 
L 248.059779 262.408222 
L 248.124716 257.908209 
L 248.254591 216.244255 
L 248.644216 53.578149 
L 248.676684 55.025946 
L 248.77409 78.817123 
L 249.228652 262.45808 
L 249.29359 257.066574 
L 249.488402 201.739629 
L 249.715683 157.765207 
L 249.748152 158.091026 
L 249.845558 167.188021 
L 250.072839 191.321723 
L 250.105307 190.064677 
L 250.235182 167.578876 
L 250.559869 86.612521 
L 250.592338 87.688895 
L 250.689744 107.807567 
L 250.981962 255.716833 
L 251.144306 295.488 
L 251.176774 293.751434 
L 251.274181 269.1893 
L 251.728742 86.617509 
L 251.79368 92.429291 
L 251.988492 148.2098 
L 252.215773 191.327464 
L 252.28071 188.888684 
L 252.572929 157.773171 
L 252.637866 162.378788 
L 252.800209 201.902428 
L 253.059959 262.459532 
L 253.124896 257.007074 
L 253.254771 213.662118 
L 253.644396 53.582615 
L 253.676864 55.60752 
L 253.806739 94.827289 
L 254.228832 262.399717 
L 254.29377 256.171445 
L 254.521051 189.8102 
L 254.715863 157.704242 
L 254.7808 160.3963 
L 255.073019 191.231867 
L 255.137956 186.323767 
L 255.300299 146.256327 
L 255.560049 86.600126 
L 255.624986 92.530146 
L 255.78733 153.078402 
L 256.144486 295.434415 
L 256.209423 287.469944 
L 256.371767 219.434572 
L 256.696454 87.279898 
L 256.728922 86.71454 
L 256.826328 100.006126 
L 257.215953 191.364168 
L 257.248422 190.630084 
L 257.378296 175.913726 
L 257.573109 157.887647 
L 257.670515 168.381934 
L 258.060139 262.432814 
L 258.125077 256.024511 
L 258.28742 194.52616 
L 258.644576 53.685306 
L 258.709513 62.2122 
L 258.871857 131.146926 
L 259.196544 261.931539 
L 259.229012 262.264239 
L 259.326418 248.402207 
L 259.716043 157.69162 
L 259.748512 158.559059 
L 259.878386 173.559443 
L 260.04073 191.212087 
L 260.073199 191.09262 
L 260.170605 180.148507 
L 260.560229 86.666146 
L 260.625167 93.553324 
L 260.78751 155.990367 
L 261.144666 295.282644 
L 261.242072 276.89448 
L 261.729102 86.888235 
L 261.79404 94.34222 
L 262.216133 191.352896 
L 262.313539 184.333476 
L 262.54082 157.790034 
L 262.573289 158.051806 
L 262.670695 169.44512 
L 263.060319 262.327315 
L 263.125257 254.960799 
L 263.2876 191.596743 
L 263.644756 53.88612 
L 263.742162 73.081434 
L 264.196724 262.181931 
L 264.29413 254.198267 
L 264.716223 157.726591 
L 264.78116 161.398527 
L 265.04091 191.308533 
L 265.105847 188.743913 
L 265.235722 162.988164 
L 265.560409 86.811291 
L 265.657815 102.806795 
L 265.885096 213.861415 
L 266.112377 295.085538 
L 266.144846 295.032837 
L 266.242252 275.035114 
L 266.696814 86.778986 
L 266.79422 95.387956 
L 267.216313 191.294431 
L 267.28125 187.386271 
L 267.541 157.716728 
L 267.605937 160.577633 
L 267.735812 186.861606 
L 268.060499 262.142367 
L 268.157905 245.435034 
L 268.385186 133.655108 
L 268.612467 53.842318 
L 268.644936 54.184858 
L 268.742342 74.980051 
L 269.196904 262.352388 
L 269.29431 253.123748 
L 269.716403 157.808337 
L 269.78134 161.94905 
L 270.04109 191.35848 
L 270.106027 188.200062 
L 270.235902 161.393221 
L 270.52812 86.850994 
L 270.560589 87.036189 
L 270.657995 104.454288 
L 270.885276 216.93549 
L 271.112557 295.317536 
L 271.145026 294.685241 
L 271.242432 273.097713 
L 271.696994 86.648277 
L 271.7944 96.490797 
L 272.216493 191.189625 
L 272.28143 186.82011 
L 272.54118 157.690352 
L 272.573649 158.531224 
L 272.671055 171.711718 
L 273.02821 262.294567 
L 273.093148 258.656601 
L 273.223023 218.544827 
L 273.612647 53.659332 
L 273.645116 54.581224 
L 273.742522 76.955759 
L 274.197084 262.44351 
L 274.262021 257.8255 
L 274.456833 203.372451 
L 274.684114 157.863154 
L 274.716583 157.935972 
L 274.813989 166.507818 
L 275.04127 191.361085 
L 275.073739 190.373231 
L 275.171145 176.749189 
L 275.5283 86.691169 
L 275.593238 90.802763 
L 275.723113 131.77097 
L 276.112737 295.451464 
L 276.145206 294.240203 
L 276.242612 271.084183 
L 276.697174 86.596569 
L 276.762111 91.64147 
L 276.956923 146.583009 
L 277.184204 191.251861 
L 277.216673 191.039398 
L 277.314079 182.176035 
L 277.54136 157.71171 
L 277.573829 158.847322 
L 277.671235 172.913277 
L 278.02839 262.41609 
L 278.093328 257.829658 
L 278.223203 216.011716 
L 278.612827 53.574496 
L 278.645296 55.074825 
L 278.742702 79.006618 
L 279.197264 262.455984 
L 279.262201 256.987787 
L 279.457013 201.576943 
L 279.684294 157.757649 
L 279.716763 158.108545 
L 279.846638 171.972162 
L 280.04145 191.315579 
L 280.073919 190.031485 
L 280.203793 167.444317 
L 280.52848 86.608174 
L 280.560949 87.727329 
L 280.658355 107.973956 
L 281.112917 295.487188 
L 281.210323 280.220931 
L 281.437604 167.124961 
L 281.697354 86.623138 
L 281.762291 92.510931 
L 281.989572 158.569674 
L 282.184384 191.332803 
L 282.249322 188.847735 
L 282.54154 157.78154 
L 282.606477 162.442114 
L 282.768821 202.065338 
L 283.02857 262.460339 
L 283.093508 256.921112 
L 283.223383 213.424773 
L 283.613007 53.587892 
L 283.645476 55.665171 
L 283.775351 95.058016 
L 284.197444 262.390574 
L 284.262381 256.086992 
L 284.489662 189.660542 
L 284.684474 157.701107 
L 284.749412 160.438872 
L 285.04163 191.221259 
L 285.106567 186.258106 
L 285.268911 146.092831 
L 285.528661 86.602876 
L 285.593598 92.619807 
L 285.755941 153.341643 
L 286.113097 295.424673 
L 286.178035 287.357792 
L 286.340378 219.157666 
L 286.665065 87.250157 
L 286.697534 86.727176 
L 286.79494 100.122989 
L 287.184564 191.365115 
L 287.217033 190.606679 
L 287.346908 175.837949 
L 287.509251 157.896665 
L 287.54172 157.900509 
L 287.639126 168.476621 
L 288.028751 262.426489 
L 288.093688 255.931158 
L 288.256031 194.26128 
L 288.613187 53.699509 
L 288.678125 62.32844 
L 288.840468 131.424891 
L 289.165155 261.957619 
L 289.197624 262.24813 
L 289.29503 248.283121 
L 289.684654 157.692844 
L 289.717123 158.584376 
L 289.846998 173.635342 
L 290.009341 191.222753 
L 290.04181 191.077492 
L 290.139216 180.051655 
L 290.528841 86.676061 
L 290.593778 93.650361 
L 290.756121 156.256828 
L 291.113277 295.263982 
L 291.210683 276.72872 
L 291.697714 86.907794 
L 291.762651 94.434879 
L 292.184744 191.349519 
L 292.28215 184.270971 
L 292.509431 157.781453 
L 292.5419 158.069213 
L 292.639306 169.544118 
L 293.028931 262.313794 
L 293.093868 254.860086 
L 293.256211 191.328758 
L 293.613367 53.909235 
L 293.710773 73.2508 
L 294.165335 262.200721 
L 294.262741 254.102954 
L 294.684834 157.732102 
L 294.749772 161.447257 
L 295.009521 191.315009 
L 295.074459 188.696615 
L 295.204334 162.844436 
L 295.529021 86.828432 
L 295.626427 102.953429 
L 295.853708 214.1417 
L 296.080988 295.110676 
L 296.113457 295.005273 
L 296.210863 274.862183 
L 296.665425 86.763821 
L 296.762831 95.485882 
L 297.184924 191.286804 
L 297.249862 187.336087 
L 297.509611 157.712379 
L 297.574549 160.627289 
L 297.704424 187.006732 
L 298.029111 262.121593 
L 298.126517 245.284945 
L 298.353798 133.37572 
L 298.581078 53.821631 
L 298.613547 54.216862 
L 298.710953 75.156504 
L 299.165515 262.36394 
L 299.262921 253.02325 
L 299.685014 157.818058 
L 299.749952 162.000653 
L 300.009701 191.360685 
L 300.074639 188.148051 
L 300.204514 161.246734 
L 300.496732 86.833314 
L 300.529201 87.060608 
L 300.626607 104.607809 
L 300.853888 217.213915 
L 301.081168 295.333767 
L 301.113637 294.648804 
L 301.211043 272.917782 
L 301.665605 86.640322 
L 301.763011 96.593823 
L 302.185104 191.177831 
L 302.250042 186.767125 
L 302.509791 157.690309 
L 302.54226 158.557846 
L 302.639666 171.819099 
L 302.996822 262.308784 
L 303.061759 258.5848 
L 303.191634 218.316824 
L 303.581258 53.647562 
L 303.613727 54.622086 
L 303.711133 77.139125 
L 304.165695 262.447883 
L 304.230633 257.751994 
L 304.425445 203.208705 
L 304.652726 157.851523 
L 304.685194 157.949819 
L 304.7826 166.575151 
L 305.009881 191.358948 
L 305.04235 190.344284 
L 305.139756 176.639768 
L 305.496912 86.680435 
L 305.561849 90.878277 
L 305.691724 132.001487 
L 306.081348 295.458771 
L 306.113817 294.194927 
L 306.211223 270.897427 
L 306.665785 86.595762 
L 306.730723 91.717896 
L 306.925535 146.746192 
L 307.152816 191.261246 
L 307.185284 191.023522 
L 307.28269 182.107859 
L 307.509971 157.716044 
L 307.54244 158.878601 
L 307.639846 173.024714 
L 307.997002 262.423319 
L 308.061939 257.750433 
L 308.191814 215.778732 
L 308.581439 53.571654 
L 308.613907 55.124503 
L 308.711313 79.196717 
L 309.165875 262.453243 
L 309.230813 256.908478 
L 309.425625 201.414372 
L 309.652906 157.750495 
L 309.685374 158.126428 
L 309.815249 172.047359 
L 310.010061 191.309032 
L 310.04253 189.997868 
L 310.172405 167.309462 
L 310.497092 86.604469 
L 310.529561 87.766433 
L 310.626967 108.140948 
L 311.081529 295.485564 
L 311.178935 280.069307 
L 311.406216 166.84879 
L 311.665965 86.629408 
L 311.730903 92.593085 
L 311.958183 158.720335 
L 312.152996 191.337739 
L 312.217933 188.806489 
L 312.510151 157.790315 
L 312.575089 162.505864 
L 312.737432 202.228359 
L 312.997182 262.460501 
L 313.062119 256.834476 
L 313.191994 213.187 
L 313.581619 53.593982 
L 313.614087 55.723617 
L 313.743962 95.289217 
L 314.166055 262.380794 
L 314.230993 256.002031 
L 314.458273 189.511111 
L 314.653086 157.698372 
L 314.718023 160.481735 
L 315.010241 191.210241 
L 315.075179 186.192022 
L 315.237522 145.929233 
L 315.497272 86.606275 
L 315.562209 92.710139 
L 315.724553 153.605186 
L 316.081709 295.41412 
L 316.146646 287.244896 
L 316.308989 218.880562 
L 316.633676 87.221082 
L 316.666145 86.740446 
L 316.763551 100.240259 
L 317.153176 191.365665 
L 317.185644 190.582924 
L 317.315519 175.762146 
L 317.477863 157.884309 
L 317.510331 157.913782 
L 317.607738 168.571704 
L 317.997362 262.419513 
L 318.062299 255.837135 
L 318.224643 193.996108 
L 318.581799 53.714524 
L 318.646736 62.445419 
L 318.809079 131.703042 
L 319.133766 261.983035 
L 319.166235 262.231392 
L 319.263641 248.163636 
L 319.653266 157.694461 
L 319.685734 158.610038 
L 319.815609 173.711258 
L 319.977953 191.233041 
L 320.010421 191.061951 
L 320.107828 179.954411 
L 320.497452 86.686631 
L 320.562389 93.748067 
L 320.724733 156.523571 
L 321.081889 295.24451 
L 321.179295 276.562301 
L 321.666325 86.927978 
L 321.731263 94.528023 
L 322.153356 191.345752 
L 322.250762 184.208272 
L 322.478043 157.773254 
L 322.510511 158.087034 
L 322.607918 169.643505 
L 322.997542 262.299616 
L 323.062479 254.758706 
L 323.224823 191.060503 
L 323.581979 53.93316 
L 323.679385 73.420818 
L 324.133946 262.218852 
L 324.231353 254.007162 
L 324.653446 157.738 
L 324.718383 161.496255 
L 324.978133 191.321099 
L 325.04307 188.648888 
L 325.172945 162.700451 
L 325.497632 86.846232 
L 325.595038 103.100693 
L 325.822319 214.421827 
L 326.0496 295.135005 
L 326.082069 294.976902 
L 326.179475 274.688609 
L 326.634036 86.749314 
L 326.731443 95.584279 
L 327.153536 191.278796 
L 327.218473 187.285643 
L 327.478223 157.708418 
L 327.54316 160.677372 
L 327.673035 187.152109 
L 327.965253 262.138293 
L 327.997722 262.100157 
L 328.095128 245.13423 
L 328.322409 133.096502 
L 328.54969 53.801754 
L 328.582159 54.249673 
L 328.679565 75.333592 
L 329.134127 262.374837 
L 329.231533 252.92229 
L 329.653626 157.828157 
L 329.718563 162.052509 
L 329.978313 191.362498 
L 330.04325 188.095611 
L 330.173125 161.100004 
L 330.465343 86.816262 
L 330.497812 87.085691 
L 330.595218 104.761951 
L 330.822499 217.492158 
L 331.04978 295.349186 
L 331.082249 294.611562 
L 331.179655 272.737222 
L 331.634217 86.633019 
L 331.699154 90.977551 
L 331.861497 134.323277 
L 332.121247 191.149008 
L 332.153716 191.165661 
L 332.251122 182.7827 
L 332.478403 157.690662 
L 332.510871 158.584889 
L 332.608278 171.926852 
L 332.965433 262.32237 
L 333.030371 258.512323 
L 333.160245 218.08836 
L 333.54987 53.636603 
L 333.582339 54.663751 
L 333.679745 77.323111 
L 334.134307 262.451607 
L 334.199244 257.677954 
L 334.394056 203.045057 
L 334.621337 157.840301 
L 334.653806 157.964036 
L 334.751212 166.642641 
L 334.978493 191.356412 
L 335.010961 190.314914 
L 335.108368 176.529979 
L 335.465523 86.670338 
L 335.530461 90.954467 
L 335.660335 132.232456 
L 336.04996 295.465266 
L 336.082429 294.148851 
L 336.179835 270.71006 
L 336.634397 86.5956 
L 336.699334 91.794848 
L 336.894146 146.909267 
L 337.121427 191.270225 
L 337.153896 191.00728 
L 337.251302 182.039534 
L 337.478583 157.72078 
L 337.511051 158.910305 
L 337.608458 173.136517 
L 337.965613 262.429908 
L 338.030551 257.670533 
L 338.160425 215.545305 
L 338.55005 53.569624 
L 338.582519 55.174981 
L 338.679925 79.387419 
L 339.134487 262.44986 
L 339.199424 256.828649 
L 339.394236 201.251918 
L 339.621517 157.743746 
L 339.653986 158.144672 
L 339.783861 172.122604 
L 339.978673 191.30208 
L 340.011141 189.963825 
L 340.141016 167.174311 
L 340.465703 86.601408 
L 340.498172 87.806207 
L 340.595578 108.308541 
L 341.05014 295.483128 
L 341.147546 279.916998 
L 341.374827 166.572823 
L 341.634577 86.636317 
L 341.699514 92.675752 
L 341.926795 158.870775 
L 342.121607 191.342275 
L 342.186544 188.764947 
L 342.478763 157.799497 
L 342.5437 162.57004 
L 342.706044 202.391488 
L 342.965793 262.460017 
L 343.030731 256.747168 
L 343.160606 212.948802 
L 343.55023 53.600883 
L 343.582699 55.782857 
L 343.712573 95.520891 
L 344.134667 262.370379 
L 344.199604 255.916565 
L 344.426885 189.361908 
L 344.621697 157.696035 
L 344.686634 160.524888 
L 344.978853 191.198814 
L 345.04379 186.125515 
L 345.206134 145.765536 
L 345.465883 86.610323 
L 345.530821 92.801143 
L 345.693164 153.86903 
L 346.05032 295.402756 
L 346.115257 287.131255 
L 346.277601 218.603263 
L 346.602288 87.192673 
L 346.634757 86.754347 
L 346.732163 100.357936 
L 347.121787 191.36582 
L 347.154256 190.55882 
L 347.284131 175.686319 
L 347.446474 157.872327 
L 347.478943 157.927467 
L 347.576349 168.667181 
L 347.965973 262.411884 
L 348.030911 255.742442 
L 348.193254 193.730646 
L 348.55041 53.730349 
L 348.615347 62.563138 
L 348.777691 131.981376 
L 349.102378 262.007786 
L 349.134847 262.214026 
L 349.232253 248.043753 
L 349.621877 157.69647 
L 349.654346 158.636043 
L 349.816689 178.686285 
L 349.946564 191.242951 
L 349.979033 191.045996 
L 350.076439 179.856776 
L 350.466063 86.697856 
L 350.531001 93.846442 
L 350.693344 156.790594 
L 351.0505 295.224229 
L 351.147906 276.395225 
L 351.602468 86.924039 
L 351.699874 94.621652 
L 352.121967 191.341596 
L 352.219373 184.145382 
L 352.446654 157.765436 
L 352.479123 158.105271 
L 352.576529 169.743279 
L 352.966153 262.28478 
L 353.031091 254.656658 
L 353.193434 190.791979 
L 353.55059 53.957893 
L 353.647996 73.591485 
L 354.102558 262.236323 
L 354.199964 253.910894 
L 354.622057 157.744282 
L 354.686995 161.545518 
L 354.946744 191.326803 
L 355.011682 188.600732 
L 355.141556 162.55621 
L 355.466243 86.864693 
L 355.563649 103.248587 
L 355.79093 214.701793 
L 356.018211 295.158525 
L 356.05068 294.947723 
L 356.148086 274.514392 
L 356.602648 86.735465 
L 356.700054 95.683145 
L 357.122147 191.270406 
L 357.187085 187.234938 
L 357.446834 157.704845 
L 357.511772 160.727885 
L 357.641646 187.297735 
L 357.933865 262.158165 
L 357.966333 262.078059 
L 358.063739 244.982891 
L 358.29102 132.817456 
L 358.518301 53.782687 
L 358.55077 54.283291 
L 358.648176 75.511315 
L 359.102738 262.38508 
L 359.200144 252.820868 
L 359.622237 157.838635 
L 359.687175 162.104619 
L 359.946924 191.363919 
L 360.011862 188.042743 
L 360.141736 160.953032 
L 360.433955 86.799838 
L 360.466423 87.111439 
L 360.563829 104.916713 
L 360.79111 217.770217 
L 361.018391 295.363795 
L 361.05086 294.573514 
L 361.148266 272.556037 
L 361.602828 86.626369 
L 361.667765 91.049179 
L 361.830109 134.489871 
L 362.089858 191.162075 
L 362.122327 191.153118 
L 362.219733 182.715924 
L 362.447014 157.69141 
L 362.479483 158.612355 
L 362.576889 172.034977 
L 362.934045 262.335323 
L 362.998982 258.439172 
L 363.128857 217.859437 
L 363.518481 53.626456 
L 363.55095 54.706218 
L 363.648356 77.507715 
L 364.102918 262.454681 
L 364.167855 257.603383 
L 364.362668 202.88151 
L 364.589948 157.829487 
L 364.622417 157.978623 
L 364.719823 166.710286 
L 364.947104 191.353477 
L 364.979573 190.28512 
L 365.076979 176.419822 
L 365.434135 86.660876 
L 365.499072 91.031331 
L 365.628947 132.463876 
L 366.018571 295.470949 
L 366.05104 294.101973 
L 366.148446 270.522084 
L 366.603008 86.596085 
L 366.667945 91.872327 
L 366.862758 147.072233 
L 367.090038 191.278797 
L 367.122507 190.990671 
L 367.219913 181.971062 
L 367.447194 157.725918 
L 367.479663 158.942434 
L 367.577069 173.248682 
L 367.934225 262.435858 
L 367.999162 257.589959 
L 368.129037 215.311436 
L 368.518661 53.568406 
L 368.55113 55.226257 
L 368.648536 79.578722 
L 369.103098 262.445834 
L 369.168035 256.748302 
L 369.362848 201.089582 
L 369.590128 157.7374 
L 369.622597 158.163278 
L 369.752472 172.197896 
L 369.947284 191.294724 
L 369.979753 189.929356 
L 370.109628 167.038866 
L 370.434315 86.598989 
L 370.466783 87.846653 
L 370.56419 108.476736 
L 371.018751 295.47988 
L 371.116157 279.764004 
L 371.343438 166.297061 
L 371.603188 86.643865 
L 371.668125 92.758931 
L 371.895406 159.020993 
L 372.090218 191.346409 
L 372.155156 188.723109 
L 372.447374 157.809086 
L 372.512312 162.63464 
L 372.674655 202.554724 
L 372.934405 262.458886 
L 372.999342 256.659187 
L 373.129217 212.710179 
L 373.518841 53.608595 
L 373.55131 55.842891 
L 373.681185 95.753037 
L 374.103278 262.359328 
L 374.168215 255.830593 
L 374.395496 189.212934 
L 374.590308 157.694096 
L 374.655246 160.568331 
L 374.947464 191.186978 
L 374.979933 189.522043 
L 375.109808 165.529872 
L 375.434495 86.615021 
L 375.466963 88.335901 
L 375.56437 110.366275 
L 376.018931 295.39058 
L 376.083869 287.01687 
L 376.246212 218.325771 
L 376.570899 87.164929 
L 376.603368 86.76888 
L 376.700774 100.476017 
L 377.090398 191.365581 
L 377.122867 190.534369 
L 377.252742 175.61047 
L 377.415086 157.86072 
L 377.447554 157.941563 
L 377.54496 168.763051 
L 377.934585 262.403603 
L 377.999522 255.647078 
L 378.161866 193.464896 
L 378.519021 53.746984 
L 378.583959 62.681596 
L 378.746302 132.259891 
L 379.070989 262.031874 
L 379.103458 262.196032 
L 379.200864 247.923474 
L 379.590489 157.698871 
L 379.622957 158.662391 
L 379.785301 178.760016 
L 379.915176 191.252483 
L 379.947644 191.029626 
L 380.04505 179.758751 
L 380.434675 86.709736 
L 380.499612 93.945485 
L 380.661956 157.057893 
L 381.019111 295.203137 
L 381.116517 276.227493 
L 381.571079 86.903596 
L 381.668485 94.715764 
L 382.090579 191.337053 
L 382.187985 184.082301 
L 382.415266 157.758001 
L 382.447734 158.123925 
L 382.54514 169.84344 
L 382.934765 262.269286 
L 382.999702 254.553944 
L 383.162046 190.523189 
L 383.519201 53.983435 
L 383.616607 73.762801 
L 384.071169 262.253134 
L 384.168575 253.81415 
L 384.590669 157.75095 
L 384.655606 161.595045 
L 384.915356 191.332121 
L 384.980293 188.552148 
L 385.110168 162.411714 
L 385.434855 86.883814 
L 385.532261 103.397108 
L 385.759542 214.981597 
L 385.986823 295.181236 
L 386.019291 294.917737 
L 386.116697 274.339535 
L 386.571259 86.722272 
L 386.668665 95.782479 
L 387.090759 191.261634 
L 387.155696 187.183976 
L 387.415446 157.701663 
L 387.480383 160.778825 
L 387.610258 187.443609 
L 387.902476 262.177412 
L 387.934945 262.055298 
L 388.032351 244.830927 
L 388.259632 132.538585 
L 388.486913 53.764431 
L 388.519381 54.317714 
L 388.616787 75.689671 
L 389.071349 262.394668 
L 389.168755 252.718987 
L 389.590849 157.849489 
L 389.655786 162.15698 
L 389.915536 191.364947 
L 389.980473 187.989447 
L 390.110348 160.805819 
L 390.402566 86.784044 
L 390.435035 87.137852 
L 390.532441 105.072094 
L 390.759722 218.048088 
L 390.987003 295.377593 
L 391.019471 294.534663 
L 391.116878 272.374226 
L 391.571439 86.62037 
L 391.636377 91.121346 
L 391.831189 145.437848 
L 392.05847 191.174732 
L 392.090939 191.140202 
L 392.188345 182.648988 
L 392.415626 157.692555 
L 392.448094 158.640244 
L 392.5455 172.143473 
L 392.902656 262.347642 
L 392.967593 258.365345 
L 393.097468 217.630056 
L 393.487093 53.61712 
L 393.519561 54.749489 
L 393.616968 77.692935 
L 394.071529 262.457108 
L 394.136467 257.528279 
L 394.331279 202.718065 
L 394.55856 157.819083 
L 394.591029 157.993579 
L 394.688435 166.778084 
L 394.915716 191.350143 
L 394.948184 190.254902 
L 395.04559 176.309297 
L 395.402746 86.652052 
L 395.467683 91.10887 
L 395.597558 132.695745 
L 395.987183 295.475821 
L 396.019651 294.054294 
L 396.117058 270.333499 
L 396.571619 86.597215 
L 396.636557 91.95033 
L 396.831369 147.235087 
L 397.05865 191.286963 
L 397.091119 190.973698 
L 397.188525 181.902444 
L 397.415806 157.731458 
L 397.448274 158.974988 
L 397.578149 181.410058 
L 397.902836 262.441167 
L 397.935305 261.386171 
L 398.032711 241.331502 
L 398.324929 93.453005 
L 398.487273 53.568 
L 398.487273 53.568 
" style="fill:none;stroke:#1f77b4;stroke-linecap:square;stroke-width:1.5;"/>
   </g>
   <g id="patch_3">
    <path d="M 57.6 307.584 
L 57.6 41.472 
" style="fill:none;stroke:#000000;stroke-linecap:square;stroke-linejoin:miter;stroke-width:0.8;"/>
   </g>
   <g id="patch_4">
    <path d="M 414.72 307.584 
L 414.72 41.472 
" style="fill:none;stroke:#000000;stroke-linecap:square;stroke-linejoin:miter;stroke-width:0.8;"/>
   </g>
   <g id="patch_5">
    <path d="M 57.6 307.584 
L 414.72 307.584 
" style="fill:none;stroke:#000000;stroke-linecap:square;stroke-linejoin:miter;stroke-width:0.8;"/>
   </g>
   <g id="patch_6">
    <path d="M 57.6 41.472 
L 414.72 41.472 
" style="fill:none;stroke:#000000;stroke-linecap:square;stroke-linejoin:miter;stroke-width:0.8;"/>
   </g>
   <g id="text_17">
    <!-- original signal -->
    <g transform="translate(194.078438 35.472)scale(0.12 -0.12)">
     <defs>
      <path d="M 1959 3097 
Q 1497 3097 1228 2736 
Q 959 2375 959 1747 
Q 959 1119 1226 758 
Q 1494 397 1959 397 
Q 2419 397 2687 759 
Q 2956 1122 2956 1747 
Q 2956 2369 2687 2733 
Q 2419 3097 1959 3097 
z
M 1959 3584 
Q 2709 3584 3137 3096 
Q 3566 2609 3566 1747 
Q 3566 888 3137 398 
Q 2709 -91 1959 -91 
Q 1206 -91 779 398 
Q 353 888 353 1747 
Q 353 2609 779 3096 
Q 1206 3584 1959 3584 
z
" id="DejaVuSans-6f" transform="scale(0.015625)"/>
      <path d="M 2631 2963 
Q 2534 3019 2420 3045 
Q 2306 3072 2169 3072 
Q 1681 3072 1420 2755 
Q 1159 2438 1159 1844 
L 1159 0 
L 581 0 
L 581 3500 
L 1159 3500 
L 1159 2956 
Q 1341 3275 1631 3429 
Q 1922 3584 2338 3584 
Q 2397 3584 2469 3576 
Q 2541 3569 2628 3553 
L 2631 2963 
z
" id="DejaVuSans-72" transform="scale(0.015625)"/>
      <path d="M 2906 1791 
Q 2906 2416 2648 2759 
Q 2391 3103 1925 3103 
Q 1463 3103 1205 2759 
Q 947 2416 947 1791 
Q 947 1169 1205 825 
Q 1463 481 1925 481 
Q 2391 481 2648 825 
Q 2906 1169 2906 1791 
z
M 3481 434 
Q 3481 -459 3084 -895 
Q 2688 -1331 1869 -1331 
Q 1566 -1331 1297 -1286 
Q 1028 -1241 775 -1147 
L 775 -588 
Q 1028 -725 1275 -790 
Q 1522 -856 1778 -856 
Q 2344 -856 2625 -561 
Q 2906 -266 2906 331 
L 2906 616 
Q 2728 306 2450 153 
Q 2172 0 1784 0 
Q 1141 0 747 490 
Q 353 981 353 1791 
Q 353 2603 747 3093 
Q 1141 3584 1784 3584 
Q 2172 3584 2450 3431 
Q 2728 3278 2906 2969 
L 2906 3500 
L 3481 3500 
L 3481 434 
z
" id="DejaVuSans-67" transform="scale(0.015625)"/>
      <path d="M 3513 2113 
L 3513 0 
L 2938 0 
L 2938 2094 
Q 2938 2591 2744 2837 
Q 2550 3084 2163 3084 
Q 1697 3084 1428 2787 
Q 1159 2491 1159 1978 
L 1159 0 
L 581 0 
L 581 3500 
L 1159 3500 
L 1159 2956 
Q 1366 3272 1645 3428 
Q 1925 3584 2291 3584 
Q 2894 3584 3203 3211 
Q 3513 2838 3513 2113 
z
" id="DejaVuSans-6e" transform="scale(0.015625)"/>
      <path d="M 2194 1759 
Q 1497 1759 1228 1600 
Q 959 1441 959 1056 
Q 959 750 1161 570 
Q 1363 391 1709 391 
Q 2188 391 2477 730 
Q 2766 1069 2766 1631 
L 2766 1759 
L 2194 1759 
z
M 3341 1997 
L 3341 0 
L 2766 0 
L 2766 531 
Q 2569 213 2275 61 
Q 1981 -91 1556 -91 
Q 1019 -91 701 211 
Q 384 513 384 1019 
Q 384 1609 779 1909 
Q 1175 2209 1959 2209 
L 2766 2209 
L 2766 2266 
Q 2766 2663 2505 2880 
Q 2244 3097 1772 3097 
Q 1472 3097 1187 3025 
Q 903 2953 641 2809 
L 641 3341 
Q 956 3463 1253 3523 
Q 1550 3584 1831 3584 
Q 2591 3584 2966 3190 
Q 3341 2797 3341 1997 
z
" id="DejaVuSans-61" transform="scale(0.015625)"/>
      <path d="M 603 4863 
L 1178 4863 
L 1178 0 
L 603 0 
L 603 4863 
z
" id="DejaVuSans-6c" transform="scale(0.015625)"/>
     </defs>
     <use xlink:href="#DejaVuSans-6f"/>
     <use x="61.181641" xlink:href="#DejaVuSans-72"/>
     <use x="102.294922" xlink:href="#DejaVuSans-69"/>
     <use x="130.078125" xlink:href="#DejaVuSans-67"/>
     <use x="193.554688" xlink:href="#DejaVuSans-69"/>
     <use x="221.337891" xlink:href="#DejaVuSans-6e"/>
     <use x="284.716797" xlink:href="#DejaVuSans-61"/>
     <use x="345.996094" xlink:href="#DejaVuSans-6c"/>
     <use x="373.779297" xlink:href="#DejaVuSans-20"/>
     <use x="405.566406" xlink:href="#DejaVuSans-73"/>
     <use x="457.666016" xlink:href="#DejaVuSans-69"/>
     <use x="485.449219" xlink:href="#DejaVuSans-67"/>
     <use x="548.925781" xlink:href="#DejaVuSans-6e"/>
     <use x="612.304688" xlink:href="#DejaVuSans-61"/>
     <use x="673.583984" xlink:href="#DejaVuSans-6c"/>
    </g>
   </g>
  </g>
 </g>
 <defs>
  <clipPath id="p7530a0c190">
   <rect height="266.112" width="357.12" x="57.6" y="41.472"/>
  </clipPath>
 </defs>
</svg>
