<?xml version="1.0" encoding="utf-8" standalone="no"?>
<!DOCTYPE svg PUBLIC "-//W3C//DTD SVG 1.1//EN"
  "http://www.w3.org/Graphics/SVG/1.1/DTD/svg11.dtd">
<svg height="345.6pt" version="1.1" viewBox="0 0 460.8 345.6" width="460.8pt" xmlns="http://www.w3.org/2000/svg" xmlns:xlink="http://www.w3.org/1999/xlink">
 <metadata>
  <rdf:RDF xmlns:cc="http://creativecommons.org/ns#" xmlns:dc="http://purl.org/dc/elements/1.1/" xmlns:rdf="http://www.w3.org/1999/02/22-rdf-syntax-ns#">
   <cc:Work>
    <dc:type rdf:resource="http://purl.org/dc/dcmitype/StillImage"/>
    <dc:date>2021-11-04T01:54:29.352149</dc:date>
    <dc:format>image/svg+xml</dc:format>
    <dc:creator>
     <cc:Agent>
      <dc:title>Matplotlib v3.4.3, https://matplotlib.org/</dc:title>
     </cc:Agent>
    </dc:creator>
   </cc:Work>
  </rdf:RDF>
 </metadata>
 <defs>
  <style type="text/css">*{stroke-linecap:butt;stroke-linejoin:round;}</style>
 </defs>
 <g id="figure_1">
  <g id="patch_1">
   <path d="M 0 345.6 
L 460.8 345.6 
L 460.8 0 
L 0 0 
z
" style="fill:#ffffff;"/>
  </g>
  <g id="axes_1">
   <g id="patch_2">
    <path d="M 57.6 307.584 
L 414.72 307.584 
L 414.72 41.472 
L 57.6 41.472 
z
" style="fill:#ffffff;"/>
   </g>
   <g id="matplotlib.axis_1">
    <g id="xtick_1">
     <g id="line2d_1">
      <defs>
       <path d="M 0 0 
L 0 3.5 
" id="m4b96fa307d" style="stroke:#000000;stroke-width:0.8;"/>
      </defs>
      <g>
       <use style="stroke:#000000;stroke-width:0.8;" x="73.832727" xlink:href="#m4b96fa307d" y="307.584"/>
      </g>
     </g>
     <g id="text_1">
      <!-- −10000 -->
      <g transform="translate(53.736634 322.182437)scale(0.1 -0.1)">
       <defs>
        <path d="M 678 2272 
L 4684 2272 
L 4684 1741 
L 678 1741 
L 678 2272 
z
" id="DejaVuSans-2212" transform="scale(0.015625)"/>
        <path d="M 794 531 
L 1825 531 
L 1825 4091 
L 703 3866 
L 703 4441 
L 1819 4666 
L 2450 4666 
L 2450 531 
L 3481 531 
L 3481 0 
L 794 0 
L 794 531 
z
" id="DejaVuSans-31" transform="scale(0.015625)"/>
        <path d="M 2034 4250 
Q 1547 4250 1301 3770 
Q 1056 3291 1056 2328 
Q 1056 1369 1301 889 
Q 1547 409 2034 409 
Q 2525 409 2770 889 
Q 3016 1369 3016 2328 
Q 3016 3291 2770 3770 
Q 2525 4250 2034 4250 
z
M 2034 4750 
Q 2819 4750 3233 4129 
Q 3647 3509 3647 2328 
Q 3647 1150 3233 529 
Q 2819 -91 2034 -91 
Q 1250 -91 836 529 
Q 422 1150 422 2328 
Q 422 3509 836 4129 
Q 1250 4750 2034 4750 
z
" id="DejaVuSans-30" transform="scale(0.015625)"/>
       </defs>
       <use xlink:href="#DejaVuSans-2212"/>
       <use x="83.789062" xlink:href="#DejaVuSans-31"/>
       <use x="147.412109" xlink:href="#DejaVuSans-30"/>
       <use x="211.035156" xlink:href="#DejaVuSans-30"/>
       <use x="274.658203" xlink:href="#DejaVuSans-30"/>
       <use x="338.28125" xlink:href="#DejaVuSans-30"/>
      </g>
     </g>
    </g>
    <g id="xtick_2">
     <g id="line2d_2">
      <g>
       <use style="stroke:#000000;stroke-width:0.8;" x="114.424693" xlink:href="#m4b96fa307d" y="307.584"/>
      </g>
     </g>
     <g id="text_2">
      <!-- −7500 -->
      <g transform="translate(97.50985 322.182437)scale(0.1 -0.1)">
       <defs>
        <path d="M 525 4666 
L 3525 4666 
L 3525 4397 
L 1831 0 
L 1172 0 
L 2766 4134 
L 525 4134 
L 525 4666 
z
" id="DejaVuSans-37" transform="scale(0.015625)"/>
        <path d="M 691 4666 
L 3169 4666 
L 3169 4134 
L 1269 4134 
L 1269 2991 
Q 1406 3038 1543 3061 
Q 1681 3084 1819 3084 
Q 2600 3084 3056 2656 
Q 3513 2228 3513 1497 
Q 3513 744 3044 326 
Q 2575 -91 1722 -91 
Q 1428 -91 1123 -41 
Q 819 9 494 109 
L 494 744 
Q 775 591 1075 516 
Q 1375 441 1709 441 
Q 2250 441 2565 725 
Q 2881 1009 2881 1497 
Q 2881 1984 2565 2268 
Q 2250 2553 1709 2553 
Q 1456 2553 1204 2497 
Q 953 2441 691 2322 
L 691 4666 
z
" id="DejaVuSans-35" transform="scale(0.015625)"/>
       </defs>
       <use xlink:href="#DejaVuSans-2212"/>
       <use x="83.789062" xlink:href="#DejaVuSans-37"/>
       <use x="147.412109" xlink:href="#DejaVuSans-35"/>
       <use x="211.035156" xlink:href="#DejaVuSans-30"/>
       <use x="274.658203" xlink:href="#DejaVuSans-30"/>
      </g>
     </g>
    </g>
    <g id="xtick_3">
     <g id="line2d_3">
      <g>
       <use style="stroke:#000000;stroke-width:0.8;" x="155.01666" xlink:href="#m4b96fa307d" y="307.584"/>
      </g>
     </g>
     <g id="text_3">
      <!-- −5000 -->
      <g transform="translate(138.101816 322.182437)scale(0.1 -0.1)">
       <use xlink:href="#DejaVuSans-2212"/>
       <use x="83.789062" xlink:href="#DejaVuSans-35"/>
       <use x="147.412109" xlink:href="#DejaVuSans-30"/>
       <use x="211.035156" xlink:href="#DejaVuSans-30"/>
       <use x="274.658203" xlink:href="#DejaVuSans-30"/>
      </g>
     </g>
    </g>
    <g id="xtick_4">
     <g id="line2d_4">
      <g>
       <use style="stroke:#000000;stroke-width:0.8;" x="195.608626" xlink:href="#m4b96fa307d" y="307.584"/>
      </g>
     </g>
     <g id="text_4">
      <!-- −2500 -->
      <g transform="translate(178.693782 322.182437)scale(0.1 -0.1)">
       <defs>
        <path d="M 1228 531 
L 3431 531 
L 3431 0 
L 469 0 
L 469 531 
Q 828 903 1448 1529 
Q 2069 2156 2228 2338 
Q 2531 2678 2651 2914 
Q 2772 3150 2772 3378 
Q 2772 3750 2511 3984 
Q 2250 4219 1831 4219 
Q 1534 4219 1204 4116 
Q 875 4013 500 3803 
L 500 4441 
Q 881 4594 1212 4672 
Q 1544 4750 1819 4750 
Q 2544 4750 2975 4387 
Q 3406 4025 3406 3419 
Q 3406 3131 3298 2873 
Q 3191 2616 2906 2266 
Q 2828 2175 2409 1742 
Q 1991 1309 1228 531 
z
" id="DejaVuSans-32" transform="scale(0.015625)"/>
       </defs>
       <use xlink:href="#DejaVuSans-2212"/>
       <use x="83.789062" xlink:href="#DejaVuSans-32"/>
       <use x="147.412109" xlink:href="#DejaVuSans-35"/>
       <use x="211.035156" xlink:href="#DejaVuSans-30"/>
       <use x="274.658203" xlink:href="#DejaVuSans-30"/>
      </g>
     </g>
    </g>
    <g id="xtick_5">
     <g id="line2d_5">
      <g>
       <use style="stroke:#000000;stroke-width:0.8;" x="236.200592" xlink:href="#m4b96fa307d" y="307.584"/>
      </g>
     </g>
     <g id="text_5">
      <!-- 0 -->
      <g transform="translate(233.019342 322.182437)scale(0.1 -0.1)">
       <use xlink:href="#DejaVuSans-30"/>
      </g>
     </g>
    </g>
    <g id="xtick_6">
     <g id="line2d_6">
      <g>
       <use style="stroke:#000000;stroke-width:0.8;" x="276.792558" xlink:href="#m4b96fa307d" y="307.584"/>
      </g>
     </g>
     <g id="text_6">
      <!-- 2500 -->
      <g transform="translate(264.067558 322.182437)scale(0.1 -0.1)">
       <use xlink:href="#DejaVuSans-32"/>
       <use x="63.623047" xlink:href="#DejaVuSans-35"/>
       <use x="127.246094" xlink:href="#DejaVuSans-30"/>
       <use x="190.869141" xlink:href="#DejaVuSans-30"/>
      </g>
     </g>
    </g>
    <g id="xtick_7">
     <g id="line2d_7">
      <g>
       <use style="stroke:#000000;stroke-width:0.8;" x="317.384524" xlink:href="#m4b96fa307d" y="307.584"/>
      </g>
     </g>
     <g id="text_7">
      <!-- 5000 -->
      <g transform="translate(304.659524 322.182437)scale(0.1 -0.1)">
       <use xlink:href="#DejaVuSans-35"/>
       <use x="63.623047" xlink:href="#DejaVuSans-30"/>
       <use x="127.246094" xlink:href="#DejaVuSans-30"/>
       <use x="190.869141" xlink:href="#DejaVuSans-30"/>
      </g>
     </g>
    </g>
    <g id="xtick_8">
     <g id="line2d_8">
      <g>
       <use style="stroke:#000000;stroke-width:0.8;" x="357.97649" xlink:href="#m4b96fa307d" y="307.584"/>
      </g>
     </g>
     <g id="text_8">
      <!-- 7500 -->
      <g transform="translate(345.25149 322.182437)scale(0.1 -0.1)">
       <use xlink:href="#DejaVuSans-37"/>
       <use x="63.623047" xlink:href="#DejaVuSans-35"/>
       <use x="127.246094" xlink:href="#DejaVuSans-30"/>
       <use x="190.869141" xlink:href="#DejaVuSans-30"/>
      </g>
     </g>
    </g>
    <g id="xtick_9">
     <g id="line2d_9">
      <g>
       <use style="stroke:#000000;stroke-width:0.8;" x="398.568457" xlink:href="#m4b96fa307d" y="307.584"/>
      </g>
     </g>
     <g id="text_9">
      <!-- 10000 -->
      <g transform="translate(382.662207 322.182437)scale(0.1 -0.1)">
       <use xlink:href="#DejaVuSans-31"/>
       <use x="63.623047" xlink:href="#DejaVuSans-30"/>
       <use x="127.246094" xlink:href="#DejaVuSans-30"/>
       <use x="190.869141" xlink:href="#DejaVuSans-30"/>
       <use x="254.492188" xlink:href="#DejaVuSans-30"/>
      </g>
     </g>
    </g>
    <g id="text_10">
     <!-- frequency $\left[Hz\right]$ -->
     <g transform="translate(199.06 335.862125)scale(0.1 -0.1)">
      <defs>
       <path d="M 2375 4863 
L 2375 4384 
L 1825 4384 
Q 1516 4384 1395 4259 
Q 1275 4134 1275 3809 
L 1275 3500 
L 2222 3500 
L 2222 3053 
L 1275 3053 
L 1275 0 
L 697 0 
L 697 3053 
L 147 3053 
L 147 3500 
L 697 3500 
L 697 3744 
Q 697 4328 969 4595 
Q 1241 4863 1831 4863 
L 2375 4863 
z
" id="DejaVuSans-66" transform="scale(0.015625)"/>
       <path d="M 2631 2963 
Q 2534 3019 2420 3045 
Q 2306 3072 2169 3072 
Q 1681 3072 1420 2755 
Q 1159 2438 1159 1844 
L 1159 0 
L 581 0 
L 581 3500 
L 1159 3500 
L 1159 2956 
Q 1341 3275 1631 3429 
Q 1922 3584 2338 3584 
Q 2397 3584 2469 3576 
Q 2541 3569 2628 3553 
L 2631 2963 
z
" id="DejaVuSans-72" transform="scale(0.015625)"/>
       <path d="M 3597 1894 
L 3597 1613 
L 953 1613 
Q 991 1019 1311 708 
Q 1631 397 2203 397 
Q 2534 397 2845 478 
Q 3156 559 3463 722 
L 3463 178 
Q 3153 47 2828 -22 
Q 2503 -91 2169 -91 
Q 1331 -91 842 396 
Q 353 884 353 1716 
Q 353 2575 817 3079 
Q 1281 3584 2069 3584 
Q 2775 3584 3186 3129 
Q 3597 2675 3597 1894 
z
M 3022 2063 
Q 3016 2534 2758 2815 
Q 2500 3097 2075 3097 
Q 1594 3097 1305 2825 
Q 1016 2553 972 2059 
L 3022 2063 
z
" id="DejaVuSans-65" transform="scale(0.015625)"/>
       <path d="M 947 1747 
Q 947 1113 1208 752 
Q 1469 391 1925 391 
Q 2381 391 2643 752 
Q 2906 1113 2906 1747 
Q 2906 2381 2643 2742 
Q 2381 3103 1925 3103 
Q 1469 3103 1208 2742 
Q 947 2381 947 1747 
z
M 2906 525 
Q 2725 213 2448 61 
Q 2172 -91 1784 -91 
Q 1150 -91 751 415 
Q 353 922 353 1747 
Q 353 2572 751 3078 
Q 1150 3584 1784 3584 
Q 2172 3584 2448 3432 
Q 2725 3281 2906 2969 
L 2906 3500 
L 3481 3500 
L 3481 -1331 
L 2906 -1331 
L 2906 525 
z
" id="DejaVuSans-71" transform="scale(0.015625)"/>
       <path d="M 544 1381 
L 544 3500 
L 1119 3500 
L 1119 1403 
Q 1119 906 1312 657 
Q 1506 409 1894 409 
Q 2359 409 2629 706 
Q 2900 1003 2900 1516 
L 2900 3500 
L 3475 3500 
L 3475 0 
L 2900 0 
L 2900 538 
Q 2691 219 2414 64 
Q 2138 -91 1772 -91 
Q 1169 -91 856 284 
Q 544 659 544 1381 
z
M 1991 3584 
L 1991 3584 
z
" id="DejaVuSans-75" transform="scale(0.015625)"/>
       <path d="M 3513 2113 
L 3513 0 
L 2938 0 
L 2938 2094 
Q 2938 2591 2744 2837 
Q 2550 3084 2163 3084 
Q 1697 3084 1428 2787 
Q 1159 2491 1159 1978 
L 1159 0 
L 581 0 
L 581 3500 
L 1159 3500 
L 1159 2956 
Q 1366 3272 1645 3428 
Q 1925 3584 2291 3584 
Q 2894 3584 3203 3211 
Q 3513 2838 3513 2113 
z
" id="DejaVuSans-6e" transform="scale(0.015625)"/>
       <path d="M 3122 3366 
L 3122 2828 
Q 2878 2963 2633 3030 
Q 2388 3097 2138 3097 
Q 1578 3097 1268 2742 
Q 959 2388 959 1747 
Q 959 1106 1268 751 
Q 1578 397 2138 397 
Q 2388 397 2633 464 
Q 2878 531 3122 666 
L 3122 134 
Q 2881 22 2623 -34 
Q 2366 -91 2075 -91 
Q 1284 -91 818 406 
Q 353 903 353 1747 
Q 353 2603 823 3093 
Q 1294 3584 2113 3584 
Q 2378 3584 2631 3529 
Q 2884 3475 3122 3366 
z
" id="DejaVuSans-63" transform="scale(0.015625)"/>
       <path d="M 2059 -325 
Q 1816 -950 1584 -1140 
Q 1353 -1331 966 -1331 
L 506 -1331 
L 506 -850 
L 844 -850 
Q 1081 -850 1212 -737 
Q 1344 -625 1503 -206 
L 1606 56 
L 191 3500 
L 800 3500 
L 1894 763 
L 2988 3500 
L 3597 3500 
L 2059 -325 
z
" id="DejaVuSans-79" transform="scale(0.015625)"/>
       <path id="DejaVuSans-20" transform="scale(0.015625)"/>
       <path d="M 550 4863 
L 1875 4863 
L 1875 4416 
L 1125 4416 
L 1125 -397 
L 1875 -397 
L 1875 -844 
L 550 -844 
L 550 4863 
z
" id="DejaVuSans-5b" transform="scale(0.015625)"/>
       <path d="M 1081 4666 
L 1716 4666 
L 1344 2753 
L 3634 2753 
L 4006 4666 
L 4641 4666 
L 3731 0 
L 3097 0 
L 3531 2222 
L 1241 2222 
L 806 0 
L 172 0 
L 1081 4666 
z
" id="DejaVuSans-Oblique-48" transform="scale(0.015625)"/>
       <path d="M 744 3500 
L 3475 3500 
L 3372 2975 
L 738 459 
L 2913 459 
L 2822 0 
L -19 0 
L 84 525 
L 2719 3041 
L 653 3041 
L 744 3500 
z
" id="DejaVuSans-Oblique-7a" transform="scale(0.015625)"/>
       <path d="M 1947 4863 
L 1947 -844 
L 622 -844 
L 622 -397 
L 1369 -397 
L 1369 4416 
L 622 4416 
L 622 4863 
L 1947 4863 
z
" id="DejaVuSans-5d" transform="scale(0.015625)"/>
      </defs>
      <use transform="translate(0 0.015625)" xlink:href="#DejaVuSans-66"/>
      <use transform="translate(35.205078 0.015625)" xlink:href="#DejaVuSans-72"/>
      <use transform="translate(76.318359 0.015625)" xlink:href="#DejaVuSans-65"/>
      <use transform="translate(137.841797 0.015625)" xlink:href="#DejaVuSans-71"/>
      <use transform="translate(201.318359 0.015625)" xlink:href="#DejaVuSans-75"/>
      <use transform="translate(264.697266 0.015625)" xlink:href="#DejaVuSans-65"/>
      <use transform="translate(326.220703 0.015625)" xlink:href="#DejaVuSans-6e"/>
      <use transform="translate(389.599609 0.015625)" xlink:href="#DejaVuSans-63"/>
      <use transform="translate(444.580078 0.015625)" xlink:href="#DejaVuSans-79"/>
      <use transform="translate(503.759766 0.015625)" xlink:href="#DejaVuSans-20"/>
      <use transform="translate(535.546875 0.015625)" xlink:href="#DejaVuSans-5b"/>
      <use transform="translate(574.560547 0.015625)" xlink:href="#DejaVuSans-Oblique-48"/>
      <use transform="translate(649.755859 0.015625)" xlink:href="#DejaVuSans-Oblique-7a"/>
      <use transform="translate(702.246094 0.015625)" xlink:href="#DejaVuSans-5d"/>
     </g>
    </g>
   </g>
   <g id="matplotlib.axis_2">
    <g id="ytick_1">
     <g id="line2d_10">
      <defs>
       <path d="M 0 0 
L -3.5 0 
" id="m26b4004c4e" style="stroke:#000000;stroke-width:0.8;"/>
      </defs>
      <g>
       <use style="stroke:#000000;stroke-width:0.8;" x="57.6" xlink:href="#m26b4004c4e" y="295.497163"/>
      </g>
     </g>
     <g id="text_11">
      <!-- 0.000 -->
      <g transform="translate(21.971875 299.296381)scale(0.1 -0.1)">
       <defs>
        <path d="M 684 794 
L 1344 794 
L 1344 0 
L 684 0 
L 684 794 
z
" id="DejaVuSans-2e" transform="scale(0.015625)"/>
       </defs>
       <use xlink:href="#DejaVuSans-30"/>
       <use x="63.623047" xlink:href="#DejaVuSans-2e"/>
       <use x="95.410156" xlink:href="#DejaVuSans-30"/>
       <use x="159.033203" xlink:href="#DejaVuSans-30"/>
       <use x="222.65625" xlink:href="#DejaVuSans-30"/>
      </g>
     </g>
    </g>
    <g id="ytick_2">
     <g id="line2d_11">
      <g>
       <use style="stroke:#000000;stroke-width:0.8;" x="57.6" xlink:href="#m26b4004c4e" y="249.690858"/>
      </g>
     </g>
     <g id="text_12">
      <!-- 0.005 -->
      <g transform="translate(21.971875 253.490076)scale(0.1 -0.1)">
       <use xlink:href="#DejaVuSans-30"/>
       <use x="63.623047" xlink:href="#DejaVuSans-2e"/>
       <use x="95.410156" xlink:href="#DejaVuSans-30"/>
       <use x="159.033203" xlink:href="#DejaVuSans-30"/>
       <use x="222.65625" xlink:href="#DejaVuSans-35"/>
      </g>
     </g>
    </g>
    <g id="ytick_3">
     <g id="line2d_12">
      <g>
       <use style="stroke:#000000;stroke-width:0.8;" x="57.6" xlink:href="#m26b4004c4e" y="203.884553"/>
      </g>
     </g>
     <g id="text_13">
      <!-- 0.010 -->
      <g transform="translate(21.971875 207.683772)scale(0.1 -0.1)">
       <use xlink:href="#DejaVuSans-30"/>
       <use x="63.623047" xlink:href="#DejaVuSans-2e"/>
       <use x="95.410156" xlink:href="#DejaVuSans-30"/>
       <use x="159.033203" xlink:href="#DejaVuSans-31"/>
       <use x="222.65625" xlink:href="#DejaVuSans-30"/>
      </g>
     </g>
    </g>
    <g id="ytick_4">
     <g id="line2d_13">
      <g>
       <use style="stroke:#000000;stroke-width:0.8;" x="57.6" xlink:href="#m26b4004c4e" y="158.078248"/>
      </g>
     </g>
     <g id="text_14">
      <!-- 0.015 -->
      <g transform="translate(21.971875 161.877467)scale(0.1 -0.1)">
       <use xlink:href="#DejaVuSans-30"/>
       <use x="63.623047" xlink:href="#DejaVuSans-2e"/>
       <use x="95.410156" xlink:href="#DejaVuSans-30"/>
       <use x="159.033203" xlink:href="#DejaVuSans-31"/>
       <use x="222.65625" xlink:href="#DejaVuSans-35"/>
      </g>
     </g>
    </g>
    <g id="ytick_5">
     <g id="line2d_14">
      <g>
       <use style="stroke:#000000;stroke-width:0.8;" x="57.6" xlink:href="#m26b4004c4e" y="112.271943"/>
      </g>
     </g>
     <g id="text_15">
      <!-- 0.020 -->
      <g transform="translate(21.971875 116.071162)scale(0.1 -0.1)">
       <use xlink:href="#DejaVuSans-30"/>
       <use x="63.623047" xlink:href="#DejaVuSans-2e"/>
       <use x="95.410156" xlink:href="#DejaVuSans-30"/>
       <use x="159.033203" xlink:href="#DejaVuSans-32"/>
       <use x="222.65625" xlink:href="#DejaVuSans-30"/>
      </g>
     </g>
    </g>
    <g id="ytick_6">
     <g id="line2d_15">
      <g>
       <use style="stroke:#000000;stroke-width:0.8;" x="57.6" xlink:href="#m26b4004c4e" y="66.465638"/>
      </g>
     </g>
     <g id="text_16">
      <!-- 0.025 -->
      <g transform="translate(21.971875 70.264857)scale(0.1 -0.1)">
       <use xlink:href="#DejaVuSans-30"/>
       <use x="63.623047" xlink:href="#DejaVuSans-2e"/>
       <use x="95.410156" xlink:href="#DejaVuSans-30"/>
       <use x="159.033203" xlink:href="#DejaVuSans-32"/>
       <use x="222.65625" xlink:href="#DejaVuSans-35"/>
      </g>
     </g>
    </g>
    <g id="text_17">
     <!-- magnitude -->
     <g transform="translate(15.892187 201.574094)rotate(-90)scale(0.1 -0.1)">
      <defs>
       <path d="M 3328 2828 
Q 3544 3216 3844 3400 
Q 4144 3584 4550 3584 
Q 5097 3584 5394 3201 
Q 5691 2819 5691 2113 
L 5691 0 
L 5113 0 
L 5113 2094 
Q 5113 2597 4934 2840 
Q 4756 3084 4391 3084 
Q 3944 3084 3684 2787 
Q 3425 2491 3425 1978 
L 3425 0 
L 2847 0 
L 2847 2094 
Q 2847 2600 2669 2842 
Q 2491 3084 2119 3084 
Q 1678 3084 1418 2786 
Q 1159 2488 1159 1978 
L 1159 0 
L 581 0 
L 581 3500 
L 1159 3500 
L 1159 2956 
Q 1356 3278 1631 3431 
Q 1906 3584 2284 3584 
Q 2666 3584 2933 3390 
Q 3200 3197 3328 2828 
z
" id="DejaVuSans-6d" transform="scale(0.015625)"/>
       <path d="M 2194 1759 
Q 1497 1759 1228 1600 
Q 959 1441 959 1056 
Q 959 750 1161 570 
Q 1363 391 1709 391 
Q 2188 391 2477 730 
Q 2766 1069 2766 1631 
L 2766 1759 
L 2194 1759 
z
M 3341 1997 
L 3341 0 
L 2766 0 
L 2766 531 
Q 2569 213 2275 61 
Q 1981 -91 1556 -91 
Q 1019 -91 701 211 
Q 384 513 384 1019 
Q 384 1609 779 1909 
Q 1175 2209 1959 2209 
L 2766 2209 
L 2766 2266 
Q 2766 2663 2505 2880 
Q 2244 3097 1772 3097 
Q 1472 3097 1187 3025 
Q 903 2953 641 2809 
L 641 3341 
Q 956 3463 1253 3523 
Q 1550 3584 1831 3584 
Q 2591 3584 2966 3190 
Q 3341 2797 3341 1997 
z
" id="DejaVuSans-61" transform="scale(0.015625)"/>
       <path d="M 2906 1791 
Q 2906 2416 2648 2759 
Q 2391 3103 1925 3103 
Q 1463 3103 1205 2759 
Q 947 2416 947 1791 
Q 947 1169 1205 825 
Q 1463 481 1925 481 
Q 2391 481 2648 825 
Q 2906 1169 2906 1791 
z
M 3481 434 
Q 3481 -459 3084 -895 
Q 2688 -1331 1869 -1331 
Q 1566 -1331 1297 -1286 
Q 1028 -1241 775 -1147 
L 775 -588 
Q 1028 -725 1275 -790 
Q 1522 -856 1778 -856 
Q 2344 -856 2625 -561 
Q 2906 -266 2906 331 
L 2906 616 
Q 2728 306 2450 153 
Q 2172 0 1784 0 
Q 1141 0 747 490 
Q 353 981 353 1791 
Q 353 2603 747 3093 
Q 1141 3584 1784 3584 
Q 2172 3584 2450 3431 
Q 2728 3278 2906 2969 
L 2906 3500 
L 3481 3500 
L 3481 434 
z
" id="DejaVuSans-67" transform="scale(0.015625)"/>
       <path d="M 603 3500 
L 1178 3500 
L 1178 0 
L 603 0 
L 603 3500 
z
M 603 4863 
L 1178 4863 
L 1178 4134 
L 603 4134 
L 603 4863 
z
" id="DejaVuSans-69" transform="scale(0.015625)"/>
       <path d="M 1172 4494 
L 1172 3500 
L 2356 3500 
L 2356 3053 
L 1172 3053 
L 1172 1153 
Q 1172 725 1289 603 
Q 1406 481 1766 481 
L 2356 481 
L 2356 0 
L 1766 0 
Q 1100 0 847 248 
Q 594 497 594 1153 
L 594 3053 
L 172 3053 
L 172 3500 
L 594 3500 
L 594 4494 
L 1172 4494 
z
" id="DejaVuSans-74" transform="scale(0.015625)"/>
       <path d="M 2906 2969 
L 2906 4863 
L 3481 4863 
L 3481 0 
L 2906 0 
L 2906 525 
Q 2725 213 2448 61 
Q 2172 -91 1784 -91 
Q 1150 -91 751 415 
Q 353 922 353 1747 
Q 353 2572 751 3078 
Q 1150 3584 1784 3584 
Q 2172 3584 2448 3432 
Q 2725 3281 2906 2969 
z
M 947 1747 
Q 947 1113 1208 752 
Q 1469 391 1925 391 
Q 2381 391 2643 752 
Q 2906 1113 2906 1747 
Q 2906 2381 2643 2742 
Q 2381 3103 1925 3103 
Q 1469 3103 1208 2742 
Q 947 2381 947 1747 
z
" id="DejaVuSans-64" transform="scale(0.015625)"/>
      </defs>
      <use xlink:href="#DejaVuSans-6d"/>
      <use x="97.412109" xlink:href="#DejaVuSans-61"/>
      <use x="158.691406" xlink:href="#DejaVuSans-67"/>
      <use x="222.167969" xlink:href="#DejaVuSans-6e"/>
      <use x="285.546875" xlink:href="#DejaVuSans-69"/>
      <use x="313.330078" xlink:href="#DejaVuSans-74"/>
      <use x="352.539062" xlink:href="#DejaVuSans-75"/>
      <use x="415.917969" xlink:href="#DejaVuSans-64"/>
      <use x="479.394531" xlink:href="#DejaVuSans-65"/>
     </g>
    </g>
   </g>
   <g id="line2d_16">
    <path clip-path="url(#paed796c2c7)" d="M 73.832727 295.31343 
L 73.913911 295.348554 
L 73.995095 295.215641 
L 74.076279 295.438007 
L 74.157463 295.313121 
L 74.238647 295.39841 
L 74.319831 294.926569 
L 74.401015 294.966513 
L 74.725751 295.404722 
L 74.806934 295.395899 
L 74.888118 295.082916 
L 74.969302 295.295819 
L 75.050486 295.263347 
L 75.13167 295.282214 
L 75.294038 294.83193 
L 75.375222 294.941844 
L 75.456406 295.406639 
L 75.53759 295.000725 
L 75.618774 295.230937 
L 75.781142 294.730249 
L 76.024693 295.369755 
L 76.105877 295.345822 
L 76.268245 294.992922 
L 76.349429 295.36057 
L 76.430613 294.9539 
L 76.674165 295.431457 
L 76.755349 295.315154 
L 76.836533 295.47094 
L 76.917717 294.877305 
L 77.080085 295.096016 
L 77.161268 295.097444 
L 77.323636 295.375811 
L 77.40482 295.209825 
L 77.486004 295.309181 
L 77.567188 295.147131 
L 77.729556 295.312086 
L 77.973108 295.184471 
L 78.21666 295.380468 
L 78.297844 295.062729 
L 78.460211 295.367769 
L 78.541395 295.385343 
L 78.866131 295.067282 
L 79.028499 295.47138 
L 79.109683 295.04337 
L 79.190867 295.404703 
L 79.272051 295.32147 
L 79.434419 295.099267 
L 79.515603 295.323628 
L 79.596786 295.159424 
L 79.67797 295.430565 
L 79.921522 295.103795 
L 80.246258 295.2018 
L 80.408626 295.22516 
L 80.48981 295.058841 
L 80.570994 295.138703 
L 80.652178 295.074481 
L 80.733362 295.404459 
L 80.814545 295.079754 
L 80.895729 295.400165 
L 80.976913 295.329686 
L 81.058097 295.15974 
L 81.139281 295.334152 
L 81.220465 295.17469 
L 81.301649 295.334484 
L 81.545201 295.051808 
L 81.788753 295.36918 
L 81.951121 295.168598 
L 82.35704 295.183859 
L 82.438224 295.390486 
L 82.600592 295.137242 
L 82.76296 295.403399 
L 83.006512 295.11652 
L 83.087696 295.373046 
L 83.168879 295.043705 
L 83.250063 295.328679 
L 83.412431 295.016692 
L 83.574799 295.357591 
L 83.655983 295.040408 
L 83.737167 295.261505 
L 83.818351 295.016879 
L 84.061903 295.354286 
L 84.143087 295.379624 
L 84.224271 295.086161 
L 84.305455 295.22162 
L 84.386638 295.065388 
L 84.467822 295.337331 
L 84.549006 295.112624 
L 84.63019 295.347575 
L 84.711374 294.95515 
L 84.873742 295.374478 
L 84.954926 294.974721 
L 85.03611 295.090748 
L 85.117294 295.138368 
L 85.198478 295.323782 
L 85.279662 294.972267 
L 85.523214 295.389607 
L 85.685581 295.130359 
L 85.929133 295.370303 
L 86.010317 295.359531 
L 86.091501 295.154335 
L 86.172685 295.25567 
L 86.253869 294.953818 
L 86.335053 295.297328 
L 86.416237 295.276053 
L 86.578605 295.209361 
L 86.822156 295.443049 
L 86.90334 295.447839 
L 86.984524 295.135945 
L 87.065708 295.389545 
L 87.146892 295.359249 
L 87.30926 294.981848 
L 87.471628 295.197591 
L 87.552812 294.992136 
L 87.633996 295.41421 
L 87.71518 295.252716 
L 87.796364 295.108038 
L 87.877548 295.336288 
L 87.958732 295.254141 
L 88.527019 295.157925 
L 88.608203 295.407867 
L 88.770571 295.213039 
L 88.932939 295.321171 
L 89.014123 295.321268 
L 89.17649 295.109219 
L 89.257674 295.188382 
L 89.338858 295.092194 
L 89.501226 295.383929 
L 89.663594 295.14167 
L 89.744778 295.235752 
L 89.825962 294.976488 
L 89.907146 295.394342 
L 89.98833 295.085036 
L 90.150698 295.448398 
L 90.231882 294.95875 
L 90.313066 295.015525 
L 90.394249 295.168698 
L 90.475433 295.118392 
L 90.556617 295.172171 
L 90.637801 295.381789 
L 90.718985 294.982261 
L 90.800169 295.340261 
L 90.881353 295.165925 
L 91.043721 295.414482 
L 91.124905 295.128285 
L 91.206089 295.239809 
L 91.449641 295.176684 
L 91.530825 295.289505 
L 91.612008 295.149845 
L 91.693192 295.3171 
L 91.85556 294.801673 
L 92.017928 295.25467 
L 92.26148 295.129855 
L 92.342664 295.251798 
L 92.505032 294.986676 
L 92.748584 295.359285 
L 92.829767 295.167339 
L 92.992135 295.299917 
L 93.073319 294.946734 
L 93.154503 295.339597 
L 93.235687 295.128423 
L 93.398055 295.30228 
L 93.479239 295.203024 
L 93.560423 295.376102 
L 93.641607 295.027422 
L 93.722791 295.069686 
L 93.803975 295.120759 
L 93.885159 295.02347 
L 93.966342 295.129795 
L 94.12871 294.816794 
L 94.209894 295.31701 
L 94.372262 295.05817 
L 94.53463 295.295447 
L 94.615814 295.316759 
L 94.696998 294.740563 
L 94.859366 295.309078 
L 94.94055 295.047498 
L 95.102918 295.451018 
L 95.184101 295.304239 
L 95.508837 295.049224 
L 95.590021 295.347303 
L 95.671205 295.011735 
L 95.752389 295.099711 
L 95.995941 295.349114 
L 96.077125 295.140664 
L 96.158309 295.227168 
L 96.320677 295.3898 
L 96.40186 295.285082 
L 96.483044 294.951444 
L 96.645412 295.336638 
L 96.80778 295.282187 
L 96.888964 294.676681 
L 96.970148 295.327976 
L 97.051332 294.94755 
L 97.2137 295.388655 
L 97.294884 295.103378 
L 97.376068 295.132041 
L 97.457252 295.066457 
L 97.538436 295.234725 
L 97.619619 294.900217 
L 97.700803 295.186819 
L 97.781987 295.123467 
L 97.863171 295.296592 
L 97.944355 295.023923 
L 98.025539 295.224431 
L 98.106723 294.981039 
L 98.269091 295.286416 
L 98.431459 295.385107 
L 98.512643 295.23351 
L 98.593827 295.424809 
L 98.756195 295.188335 
L 98.837378 295.242916 
L 98.918562 294.884069 
L 98.999746 295.362606 
L 99.08093 295.314018 
L 99.162114 294.998392 
L 99.243298 295.040768 
L 99.324482 295.146297 
L 99.405666 294.901803 
L 99.568034 295.24705 
L 99.649218 295.400487 
L 99.89277 295.119155 
L 100.055137 295.396401 
L 100.136321 295.061227 
L 100.217505 295.464453 
L 100.298689 295.123219 
L 100.379873 295.244899 
L 100.623425 295.368632 
L 100.704609 295.160007 
L 100.785793 295.279334 
L 100.948161 294.772727 
L 101.110529 295.219621 
L 101.191712 294.938591 
L 101.272896 295.334448 
L 101.35408 295.055754 
L 101.435264 295.217756 
L 101.516448 295.117796 
L 101.597632 295.217011 
L 101.678816 295.105222 
L 101.841184 295.299175 
L 101.922368 295.268063 
L 102.003552 294.945796 
L 102.16592 295.253333 
L 102.247104 295.15681 
L 102.409471 295.380098 
L 102.490655 294.948372 
L 102.653023 295.374258 
L 102.734207 295.105263 
L 102.815391 295.247758 
L 102.896575 294.998223 
L 102.977759 295.299918 
L 103.058943 294.776568 
L 103.221311 295.11384 
L 103.383679 295.103382 
L 103.546047 295.279905 
L 103.62723 295.134058 
L 103.708414 295.36162 
L 103.789598 294.78028 
L 103.951966 295.31279 
L 104.03315 295.189679 
L 104.114334 295.349192 
L 104.195518 295.273305 
L 104.276702 295.311818 
L 104.357886 295.052009 
L 104.43907 295.145216 
L 104.520254 294.925632 
L 104.601438 295.328333 
L 104.682622 295.172631 
L 104.763805 295.224614 
L 104.844989 294.864005 
L 104.926173 295.296195 
L 105.007357 295.185612 
L 105.088541 295.377426 
L 105.169725 295.120056 
L 105.250909 295.210419 
L 105.332093 295.059602 
L 105.413277 295.4501 
L 105.494461 295.115015 
L 105.656829 295.484809 
L 105.819197 295.136701 
L 105.900381 295.160447 
L 105.981564 295.414192 
L 106.062748 294.930142 
L 106.143932 295.27606 
L 106.225116 295.213923 
L 106.3063 295.180298 
L 106.387484 295.439145 
L 106.468668 294.818845 
L 106.549852 295.188987 
L 106.631036 294.995675 
L 106.71222 295.308112 
L 106.874588 295.191631 
L 107.036956 295.237328 
L 107.11814 295.199684 
L 107.280507 295.342403 
L 107.361691 295.188423 
L 107.442875 295.237001 
L 107.524059 295.2118 
L 107.767611 295.417268 
L 107.848795 295.016822 
L 107.929979 295.075176 
L 108.092347 295.350263 
L 108.173531 294.902334 
L 108.254715 295.328437 
L 108.335899 294.963892 
L 108.417082 295.180591 
L 108.498266 294.886446 
L 108.660634 295.374128 
L 108.823002 295.180119 
L 108.904186 295.022419 
L 109.066554 295.276407 
L 109.228922 295.10447 
L 109.310106 295.31326 
L 109.39129 294.927689 
L 109.553658 295.409513 
L 109.634841 295.258711 
L 109.716025 295.153547 
L 109.797209 295.395728 
L 109.878393 295.016716 
L 110.040761 295.384561 
L 110.121945 295.319419 
L 110.365497 295.084156 
L 110.527865 295.431705 
L 110.771416 295.220151 
L 110.8526 294.925518 
L 110.933784 294.979322 
L 111.096152 295.238344 
L 111.339704 295.085209 
L 111.420888 295.259279 
L 111.502072 294.895228 
L 111.583256 295.155239 
L 111.745624 294.870208 
L 111.907992 295.486239 
L 111.989175 295.427707 
L 112.070359 294.94787 
L 112.151543 295.081635 
L 112.232727 295.041866 
L 112.313911 295.42236 
L 112.395095 295.315399 
L 112.719831 295.051649 
L 112.801015 295.167495 
L 112.882199 294.829483 
L 112.963383 295.142163 
L 113.044567 295.089399 
L 113.206934 295.476582 
L 113.288118 295.298419 
L 113.369302 295.426724 
L 113.53167 295.03116 
L 113.612854 295.310497 
L 113.694038 295.277508 
L 113.775222 294.903257 
L 113.856406 295.206043 
L 113.93759 295.076612 
L 114.018774 295.339955 
L 114.099958 295.282128 
L 114.181142 295.120827 
L 114.262326 295.198069 
L 114.749429 295.301866 
L 114.830613 295.024408 
L 114.911797 295.382748 
L 114.992981 295.122023 
L 115.074165 295.38325 
L 115.236533 295.033998 
L 115.317717 295.035069 
L 115.398901 295.409725 
L 115.561268 295.213633 
L 115.642452 295.444649 
L 115.723636 295.061864 
L 115.80482 295.469082 
L 115.967188 295.165018 
L 116.129556 295.023393 
L 116.373108 295.482648 
L 116.535476 295.294844 
L 116.61666 295.349457 
L 116.779027 295.245375 
L 116.860211 295.302816 
L 116.941395 295.203884 
L 117.022579 295.342243 
L 117.103763 295.277244 
L 117.266131 295.081478 
L 117.428499 295.362492 
L 117.509683 295.024558 
L 117.590867 295.33976 
L 117.672051 295.054166 
L 117.753235 295.203463 
L 117.834419 294.827004 
L 117.915603 295.235337 
L 117.996786 295.091124 
L 118.240338 295.423086 
L 118.321522 295.399053 
L 118.565074 295.190115 
L 118.646258 295.080198 
L 118.808626 295.201612 
L 119.133362 295.309727 
L 119.295729 294.996937 
L 119.458097 295.205603 
L 119.539281 294.877992 
L 119.620465 295.405025 
L 119.701649 295.141911 
L 119.864017 295.440358 
L 119.945201 294.9544 
L 120.026385 295.381235 
L 120.107569 295.235795 
L 120.269937 295.237417 
L 120.432304 295.156672 
L 120.513488 295.311127 
L 120.594672 294.881821 
L 120.75704 295.392055 
L 120.919408 295.367655 
L 121.000592 294.936735 
L 121.16296 295.391513 
L 121.244144 294.850099 
L 121.325328 294.983838 
L 121.568879 295.39659 
L 121.650063 294.893977 
L 121.731247 295.181044 
L 121.812431 295.135802 
L 121.974799 295.373158 
L 122.055983 294.995948 
L 122.137167 295.300589 
L 122.218351 295.224446 
L 122.299535 295.361122 
L 122.380719 295.154035 
L 122.461903 295.3179 
L 122.624271 295.052125 
L 122.705455 295.28188 
L 122.867822 295.195638 
L 122.949006 295.321045 
L 123.03019 295.031998 
L 123.111374 295.086369 
L 123.192558 294.867629 
L 123.43611 295.444699 
L 123.679662 295.245504 
L 123.84203 295.340893 
L 124.004397 295.124476 
L 124.085581 295.128861 
L 124.166765 295.296918 
L 124.329133 294.623361 
L 124.572685 295.405874 
L 124.816237 295.026726 
L 124.978605 295.128171 
L 125.059789 295.025353 
L 125.222156 295.415242 
L 125.30334 295.076392 
L 125.384524 295.375164 
L 125.465708 295.251048 
L 125.628076 295.390548 
L 125.790444 295.124221 
L 125.871628 295.362405 
L 125.952812 295.301326 
L 126.277548 294.965943 
L 126.358732 295.270473 
L 126.439915 295.143535 
L 126.521099 295.241278 
L 126.602283 295.067093 
L 126.683467 295.235632 
L 126.845835 295.058479 
L 126.927019 295.069882 
L 127.008203 294.958844 
L 127.089387 295.299486 
L 127.170571 295.149215 
L 127.251755 295.198433 
L 127.332939 295.087123 
L 127.414123 295.270497 
L 127.495307 295.195351 
L 127.820042 295.420795 
L 127.98241 295.016051 
L 128.144778 295.33624 
L 128.225962 295.169819 
L 128.550698 294.635222 
L 128.631882 295.370036 
L 128.713066 295.1451 
L 128.794249 295.372993 
L 128.875433 295.304996 
L 129.200169 294.949275 
L 129.362537 295.368445 
L 129.443721 295.129296 
L 129.524905 295.292911 
L 129.606089 294.929486 
L 129.687273 295.328354 
L 129.768457 294.800779 
L 129.849641 295.105135 
L 129.930825 294.974301 
L 130.012008 295.031128 
L 130.174376 295.340751 
L 130.25556 295.182645 
L 130.336744 295.343369 
L 130.580296 295.014666 
L 130.742664 295.061123 
L 130.823848 294.976773 
L 130.905032 295.299875 
L 130.986216 295.191165 
L 131.0674 294.999812 
L 131.148584 295.412627 
L 131.229767 295.330422 
L 131.310951 295.448347 
L 131.716871 295.060521 
L 131.798055 295.36277 
L 131.879239 295.196049 
L 131.960423 295.277919 
L 132.041607 295.242255 
L 132.122791 295.366061 
L 132.285159 295.097062 
L 132.366342 295.292893 
L 132.447526 295.254636 
L 132.52871 295.059864 
L 132.609894 295.3246 
L 132.691078 295.235658 
L 132.772262 295.106989 
L 132.853446 295.44072 
L 133.096998 295.091847 
L 133.178182 295.42183 
L 133.34055 294.948817 
L 133.584101 295.367073 
L 133.665285 295.352287 
L 133.827653 295.0711 
L 134.071205 295.415582 
L 134.233573 295.180038 
L 134.395941 295.351746 
L 134.477125 295.019847 
L 134.639493 295.322113 
L 134.883044 294.728343 
L 135.045412 295.292214 
L 135.126596 295.102745 
L 135.20778 295.196047 
L 135.288964 294.878173 
L 135.451332 295.313097 
L 135.6137 295.268869 
L 135.694884 295.407117 
L 135.938436 295.125459 
L 136.019619 295.328796 
L 136.100803 295.238804 
L 136.263171 295.312211 
L 136.344355 295.17779 
L 136.425539 295.372863 
L 136.587907 294.96361 
L 136.912643 295.340813 
L 137.075011 295.210082 
L 137.156195 295.39257 
L 137.237378 295.33405 
L 137.48093 295.260639 
L 137.562114 294.814643 
L 137.643298 295.449427 
L 137.724482 295.190904 
L 137.805666 295.244404 
L 138.130402 295.135347 
L 138.211586 295.381224 
L 138.29277 295.090205 
L 138.373953 295.387168 
L 138.455137 295.280601 
L 138.617505 294.941389 
L 138.698689 295.278552 
L 138.779873 295.087118 
L 138.861057 295.160939 
L 138.942241 295.267735 
L 139.023425 295.145106 
L 139.104609 295.208611 
L 139.185793 295.220037 
L 139.266977 294.898445 
L 139.348161 295.274587 
L 139.429345 295.192019 
L 139.591712 295.382355 
L 139.672896 294.969232 
L 139.835264 295.378288 
L 139.916448 294.812986 
L 139.997632 295.254518 
L 140.078816 295.159494 
L 140.16 295.314227 
L 140.241184 294.987678 
L 140.403552 295.263972 
L 140.484736 295.288369 
L 140.56592 295.047599 
L 140.647104 295.289152 
L 140.728288 294.963509 
L 140.809471 295.237391 
L 140.890655 295.071927 
L 140.971839 295.310001 
L 141.215391 294.952006 
L 141.377759 295.389797 
L 141.540127 295.186486 
L 141.621311 295.286498 
L 141.783679 295.379127 
L 141.946047 295.283758 
L 142.02723 295.399581 
L 142.108414 295.161968 
L 142.189598 295.193041 
L 142.270782 295.267005 
L 142.351966 295.00538 
L 142.43315 295.417679 
L 142.514334 295.311597 
L 142.595518 295.023769 
L 142.676702 295.080225 
L 142.920254 295.27586 
L 143.001438 294.849015 
L 143.326173 295.354678 
L 143.488541 295.35515 
L 143.569725 295.294459 
L 143.650909 295.043183 
L 143.813277 295.32835 
L 143.894461 295.254675 
L 143.975645 295.432918 
L 144.056829 295.206183 
L 144.219197 295.437852 
L 144.300381 294.926196 
L 144.381564 295.22188 
L 144.462748 295.17199 
L 144.543932 295.100734 
L 144.625116 295.24954 
L 144.7063 295.199922 
L 144.787484 295.216249 
L 144.868668 294.798351 
L 145.11222 295.333277 
L 145.274588 295.211955 
L 145.355772 295.178276 
L 145.436956 294.97526 
L 145.51814 295.095658 
L 145.599323 294.920492 
L 145.680507 295.342763 
L 145.761691 295.260855 
L 145.924059 295.242932 
L 146.086427 295.22864 
L 146.167611 295.414302 
L 146.248795 295.32357 
L 146.329979 294.95776 
L 146.411163 295.263485 
L 146.573531 295.151475 
L 146.735899 295.330583 
L 146.898266 295.011877 
L 146.97945 295.38916 
L 147.060634 295.081752 
L 147.141818 295.134566 
L 147.304186 295.29984 
L 147.38537 295.10627 
L 147.466554 295.274925 
L 147.547738 294.497253 
L 147.628922 295.274731 
L 147.710106 295.191541 
L 147.79129 295.405533 
L 147.872474 295.22414 
L 147.953658 295.318295 
L 148.116025 295.198037 
L 148.197209 295.209978 
L 148.278393 294.963803 
L 148.440761 295.264483 
L 148.684313 295.290411 
L 148.765497 295.324986 
L 148.846681 295.222792 
L 148.927865 295.367826 
L 149.090233 295.101817 
L 149.2526 295.386998 
L 149.414968 295.226301 
L 149.496152 295.233338 
L 149.65852 294.563788 
L 149.820888 295.386673 
L 149.902072 295.05959 
L 150.06444 295.474276 
L 150.226808 294.851893 
L 150.389175 295.301653 
L 150.470359 295.002359 
L 150.551543 295.231765 
L 150.632727 294.934212 
L 150.713911 294.987105 
L 150.795095 295.031187 
L 150.957463 295.333392 
L 151.038647 295.105359 
L 151.119831 295.421199 
L 151.201015 294.912502 
L 151.282199 295.101749 
L 151.688118 294.965645 
L 151.769302 293.585851 
L 151.850486 294.850486 
L 151.93167 294.821316 
L 152.094038 295.219794 
L 152.175222 295.39808 
L 152.256406 295.203168 
L 152.418774 295.311658 
L 152.499958 295.278939 
L 152.581142 295.459084 
L 152.824693 295.128848 
L 152.905877 295.37509 
L 152.987061 294.912368 
L 153.149429 295.328112 
L 153.230613 295.295906 
L 153.311797 294.948431 
L 153.474165 295.289766 
L 153.555349 295.100429 
L 153.636533 295.293205 
L 153.717717 295.18292 
L 153.798901 295.428648 
L 153.880085 294.607912 
L 153.961268 295.235811 
L 154.042452 294.991739 
L 154.20482 295.389047 
L 154.286004 295.439527 
L 154.367188 295.207985 
L 154.448372 295.285397 
L 154.529556 295.162638 
L 154.61074 295.230481 
L 154.691924 295.171778 
L 154.854292 295.303584 
L 154.935476 295.083297 
L 155.097844 295.303809 
L 155.179027 295.201202 
L 155.260211 295.435301 
L 155.341395 295.008475 
L 155.422579 295.165274 
L 155.503763 295.46 
L 155.584947 295.041871 
L 155.666131 295.180307 
L 155.747315 295.213156 
L 155.909683 294.693232 
L 155.990867 292.511447 
L 156.153235 295.359904 
L 156.396786 294.765209 
L 156.559154 295.432415 
L 156.640338 295.014246 
L 156.802706 295.344897 
L 156.88389 295.172387 
L 157.046258 295.258333 
L 157.28981 294.946182 
L 157.452178 295.326974 
L 157.614545 295.234338 
L 157.695729 295.062852 
L 157.858097 295.445863 
L 157.939281 295.29967 
L 158.020465 295.161295 
L 158.101649 294.063881 
L 158.182833 295.315877 
L 158.264017 295.221854 
L 158.345201 295.004835 
L 158.507569 295.26691 
L 158.588753 294.9579 
L 158.832304 295.34302 
L 158.913488 295.128054 
L 158.994672 295.161307 
L 159.481776 295.389627 
L 159.644144 295.087848 
L 159.725328 295.415017 
L 159.806512 294.936099 
L 159.887696 295.162614 
L 159.968879 294.828818 
L 160.131247 295.322092 
L 160.212431 294.041314 
L 160.293615 295.346543 
L 160.374799 295.272536 
L 160.455983 294.908555 
L 160.537167 295.424018 
L 160.618351 295.365665 
L 160.699535 295.159107 
L 160.780719 295.253272 
L 160.861903 295.391006 
L 160.943087 294.952147 
L 161.024271 295.200551 
L 161.105455 294.981188 
L 161.186638 295.077123 
L 161.349006 295.227556 
L 161.511374 295.348235 
L 161.592558 295.328622 
L 161.83611 294.745024 
L 161.917294 295.411929 
L 161.998478 295.081894 
L 162.079662 295.178271 
L 162.160846 295.239313 
L 162.24203 295.098149 
L 162.323214 292.245948 
L 162.404397 295.333601 
L 162.485581 294.820569 
L 162.566765 295.152164 
L 162.647949 294.833534 
L 162.729133 294.881175 
L 162.891501 295.417451 
L 162.972685 295.214833 
L 163.053869 295.00429 
L 163.297421 295.440656 
L 163.378605 294.913635 
L 163.459789 295.307977 
L 163.622156 294.793349 
L 163.784524 295.272382 
L 164.10926 295.262563 
L 164.271628 295.105266 
L 164.352812 295.08607 
L 164.433996 294.270854 
L 164.596364 295.324078 
L 164.677548 295.437194 
L 164.921099 295.100487 
L 165.002283 295.119476 
L 165.083467 295.283666 
L 165.164651 295.011621 
L 165.245835 295.108758 
L 165.489387 295.239479 
L 165.570571 295.185089 
L 165.814123 295.375955 
L 165.895307 295.358827 
L 165.97649 295.153418 
L 166.057674 295.269047 
L 166.38241 294.982851 
L 166.463594 294.999688 
L 166.544778 293.669622 
L 166.707146 295.311879 
L 166.78833 295.088706 
L 166.869514 295.158724 
L 166.950698 295.241239 
L 167.031882 295.488 
L 167.113066 295.049627 
L 167.194249 295.390072 
L 167.275433 295.273522 
L 167.356617 295.387581 
L 167.437801 295.120315 
L 167.600169 295.258415 
L 167.762537 295.210777 
L 167.843721 295.348231 
L 167.924905 295.238515 
L 168.087273 295.374023 
L 168.412008 294.972522 
L 168.493192 295.30385 
L 168.574376 294.98048 
L 168.65556 293.918103 
L 168.817928 295.263239 
L 168.899112 295.191542 
L 168.980296 294.905294 
L 169.06148 295.347154 
L 169.142664 295.008177 
L 169.305032 295.387449 
L 169.386216 295.343703 
L 169.4674 295.168817 
L 169.548584 295.292745 
L 169.629767 295.140108 
L 169.710951 295.351045 
L 169.954503 295.078399 
L 170.035687 295.38024 
L 170.198055 295.093843 
L 170.279239 295.270291 
L 170.441607 294.988157 
L 170.522791 295.233984 
L 170.603975 295.12635 
L 170.685159 294.847764 
L 170.766342 292.718443 
L 170.847526 294.874461 
L 170.92871 294.859449 
L 171.091078 295.339504 
L 171.253446 295.403685 
L 171.33463 295.232232 
L 171.415814 295.359481 
L 171.496998 295.021589 
L 171.578182 295.068201 
L 171.659366 295.119956 
L 171.74055 295.416467 
L 171.902918 294.954112 
L 171.984101 295.103403 
L 172.065285 295.032948 
L 172.146469 295.286437 
L 172.227653 295.001854 
L 172.390021 295.411589 
L 172.471205 294.762931 
L 172.633573 295.114812 
L 172.714757 295.046286 
L 172.795941 295.194269 
L 172.877125 294.37492 
L 173.039493 295.313462 
L 173.120677 295.347521 
L 173.445412 295.102315 
L 173.526596 295.172933 
L 173.60778 295.407403 
L 173.688964 295.246766 
L 173.770148 295.359033 
L 173.932516 295.162437 
L 174.094884 295.361175 
L 174.176068 295.196326 
L 174.257252 295.333132 
L 174.338436 295.162455 
L 174.419619 295.407572 
L 174.581987 294.668728 
L 174.744355 295.025226 
L 174.825539 294.37909 
L 174.906723 294.517143 
L 174.987907 289.067843 
L 175.069091 295.25006 
L 175.150275 294.850401 
L 175.312643 295.225371 
L 175.393827 294.819129 
L 175.475011 295.217512 
L 175.556195 294.994951 
L 175.637378 295.369876 
L 175.718562 295.001929 
L 175.799746 295.237794 
L 175.88093 294.995617 
L 175.962114 295.311688 
L 176.043298 294.957813 
L 176.205666 295.396517 
L 176.28685 295.119354 
L 176.368034 295.431348 
L 176.530402 295.028158 
L 176.611586 294.891057 
L 176.773953 295.150658 
L 177.017505 294.902865 
L 177.098689 291.053174 
L 177.179873 295.133128 
L 177.261057 295.044554 
L 177.342241 295.16069 
L 177.423425 294.730229 
L 177.504609 295.384576 
L 177.585793 295.159125 
L 177.666977 295.05242 
L 177.910529 295.442818 
L 177.991712 295.408624 
L 178.15408 295.110116 
L 178.235264 295.390943 
L 178.316448 295.314451 
L 178.397632 295.170513 
L 178.478816 294.667185 
L 178.56 295.198403 
L 178.641184 295.182755 
L 178.722368 295.274226 
L 178.803552 295.110043 
L 178.884736 295.363623 
L 179.128288 294.185777 
L 179.209471 287.622386 
L 179.371839 294.89559 
L 179.453023 295.287346 
L 179.534207 294.940336 
L 179.615391 295.274362 
L 179.696575 294.949459 
L 179.858943 295.397839 
L 179.940127 295.324466 
L 180.021311 295.077682 
L 180.102495 295.113197 
L 180.264863 295.072446 
L 180.346047 295.080751 
L 180.42723 294.879144 
L 180.670782 295.413334 
L 180.83315 294.995551 
L 180.995518 295.0769 
L 181.23907 294.677689 
L 181.320254 288.627118 
L 181.401438 295.090041 
L 181.482622 295.002431 
L 181.563805 294.687145 
L 181.726173 295.000703 
L 181.888541 295.330047 
L 181.969725 295.217895 
L 182.132093 295.24038 
L 182.213277 294.844778 
L 182.294461 295.365332 
L 182.375645 295.18656 
L 182.538013 294.859714 
L 182.700381 295.338598 
L 182.862748 295.091055 
L 183.025116 295.190653 
L 183.1063 294.737842 
L 183.187484 294.897947 
L 183.268668 295.056067 
L 183.349852 294.30308 
L 183.431036 285.669523 
L 183.593404 294.832067 
L 183.755772 294.34416 
L 183.836956 295.020257 
L 183.91814 294.838362 
L 183.999323 295.282335 
L 184.080507 295.141644 
L 184.161691 294.875133 
L 184.242875 295.452846 
L 184.405243 295.016771 
L 184.648795 295.306251 
L 184.811163 295.016525 
L 184.973531 295.432433 
L 185.217082 295.12325 
L 185.37945 295.3132 
L 185.460634 294.907343 
L 185.541818 287.105936 
L 185.704186 294.759176 
L 185.78537 294.689824 
L 185.947738 295.10442 
L 186.110106 294.70856 
L 186.272474 294.81476 
L 186.353658 295.40945 
L 186.434841 295.20355 
L 186.516025 295.404044 
L 186.597209 295.329648 
L 186.678393 294.962329 
L 186.759577 295.152629 
L 186.840761 294.882767 
L 186.921945 295.330053 
L 187.003129 295.028949 
L 187.084313 295.285102 
L 187.165497 295.107451 
L 187.246681 295.463104 
L 187.409049 295.034921 
L 187.571416 295.39734 
L 187.6526 291.831016 
L 187.814968 294.977633 
L 187.896152 295.132455 
L 187.977336 294.794844 
L 188.220888 295.314919 
L 188.383256 294.599837 
L 188.46444 294.837226 
L 188.545624 295.254775 
L 188.626808 295.157492 
L 188.707992 295.215395 
L 188.789175 294.949248 
L 188.951543 295.261799 
L 189.032727 294.872639 
L 189.195095 295.345122 
L 189.438647 294.842419 
L 189.519831 294.889523 
L 189.601015 294.562724 
L 189.682199 293.753855 
L 189.763383 280.230092 
L 189.844567 294.230318 
L 189.925751 294.116165 
L 190.006934 294.16238 
L 190.412854 295.243312 
L 190.494038 295.093975 
L 190.575222 295.190366 
L 190.656406 294.87113 
L 190.73759 295.147556 
L 190.818774 295.116621 
L 190.899958 294.471152 
L 190.981142 294.787277 
L 191.062326 294.35696 
L 191.14351 295.232391 
L 191.224693 294.740536 
L 191.305877 295.19926 
L 191.468245 294.738568 
L 191.549429 294.892179 
L 191.711797 294.386327 
L 191.792981 295.103018 
L 191.874165 287.577904 
L 192.036533 295.303849 
L 192.117717 294.893195 
L 192.198901 294.94204 
L 192.442452 295.383681 
L 192.60482 295.281677 
L 192.686004 295.39339 
L 192.848372 295.150594 
L 193.01074 295.051179 
L 193.091924 294.952395 
L 193.254292 295.346095 
L 193.41666 295.072457 
L 193.497844 295.374932 
L 193.741395 295.091835 
L 193.822579 295.220291 
L 193.903763 294.883632 
L 193.984947 288.858973 
L 194.066131 294.713084 
L 194.147315 294.64901 
L 194.309683 294.886696 
L 194.390867 294.749264 
L 194.634419 295.320635 
L 194.796786 294.929416 
L 194.87797 294.986734 
L 194.959154 294.470852 
L 195.121522 295.234291 
L 195.28389 294.869534 
L 195.365074 295.011566 
L 195.446258 294.961652 
L 195.68981 294.956889 
L 195.770994 294.724211 
L 195.852178 294.793839 
L 195.933362 295.168411 
L 196.014545 295.018285 
L 196.095729 295.327648 
L 196.176913 294.84569 
L 196.258097 294.980247 
L 196.339281 294.701423 
L 196.420465 295.056143 
L 196.501649 294.792961 
L 196.582833 295.12374 
L 196.664017 294.79601 
L 196.745201 295.267059 
L 196.826385 295.084097 
L 197.069937 294.542287 
L 197.232304 294.671234 
L 197.313488 294.686611 
L 197.394672 294.572871 
L 197.55704 295.230304 
L 197.881776 293.891323 
L 197.96296 293.695157 
L 198.125328 292.429614 
L 198.206512 265.003951 
L 198.287696 294.288313 
L 198.368879 293.735274 
L 198.693615 294.898302 
L 198.937167 295.457523 
L 199.018351 295.117288 
L 199.099535 295.224424 
L 199.180719 294.963105 
L 199.261903 295.075494 
L 199.343087 295.125977 
L 199.424271 295.334193 
L 199.586638 294.948143 
L 199.667822 295.425655 
L 199.749006 294.805269 
L 199.911374 295.311071 
L 200.073742 295.31701 
L 200.23611 294.581934 
L 200.317294 285.701971 
L 200.398478 294.46423 
L 200.479662 294.030732 
L 200.64203 294.804887 
L 200.723214 294.716931 
L 200.804397 294.677554 
L 200.966765 294.939907 
L 201.129133 294.411584 
L 201.291501 294.744501 
L 201.372685 294.511808 
L 201.453869 294.802613 
L 201.535053 294.541313 
L 201.697421 295.23767 
L 202.346892 290.94963 
L 202.428076 245.738762 
L 202.590444 293.811339 
L 202.752812 294.483383 
L 202.833996 294.062563 
L 203.077548 294.899363 
L 203.158732 294.884241 
L 203.239915 294.575676 
L 203.321099 295.130885 
L 203.402283 295.041204 
L 203.483467 295.182277 
L 203.564651 294.905553 
L 203.645835 295.00747 
L 203.808203 295.299649 
L 204.051755 294.183046 
L 204.132939 294.222051 
L 204.214123 293.626139 
L 204.295307 294.034649 
L 204.37649 293.765675 
L 204.457674 292.6263 
L 204.538858 258.769652 
L 204.701226 294.190638 
L 204.78241 294.007778 
L 204.944778 294.674091 
L 205.18833 295.38414 
L 205.350698 294.847147 
L 205.431882 294.804554 
L 205.513066 295.051363 
L 205.594249 295.015338 
L 205.675433 295.103497 
L 205.756617 295.431399 
L 206.000169 294.854489 
L 206.081353 294.899664 
L 206.324905 294.36833 
L 206.487273 294.567442 
L 206.568457 293.801647 
L 206.649641 276.249221 
L 206.812008 295.327079 
L 206.893192 295.139436 
L 207.05556 295.415483 
L 207.136744 295.344288 
L 207.217928 295.332913 
L 207.542664 294.269755 
L 207.623848 294.244255 
L 207.705032 294.719265 
L 207.786216 294.156737 
L 207.948584 295.009666 
L 208.110951 294.695673 
L 208.354503 292.426472 
L 208.435687 292.065272 
L 208.679239 288.708451 
L 208.760423 185.979993 
L 208.922791 291.33655 
L 209.572262 295.227704 
L 209.653446 294.984407 
L 209.73463 294.774439 
L 209.896998 294.969679 
L 209.978182 294.684468 
L 210.059366 294.872564 
L 210.14055 294.626367 
L 210.384101 295.148036 
L 210.465285 294.604873 
L 210.546469 294.652707 
L 210.708837 294.827561 
L 210.790021 293.918853 
L 210.871205 268.10815 
L 210.952389 294.814385 
L 211.033573 294.546534 
L 211.277125 295.149299 
L 211.439493 294.77333 
L 211.520677 295.247936 
L 211.683044 294.728863 
L 211.764228 294.957659 
L 211.926596 294.414129 
L 212.170148 295.372726 
L 212.819619 291.422543 
L 212.900803 290.433424 
L 212.981987 195.472055 
L 213.144355 292.422386 
L 213.793827 295.125804 
L 213.875011 295.202613 
L 213.956195 294.838345 
L 214.037378 295.191199 
L 214.118562 295.05501 
L 214.199746 294.960592 
L 214.362114 295.08271 
L 214.443298 294.873869 
L 214.849218 291.458268 
L 214.930402 291.314675 
L 215.011586 289.716022 
L 215.09277 162.946534 
L 215.255137 291.478711 
L 215.336321 292.2549 
L 215.417505 291.933526 
L 215.904609 295.4825 
L 216.066977 294.629814 
L 216.148161 294.586416 
L 216.229345 294.747917 
L 216.310529 294.023967 
L 216.472896 295.284062 
L 216.55408 295.039856 
L 216.635264 295.065771 
L 216.716448 295.306788 
L 216.96 294.151948 
L 217.041184 294.256314 
L 217.122368 293.721207 
L 217.203552 249.321656 
L 217.36592 294.544721 
L 217.447104 294.333688 
L 217.528288 294.502861 
L 217.609471 294.440401 
L 217.771839 294.792275 
L 217.853023 295.168948 
L 217.934207 294.728053 
L 218.015391 295.084222 
L 218.096575 294.976482 
L 218.258943 294.582807 
L 218.502495 295.199173 
L 218.746047 294.05838 
L 219.23315 289.081796 
L 219.314334 96.518284 
L 219.476702 290.101684 
L 219.720254 291.867787 
L 219.882622 293.550451 
L 220.207357 295.004924 
L 220.288541 294.919677 
L 220.369725 294.198193 
L 220.694461 295.365592 
L 220.775645 294.822683 
L 220.856829 294.929752 
L 220.938013 294.856078 
L 221.343932 292.871258 
L 221.425116 189.206595 
L 221.587484 292.768509 
L 221.993404 294.028385 
L 222.236956 295.326598 
L 222.31814 294.832447 
L 222.399323 295.215297 
L 222.480507 294.855462 
L 222.561691 295.009477 
L 222.642875 294.965298 
L 222.724059 294.554767 
L 222.805243 294.639579 
L 222.886427 294.966537 
L 223.211163 293.969421 
L 223.292347 294.15822 
L 223.454715 293.043814 
L 223.535899 167.658966 
L 223.698266 292.859231 
L 223.77945 293.023194 
L 223.860634 293.728609 
L 223.941818 293.466244 
L 224.18537 294.526452 
L 224.266554 294.658275 
L 224.428922 295.202441 
L 224.510106 295.353327 
L 224.59129 295.051035 
L 224.672474 295.253805 
L 224.834841 294.747688 
L 224.916025 295.034286 
L 224.997209 294.999757 
L 225.078393 294.921487 
L 225.321945 292.91087 
L 225.484313 292.000935 
L 225.565497 290.811062 
L 225.646681 53.568 
L 225.809049 291.062729 
L 225.971416 291.801708 
L 226.45852 294.798584 
L 226.539704 294.629055 
L 226.702072 294.610403 
L 226.783256 293.788592 
L 226.86444 294.146963 
L 226.945624 293.825484 
L 227.026808 294.481956 
L 227.107992 294.451854 
L 227.432727 295.323541 
L 227.513911 295.179974 
L 227.676279 294.777838 
L 227.757463 214.29138 
L 227.919831 293.633723 
L 228.001015 293.873179 
L 228.082199 294.530984 
L 228.244567 294.03947 
L 228.650486 295.238444 
L 228.73167 295.124411 
L 228.812854 294.787248 
L 228.894038 294.88779 
L 229.056406 294.41528 
L 229.299958 295.211042 
L 229.381142 294.996558 
L 229.624693 293.495528 
L 229.705877 293.480179 
L 229.787061 293.246125 
L 229.868245 57.257683 
L 229.949429 292.509008 
L 230.030613 292.349839 
L 230.355349 293.503669 
L 230.436533 293.583731 
L 230.598901 294.64525 
L 230.680085 294.53535 
L 230.761268 295.063216 
L 230.842452 294.362844 
L 230.923636 294.532263 
L 231.00482 294.105266 
L 231.086004 294.809354 
L 231.167188 294.356856 
L 231.573108 295.464579 
L 231.735476 294.98987 
L 231.897844 294.692164 
L 231.979027 99.7322 
L 232.141395 293.46203 
L 232.222579 293.444588 
L 232.303763 293.916255 
L 232.384947 293.51216 
L 232.466131 293.621441 
L 232.628499 294.443484 
L 232.790867 294.61271 
L 232.872051 294.540227 
L 232.953235 294.104757 
L 233.034419 294.220463 
L 233.115603 294.615246 
L 233.196786 294.369077 
L 233.359154 294.619257 
L 233.440338 294.374005 
L 233.602706 295.136904 
L 233.68389 295.071595 
L 233.765074 294.612122 
L 233.927442 294.872078 
L 234.008626 294.252304 
L 234.08981 179.681092 
L 234.252178 294.327954 
L 234.333362 294.032529 
L 234.414545 294.54184 
L 234.495729 294.43837 
L 234.576913 292.257576 
L 234.739281 294.504805 
L 234.820465 294.399053 
L 234.901649 294.673227 
L 234.982833 294.598132 
L 235.145201 294.452985 
L 235.226385 295.115404 
L 235.307569 294.895517 
L 235.388753 294.888389 
L 235.632304 293.860458 
L 235.713488 294.591097 
L 235.794672 294.562106 
L 235.875856 294.566296 
L 236.038224 295.310366 
L 236.119408 293.831595 
L 236.200592 283.932573 
L 236.36296 295.310366 
L 236.444144 295.158417 
L 236.606512 294.562106 
L 236.687696 294.591097 
L 236.768879 293.860458 
L 237.012431 294.888389 
L 237.093615 294.895517 
L 237.174799 295.115404 
L 237.255983 294.452985 
L 237.337167 294.469285 
L 237.499535 294.673227 
L 237.580719 294.399053 
L 237.661903 294.504805 
L 237.743087 294.31551 
L 237.824271 292.257576 
L 237.986638 294.54184 
L 238.067822 294.032529 
L 238.149006 294.327954 
L 238.23019 294.241092 
L 238.311374 179.681092 
L 238.473742 294.872078 
L 238.554926 294.818531 
L 238.63611 294.612122 
L 238.798478 295.136904 
L 238.960846 294.374005 
L 239.04203 294.619257 
L 239.204397 294.369077 
L 239.285581 294.615246 
L 239.447949 294.104757 
L 239.610317 294.61271 
L 239.691501 294.602555 
L 239.853869 294.390533 
L 240.016237 293.51216 
L 240.097421 293.916255 
L 240.340973 292.891459 
L 240.422156 99.7322 
L 240.584524 294.804742 
L 240.828076 295.464579 
L 241.071628 294.525563 
L 241.152812 294.585054 
L 241.233996 294.356856 
L 241.31518 294.809354 
L 241.396364 294.105266 
L 241.477548 294.532263 
L 241.558732 294.362844 
L 241.639915 295.063216 
L 241.721099 294.53535 
L 241.802283 294.64525 
L 241.883467 294.396528 
L 242.045835 293.503669 
L 242.289387 292.738078 
L 242.370571 292.349839 
L 242.451755 292.509008 
L 242.532939 57.257683 
L 242.695307 293.480179 
L 242.77649 293.495528 
L 243.020042 294.996558 
L 243.101226 295.211042 
L 243.344778 294.41528 
L 243.507146 294.88779 
L 243.58833 294.787248 
L 243.750698 295.238444 
L 243.913066 294.674123 
L 244.156617 294.03947 
L 244.237801 294.106463 
L 244.318985 294.530984 
L 244.562537 293.437607 
L 244.643721 214.29138 
L 244.806089 294.782232 
L 244.968457 295.323541 
L 245.130825 295.146048 
L 245.45556 293.825484 
L 245.536744 294.146963 
L 245.617928 293.788592 
L 245.699112 294.610403 
L 245.780296 294.568911 
L 245.942664 294.798584 
L 246.673319 289.693661 
L 246.754503 53.568 
L 246.916871 292.000935 
L 247.403975 294.999757 
L 247.485159 295.034286 
L 247.647526 294.762479 
L 247.72871 295.253805 
L 247.809894 295.051035 
L 247.891078 295.353327 
L 248.053446 295.117237 
L 248.296998 294.05278 
L 248.378182 293.933433 
L 248.459366 293.466244 
L 248.54055 293.728609 
L 248.784101 292.087858 
L 248.865285 167.658966 
L 249.027653 293.762021 
L 249.108837 294.15822 
L 249.190021 293.969421 
L 249.514757 294.966537 
L 249.677125 294.554767 
L 249.839493 295.009477 
L 249.920677 294.855462 
L 250.00186 295.215297 
L 250.083044 294.832447 
L 250.164228 295.326598 
L 250.732516 292.984106 
L 250.894884 292.433702 
L 250.976068 189.206595 
L 251.138436 293.717469 
L 251.219619 293.718252 
L 251.544355 294.929752 
L 251.625539 294.822683 
L 251.706723 295.365592 
L 251.869091 294.570411 
L 251.950275 294.485901 
L 252.031459 294.198193 
L 252.193827 295.004924 
L 252.275011 295.015825 
L 252.924482 290.101684 
L 253.005666 289.272588 
L 253.08685 96.518284 
L 253.249218 290.671578 
L 253.817505 294.928075 
L 253.898689 295.199173 
L 253.979873 295.161595 
L 254.142241 294.582807 
L 254.223425 294.677536 
L 254.385793 295.084222 
L 254.466977 294.728053 
L 254.548161 295.168948 
L 254.791712 294.440401 
L 254.872896 294.502861 
L 254.95408 294.333688 
L 255.035264 294.544721 
L 255.116448 294.303981 
L 255.197632 249.321656 
L 255.36 294.256314 
L 255.441184 294.151948 
L 255.603552 294.75451 
L 255.684736 295.306788 
L 255.847104 295.039856 
L 255.928288 295.284062 
L 256.090655 294.023967 
L 256.171839 294.747917 
L 256.253023 294.586416 
L 256.334207 294.629814 
L 256.415391 294.867659 
L 256.496575 295.4825 
L 257.22723 290.654251 
L 257.308414 162.946534 
L 257.470782 291.314675 
L 257.551966 291.458268 
L 257.957886 294.873869 
L 258.120254 295.059171 
L 258.201438 294.960592 
L 258.363805 295.191199 
L 258.444989 294.838345 
L 258.526173 295.202613 
L 258.607357 295.125804 
L 258.769725 294.90931 
L 258.850909 294.680161 
L 259.094461 293.23239 
L 259.338013 291.608021 
L 259.419197 195.472055 
L 259.581564 291.422543 
L 259.662748 291.705952 
L 260.068668 294.478111 
L 260.231036 295.372726 
L 260.31222 295.29239 
L 260.474588 294.414129 
L 260.636956 294.957659 
L 260.71814 294.728863 
L 260.880507 295.247936 
L 260.961691 294.77333 
L 261.124059 295.149299 
L 261.367611 294.546534 
L 261.448795 294.814385 
L 261.529979 268.10815 
L 261.692347 294.827561 
L 261.935899 294.604873 
L 262.017082 295.148036 
L 262.260634 294.626367 
L 262.341818 294.872564 
L 262.423002 294.684468 
L 262.504186 294.969679 
L 262.58537 294.906884 
L 262.666554 294.774439 
L 262.828922 295.227704 
L 262.99129 294.571907 
L 263.559577 290.524243 
L 263.640761 185.979993 
L 263.803129 289.740877 
L 264.046681 292.426472 
L 264.4526 295.009666 
L 264.533784 294.84632 
L 264.614968 294.156737 
L 264.696152 294.719265 
L 264.777336 294.244255 
L 264.85852 294.269755 
L 265.020888 294.914932 
L 265.102072 295.02722 
L 265.26444 295.344288 
L 265.345624 295.415483 
L 265.507992 295.139436 
L 265.589175 295.327079 
L 265.670359 294.970495 
L 265.751543 276.249221 
L 265.913911 294.567442 
L 266.076279 294.36833 
L 266.238647 294.693098 
L 266.319831 294.899664 
L 266.401015 294.854489 
L 266.482199 294.882693 
L 266.644567 295.431399 
L 266.806934 295.015338 
L 266.888118 295.051363 
L 266.969302 294.804554 
L 267.050486 294.847147 
L 267.13167 294.970527 
L 267.212854 295.38414 
L 267.375222 294.906413 
L 267.618774 294.007778 
L 267.699958 294.190638 
L 267.781142 294.146884 
L 267.862326 258.769652 
L 268.024693 293.765675 
L 268.105877 294.034649 
L 268.187061 293.626139 
L 268.430613 294.82596 
L 268.511797 294.802486 
L 268.592981 295.299649 
L 268.674165 295.121822 
L 268.836533 294.905553 
L 268.917717 295.182277 
L 268.998901 295.041204 
L 269.080085 295.130885 
L 269.161268 294.575676 
L 269.323636 294.899363 
L 269.567188 294.062563 
L 269.648372 294.483383 
L 269.729556 294.299481 
L 269.891924 293.222281 
L 269.973108 245.738762 
L 270.135476 292.057699 
L 270.21666 292.169499 
L 270.379027 293.631334 
L 270.460211 293.677216 
L 270.703763 295.23767 
L 271.028499 294.511808 
L 271.109683 294.744501 
L 271.272051 294.411584 
L 271.434419 294.939907 
L 271.515603 294.860849 
L 271.596786 294.677554 
L 271.67797 294.716931 
L 271.759154 294.804887 
L 271.921522 294.030732 
L 272.002706 294.46423 
L 272.08389 285.701971 
L 272.246258 294.774031 
L 272.408626 295.383442 
L 272.570994 295.287559 
L 272.652178 294.805269 
L 272.733362 295.425655 
L 272.814545 294.948143 
L 272.895729 295.052042 
L 272.976913 295.334193 
L 273.220465 294.963105 
L 273.464017 295.457523 
L 273.707569 294.898302 
L 273.788753 294.80435 
L 274.032304 293.735274 
L 274.113488 294.288313 
L 274.194672 265.003951 
L 274.35704 293.06004 
L 274.600592 294.173133 
L 274.681776 294.307461 
L 274.844144 295.230304 
L 274.925328 295.014487 
L 275.006512 294.572871 
L 275.087696 294.686611 
L 275.331247 294.542287 
L 275.412431 294.947123 
L 275.493615 294.871652 
L 275.655983 295.267059 
L 275.737167 294.79601 
L 275.818351 295.12374 
L 275.899535 294.792961 
L 275.980719 295.056143 
L 276.061903 294.701423 
L 276.143087 294.980247 
L 276.224271 294.84569 
L 276.305455 295.327648 
L 276.386638 295.018285 
L 276.467822 295.168411 
L 276.63019 294.724211 
L 276.792558 294.981539 
L 277.198478 294.90575 
L 277.279662 295.234291 
L 277.44203 294.470852 
L 277.523214 294.986734 
L 277.604397 294.929416 
L 277.685581 294.970202 
L 277.766765 295.320635 
L 278.010317 294.749264 
L 278.091501 294.886696 
L 278.253869 294.64901 
L 278.335053 294.713084 
L 278.416237 288.858973 
L 278.578605 295.220291 
L 278.659789 295.091835 
L 278.90334 295.374932 
L 278.984524 295.072457 
L 279.065708 295.097612 
L 279.146892 295.346095 
L 279.30926 294.952395 
L 279.390444 295.051179 
L 279.71518 295.39339 
L 279.877548 295.238923 
L 279.958732 295.383681 
L 280.283467 294.893195 
L 280.364651 295.303849 
L 280.445835 295.286541 
L 280.527019 287.577904 
L 280.608203 295.103018 
L 280.689387 294.386327 
L 280.851755 294.892179 
L 280.932939 294.738568 
L 281.014123 294.836754 
L 281.095307 295.19926 
L 281.17649 294.740536 
L 281.257674 295.232391 
L 281.338858 294.35696 
L 281.420042 294.787277 
L 281.501226 294.471152 
L 281.663594 295.147556 
L 281.744778 294.87113 
L 281.825962 295.190366 
L 281.907146 295.093975 
L 281.98833 295.243312 
L 282.069514 295.15047 
L 282.231882 294.326347 
L 282.313066 294.407448 
L 282.475433 294.116165 
L 282.556617 294.230318 
L 282.637801 280.230092 
L 282.800169 294.562724 
L 282.881353 294.889523 
L 282.962537 294.842419 
L 283.043721 294.830646 
L 283.206089 295.345122 
L 283.287273 295.259529 
L 283.368457 294.872639 
L 283.449641 295.261799 
L 283.530825 295.179419 
L 283.612008 294.949248 
L 283.693192 295.215395 
L 283.774376 295.157492 
L 283.85556 295.254775 
L 284.017928 294.599837 
L 284.180296 295.314919 
L 284.423848 294.794844 
L 284.505032 295.132455 
L 284.6674 294.877854 
L 284.748584 291.831016 
L 284.829767 295.39734 
L 284.910951 295.279718 
L 284.992135 295.034921 
L 285.073319 295.075966 
L 285.154503 295.463104 
L 285.235687 295.107451 
L 285.316871 295.285102 
L 285.398055 295.028949 
L 285.479239 295.330053 
L 285.560423 294.882767 
L 285.641607 295.152629 
L 285.722791 294.962329 
L 285.885159 295.404044 
L 285.966342 295.20355 
L 286.047526 295.40945 
L 286.209894 294.718932 
L 286.372262 294.806174 
L 286.453446 295.10442 
L 286.615814 294.689824 
L 286.696998 294.759176 
L 286.778182 294.649415 
L 286.859366 287.105936 
L 287.021734 295.3132 
L 287.184101 295.12325 
L 287.427653 295.432433 
L 287.590021 295.016525 
L 287.671205 295.134697 
L 287.752389 295.306251 
L 287.833573 295.071625 
L 287.914757 295.101744 
L 288.077125 295.044518 
L 288.158309 295.452846 
L 288.239493 294.875133 
L 288.40186 295.282335 
L 288.483044 294.838362 
L 288.564228 295.020257 
L 288.645412 294.34416 
L 288.726596 294.559443 
L 288.888964 294.819405 
L 288.970148 285.669523 
L 289.132516 295.056067 
L 289.294884 294.737842 
L 289.376068 295.190653 
L 289.457252 295.098872 
L 289.619619 295.146008 
L 289.700803 295.338598 
L 289.863171 294.859714 
L 289.944355 295.060061 
L 290.106723 295.365332 
L 290.187907 294.844778 
L 290.350275 295.269755 
L 290.431459 295.217895 
L 290.512643 295.330047 
L 290.837378 294.687145 
L 290.999746 295.090041 
L 291.08093 288.627118 
L 291.243298 294.722733 
L 291.730402 295.413334 
L 291.973953 294.879144 
L 292.136321 295.072446 
L 292.379873 295.077682 
L 292.542241 295.397839 
L 292.704609 294.949459 
L 292.785793 295.274362 
L 292.866977 294.940336 
L 292.948161 295.287346 
L 293.110529 294.869263 
L 293.191712 287.622386 
L 293.35408 294.883063 
L 293.435264 294.866144 
L 293.516448 295.363623 
L 293.597632 295.110043 
L 293.678816 295.274226 
L 293.841184 295.198403 
L 293.922368 294.667185 
L 294.084736 295.314451 
L 294.16592 295.390943 
L 294.247104 295.110116 
L 294.571839 295.447351 
L 294.734207 295.05242 
L 294.896575 295.384576 
L 294.977759 294.730229 
L 295.058943 295.16069 
L 295.140127 295.044554 
L 295.221311 295.133128 
L 295.302495 291.053174 
L 295.383679 294.902865 
L 295.464863 294.878079 
L 295.62723 295.150658 
L 295.708414 295.154996 
L 295.789598 294.891057 
L 296.03315 295.431348 
L 296.114334 295.119354 
L 296.195518 295.396517 
L 296.276702 295.302648 
L 296.357886 294.957813 
L 296.43907 295.311688 
L 296.520254 294.995617 
L 296.601438 295.237794 
L 296.682622 295.001929 
L 296.763805 295.369876 
L 296.844989 294.994951 
L 296.926173 295.217512 
L 297.007357 294.819129 
L 297.169725 295.241189 
L 297.250909 294.850401 
L 297.332093 295.25006 
L 297.413277 289.067843 
L 297.494461 294.517143 
L 297.575645 294.37909 
L 297.656829 295.025226 
L 297.738013 294.931992 
L 297.900381 294.670373 
L 297.981564 295.407572 
L 298.062748 295.162455 
L 298.143932 295.333132 
L 298.225116 295.196326 
L 298.3063 295.361175 
L 298.387484 295.276045 
L 298.468668 295.162437 
L 298.631036 295.359033 
L 298.71222 295.246766 
L 298.793404 295.407403 
L 299.036956 295.041707 
L 299.280507 295.347521 
L 299.361691 295.313462 
L 299.524059 294.37492 
L 299.605243 295.194269 
L 299.686427 295.046286 
L 299.767611 295.114812 
L 299.848795 295.028738 
L 299.929979 294.762931 
L 300.011163 295.411589 
L 300.092347 295.379286 
L 300.173531 295.001854 
L 300.254715 295.286437 
L 300.335899 295.032948 
L 300.417082 295.103403 
L 300.498266 294.954112 
L 300.660634 295.416467 
L 300.823002 295.068201 
L 300.904186 295.021589 
L 300.98537 295.359481 
L 301.066554 295.232232 
L 301.147738 295.403685 
L 301.228922 295.342204 
L 301.39129 295.345812 
L 301.472474 294.859449 
L 301.553658 294.874461 
L 301.634841 292.718443 
L 301.797209 295.12635 
L 301.878393 295.233984 
L 301.959577 294.988157 
L 302.040761 295.042063 
L 302.121945 295.270291 
L 302.203129 295.093843 
L 302.284313 295.164473 
L 302.365497 295.38024 
L 302.446681 295.078399 
L 302.527865 295.174949 
L 302.609049 295.169731 
L 302.690233 295.351045 
L 302.771416 295.140108 
L 302.8526 295.292745 
L 302.933784 295.168817 
L 303.096152 295.387449 
L 303.25852 295.008177 
L 303.339704 295.347154 
L 303.420888 294.905294 
L 303.583256 295.263239 
L 303.66444 295.20257 
L 303.745624 293.918103 
L 303.907992 295.30385 
L 303.989175 294.972522 
L 304.070359 295.207517 
L 304.151543 295.174272 
L 304.395095 295.351866 
L 304.476279 295.238515 
L 304.557463 295.348231 
L 304.719831 295.230444 
L 304.882199 295.265293 
L 304.963383 295.120315 
L 305.044567 295.387581 
L 305.125751 295.273522 
L 305.206934 295.390072 
L 305.288118 295.049627 
L 305.369302 295.488 
L 305.612854 295.088706 
L 305.694038 295.311879 
L 305.775222 294.9243 
L 305.856406 293.669622 
L 305.93759 294.999688 
L 306.018774 294.982851 
L 306.34351 295.269047 
L 306.424693 295.153418 
L 306.587061 295.375955 
L 306.749429 295.277653 
L 306.911797 295.239479 
L 307.236533 295.011621 
L 307.317717 295.283666 
L 307.480085 295.100487 
L 307.723636 295.437194 
L 307.886004 295.213275 
L 307.967188 294.270854 
L 308.129556 295.105266 
L 308.21074 295.122883 
L 308.454292 295.413318 
L 308.779027 294.793349 
L 308.941395 295.307977 
L 309.022579 294.913635 
L 309.103763 295.440656 
L 309.184947 295.246092 
L 309.266131 295.220075 
L 309.347315 295.00429 
L 309.509683 295.417451 
L 309.753235 294.833534 
L 309.834419 295.152164 
L 309.915603 294.820569 
L 309.996786 295.333601 
L 310.07797 292.245948 
L 310.240338 295.239313 
L 310.402706 295.081894 
L 310.48389 295.411929 
L 310.565074 294.745024 
L 310.646258 294.964528 
L 310.727442 295.052133 
L 310.88981 295.348235 
L 311.052178 295.227556 
L 311.295729 294.981188 
L 311.376913 295.200551 
L 311.458097 294.952147 
L 311.539281 295.391006 
L 311.620465 295.253272 
L 311.701649 295.159107 
L 311.864017 295.424018 
L 311.945201 294.908555 
L 312.107569 295.346543 
L 312.188753 294.041314 
L 312.269937 295.322092 
L 312.351121 295.277248 
L 312.432304 294.828818 
L 312.513488 295.162614 
L 312.594672 294.936099 
L 312.675856 295.415017 
L 312.75704 295.087848 
L 312.838224 295.211583 
L 313.000592 295.372029 
L 313.16296 295.330188 
L 313.487696 295.128054 
L 313.568879 295.34302 
L 313.650063 295.298766 
L 313.812431 294.9579 
L 313.893615 295.26691 
L 313.974799 295.156862 
L 314.055983 295.004835 
L 314.218351 295.315877 
L 314.299535 294.063881 
L 314.461903 295.29967 
L 314.543087 295.445863 
L 314.705455 295.062852 
L 314.949006 295.326974 
L 315.111374 294.946182 
L 315.192558 295.014735 
L 315.43611 295.262293 
L 315.517294 295.172387 
L 315.598478 295.344897 
L 315.679662 295.258467 
L 315.760846 295.014246 
L 315.84203 295.432415 
L 316.004397 294.765209 
L 316.085581 294.981231 
L 316.329133 295.354201 
L 316.410317 292.511447 
L 316.572685 295.041946 
L 316.735053 295.180307 
L 316.816237 295.041871 
L 316.897421 295.46 
L 317.059789 295.008475 
L 317.140973 295.435301 
L 317.222156 295.201202 
L 317.30334 295.303809 
L 317.384524 295.281422 
L 317.465708 295.083297 
L 317.628076 295.312719 
L 317.70926 295.171778 
L 317.790444 295.230481 
L 317.871628 295.162638 
L 318.11518 295.439527 
L 318.277548 295.366676 
L 318.358732 294.991739 
L 318.439915 295.235811 
L 318.521099 294.607912 
L 318.602283 295.428648 
L 318.683467 295.18292 
L 318.764651 295.293205 
L 318.845835 295.100429 
L 318.927019 295.289766 
L 319.089387 294.948431 
L 319.251755 295.328112 
L 319.332939 295.248115 
L 319.414123 294.912368 
L 319.495307 295.37509 
L 319.57649 295.128848 
L 319.657674 295.23134 
L 319.820042 295.459084 
L 319.98241 295.311658 
L 320.063594 295.338029 
L 320.144778 295.203168 
L 320.225962 295.39808 
L 320.550698 294.850486 
L 320.631882 293.585851 
L 320.794249 294.99892 
L 320.875433 294.942651 
L 320.956617 295.125167 
L 321.037801 295.085811 
L 321.118985 295.101749 
L 321.200169 294.912502 
L 321.281353 295.421199 
L 321.362537 295.105359 
L 321.443721 295.333392 
L 321.524905 295.269554 
L 321.687273 294.987105 
L 321.768457 294.934212 
L 321.849641 295.231765 
L 321.930825 295.002359 
L 322.012008 295.301653 
L 322.174376 294.851893 
L 322.336744 295.474276 
L 322.499112 295.05959 
L 322.580296 295.386673 
L 322.742664 294.563788 
L 322.823848 294.929801 
L 322.986216 295.226301 
L 323.0674 295.238671 
L 323.148584 295.386998 
L 323.229767 295.325322 
L 323.310951 295.101817 
L 323.392135 295.177355 
L 323.473319 295.367826 
L 323.554503 295.222792 
L 323.798055 295.378579 
L 324.041607 295.268637 
L 324.122791 294.963803 
L 324.285159 295.198037 
L 324.366342 295.177964 
L 324.447526 295.318295 
L 324.52871 295.22414 
L 324.609894 295.405533 
L 324.853446 294.497253 
L 324.93463 295.274925 
L 325.015814 295.10627 
L 325.178182 295.276352 
L 325.34055 295.081752 
L 325.421734 295.38916 
L 325.502918 295.011877 
L 325.584101 295.154149 
L 325.665285 295.330583 
L 325.908837 295.117063 
L 325.990021 295.263485 
L 326.071205 294.95776 
L 326.233573 295.414302 
L 326.395941 295.255113 
L 326.639493 295.260855 
L 326.720677 295.342763 
L 326.80186 294.920492 
L 326.883044 295.095658 
L 326.964228 294.97526 
L 327.126596 295.211955 
L 327.20778 295.174336 
L 327.288964 295.333277 
L 327.532516 294.798351 
L 327.6137 295.216249 
L 327.694884 295.199922 
L 327.776068 295.24954 
L 327.857252 295.100734 
L 327.938436 295.17199 
L 328.019619 295.22188 
L 328.100803 294.926196 
L 328.181987 295.437852 
L 328.263171 295.31754 
L 328.344355 295.206183 
L 328.425539 295.432918 
L 328.506723 295.254675 
L 328.587907 295.32835 
L 328.669091 295.328723 
L 328.750275 295.043183 
L 328.912643 295.35515 
L 329.075011 295.354678 
L 329.237378 295.369569 
L 329.399746 294.849015 
L 329.48093 295.27586 
L 329.562114 295.154706 
L 329.643298 295.216182 
L 329.805666 295.023769 
L 329.968034 295.417679 
L 330.049218 295.00538 
L 330.130402 295.267005 
L 330.211586 295.193041 
L 330.29277 295.161968 
L 330.373953 295.399581 
L 330.536321 295.247563 
L 330.698689 295.389869 
L 330.861057 295.186486 
L 331.023425 295.389797 
L 331.104609 295.327542 
L 331.185793 294.952006 
L 331.348161 295.20149 
L 331.429345 295.310001 
L 331.510529 295.071927 
L 331.591712 295.237391 
L 331.672896 294.963509 
L 331.75408 295.289152 
L 331.835264 295.047599 
L 331.997632 295.263972 
L 332.078816 295.224682 
L 332.16 294.987678 
L 332.241184 295.314227 
L 332.322368 295.159494 
L 332.403552 295.254518 
L 332.484736 294.812986 
L 332.56592 295.378288 
L 332.647104 295.252573 
L 332.728288 294.969232 
L 332.890655 295.372945 
L 333.134207 294.898445 
L 333.296575 295.208611 
L 333.377759 295.145106 
L 333.458943 295.267735 
L 333.621311 295.087118 
L 333.702495 295.278552 
L 333.783679 294.941389 
L 334.02723 295.387168 
L 334.108414 295.090205 
L 334.189598 295.381224 
L 334.270782 295.135347 
L 334.351966 295.198862 
L 334.595518 295.244404 
L 334.676702 295.190904 
L 334.757886 295.449427 
L 334.83907 294.814643 
L 334.920254 295.260639 
L 335.001438 295.234685 
L 335.244989 295.39257 
L 335.326173 295.210082 
L 335.407357 295.257252 
L 335.488541 295.340813 
L 335.569725 295.147132 
L 335.650909 295.350088 
L 335.813277 294.96361 
L 335.975645 295.372863 
L 336.056829 295.17779 
L 336.219197 295.304023 
L 336.300381 295.238804 
L 336.381564 295.328796 
L 336.543932 295.104294 
L 336.7063 295.407117 
L 336.868668 295.281577 
L 337.031036 295.32048 
L 337.11222 294.878173 
L 337.193404 295.196047 
L 337.274588 295.102745 
L 337.355772 295.292214 
L 337.436956 295.202635 
L 337.51814 294.728343 
L 337.680507 295.160362 
L 337.761691 295.322113 
L 337.842875 295.272778 
L 337.924059 295.019847 
L 338.005243 295.351746 
L 338.086427 295.249056 
L 338.248795 295.183492 
L 338.329979 295.415582 
L 338.411163 295.313751 
L 338.654715 295.091062 
L 338.817082 295.367073 
L 338.898266 295.364675 
L 339.060634 294.948817 
L 339.141818 295.046424 
L 339.223002 295.42183 
L 339.304186 295.091847 
L 339.38537 295.154288 
L 339.547738 295.44072 
L 339.628922 295.106989 
L 339.710106 295.235658 
L 339.79129 295.3246 
L 339.872474 295.059864 
L 340.034841 295.292893 
L 340.116025 295.097062 
L 340.278393 295.366061 
L 340.521945 295.196049 
L 340.603129 295.36277 
L 340.765497 295.063251 
L 340.846681 295.321434 
L 340.927865 295.268169 
L 341.090233 295.448347 
L 341.171416 295.330422 
L 341.2526 295.412627 
L 341.333784 294.999812 
L 341.496152 295.299875 
L 341.577336 294.976773 
L 341.65852 295.061123 
L 341.739704 295.102012 
L 341.902072 294.974419 
L 342.06444 295.343369 
L 342.145624 295.182645 
L 342.307992 295.317389 
L 342.470359 294.974301 
L 342.551543 295.105135 
L 342.632727 294.800779 
L 342.713911 295.328354 
L 342.795095 294.929486 
L 342.876279 295.292911 
L 342.957463 295.129296 
L 343.038647 295.368445 
L 343.282199 294.972144 
L 343.525751 295.304996 
L 343.606934 295.372993 
L 343.688118 295.1451 
L 343.769302 295.370036 
L 343.850486 294.635222 
L 343.93167 295.009828 
L 344.012854 294.929103 
L 344.256406 295.33624 
L 344.418774 295.016051 
L 344.499958 295.079804 
L 344.662326 295.423214 
L 344.74351 295.409674 
L 344.905877 295.195351 
L 344.987061 295.270497 
L 345.068245 295.087123 
L 345.311797 295.299486 
L 345.392981 294.958844 
L 345.474165 295.069882 
L 345.636533 295.0616 
L 345.717717 295.235632 
L 345.798901 295.067093 
L 345.880085 295.241278 
L 345.961268 295.143535 
L 346.042452 295.270473 
L 346.20482 294.920363 
L 346.529556 295.362405 
L 346.61074 295.124221 
L 346.854292 295.35723 
L 346.935476 295.251048 
L 347.01666 295.375164 
L 347.097844 295.076392 
L 347.179027 295.415242 
L 347.260211 295.387773 
L 347.341395 295.025353 
L 347.422579 295.128171 
L 347.503763 295.167902 
L 347.584947 295.026726 
L 347.828499 295.405874 
L 347.909683 295.340336 
L 348.072051 294.623361 
L 348.234419 295.296918 
L 348.396786 295.124476 
L 348.965074 295.444699 
L 349.208626 294.867629 
L 349.452178 295.321045 
L 349.614545 295.151447 
L 349.695729 295.28188 
L 349.776913 295.052125 
L 349.939281 295.3179 
L 350.020465 295.154035 
L 350.101649 295.361122 
L 350.345201 294.995948 
L 350.426385 295.373158 
L 350.507569 295.2349 
L 350.751121 294.893977 
L 350.832304 295.39659 
L 351.075856 294.983838 
L 351.15704 294.850099 
L 351.238224 295.391513 
L 351.319408 295.358403 
L 351.400592 294.936735 
L 351.56296 295.39567 
L 351.644144 295.392055 
L 351.725328 295.251642 
L 351.806512 294.881821 
L 351.887696 295.311127 
L 351.968879 295.156672 
L 352.374799 295.381235 
L 352.455983 294.9544 
L 352.618351 295.446857 
L 352.699535 295.141911 
L 352.780719 295.405025 
L 352.861903 294.877992 
L 352.943087 295.205603 
L 353.024271 295.109211 
L 353.105455 294.996937 
L 353.43019 295.255483 
L 353.754926 295.080198 
L 354.079662 295.399053 
L 354.24203 295.443831 
L 354.404397 295.091124 
L 354.485581 295.235337 
L 354.566765 294.827004 
L 354.647949 295.203463 
L 354.729133 295.054166 
L 354.810317 295.33976 
L 354.891501 295.024558 
L 354.972685 295.362492 
L 355.053869 295.237721 
L 355.135053 295.081478 
L 355.378605 295.342243 
L 355.459789 295.203884 
L 355.622156 295.245375 
L 355.946892 295.341385 
L 356.028076 295.482648 
L 356.271628 295.023393 
L 356.51518 295.201265 
L 356.596364 295.469082 
L 356.677548 295.061864 
L 356.758732 295.444649 
L 356.839915 295.213633 
L 356.921099 295.24948 
L 357.002283 295.409725 
L 357.164651 295.033998 
L 357.327019 295.38325 
L 357.408203 295.122023 
L 357.489387 295.382748 
L 357.570571 295.024408 
L 357.651755 295.301866 
L 357.732939 295.120769 
L 357.814123 295.283479 
L 357.97649 295.127157 
L 358.138858 295.198069 
L 358.220042 295.120827 
L 358.38241 295.339955 
L 358.463594 295.076612 
L 358.544778 295.206043 
L 358.625962 294.903257 
L 358.78833 295.310497 
L 358.869514 295.03116 
L 359.031882 295.426724 
L 359.113066 295.298419 
L 359.194249 295.476582 
L 359.356617 295.089399 
L 359.437801 295.142163 
L 359.518985 294.829483 
L 359.600169 295.167495 
L 359.681353 295.051649 
L 359.762537 295.048966 
L 360.087273 295.42236 
L 360.168457 295.041866 
L 360.249641 295.081635 
L 360.330825 294.94787 
L 360.493192 295.486239 
L 360.65556 294.870208 
L 360.736744 294.989925 
L 360.817928 295.155239 
L 360.899112 294.895228 
L 360.980296 295.259279 
L 361.06148 295.085209 
L 361.305032 295.238344 
L 361.386216 295.257973 
L 361.548584 294.925518 
L 361.710951 295.317386 
L 361.954503 295.300666 
L 362.116871 295.102199 
L 362.360423 295.384561 
L 362.522791 295.016716 
L 362.603975 295.395728 
L 362.685159 295.153547 
L 362.766342 295.258711 
L 362.847526 295.409513 
L 363.009894 294.927689 
L 363.091078 295.31326 
L 363.172262 295.10447 
L 363.33463 295.276407 
L 363.415814 295.234227 
L 363.496998 295.022419 
L 363.74055 295.374128 
L 363.902918 294.886446 
L 363.984101 295.180591 
L 364.065285 294.963892 
L 364.146469 295.328437 
L 364.227653 294.902334 
L 364.308837 295.350263 
L 364.390021 295.243355 
L 364.552389 295.016822 
L 364.633573 295.417268 
L 364.714757 295.376094 
L 365.039493 295.188423 
L 365.20186 295.320473 
L 365.364228 295.237328 
L 365.445412 295.277319 
L 365.60778 295.173824 
L 365.688964 295.308112 
L 365.770148 294.995675 
L 365.851332 295.188987 
L 365.932516 294.818845 
L 366.0137 295.439145 
L 366.094884 295.180298 
L 366.176068 295.213923 
L 366.257252 295.27606 
L 366.338436 294.930142 
L 366.419619 295.414192 
L 366.581987 295.136701 
L 366.744355 295.484809 
L 366.825539 295.324965 
L 366.906723 295.115015 
L 366.987907 295.4501 
L 367.069091 295.059602 
L 367.150275 295.210419 
L 367.231459 295.120056 
L 367.312643 295.377426 
L 367.393827 295.185612 
L 367.475011 295.296195 
L 367.556195 294.864005 
L 367.637378 295.224614 
L 367.718562 295.172631 
L 367.799746 295.328333 
L 367.88093 294.925632 
L 368.124482 295.311818 
L 368.368034 295.189679 
L 368.449218 295.31279 
L 368.611586 294.78028 
L 368.69277 295.36162 
L 368.773953 295.134058 
L 368.936321 295.258373 
L 369.098689 295.063105 
L 369.261057 295.107515 
L 369.342241 294.776568 
L 369.423425 295.299918 
L 369.504609 294.998223 
L 369.585793 295.247758 
L 369.666977 295.105263 
L 369.748161 295.374258 
L 369.829345 295.292232 
L 369.910529 294.948372 
L 369.991712 295.380098 
L 370.072896 295.260515 
L 370.15408 295.15681 
L 370.235264 295.253333 
L 370.397632 294.945796 
L 370.56 295.299175 
L 370.884736 295.117796 
L 370.96592 295.217756 
L 371.047104 295.055754 
L 371.128288 295.334448 
L 371.209471 294.938591 
L 371.371839 295.222335 
L 371.453023 294.772727 
L 371.615391 295.279334 
L 371.696575 295.160007 
L 371.777759 295.368632 
L 371.858943 295.291998 
L 372.102495 295.123219 
L 372.183679 295.464453 
L 372.264863 295.061227 
L 372.346047 295.396401 
L 372.42723 295.280317 
L 372.508414 295.119155 
L 372.751966 295.400487 
L 372.995518 294.901803 
L 373.076702 295.146297 
L 373.157886 295.040768 
L 373.23907 294.998392 
L 373.401438 295.362606 
L 373.482622 294.884069 
L 373.563805 295.242916 
L 373.644989 295.188335 
L 373.726173 295.237881 
L 373.807357 295.424809 
L 373.888541 295.23351 
L 374.050909 295.345395 
L 374.213277 295.254024 
L 374.294461 294.981039 
L 374.375645 295.224431 
L 374.456829 295.023923 
L 374.538013 295.296592 
L 374.781564 294.900217 
L 374.862748 295.234725 
L 374.943932 295.066457 
L 375.025116 295.132041 
L 375.1063 295.103378 
L 375.187484 295.388655 
L 375.349852 294.94755 
L 375.431036 295.327976 
L 375.51222 294.676681 
L 375.674588 295.321514 
L 375.836956 295.248302 
L 375.91814 294.951444 
L 376.080507 295.3898 
L 376.242875 295.227168 
L 376.324059 295.140664 
L 376.405243 295.349114 
L 376.729979 295.011735 
L 376.811163 295.347303 
L 376.973531 294.988858 
L 377.135899 295.220168 
L 377.298266 295.451018 
L 377.460634 295.047498 
L 377.541818 295.309078 
L 377.704186 294.740563 
L 377.78537 295.316759 
L 377.866554 295.295447 
L 377.947738 295.294503 
L 378.028922 295.05817 
L 378.110106 295.118467 
L 378.19129 295.31701 
L 378.272474 294.816794 
L 378.353658 295.005434 
L 378.434841 295.129795 
L 378.516025 295.02347 
L 378.678393 295.069686 
L 378.759577 295.027422 
L 378.840761 295.376102 
L 378.921945 295.203024 
L 379.003129 295.30228 
L 379.084313 295.230835 
L 379.165497 295.128423 
L 379.246681 295.339597 
L 379.327865 294.946734 
L 379.490233 295.303833 
L 379.571416 295.167339 
L 379.6526 295.359285 
L 379.733784 295.108907 
L 379.814968 295.173282 
L 379.896152 294.986676 
L 380.05852 295.251798 
L 380.139704 295.129855 
L 380.220888 295.199286 
L 380.46444 295.14605 
L 380.545624 294.801673 
L 380.870359 295.289505 
L 381.032727 295.233381 
L 381.276279 295.128285 
L 381.357463 295.414482 
L 381.438647 295.32541 
L 381.519831 295.165925 
L 381.601015 295.340261 
L 381.682199 294.982261 
L 381.763383 295.381789 
L 381.925751 295.118392 
L 382.006934 295.168698 
L 382.169302 294.95875 
L 382.250486 295.448398 
L 382.412854 295.085036 
L 382.494038 295.394342 
L 382.575222 294.976488 
L 382.656406 295.235752 
L 382.73759 295.14167 
L 382.899958 295.383929 
L 382.981142 295.277719 
L 383.062326 295.092194 
L 383.14351 295.188382 
L 383.305877 295.182321 
L 383.468245 295.321171 
L 383.549429 295.329152 
L 383.711797 295.225443 
L 383.792981 295.407867 
L 383.955349 295.175974 
L 384.036533 295.265497 
L 384.117717 295.116658 
L 384.280085 295.263593 
L 384.442452 295.254141 
L 384.523636 295.336288 
L 384.60482 295.108038 
L 384.767188 295.41421 
L 384.848372 294.992136 
L 385.01074 295.222544 
L 385.173108 295.006147 
L 385.335476 295.389545 
L 385.41666 295.135945 
L 385.579027 295.443049 
L 385.903763 295.165436 
L 386.066131 295.297328 
L 386.147315 294.953818 
L 386.228499 295.25567 
L 386.309683 295.154335 
L 386.472051 295.370303 
L 386.715603 295.130359 
L 386.87797 295.389607 
L 387.121522 294.972267 
L 387.202706 295.323782 
L 387.446258 294.974721 
L 387.527442 295.374478 
L 387.608626 295.216865 
L 387.68981 294.95515 
L 387.770994 295.347575 
L 387.852178 295.112624 
L 387.933362 295.337331 
L 388.014545 295.065388 
L 388.095729 295.22162 
L 388.176913 295.086161 
L 388.258097 295.379624 
L 388.339281 295.354286 
L 388.582833 295.016879 
L 388.664017 295.261505 
L 388.745201 295.040408 
L 388.826385 295.357591 
L 388.988753 295.016692 
L 389.151121 295.328679 
L 389.232304 295.043705 
L 389.313488 295.373046 
L 389.394672 295.11652 
L 389.638224 295.403399 
L 389.881776 295.145778 
L 389.96296 295.390486 
L 390.125328 295.109645 
L 390.287696 295.272649 
L 390.450063 295.168598 
L 390.531247 295.163385 
L 390.612431 295.36918 
L 390.693615 295.281183 
L 390.774799 295.250778 
L 390.855983 295.051808 
L 391.099535 295.334484 
L 391.180719 295.17469 
L 391.261903 295.334152 
L 391.343087 295.15974 
L 391.505455 295.400165 
L 391.586638 295.079754 
L 391.667822 295.404459 
L 391.749006 295.074481 
L 391.83019 295.138703 
L 391.911374 295.058841 
L 392.073742 295.27894 
L 392.398478 295.105943 
L 392.479662 295.103795 
L 392.723214 295.430565 
L 392.804397 295.159424 
L 392.885581 295.323628 
L 393.047949 295.110216 
L 393.210317 295.404703 
L 393.291501 295.04337 
L 393.372685 295.47138 
L 393.453869 295.379869 
L 393.535053 295.067282 
L 393.616237 295.134617 
L 393.697421 295.101367 
L 393.859789 295.385343 
L 394.022156 295.276769 
L 394.10334 295.062729 
L 394.184524 295.380468 
L 394.265708 295.157844 
L 394.346892 295.236094 
L 394.50926 295.190707 
L 394.752812 295.259187 
L 394.833996 295.147131 
L 394.91518 295.309181 
L 394.996364 295.209825 
L 395.077548 295.375811 
L 395.483467 294.877305 
L 395.564651 295.47094 
L 395.645835 295.315154 
L 395.727019 295.431457 
L 395.970571 294.9539 
L 396.051755 295.36057 
L 396.132939 294.992922 
L 396.37649 295.369755 
L 396.620042 294.730249 
L 396.78241 295.230937 
L 396.863594 295.000725 
L 396.944778 295.406639 
L 397.107146 294.83193 
L 397.269514 295.282214 
L 397.431882 295.295819 
L 397.513066 295.082916 
L 397.675433 295.404722 
L 397.756617 295.405819 
L 398.081353 294.926569 
L 398.162537 295.39841 
L 398.243721 295.313121 
L 398.324905 295.438007 
L 398.406089 295.215641 
L 398.487273 295.348554 
L 398.487273 295.348554 
" style="fill:none;stroke:#1f77b4;stroke-linecap:square;stroke-width:1.5;"/>
   </g>
   <g id="patch_3">
    <path d="M 57.6 307.584 
L 57.6 41.472 
" style="fill:none;stroke:#000000;stroke-linecap:square;stroke-linejoin:miter;stroke-width:0.8;"/>
   </g>
   <g id="patch_4">
    <path d="M 414.72 307.584 
L 414.72 41.472 
" style="fill:none;stroke:#000000;stroke-linecap:square;stroke-linejoin:miter;stroke-width:0.8;"/>
   </g>
   <g id="patch_5">
    <path d="M 57.6 307.584 
L 414.72 307.584 
" style="fill:none;stroke:#000000;stroke-linecap:square;stroke-linejoin:miter;stroke-width:0.8;"/>
   </g>
   <g id="patch_6">
    <path d="M 57.6 41.472 
L 414.72 41.472 
" style="fill:none;stroke:#000000;stroke-linecap:square;stroke-linejoin:miter;stroke-width:0.8;"/>
   </g>
   <g id="text_18">
    <!-- AM frequency domain -->
    <g transform="translate(170.502187 35.472)scale(0.12 -0.12)">
     <defs>
      <path d="M 2188 4044 
L 1331 1722 
L 3047 1722 
L 2188 4044 
z
M 1831 4666 
L 2547 4666 
L 4325 0 
L 3669 0 
L 3244 1197 
L 1141 1197 
L 716 0 
L 50 0 
L 1831 4666 
z
" id="DejaVuSans-41" transform="scale(0.015625)"/>
      <path d="M 628 4666 
L 1569 4666 
L 2759 1491 
L 3956 4666 
L 4897 4666 
L 4897 0 
L 4281 0 
L 4281 4097 
L 3078 897 
L 2444 897 
L 1241 4097 
L 1241 0 
L 628 0 
L 628 4666 
z
" id="DejaVuSans-4d" transform="scale(0.015625)"/>
      <path d="M 1959 3097 
Q 1497 3097 1228 2736 
Q 959 2375 959 1747 
Q 959 1119 1226 758 
Q 1494 397 1959 397 
Q 2419 397 2687 759 
Q 2956 1122 2956 1747 
Q 2956 2369 2687 2733 
Q 2419 3097 1959 3097 
z
M 1959 3584 
Q 2709 3584 3137 3096 
Q 3566 2609 3566 1747 
Q 3566 888 3137 398 
Q 2709 -91 1959 -91 
Q 1206 -91 779 398 
Q 353 888 353 1747 
Q 353 2609 779 3096 
Q 1206 3584 1959 3584 
z
" id="DejaVuSans-6f" transform="scale(0.015625)"/>
     </defs>
     <use xlink:href="#DejaVuSans-41"/>
     <use x="68.408203" xlink:href="#DejaVuSans-4d"/>
     <use x="154.6875" xlink:href="#DejaVuSans-20"/>
     <use x="186.474609" xlink:href="#DejaVuSans-66"/>
     <use x="221.679688" xlink:href="#DejaVuSans-72"/>
     <use x="260.542969" xlink:href="#DejaVuSans-65"/>
     <use x="322.066406" xlink:href="#DejaVuSans-71"/>
     <use x="385.542969" xlink:href="#DejaVuSans-75"/>
     <use x="448.921875" xlink:href="#DejaVuSans-65"/>
     <use x="510.445312" xlink:href="#DejaVuSans-6e"/>
     <use x="573.824219" xlink:href="#DejaVuSans-63"/>
     <use x="628.804688" xlink:href="#DejaVuSans-79"/>
     <use x="687.984375" xlink:href="#DejaVuSans-20"/>
     <use x="719.771484" xlink:href="#DejaVuSans-64"/>
     <use x="783.248047" xlink:href="#DejaVuSans-6f"/>
     <use x="844.429688" xlink:href="#DejaVuSans-6d"/>
     <use x="941.841797" xlink:href="#DejaVuSans-61"/>
     <use x="1003.121094" xlink:href="#DejaVuSans-69"/>
     <use x="1030.904297" xlink:href="#DejaVuSans-6e"/>
    </g>
   </g>
  </g>
 </g>
 <defs>
  <clipPath id="paed796c2c7">
   <rect height="266.112" width="357.12" x="57.6" y="41.472"/>
  </clipPath>
 </defs>
</svg>
