<?xml version="1.0" encoding="utf-8" standalone="no"?>
<!DOCTYPE svg PUBLIC "-//W3C//DTD SVG 1.1//EN"
  "http://www.w3.org/Graphics/SVG/1.1/DTD/svg11.dtd">
<svg height="345.6pt" version="1.1" viewBox="0 0 460.8 345.6" width="460.8pt" xmlns="http://www.w3.org/2000/svg" xmlns:xlink="http://www.w3.org/1999/xlink">
 <metadata>
  <rdf:RDF xmlns:cc="http://creativecommons.org/ns#" xmlns:dc="http://purl.org/dc/elements/1.1/" xmlns:rdf="http://www.w3.org/1999/02/22-rdf-syntax-ns#">
   <cc:Work>
    <dc:type rdf:resource="http://purl.org/dc/dcmitype/StillImage"/>
    <dc:date>2021-11-07T21:56:36.936723</dc:date>
    <dc:format>image/svg+xml</dc:format>
    <dc:creator>
     <cc:Agent>
      <dc:title>Matplotlib v3.4.3, https://matplotlib.org/</dc:title>
     </cc:Agent>
    </dc:creator>
   </cc:Work>
  </rdf:RDF>
 </metadata>
 <defs>
  <style type="text/css">*{stroke-linecap:butt;stroke-linejoin:round;}</style>
 </defs>
 <g id="figure_1">
  <g id="patch_1">
   <path d="M 0 345.6 
L 460.8 345.6 
L 460.8 0 
L 0 0 
z
" style="fill:#ffffff;"/>
  </g>
  <g id="axes_1">
   <g id="patch_2">
    <path d="M 57.6 307.584 
L 414.72 307.584 
L 414.72 41.472 
L 57.6 41.472 
z
" style="fill:#ffffff;"/>
   </g>
   <g id="matplotlib.axis_1">
    <g id="xtick_1">
     <g id="line2d_1">
      <defs>
       <path d="M 0 0 
L 0 3.5 
" id="m4381f5b524" style="stroke:#000000;stroke-width:0.8;"/>
      </defs>
      <g>
       <use style="stroke:#000000;stroke-width:0.8;" x="73.784017" xlink:href="#m4381f5b524" y="307.584"/>
      </g>
     </g>
     <g id="text_1">
      <!-- 300 -->
      <g transform="translate(64.240267 322.182437)scale(0.1 -0.1)">
       <defs>
        <path d="M 2597 2516 
Q 3050 2419 3304 2112 
Q 3559 1806 3559 1356 
Q 3559 666 3084 287 
Q 2609 -91 1734 -91 
Q 1441 -91 1130 -33 
Q 819 25 488 141 
L 488 750 
Q 750 597 1062 519 
Q 1375 441 1716 441 
Q 2309 441 2620 675 
Q 2931 909 2931 1356 
Q 2931 1769 2642 2001 
Q 2353 2234 1838 2234 
L 1294 2234 
L 1294 2753 
L 1863 2753 
Q 2328 2753 2575 2939 
Q 2822 3125 2822 3475 
Q 2822 3834 2567 4026 
Q 2313 4219 1838 4219 
Q 1578 4219 1281 4162 
Q 984 4106 628 3988 
L 628 4550 
Q 988 4650 1302 4700 
Q 1616 4750 1894 4750 
Q 2613 4750 3031 4423 
Q 3450 4097 3450 3541 
Q 3450 3153 3228 2886 
Q 3006 2619 2597 2516 
z
" id="DejaVuSans-33" transform="scale(0.015625)"/>
        <path d="M 2034 4250 
Q 1547 4250 1301 3770 
Q 1056 3291 1056 2328 
Q 1056 1369 1301 889 
Q 1547 409 2034 409 
Q 2525 409 2770 889 
Q 3016 1369 3016 2328 
Q 3016 3291 2770 3770 
Q 2525 4250 2034 4250 
z
M 2034 4750 
Q 2819 4750 3233 4129 
Q 3647 3509 3647 2328 
Q 3647 1150 3233 529 
Q 2819 -91 2034 -91 
Q 1250 -91 836 529 
Q 422 1150 422 2328 
Q 422 3509 836 4129 
Q 1250 4750 2034 4750 
z
" id="DejaVuSans-30" transform="scale(0.015625)"/>
       </defs>
       <use xlink:href="#DejaVuSans-33"/>
       <use x="63.623047" xlink:href="#DejaVuSans-30"/>
       <use x="127.246094" xlink:href="#DejaVuSans-30"/>
      </g>
     </g>
    </g>
    <g id="xtick_2">
     <g id="line2d_2">
      <g>
       <use style="stroke:#000000;stroke-width:0.8;" x="114.371924" xlink:href="#m4381f5b524" y="307.584"/>
      </g>
     </g>
     <g id="text_2">
      <!-- 325 -->
      <g transform="translate(104.828174 322.182437)scale(0.1 -0.1)">
       <defs>
        <path d="M 1228 531 
L 3431 531 
L 3431 0 
L 469 0 
L 469 531 
Q 828 903 1448 1529 
Q 2069 2156 2228 2338 
Q 2531 2678 2651 2914 
Q 2772 3150 2772 3378 
Q 2772 3750 2511 3984 
Q 2250 4219 1831 4219 
Q 1534 4219 1204 4116 
Q 875 4013 500 3803 
L 500 4441 
Q 881 4594 1212 4672 
Q 1544 4750 1819 4750 
Q 2544 4750 2975 4387 
Q 3406 4025 3406 3419 
Q 3406 3131 3298 2873 
Q 3191 2616 2906 2266 
Q 2828 2175 2409 1742 
Q 1991 1309 1228 531 
z
" id="DejaVuSans-32" transform="scale(0.015625)"/>
        <path d="M 691 4666 
L 3169 4666 
L 3169 4134 
L 1269 4134 
L 1269 2991 
Q 1406 3038 1543 3061 
Q 1681 3084 1819 3084 
Q 2600 3084 3056 2656 
Q 3513 2228 3513 1497 
Q 3513 744 3044 326 
Q 2575 -91 1722 -91 
Q 1428 -91 1123 -41 
Q 819 9 494 109 
L 494 744 
Q 775 591 1075 516 
Q 1375 441 1709 441 
Q 2250 441 2565 725 
Q 2881 1009 2881 1497 
Q 2881 1984 2565 2268 
Q 2250 2553 1709 2553 
Q 1456 2553 1204 2497 
Q 953 2441 691 2322 
L 691 4666 
z
" id="DejaVuSans-35" transform="scale(0.015625)"/>
       </defs>
       <use xlink:href="#DejaVuSans-33"/>
       <use x="63.623047" xlink:href="#DejaVuSans-32"/>
       <use x="127.246094" xlink:href="#DejaVuSans-35"/>
      </g>
     </g>
    </g>
    <g id="xtick_3">
     <g id="line2d_3">
      <g>
       <use style="stroke:#000000;stroke-width:0.8;" x="154.959831" xlink:href="#m4381f5b524" y="307.584"/>
      </g>
     </g>
     <g id="text_3">
      <!-- 350 -->
      <g transform="translate(145.416081 322.182437)scale(0.1 -0.1)">
       <use xlink:href="#DejaVuSans-33"/>
       <use x="63.623047" xlink:href="#DejaVuSans-35"/>
       <use x="127.246094" xlink:href="#DejaVuSans-30"/>
      </g>
     </g>
    </g>
    <g id="xtick_4">
     <g id="line2d_4">
      <g>
       <use style="stroke:#000000;stroke-width:0.8;" x="195.547738" xlink:href="#m4381f5b524" y="307.584"/>
      </g>
     </g>
     <g id="text_4">
      <!-- 375 -->
      <g transform="translate(186.003988 322.182437)scale(0.1 -0.1)">
       <defs>
        <path d="M 525 4666 
L 3525 4666 
L 3525 4397 
L 1831 0 
L 1172 0 
L 2766 4134 
L 525 4134 
L 525 4666 
z
" id="DejaVuSans-37" transform="scale(0.015625)"/>
       </defs>
       <use xlink:href="#DejaVuSans-33"/>
       <use x="63.623047" xlink:href="#DejaVuSans-37"/>
       <use x="127.246094" xlink:href="#DejaVuSans-35"/>
      </g>
     </g>
    </g>
    <g id="xtick_5">
     <g id="line2d_5">
      <g>
       <use style="stroke:#000000;stroke-width:0.8;" x="236.135645" xlink:href="#m4381f5b524" y="307.584"/>
      </g>
     </g>
     <g id="text_5">
      <!-- 400 -->
      <g transform="translate(226.591895 322.182437)scale(0.1 -0.1)">
       <defs>
        <path d="M 2419 4116 
L 825 1625 
L 2419 1625 
L 2419 4116 
z
M 2253 4666 
L 3047 4666 
L 3047 1625 
L 3713 1625 
L 3713 1100 
L 3047 1100 
L 3047 0 
L 2419 0 
L 2419 1100 
L 313 1100 
L 313 1709 
L 2253 4666 
z
" id="DejaVuSans-34" transform="scale(0.015625)"/>
       </defs>
       <use xlink:href="#DejaVuSans-34"/>
       <use x="63.623047" xlink:href="#DejaVuSans-30"/>
       <use x="127.246094" xlink:href="#DejaVuSans-30"/>
      </g>
     </g>
    </g>
    <g id="xtick_6">
     <g id="line2d_6">
      <g>
       <use style="stroke:#000000;stroke-width:0.8;" x="276.723552" xlink:href="#m4381f5b524" y="307.584"/>
      </g>
     </g>
     <g id="text_6">
      <!-- 425 -->
      <g transform="translate(267.179802 322.182437)scale(0.1 -0.1)">
       <use xlink:href="#DejaVuSans-34"/>
       <use x="63.623047" xlink:href="#DejaVuSans-32"/>
       <use x="127.246094" xlink:href="#DejaVuSans-35"/>
      </g>
     </g>
    </g>
    <g id="xtick_7">
     <g id="line2d_7">
      <g>
       <use style="stroke:#000000;stroke-width:0.8;" x="317.311459" xlink:href="#m4381f5b524" y="307.584"/>
      </g>
     </g>
     <g id="text_7">
      <!-- 450 -->
      <g transform="translate(307.767709 322.182437)scale(0.1 -0.1)">
       <use xlink:href="#DejaVuSans-34"/>
       <use x="63.623047" xlink:href="#DejaVuSans-35"/>
       <use x="127.246094" xlink:href="#DejaVuSans-30"/>
      </g>
     </g>
    </g>
    <g id="xtick_8">
     <g id="line2d_8">
      <g>
       <use style="stroke:#000000;stroke-width:0.8;" x="357.899366" xlink:href="#m4381f5b524" y="307.584"/>
      </g>
     </g>
     <g id="text_8">
      <!-- 475 -->
      <g transform="translate(348.355616 322.182437)scale(0.1 -0.1)">
       <use xlink:href="#DejaVuSans-34"/>
       <use x="63.623047" xlink:href="#DejaVuSans-37"/>
       <use x="127.246094" xlink:href="#DejaVuSans-35"/>
      </g>
     </g>
    </g>
    <g id="xtick_9">
     <g id="line2d_9">
      <g>
       <use style="stroke:#000000;stroke-width:0.8;" x="398.487273" xlink:href="#m4381f5b524" y="307.584"/>
      </g>
     </g>
     <g id="text_9">
      <!-- 500 -->
      <g transform="translate(388.943523 322.182437)scale(0.1 -0.1)">
       <use xlink:href="#DejaVuSans-35"/>
       <use x="63.623047" xlink:href="#DejaVuSans-30"/>
       <use x="127.246094" xlink:href="#DejaVuSans-30"/>
      </g>
     </g>
    </g>
    <g id="text_10">
     <!-- time [ms] -->
     <g transform="translate(211.898281 335.860562)scale(0.1 -0.1)">
      <defs>
       <path d="M 1172 4494 
L 1172 3500 
L 2356 3500 
L 2356 3053 
L 1172 3053 
L 1172 1153 
Q 1172 725 1289 603 
Q 1406 481 1766 481 
L 2356 481 
L 2356 0 
L 1766 0 
Q 1100 0 847 248 
Q 594 497 594 1153 
L 594 3053 
L 172 3053 
L 172 3500 
L 594 3500 
L 594 4494 
L 1172 4494 
z
" id="DejaVuSans-74" transform="scale(0.015625)"/>
       <path d="M 603 3500 
L 1178 3500 
L 1178 0 
L 603 0 
L 603 3500 
z
M 603 4863 
L 1178 4863 
L 1178 4134 
L 603 4134 
L 603 4863 
z
" id="DejaVuSans-69" transform="scale(0.015625)"/>
       <path d="M 3328 2828 
Q 3544 3216 3844 3400 
Q 4144 3584 4550 3584 
Q 5097 3584 5394 3201 
Q 5691 2819 5691 2113 
L 5691 0 
L 5113 0 
L 5113 2094 
Q 5113 2597 4934 2840 
Q 4756 3084 4391 3084 
Q 3944 3084 3684 2787 
Q 3425 2491 3425 1978 
L 3425 0 
L 2847 0 
L 2847 2094 
Q 2847 2600 2669 2842 
Q 2491 3084 2119 3084 
Q 1678 3084 1418 2786 
Q 1159 2488 1159 1978 
L 1159 0 
L 581 0 
L 581 3500 
L 1159 3500 
L 1159 2956 
Q 1356 3278 1631 3431 
Q 1906 3584 2284 3584 
Q 2666 3584 2933 3390 
Q 3200 3197 3328 2828 
z
" id="DejaVuSans-6d" transform="scale(0.015625)"/>
       <path d="M 3597 1894 
L 3597 1613 
L 953 1613 
Q 991 1019 1311 708 
Q 1631 397 2203 397 
Q 2534 397 2845 478 
Q 3156 559 3463 722 
L 3463 178 
Q 3153 47 2828 -22 
Q 2503 -91 2169 -91 
Q 1331 -91 842 396 
Q 353 884 353 1716 
Q 353 2575 817 3079 
Q 1281 3584 2069 3584 
Q 2775 3584 3186 3129 
Q 3597 2675 3597 1894 
z
M 3022 2063 
Q 3016 2534 2758 2815 
Q 2500 3097 2075 3097 
Q 1594 3097 1305 2825 
Q 1016 2553 972 2059 
L 3022 2063 
z
" id="DejaVuSans-65" transform="scale(0.015625)"/>
       <path id="DejaVuSans-20" transform="scale(0.015625)"/>
       <path d="M 550 4863 
L 1875 4863 
L 1875 4416 
L 1125 4416 
L 1125 -397 
L 1875 -397 
L 1875 -844 
L 550 -844 
L 550 4863 
z
" id="DejaVuSans-5b" transform="scale(0.015625)"/>
       <path d="M 2834 3397 
L 2834 2853 
Q 2591 2978 2328 3040 
Q 2066 3103 1784 3103 
Q 1356 3103 1142 2972 
Q 928 2841 928 2578 
Q 928 2378 1081 2264 
Q 1234 2150 1697 2047 
L 1894 2003 
Q 2506 1872 2764 1633 
Q 3022 1394 3022 966 
Q 3022 478 2636 193 
Q 2250 -91 1575 -91 
Q 1294 -91 989 -36 
Q 684 19 347 128 
L 347 722 
Q 666 556 975 473 
Q 1284 391 1588 391 
Q 1994 391 2212 530 
Q 2431 669 2431 922 
Q 2431 1156 2273 1281 
Q 2116 1406 1581 1522 
L 1381 1569 
Q 847 1681 609 1914 
Q 372 2147 372 2553 
Q 372 3047 722 3315 
Q 1072 3584 1716 3584 
Q 2034 3584 2315 3537 
Q 2597 3491 2834 3397 
z
" id="DejaVuSans-73" transform="scale(0.015625)"/>
       <path d="M 1947 4863 
L 1947 -844 
L 622 -844 
L 622 -397 
L 1369 -397 
L 1369 4416 
L 622 4416 
L 622 4863 
L 1947 4863 
z
" id="DejaVuSans-5d" transform="scale(0.015625)"/>
      </defs>
      <use xlink:href="#DejaVuSans-74"/>
      <use x="39.208984" xlink:href="#DejaVuSans-69"/>
      <use x="66.992188" xlink:href="#DejaVuSans-6d"/>
      <use x="164.404297" xlink:href="#DejaVuSans-65"/>
      <use x="225.927734" xlink:href="#DejaVuSans-20"/>
      <use x="257.714844" xlink:href="#DejaVuSans-5b"/>
      <use x="296.728516" xlink:href="#DejaVuSans-6d"/>
      <use x="394.140625" xlink:href="#DejaVuSans-73"/>
      <use x="446.240234" xlink:href="#DejaVuSans-5d"/>
     </g>
    </g>
   </g>
   <g id="matplotlib.axis_2">
    <g id="ytick_1">
     <g id="line2d_10">
      <defs>
       <path d="M 0 0 
L -3.5 0 
" id="m1a7c7945d5" style="stroke:#000000;stroke-width:0.8;"/>
      </defs>
      <g>
       <use style="stroke:#000000;stroke-width:0.8;" x="57.6" xlink:href="#m1a7c7945d5" y="258.272343"/>
      </g>
     </g>
     <g id="text_11">
      <!-- $\mathdefault{−1.0}$ -->
      <g transform="translate(26.3 262.071562)scale(0.1 -0.1)">
       <defs>
        <path d="M 678 2272 
L 4684 2272 
L 4684 1741 
L 678 1741 
L 678 2272 
z
" id="DejaVuSans-2212" transform="scale(0.015625)"/>
        <path d="M 794 531 
L 1825 531 
L 1825 4091 
L 703 3866 
L 703 4441 
L 1819 4666 
L 2450 4666 
L 2450 531 
L 3481 531 
L 3481 0 
L 794 0 
L 794 531 
z
" id="DejaVuSans-31" transform="scale(0.015625)"/>
        <path d="M 684 794 
L 1344 794 
L 1344 0 
L 684 0 
L 684 794 
z
" id="DejaVuSans-2e" transform="scale(0.015625)"/>
       </defs>
       <use transform="translate(0 0.78125)" xlink:href="#DejaVuSans-2212"/>
       <use transform="translate(83.789062 0.78125)" xlink:href="#DejaVuSans-31"/>
       <use transform="translate(147.412109 0.78125)" xlink:href="#DejaVuSans-2e"/>
       <use transform="translate(179.199219 0.78125)" xlink:href="#DejaVuSans-30"/>
      </g>
     </g>
    </g>
    <g id="ytick_2">
     <g id="line2d_11">
      <g>
       <use style="stroke:#000000;stroke-width:0.8;" x="57.6" xlink:href="#m1a7c7945d5" y="208.299736"/>
      </g>
     </g>
     <g id="text_12">
      <!-- $\mathdefault{−0.5}$ -->
      <g transform="translate(26.3 212.098955)scale(0.1 -0.1)">
       <use transform="translate(0 0.78125)" xlink:href="#DejaVuSans-2212"/>
       <use transform="translate(83.789062 0.78125)" xlink:href="#DejaVuSans-30"/>
       <use transform="translate(147.412109 0.78125)" xlink:href="#DejaVuSans-2e"/>
       <use transform="translate(179.199219 0.78125)" xlink:href="#DejaVuSans-35"/>
      </g>
     </g>
    </g>
    <g id="ytick_3">
     <g id="line2d_12">
      <g>
       <use style="stroke:#000000;stroke-width:0.8;" x="57.6" xlink:href="#m1a7c7945d5" y="158.327129"/>
      </g>
     </g>
     <g id="text_13">
      <!-- $\mathdefault{0.0}$ -->
      <g transform="translate(34.6 162.126347)scale(0.1 -0.1)">
       <use transform="translate(0 0.78125)" xlink:href="#DejaVuSans-30"/>
       <use transform="translate(63.623047 0.78125)" xlink:href="#DejaVuSans-2e"/>
       <use transform="translate(95.410156 0.78125)" xlink:href="#DejaVuSans-30"/>
      </g>
     </g>
    </g>
    <g id="ytick_4">
     <g id="line2d_13">
      <g>
       <use style="stroke:#000000;stroke-width:0.8;" x="57.6" xlink:href="#m1a7c7945d5" y="108.354522"/>
      </g>
     </g>
     <g id="text_14">
      <!-- $\mathdefault{0.5}$ -->
      <g transform="translate(34.6 112.15374)scale(0.1 -0.1)">
       <use transform="translate(0 0.78125)" xlink:href="#DejaVuSans-30"/>
       <use transform="translate(63.623047 0.78125)" xlink:href="#DejaVuSans-2e"/>
       <use transform="translate(95.410156 0.78125)" xlink:href="#DejaVuSans-35"/>
      </g>
     </g>
    </g>
    <g id="ytick_5">
     <g id="line2d_14">
      <g>
       <use style="stroke:#000000;stroke-width:0.8;" x="57.6" xlink:href="#m1a7c7945d5" y="58.381914"/>
      </g>
     </g>
     <g id="text_15">
      <!-- $\mathdefault{1.0}$ -->
      <g transform="translate(34.6 62.181133)scale(0.1 -0.1)">
       <use transform="translate(0 0.78125)" xlink:href="#DejaVuSans-31"/>
       <use transform="translate(63.623047 0.78125)" xlink:href="#DejaVuSans-2e"/>
       <use transform="translate(95.410156 0.78125)" xlink:href="#DejaVuSans-30"/>
      </g>
     </g>
    </g>
   </g>
   <g id="line2d_15">
    <path clip-path="url(#pb1b14154f5)" d="M 73.832727 133.038381 
L 74.157463 78.966302 
L 74.319831 73.859088 
L 74.482199 77.927208 
L 74.644567 81.927228 
L 74.725751 81.93157 
L 74.888118 77.687149 
L 75.212854 67.748324 
L 75.294038 67.782933 
L 75.53759 72.403295 
L 75.781142 75.199264 
L 76.024693 74.483593 
L 76.105877 74.903344 
L 76.268245 78.194611 
L 77.486004 122.752513 
L 77.891924 138.369451 
L 78.784947 163.012346 
L 78.866131 162.988296 
L 79.028499 162.72586 
L 79.109683 162.859608 
L 79.272051 163.942522 
L 79.596786 166.16056 
L 79.67797 166.012071 
L 80.08389 163.995686 
L 80.246258 164.741726 
L 80.570994 166.878068 
L 80.652178 166.902689 
L 80.976913 165.998898 
L 81.058097 166.098258 
L 81.301649 167.612444 
L 81.545201 168.791524 
L 81.626385 168.702851 
L 82.032304 167.176324 
L 82.194672 167.649136 
L 82.519408 169.135304 
L 82.600592 169.151876 
L 82.76296 168.694195 
L 83.087696 166.809297 
L 83.331247 163.366964 
L 83.574799 155.546802 
L 84.711374 100.800369 
L 85.279662 77.831823 
L 85.929133 58.568697 
L 86.253869 54.995805 
L 86.578605 53.568 
L 86.659789 53.592771 
L 86.822156 54.617598 
L 87.065708 59.023229 
L 87.71518 78.450089 
L 88.202283 101.280818 
L 89.58241 169.182899 
L 89.98833 178.210834 
L 90.231882 179.77887 
L 90.394249 179.766443 
L 90.556617 179.610676 
L 90.718985 179.820723 
L 91.206089 181.462441 
L 91.287273 181.427703 
L 91.612008 181.020494 
L 91.774376 181.365572 
L 92.26148 182.962114 
L 92.423848 182.747576 
L 92.6674 182.364491 
L 92.829767 182.452559 
L 93.316871 183.152557 
L 93.479239 183.134761 
L 93.641607 182.864569 
L 93.803975 181.96759 
L 94.047526 178.402299 
L 94.53463 164.783568 
L 96.483044 112.938343 
L 96.80778 108.755624 
L 97.132516 107.088217 
L 97.294884 106.813499 
L 97.376068 106.950698 
L 97.538436 107.983136 
L 97.863171 112.825691 
L 98.350275 123.683618 
L 98.918562 143.483707 
L 100.217505 187.658007 
L 100.542241 191.158507 
L 100.785793 192.265486 
L 100.948161 192.337219 
L 101.35408 192.014548 
L 101.597632 192.599256 
L 101.841184 193.055692 
L 102.247104 193.071803 
L 102.490655 193.804136 
L 102.734207 194.407297 
L 102.896575 194.237848 
L 103.221311 193.664138 
L 103.383679 194.099924 
L 103.789598 195.802952 
L 103.870782 195.81618 
L 104.520254 195.006349 
L 104.682622 193.719479 
L 104.926173 188.228133 
L 105.413277 167.807484 
L 107.280507 85.439117 
L 107.605243 79.635643 
L 107.929979 77.029918 
L 108.011163 76.836212 
L 108.092347 76.884162 
L 108.254715 77.810633 
L 108.498266 81.258093 
L 108.904186 90.981311 
L 109.39129 108.878547 
L 110.365497 154.75514 
L 111.014968 184.051433 
L 111.502072 197.715364 
L 111.745624 200.271588 
L 111.907992 200.609169 
L 112.232727 200.59497 
L 112.719831 200.981923 
L 113.044567 200.847595 
L 113.288118 201.128244 
L 113.53167 201.342178 
L 113.775222 201.161888 
L 114.018774 201.095716 
L 114.587061 201.639502 
L 114.911797 201.588713 
L 115.236533 201.812776 
L 115.398901 201.250541 
L 115.642452 198.71125 
L 116.21074 188.681549 
L 116.61666 178.359291 
L 118.240338 129.251597 
L 118.646258 123.195497 
L 118.88981 121.890296 
L 118.970994 121.900429 
L 119.133362 122.437118 
L 119.458097 124.812285 
L 119.701649 128.004927 
L 120.026385 135.526999 
L 121.000592 167.137958 
L 121.812431 193.863906 
L 122.218351 200.76734 
L 122.461903 202.126939 
L 122.786638 202.578141 
L 123.03019 202.691727 
L 123.192558 202.517115 
L 123.679662 201.652401 
L 123.84203 201.832968 
L 124.166765 202.279282 
L 124.572685 202.362054 
L 124.978605 202.962828 
L 125.140973 202.607329 
L 125.546892 201.016812 
L 125.628076 201.049674 
L 126.033996 202.099226 
L 126.196364 201.010915 
L 126.439915 196.037225 
L 126.845835 180.992597 
L 128.794249 98.117652 
L 129.200169 91.698577 
L 129.443721 89.865764 
L 129.524905 89.755071 
L 129.606089 89.922585 
L 129.768457 91.020432 
L 130.093192 95.209215 
L 130.499112 103.657836 
L 130.986216 120.854099 
L 133.015814 196.362433 
L 133.259366 198.624024 
L 133.421734 198.934356 
L 133.908837 199.152858 
L 134.071205 199.147563 
L 134.314757 198.752421 
L 134.639493 198.237336 
L 134.883044 198.288027 
L 135.20778 198.36838 
L 136.750275 197.568708 
L 136.993827 196.77952 
L 137.318562 194.900379 
L 137.643298 191.34181 
L 137.968034 184.571489 
L 138.455137 168.377584 
L 139.591712 127.862125 
L 140.078816 116.165116 
L 140.403552 112.587317 
L 140.647104 111.648162 
L 140.809471 111.620205 
L 140.971839 112.237214 
L 141.215391 114.723061 
L 141.702495 123.57338 
L 142.189598 136.314767 
L 143.894461 190.576787 
L 144.138013 192.613735 
L 144.381564 193.198009 
L 144.543932 193.106859 
L 144.949852 192.547505 
L 145.11222 192.607244 
L 145.355772 192.764448 
L 145.51814 192.592789 
L 146.005243 191.626814 
L 146.167611 191.890965 
L 146.492347 192.465811 
L 146.654715 192.196692 
L 147.060634 191.029687 
L 147.223002 191.095918 
L 147.466554 191.391855 
L 147.547738 191.310992 
L 147.710106 190.538579 
L 147.953658 187.314034 
L 148.278393 178.512283 
L 148.927865 150.576423 
L 149.902072 112.81849 
L 150.389175 101.377192 
L 150.795095 96.411511 
L 150.957463 95.950044 
L 151.038647 96.068498 
L 151.201015 96.890629 
L 151.525751 100.173345 
L 151.93167 107.262548 
L 152.499958 122.929182 
L 154.448372 183.470007 
L 154.773108 186.008424 
L 155.097844 186.838043 
L 155.260211 186.903238 
L 155.909683 186.727235 
L 156.072051 186.718848 
L 156.315603 186.380443 
L 156.640338 185.936433 
L 156.802706 186.028571 
L 157.046258 186.243623 
L 157.208626 186.147344 
L 157.614545 185.688014 
L 157.776913 185.93509 
L 158.101649 186.503447 
L 158.264017 186.31793 
L 158.994672 184.319566 
L 159.15704 182.637928 
L 159.400592 177.528383 
L 159.887696 160.616026 
L 161.267822 109.773757 
L 161.754926 98.817427 
L 162.160846 94.205061 
L 162.404397 93.281783 
L 162.485581 93.398282 
L 162.647949 94.317066 
L 162.972685 98.257509 
L 163.459789 107.44333 
L 163.946892 122.188504 
L 164.758732 153.424931 
L 165.408203 176.447263 
L 165.732939 181.967582 
L 165.97649 183.383646 
L 166.138858 183.390753 
L 166.625962 182.736661 
L 167.113066 182.762849 
L 167.437801 182.639754 
L 167.924905 182.6683 
L 168.493192 182.247365 
L 168.980296 182.386711 
L 169.142664 182.187521 
L 169.305032 181.6718 
L 169.4674 180.554725 
L 169.710951 176.938534 
L 170.035687 167.795744 
L 171.33463 126.011682 
L 171.821734 116.765488 
L 172.146469 113.424164 
L 172.390021 112.420466 
L 172.552389 112.375479 
L 172.714757 112.799549 
L 172.958309 114.453367 
L 173.283044 118.631147 
L 174.0137 131.282169 
L 174.581987 147.34659 
L 175.556195 173.119453 
L 175.962114 179.456709 
L 176.368034 182.659057 
L 176.530402 182.922091 
L 176.69277 182.632024 
L 177.017505 181.935694 
L 177.179873 182.18344 
L 177.585793 183.184729 
L 177.748161 182.990401 
L 178.072896 182.354492 
L 178.235264 182.391013 
L 178.56 182.613226 
L 179.047104 182.374597 
L 179.534207 183.085409 
L 179.777759 182.556223 
L 180.021311 182.217546 
L 180.346047 182.535394 
L 180.42723 182.369334 
L 180.589598 181.170915 
L 180.83315 176.70552 
L 181.320254 160.976667 
L 183.1063 96.330063 
L 183.593404 88.286816 
L 183.91814 85.805653 
L 183.999323 85.677867 
L 184.080507 85.746344 
L 184.242875 86.395278 
L 184.567611 89.270851 
L 184.892347 94.704985 
L 185.298266 106.661808 
L 186.110106 140.053495 
L 187.003129 176.54375 
L 187.327865 182.216663 
L 187.6526 184.083025 
L 187.977336 184.716895 
L 188.139704 184.719793 
L 188.383256 184.329428 
L 188.626808 184.01737 
L 188.789175 184.13396 
L 189.276279 184.761814 
L 189.682199 184.688517 
L 190.250486 185.334138 
L 190.656406 185.181227 
L 190.899958 185.161902 
L 191.062326 184.572366 
L 191.305877 181.91055 
L 191.711797 173.442504 
L 192.848372 148.704256 
L 193.660211 138.705342 
L 194.309683 133.909342 
L 194.472051 133.40605 
L 194.553235 133.402803 
L 194.715603 133.881497 
L 195.040338 135.990421 
L 195.365074 139.09759 
L 195.68981 144.719178 
L 196.664017 168.493098 
L 197.232304 181.673637 
L 197.638224 186.006387 
L 197.881776 187.222257 
L 198.044144 187.369925 
L 198.531247 186.943001 
L 199.018351 187.712013 
L 199.261903 187.190983 
L 199.505455 186.920079 
L 199.667822 187.263949 
L 199.992558 188.199086 
L 200.154926 188.189099 
L 200.560846 187.735407 
L 200.804397 188.14133 
L 201.047949 188.370118 
L 201.210317 188.134258 
L 201.535053 187.655017 
L 201.778605 187.974664 
L 201.940973 187.972908 
L 202.10334 187.049396 
L 202.346892 182.913179 
L 202.752812 169.265544 
L 204.538858 100.703772 
L 205.025962 90.383753 
L 205.350698 87.567747 
L 205.513066 87.206225 
L 205.594249 87.21826 
L 205.756617 87.649145 
L 205.918985 88.807727 
L 206.162537 92.476158 
L 206.568457 103.41491 
L 207.217928 127.022926 
L 208.598055 182.17919 
L 208.922791 187.52296 
L 209.247526 189.307489 
L 209.491078 189.819978 
L 209.653446 189.856221 
L 210.14055 189.514176 
L 210.708837 190.159327 
L 211.277125 189.602777 
L 211.683044 189.845258 
L 212.088964 189.664654 
L 212.494884 189.979414 
L 212.657252 189.583293 
L 212.900803 187.832551 
L 213.469091 180.7625 
L 214.68685 162.920855 
L 215.823425 143.796447 
L 216.229345 140.837986 
L 216.472896 140.369282 
L 216.635264 140.701282 
L 216.878816 142.336315 
L 217.284736 147.46506 
L 217.853023 157.639142 
L 219.314334 187.866929 
L 219.557886 188.72024 
L 220.044989 189.005435 
L 220.288541 188.955792 
L 220.613277 188.692337 
L 220.775645 188.806863 
L 221.100381 189.165685 
L 221.262748 188.976866 
L 221.668668 188.223887 
L 221.831036 188.484929 
L 222.155772 189.244552 
L 222.236956 189.218316 
L 222.399323 188.825361 
L 222.724059 187.895762 
L 222.805243 187.902669 
L 222.967611 188.260879 
L 223.292347 189.135976 
L 223.373531 189.089709 
L 223.535899 188.420857 
L 223.77945 185.604728 
L 224.104186 177.40251 
L 224.753658 150.352723 
L 225.890233 108.070038 
L 226.45852 96.173425 
L 226.702072 93.776524 
L 226.86444 93.523704 
L 227.026808 94.087707 
L 227.351543 96.471435 
L 227.676279 100.870547 
L 228.082199 110.994527 
L 228.894038 138.219314 
L 230.030613 176.473593 
L 230.436533 184.064357 
L 230.761268 186.193453 
L 230.923636 186.400178 
L 231.086004 186.313517 
L 231.491924 185.990024 
L 232.141395 185.943056 
L 232.466131 185.850355 
L 232.872051 185.833609 
L 233.602706 185.204417 
L 233.846258 185.180707 
L 234.08981 184.854153 
L 234.576913 183.584368 
L 234.901649 181.962296 
L 235.388753 178.167556 
L 235.713488 174.145623 
L 236.119408 165.307156 
L 237.093615 142.478985 
L 237.580719 135.600986 
L 238.067822 131.512274 
L 238.23019 131.194867 
L 238.392558 131.634333 
L 238.717294 134.001164 
L 239.123214 138.181047 
L 239.529133 145.549636 
L 241.071628 177.818616 
L 241.396364 180.830825 
L 241.558732 181.215986 
L 241.721099 181.124267 
L 242.045835 180.744685 
L 242.208203 180.824501 
L 242.532939 181.132013 
L 242.695307 181.053266 
L 243.18241 180.536115 
L 243.425962 180.743919 
L 243.831882 181.100219 
L 244.075433 180.941742 
L 244.400169 180.264894 
L 244.724905 179.737242 
L 245.049641 179.69062 
L 245.212008 179.001426 
L 245.374376 177.113587 
L 245.699112 169.063524 
L 247.647526 108.488315 
L 248.053446 102.901838 
L 248.296998 102.025566 
L 248.378182 102.067461 
L 248.54055 102.545603 
L 248.784101 104.246265 
L 249.108837 108.575926 
L 249.677125 120.380153 
L 251.869091 174.466294 
L 252.193827 177.298993 
L 252.356195 177.588096 
L 252.518562 177.344834 
L 252.843298 176.840603 
L 253.249218 176.829426 
L 253.49277 176.113913 
L 253.736321 175.455702 
L 253.898689 175.458871 
L 254.304609 175.931748 
L 254.548161 175.628654 
L 254.710529 175.48989 
L 254.872896 175.655949 
L 255.278816 176.401985 
L 255.441184 176.173791 
L 256.009471 174.873764 
L 256.334207 174.76528 
L 256.496575 174.46789 
L 256.740127 173.381211 
L 256.983679 170.993516 
L 257.308414 164.780102 
L 259.013277 124.007929 
L 259.581564 117.670034 
L 259.825116 116.482051 
L 259.987484 116.455245 
L 260.149852 116.964181 
L 260.393404 118.552179 
L 260.799323 123.086706 
L 261.286427 131.361885 
L 262.098266 150.714854 
L 262.99129 172.160544 
L 263.153658 172.869466 
L 263.316025 172.77435 
L 263.559577 172.604687 
L 263.803129 173.116742 
L 264.046681 173.535649 
L 264.209049 173.451073 
L 264.614968 173.082034 
L 265.102072 173.183457 
L 265.426808 173.17787 
L 265.832727 173.367569 
L 266.401015 172.916274 
L 266.644567 173.05219 
L 266.806934 172.437277 
L 267.050486 169.389593 
L 267.53759 157.683158 
L 268.674165 130.489426 
L 269.161268 123.239576 
L 269.486004 121.144137 
L 269.729556 120.643634 
L 269.891924 120.606033 
L 270.054292 120.998517 
L 270.297844 122.923285 
L 270.947315 132.336795 
L 271.353235 139.866996 
L 272.08389 154.652571 
L 273.301649 172.767103 
L 273.626385 174.180771 
L 273.788753 174.139752 
L 274.438224 172.800363 
L 275.168879 173.268876 
L 275.574799 173.716582 
L 275.737167 173.549251 
L 276.143087 172.975741 
L 276.305455 173.129023 
L 276.711374 173.645422 
L 277.198478 173.614826 
L 277.685581 174.010895 
L 277.847949 173.809241 
L 278.091501 172.927303 
L 278.335053 170.783795 
L 278.659789 164.876517 
L 279.552812 141.008461 
L 280.202283 125.025586 
L 280.932939 112.819368 
L 281.17649 111.340532 
L 281.501226 110.819579 
L 281.744778 110.715776 
L 281.907146 111.144519 
L 282.150698 113.037031 
L 282.718985 120.67874 
L 283.124905 129.398206 
L 283.774376 150.406177 
L 284.423848 170.444846 
L 284.748584 174.714247 
L 284.992135 175.709034 
L 285.154503 175.739142 
L 285.398055 175.252053 
L 285.641607 174.892084 
L 285.803975 175.124458 
L 286.291078 176.562547 
L 286.453446 176.406239 
L 286.778182 175.87833 
L 286.94055 176.021814 
L 287.265285 176.529402 
L 287.427653 176.445475 
L 287.671205 176.185373 
L 287.833573 176.322206 
L 288.239493 177.079317 
L 288.40186 176.541004 
L 288.645412 174.317544 
L 289.132516 167.069666 
L 290.025539 153.227973 
L 290.431459 149.849432 
L 290.675011 149.121242 
L 290.837378 149.120982 
L 291.405666 149.587922 
L 291.568034 150.279599 
L 291.89277 153.268745 
L 294.409471 180.073422 
L 294.815391 181.53434 
L 294.896575 181.588222 
L 295.058943 181.284419 
L 295.62723 179.052652 
L 295.789598 179.160643 
L 296.03315 179.396589 
L 296.195518 179.24759 
L 296.601438 178.612897 
L 296.763805 178.707532 
L 297.656829 179.734066 
L 297.819197 179.719851 
L 298.3063 179.247071 
L 298.468668 179.48203 
L 298.874588 180.233527 
L 299.11814 180.173631 
L 299.442875 179.982205 
L 299.605243 179.304834 
L 299.767611 177.497662 
L 300.092347 170.002849 
L 301.716025 126.601019 
L 302.365497 114.674723 
L 302.771416 111.798379 
L 303.177336 109.713141 
L 303.25852 109.738808 
L 303.420888 110.569074 
L 303.826808 115.431723 
L 304.232727 121.778715 
L 304.638647 133.403461 
L 305.93759 174.181824 
L 306.34351 180.092327 
L 306.587061 181.609421 
L 306.749429 181.741569 
L 307.236533 180.939848 
L 307.723636 181.588316 
L 307.80482 181.518185 
L 308.129556 181.183332 
L 308.291924 181.329692 
L 308.535476 181.588416 
L 308.697844 181.403425 
L 309.103763 180.57315 
L 309.266131 180.796237 
L 309.590867 181.324882 
L 309.753235 181.012167 
L 310.565074 178.031831 
L 311.295729 172.380542 
L 311.620465 172.018555 
L 312.026385 170.946569 
L 312.107569 171.001274 
L 312.351121 171.831629 
L 312.594672 172.442812 
L 312.75704 172.112336 
L 313.568879 168.891874 
L 313.812431 168.671791 
L 313.974799 168.900194 
L 314.299535 170.218434 
L 314.949006 173.420735 
L 315.679662 179.10361 
L 316.004397 181.29463 
L 316.329133 183.513152 
L 316.410317 183.626166 
L 316.491501 183.499742 
L 316.735053 182.123722 
L 317.059789 180.516564 
L 317.628076 179.273022 
L 317.871628 178.847364 
L 318.033996 179.086735 
L 318.358732 179.669487 
L 318.521099 179.414424 
L 318.845835 178.820845 
L 319.008203 179.107779 
L 319.332939 179.768114 
L 319.495307 179.427222 
L 319.820042 178.405993 
L 319.901226 178.404134 
L 320.063594 178.758778 
L 320.307146 179.36437 
L 320.38833 179.366716 
L 320.550698 179.005352 
L 321.200169 176.268285 
L 321.443721 172.510489 
L 321.849641 160.6139 
L 322.905032 129.246983 
L 323.716871 111.749734 
L 324.122791 107.80256 
L 324.447526 106.266003 
L 324.52871 106.21058 
L 324.691078 106.715922 
L 324.93463 108.926961 
L 325.421734 116.003065 
L 325.827653 126.006103 
L 327.126596 162.079019 
L 327.694884 171.442143 
L 328.019619 174.658287 
L 328.181987 174.869063 
L 328.669091 173.664094 
L 328.750275 173.747419 
L 328.993827 174.063475 
L 329.156195 173.861844 
L 329.562114 172.808077 
L 329.724482 172.922398 
L 329.968034 173.150882 
L 330.130402 172.851067 
L 330.455137 171.875809 
L 330.536321 171.862562 
L 330.698689 172.222027 
L 331.023425 173.0316 
L 331.185793 172.739912 
L 331.75408 171.037902 
L 331.997632 170.605688 
L 332.322368 169.873503 
L 332.403552 169.891753 
L 332.56592 170.313922 
L 332.971839 171.701781 
L 333.134207 171.570283 
L 333.783679 170.231717 
L 334.02723 168.196487 
L 334.676702 161.398714 
L 335.163805 157.412737 
L 335.488541 155.588206 
L 335.813277 155.274318 
L 336.219197 154.774853 
L 336.381564 155.25678 
L 337.924059 163.868936 
L 338.492347 164.700085 
L 338.735899 165.211363 
L 338.898266 165.084103 
L 339.304186 164.413125 
L 339.710106 164.644395 
L 339.953658 164.004021 
L 340.197209 163.392037 
L 340.359577 163.402539 
L 340.603129 163.578695 
L 340.765497 163.334961 
L 341.171416 162.2304 
L 341.333784 162.309237 
L 341.577336 162.572772 
L 341.739704 162.37852 
L 342.145624 161.569681 
L 342.470359 161.714264 
L 342.632727 160.94193 
L 342.876279 157.750944 
L 343.363383 147.221629 
L 345.068245 105.454148 
L 345.311797 103.769961 
L 345.798901 102.481689 
L 345.880085 102.495713 
L 346.042452 103.135339 
L 346.367188 106.641812 
L 347.01666 116.147173 
L 348.47797 145.391597 
L 349.370994 155.693487 
L 349.452178 155.66772 
L 349.614545 154.800931 
L 349.939281 153.11966 
L 350.020465 153.194329 
L 350.345201 154.146995 
L 350.426385 154.09617 
L 350.669937 153.054061 
L 350.913488 152.297297 
L 351.075856 152.529265 
L 351.319408 152.933303 
L 351.481776 152.57622 
L 351.806512 151.584881 
L 351.968879 151.860742 
L 352.212431 152.543918 
L 352.293615 152.517092 
L 352.455983 151.916721 
L 352.780719 150.482456 
L 352.861903 150.505464 
L 353.186638 151.285558 
L 353.267822 151.209081 
L 353.511374 150.056571 
L 353.673742 149.489564 
L 353.754926 149.589853 
L 353.917294 150.676393 
L 354.323214 154.045731 
L 354.404397 154.084539 
L 354.647949 153.38153 
L 355.135053 152.057816 
L 355.378605 148.70019 
L 355.865708 141.462166 
L 356.190444 139.007272 
L 356.839915 131.726234 
L 357.083467 131.303071 
L 357.245835 130.258497 
L 357.651755 127.176233 
L 357.732939 127.303409 
L 358.138858 129.251732 
L 358.220042 129.120059 
L 358.544778 128.096359 
L 358.707146 129.096578 
L 359.194249 134.105179 
L 359.356617 134.043856 
L 359.437801 134.026293 
L 359.518985 134.254364 
L 359.681353 135.846752 
L 360.249641 143.576588 
L 360.412008 143.537915 
L 360.493192 143.513933 
L 360.65556 143.958459 
L 360.980296 145.424258 
L 361.06148 145.27509 
L 361.4674 142.881187 
L 361.548584 143.018916 
L 361.954503 145.328408 
L 362.116871 144.307598 
L 362.441607 141.530841 
L 362.522791 141.770234 
L 362.92871 145.229087 
L 363.091078 143.952109 
L 363.415814 140.19472 
L 363.496998 140.480281 
L 363.902918 145.356149 
L 363.984101 144.937317 
L 364.227653 140.079547 
L 364.471205 136.388113 
L 364.552389 136.346501 
L 364.714757 136.91609 
L 364.795941 136.713098 
L 364.958309 133.72496 
L 365.445412 118.001756 
L 365.526596 118.1103 
L 365.770148 120.18442 
L 365.851332 119.511076 
L 366.0137 114.345049 
L 366.338436 102.062979 
L 366.419619 102.591995 
L 366.663171 112.724629 
L 366.825539 116.929475 
L 366.906723 115.342388 
L 367.312643 90.574823 
L 367.393827 94.236726 
L 367.556195 122.143985 
L 368.205666 295.488 
L 368.28685 293.890063 
L 368.855137 253.148124 
L 369.098689 256.804998 
L 369.179873 255.705755 
L 369.342241 247.223848 
L 369.829345 212.967694 
L 370.235264 198.277838 
L 370.96592 155.739553 
L 371.371839 143.484603 
L 371.615391 137.669654 
L 371.696575 137.425293 
L 371.858943 139.146269 
L 372.102495 142.184238 
L 372.183679 142.133541 
L 372.346047 140.344871 
L 372.589598 137.424172 
L 372.670782 137.387858 
L 372.83315 138.818074 
L 373.076702 141.282797 
L 373.157886 141.317765 
L 373.320254 140.124262 
L 373.563805 138.173847 
L 373.644989 138.229415 
L 373.888541 140.227537 
L 374.050909 141.214433 
L 374.132093 141.154872 
L 374.375645 139.395417 
L 374.538013 138.638595 
L 374.619197 138.781014 
L 375.025116 141.431435 
L 375.1063 141.40401 
L 375.349852 140.685605 
L 375.431036 140.909725 
L 375.593404 143.094223 
L 375.91814 153.660937 
L 376.648795 184.60089 
L 377.298266 214.752832 
L 378.110106 240.982751 
L 378.597209 247.530309 
L 378.759577 248.657045 
L 378.840761 248.642855 
L 379.003129 247.232862 
L 379.409049 239.196688 
L 379.814968 229.620324 
L 380.302072 209.626305 
L 381.682199 155.213487 
L 382.250486 142.560029 
L 382.412854 141.832527 
L 382.575222 142.208213 
L 382.818774 142.661939 
L 382.981142 142.230871 
L 383.224693 141.60524 
L 383.305877 141.696345 
L 383.792981 143.242907 
L 384.036533 142.642172 
L 384.198901 142.447674 
L 384.361268 142.844974 
L 384.686004 143.93585 
L 384.767188 143.919072 
L 385.173108 143.303443 
L 385.41666 143.992421 
L 385.660211 144.441237 
L 385.822579 144.435983 
L 385.903763 144.609463 
L 386.066131 146.036197 
L 386.309683 152.289142 
L 386.796786 174.927523 
L 388.826385 272.672909 
L 389.313488 282.361996 
L 389.475856 283.17642 
L 389.55704 282.955397 
L 389.800592 280.497916 
L 390.206512 273.923136 
L 390.531247 264.384268 
L 391.343087 227.915473 
L 392.723214 157.031201 
L 392.966765 152.304507 
L 393.129133 151.654541 
L 393.291501 151.502473 
L 393.535053 150.677919 
L 393.697421 150.302528 
L 393.778605 150.434208 
L 394.022156 151.987001 
L 394.265708 152.958988 
L 394.428076 152.35765 
L 394.671628 151.369946 
L 394.752812 151.523005 
L 395.158732 154.108771 
L 395.239915 154.033653 
L 395.645835 152.014411 
L 395.808203 153.154371 
L 396.132939 156.034386 
L 396.214123 155.766801 
L 396.538858 152.663079 
L 396.620042 152.706275 
L 396.78241 154.692271 
L 397.107146 159.345938 
L 397.18833 159.093164 
L 397.431882 157.652295 
L 397.513066 158.943805 
L 397.675433 167.179149 
L 398.081353 199.208148 
L 398.162537 198.495818 
L 398.324905 182.895585 
L 398.487273 151.44097 
L 398.487273 151.44097 
" style="fill:none;stroke:#1f77b4;stroke-linecap:square;stroke-width:1.5;"/>
   </g>
   <g id="patch_3">
    <path d="M 57.6 307.584 
L 57.6 41.472 
" style="fill:none;stroke:#000000;stroke-linecap:square;stroke-linejoin:miter;stroke-width:0.8;"/>
   </g>
   <g id="patch_4">
    <path d="M 414.72 307.584 
L 414.72 41.472 
" style="fill:none;stroke:#000000;stroke-linecap:square;stroke-linejoin:miter;stroke-width:0.8;"/>
   </g>
   <g id="patch_5">
    <path d="M 57.6 307.584 
L 414.72 307.584 
" style="fill:none;stroke:#000000;stroke-linecap:square;stroke-linejoin:miter;stroke-width:0.8;"/>
   </g>
   <g id="patch_6">
    <path d="M 57.6 41.472 
L 414.72 41.472 
" style="fill:none;stroke:#000000;stroke-linecap:square;stroke-linejoin:miter;stroke-width:0.8;"/>
   </g>
   <g id="text_16">
    <!-- demodulated data -->
    <g transform="translate(180.913125 35.472)scale(0.12 -0.12)">
     <defs>
      <path d="M 2906 2969 
L 2906 4863 
L 3481 4863 
L 3481 0 
L 2906 0 
L 2906 525 
Q 2725 213 2448 61 
Q 2172 -91 1784 -91 
Q 1150 -91 751 415 
Q 353 922 353 1747 
Q 353 2572 751 3078 
Q 1150 3584 1784 3584 
Q 2172 3584 2448 3432 
Q 2725 3281 2906 2969 
z
M 947 1747 
Q 947 1113 1208 752 
Q 1469 391 1925 391 
Q 2381 391 2643 752 
Q 2906 1113 2906 1747 
Q 2906 2381 2643 2742 
Q 2381 3103 1925 3103 
Q 1469 3103 1208 2742 
Q 947 2381 947 1747 
z
" id="DejaVuSans-64" transform="scale(0.015625)"/>
      <path d="M 1959 3097 
Q 1497 3097 1228 2736 
Q 959 2375 959 1747 
Q 959 1119 1226 758 
Q 1494 397 1959 397 
Q 2419 397 2687 759 
Q 2956 1122 2956 1747 
Q 2956 2369 2687 2733 
Q 2419 3097 1959 3097 
z
M 1959 3584 
Q 2709 3584 3137 3096 
Q 3566 2609 3566 1747 
Q 3566 888 3137 398 
Q 2709 -91 1959 -91 
Q 1206 -91 779 398 
Q 353 888 353 1747 
Q 353 2609 779 3096 
Q 1206 3584 1959 3584 
z
" id="DejaVuSans-6f" transform="scale(0.015625)"/>
      <path d="M 544 1381 
L 544 3500 
L 1119 3500 
L 1119 1403 
Q 1119 906 1312 657 
Q 1506 409 1894 409 
Q 2359 409 2629 706 
Q 2900 1003 2900 1516 
L 2900 3500 
L 3475 3500 
L 3475 0 
L 2900 0 
L 2900 538 
Q 2691 219 2414 64 
Q 2138 -91 1772 -91 
Q 1169 -91 856 284 
Q 544 659 544 1381 
z
M 1991 3584 
L 1991 3584 
z
" id="DejaVuSans-75" transform="scale(0.015625)"/>
      <path d="M 603 4863 
L 1178 4863 
L 1178 0 
L 603 0 
L 603 4863 
z
" id="DejaVuSans-6c" transform="scale(0.015625)"/>
      <path d="M 2194 1759 
Q 1497 1759 1228 1600 
Q 959 1441 959 1056 
Q 959 750 1161 570 
Q 1363 391 1709 391 
Q 2188 391 2477 730 
Q 2766 1069 2766 1631 
L 2766 1759 
L 2194 1759 
z
M 3341 1997 
L 3341 0 
L 2766 0 
L 2766 531 
Q 2569 213 2275 61 
Q 1981 -91 1556 -91 
Q 1019 -91 701 211 
Q 384 513 384 1019 
Q 384 1609 779 1909 
Q 1175 2209 1959 2209 
L 2766 2209 
L 2766 2266 
Q 2766 2663 2505 2880 
Q 2244 3097 1772 3097 
Q 1472 3097 1187 3025 
Q 903 2953 641 2809 
L 641 3341 
Q 956 3463 1253 3523 
Q 1550 3584 1831 3584 
Q 2591 3584 2966 3190 
Q 3341 2797 3341 1997 
z
" id="DejaVuSans-61" transform="scale(0.015625)"/>
     </defs>
     <use xlink:href="#DejaVuSans-64"/>
     <use x="63.476562" xlink:href="#DejaVuSans-65"/>
     <use x="125" xlink:href="#DejaVuSans-6d"/>
     <use x="222.412109" xlink:href="#DejaVuSans-6f"/>
     <use x="283.59375" xlink:href="#DejaVuSans-64"/>
     <use x="347.070312" xlink:href="#DejaVuSans-75"/>
     <use x="410.449219" xlink:href="#DejaVuSans-6c"/>
     <use x="438.232422" xlink:href="#DejaVuSans-61"/>
     <use x="499.511719" xlink:href="#DejaVuSans-74"/>
     <use x="538.720703" xlink:href="#DejaVuSans-65"/>
     <use x="600.244141" xlink:href="#DejaVuSans-64"/>
     <use x="663.720703" xlink:href="#DejaVuSans-20"/>
     <use x="695.507812" xlink:href="#DejaVuSans-64"/>
     <use x="758.984375" xlink:href="#DejaVuSans-61"/>
     <use x="820.263672" xlink:href="#DejaVuSans-74"/>
     <use x="859.472656" xlink:href="#DejaVuSans-61"/>
    </g>
   </g>
  </g>
 </g>
 <defs>
  <clipPath id="pb1b14154f5">
   <rect height="266.112" width="357.12" x="57.6" y="41.472"/>
  </clipPath>
 </defs>
</svg>
