<?xml version="1.0" encoding="utf-8" standalone="no"?>
<!DOCTYPE svg PUBLIC "-//W3C//DTD SVG 1.1//EN"
  "http://www.w3.org/Graphics/SVG/1.1/DTD/svg11.dtd">
<svg height="345.6pt" version="1.1" viewBox="0 0 460.8 345.6" width="460.8pt" xmlns="http://www.w3.org/2000/svg" xmlns:xlink="http://www.w3.org/1999/xlink">
 <metadata>
  <rdf:RDF xmlns:cc="http://creativecommons.org/ns#" xmlns:dc="http://purl.org/dc/elements/1.1/" xmlns:rdf="http://www.w3.org/1999/02/22-rdf-syntax-ns#">
   <cc:Work>
    <dc:type rdf:resource="http://purl.org/dc/dcmitype/StillImage"/>
    <dc:date>2021-12-13T12:13:03.857743</dc:date>
    <dc:format>image/svg+xml</dc:format>
    <dc:creator>
     <cc:Agent>
      <dc:title>Matplotlib v3.4.3, https://matplotlib.org/</dc:title>
     </cc:Agent>
    </dc:creator>
   </cc:Work>
  </rdf:RDF>
 </metadata>
 <defs>
  <style type="text/css">*{stroke-linecap:butt;stroke-linejoin:round;}</style>
 </defs>
 <g id="figure_1">
  <g id="patch_1">
   <path d="M 0 345.6 
L 460.8 345.6 
L 460.8 0 
L 0 0 
z
" style="fill:#ffffff;"/>
  </g>
  <g id="axes_1">
   <g id="patch_2">
    <path d="M 57.6 307.584 
L 414.72 307.584 
L 414.72 41.472 
L 57.6 41.472 
z
" style="fill:#ffffff;"/>
   </g>
   <g id="matplotlib.axis_1">
    <g id="xtick_1">
     <g id="line2d_1">
      <defs>
       <path d="M 0 0 
L 0 3.5 
" id="m438403e18c" style="stroke:#000000;stroke-width:0.8;"/>
      </defs>
      <g>
       <use style="stroke:#000000;stroke-width:0.8;" x="73.832727" xlink:href="#m438403e18c" y="307.584"/>
      </g>
     </g>
     <g id="text_1">
      <!-- −10000 -->
      <g transform="translate(53.736634 322.182437)scale(0.1 -0.1)">
       <defs>
        <path d="M 678 2272 
L 4684 2272 
L 4684 1741 
L 678 1741 
L 678 2272 
z
" id="DejaVuSans-2212" transform="scale(0.015625)"/>
        <path d="M 794 531 
L 1825 531 
L 1825 4091 
L 703 3866 
L 703 4441 
L 1819 4666 
L 2450 4666 
L 2450 531 
L 3481 531 
L 3481 0 
L 794 0 
L 794 531 
z
" id="DejaVuSans-31" transform="scale(0.015625)"/>
        <path d="M 2034 4250 
Q 1547 4250 1301 3770 
Q 1056 3291 1056 2328 
Q 1056 1369 1301 889 
Q 1547 409 2034 409 
Q 2525 409 2770 889 
Q 3016 1369 3016 2328 
Q 3016 3291 2770 3770 
Q 2525 4250 2034 4250 
z
M 2034 4750 
Q 2819 4750 3233 4129 
Q 3647 3509 3647 2328 
Q 3647 1150 3233 529 
Q 2819 -91 2034 -91 
Q 1250 -91 836 529 
Q 422 1150 422 2328 
Q 422 3509 836 4129 
Q 1250 4750 2034 4750 
z
" id="DejaVuSans-30" transform="scale(0.015625)"/>
       </defs>
       <use xlink:href="#DejaVuSans-2212"/>
       <use x="83.789062" xlink:href="#DejaVuSans-31"/>
       <use x="147.412109" xlink:href="#DejaVuSans-30"/>
       <use x="211.035156" xlink:href="#DejaVuSans-30"/>
       <use x="274.658203" xlink:href="#DejaVuSans-30"/>
       <use x="338.28125" xlink:href="#DejaVuSans-30"/>
      </g>
     </g>
    </g>
    <g id="xtick_2">
     <g id="line2d_2">
      <g>
       <use style="stroke:#000000;stroke-width:0.8;" x="114.424693" xlink:href="#m438403e18c" y="307.584"/>
      </g>
     </g>
     <g id="text_2">
      <!-- −7500 -->
      <g transform="translate(97.50985 322.182437)scale(0.1 -0.1)">
       <defs>
        <path d="M 525 4666 
L 3525 4666 
L 3525 4397 
L 1831 0 
L 1172 0 
L 2766 4134 
L 525 4134 
L 525 4666 
z
" id="DejaVuSans-37" transform="scale(0.015625)"/>
        <path d="M 691 4666 
L 3169 4666 
L 3169 4134 
L 1269 4134 
L 1269 2991 
Q 1406 3038 1543 3061 
Q 1681 3084 1819 3084 
Q 2600 3084 3056 2656 
Q 3513 2228 3513 1497 
Q 3513 744 3044 326 
Q 2575 -91 1722 -91 
Q 1428 -91 1123 -41 
Q 819 9 494 109 
L 494 744 
Q 775 591 1075 516 
Q 1375 441 1709 441 
Q 2250 441 2565 725 
Q 2881 1009 2881 1497 
Q 2881 1984 2565 2268 
Q 2250 2553 1709 2553 
Q 1456 2553 1204 2497 
Q 953 2441 691 2322 
L 691 4666 
z
" id="DejaVuSans-35" transform="scale(0.015625)"/>
       </defs>
       <use xlink:href="#DejaVuSans-2212"/>
       <use x="83.789062" xlink:href="#DejaVuSans-37"/>
       <use x="147.412109" xlink:href="#DejaVuSans-35"/>
       <use x="211.035156" xlink:href="#DejaVuSans-30"/>
       <use x="274.658203" xlink:href="#DejaVuSans-30"/>
      </g>
     </g>
    </g>
    <g id="xtick_3">
     <g id="line2d_3">
      <g>
       <use style="stroke:#000000;stroke-width:0.8;" x="155.01666" xlink:href="#m438403e18c" y="307.584"/>
      </g>
     </g>
     <g id="text_3">
      <!-- −5000 -->
      <g transform="translate(138.101816 322.182437)scale(0.1 -0.1)">
       <use xlink:href="#DejaVuSans-2212"/>
       <use x="83.789062" xlink:href="#DejaVuSans-35"/>
       <use x="147.412109" xlink:href="#DejaVuSans-30"/>
       <use x="211.035156" xlink:href="#DejaVuSans-30"/>
       <use x="274.658203" xlink:href="#DejaVuSans-30"/>
      </g>
     </g>
    </g>
    <g id="xtick_4">
     <g id="line2d_4">
      <g>
       <use style="stroke:#000000;stroke-width:0.8;" x="195.608626" xlink:href="#m438403e18c" y="307.584"/>
      </g>
     </g>
     <g id="text_4">
      <!-- −2500 -->
      <g transform="translate(178.693782 322.182437)scale(0.1 -0.1)">
       <defs>
        <path d="M 1228 531 
L 3431 531 
L 3431 0 
L 469 0 
L 469 531 
Q 828 903 1448 1529 
Q 2069 2156 2228 2338 
Q 2531 2678 2651 2914 
Q 2772 3150 2772 3378 
Q 2772 3750 2511 3984 
Q 2250 4219 1831 4219 
Q 1534 4219 1204 4116 
Q 875 4013 500 3803 
L 500 4441 
Q 881 4594 1212 4672 
Q 1544 4750 1819 4750 
Q 2544 4750 2975 4387 
Q 3406 4025 3406 3419 
Q 3406 3131 3298 2873 
Q 3191 2616 2906 2266 
Q 2828 2175 2409 1742 
Q 1991 1309 1228 531 
z
" id="DejaVuSans-32" transform="scale(0.015625)"/>
       </defs>
       <use xlink:href="#DejaVuSans-2212"/>
       <use x="83.789062" xlink:href="#DejaVuSans-32"/>
       <use x="147.412109" xlink:href="#DejaVuSans-35"/>
       <use x="211.035156" xlink:href="#DejaVuSans-30"/>
       <use x="274.658203" xlink:href="#DejaVuSans-30"/>
      </g>
     </g>
    </g>
    <g id="xtick_5">
     <g id="line2d_5">
      <g>
       <use style="stroke:#000000;stroke-width:0.8;" x="236.200592" xlink:href="#m438403e18c" y="307.584"/>
      </g>
     </g>
     <g id="text_5">
      <!-- 0 -->
      <g transform="translate(233.019342 322.182437)scale(0.1 -0.1)">
       <use xlink:href="#DejaVuSans-30"/>
      </g>
     </g>
    </g>
    <g id="xtick_6">
     <g id="line2d_6">
      <g>
       <use style="stroke:#000000;stroke-width:0.8;" x="276.792558" xlink:href="#m438403e18c" y="307.584"/>
      </g>
     </g>
     <g id="text_6">
      <!-- 2500 -->
      <g transform="translate(264.067558 322.182437)scale(0.1 -0.1)">
       <use xlink:href="#DejaVuSans-32"/>
       <use x="63.623047" xlink:href="#DejaVuSans-35"/>
       <use x="127.246094" xlink:href="#DejaVuSans-30"/>
       <use x="190.869141" xlink:href="#DejaVuSans-30"/>
      </g>
     </g>
    </g>
    <g id="xtick_7">
     <g id="line2d_7">
      <g>
       <use style="stroke:#000000;stroke-width:0.8;" x="317.384524" xlink:href="#m438403e18c" y="307.584"/>
      </g>
     </g>
     <g id="text_7">
      <!-- 5000 -->
      <g transform="translate(304.659524 322.182437)scale(0.1 -0.1)">
       <use xlink:href="#DejaVuSans-35"/>
       <use x="63.623047" xlink:href="#DejaVuSans-30"/>
       <use x="127.246094" xlink:href="#DejaVuSans-30"/>
       <use x="190.869141" xlink:href="#DejaVuSans-30"/>
      </g>
     </g>
    </g>
    <g id="xtick_8">
     <g id="line2d_8">
      <g>
       <use style="stroke:#000000;stroke-width:0.8;" x="357.97649" xlink:href="#m438403e18c" y="307.584"/>
      </g>
     </g>
     <g id="text_8">
      <!-- 7500 -->
      <g transform="translate(345.25149 322.182437)scale(0.1 -0.1)">
       <use xlink:href="#DejaVuSans-37"/>
       <use x="63.623047" xlink:href="#DejaVuSans-35"/>
       <use x="127.246094" xlink:href="#DejaVuSans-30"/>
       <use x="190.869141" xlink:href="#DejaVuSans-30"/>
      </g>
     </g>
    </g>
    <g id="xtick_9">
     <g id="line2d_9">
      <g>
       <use style="stroke:#000000;stroke-width:0.8;" x="398.568457" xlink:href="#m438403e18c" y="307.584"/>
      </g>
     </g>
     <g id="text_9">
      <!-- 10000 -->
      <g transform="translate(382.662207 322.182437)scale(0.1 -0.1)">
       <use xlink:href="#DejaVuSans-31"/>
       <use x="63.623047" xlink:href="#DejaVuSans-30"/>
       <use x="127.246094" xlink:href="#DejaVuSans-30"/>
       <use x="190.869141" xlink:href="#DejaVuSans-30"/>
       <use x="254.492188" xlink:href="#DejaVuSans-30"/>
      </g>
     </g>
    </g>
    <g id="text_10">
     <!-- frequency $\left[Hz\right]$ -->
     <g transform="translate(199.06 335.862125)scale(0.1 -0.1)">
      <defs>
       <path d="M 2375 4863 
L 2375 4384 
L 1825 4384 
Q 1516 4384 1395 4259 
Q 1275 4134 1275 3809 
L 1275 3500 
L 2222 3500 
L 2222 3053 
L 1275 3053 
L 1275 0 
L 697 0 
L 697 3053 
L 147 3053 
L 147 3500 
L 697 3500 
L 697 3744 
Q 697 4328 969 4595 
Q 1241 4863 1831 4863 
L 2375 4863 
z
" id="DejaVuSans-66" transform="scale(0.015625)"/>
       <path d="M 2631 2963 
Q 2534 3019 2420 3045 
Q 2306 3072 2169 3072 
Q 1681 3072 1420 2755 
Q 1159 2438 1159 1844 
L 1159 0 
L 581 0 
L 581 3500 
L 1159 3500 
L 1159 2956 
Q 1341 3275 1631 3429 
Q 1922 3584 2338 3584 
Q 2397 3584 2469 3576 
Q 2541 3569 2628 3553 
L 2631 2963 
z
" id="DejaVuSans-72" transform="scale(0.015625)"/>
       <path d="M 3597 1894 
L 3597 1613 
L 953 1613 
Q 991 1019 1311 708 
Q 1631 397 2203 397 
Q 2534 397 2845 478 
Q 3156 559 3463 722 
L 3463 178 
Q 3153 47 2828 -22 
Q 2503 -91 2169 -91 
Q 1331 -91 842 396 
Q 353 884 353 1716 
Q 353 2575 817 3079 
Q 1281 3584 2069 3584 
Q 2775 3584 3186 3129 
Q 3597 2675 3597 1894 
z
M 3022 2063 
Q 3016 2534 2758 2815 
Q 2500 3097 2075 3097 
Q 1594 3097 1305 2825 
Q 1016 2553 972 2059 
L 3022 2063 
z
" id="DejaVuSans-65" transform="scale(0.015625)"/>
       <path d="M 947 1747 
Q 947 1113 1208 752 
Q 1469 391 1925 391 
Q 2381 391 2643 752 
Q 2906 1113 2906 1747 
Q 2906 2381 2643 2742 
Q 2381 3103 1925 3103 
Q 1469 3103 1208 2742 
Q 947 2381 947 1747 
z
M 2906 525 
Q 2725 213 2448 61 
Q 2172 -91 1784 -91 
Q 1150 -91 751 415 
Q 353 922 353 1747 
Q 353 2572 751 3078 
Q 1150 3584 1784 3584 
Q 2172 3584 2448 3432 
Q 2725 3281 2906 2969 
L 2906 3500 
L 3481 3500 
L 3481 -1331 
L 2906 -1331 
L 2906 525 
z
" id="DejaVuSans-71" transform="scale(0.015625)"/>
       <path d="M 544 1381 
L 544 3500 
L 1119 3500 
L 1119 1403 
Q 1119 906 1312 657 
Q 1506 409 1894 409 
Q 2359 409 2629 706 
Q 2900 1003 2900 1516 
L 2900 3500 
L 3475 3500 
L 3475 0 
L 2900 0 
L 2900 538 
Q 2691 219 2414 64 
Q 2138 -91 1772 -91 
Q 1169 -91 856 284 
Q 544 659 544 1381 
z
M 1991 3584 
L 1991 3584 
z
" id="DejaVuSans-75" transform="scale(0.015625)"/>
       <path d="M 3513 2113 
L 3513 0 
L 2938 0 
L 2938 2094 
Q 2938 2591 2744 2837 
Q 2550 3084 2163 3084 
Q 1697 3084 1428 2787 
Q 1159 2491 1159 1978 
L 1159 0 
L 581 0 
L 581 3500 
L 1159 3500 
L 1159 2956 
Q 1366 3272 1645 3428 
Q 1925 3584 2291 3584 
Q 2894 3584 3203 3211 
Q 3513 2838 3513 2113 
z
" id="DejaVuSans-6e" transform="scale(0.015625)"/>
       <path d="M 3122 3366 
L 3122 2828 
Q 2878 2963 2633 3030 
Q 2388 3097 2138 3097 
Q 1578 3097 1268 2742 
Q 959 2388 959 1747 
Q 959 1106 1268 751 
Q 1578 397 2138 397 
Q 2388 397 2633 464 
Q 2878 531 3122 666 
L 3122 134 
Q 2881 22 2623 -34 
Q 2366 -91 2075 -91 
Q 1284 -91 818 406 
Q 353 903 353 1747 
Q 353 2603 823 3093 
Q 1294 3584 2113 3584 
Q 2378 3584 2631 3529 
Q 2884 3475 3122 3366 
z
" id="DejaVuSans-63" transform="scale(0.015625)"/>
       <path d="M 2059 -325 
Q 1816 -950 1584 -1140 
Q 1353 -1331 966 -1331 
L 506 -1331 
L 506 -850 
L 844 -850 
Q 1081 -850 1212 -737 
Q 1344 -625 1503 -206 
L 1606 56 
L 191 3500 
L 800 3500 
L 1894 763 
L 2988 3500 
L 3597 3500 
L 2059 -325 
z
" id="DejaVuSans-79" transform="scale(0.015625)"/>
       <path id="DejaVuSans-20" transform="scale(0.015625)"/>
       <path d="M 550 4863 
L 1875 4863 
L 1875 4416 
L 1125 4416 
L 1125 -397 
L 1875 -397 
L 1875 -844 
L 550 -844 
L 550 4863 
z
" id="DejaVuSans-5b" transform="scale(0.015625)"/>
       <path d="M 1081 4666 
L 1716 4666 
L 1344 2753 
L 3634 2753 
L 4006 4666 
L 4641 4666 
L 3731 0 
L 3097 0 
L 3531 2222 
L 1241 2222 
L 806 0 
L 172 0 
L 1081 4666 
z
" id="DejaVuSans-Oblique-48" transform="scale(0.015625)"/>
       <path d="M 744 3500 
L 3475 3500 
L 3372 2975 
L 738 459 
L 2913 459 
L 2822 0 
L -19 0 
L 84 525 
L 2719 3041 
L 653 3041 
L 744 3500 
z
" id="DejaVuSans-Oblique-7a" transform="scale(0.015625)"/>
       <path d="M 1947 4863 
L 1947 -844 
L 622 -844 
L 622 -397 
L 1369 -397 
L 1369 4416 
L 622 4416 
L 622 4863 
L 1947 4863 
z
" id="DejaVuSans-5d" transform="scale(0.015625)"/>
      </defs>
      <use transform="translate(0 0.015625)" xlink:href="#DejaVuSans-66"/>
      <use transform="translate(35.205078 0.015625)" xlink:href="#DejaVuSans-72"/>
      <use transform="translate(76.318359 0.015625)" xlink:href="#DejaVuSans-65"/>
      <use transform="translate(137.841797 0.015625)" xlink:href="#DejaVuSans-71"/>
      <use transform="translate(201.318359 0.015625)" xlink:href="#DejaVuSans-75"/>
      <use transform="translate(264.697266 0.015625)" xlink:href="#DejaVuSans-65"/>
      <use transform="translate(326.220703 0.015625)" xlink:href="#DejaVuSans-6e"/>
      <use transform="translate(389.599609 0.015625)" xlink:href="#DejaVuSans-63"/>
      <use transform="translate(444.580078 0.015625)" xlink:href="#DejaVuSans-79"/>
      <use transform="translate(503.759766 0.015625)" xlink:href="#DejaVuSans-20"/>
      <use transform="translate(535.546875 0.015625)" xlink:href="#DejaVuSans-5b"/>
      <use transform="translate(574.560547 0.015625)" xlink:href="#DejaVuSans-Oblique-48"/>
      <use transform="translate(649.755859 0.015625)" xlink:href="#DejaVuSans-Oblique-7a"/>
      <use transform="translate(702.246094 0.015625)" xlink:href="#DejaVuSans-5d"/>
     </g>
    </g>
   </g>
   <g id="matplotlib.axis_2">
    <g id="ytick_1">
     <g id="line2d_10">
      <defs>
       <path d="M 0 0 
L -3.5 0 
" id="m239e85dd1e" style="stroke:#000000;stroke-width:0.8;"/>
      </defs>
      <g>
       <use style="stroke:#000000;stroke-width:0.8;" x="57.6" xlink:href="#m239e85dd1e" y="279.543854"/>
      </g>
     </g>
     <g id="text_11">
      <!-- $\mathdefault{10^{-5}}$ -->
      <g transform="translate(27.1 283.343072)scale(0.1 -0.1)">
       <use transform="translate(0 0.684375)" xlink:href="#DejaVuSans-31"/>
       <use transform="translate(63.623047 0.684375)" xlink:href="#DejaVuSans-30"/>
       <use transform="translate(128.203125 38.965625)scale(0.7)" xlink:href="#DejaVuSans-2212"/>
       <use transform="translate(186.855469 38.965625)scale(0.7)" xlink:href="#DejaVuSans-35"/>
      </g>
     </g>
    </g>
    <g id="ytick_2">
     <g id="line2d_11">
      <g>
       <use style="stroke:#000000;stroke-width:0.8;" x="57.6" xlink:href="#m239e85dd1e" y="223.538711"/>
      </g>
     </g>
     <g id="text_12">
      <!-- $\mathdefault{10^{-4}}$ -->
      <g transform="translate(27.1 227.337929)scale(0.1 -0.1)">
       <defs>
        <path d="M 2419 4116 
L 825 1625 
L 2419 1625 
L 2419 4116 
z
M 2253 4666 
L 3047 4666 
L 3047 1625 
L 3713 1625 
L 3713 1100 
L 3047 1100 
L 3047 0 
L 2419 0 
L 2419 1100 
L 313 1100 
L 313 1709 
L 2253 4666 
z
" id="DejaVuSans-34" transform="scale(0.015625)"/>
       </defs>
       <use transform="translate(0 0.684375)" xlink:href="#DejaVuSans-31"/>
       <use transform="translate(63.623047 0.684375)" xlink:href="#DejaVuSans-30"/>
       <use transform="translate(128.203125 38.965625)scale(0.7)" xlink:href="#DejaVuSans-2212"/>
       <use transform="translate(186.855469 38.965625)scale(0.7)" xlink:href="#DejaVuSans-34"/>
      </g>
     </g>
    </g>
    <g id="ytick_3">
     <g id="line2d_12">
      <g>
       <use style="stroke:#000000;stroke-width:0.8;" x="57.6" xlink:href="#m239e85dd1e" y="167.533568"/>
      </g>
     </g>
     <g id="text_13">
      <!-- $\mathdefault{10^{-3}}$ -->
      <g transform="translate(27.1 171.332786)scale(0.1 -0.1)">
       <defs>
        <path d="M 2597 2516 
Q 3050 2419 3304 2112 
Q 3559 1806 3559 1356 
Q 3559 666 3084 287 
Q 2609 -91 1734 -91 
Q 1441 -91 1130 -33 
Q 819 25 488 141 
L 488 750 
Q 750 597 1062 519 
Q 1375 441 1716 441 
Q 2309 441 2620 675 
Q 2931 909 2931 1356 
Q 2931 1769 2642 2001 
Q 2353 2234 1838 2234 
L 1294 2234 
L 1294 2753 
L 1863 2753 
Q 2328 2753 2575 2939 
Q 2822 3125 2822 3475 
Q 2822 3834 2567 4026 
Q 2313 4219 1838 4219 
Q 1578 4219 1281 4162 
Q 984 4106 628 3988 
L 628 4550 
Q 988 4650 1302 4700 
Q 1616 4750 1894 4750 
Q 2613 4750 3031 4423 
Q 3450 4097 3450 3541 
Q 3450 3153 3228 2886 
Q 3006 2619 2597 2516 
z
" id="DejaVuSans-33" transform="scale(0.015625)"/>
       </defs>
       <use transform="translate(0 0.765625)" xlink:href="#DejaVuSans-31"/>
       <use transform="translate(63.623047 0.765625)" xlink:href="#DejaVuSans-30"/>
       <use transform="translate(128.203125 39.046875)scale(0.7)" xlink:href="#DejaVuSans-2212"/>
       <use transform="translate(186.855469 39.046875)scale(0.7)" xlink:href="#DejaVuSans-33"/>
      </g>
     </g>
    </g>
    <g id="ytick_4">
     <g id="line2d_13">
      <g>
       <use style="stroke:#000000;stroke-width:0.8;" x="57.6" xlink:href="#m239e85dd1e" y="111.528425"/>
      </g>
     </g>
     <g id="text_14">
      <!-- $\mathdefault{10^{-2}}$ -->
      <g transform="translate(27.1 115.327643)scale(0.1 -0.1)">
       <use transform="translate(0 0.765625)" xlink:href="#DejaVuSans-31"/>
       <use transform="translate(63.623047 0.765625)" xlink:href="#DejaVuSans-30"/>
       <use transform="translate(128.203125 39.046875)scale(0.7)" xlink:href="#DejaVuSans-2212"/>
       <use transform="translate(186.855469 39.046875)scale(0.7)" xlink:href="#DejaVuSans-32"/>
      </g>
     </g>
    </g>
    <g id="ytick_5">
     <g id="line2d_14">
      <g>
       <use style="stroke:#000000;stroke-width:0.8;" x="57.6" xlink:href="#m239e85dd1e" y="55.523282"/>
      </g>
     </g>
     <g id="text_15">
      <!-- $\mathdefault{10^{-1}}$ -->
      <g transform="translate(27.1 59.3225)scale(0.1 -0.1)">
       <use transform="translate(0 0.684375)" xlink:href="#DejaVuSans-31"/>
       <use transform="translate(63.623047 0.684375)" xlink:href="#DejaVuSans-30"/>
       <use transform="translate(128.203125 38.965625)scale(0.7)" xlink:href="#DejaVuSans-2212"/>
       <use transform="translate(186.855469 38.965625)scale(0.7)" xlink:href="#DejaVuSans-31"/>
      </g>
     </g>
    </g>
    <g id="ytick_6">
     <g id="line2d_15">
      <defs>
       <path d="M 0 0 
L -2 0 
" id="m3ef60605bf" style="stroke:#000000;stroke-width:0.6;"/>
      </defs>
      <g>
       <use style="stroke:#000000;stroke-width:0.6;" x="57.6" xlink:href="#m3ef60605bf" y="301.830541"/>
      </g>
     </g>
    </g>
    <g id="ytick_7">
     <g id="line2d_16">
      <g>
       <use style="stroke:#000000;stroke-width:0.6;" x="57.6" xlink:href="#m3ef60605bf" y="296.403081"/>
      </g>
     </g>
    </g>
    <g id="ytick_8">
     <g id="line2d_17">
      <g>
       <use style="stroke:#000000;stroke-width:0.6;" x="57.6" xlink:href="#m3ef60605bf" y="291.968524"/>
      </g>
     </g>
    </g>
    <g id="ytick_9">
     <g id="line2d_18">
      <g>
       <use style="stroke:#000000;stroke-width:0.6;" x="57.6" xlink:href="#m3ef60605bf" y="288.21916"/>
      </g>
     </g>
    </g>
    <g id="ytick_10">
     <g id="line2d_19">
      <g>
       <use style="stroke:#000000;stroke-width:0.6;" x="57.6" xlink:href="#m3ef60605bf" y="284.971313"/>
      </g>
     </g>
    </g>
    <g id="ytick_11">
     <g id="line2d_20">
      <g>
       <use style="stroke:#000000;stroke-width:0.6;" x="57.6" xlink:href="#m3ef60605bf" y="282.106508"/>
      </g>
     </g>
    </g>
    <g id="ytick_12">
     <g id="line2d_21">
      <g>
       <use style="stroke:#000000;stroke-width:0.6;" x="57.6" xlink:href="#m3ef60605bf" y="262.684626"/>
      </g>
     </g>
    </g>
    <g id="ytick_13">
     <g id="line2d_22">
      <g>
       <use style="stroke:#000000;stroke-width:0.6;" x="57.6" xlink:href="#m3ef60605bf" y="252.822609"/>
      </g>
     </g>
    </g>
    <g id="ytick_14">
     <g id="line2d_23">
      <g>
       <use style="stroke:#000000;stroke-width:0.6;" x="57.6" xlink:href="#m3ef60605bf" y="245.825398"/>
      </g>
     </g>
    </g>
    <g id="ytick_15">
     <g id="line2d_24">
      <g>
       <use style="stroke:#000000;stroke-width:0.6;" x="57.6" xlink:href="#m3ef60605bf" y="240.397939"/>
      </g>
     </g>
    </g>
    <g id="ytick_16">
     <g id="line2d_25">
      <g>
       <use style="stroke:#000000;stroke-width:0.6;" x="57.6" xlink:href="#m3ef60605bf" y="235.963382"/>
      </g>
     </g>
    </g>
    <g id="ytick_17">
     <g id="line2d_26">
      <g>
       <use style="stroke:#000000;stroke-width:0.6;" x="57.6" xlink:href="#m3ef60605bf" y="232.214017"/>
      </g>
     </g>
    </g>
    <g id="ytick_18">
     <g id="line2d_27">
      <g>
       <use style="stroke:#000000;stroke-width:0.6;" x="57.6" xlink:href="#m3ef60605bf" y="228.96617"/>
      </g>
     </g>
    </g>
    <g id="ytick_19">
     <g id="line2d_28">
      <g>
       <use style="stroke:#000000;stroke-width:0.6;" x="57.6" xlink:href="#m3ef60605bf" y="226.101365"/>
      </g>
     </g>
    </g>
    <g id="ytick_20">
     <g id="line2d_29">
      <g>
       <use style="stroke:#000000;stroke-width:0.6;" x="57.6" xlink:href="#m3ef60605bf" y="206.679483"/>
      </g>
     </g>
    </g>
    <g id="ytick_21">
     <g id="line2d_30">
      <g>
       <use style="stroke:#000000;stroke-width:0.6;" x="57.6" xlink:href="#m3ef60605bf" y="196.817467"/>
      </g>
     </g>
    </g>
    <g id="ytick_22">
     <g id="line2d_31">
      <g>
       <use style="stroke:#000000;stroke-width:0.6;" x="57.6" xlink:href="#m3ef60605bf" y="189.820255"/>
      </g>
     </g>
    </g>
    <g id="ytick_23">
     <g id="line2d_32">
      <g>
       <use style="stroke:#000000;stroke-width:0.6;" x="57.6" xlink:href="#m3ef60605bf" y="184.392796"/>
      </g>
     </g>
    </g>
    <g id="ytick_24">
     <g id="line2d_33">
      <g>
       <use style="stroke:#000000;stroke-width:0.6;" x="57.6" xlink:href="#m3ef60605bf" y="179.958239"/>
      </g>
     </g>
    </g>
    <g id="ytick_25">
     <g id="line2d_34">
      <g>
       <use style="stroke:#000000;stroke-width:0.6;" x="57.6" xlink:href="#m3ef60605bf" y="176.208874"/>
      </g>
     </g>
    </g>
    <g id="ytick_26">
     <g id="line2d_35">
      <g>
       <use style="stroke:#000000;stroke-width:0.6;" x="57.6" xlink:href="#m3ef60605bf" y="172.961027"/>
      </g>
     </g>
    </g>
    <g id="ytick_27">
     <g id="line2d_36">
      <g>
       <use style="stroke:#000000;stroke-width:0.6;" x="57.6" xlink:href="#m3ef60605bf" y="170.096222"/>
      </g>
     </g>
    </g>
    <g id="ytick_28">
     <g id="line2d_37">
      <g>
       <use style="stroke:#000000;stroke-width:0.6;" x="57.6" xlink:href="#m3ef60605bf" y="150.67434"/>
      </g>
     </g>
    </g>
    <g id="ytick_29">
     <g id="line2d_38">
      <g>
       <use style="stroke:#000000;stroke-width:0.6;" x="57.6" xlink:href="#m3ef60605bf" y="140.812324"/>
      </g>
     </g>
    </g>
    <g id="ytick_30">
     <g id="line2d_39">
      <g>
       <use style="stroke:#000000;stroke-width:0.6;" x="57.6" xlink:href="#m3ef60605bf" y="133.815112"/>
      </g>
     </g>
    </g>
    <g id="ytick_31">
     <g id="line2d_40">
      <g>
       <use style="stroke:#000000;stroke-width:0.6;" x="57.6" xlink:href="#m3ef60605bf" y="128.387653"/>
      </g>
     </g>
    </g>
    <g id="ytick_32">
     <g id="line2d_41">
      <g>
       <use style="stroke:#000000;stroke-width:0.6;" x="57.6" xlink:href="#m3ef60605bf" y="123.953096"/>
      </g>
     </g>
    </g>
    <g id="ytick_33">
     <g id="line2d_42">
      <g>
       <use style="stroke:#000000;stroke-width:0.6;" x="57.6" xlink:href="#m3ef60605bf" y="120.203731"/>
      </g>
     </g>
    </g>
    <g id="ytick_34">
     <g id="line2d_43">
      <g>
       <use style="stroke:#000000;stroke-width:0.6;" x="57.6" xlink:href="#m3ef60605bf" y="116.955884"/>
      </g>
     </g>
    </g>
    <g id="ytick_35">
     <g id="line2d_44">
      <g>
       <use style="stroke:#000000;stroke-width:0.6;" x="57.6" xlink:href="#m3ef60605bf" y="114.091079"/>
      </g>
     </g>
    </g>
    <g id="ytick_36">
     <g id="line2d_45">
      <g>
       <use style="stroke:#000000;stroke-width:0.6;" x="57.6" xlink:href="#m3ef60605bf" y="94.669197"/>
      </g>
     </g>
    </g>
    <g id="ytick_37">
     <g id="line2d_46">
      <g>
       <use style="stroke:#000000;stroke-width:0.6;" x="57.6" xlink:href="#m3ef60605bf" y="84.807181"/>
      </g>
     </g>
    </g>
    <g id="ytick_38">
     <g id="line2d_47">
      <g>
       <use style="stroke:#000000;stroke-width:0.6;" x="57.6" xlink:href="#m3ef60605bf" y="77.809969"/>
      </g>
     </g>
    </g>
    <g id="ytick_39">
     <g id="line2d_48">
      <g>
       <use style="stroke:#000000;stroke-width:0.6;" x="57.6" xlink:href="#m3ef60605bf" y="72.38251"/>
      </g>
     </g>
    </g>
    <g id="ytick_40">
     <g id="line2d_49">
      <g>
       <use style="stroke:#000000;stroke-width:0.6;" x="57.6" xlink:href="#m3ef60605bf" y="67.947953"/>
      </g>
     </g>
    </g>
    <g id="ytick_41">
     <g id="line2d_50">
      <g>
       <use style="stroke:#000000;stroke-width:0.6;" x="57.6" xlink:href="#m3ef60605bf" y="64.198588"/>
      </g>
     </g>
    </g>
    <g id="ytick_42">
     <g id="line2d_51">
      <g>
       <use style="stroke:#000000;stroke-width:0.6;" x="57.6" xlink:href="#m3ef60605bf" y="60.950741"/>
      </g>
     </g>
    </g>
    <g id="ytick_43">
     <g id="line2d_52">
      <g>
       <use style="stroke:#000000;stroke-width:0.6;" x="57.6" xlink:href="#m3ef60605bf" y="58.085937"/>
      </g>
     </g>
    </g>
    <g id="text_16">
     <!-- magnitude -->
     <g transform="translate(21.020312 201.574094)rotate(-90)scale(0.1 -0.1)">
      <defs>
       <path d="M 3328 2828 
Q 3544 3216 3844 3400 
Q 4144 3584 4550 3584 
Q 5097 3584 5394 3201 
Q 5691 2819 5691 2113 
L 5691 0 
L 5113 0 
L 5113 2094 
Q 5113 2597 4934 2840 
Q 4756 3084 4391 3084 
Q 3944 3084 3684 2787 
Q 3425 2491 3425 1978 
L 3425 0 
L 2847 0 
L 2847 2094 
Q 2847 2600 2669 2842 
Q 2491 3084 2119 3084 
Q 1678 3084 1418 2786 
Q 1159 2488 1159 1978 
L 1159 0 
L 581 0 
L 581 3500 
L 1159 3500 
L 1159 2956 
Q 1356 3278 1631 3431 
Q 1906 3584 2284 3584 
Q 2666 3584 2933 3390 
Q 3200 3197 3328 2828 
z
" id="DejaVuSans-6d" transform="scale(0.015625)"/>
       <path d="M 2194 1759 
Q 1497 1759 1228 1600 
Q 959 1441 959 1056 
Q 959 750 1161 570 
Q 1363 391 1709 391 
Q 2188 391 2477 730 
Q 2766 1069 2766 1631 
L 2766 1759 
L 2194 1759 
z
M 3341 1997 
L 3341 0 
L 2766 0 
L 2766 531 
Q 2569 213 2275 61 
Q 1981 -91 1556 -91 
Q 1019 -91 701 211 
Q 384 513 384 1019 
Q 384 1609 779 1909 
Q 1175 2209 1959 2209 
L 2766 2209 
L 2766 2266 
Q 2766 2663 2505 2880 
Q 2244 3097 1772 3097 
Q 1472 3097 1187 3025 
Q 903 2953 641 2809 
L 641 3341 
Q 956 3463 1253 3523 
Q 1550 3584 1831 3584 
Q 2591 3584 2966 3190 
Q 3341 2797 3341 1997 
z
" id="DejaVuSans-61" transform="scale(0.015625)"/>
       <path d="M 2906 1791 
Q 2906 2416 2648 2759 
Q 2391 3103 1925 3103 
Q 1463 3103 1205 2759 
Q 947 2416 947 1791 
Q 947 1169 1205 825 
Q 1463 481 1925 481 
Q 2391 481 2648 825 
Q 2906 1169 2906 1791 
z
M 3481 434 
Q 3481 -459 3084 -895 
Q 2688 -1331 1869 -1331 
Q 1566 -1331 1297 -1286 
Q 1028 -1241 775 -1147 
L 775 -588 
Q 1028 -725 1275 -790 
Q 1522 -856 1778 -856 
Q 2344 -856 2625 -561 
Q 2906 -266 2906 331 
L 2906 616 
Q 2728 306 2450 153 
Q 2172 0 1784 0 
Q 1141 0 747 490 
Q 353 981 353 1791 
Q 353 2603 747 3093 
Q 1141 3584 1784 3584 
Q 2172 3584 2450 3431 
Q 2728 3278 2906 2969 
L 2906 3500 
L 3481 3500 
L 3481 434 
z
" id="DejaVuSans-67" transform="scale(0.015625)"/>
       <path d="M 603 3500 
L 1178 3500 
L 1178 0 
L 603 0 
L 603 3500 
z
M 603 4863 
L 1178 4863 
L 1178 4134 
L 603 4134 
L 603 4863 
z
" id="DejaVuSans-69" transform="scale(0.015625)"/>
       <path d="M 1172 4494 
L 1172 3500 
L 2356 3500 
L 2356 3053 
L 1172 3053 
L 1172 1153 
Q 1172 725 1289 603 
Q 1406 481 1766 481 
L 2356 481 
L 2356 0 
L 1766 0 
Q 1100 0 847 248 
Q 594 497 594 1153 
L 594 3053 
L 172 3053 
L 172 3500 
L 594 3500 
L 594 4494 
L 1172 4494 
z
" id="DejaVuSans-74" transform="scale(0.015625)"/>
       <path d="M 2906 2969 
L 2906 4863 
L 3481 4863 
L 3481 0 
L 2906 0 
L 2906 525 
Q 2725 213 2448 61 
Q 2172 -91 1784 -91 
Q 1150 -91 751 415 
Q 353 922 353 1747 
Q 353 2572 751 3078 
Q 1150 3584 1784 3584 
Q 2172 3584 2448 3432 
Q 2725 3281 2906 2969 
z
M 947 1747 
Q 947 1113 1208 752 
Q 1469 391 1925 391 
Q 2381 391 2643 752 
Q 2906 1113 2906 1747 
Q 2906 2381 2643 2742 
Q 2381 3103 1925 3103 
Q 1469 3103 1208 2742 
Q 947 2381 947 1747 
z
" id="DejaVuSans-64" transform="scale(0.015625)"/>
      </defs>
      <use xlink:href="#DejaVuSans-6d"/>
      <use x="97.412109" xlink:href="#DejaVuSans-61"/>
      <use x="158.691406" xlink:href="#DejaVuSans-67"/>
      <use x="222.167969" xlink:href="#DejaVuSans-6e"/>
      <use x="285.546875" xlink:href="#DejaVuSans-69"/>
      <use x="313.330078" xlink:href="#DejaVuSans-74"/>
      <use x="352.539062" xlink:href="#DejaVuSans-75"/>
      <use x="415.917969" xlink:href="#DejaVuSans-64"/>
      <use x="479.394531" xlink:href="#DejaVuSans-65"/>
     </g>
    </g>
   </g>
   <g id="line2d_53">
    <path clip-path="url(#pd6362d6550)" d="M 73.832727 208.572174 
L 73.995095 200.885061 
L 74.076279 200.713143 
L 74.157463 199.682351 
L 74.238647 189.173931 
L 74.319831 203.663056 
L 74.401015 200.824522 
L 74.482199 144.904385 
L 74.563383 164.966709 
L 74.806934 184.93864 
L 74.969302 191.739712 
L 75.050486 191.82198 
L 75.13167 194.203183 
L 75.456406 177.912658 
L 75.618774 143.366161 
L 75.781142 204.330096 
L 75.862326 189.041915 
L 75.94351 191.662942 
L 76.024693 192.247914 
L 76.268245 201.11193 
L 76.349429 218.410449 
L 76.430613 216.504096 
L 76.511797 218.242022 
L 76.592981 215.378255 
L 76.755349 205.488253 
L 76.836533 208.597561 
L 76.917717 159.316709 
L 76.998901 170.850974 
L 77.242452 186.580574 
L 77.323636 190.021419 
L 77.648372 227.700879 
L 77.973108 190.214728 
L 78.054292 162.581056 
L 78.21666 200.062355 
L 78.297844 202.285918 
L 78.379027 199.84287 
L 78.622579 215.529659 
L 78.703763 210.198438 
L 78.947315 217.57364 
L 79.028499 208.465346 
L 79.109683 228.215497 
L 79.353235 182.863653 
L 79.434419 184.964971 
L 79.759154 200.694835 
L 79.840338 199.468555 
L 79.921522 207.727911 
L 80.002706 207.584069 
L 80.08389 209.954808 
L 80.165074 208.771839 
L 80.408626 195.698806 
L 80.48981 210.612062 
L 80.570994 205.730193 
L 80.652178 204.816378 
L 80.814545 219.29567 
L 80.895729 219.001313 
L 80.976913 219.814919 
L 81.058097 222.327142 
L 81.139281 213.784911 
L 81.220465 216.618822 
L 81.626385 207.163157 
L 81.707569 219.656115 
L 81.788753 205.80682 
L 82.032304 235.621912 
L 82.194672 212.149176 
L 82.275856 215.099071 
L 82.35704 210.558608 
L 82.438224 212.988301 
L 82.519408 208.070017 
L 82.600592 213.35772 
L 82.681776 209.39681 
L 82.844144 224.31014 
L 82.925328 213.878575 
L 83.006512 236.218038 
L 83.168879 211.016588 
L 83.331247 219.166504 
L 83.412431 220.703124 
L 83.574799 235.347715 
L 83.737167 223.301457 
L 83.818351 208.124013 
L 83.899535 216.053738 
L 83.980719 211.389575 
L 84.061903 228.885798 
L 84.224271 205.576764 
L 84.305455 241.948537 
L 84.386638 224.921045 
L 84.467822 248.102753 
L 84.63019 219.175805 
L 84.711374 222.619628 
L 84.792558 221.579926 
L 84.873742 220.571814 
L 84.954926 223.652498 
L 85.03611 218.526236 
L 85.198478 226.971344 
L 85.279662 248.049611 
L 85.360846 203.857627 
L 85.44203 227.963752 
L 85.604397 212.076333 
L 85.685581 216.206604 
L 85.766765 211.661204 
L 85.847949 215.32325 
L 85.929133 214.406415 
L 86.091501 222.204728 
L 86.253869 241.211079 
L 86.335053 219.717534 
L 86.416237 219.941375 
L 86.497421 229.71035 
L 86.578605 208.323913 
L 86.659789 223.05555 
L 86.740973 207.95134 
L 86.822156 208.600267 
L 86.90334 210.522243 
L 87.065708 222.129106 
L 87.228076 215.543542 
L 87.30926 230.006251 
L 87.390444 208.174393 
L 87.471628 214.851857 
L 87.552812 209.145674 
L 87.796364 220.344254 
L 87.877548 226.814853 
L 87.958732 223.967456 
L 88.039915 245.290154 
L 88.202283 220.939697 
L 88.283467 223.803911 
L 88.364651 209.857799 
L 88.445835 212.313686 
L 88.527019 216.931665 
L 88.608203 213.908652 
L 88.689387 227.910877 
L 88.770571 222.270127 
L 88.932939 232.802741 
L 89.17649 213.01651 
L 89.257674 224.595533 
L 89.338858 212.242034 
L 89.420042 213.763825 
L 89.501226 224.505191 
L 89.58241 217.144051 
L 89.663594 237.136466 
L 89.744778 226.512514 
L 89.825962 236.84772 
L 89.98833 204.685898 
L 90.069514 213.756516 
L 90.150698 211.37845 
L 90.231882 210.299896 
L 90.637801 229.627214 
L 90.881353 215.418336 
L 90.962537 219.749534 
L 91.043721 218.660904 
L 91.124905 215.171144 
L 91.206089 216.754244 
L 91.287273 216.335928 
L 91.368457 234.819048 
L 91.449641 218.888857 
L 91.530825 222.092788 
L 91.612008 224.382787 
L 91.693192 223.315495 
L 91.85556 212.05687 
L 91.936744 220.706505 
L 92.017928 216.053902 
L 92.099112 227.011797 
L 92.180296 221.21362 
L 92.423848 231.16612 
L 92.505032 219.02761 
L 92.586216 226.452128 
L 92.6674 206.828961 
L 92.829767 225.718974 
L 92.910951 215.12454 
L 92.992135 219.132558 
L 93.073319 218.972246 
L 93.154503 233.44364 
L 93.235687 269.686781 
L 93.398055 221.209326 
L 93.641607 210.396291 
L 93.722791 219.361427 
L 93.803975 217.989693 
L 93.885159 221.278447 
L 93.966342 230.207725 
L 94.047526 226.891714 
L 94.12871 217.382143 
L 94.209894 219.135244 
L 94.291078 214.446277 
L 94.372262 219.57274 
L 94.453446 215.041935 
L 94.696998 220.377689 
L 94.859366 239.201975 
L 95.102918 216.837161 
L 95.184101 219.750358 
L 95.265285 213.825511 
L 95.590021 222.891485 
L 95.671205 248.876617 
L 95.833573 225.170021 
L 95.914757 226.423758 
L 96.158309 213.714453 
L 96.239493 222.530326 
L 96.320677 221.041647 
L 96.40186 221.456354 
L 96.645412 225.85278 
L 96.80778 222.297606 
L 96.888964 227.933093 
L 97.051332 209.530855 
L 97.132516 226.737953 
L 97.2137 214.81063 
L 97.294884 216.722588 
L 97.457252 245.697424 
L 97.619619 221.503186 
L 97.781987 218.875424 
L 97.944355 210.04301 
L 98.025539 217.951594 
L 98.106723 215.599605 
L 98.187907 213.624031 
L 98.431459 227.794412 
L 98.512643 222.097722 
L 98.593827 226.871917 
L 98.756195 215.82663 
L 98.837378 213.718408 
L 98.999746 216.398135 
L 99.243298 239.622305 
L 99.324482 237.660972 
L 99.48685 218.61508 
L 99.568034 223.567207 
L 99.649218 214.443553 
L 99.730402 216.797596 
L 99.811586 225.560535 
L 99.89277 222.115067 
L 100.055137 231.375231 
L 100.136321 223.649405 
L 100.217505 234.560527 
L 100.298689 209.969513 
L 100.379873 213.418942 
L 100.542241 215.61692 
L 100.623425 218.536663 
L 100.785793 230.666552 
L 100.866977 225.243589 
L 100.948161 234.086596 
L 101.435264 210.013846 
L 101.597632 217.98967 
L 101.76 272.074922 
L 101.841184 221.027898 
L 101.922368 222.588958 
L 102.084736 231.585169 
L 102.16592 214.910292 
L 102.247104 220.243114 
L 102.328288 218.386779 
L 102.409471 219.565053 
L 102.571839 222.494398 
L 102.653023 251.168894 
L 102.896575 217.452895 
L 102.977759 219.675776 
L 103.221311 213.543855 
L 103.302495 225.911124 
L 103.383679 216.748307 
L 103.464863 271.021677 
L 103.546047 234.612512 
L 103.62723 241.516837 
L 103.708414 216.877464 
L 103.789598 230.228832 
L 103.870782 217.168257 
L 103.951966 231.117618 
L 104.114334 214.80892 
L 104.357886 239.159009 
L 104.520254 229.393056 
L 104.601438 218.919436 
L 104.682622 219.66214 
L 104.763805 226.635458 
L 104.926173 211.46979 
L 105.007357 213.438915 
L 105.169725 235.436855 
L 105.250909 231.700544 
L 105.332093 222.534052 
L 105.413277 224.39697 
L 105.494461 237.915024 
L 105.656829 213.599067 
L 105.819197 220.786605 
L 105.981564 247.781867 
L 106.062748 231.424894 
L 106.143932 258.331842 
L 106.3063 225.083278 
L 106.468668 218.135411 
L 106.549852 219.412084 
L 106.631036 221.461823 
L 106.71222 217.537829 
L 106.793404 227.207197 
L 106.874588 254.959654 
L 106.955772 253.039971 
L 107.036956 217.540971 
L 107.11814 218.758447 
L 107.199323 232.020331 
L 107.361691 213.358777 
L 107.442875 214.255643 
L 107.848795 250.94691 
L 108.011163 219.14249 
L 108.092347 220.549761 
L 108.173531 215.326425 
L 108.254715 222.058878 
L 108.335899 216.334893 
L 108.498266 235.720916 
L 108.57945 215.541196 
L 108.741818 240.269942 
L 108.98537 219.135767 
L 109.147738 223.051042 
L 109.228922 214.909252 
L 109.472474 230.956953 
L 109.553658 216.086988 
L 109.634841 258.505695 
L 109.797209 233.710507 
L 109.878393 233.019414 
L 110.203129 214.102415 
L 110.284313 222.230342 
L 110.365497 248.968246 
L 110.446681 235.783953 
L 110.527865 239.090813 
L 110.771416 219.643519 
L 110.8526 219.79578 
L 110.933784 225.074731 
L 111.014968 242.014957 
L 111.096152 220.180088 
L 111.177336 228.90986 
L 111.25852 227.861026 
L 111.420888 237.407338 
L 111.502072 222.26693 
L 111.583256 223.744259 
L 111.66444 215.616433 
L 111.989175 243.006867 
L 112.070359 232.370429 
L 112.151543 241.76675 
L 112.232727 231.155909 
L 112.313911 239.288146 
L 112.638647 217.037761 
L 112.719831 217.128607 
L 112.882199 235.504732 
L 112.963383 243.108909 
L 113.206934 227.811852 
L 113.369302 217.392841 
L 113.450486 228.295718 
L 113.53167 226.734082 
L 113.612854 217.777865 
L 113.775222 243.739403 
L 113.93759 241.712936 
L 114.181142 216.060011 
L 114.262326 223.948854 
L 114.34351 218.542046 
L 114.505877 222.556309 
L 114.587061 239.3137 
L 114.668245 231.869169 
L 114.830613 249.718182 
L 114.992981 227.578657 
L 115.074165 235.702944 
L 115.155349 215.866949 
L 115.236533 233.956736 
L 115.317717 231.04839 
L 115.480085 227.099472 
L 115.561268 241.993533 
L 115.642452 233.785257 
L 115.723636 291.213614 
L 115.886004 212.573436 
L 116.129556 233.259215 
L 116.21074 222.75708 
L 116.373108 234.770228 
L 116.454292 257.339454 
L 116.535476 249.454477 
L 116.697844 223.179125 
L 116.779027 219.822197 
L 116.860211 226.599646 
L 116.941395 225.032412 
L 117.347315 252.27728 
L 117.428499 245.919349 
L 117.590867 225.624405 
L 117.672051 222.749309 
L 117.753235 229.034866 
L 117.834419 218.579721 
L 117.915603 222.552905 
L 118.159154 259.685958 
L 118.321522 225.604796 
L 118.402706 229.779591 
L 118.565074 222.067753 
L 118.646258 234.769409 
L 118.727442 233.071902 
L 118.808626 225.753555 
L 118.88981 228.748783 
L 119.052178 295.488 
L 119.376913 223.449163 
L 119.458097 227.814819 
L 119.539281 219.680915 
L 119.782833 246.958375 
L 119.864017 276.860348 
L 120.026385 237.034375 
L 120.269937 220.100894 
L 120.513488 233.670829 
L 120.594672 231.821477 
L 120.675856 234.75268 
L 120.75704 259.150306 
L 120.919408 239.122806 
L 121.000592 232.724615 
L 121.081776 232.820816 
L 121.16296 230.74192 
L 121.244144 219.920231 
L 121.325328 221.97884 
L 121.568879 288.409173 
L 121.650063 268.833409 
L 121.812431 225.238367 
L 121.893615 226.884838 
L 122.137167 222.460781 
L 122.218351 225.578545 
L 122.299535 233.999274 
L 122.380719 272.183054 
L 122.543087 233.916655 
L 122.624271 256.276259 
L 122.786638 222.050778 
L 122.867822 220.617806 
L 123.03019 245.564322 
L 123.111374 225.408804 
L 123.192558 264.000478 
L 123.273742 242.019293 
L 123.354926 245.380179 
L 123.43611 243.365371 
L 123.517294 226.32033 
L 123.598478 234.465866 
L 123.679662 217.89203 
L 123.760846 225.503787 
L 123.84203 216.764104 
L 124.004397 245.923169 
L 124.085581 244.24751 
L 124.166765 227.141113 
L 124.329133 261.309578 
L 124.410317 254.626828 
L 124.491501 226.758679 
L 124.572685 233.312689 
L 124.735053 225.180739 
L 124.816237 229.401856 
L 124.897421 226.670853 
L 125.140973 261.592838 
L 125.222156 251.756166 
L 125.30334 263.954704 
L 125.384524 226.087693 
L 125.465708 235.080208 
L 125.628076 225.050916 
L 125.70926 231.64225 
L 125.790444 250.054936 
L 125.871628 224.102462 
L 126.033996 270.901504 
L 126.196364 227.562373 
L 126.358732 237.473326 
L 126.439915 230.954291 
L 126.521099 249.330412 
L 126.683467 223.569052 
L 126.764651 257.96498 
L 126.845835 254.389091 
L 126.927019 235.343822 
L 127.008203 248.367717 
L 127.170571 228.93575 
L 127.251755 243.982214 
L 127.332939 232.700224 
L 127.414123 237.750981 
L 127.57649 228.753398 
L 127.657674 234.092326 
L 127.738858 233.107364 
L 127.820042 261.326778 
L 128.063594 229.668381 
L 128.144778 244.630072 
L 128.225962 222.188866 
L 128.307146 242.689218 
L 128.38833 231.215716 
L 128.469514 233.977518 
L 128.550698 225.387088 
L 128.794249 256.619531 
L 129.118985 223.160929 
L 129.200169 239.323598 
L 129.281353 231.618711 
L 129.362537 245.840007 
L 129.443721 232.327925 
L 129.524905 235.282454 
L 129.606089 235.613097 
L 129.687273 235.111708 
L 129.849641 227.708692 
L 130.012008 232.357686 
L 130.093192 228.733371 
L 130.174376 230.507639 
L 130.25556 257.140056 
L 130.336744 214.176009 
L 130.499112 234.889543 
L 130.580296 243.949639 
L 130.742664 230.723085 
L 130.823848 252.507035 
L 130.986216 219.799423 
L 131.0674 232.660224 
L 131.148584 229.380333 
L 131.229767 221.512101 
L 131.310951 238.57844 
L 131.392135 231.625383 
L 131.473319 261.947031 
L 131.716871 228.596747 
L 131.798055 230.076656 
L 131.960423 218.182481 
L 132.041607 219.537924 
L 132.366342 253.123251 
L 132.447526 271.077331 
L 132.52871 235.258747 
L 132.609894 237.001314 
L 132.772262 220.74756 
L 132.93463 240.362814 
L 133.015814 237.008267 
L 133.096998 246.263499 
L 133.178182 272.799948 
L 133.259366 235.717959 
L 133.34055 273.420007 
L 133.502918 233.459603 
L 133.584101 229.569797 
L 133.665285 229.926742 
L 133.746469 215.331297 
L 133.827653 224.077699 
L 133.908837 220.241218 
L 133.990021 238.094001 
L 134.071205 227.576539 
L 134.152389 236.899389 
L 134.395941 222.85372 
L 134.477125 226.485054 
L 134.639493 211.937813 
L 134.720677 216.615393 
L 135.045412 251.563926 
L 135.126596 245.775155 
L 135.20778 215.160017 
L 135.288964 222.010439 
L 135.370148 217.166799 
L 135.451332 218.270972 
L 135.6137 221.027309 
L 135.776068 253.907486 
L 135.857252 251.972585 
L 136.019619 230.307076 
L 136.100803 227.909514 
L 136.263171 205.076656 
L 136.425539 224.232936 
L 136.506723 264.662744 
L 136.587907 223.96028 
L 136.669091 235.683562 
L 136.750275 233.433573 
L 136.831459 224.873062 
L 136.912643 233.715032 
L 137.075011 211.950907 
L 137.156195 209.691616 
L 137.237378 209.856355 
L 137.318562 218.154304 
L 137.399746 243.470842 
L 137.48093 226.317275 
L 137.562114 242.345523 
L 137.643298 200.933171 
L 137.724482 212.505073 
L 137.805666 212.563395 
L 137.88685 200.60284 
L 137.968034 208.101537 
L 138.049218 205.742898 
L 138.29277 216.66535 
L 138.373953 247.745681 
L 138.536321 217.028909 
L 138.617505 218.814726 
L 138.698689 220.964077 
L 138.779873 193.707264 
L 138.861057 199.580278 
L 138.942241 210.337833 
L 139.023425 197.132823 
L 139.185793 224.320478 
L 139.266977 252.287519 
L 139.510529 209.387183 
L 139.591712 208.877746 
L 139.75408 200.167213 
L 139.835264 209.022124 
L 139.916448 204.491749 
L 139.997632 223.107266 
L 140.078816 204.563215 
L 140.16 230.274746 
L 140.241184 223.394467 
L 140.322368 221.917283 
L 140.56592 197.260785 
L 140.728288 201.150134 
L 140.809471 207.029757 
L 141.053023 236.382711 
L 141.134207 228.923121 
L 141.296575 193.794053 
L 141.458943 187.913807 
L 141.540127 189.489297 
L 141.864863 218.600057 
L 142.189598 187.437522 
L 142.43315 180.544725 
L 142.514334 176.118105 
L 142.676702 209.965195 
L 142.757886 211.419272 
L 142.83907 240.697358 
L 143.082622 193.371248 
L 143.244989 191.520535 
L 143.326173 191.265167 
L 143.407357 193.096394 
L 143.488541 200.585983 
L 143.569725 193.875498 
L 143.650909 198.97659 
L 143.732093 231.77274 
L 143.813277 181.911595 
L 143.894461 223.285428 
L 144.138013 193.838037 
L 144.219197 195.398229 
L 144.381564 212.538698 
L 144.462748 275.144178 
L 144.543932 255.539224 
L 144.7063 198.588929 
L 144.868668 188.932594 
L 144.949852 154.982634 
L 145.11222 188.411989 
L 145.193404 183.908391 
L 145.436956 194.509043 
L 145.680507 181.581552 
L 145.761691 179.594758 
L 145.842875 186.881431 
L 145.924059 184.502535 
L 146.005243 184.558985 
L 146.167611 209.87954 
L 146.248795 199.464212 
L 146.329979 207.14644 
L 146.573531 180.664573 
L 146.654715 179.816486 
L 146.735899 180.868958 
L 146.97945 204.959431 
L 147.060634 240.434455 
L 147.38537 139.111823 
L 147.547738 168.023711 
L 147.628922 162.546692 
L 148.034841 186.75576 
L 148.197209 172.771376 
L 148.278393 178.620605 
L 148.521945 145.800999 
L 148.603129 153.57401 
L 148.684313 149.258057 
L 148.927865 162.033647 
L 149.009049 161.850766 
L 149.65852 139.99907 
L 149.739704 132.891037 
L 149.820888 100.032061 
L 149.902072 181.55192 
L 149.983256 170.341674 
L 150.06444 168.553756 
L 150.145624 171.251599 
L 150.307992 190.851064 
L 150.389175 212.289286 
L 150.632727 164.137226 
L 150.713911 168.465844 
L 150.876279 151.697657 
L 150.957463 128.918293 
L 151.201015 149.684135 
L 151.363383 167.032694 
L 151.444567 165.446562 
L 151.769302 129.28193 
L 152.175222 104.842687 
L 152.256406 68.315808 
L 152.418774 130.739285 
L 152.499958 126.634795 
L 152.824693 147.308485 
L 152.987061 161.453811 
L 153.068245 160.067158 
L 153.149429 162.702806 
L 153.392981 131.075469 
L 153.474165 151.559892 
L 153.555349 113.645518 
L 153.636533 120.566371 
L 153.880085 162.258253 
L 154.042452 143.113257 
L 154.367188 115.610382 
L 154.61074 98.19601 
L 154.691924 59.136724 
L 154.854292 118.479196 
L 154.935476 114.604853 
L 155.260211 131.85845 
L 155.422579 152.903508 
L 155.503763 173.739765 
L 155.584947 170.078412 
L 155.747315 130.614207 
L 155.909683 164.411834 
L 155.990867 101.711303 
L 156.072051 108.168044 
L 156.315603 135.449954 
L 156.47797 146.815389 
L 156.559154 145.676476 
L 157.046258 108.80036 
L 157.127442 66.148138 
L 157.28981 123.440879 
L 157.370994 118.861749 
L 157.776913 140.034263 
L 158.020465 172.114933 
L 158.182833 140.020512 
L 158.264017 170.266139 
L 158.426385 111.766923 
L 158.507569 116.475937 
L 158.751121 136.628754 
L 158.913488 149.651389 
L 159.075856 180.300844 
L 159.15704 201.460604 
L 159.319408 153.83694 
L 159.400592 153.462232 
L 159.481776 144.844839 
L 159.56296 93.988489 
L 159.725328 145.57254 
L 159.806512 134.582261 
L 160.050063 148.629878 
L 160.618351 159.664868 
L 160.699535 155.34964 
L 160.780719 156.174291 
L 160.861903 156.234025 
L 160.943087 152.715185 
L 161.024271 153.663704 
L 161.511374 162.984203 
L 161.754926 159.933555 
L 161.998478 150.595903 
L 162.160846 173.95953 
L 162.24203 151.885454 
L 162.485581 177.208472 
L 162.810317 161.288449 
L 162.972685 162.486531 
L 163.053869 165.120312 
L 163.135053 161.550857 
L 163.216237 171.186527 
L 163.297421 153.893891 
L 163.459789 185.172353 
L 163.540973 184.944135 
L 163.946892 167.442853 
L 164.028076 167.924986 
L 164.10926 169.472296 
L 164.190444 167.527697 
L 164.271628 172.847521 
L 164.352812 171.581509 
L 164.433996 170.269179 
L 164.51518 177.905875 
L 164.596364 177.272459 
L 164.677548 164.205989 
L 164.921099 175.541303 
L 165.164651 181.205279 
L 165.245835 180.061309 
L 165.489387 170.376154 
L 165.570571 174.142006 
L 165.651755 173.970133 
L 165.732939 173.635188 
L 165.895307 177.976552 
L 165.97649 174.536757 
L 166.057674 176.967275 
L 166.138858 174.349713 
L 166.220042 176.765378 
L 166.301226 173.96733 
L 166.38241 174.300554 
L 166.544778 175.879639 
L 166.78833 190.163427 
L 166.869514 153.022293 
L 166.950698 174.043348 
L 167.031882 173.986672 
L 167.113066 181.710434 
L 167.275433 170.366292 
L 167.681353 185.31521 
L 167.924905 174.054214 
L 168.006089 178.854008 
L 168.168457 171.156156 
L 168.249641 172.655666 
L 168.412008 173.329453 
L 168.65556 181.189159 
L 168.899112 175.761134 
L 168.980296 176.802862 
L 169.06148 177.298013 
L 169.142664 176.633429 
L 169.223848 178.555951 
L 169.305032 189.081116 
L 169.4674 181.278862 
L 169.548584 192.112996 
L 169.792135 177.632845 
L 169.873319 177.387733 
L 169.954503 175.843233 
L 170.035687 176.988978 
L 170.279239 183.700554 
L 170.360423 184.714891 
L 170.441607 179.607363 
L 170.522791 181.074822 
L 170.603975 176.79207 
L 170.685159 181.492177 
L 170.766342 179.305383 
L 171.091078 187.889216 
L 171.33463 182.778506 
L 171.496998 178.712831 
L 171.659366 178.941952 
L 171.74055 206.606665 
L 171.821734 184.596734 
L 171.902918 188.126993 
L 171.984101 183.464116 
L 172.065285 186.76562 
L 172.146469 186.159761 
L 172.390021 179.516454 
L 172.471205 179.724754 
L 172.552389 179.467151 
L 172.795941 187.191002 
L 172.877125 186.337233 
L 172.958309 185.938298 
L 173.20186 181.497614 
L 173.283044 182.908127 
L 173.364228 181.46127 
L 173.688964 190.248 
L 173.770148 188.870028 
L 174.0137 182.575614 
L 174.094884 184.904879 
L 174.176068 172.491535 
L 174.338436 182.391727 
L 174.419619 181.06075 
L 174.581987 185.85087 
L 174.663171 184.782171 
L 174.744355 185.412238 
L 174.825539 185.082721 
L 174.906723 182.709891 
L 174.987907 183.562955 
L 175.231459 180.598461 
L 175.312643 188.705407 
L 175.393827 188.332854 
L 175.718562 181.800585 
L 175.799746 181.864198 
L 175.88093 181.997499 
L 175.962114 181.33385 
L 176.205666 187.816037 
L 176.28685 187.443264 
L 176.449218 191.047963 
L 176.611586 184.104159 
L 176.69277 184.300202 
L 176.773953 181.337898 
L 176.855137 187.081909 
L 176.936321 184.843237 
L 177.179873 190.704844 
L 177.261057 186.102177 
L 177.342241 188.367153 
L 177.504609 183.457966 
L 177.910529 188.588739 
L 177.991712 190.807255 
L 178.072896 190.02829 
L 178.15408 191.334503 
L 178.316448 185.378136 
L 178.397632 185.547429 
L 178.56 183.794718 
L 178.641184 184.802662 
L 178.722368 184.750851 
L 178.803552 189.474605 
L 178.96592 186.687666 
L 179.047104 195.861014 
L 179.128288 186.513166 
L 179.209471 189.022364 
L 179.290655 183.434488 
L 179.371839 185.263739 
L 179.453023 184.201471 
L 179.534207 187.496198 
L 179.615391 185.074715 
L 179.858943 192.00477 
L 180.021311 187.792215 
L 180.183679 185.681608 
L 180.264863 182.410542 
L 180.346047 188.485398 
L 180.42723 186.709167 
L 180.670782 194.256948 
L 180.995518 185.916856 
L 181.076702 187.206001 
L 181.157886 185.94255 
L 181.563805 191.39797 
L 181.644989 189.99208 
L 181.888541 184.140603 
L 181.969725 184.638617 
L 182.213277 189.263466 
L 182.294461 190.801428 
L 182.538013 187.404068 
L 182.619197 189.515157 
L 182.862748 184.664538 
L 183.025116 190.411427 
L 183.1063 188.472985 
L 183.268668 193.361729 
L 183.349852 190.683058 
L 183.431036 193.394243 
L 183.593404 184.370093 
L 183.674588 187.711301 
L 183.755772 186.495023 
L 183.999323 190.730244 
L 184.080507 193.61716 
L 184.161691 190.17178 
L 184.242875 190.216469 
L 184.324059 191.036684 
L 184.486427 186.131567 
L 184.811163 191.73836 
L 184.892347 198.08963 
L 185.054715 188.861923 
L 185.217082 191.244145 
L 185.298266 184.957399 
L 185.37945 187.459444 
L 185.541818 186.157181 
L 185.704186 194.086041 
L 185.78537 192.794629 
L 185.866554 189.325346 
L 185.947738 190.25316 
L 186.19129 187.448796 
L 186.353658 190.548213 
L 186.516025 193.271834 
L 186.678393 189.492481 
L 186.759577 192.325852 
L 186.840761 191.404219 
L 186.921945 192.291209 
L 187.165497 186.47774 
L 187.246681 185.779122 
L 187.409049 191.585276 
L 187.490233 191.428519 
L 187.571416 197.066134 
L 187.6526 192.214599 
L 187.733784 192.571733 
L 187.896152 187.516906 
L 188.139704 190.340211 
L 188.302072 191.687637 
L 188.383256 195.060026 
L 188.46444 194.898693 
L 188.789175 186.030365 
L 189.113911 195.446741 
L 189.195095 192.522473 
L 189.276279 193.181306 
L 189.357463 197.195735 
L 189.438647 188.189679 
L 189.519831 192.027323 
L 189.763383 188.044435 
L 190.006934 193.939141 
L 190.088118 191.414083 
L 190.169302 191.821981 
L 190.33167 188.344218 
L 190.494038 190.022119 
L 190.575222 188.088716 
L 190.656406 189.924894 
L 190.73759 188.889288 
L 190.899958 194.568154 
L 191.062326 192.879572 
L 191.14351 190.757026 
L 191.224693 191.866877 
L 191.305877 191.048017 
L 191.387061 187.052012 
L 191.468245 188.356227 
L 191.549429 188.230082 
L 191.711797 192.121103 
L 191.792981 192.134558 
L 191.874165 193.716938 
L 192.280085 187.403362 
L 192.361268 187.681739 
L 192.523636 192.287742 
L 192.60482 193.601095 
L 192.686004 192.434938 
L 192.848372 195.960734 
L 193.173108 189.166285 
L 193.254292 189.71993 
L 193.335476 194.658937 
L 193.41666 192.847 
L 193.497844 189.497171 
L 193.579027 196.217926 
L 193.660211 194.106746 
L 193.741395 193.142759 
L 193.822579 190.613652 
L 193.903763 192.137652 
L 193.984947 188.830759 
L 194.066131 189.385686 
L 194.147315 190.296052 
L 194.228499 189.647842 
L 194.390867 197.101429 
L 194.472051 196.041517 
L 194.715603 189.992002 
L 194.87797 191.41632 
L 194.959154 191.253576 
L 195.040338 191.432284 
L 195.121522 194.057812 
L 195.202706 191.569821 
L 195.365074 194.613354 
L 195.527442 193.706481 
L 195.68981 188.74646 
L 195.770994 188.761544 
L 195.852178 189.558414 
L 195.933362 192.50597 
L 196.014545 190.817849 
L 196.176913 195.817987 
L 196.258097 196.214876 
L 196.339281 189.956363 
L 196.420465 191.863864 
L 196.501649 191.886734 
L 196.664017 189.388574 
L 196.826385 196.472329 
L 196.907569 192.659243 
L 196.988753 196.459006 
L 197.069937 193.07336 
L 197.151121 194.005496 
L 197.232304 191.734614 
L 197.313488 194.627529 
L 197.394672 190.939144 
L 197.475856 192.644575 
L 197.55704 191.539469 
L 197.638224 193.158242 
L 197.719408 197.911051 
L 197.800592 193.683022 
L 197.881776 193.956659 
L 197.96296 196.723071 
L 198.287696 188.842793 
L 198.450063 191.591087 
L 198.531247 192.091388 
L 198.612431 191.773009 
L 198.774799 195.172594 
L 199.018351 191.966698 
L 199.099535 191.510258 
L 199.261903 187.925972 
L 199.343087 189.735304 
L 199.505455 196.702725 
L 199.911374 192.367553 
L 199.992558 192.476479 
L 200.154926 189.66862 
L 200.23611 193.27065 
L 200.317294 192.730375 
L 200.479662 195.39723 
L 200.560846 196.934261 
L 200.64203 193.101328 
L 200.723214 194.012413 
L 200.885581 188.801782 
L 200.966765 192.511012 
L 201.047949 191.49956 
L 201.129133 191.342045 
L 201.291501 199.575795 
L 201.697421 187.304306 
L 201.778605 191.714585 
L 201.859789 188.614501 
L 201.940973 193.890212 
L 202.022156 192.728178 
L 202.10334 190.732215 
L 202.346892 198.129387 
L 202.590444 189.6484 
L 202.671628 193.102321 
L 202.752812 190.924343 
L 202.833996 191.551582 
L 202.996364 197.681697 
L 203.077548 194.982178 
L 203.158732 197.010153 
L 203.239915 194.435097 
L 203.321099 196.537255 
L 203.402283 195.444361 
L 203.483467 189.505943 
L 203.564651 192.517871 
L 203.645835 190.018806 
L 203.727019 193.145888 
L 203.808203 192.10064 
L 203.889387 192.552174 
L 204.051755 199.249994 
L 204.214123 190.897249 
L 204.295307 193.465737 
L 204.37649 190.728397 
L 204.457674 190.778052 
L 204.538858 194.123095 
L 204.620042 193.687565 
L 204.701226 195.172933 
L 204.78241 201.356828 
L 204.944778 192.031934 
L 205.025962 193.191646 
L 205.107146 193.890861 
L 205.18833 191.120489 
L 205.269514 192.447667 
L 205.350698 191.158383 
L 205.594249 198.82944 
L 205.675433 194.485923 
L 205.756617 199.578403 
L 205.837801 191.490947 
L 205.918985 194.209503 
L 206.000169 195.153847 
L 206.162537 191.606465 
L 206.243721 191.619944 
L 206.324905 194.512771 
L 206.406089 192.237268 
L 206.487273 197.649755 
L 206.568457 197.341154 
L 206.649641 198.021707 
L 206.730825 195.23318 
L 206.812008 195.715848 
L 206.893192 194.397549 
L 206.974376 189.786328 
L 207.05556 190.755228 
L 207.46148 199.464746 
L 207.542664 191.636858 
L 207.623848 193.365069 
L 207.705032 193.621389 
L 207.786216 190.020654 
L 207.8674 190.631648 
L 208.029767 194.602248 
L 208.110951 190.941591 
L 208.273319 196.342479 
L 208.435687 191.480178 
L 208.516871 196.917579 
L 208.598055 189.171779 
L 208.679239 191.330371 
L 208.760423 191.543919 
L 208.841607 194.300917 
L 208.922791 192.199427 
L 209.085159 196.010771 
L 209.166342 194.103082 
L 209.247526 196.284038 
L 209.32871 195.455704 
L 209.409894 188.341701 
L 209.491078 194.194464 
L 209.572262 191.967868 
L 209.653446 192.030827 
L 209.73463 195.532832 
L 209.815814 194.995354 
L 210.059366 199.327083 
L 210.221734 191.440671 
L 210.302918 195.457962 
L 210.384101 191.879051 
L 210.465285 193.060174 
L 210.546469 191.847784 
L 210.708837 195.818792 
L 210.871205 198.235512 
L 211.114757 191.698236 
L 211.195941 191.200378 
L 211.277125 195.111681 
L 211.358309 191.132682 
L 211.520677 195.47366 
L 211.60186 192.053404 
L 211.683044 196.185367 
L 211.764228 195.597744 
L 211.845412 210.615598 
L 212.00778 190.87184 
L 212.088964 194.042256 
L 212.170148 193.364454 
L 212.332516 192.400915 
L 212.494884 195.950694 
L 212.576068 197.814429 
L 212.738436 192.140197 
L 212.819619 193.133933 
L 212.900803 194.921278 
L 212.981987 194.048718 
L 213.144355 199.501924 
L 213.306723 193.044895 
L 213.550275 197.368826 
L 213.712643 193.095635 
L 213.793827 194.891971 
L 213.875011 194.332659 
L 213.956195 193.559024 
L 214.037378 198.924713 
L 214.118562 192.734138 
L 214.199746 199.188171 
L 214.28093 198.833003 
L 214.362114 198.397154 
L 214.524482 192.248963 
L 214.605666 192.937258 
L 214.68685 195.895096 
L 214.849218 192.775439 
L 214.930402 193.110197 
L 215.09277 198.315521 
L 215.255137 195.054671 
L 215.336321 194.755049 
L 215.417505 188.352723 
L 215.661057 196.616057 
L 215.742241 193.504571 
L 215.985793 202.308825 
L 216.066977 200.994123 
L 216.310529 194.63574 
L 216.391712 192.400405 
L 216.472896 195.368453 
L 216.635264 190.955125 
L 216.716448 179.048752 
L 216.797632 198.488426 
L 216.878816 197.099917 
L 217.041184 192.748919 
L 217.122368 191.642769 
L 217.203552 192.737331 
L 217.284736 192.178252 
L 217.36592 190.566593 
L 217.528288 200.148481 
L 217.609471 197.857896 
L 217.690655 195.017586 
L 217.771839 198.518569 
L 217.853023 189.739082 
L 217.934207 189.781852 
L 218.015391 188.208382 
L 218.096575 192.319324 
L 218.177759 191.481989 
L 218.258943 194.404846 
L 218.340127 190.55264 
L 218.421311 198.763168 
L 218.502495 197.787533 
L 218.583679 197.732116 
L 218.664863 197.03347 
L 218.908414 182.98806 
L 219.151966 208.292255 
L 219.314334 193.428345 
L 219.395518 201.205862 
L 219.476702 200.7863 
L 219.720254 192.18852 
L 219.801438 192.84248 
L 219.882622 191.648605 
L 219.963805 192.278782 
L 220.126173 203.055837 
L 220.207357 192.445503 
L 220.288541 195.487436 
L 220.369725 206.428848 
L 220.450909 203.968916 
L 220.613277 193.925917 
L 220.694461 189.182439 
L 220.775645 192.24133 
L 220.856829 187.562758 
L 221.019197 195.159978 
L 221.100381 196.838488 
L 221.181564 196.730338 
L 221.262748 195.988292 
L 221.343932 191.41618 
L 221.425116 193.440862 
L 221.5063 190.486832 
L 221.587484 204.662016 
L 221.749852 189.38361 
L 221.993404 200.949219 
L 222.074588 200.583166 
L 222.399323 184.928236 
L 222.480507 193.198037 
L 222.561691 189.270483 
L 222.805243 202.508543 
L 222.967611 197.963132 
L 223.048795 201.602779 
L 223.211163 193.072306 
L 223.292347 192.990247 
L 223.373531 196.362088 
L 223.454715 191.896408 
L 223.535899 194.023424 
L 223.77945 206.469264 
L 223.860634 197.272297 
L 223.941818 201.510443 
L 224.023002 149.268779 
L 224.18537 194.084872 
L 224.266554 184.882314 
L 224.672474 209.316426 
L 224.916025 178.366348 
L 224.997209 183.102502 
L 225.078393 179.450335 
L 225.159577 167.113001 
L 225.403129 192.124518 
L 225.565497 204.301118 
L 225.971416 188.110336 
L 226.0526 189.397464 
L 226.133784 194.132596 
L 226.214968 219.452387 
L 226.45852 147.200549 
L 226.539704 209.056851 
L 226.620888 197.548223 
L 226.702072 187.838037 
L 226.783256 189.18553 
L 226.86444 187.729256 
L 226.945624 187.803661 
L 227.026808 191.367782 
L 227.270359 223.408225 
L 227.351543 183.411265 
L 227.432727 190.498341 
L 227.513911 172.308315 
L 227.595095 174.894786 
L 227.676279 188.506193 
L 227.757463 171.972684 
L 228.001015 197.506692 
L 228.082199 192.60987 
L 228.244567 198.76185 
L 228.569302 187.152434 
L 228.650486 170.144389 
L 228.73167 200.246235 
L 228.812854 196.4737 
L 228.894038 132.975147 
L 228.975222 201.96968 
L 229.056406 199.584092 
L 229.13759 234.954206 
L 229.299958 192.038627 
L 229.462326 185.844196 
L 229.705877 208.895267 
L 230.030613 142.848861 
L 230.111797 175.647965 
L 230.192981 164.703486 
L 230.355349 224.220642 
L 230.517717 199.283286 
L 230.598901 197.14751 
L 230.680085 198.540234 
L 230.761268 213.985588 
L 230.842452 210.586595 
L 231.00482 196.979683 
L 231.086004 154.124024 
L 231.248372 191.433207 
L 231.329556 82.669844 
L 231.491924 180.201203 
L 231.573108 200.659074 
L 231.654292 188.058116 
L 231.735476 188.601178 
L 231.81666 185.406526 
L 231.979027 192.286554 
L 232.060211 188.816448 
L 232.141395 193.294458 
L 232.222579 182.740726 
L 232.303763 213.998426 
L 232.466131 154.87916 
L 232.547315 172.856174 
L 232.628499 141.811278 
L 232.709683 153.917797 
L 232.872051 214.947509 
L 232.953235 210.019628 
L 233.196786 197.117231 
L 233.27797 198.809654 
L 233.359154 196.95048 
L 233.440338 188.194247 
L 233.521522 148.651434 
L 233.68389 182.952723 
L 233.765074 53.568 
L 233.927442 174.99564 
L 234.008626 159.113553 
L 234.170994 176.0969 
L 234.414545 196.622887 
L 234.495729 191.751026 
L 234.576913 213.206163 
L 234.658097 172.640819 
L 234.739281 181.583356 
L 234.820465 183.880998 
L 234.982833 205.986177 
L 235.064017 162.497275 
L 235.145201 163.119885 
L 235.226385 188.981567 
L 235.307569 187.28033 
L 235.388753 203.66215 
L 235.632304 179.315492 
L 235.713488 177.498054 
L 235.794672 179.721449 
L 235.875856 177.325404 
L 235.95704 151.25974 
L 236.038224 183.968418 
L 236.200592 145.172081 
L 236.36296 183.968418 
L 236.444144 151.25974 
L 236.606512 179.721449 
L 236.687696 177.498054 
L 236.768879 179.315492 
L 237.012431 203.66215 
L 237.255983 163.119885 
L 237.337167 162.497275 
L 237.418351 205.986177 
L 237.499535 202.869247 
L 237.661903 181.583356 
L 237.743087 172.640819 
L 237.824271 213.206163 
L 237.905455 191.751026 
L 237.986638 196.622887 
L 238.23019 176.0969 
L 238.311374 173.360622 
L 238.392558 159.113553 
L 238.473742 174.99564 
L 238.554926 169.343989 
L 238.63611 53.568 
L 238.717294 182.952723 
L 238.798478 173.944417 
L 238.879662 148.651434 
L 239.04203 196.95048 
L 239.123214 198.809654 
L 239.204397 197.117231 
L 239.366765 203.185681 
L 239.529133 214.947509 
L 239.772685 141.811278 
L 239.853869 172.856174 
L 239.935053 154.87916 
L 240.097421 213.998426 
L 240.178605 182.740726 
L 240.259789 193.294458 
L 240.340973 188.816448 
L 240.422156 192.286554 
L 240.584524 185.406526 
L 240.665708 188.601178 
L 240.746892 188.058116 
L 240.828076 200.659074 
L 240.990444 178.005263 
L 241.071628 82.669844 
L 241.152812 191.433207 
L 241.233996 181.99169 
L 241.31518 154.124024 
L 241.477548 203.573118 
L 241.639915 213.985588 
L 241.802283 197.14751 
L 241.964651 201.586641 
L 242.045835 224.220642 
L 242.208203 164.703486 
L 242.289387 175.647965 
L 242.370571 142.848861 
L 242.451755 152.700067 
L 242.695307 208.895267 
L 242.77649 194.706562 
L 242.857674 198.23504 
L 242.938858 185.844196 
L 243.020042 187.244599 
L 243.18241 195.522409 
L 243.263594 234.954206 
L 243.507146 132.975147 
L 243.669514 200.246235 
L 243.750698 170.144389 
L 243.913066 190.093502 
L 243.994249 195.789492 
L 244.075433 194.890649 
L 244.156617 198.76185 
L 244.318985 192.60987 
L 244.400169 197.506692 
L 244.643721 171.972684 
L 244.724905 188.506193 
L 244.887273 172.308315 
L 244.968457 190.498341 
L 245.049641 183.411265 
L 245.130825 223.408225 
L 245.374376 191.367782 
L 245.536744 187.729256 
L 245.617928 189.18553 
L 245.699112 187.838037 
L 245.86148 209.056851 
L 245.942664 147.200549 
L 246.023848 202.464693 
L 246.105032 192.607208 
L 246.186216 219.452387 
L 246.348584 189.397464 
L 246.429767 188.110336 
L 246.835687 204.301118 
L 247.241607 167.113001 
L 247.403975 183.102502 
L 247.485159 178.366348 
L 247.72871 209.316426 
L 247.972262 192.860551 
L 248.053446 190.536303 
L 248.13463 184.882314 
L 248.215814 194.084872 
L 248.296998 191.63847 
L 248.378182 149.268779 
L 248.459366 201.510443 
L 248.54055 197.272297 
L 248.621734 206.469264 
L 248.702918 203.803707 
L 248.946469 191.896408 
L 249.027653 196.362088 
L 249.108837 192.990247 
L 249.190021 193.072306 
L 249.271205 193.74385 
L 249.352389 201.602779 
L 249.433573 197.963132 
L 249.514757 198.286679 
L 249.595941 202.508543 
L 249.677125 193.25171 
L 249.758309 194.327893 
L 249.839493 189.270483 
L 249.920677 193.198037 
L 250.00186 184.928236 
L 250.326596 200.583166 
L 250.40778 200.949219 
L 250.488964 199.501554 
L 250.651332 189.38361 
L 250.732516 191.952035 
L 250.8137 204.662016 
L 250.894884 190.486832 
L 250.976068 193.440862 
L 251.057252 191.41618 
L 251.219619 196.730338 
L 251.300803 196.838488 
L 251.463171 194.282225 
L 251.544355 187.562758 
L 251.625539 192.24133 
L 251.706723 189.182439 
L 252.031459 206.428848 
L 252.193827 192.445503 
L 252.275011 203.055837 
L 252.356195 202.299907 
L 252.518562 191.648605 
L 252.599746 192.84248 
L 252.68093 192.18852 
L 252.762114 193.195717 
L 253.005666 201.205862 
L 253.08685 193.428345 
L 253.168034 195.327858 
L 253.249218 208.292255 
L 253.330402 191.368478 
L 253.411586 194.904849 
L 253.49277 182.98806 
L 253.655137 193.329225 
L 253.817505 197.732116 
L 253.898689 197.787533 
L 253.979873 198.763168 
L 254.061057 190.55264 
L 254.142241 194.404846 
L 254.385793 188.208382 
L 254.466977 189.781852 
L 254.548161 189.739082 
L 254.629345 198.518569 
L 254.710529 195.017586 
L 254.872896 200.148481 
L 255.035264 190.566593 
L 255.197632 192.737331 
L 255.278816 191.642769 
L 255.441184 193.384196 
L 255.603552 198.488426 
L 255.684736 179.048752 
L 255.847104 193.557862 
L 255.928288 195.368453 
L 256.009471 192.400405 
L 256.415391 202.308825 
L 256.658943 193.504571 
L 256.740127 196.616057 
L 256.821311 195.424151 
L 256.983679 188.352723 
L 257.146047 195.054671 
L 257.22723 195.851499 
L 257.308414 198.315521 
L 257.389598 197.362082 
L 257.551966 192.775439 
L 257.714334 195.895096 
L 257.876702 192.248963 
L 258.120254 198.833003 
L 258.201438 199.188171 
L 258.282622 192.734138 
L 258.363805 198.924713 
L 258.444989 193.559024 
L 258.526173 194.332659 
L 258.607357 194.891971 
L 258.688541 193.095635 
L 258.850909 197.368826 
L 258.932093 195.436108 
L 259.094461 193.044895 
L 259.175645 193.647677 
L 259.256829 199.501924 
L 259.419197 194.048718 
L 259.500381 194.921278 
L 259.662748 192.140197 
L 259.825116 197.814429 
L 260.068668 192.400915 
L 260.149852 192.632928 
L 260.31222 194.042256 
L 260.393404 190.87184 
L 260.474588 194.354767 
L 260.555772 210.615598 
L 260.636956 195.597744 
L 260.71814 196.185367 
L 260.799323 192.053404 
L 260.880507 195.47366 
L 260.961691 194.466572 
L 261.042875 191.132682 
L 261.124059 195.111681 
L 261.205243 191.200378 
L 261.286427 191.698236 
L 261.529979 198.235512 
L 261.773531 195.081362 
L 261.854715 191.847784 
L 261.935899 193.060174 
L 262.017082 191.879051 
L 262.098266 195.457962 
L 262.17945 191.440671 
L 262.341818 199.327083 
L 262.423002 195.801563 
L 262.504186 196.043555 
L 262.58537 194.995354 
L 262.666554 195.532832 
L 262.828922 191.967868 
L 262.910106 194.194464 
L 262.99129 188.341701 
L 263.153658 196.284038 
L 263.234841 194.103082 
L 263.316025 196.010771 
L 263.478393 192.199427 
L 263.559577 194.300917 
L 263.803129 189.171779 
L 263.884313 196.917579 
L 263.965497 191.480178 
L 264.046681 192.972307 
L 264.127865 196.342479 
L 264.290233 190.941591 
L 264.371416 194.602248 
L 264.614968 190.020654 
L 264.696152 193.621389 
L 264.777336 193.365069 
L 264.85852 191.636858 
L 264.939704 199.464746 
L 265.020888 198.663092 
L 265.426808 189.786328 
L 265.589175 195.715848 
L 265.670359 195.23318 
L 265.751543 198.021707 
L 265.832727 197.341154 
L 265.913911 197.649755 
L 265.995095 192.237268 
L 266.076279 194.512771 
L 266.238647 191.606465 
L 266.319831 191.870278 
L 266.401015 195.153847 
L 266.482199 194.209503 
L 266.563383 191.490947 
L 266.644567 199.578403 
L 266.725751 194.485923 
L 266.806934 198.82944 
L 267.050486 191.158383 
L 267.13167 192.447667 
L 267.212854 191.120489 
L 267.294038 193.890861 
L 267.375222 193.191646 
L 267.456406 192.031934 
L 267.618774 201.356828 
L 267.781142 193.687565 
L 267.862326 194.123095 
L 268.024693 190.728397 
L 268.105877 193.465737 
L 268.187061 190.897249 
L 268.268245 192.745255 
L 268.349429 199.249994 
L 268.511797 192.552174 
L 268.592981 192.10064 
L 268.674165 193.145888 
L 268.755349 190.018806 
L 268.836533 192.517871 
L 268.917717 189.505943 
L 269.080085 196.537255 
L 269.161268 194.435097 
L 269.242452 197.010153 
L 269.323636 194.982178 
L 269.40482 197.681697 
L 269.648372 190.924343 
L 269.729556 193.102321 
L 269.81074 189.6484 
L 269.973108 193.863196 
L 270.054292 198.129387 
L 270.297844 190.732215 
L 270.460211 193.890212 
L 270.541395 188.614501 
L 270.622579 191.714585 
L 270.703763 187.304306 
L 270.947315 195.390721 
L 271.109683 199.575795 
L 271.190867 198.885352 
L 271.272051 191.342045 
L 271.353235 191.49956 
L 271.434419 192.511012 
L 271.515603 188.801782 
L 271.67797 194.012413 
L 271.759154 193.101328 
L 271.840338 196.934261 
L 272.08389 192.730375 
L 272.165074 193.27065 
L 272.246258 189.66862 
L 272.327442 190.266111 
L 272.408626 192.476479 
L 272.48981 192.367553 
L 272.570994 192.707634 
L 272.652178 194.862702 
L 272.733362 193.560722 
L 272.895729 196.702725 
L 272.976913 195.859779 
L 273.139281 187.925972 
L 273.382833 191.966698 
L 273.545201 193.667922 
L 273.626385 195.172594 
L 273.707569 194.314437 
L 273.788753 191.773009 
L 273.869937 192.091388 
L 274.032304 191.507551 
L 274.113488 188.842793 
L 274.35704 194.610407 
L 274.438224 196.723071 
L 274.600592 193.683022 
L 274.681776 197.911051 
L 274.844144 191.539469 
L 274.925328 192.644575 
L 275.006512 190.939144 
L 275.087696 194.627529 
L 275.168879 191.734614 
L 275.250063 194.005496 
L 275.331247 193.07336 
L 275.412431 196.459006 
L 275.493615 192.659243 
L 275.574799 196.472329 
L 275.737167 189.388574 
L 275.899535 191.886734 
L 275.980719 191.863864 
L 276.061903 189.956363 
L 276.143087 196.214876 
L 276.224271 195.817987 
L 276.63019 188.761544 
L 276.711374 188.74646 
L 276.954926 194.299571 
L 277.03611 194.613354 
L 277.117294 193.895622 
L 277.198478 191.569821 
L 277.279662 194.057812 
L 277.44203 191.253576 
L 277.523214 191.41632 
L 277.685581 189.992002 
L 277.929133 196.041517 
L 278.010317 197.101429 
L 278.172685 189.647842 
L 278.253869 190.296052 
L 278.416237 188.830759 
L 278.497421 192.137652 
L 278.578605 190.613652 
L 278.822156 196.217926 
L 278.90334 189.497171 
L 279.065708 194.658937 
L 279.228076 189.166285 
L 279.552812 195.960734 
L 279.71518 192.434938 
L 279.796364 193.601095 
L 279.958732 191.870534 
L 280.121099 187.403362 
L 280.527019 193.716938 
L 280.689387 192.121103 
L 280.770571 191.806425 
L 280.851755 188.230082 
L 280.932939 188.356227 
L 281.014123 187.052012 
L 281.17649 191.866877 
L 281.257674 190.757026 
L 281.501226 194.568154 
L 281.58241 194.019099 
L 281.663594 188.889288 
L 281.744778 189.924894 
L 281.825962 188.088716 
L 281.907146 190.022119 
L 281.98833 189.947489 
L 282.069514 188.344218 
L 282.231882 191.821981 
L 282.313066 191.414083 
L 282.394249 193.939141 
L 282.475433 193.58251 
L 282.637801 188.044435 
L 282.881353 192.027323 
L 282.962537 188.189679 
L 283.043721 197.195735 
L 283.206089 192.522473 
L 283.287273 195.446741 
L 283.449641 188.823687 
L 283.530825 188.27529 
L 283.612008 186.030365 
L 283.936744 194.898693 
L 284.017928 195.060026 
L 284.180296 191.303513 
L 284.505032 187.516906 
L 284.829767 197.066134 
L 284.910951 191.428519 
L 284.992135 191.585276 
L 285.073319 190.731181 
L 285.154503 185.779122 
L 285.235687 186.47774 
L 285.398055 189.121933 
L 285.479239 192.291209 
L 285.560423 191.404219 
L 285.641607 192.325852 
L 285.722791 189.492481 
L 285.885159 193.271834 
L 286.209894 187.448796 
L 286.453446 190.25316 
L 286.53463 189.325346 
L 286.696998 194.086041 
L 286.859366 186.157181 
L 286.94055 186.415154 
L 287.021734 187.459444 
L 287.102918 184.957399 
L 287.184101 191.244145 
L 287.265285 191.143019 
L 287.346469 188.861923 
L 287.508837 198.08963 
L 287.671205 190.108635 
L 287.914757 186.131567 
L 288.077125 191.036684 
L 288.158309 190.216469 
L 288.239493 190.17178 
L 288.320677 193.61716 
L 288.564228 187.704188 
L 288.645412 186.495023 
L 288.726596 187.711301 
L 288.80778 184.370093 
L 288.970148 193.394243 
L 289.051332 190.683058 
L 289.132516 193.361729 
L 289.294884 188.472985 
L 289.376068 190.411427 
L 289.538436 184.664538 
L 289.619619 185.227727 
L 289.781987 189.515157 
L 289.863171 187.404068 
L 290.106723 190.801428 
L 290.512643 184.140603 
L 290.837378 191.39797 
L 291.08093 187.594452 
L 291.162114 187.274625 
L 291.243298 185.94255 
L 291.324482 187.206001 
L 291.405666 185.916856 
L 291.48685 186.7682 
L 291.730402 194.256948 
L 291.973953 186.709167 
L 292.055137 188.485398 
L 292.136321 182.410542 
L 292.379873 187.792215 
L 292.461057 188.290871 
L 292.542241 192.00477 
L 292.623425 187.538809 
L 292.704609 187.896964 
L 292.785793 185.074715 
L 292.866977 187.496198 
L 292.948161 184.201471 
L 293.029345 185.263739 
L 293.110529 183.434488 
L 293.191712 189.022364 
L 293.272896 186.513166 
L 293.35408 195.861014 
L 293.435264 186.687666 
L 293.516448 187.610168 
L 293.597632 189.474605 
L 293.678816 184.750851 
L 293.76 184.802662 
L 293.841184 183.794718 
L 293.922368 184.269102 
L 294.16592 186.798144 
L 294.247104 191.334503 
L 294.328288 190.02829 
L 294.409471 190.807255 
L 294.734207 184.091815 
L 294.815391 184.422857 
L 294.896575 183.457966 
L 295.058943 188.367153 
L 295.140127 186.102177 
L 295.221311 190.704844 
L 295.302495 189.032742 
L 295.464863 184.843237 
L 295.546047 187.081909 
L 295.62723 181.337898 
L 295.708414 184.300202 
L 295.789598 184.104159 
L 295.870782 185.835711 
L 295.951966 191.047963 
L 296.03315 189.176601 
L 296.43907 181.33385 
L 296.520254 181.997499 
L 296.601438 181.864198 
L 296.682622 181.800585 
L 297.088541 188.705407 
L 297.169725 180.598461 
L 297.250909 181.491591 
L 297.413277 183.562955 
L 297.494461 182.709891 
L 297.656829 185.412238 
L 297.738013 184.782171 
L 297.819197 185.85087 
L 297.900381 184.911697 
L 297.981564 181.06075 
L 298.062748 182.391727 
L 298.143932 179.610931 
L 298.225116 172.491535 
L 298.3063 184.904879 
L 298.387484 182.575614 
L 298.468668 183.218738 
L 298.71222 190.248 
L 298.793404 184.904783 
L 298.874588 185.151479 
L 299.036956 181.46127 
L 299.11814 182.908127 
L 299.199323 181.497614 
L 299.605243 187.191002 
L 299.848795 179.467151 
L 299.929979 179.724754 
L 300.011163 179.516454 
L 300.335899 186.76562 
L 300.417082 183.464116 
L 300.498266 188.126993 
L 300.57945 184.596734 
L 300.660634 206.606665 
L 300.823002 178.851691 
L 300.98537 178.712131 
L 301.228922 186.262737 
L 301.310106 187.889216 
L 301.634841 179.305383 
L 301.716025 181.492177 
L 301.797209 176.79207 
L 302.040761 184.714891 
L 302.284313 180.633511 
L 302.446681 175.843233 
L 302.690233 179.615704 
L 302.8526 192.112996 
L 302.933784 181.278862 
L 303.014968 182.61111 
L 303.096152 189.081116 
L 303.25852 176.633429 
L 303.339704 177.298013 
L 303.502072 175.761134 
L 303.745624 181.189159 
L 304.232727 171.156156 
L 304.395095 178.854008 
L 304.476279 174.054214 
L 304.638647 181.875164 
L 304.719831 185.31521 
L 304.963383 174.346342 
L 305.044567 173.88733 
L 305.125751 170.366292 
L 305.206934 173.032674 
L 305.288118 181.710434 
L 305.53167 153.022293 
L 305.612854 190.163427 
L 305.694038 184.293914 
L 305.93759 175.165677 
L 306.099958 173.96733 
L 306.181142 176.765378 
L 306.262326 174.349713 
L 306.34351 176.967275 
L 306.424693 174.536757 
L 306.505877 177.976552 
L 306.587061 176.926615 
L 306.668245 173.635188 
L 306.749429 173.970133 
L 306.830613 174.142006 
L 306.911797 170.376154 
L 307.236533 181.205279 
L 307.398901 178.350039 
L 307.723636 164.205989 
L 307.886004 177.905875 
L 307.967188 170.269179 
L 308.048372 171.581509 
L 308.129556 172.847521 
L 308.21074 167.527697 
L 308.291924 169.472296 
L 308.454292 167.442853 
L 308.535476 167.886537 
L 308.697844 174.288334 
L 308.941395 185.172353 
L 309.103763 153.893891 
L 309.184947 171.186527 
L 309.266131 161.550857 
L 309.347315 165.120312 
L 309.509683 161.64767 
L 309.590867 161.288449 
L 309.915603 177.208472 
L 310.159154 151.885454 
L 310.240338 173.95953 
L 310.321522 167.198698 
L 310.402706 150.595903 
L 310.48389 154.398992 
L 310.808626 161.944622 
L 310.88981 162.984203 
L 311.458097 152.715185 
L 311.539281 156.234025 
L 311.620465 156.174291 
L 311.701649 155.34964 
L 311.782833 159.664868 
L 312.026385 153.77815 
L 312.513488 142.317492 
L 312.594672 134.582261 
L 312.675856 145.57254 
L 312.75704 138.607535 
L 312.838224 93.988489 
L 313.000592 153.462232 
L 313.081776 153.83694 
L 313.244144 201.460604 
L 313.568879 141.647053 
L 313.974799 111.766923 
L 314.137167 170.266139 
L 314.218351 140.020512 
L 314.380719 172.114933 
L 314.949006 122.953284 
L 315.03019 118.861749 
L 315.111374 123.440879 
L 315.192558 119.678832 
L 315.273742 66.148138 
L 315.43611 117.877038 
L 315.679662 133.785179 
L 315.923214 146.815389 
L 316.247949 121.966481 
L 316.410317 101.711303 
L 316.491501 164.411834 
L 316.572685 156.562162 
L 316.653869 130.614207 
L 316.897421 173.739765 
L 317.140973 131.85845 
L 317.465708 114.604853 
L 317.546892 118.479196 
L 317.628076 115.958115 
L 317.70926 59.136724 
L 317.871628 106.771003 
L 318.277548 133.241756 
L 318.521099 162.258253 
L 318.845835 113.645518 
L 318.927019 151.559892 
L 319.008203 131.075469 
L 319.089387 135.245291 
L 319.251755 162.702806 
L 319.332939 160.067158 
L 319.414123 161.453811 
L 319.901226 126.634795 
L 319.98241 130.739285 
L 320.063594 128.759321 
L 320.144778 68.315808 
L 320.307146 112.901451 
L 320.794249 143.197301 
L 321.037801 167.032694 
L 321.281353 143.482457 
L 321.362537 140.19569 
L 321.443721 128.918293 
L 321.687273 168.465844 
L 321.768457 164.137226 
L 322.012008 212.289286 
L 322.25556 171.251599 
L 322.336744 168.553756 
L 322.417928 170.341674 
L 322.499112 181.55192 
L 322.580296 100.032061 
L 322.742664 139.99907 
L 323.229767 155.759036 
L 323.473319 162.033647 
L 323.554503 160.597635 
L 323.716871 149.258057 
L 323.798055 153.57401 
L 323.879239 145.800999 
L 323.960423 172.133479 
L 324.041607 169.774459 
L 324.122791 178.620605 
L 324.203975 172.771376 
L 324.366342 186.75576 
L 324.52871 178.083153 
L 324.772262 162.546692 
L 324.853446 168.023711 
L 324.93463 165.936987 
L 325.015814 139.111823 
L 325.259366 213.472914 
L 325.34055 240.434455 
L 325.502918 193.627627 
L 325.746469 179.816486 
L 325.827653 180.664573 
L 325.908837 184.147325 
L 326.071205 207.14644 
L 326.152389 199.464212 
L 326.233573 209.87954 
L 326.395941 184.558985 
L 326.477125 184.502535 
L 326.558309 186.881431 
L 326.639493 179.594758 
L 326.720677 181.581552 
L 326.883044 188.653128 
L 326.964228 194.509043 
L 327.045412 193.397685 
L 327.20778 183.908391 
L 327.288964 188.411989 
L 327.370148 179.84018 
L 327.451332 154.982634 
L 327.6137 192.413701 
L 327.776068 210.268715 
L 327.938436 275.144178 
L 328.100803 206.290924 
L 328.263171 193.838037 
L 328.344355 197.004184 
L 328.506723 223.285428 
L 328.587907 181.911595 
L 328.669091 231.77274 
L 328.831459 193.875498 
L 328.912643 200.585983 
L 329.075011 191.265167 
L 329.237378 191.962533 
L 329.318562 193.371248 
L 329.399746 197.592589 
L 329.562114 240.697358 
L 329.724482 209.965195 
L 329.805666 206.272759 
L 329.88685 176.118105 
L 329.968034 180.544725 
L 330.211586 187.437522 
L 330.536321 218.600057 
L 330.617505 209.54627 
L 330.861057 189.489297 
L 330.942241 187.913807 
L 331.023425 189.555556 
L 331.185793 194.854413 
L 331.348161 236.382711 
L 331.835264 197.260785 
L 332.241184 230.274746 
L 332.322368 204.563215 
L 332.403552 223.107266 
L 332.484736 204.491749 
L 332.56592 209.022124 
L 332.647104 200.167213 
L 333.053023 230.5067 
L 333.134207 252.287519 
L 333.377759 197.132823 
L 333.458943 210.337833 
L 333.621311 193.707264 
L 333.702495 220.964077 
L 333.783679 218.814726 
L 333.864863 217.028909 
L 334.02723 247.745681 
L 334.189598 212.821163 
L 334.270782 211.34 
L 334.351966 205.742898 
L 334.43315 208.101537 
L 334.514334 200.60284 
L 334.595518 212.563395 
L 334.676702 212.505073 
L 334.757886 200.933171 
L 334.83907 242.345523 
L 334.920254 226.317275 
L 335.001438 243.470842 
L 335.163805 209.856355 
L 335.244989 209.691616 
L 335.407357 213.857572 
L 335.488541 233.715032 
L 335.569725 224.873062 
L 335.732093 235.683562 
L 335.813277 223.96028 
L 335.894461 264.662744 
L 336.056829 215.809293 
L 336.138013 205.076656 
L 336.381564 230.307076 
L 336.462748 236.127924 
L 336.625116 253.907486 
L 336.787484 221.027309 
L 337.031036 217.166799 
L 337.11222 222.010439 
L 337.193404 215.160017 
L 337.355772 251.563926 
L 337.51814 237.000642 
L 337.761691 211.937813 
L 337.924059 226.485054 
L 338.005243 222.85372 
L 338.248795 236.899389 
L 338.329979 227.576539 
L 338.411163 238.094001 
L 338.492347 220.241218 
L 338.573531 224.077699 
L 338.654715 215.331297 
L 338.735899 229.926742 
L 338.817082 229.569797 
L 338.97945 236.667164 
L 339.060634 273.420007 
L 339.141818 235.717959 
L 339.223002 272.799948 
L 339.38537 237.008267 
L 339.466554 240.362814 
L 339.628922 220.74756 
L 339.79129 237.001314 
L 339.872474 235.258747 
L 339.953658 271.077331 
L 340.197209 237.602262 
L 340.440761 218.182481 
L 340.603129 230.076656 
L 340.684313 228.596747 
L 340.927865 261.947031 
L 341.009049 231.625383 
L 341.090233 238.57844 
L 341.171416 221.512101 
L 341.333784 232.660224 
L 341.414968 219.799423 
L 341.496152 227.633637 
L 341.577336 252.507035 
L 341.65852 230.723085 
L 341.739704 232.598795 
L 341.820888 243.949639 
L 342.06444 214.176009 
L 342.145624 257.140056 
L 342.307992 228.733371 
L 342.389175 232.357686 
L 342.551543 227.708692 
L 342.795095 235.613097 
L 342.876279 235.282454 
L 342.957463 232.327925 
L 343.038647 245.840007 
L 343.119831 231.618711 
L 343.201015 239.323598 
L 343.282199 223.160929 
L 343.606934 256.619531 
L 343.688118 236.42157 
L 343.769302 241.000794 
L 343.850486 225.387088 
L 344.094038 242.689218 
L 344.175222 222.188866 
L 344.256406 244.630072 
L 344.33759 229.668381 
L 344.581142 261.326778 
L 344.662326 233.107364 
L 344.74351 234.092326 
L 344.824693 228.753398 
L 344.905877 229.754417 
L 344.987061 237.750981 
L 345.068245 232.700224 
L 345.149429 243.982214 
L 345.230613 228.93575 
L 345.311797 229.493426 
L 345.392981 248.367717 
L 345.474165 235.343822 
L 345.636533 257.96498 
L 345.717717 223.569052 
L 345.880085 249.330412 
L 345.961268 230.954291 
L 346.042452 237.473326 
L 346.20482 227.562373 
L 346.367188 270.901504 
L 346.529556 224.102462 
L 346.61074 250.054936 
L 346.773108 225.050916 
L 346.935476 235.080208 
L 347.01666 226.087693 
L 347.097844 263.954704 
L 347.179027 251.756166 
L 347.260211 261.592838 
L 347.503763 226.670853 
L 347.584947 229.401856 
L 347.666131 225.180739 
L 347.747315 226.666954 
L 347.828499 233.312689 
L 347.909683 226.758679 
L 348.072051 261.309578 
L 348.234419 227.141113 
L 348.396786 245.923169 
L 348.559154 216.764104 
L 348.640338 225.503787 
L 348.721522 217.89203 
L 348.802706 234.465866 
L 348.88389 226.32033 
L 349.046258 245.380179 
L 349.127442 242.019293 
L 349.208626 264.000478 
L 349.28981 225.408804 
L 349.370994 245.564322 
L 349.533362 220.617806 
L 349.614545 222.050778 
L 349.695729 228.276669 
L 349.776913 256.276259 
L 349.858097 233.916655 
L 350.020465 272.183054 
L 350.182833 225.578545 
L 350.264017 222.460781 
L 350.345201 225.750853 
L 350.426385 225.633226 
L 350.507569 226.884838 
L 350.588753 225.238367 
L 350.669937 237.797147 
L 350.832304 288.409173 
L 351.15704 219.920231 
L 351.319408 232.820816 
L 351.400592 232.724615 
L 351.644144 259.150306 
L 351.806512 231.821477 
L 351.887696 233.670829 
L 352.050063 227.487347 
L 352.131247 220.100894 
L 352.212431 223.532951 
L 352.455983 246.488148 
L 352.537167 276.860348 
L 352.780719 226.325827 
L 352.861903 219.680915 
L 352.943087 227.814819 
L 353.024271 223.449163 
L 353.186638 237.978409 
L 353.349006 295.488 
L 353.592558 225.753555 
L 353.754926 234.769409 
L 353.83611 222.067753 
L 353.917294 222.376851 
L 353.998478 229.779591 
L 354.079662 225.604796 
L 354.24203 259.685958 
L 354.485581 222.552905 
L 354.566765 218.579721 
L 354.647949 229.034866 
L 354.729133 222.749309 
L 354.891501 228.939838 
L 355.053869 252.27728 
L 355.216237 236.609696 
L 355.297421 236.39083 
L 355.622156 219.822197 
L 355.784524 229.386273 
L 355.946892 257.339454 
L 356.10926 229.049767 
L 356.190444 222.75708 
L 356.271628 233.259215 
L 356.352812 230.20213 
L 356.51518 212.573436 
L 356.596364 231.803235 
L 356.677548 291.213614 
L 356.758732 233.785257 
L 356.839915 241.993533 
L 356.921099 227.099472 
L 357.002283 227.890038 
L 357.164651 233.956736 
L 357.245835 215.866949 
L 357.327019 235.702944 
L 357.408203 227.578657 
L 357.570571 249.718182 
L 357.732939 231.869169 
L 357.814123 239.3137 
L 357.97649 221.505391 
L 358.057674 218.542046 
L 358.138858 223.948854 
L 358.220042 216.060011 
L 358.301226 235.112382 
L 358.38241 231.702229 
L 358.544778 242.981506 
L 358.625962 243.739403 
L 358.707146 237.61614 
L 358.78833 217.777865 
L 358.950698 228.295718 
L 359.031882 217.392841 
L 359.437801 243.108909 
L 359.762537 217.037761 
L 359.843721 219.119641 
L 360.087273 239.288146 
L 360.168457 231.155909 
L 360.249641 241.76675 
L 360.330825 232.370429 
L 360.412008 243.006867 
L 360.736744 215.616433 
L 360.980296 237.407338 
L 361.305032 220.180088 
L 361.386216 242.014957 
L 361.548584 219.79578 
L 361.629767 219.643519 
L 361.792135 228.274354 
L 362.035687 248.968246 
L 362.198055 214.102415 
L 362.522791 233.019414 
L 362.685159 235.029337 
L 362.766342 258.505695 
L 362.847526 216.086988 
L 362.92871 230.956953 
L 363.172262 214.909252 
L 363.253446 223.051042 
L 363.33463 221.401791 
L 363.415814 219.135767 
L 363.496998 219.505719 
L 363.659366 240.269942 
L 363.74055 236.578215 
L 363.821734 215.541196 
L 363.902918 235.720916 
L 364.065285 216.334893 
L 364.146469 222.058878 
L 364.227653 215.326425 
L 364.471205 225.4156 
L 364.552389 250.94691 
L 364.795941 221.551003 
L 364.877125 221.608098 
L 365.039493 213.358777 
L 365.20186 232.020331 
L 365.364228 217.540971 
L 365.526596 254.959654 
L 365.688964 217.537829 
L 365.770148 221.461823 
L 365.932516 218.135411 
L 366.176068 230.63043 
L 366.257252 258.331842 
L 366.338436 231.424894 
L 366.419619 247.781867 
L 366.663171 216.290278 
L 366.744355 213.599067 
L 366.825539 216.261749 
L 366.906723 237.915024 
L 367.069091 222.534052 
L 367.231459 235.436855 
L 367.475011 211.46979 
L 367.556195 211.948314 
L 367.637378 226.635458 
L 367.799746 218.919436 
L 368.043298 239.159009 
L 368.28685 214.80892 
L 368.368034 219.098824 
L 368.449218 231.117618 
L 368.530402 217.168257 
L 368.611586 230.228832 
L 368.69277 216.877464 
L 368.936321 271.021677 
L 369.017505 216.748307 
L 369.098689 225.911124 
L 369.179873 213.543855 
L 369.261057 217.505561 
L 369.342241 216.43128 
L 369.423425 219.675776 
L 369.504609 217.452895 
L 369.748161 251.168894 
L 369.910529 222.395174 
L 370.072896 218.386779 
L 370.15408 220.243114 
L 370.235264 214.910292 
L 370.316448 231.585169 
L 370.397632 229.21526 
L 370.56 221.027898 
L 370.641184 272.074922 
L 370.803552 217.98967 
L 370.884736 216.25259 
L 370.96592 210.013846 
L 371.453023 234.086596 
L 371.534207 225.243589 
L 371.615391 230.666552 
L 372.102495 209.969513 
L 372.183679 234.560527 
L 372.264863 223.649405 
L 372.346047 231.375231 
L 372.42723 230.352727 
L 372.508414 222.115067 
L 372.589598 225.560535 
L 372.751966 214.443553 
L 372.83315 223.567207 
L 372.914334 218.61508 
L 373.157886 239.622305 
L 373.482622 214.804863 
L 373.563805 213.718408 
L 373.726173 216.706677 
L 373.807357 226.871917 
L 373.888541 222.097722 
L 373.969725 227.794412 
L 374.213277 213.624031 
L 374.294461 215.599605 
L 374.375645 217.951594 
L 374.456829 210.04301 
L 374.700381 220.700645 
L 374.781564 221.503186 
L 374.943932 245.697424 
L 375.187484 214.81063 
L 375.268668 226.737953 
L 375.349852 209.530855 
L 375.51222 227.933093 
L 375.593404 222.297606 
L 375.674588 224.205504 
L 375.755772 225.85278 
L 375.999323 221.456354 
L 376.080507 221.041647 
L 376.161691 222.530326 
L 376.242875 213.714453 
L 376.648795 232.73841 
L 376.729979 248.876617 
L 376.892347 222.796274 
L 376.973531 215.768641 
L 377.054715 216.330592 
L 377.135899 213.825511 
L 377.217082 219.750358 
L 377.298266 216.837161 
L 377.541818 239.201975 
L 377.866554 216.809724 
L 377.947738 215.041935 
L 378.028922 219.57274 
L 378.110106 214.446277 
L 378.19129 219.135244 
L 378.272474 217.382143 
L 378.434841 230.207725 
L 378.597209 217.989693 
L 378.678393 219.361427 
L 378.759577 210.396291 
L 378.921945 217.707898 
L 379.084313 221.759132 
L 379.165497 269.686781 
L 379.327865 218.972246 
L 379.409049 219.132558 
L 379.490233 215.12454 
L 379.571416 225.718974 
L 379.6526 220.95483 
L 379.733784 206.828961 
L 379.814968 226.452128 
L 379.896152 219.02761 
L 379.977336 231.16612 
L 380.05852 227.810666 
L 380.220888 221.21362 
L 380.302072 227.011797 
L 380.383256 216.053902 
L 380.46444 220.706505 
L 380.545624 212.05687 
L 380.707992 223.315495 
L 380.789175 224.382787 
L 380.951543 218.888857 
L 381.032727 234.819048 
L 381.113911 216.335928 
L 381.195095 216.754244 
L 381.276279 215.171144 
L 381.438647 219.749534 
L 381.519831 215.418336 
L 381.763383 229.627214 
L 381.844567 227.182862 
L 382.088118 214.384089 
L 382.169302 210.299896 
L 382.250486 211.37845 
L 382.33167 213.756516 
L 382.412854 204.685898 
L 382.575222 236.84772 
L 382.656406 226.512514 
L 382.73759 237.136466 
L 382.818774 217.144051 
L 382.899958 224.505191 
L 383.062326 212.242034 
L 383.14351 224.595533 
L 383.224693 213.01651 
L 383.305877 213.260408 
L 383.468245 232.802741 
L 383.630613 222.270127 
L 383.711797 227.910877 
L 383.792981 213.908652 
L 383.874165 216.931665 
L 384.036533 209.857799 
L 384.117717 223.803911 
L 384.198901 220.939697 
L 384.280085 227.604874 
L 384.361268 245.290154 
L 384.442452 223.967456 
L 384.523636 226.814853 
L 384.848372 209.145674 
L 384.929556 214.851857 
L 385.01074 208.174393 
L 385.091924 230.006251 
L 385.173108 215.543542 
L 385.254292 219.200037 
L 385.335476 222.129106 
L 385.660211 207.95134 
L 385.741395 223.05555 
L 385.822579 208.323913 
L 385.903763 229.71035 
L 386.066131 219.717534 
L 386.147315 241.211079 
L 386.228499 233.929646 
L 386.472051 214.406415 
L 386.553235 215.32325 
L 386.634419 211.661204 
L 386.715603 216.206604 
L 386.796786 212.076333 
L 386.959154 227.963752 
L 387.040338 203.857627 
L 387.121522 248.049611 
L 387.28389 221.435821 
L 387.365074 218.526236 
L 387.446258 223.652498 
L 387.527442 220.571814 
L 387.608626 221.579926 
L 387.68981 222.619628 
L 387.770994 219.175805 
L 387.852178 223.352746 
L 387.933362 248.102753 
L 388.014545 224.921045 
L 388.095729 241.948537 
L 388.176913 205.576764 
L 388.258097 216.613495 
L 388.339281 228.885798 
L 388.420465 211.389575 
L 388.501649 216.053738 
L 388.582833 208.124013 
L 388.826385 235.347715 
L 389.069937 219.166504 
L 389.151121 218.819334 
L 389.232304 211.016588 
L 389.394672 236.218038 
L 389.475856 213.878575 
L 389.55704 224.31014 
L 389.719408 209.39681 
L 389.800592 213.35772 
L 389.881776 208.070017 
L 389.96296 212.988301 
L 390.044144 210.558608 
L 390.125328 215.099071 
L 390.206512 212.149176 
L 390.368879 235.621912 
L 390.612431 205.80682 
L 390.693615 219.656115 
L 390.774799 207.163157 
L 390.855983 208.88088 
L 391.018351 210.689557 
L 391.180719 216.618822 
L 391.261903 213.784911 
L 391.343087 222.327142 
L 391.424271 219.814919 
L 391.505455 219.001313 
L 391.586638 219.29567 
L 391.749006 204.816378 
L 391.83019 205.730193 
L 391.911374 210.612062 
L 391.992558 195.698806 
L 392.23611 208.771839 
L 392.317294 209.954808 
L 392.398478 207.584069 
L 392.479662 207.727911 
L 392.560846 199.468555 
L 392.64203 200.694835 
L 393.047949 182.863653 
L 393.129133 211.716748 
L 393.210317 205.839407 
L 393.291501 228.215497 
L 393.372685 208.465346 
L 393.453869 217.57364 
L 393.535053 212.577441 
L 393.616237 213.086639 
L 393.697421 210.198438 
L 393.778605 215.529659 
L 394.022156 199.84287 
L 394.10334 202.285918 
L 394.265708 198.493019 
L 394.346892 162.581056 
L 394.590444 208.847204 
L 394.752812 227.700879 
L 395.483467 159.316709 
L 395.564651 208.597561 
L 395.645835 205.488253 
L 395.727019 205.598007 
L 395.889387 218.242022 
L 395.970571 216.504096 
L 396.051755 218.410449 
L 396.214123 195.963857 
L 396.295307 194.963339 
L 396.538858 189.041915 
L 396.620042 204.330096 
L 396.701226 194.805148 
L 396.78241 143.366161 
L 397.025962 181.627392 
L 397.269514 194.203183 
L 397.756617 177.169593 
L 397.918985 144.904385 
L 398.081353 203.663056 
L 398.162537 189.173931 
L 398.324905 200.713143 
L 398.406089 200.885061 
L 398.487273 202.206188 
L 398.487273 202.206188 
" style="fill:none;stroke:#1f77b4;stroke-linecap:square;stroke-width:1.5;"/>
   </g>
   <g id="patch_3">
    <path d="M 57.6 307.584 
L 57.6 41.472 
" style="fill:none;stroke:#000000;stroke-linecap:square;stroke-linejoin:miter;stroke-width:0.8;"/>
   </g>
   <g id="patch_4">
    <path d="M 414.72 307.584 
L 414.72 41.472 
" style="fill:none;stroke:#000000;stroke-linecap:square;stroke-linejoin:miter;stroke-width:0.8;"/>
   </g>
   <g id="patch_5">
    <path d="M 57.6 307.584 
L 414.72 307.584 
" style="fill:none;stroke:#000000;stroke-linecap:square;stroke-linejoin:miter;stroke-width:0.8;"/>
   </g>
   <g id="patch_6">
    <path d="M 57.6 41.472 
L 414.72 41.472 
" style="fill:none;stroke:#000000;stroke-linecap:square;stroke-linejoin:miter;stroke-width:0.8;"/>
   </g>
   <g id="text_17">
    <!-- AM frequency domain -->
    <g transform="translate(170.502187 35.472)scale(0.12 -0.12)">
     <defs>
      <path d="M 2188 4044 
L 1331 1722 
L 3047 1722 
L 2188 4044 
z
M 1831 4666 
L 2547 4666 
L 4325 0 
L 3669 0 
L 3244 1197 
L 1141 1197 
L 716 0 
L 50 0 
L 1831 4666 
z
" id="DejaVuSans-41" transform="scale(0.015625)"/>
      <path d="M 628 4666 
L 1569 4666 
L 2759 1491 
L 3956 4666 
L 4897 4666 
L 4897 0 
L 4281 0 
L 4281 4097 
L 3078 897 
L 2444 897 
L 1241 4097 
L 1241 0 
L 628 0 
L 628 4666 
z
" id="DejaVuSans-4d" transform="scale(0.015625)"/>
      <path d="M 1959 3097 
Q 1497 3097 1228 2736 
Q 959 2375 959 1747 
Q 959 1119 1226 758 
Q 1494 397 1959 397 
Q 2419 397 2687 759 
Q 2956 1122 2956 1747 
Q 2956 2369 2687 2733 
Q 2419 3097 1959 3097 
z
M 1959 3584 
Q 2709 3584 3137 3096 
Q 3566 2609 3566 1747 
Q 3566 888 3137 398 
Q 2709 -91 1959 -91 
Q 1206 -91 779 398 
Q 353 888 353 1747 
Q 353 2609 779 3096 
Q 1206 3584 1959 3584 
z
" id="DejaVuSans-6f" transform="scale(0.015625)"/>
     </defs>
     <use xlink:href="#DejaVuSans-41"/>
     <use x="68.408203" xlink:href="#DejaVuSans-4d"/>
     <use x="154.6875" xlink:href="#DejaVuSans-20"/>
     <use x="186.474609" xlink:href="#DejaVuSans-66"/>
     <use x="221.679688" xlink:href="#DejaVuSans-72"/>
     <use x="260.542969" xlink:href="#DejaVuSans-65"/>
     <use x="322.066406" xlink:href="#DejaVuSans-71"/>
     <use x="385.542969" xlink:href="#DejaVuSans-75"/>
     <use x="448.921875" xlink:href="#DejaVuSans-65"/>
     <use x="510.445312" xlink:href="#DejaVuSans-6e"/>
     <use x="573.824219" xlink:href="#DejaVuSans-63"/>
     <use x="628.804688" xlink:href="#DejaVuSans-79"/>
     <use x="687.984375" xlink:href="#DejaVuSans-20"/>
     <use x="719.771484" xlink:href="#DejaVuSans-64"/>
     <use x="783.248047" xlink:href="#DejaVuSans-6f"/>
     <use x="844.429688" xlink:href="#DejaVuSans-6d"/>
     <use x="941.841797" xlink:href="#DejaVuSans-61"/>
     <use x="1003.121094" xlink:href="#DejaVuSans-69"/>
     <use x="1030.904297" xlink:href="#DejaVuSans-6e"/>
    </g>
   </g>
  </g>
 </g>
 <defs>
  <clipPath id="pd6362d6550">
   <rect height="266.112" width="357.12" x="57.6" y="41.472"/>
  </clipPath>
 </defs>
</svg>
