<?xml version="1.0" encoding="utf-8" standalone="no"?>
<!DOCTYPE svg PUBLIC "-//W3C//DTD SVG 1.1//EN"
  "http://www.w3.org/Graphics/SVG/1.1/DTD/svg11.dtd">
<svg height="345.6pt" version="1.1" viewBox="0 0 460.8 345.6" width="460.8pt" xmlns="http://www.w3.org/2000/svg" xmlns:xlink="http://www.w3.org/1999/xlink">
 <metadata>
  <rdf:RDF xmlns:cc="http://creativecommons.org/ns#" xmlns:dc="http://purl.org/dc/elements/1.1/" xmlns:rdf="http://www.w3.org/1999/02/22-rdf-syntax-ns#">
   <cc:Work>
    <dc:type rdf:resource="http://purl.org/dc/dcmitype/StillImage"/>
    <dc:date>2021-11-04T01:54:30.490158</dc:date>
    <dc:format>image/svg+xml</dc:format>
    <dc:creator>
     <cc:Agent>
      <dc:title>Matplotlib v3.4.3, https://matplotlib.org/</dc:title>
     </cc:Agent>
    </dc:creator>
   </cc:Work>
  </rdf:RDF>
 </metadata>
 <defs>
  <style type="text/css">*{stroke-linecap:butt;stroke-linejoin:round;}</style>
 </defs>
 <g id="figure_1">
  <g id="patch_1">
   <path d="M 0 345.6 
L 460.8 345.6 
L 460.8 0 
L 0 0 
z
" style="fill:#ffffff;"/>
  </g>
  <g id="axes_1">
   <g id="patch_2">
    <path d="M 57.6 307.584 
L 414.72 307.584 
L 414.72 41.472 
L 57.6 41.472 
z
" style="fill:#ffffff;"/>
   </g>
   <g id="matplotlib.axis_1">
    <g id="xtick_1">
     <g id="line2d_1">
      <defs>
       <path d="M 0 0 
L 0 3.5 
" id="md02b930d3b" style="stroke:#000000;stroke-width:0.8;"/>
      </defs>
      <g>
       <use style="stroke:#000000;stroke-width:0.8;" x="73.784017" xlink:href="#md02b930d3b" y="307.584"/>
      </g>
     </g>
     <g id="text_1">
      <!-- 300 -->
      <g transform="translate(64.240267 322.182437)scale(0.1 -0.1)">
       <defs>
        <path d="M 2597 2516 
Q 3050 2419 3304 2112 
Q 3559 1806 3559 1356 
Q 3559 666 3084 287 
Q 2609 -91 1734 -91 
Q 1441 -91 1130 -33 
Q 819 25 488 141 
L 488 750 
Q 750 597 1062 519 
Q 1375 441 1716 441 
Q 2309 441 2620 675 
Q 2931 909 2931 1356 
Q 2931 1769 2642 2001 
Q 2353 2234 1838 2234 
L 1294 2234 
L 1294 2753 
L 1863 2753 
Q 2328 2753 2575 2939 
Q 2822 3125 2822 3475 
Q 2822 3834 2567 4026 
Q 2313 4219 1838 4219 
Q 1578 4219 1281 4162 
Q 984 4106 628 3988 
L 628 4550 
Q 988 4650 1302 4700 
Q 1616 4750 1894 4750 
Q 2613 4750 3031 4423 
Q 3450 4097 3450 3541 
Q 3450 3153 3228 2886 
Q 3006 2619 2597 2516 
z
" id="DejaVuSans-33" transform="scale(0.015625)"/>
        <path d="M 2034 4250 
Q 1547 4250 1301 3770 
Q 1056 3291 1056 2328 
Q 1056 1369 1301 889 
Q 1547 409 2034 409 
Q 2525 409 2770 889 
Q 3016 1369 3016 2328 
Q 3016 3291 2770 3770 
Q 2525 4250 2034 4250 
z
M 2034 4750 
Q 2819 4750 3233 4129 
Q 3647 3509 3647 2328 
Q 3647 1150 3233 529 
Q 2819 -91 2034 -91 
Q 1250 -91 836 529 
Q 422 1150 422 2328 
Q 422 3509 836 4129 
Q 1250 4750 2034 4750 
z
" id="DejaVuSans-30" transform="scale(0.015625)"/>
       </defs>
       <use xlink:href="#DejaVuSans-33"/>
       <use x="63.623047" xlink:href="#DejaVuSans-30"/>
       <use x="127.246094" xlink:href="#DejaVuSans-30"/>
      </g>
     </g>
    </g>
    <g id="xtick_2">
     <g id="line2d_2">
      <g>
       <use style="stroke:#000000;stroke-width:0.8;" x="114.371924" xlink:href="#md02b930d3b" y="307.584"/>
      </g>
     </g>
     <g id="text_2">
      <!-- 325 -->
      <g transform="translate(104.828174 322.182437)scale(0.1 -0.1)">
       <defs>
        <path d="M 1228 531 
L 3431 531 
L 3431 0 
L 469 0 
L 469 531 
Q 828 903 1448 1529 
Q 2069 2156 2228 2338 
Q 2531 2678 2651 2914 
Q 2772 3150 2772 3378 
Q 2772 3750 2511 3984 
Q 2250 4219 1831 4219 
Q 1534 4219 1204 4116 
Q 875 4013 500 3803 
L 500 4441 
Q 881 4594 1212 4672 
Q 1544 4750 1819 4750 
Q 2544 4750 2975 4387 
Q 3406 4025 3406 3419 
Q 3406 3131 3298 2873 
Q 3191 2616 2906 2266 
Q 2828 2175 2409 1742 
Q 1991 1309 1228 531 
z
" id="DejaVuSans-32" transform="scale(0.015625)"/>
        <path d="M 691 4666 
L 3169 4666 
L 3169 4134 
L 1269 4134 
L 1269 2991 
Q 1406 3038 1543 3061 
Q 1681 3084 1819 3084 
Q 2600 3084 3056 2656 
Q 3513 2228 3513 1497 
Q 3513 744 3044 326 
Q 2575 -91 1722 -91 
Q 1428 -91 1123 -41 
Q 819 9 494 109 
L 494 744 
Q 775 591 1075 516 
Q 1375 441 1709 441 
Q 2250 441 2565 725 
Q 2881 1009 2881 1497 
Q 2881 1984 2565 2268 
Q 2250 2553 1709 2553 
Q 1456 2553 1204 2497 
Q 953 2441 691 2322 
L 691 4666 
z
" id="DejaVuSans-35" transform="scale(0.015625)"/>
       </defs>
       <use xlink:href="#DejaVuSans-33"/>
       <use x="63.623047" xlink:href="#DejaVuSans-32"/>
       <use x="127.246094" xlink:href="#DejaVuSans-35"/>
      </g>
     </g>
    </g>
    <g id="xtick_3">
     <g id="line2d_3">
      <g>
       <use style="stroke:#000000;stroke-width:0.8;" x="154.959831" xlink:href="#md02b930d3b" y="307.584"/>
      </g>
     </g>
     <g id="text_3">
      <!-- 350 -->
      <g transform="translate(145.416081 322.182437)scale(0.1 -0.1)">
       <use xlink:href="#DejaVuSans-33"/>
       <use x="63.623047" xlink:href="#DejaVuSans-35"/>
       <use x="127.246094" xlink:href="#DejaVuSans-30"/>
      </g>
     </g>
    </g>
    <g id="xtick_4">
     <g id="line2d_4">
      <g>
       <use style="stroke:#000000;stroke-width:0.8;" x="195.547738" xlink:href="#md02b930d3b" y="307.584"/>
      </g>
     </g>
     <g id="text_4">
      <!-- 375 -->
      <g transform="translate(186.003988 322.182437)scale(0.1 -0.1)">
       <defs>
        <path d="M 525 4666 
L 3525 4666 
L 3525 4397 
L 1831 0 
L 1172 0 
L 2766 4134 
L 525 4134 
L 525 4666 
z
" id="DejaVuSans-37" transform="scale(0.015625)"/>
       </defs>
       <use xlink:href="#DejaVuSans-33"/>
       <use x="63.623047" xlink:href="#DejaVuSans-37"/>
       <use x="127.246094" xlink:href="#DejaVuSans-35"/>
      </g>
     </g>
    </g>
    <g id="xtick_5">
     <g id="line2d_5">
      <g>
       <use style="stroke:#000000;stroke-width:0.8;" x="236.135645" xlink:href="#md02b930d3b" y="307.584"/>
      </g>
     </g>
     <g id="text_5">
      <!-- 400 -->
      <g transform="translate(226.591895 322.182437)scale(0.1 -0.1)">
       <defs>
        <path d="M 2419 4116 
L 825 1625 
L 2419 1625 
L 2419 4116 
z
M 2253 4666 
L 3047 4666 
L 3047 1625 
L 3713 1625 
L 3713 1100 
L 3047 1100 
L 3047 0 
L 2419 0 
L 2419 1100 
L 313 1100 
L 313 1709 
L 2253 4666 
z
" id="DejaVuSans-34" transform="scale(0.015625)"/>
       </defs>
       <use xlink:href="#DejaVuSans-34"/>
       <use x="63.623047" xlink:href="#DejaVuSans-30"/>
       <use x="127.246094" xlink:href="#DejaVuSans-30"/>
      </g>
     </g>
    </g>
    <g id="xtick_6">
     <g id="line2d_6">
      <g>
       <use style="stroke:#000000;stroke-width:0.8;" x="276.723552" xlink:href="#md02b930d3b" y="307.584"/>
      </g>
     </g>
     <g id="text_6">
      <!-- 425 -->
      <g transform="translate(267.179802 322.182437)scale(0.1 -0.1)">
       <use xlink:href="#DejaVuSans-34"/>
       <use x="63.623047" xlink:href="#DejaVuSans-32"/>
       <use x="127.246094" xlink:href="#DejaVuSans-35"/>
      </g>
     </g>
    </g>
    <g id="xtick_7">
     <g id="line2d_7">
      <g>
       <use style="stroke:#000000;stroke-width:0.8;" x="317.311459" xlink:href="#md02b930d3b" y="307.584"/>
      </g>
     </g>
     <g id="text_7">
      <!-- 450 -->
      <g transform="translate(307.767709 322.182437)scale(0.1 -0.1)">
       <use xlink:href="#DejaVuSans-34"/>
       <use x="63.623047" xlink:href="#DejaVuSans-35"/>
       <use x="127.246094" xlink:href="#DejaVuSans-30"/>
      </g>
     </g>
    </g>
    <g id="xtick_8">
     <g id="line2d_8">
      <g>
       <use style="stroke:#000000;stroke-width:0.8;" x="357.899366" xlink:href="#md02b930d3b" y="307.584"/>
      </g>
     </g>
     <g id="text_8">
      <!-- 475 -->
      <g transform="translate(348.355616 322.182437)scale(0.1 -0.1)">
       <use xlink:href="#DejaVuSans-34"/>
       <use x="63.623047" xlink:href="#DejaVuSans-37"/>
       <use x="127.246094" xlink:href="#DejaVuSans-35"/>
      </g>
     </g>
    </g>
    <g id="xtick_9">
     <g id="line2d_9">
      <g>
       <use style="stroke:#000000;stroke-width:0.8;" x="398.487273" xlink:href="#md02b930d3b" y="307.584"/>
      </g>
     </g>
     <g id="text_9">
      <!-- 500 -->
      <g transform="translate(388.943523 322.182437)scale(0.1 -0.1)">
       <use xlink:href="#DejaVuSans-35"/>
       <use x="63.623047" xlink:href="#DejaVuSans-30"/>
       <use x="127.246094" xlink:href="#DejaVuSans-30"/>
      </g>
     </g>
    </g>
    <g id="text_10">
     <!-- time [ms] -->
     <g transform="translate(211.898281 335.860562)scale(0.1 -0.1)">
      <defs>
       <path d="M 1172 4494 
L 1172 3500 
L 2356 3500 
L 2356 3053 
L 1172 3053 
L 1172 1153 
Q 1172 725 1289 603 
Q 1406 481 1766 481 
L 2356 481 
L 2356 0 
L 1766 0 
Q 1100 0 847 248 
Q 594 497 594 1153 
L 594 3053 
L 172 3053 
L 172 3500 
L 594 3500 
L 594 4494 
L 1172 4494 
z
" id="DejaVuSans-74" transform="scale(0.015625)"/>
       <path d="M 603 3500 
L 1178 3500 
L 1178 0 
L 603 0 
L 603 3500 
z
M 603 4863 
L 1178 4863 
L 1178 4134 
L 603 4134 
L 603 4863 
z
" id="DejaVuSans-69" transform="scale(0.015625)"/>
       <path d="M 3328 2828 
Q 3544 3216 3844 3400 
Q 4144 3584 4550 3584 
Q 5097 3584 5394 3201 
Q 5691 2819 5691 2113 
L 5691 0 
L 5113 0 
L 5113 2094 
Q 5113 2597 4934 2840 
Q 4756 3084 4391 3084 
Q 3944 3084 3684 2787 
Q 3425 2491 3425 1978 
L 3425 0 
L 2847 0 
L 2847 2094 
Q 2847 2600 2669 2842 
Q 2491 3084 2119 3084 
Q 1678 3084 1418 2786 
Q 1159 2488 1159 1978 
L 1159 0 
L 581 0 
L 581 3500 
L 1159 3500 
L 1159 2956 
Q 1356 3278 1631 3431 
Q 1906 3584 2284 3584 
Q 2666 3584 2933 3390 
Q 3200 3197 3328 2828 
z
" id="DejaVuSans-6d" transform="scale(0.015625)"/>
       <path d="M 3597 1894 
L 3597 1613 
L 953 1613 
Q 991 1019 1311 708 
Q 1631 397 2203 397 
Q 2534 397 2845 478 
Q 3156 559 3463 722 
L 3463 178 
Q 3153 47 2828 -22 
Q 2503 -91 2169 -91 
Q 1331 -91 842 396 
Q 353 884 353 1716 
Q 353 2575 817 3079 
Q 1281 3584 2069 3584 
Q 2775 3584 3186 3129 
Q 3597 2675 3597 1894 
z
M 3022 2063 
Q 3016 2534 2758 2815 
Q 2500 3097 2075 3097 
Q 1594 3097 1305 2825 
Q 1016 2553 972 2059 
L 3022 2063 
z
" id="DejaVuSans-65" transform="scale(0.015625)"/>
       <path id="DejaVuSans-20" transform="scale(0.015625)"/>
       <path d="M 550 4863 
L 1875 4863 
L 1875 4416 
L 1125 4416 
L 1125 -397 
L 1875 -397 
L 1875 -844 
L 550 -844 
L 550 4863 
z
" id="DejaVuSans-5b" transform="scale(0.015625)"/>
       <path d="M 2834 3397 
L 2834 2853 
Q 2591 2978 2328 3040 
Q 2066 3103 1784 3103 
Q 1356 3103 1142 2972 
Q 928 2841 928 2578 
Q 928 2378 1081 2264 
Q 1234 2150 1697 2047 
L 1894 2003 
Q 2506 1872 2764 1633 
Q 3022 1394 3022 966 
Q 3022 478 2636 193 
Q 2250 -91 1575 -91 
Q 1294 -91 989 -36 
Q 684 19 347 128 
L 347 722 
Q 666 556 975 473 
Q 1284 391 1588 391 
Q 1994 391 2212 530 
Q 2431 669 2431 922 
Q 2431 1156 2273 1281 
Q 2116 1406 1581 1522 
L 1381 1569 
Q 847 1681 609 1914 
Q 372 2147 372 2553 
Q 372 3047 722 3315 
Q 1072 3584 1716 3584 
Q 2034 3584 2315 3537 
Q 2597 3491 2834 3397 
z
" id="DejaVuSans-73" transform="scale(0.015625)"/>
       <path d="M 1947 4863 
L 1947 -844 
L 622 -844 
L 622 -397 
L 1369 -397 
L 1369 4416 
L 622 4416 
L 622 4863 
L 1947 4863 
z
" id="DejaVuSans-5d" transform="scale(0.015625)"/>
      </defs>
      <use xlink:href="#DejaVuSans-74"/>
      <use x="39.208984" xlink:href="#DejaVuSans-69"/>
      <use x="66.992188" xlink:href="#DejaVuSans-6d"/>
      <use x="164.404297" xlink:href="#DejaVuSans-65"/>
      <use x="225.927734" xlink:href="#DejaVuSans-20"/>
      <use x="257.714844" xlink:href="#DejaVuSans-5b"/>
      <use x="296.728516" xlink:href="#DejaVuSans-6d"/>
      <use x="394.140625" xlink:href="#DejaVuSans-73"/>
      <use x="446.240234" xlink:href="#DejaVuSans-5d"/>
     </g>
    </g>
   </g>
   <g id="matplotlib.axis_2">
    <g id="ytick_1">
     <g id="line2d_10">
      <defs>
       <path d="M 0 0 
L -3.5 0 
" id="mea3b6a37e5" style="stroke:#000000;stroke-width:0.8;"/>
      </defs>
      <g>
       <use style="stroke:#000000;stroke-width:0.8;" x="57.6" xlink:href="#mea3b6a37e5" y="273.160721"/>
      </g>
     </g>
     <g id="text_11">
      <!-- $\mathdefault{0.0}$ -->
      <g transform="translate(34.6 276.95994)scale(0.1 -0.1)">
       <defs>
        <path d="M 684 794 
L 1344 794 
L 1344 0 
L 684 0 
L 684 794 
z
" id="DejaVuSans-2e" transform="scale(0.015625)"/>
       </defs>
       <use transform="translate(0 0.78125)" xlink:href="#DejaVuSans-30"/>
       <use transform="translate(63.623047 0.78125)" xlink:href="#DejaVuSans-2e"/>
       <use transform="translate(95.410156 0.78125)" xlink:href="#DejaVuSans-30"/>
      </g>
     </g>
    </g>
    <g id="ytick_2">
     <g id="line2d_11">
      <g>
       <use style="stroke:#000000;stroke-width:0.8;" x="57.6" xlink:href="#mea3b6a37e5" y="228.643907"/>
      </g>
     </g>
     <g id="text_12">
      <!-- $\mathdefault{0.2}$ -->
      <g transform="translate(35.2 232.443125)scale(0.1 -0.1)">
       <use transform="translate(0 0.78125)" xlink:href="#DejaVuSans-30"/>
       <use transform="translate(63.623047 0.78125)" xlink:href="#DejaVuSans-2e"/>
       <use transform="translate(89.910156 0.78125)" xlink:href="#DejaVuSans-32"/>
      </g>
     </g>
    </g>
    <g id="ytick_3">
     <g id="line2d_12">
      <g>
       <use style="stroke:#000000;stroke-width:0.8;" x="57.6" xlink:href="#mea3b6a37e5" y="184.127092"/>
      </g>
     </g>
     <g id="text_13">
      <!-- $\mathdefault{0.4}$ -->
      <g transform="translate(34.6 187.926311)scale(0.1 -0.1)">
       <use transform="translate(0 0.78125)" xlink:href="#DejaVuSans-30"/>
       <use transform="translate(63.623047 0.78125)" xlink:href="#DejaVuSans-2e"/>
       <use transform="translate(95.410156 0.78125)" xlink:href="#DejaVuSans-34"/>
      </g>
     </g>
    </g>
    <g id="ytick_4">
     <g id="line2d_13">
      <g>
       <use style="stroke:#000000;stroke-width:0.8;" x="57.6" xlink:href="#mea3b6a37e5" y="139.610278"/>
      </g>
     </g>
     <g id="text_14">
      <!-- $\mathdefault{0.6}$ -->
      <g transform="translate(34.6 143.409497)scale(0.1 -0.1)">
       <defs>
        <path d="M 2113 2584 
Q 1688 2584 1439 2293 
Q 1191 2003 1191 1497 
Q 1191 994 1439 701 
Q 1688 409 2113 409 
Q 2538 409 2786 701 
Q 3034 994 3034 1497 
Q 3034 2003 2786 2293 
Q 2538 2584 2113 2584 
z
M 3366 4563 
L 3366 3988 
Q 3128 4100 2886 4159 
Q 2644 4219 2406 4219 
Q 1781 4219 1451 3797 
Q 1122 3375 1075 2522 
Q 1259 2794 1537 2939 
Q 1816 3084 2150 3084 
Q 2853 3084 3261 2657 
Q 3669 2231 3669 1497 
Q 3669 778 3244 343 
Q 2819 -91 2113 -91 
Q 1303 -91 875 529 
Q 447 1150 447 2328 
Q 447 3434 972 4092 
Q 1497 4750 2381 4750 
Q 2619 4750 2861 4703 
Q 3103 4656 3366 4563 
z
" id="DejaVuSans-36" transform="scale(0.015625)"/>
       </defs>
       <use transform="translate(0 0.78125)" xlink:href="#DejaVuSans-30"/>
       <use transform="translate(63.623047 0.78125)" xlink:href="#DejaVuSans-2e"/>
       <use transform="translate(95.410156 0.78125)" xlink:href="#DejaVuSans-36"/>
      </g>
     </g>
    </g>
    <g id="ytick_5">
     <g id="line2d_14">
      <g>
       <use style="stroke:#000000;stroke-width:0.8;" x="57.6" xlink:href="#mea3b6a37e5" y="95.093464"/>
      </g>
     </g>
     <g id="text_15">
      <!-- $\mathdefault{0.8}$ -->
      <g transform="translate(34.9 98.892683)scale(0.1 -0.1)">
       <defs>
        <path d="M 2034 2216 
Q 1584 2216 1326 1975 
Q 1069 1734 1069 1313 
Q 1069 891 1326 650 
Q 1584 409 2034 409 
Q 2484 409 2743 651 
Q 3003 894 3003 1313 
Q 3003 1734 2745 1975 
Q 2488 2216 2034 2216 
z
M 1403 2484 
Q 997 2584 770 2862 
Q 544 3141 544 3541 
Q 544 4100 942 4425 
Q 1341 4750 2034 4750 
Q 2731 4750 3128 4425 
Q 3525 4100 3525 3541 
Q 3525 3141 3298 2862 
Q 3072 2584 2669 2484 
Q 3125 2378 3379 2068 
Q 3634 1759 3634 1313 
Q 3634 634 3220 271 
Q 2806 -91 2034 -91 
Q 1263 -91 848 271 
Q 434 634 434 1313 
Q 434 1759 690 2068 
Q 947 2378 1403 2484 
z
M 1172 3481 
Q 1172 3119 1398 2916 
Q 1625 2713 2034 2713 
Q 2441 2713 2670 2916 
Q 2900 3119 2900 3481 
Q 2900 3844 2670 4047 
Q 2441 4250 2034 4250 
Q 1625 4250 1398 4047 
Q 1172 3844 1172 3481 
z
" id="DejaVuSans-38" transform="scale(0.015625)"/>
       </defs>
       <use transform="translate(0 0.78125)" xlink:href="#DejaVuSans-30"/>
       <use transform="translate(63.623047 0.78125)" xlink:href="#DejaVuSans-2e"/>
       <use transform="translate(92.785156 0.78125)" xlink:href="#DejaVuSans-38"/>
      </g>
     </g>
    </g>
    <g id="ytick_6">
     <g id="line2d_15">
      <g>
       <use style="stroke:#000000;stroke-width:0.8;" x="57.6" xlink:href="#mea3b6a37e5" y="50.576649"/>
      </g>
     </g>
     <g id="text_16">
      <!-- $\mathdefault{1.0}$ -->
      <g transform="translate(34.6 54.375868)scale(0.1 -0.1)">
       <defs>
        <path d="M 794 531 
L 1825 531 
L 1825 4091 
L 703 3866 
L 703 4441 
L 1819 4666 
L 2450 4666 
L 2450 531 
L 3481 531 
L 3481 0 
L 794 0 
L 794 531 
z
" id="DejaVuSans-31" transform="scale(0.015625)"/>
       </defs>
       <use transform="translate(0 0.78125)" xlink:href="#DejaVuSans-31"/>
       <use transform="translate(63.623047 0.78125)" xlink:href="#DejaVuSans-2e"/>
       <use transform="translate(95.410156 0.78125)" xlink:href="#DejaVuSans-30"/>
      </g>
     </g>
    </g>
    <g id="text_17">
     <!-- $\times\mathdefault{10^{−4}}\mathdefault{}$ -->
     <g transform="translate(57.6 38.472)scale(0.1 -0.1)">
      <defs>
       <path d="M 4488 3438 
L 3059 2003 
L 4488 575 
L 4116 197 
L 2681 1631 
L 1247 197 
L 878 575 
L 2303 2003 
L 878 3438 
L 1247 3816 
L 2681 2381 
L 4116 3816 
L 4488 3438 
z
" id="DejaVuSans-d7" transform="scale(0.015625)"/>
       <path d="M 678 2272 
L 4684 2272 
L 4684 1741 
L 678 1741 
L 678 2272 
z
" id="DejaVuSans-2212" transform="scale(0.015625)"/>
      </defs>
      <use transform="translate(0 0.684375)" xlink:href="#DejaVuSans-d7"/>
      <use transform="translate(83.789062 0.684375)" xlink:href="#DejaVuSans-31"/>
      <use transform="translate(147.412109 0.684375)" xlink:href="#DejaVuSans-30"/>
      <use transform="translate(211.992188 38.965625)scale(0.7)" xlink:href="#DejaVuSans-2212"/>
      <use transform="translate(270.644531 38.965625)scale(0.7)" xlink:href="#DejaVuSans-34"/>
     </g>
    </g>
   </g>
   <g id="line2d_16">
    <path clip-path="url(#p644628de7a)" d="M 73.832727 288.288 
L 73.995095 292.608 
L 74.157463 288.288 
L 74.319831 292.608 
L 74.401015 291.168 
L 74.969302 291.168 
L 75.050486 289.728 
L 75.13167 292.608 
L 75.212854 288.288 
L 75.375222 291.168 
L 75.456406 291.168 
L 75.53759 285.408001 
L 75.699958 292.608 
L 75.781142 286.848001 
L 75.862326 268.128001 
L 76.024693 289.728 
L 76.187061 246.528002 
L 76.349429 291.168 
L 76.511797 229.248003 
L 76.674165 291.168 
L 76.836533 223.488003 
L 76.998901 288.288 
L 77.161268 226.368003 
L 77.323636 289.728 
L 77.40482 230.688003 
L 77.486004 240.768003 
L 77.648372 291.168 
L 77.729556 242.208003 
L 77.973108 292.608 
L 78.054292 260.928002 
L 78.297844 291.168 
L 78.379027 279.648001 
L 78.541395 291.168 
L 78.622579 291.168 
L 78.703763 288.288 
L 78.866131 292.608 
L 78.947315 292.608 
L 79.109683 289.728 
L 79.190867 291.168 
L 79.353235 289.728 
L 79.434419 292.608 
L 79.596786 289.728 
L 79.759154 292.608 
L 79.921522 289.728 
L 80.002706 291.168 
L 80.08389 289.728 
L 80.327442 292.608 
L 80.48981 288.288 
L 80.652178 291.168 
L 80.733362 291.168 
L 80.814545 281.088001 
L 81.058097 292.608 
L 81.139281 252.288002 
L 81.301649 289.728 
L 81.382833 289.728 
L 81.464017 210.528003 
L 81.626385 291.168 
L 81.707569 291.168 
L 81.788753 171.648004 
L 81.951121 291.168 
L 82.032304 292.608 
L 82.113488 145.728003 
L 82.275856 291.168 
L 82.35704 289.728 
L 82.438224 134.208003 
L 82.600592 291.168 
L 82.681776 291.168 
L 82.76296 142.848003 
L 82.925328 292.608 
L 83.006512 291.168 
L 83.087696 164.448004 
L 83.250063 291.168 
L 83.331247 292.608 
L 83.412431 197.568004 
L 83.574799 291.168 
L 83.655983 291.168 
L 83.737167 240.768003 
L 83.899535 292.608 
L 83.980719 289.728 
L 84.061903 276.768001 
L 84.224271 291.168 
L 84.305455 292.608 
L 84.467822 289.728 
L 84.549006 291.168 
L 84.792558 288.288 
L 84.954926 291.168 
L 85.198478 291.168 
L 85.279662 292.608 
L 85.360846 289.728 
L 85.44203 291.168 
L 85.604397 289.728 
L 85.685581 291.168 
L 85.847949 289.728 
L 85.929133 289.728 
L 86.010317 292.608 
L 86.091501 289.728 
L 86.172685 276.768001 
L 86.335053 291.168 
L 86.416237 291.168 
L 86.497421 232.128003 
L 86.659789 286.848001 
L 86.740973 288.288 
L 86.822156 184.608004 
L 86.984524 291.168 
L 87.065708 292.608 
L 87.146892 144.288003 
L 87.30926 289.728 
L 87.390444 289.728 
L 87.471628 118.368003 
L 87.633996 291.168 
L 87.71518 289.728 
L 87.796364 111.168003 
L 87.958732 291.168 
L 88.039915 291.168 
L 88.121099 118.368003 
L 88.283467 291.168 
L 88.364651 292.608 
L 88.445835 142.848003 
L 88.608203 291.168 
L 88.689387 288.288 
L 88.770571 181.728004 
L 88.932939 292.608 
L 89.014123 291.168 
L 89.095307 230.688003 
L 89.257674 289.728 
L 89.338858 291.168 
L 89.420042 273.888001 
L 89.58241 292.608 
L 89.744778 289.728 
L 89.907146 292.608 
L 89.98833 291.168 
L 90.150698 294.048 
L 90.231882 289.728 
L 90.313066 292.608 
L 90.394249 289.728 
L 90.475433 292.608 
L 90.637801 288.288 
L 90.718985 292.608 
L 90.881353 289.728 
L 91.043721 292.608 
L 91.124905 289.728 
L 91.287273 291.168 
L 91.449641 291.168 
L 91.530825 283.968001 
L 91.693192 292.608 
L 91.774376 289.728 
L 91.85556 260.928002 
L 92.017928 291.168 
L 92.099112 291.168 
L 92.180296 224.928003 
L 92.342664 291.168 
L 92.423848 289.728 
L 92.505032 194.688004 
L 92.6674 288.288 
L 92.748584 291.168 
L 92.829767 175.968004 
L 92.992135 291.168 
L 93.073319 285.408001 
L 93.154503 167.328004 
L 93.316871 291.168 
L 93.398055 285.408001 
L 93.479239 177.408004 
L 93.641607 289.728 
L 93.722791 282.528001 
L 93.803975 201.888003 
L 93.966342 291.168 
L 94.047526 288.288 
L 94.12871 229.248003 
L 94.291078 291.168 
L 94.372262 289.728 
L 94.453446 263.808002 
L 94.615814 291.168 
L 94.696998 291.168 
L 94.778182 286.848001 
L 94.94055 292.608 
L 95.102918 291.168 
L 95.265285 291.168 
L 95.346469 289.728 
L 95.427653 292.608 
L 95.590021 289.728 
L 95.752389 292.608 
L 95.833573 291.168 
L 95.914757 292.608 
L 95.995941 291.168 
L 96.077125 292.608 
L 96.158309 291.168 
L 96.239493 292.608 
L 96.483044 289.728 
L 96.564228 291.168 
L 96.645412 289.728 
L 96.726596 292.608 
L 96.80778 289.728 
L 96.970148 292.608 
L 97.132516 288.288 
L 97.376068 292.608 
L 97.457252 273.888001 
L 97.538436 278.208001 
L 97.700803 294.048 
L 97.781987 246.528002 
L 97.863171 263.808002 
L 98.025539 289.728 
L 98.106723 220.608003 
L 98.350275 292.608 
L 98.431459 204.768003 
L 98.675011 291.168 
L 98.756195 193.248004 
L 98.999746 289.728 
L 99.08093 197.568004 
L 99.243298 291.168 
L 99.324482 291.168 
L 99.405666 211.968003 
L 99.568034 291.168 
L 99.649218 291.168 
L 99.730402 243.648002 
L 99.89277 292.608 
L 99.973953 289.728 
L 100.055137 269.568001 
L 100.217505 292.608 
L 100.298689 292.608 
L 100.379873 288.288 
L 100.461057 289.728 
L 100.623425 291.168 
L 100.704609 289.728 
L 100.785793 292.608 
L 101.029345 288.288 
L 101.110529 292.608 
L 101.191712 289.728 
L 101.272896 291.168 
L 101.35408 288.288 
L 101.435264 289.728 
L 101.516448 288.288 
L 101.678816 291.168 
L 101.922368 291.168 
L 102.003552 289.728 
L 102.084736 291.168 
L 102.247104 288.288 
L 102.328288 288.288 
L 102.409471 292.608 
L 102.490655 273.888001 
L 102.653023 291.168 
L 102.734207 291.168 
L 102.815391 232.128003 
L 102.977759 291.168 
L 103.058943 291.168 
L 103.140127 186.048004 
L 103.302495 292.608 
L 103.383679 292.608 
L 103.464863 148.608003 
L 103.62723 292.608 
L 103.708414 289.728 
L 103.789598 125.568003 
L 103.951966 289.728 
L 104.03315 291.168 
L 104.114334 115.488003 
L 104.276702 292.608 
L 104.357886 289.728 
L 104.43907 124.128003 
L 104.601438 291.168 
L 104.682622 292.608 
L 104.763805 150.048004 
L 104.926173 291.168 
L 105.007357 292.608 
L 105.088541 191.808004 
L 105.250909 291.168 
L 105.332093 292.608 
L 105.413277 239.328003 
L 105.575645 294.048 
L 105.656829 291.168 
L 105.738013 276.768001 
L 105.900381 291.168 
L 106.225116 291.168 
L 106.387484 289.728 
L 106.468668 289.728 
L 106.549852 291.168 
L 106.631036 289.728 
L 106.793404 294.048 
L 106.955772 291.168 
L 107.036956 291.168 
L 107.11814 289.728 
L 107.280507 292.608 
L 107.361691 292.608 
L 107.605243 289.728 
L 107.767611 291.168 
L 107.848795 273.888001 
L 108.011163 289.728 
L 108.092347 291.168 
L 108.173531 232.128003 
L 108.335899 292.608 
L 108.417082 291.168 
L 108.498266 186.048004 
L 108.660634 291.168 
L 108.741818 294.048 
L 108.823002 148.608003 
L 108.98537 289.728 
L 109.066554 289.728 
L 109.147738 125.568003 
L 109.310106 292.608 
L 109.39129 291.168 
L 109.472474 119.808003 
L 109.634841 292.608 
L 109.716025 291.168 
L 109.797209 131.328003 
L 109.959577 291.168 
L 110.040761 289.728 
L 110.121945 161.568004 
L 110.284313 294.048 
L 110.365497 291.168 
L 110.446681 200.448003 
L 110.609049 291.168 
L 110.690233 292.608 
L 110.771416 246.528002 
L 110.933784 289.728 
L 111.014968 291.168 
L 111.096152 281.088001 
L 111.339704 294.048 
L 111.420888 291.168 
L 111.502072 292.608 
L 111.583256 289.728 
L 111.66444 292.608 
L 111.826808 291.168 
L 111.907992 291.168 
L 111.989175 289.728 
L 112.232727 292.608 
L 112.395095 291.168 
L 112.476279 291.168 
L 112.638647 292.608 
L 112.719831 291.168 
L 112.882199 292.608 
L 112.963383 292.608 
L 113.206934 286.848001 
L 113.369302 292.608 
L 113.450486 292.608 
L 113.53167 272.448001 
L 113.694038 289.728 
L 113.775222 289.728 
L 113.856406 243.648002 
L 114.018774 292.608 
L 114.099958 283.968001 
L 114.181142 217.728003 
L 114.34351 289.728 
L 114.424693 273.888001 
L 114.505877 201.888003 
L 114.668245 291.168 
L 114.749429 265.248002 
L 114.830613 197.568004 
L 114.992981 291.168 
L 115.155349 206.208003 
L 115.317717 292.608 
L 115.480085 229.248003 
L 115.642452 291.168 
L 115.80482 253.728002 
L 115.967188 291.168 
L 116.129556 278.208001 
L 116.291924 291.168 
L 116.373108 288.288 
L 116.61666 292.608 
L 116.779027 291.168 
L 116.860211 291.168 
L 117.022579 289.728 
L 117.103763 291.168 
L 117.184947 289.728 
L 117.266131 292.608 
L 117.347315 288.288 
L 117.428499 289.728 
L 117.509683 288.288 
L 117.672051 292.608 
L 117.753235 291.168 
L 117.996786 291.168 
L 118.07797 292.608 
L 118.240338 288.288 
L 118.321522 292.608 
L 118.402706 291.168 
L 118.48389 291.168 
L 118.565074 292.608 
L 118.727442 291.168 
L 118.808626 281.088001 
L 118.970994 291.168 
L 119.052178 289.728 
L 119.133362 252.288002 
L 119.295729 289.728 
L 119.376913 291.168 
L 119.458097 217.728003 
L 119.620465 291.168 
L 119.701649 292.608 
L 119.782833 187.488004 
L 119.945201 289.728 
L 120.026385 291.168 
L 120.107569 165.888004 
L 120.269937 291.168 
L 120.351121 292.608 
L 120.432304 158.688004 
L 120.594672 291.168 
L 120.675856 288.288 
L 120.75704 168.768004 
L 120.919408 288.288 
L 121.000592 291.168 
L 121.081776 193.248004 
L 121.244144 288.288 
L 121.325328 291.168 
L 121.406512 224.928003 
L 121.568879 291.168 
L 121.650063 289.728 
L 121.731247 263.808002 
L 121.893615 291.168 
L 122.055983 286.848001 
L 122.218351 289.728 
L 122.299535 291.168 
L 122.380719 289.728 
L 122.461903 292.608 
L 122.624271 291.168 
L 122.705455 291.168 
L 122.786638 289.728 
L 122.867822 291.168 
L 123.03019 288.288 
L 123.192558 292.608 
L 123.273742 291.168 
L 123.43611 288.288 
L 123.598478 291.168 
L 123.679662 291.168 
L 123.84203 286.848001 
L 124.004397 292.608 
L 124.085581 291.168 
L 124.166765 263.808002 
L 124.329133 289.728 
L 124.410317 289.728 
L 124.491501 219.168003 
L 124.653869 291.168 
L 124.735053 291.168 
L 124.816237 175.968004 
L 124.978605 291.168 
L 125.059789 291.168 
L 125.140973 137.088003 
L 125.30334 289.728 
L 125.384524 291.168 
L 125.465708 114.048003 
L 125.628076 291.168 
L 125.70926 289.728 
L 125.790444 109.728003 
L 125.952812 289.728 
L 126.033996 291.168 
L 126.11518 124.128003 
L 126.277548 291.168 
L 126.358732 291.168 
L 126.439915 151.488004 
L 126.602283 291.168 
L 126.683467 292.608 
L 126.764651 193.248004 
L 126.927019 291.168 
L 127.008203 291.168 
L 127.089387 243.648002 
L 127.251755 292.608 
L 127.332939 292.608 
L 127.414123 279.648001 
L 127.57649 292.608 
L 127.738858 291.168 
L 128.063594 291.168 
L 128.144778 292.608 
L 128.307146 289.728 
L 128.38833 295.488 
L 128.550698 291.168 
L 128.713066 291.168 
L 128.794249 289.728 
L 128.875433 291.168 
L 128.956617 289.728 
L 129.118985 292.608 
L 129.281353 289.728 
L 129.443721 291.168 
L 129.524905 273.888001 
L 129.687273 291.168 
L 129.768457 292.608 
L 129.849641 236.448003 
L 130.012008 292.608 
L 130.093192 291.168 
L 130.174376 193.248004 
L 130.336744 291.168 
L 130.417928 291.168 
L 130.499112 164.448004 
L 130.66148 291.168 
L 130.742664 291.168 
L 130.823848 145.728003 
L 130.986216 291.168 
L 131.0674 289.728 
L 131.148584 142.848003 
L 131.310951 292.608 
L 131.392135 291.168 
L 131.473319 158.688004 
L 131.635687 292.608 
L 131.716871 292.608 
L 131.798055 186.048004 
L 131.960423 292.608 
L 132.041607 292.608 
L 132.122791 223.488003 
L 132.285159 292.608 
L 132.366342 292.608 
L 132.447526 262.368002 
L 132.609894 289.728 
L 132.691078 291.168 
L 132.772262 286.848001 
L 132.93463 291.168 
L 133.015814 291.168 
L 133.096998 294.048 
L 133.259366 289.728 
L 133.34055 294.048 
L 133.421734 292.608 
L 133.502918 291.168 
L 133.584101 294.048 
L 133.665285 292.608 
L 133.746469 294.048 
L 133.827653 289.728 
L 133.908837 292.608 
L 134.152389 289.728 
L 134.233573 291.168 
L 134.314757 289.728 
L 134.477125 291.168 
L 134.558309 291.168 
L 134.639493 289.728 
L 134.80186 291.168 
L 134.964228 291.168 
L 135.126596 289.728 
L 135.20778 281.088001 
L 135.370148 291.168 
L 135.532516 260.928002 
L 135.694884 289.728 
L 135.857252 239.328003 
L 136.019619 289.728 
L 136.181987 229.248003 
L 136.344355 289.728 
L 136.506723 227.808003 
L 136.669091 289.728 
L 136.750275 226.368003 
L 136.831459 233.568003 
L 136.993827 289.728 
L 137.075011 232.128003 
L 137.156195 250.848002 
L 137.318562 289.728 
L 137.399746 247.968002 
L 137.643298 289.728 
L 137.724482 266.688002 
L 137.968034 291.168 
L 138.049218 285.408001 
L 138.211586 291.168 
L 138.698689 291.168 
L 138.779873 289.728 
L 138.861057 292.608 
L 139.023425 291.168 
L 139.104609 292.608 
L 139.185793 289.728 
L 139.348161 292.608 
L 139.429345 289.728 
L 139.591712 291.168 
L 139.672896 291.168 
L 139.835264 289.728 
L 139.997632 292.608 
L 140.241184 289.728 
L 140.322368 292.608 
L 140.403552 289.728 
L 140.484736 269.568001 
L 140.647104 289.728 
L 140.728288 292.608 
L 140.809471 232.128003 
L 140.971839 291.168 
L 141.053023 291.168 
L 141.134207 191.808004 
L 141.296575 291.168 
L 141.377759 292.608 
L 141.458943 155.808004 
L 141.621311 291.168 
L 141.702495 289.728 
L 141.783679 137.088003 
L 141.946047 291.168 
L 142.02723 292.608 
L 142.108414 135.648003 
L 142.270782 289.728 
L 142.351966 291.168 
L 142.43315 148.608003 
L 142.595518 291.168 
L 142.676702 294.048 
L 142.757886 175.968004 
L 142.920254 291.168 
L 143.001438 292.608 
L 143.082622 216.288003 
L 143.244989 292.608 
L 143.326173 291.168 
L 143.407357 258.048002 
L 143.569725 292.608 
L 143.650909 291.168 
L 143.732093 285.408001 
L 143.894461 294.048 
L 143.975645 294.048 
L 144.056829 289.728 
L 144.138013 292.608 
L 144.219197 291.168 
L 144.300381 292.608 
L 144.462748 291.168 
L 144.543932 291.168 
L 144.625116 289.728 
L 144.868668 292.608 
L 144.949852 292.608 
L 145.11222 291.168 
L 145.193404 291.168 
L 145.355772 289.728 
L 145.436956 292.608 
L 145.51814 288.288 
L 145.599323 291.168 
L 145.680507 289.728 
L 145.761691 292.608 
L 145.842875 262.368002 
L 146.005243 291.168 
L 146.086427 291.168 
L 146.167611 213.408003 
L 146.329979 291.168 
L 146.411163 291.168 
L 146.492347 165.888004 
L 146.654715 292.608 
L 146.735899 291.168 
L 146.817082 132.768003 
L 146.97945 291.168 
L 147.060634 289.728 
L 147.141818 114.048003 
L 147.304186 291.168 
L 147.38537 291.168 
L 147.466554 114.048003 
L 147.628922 291.168 
L 147.710106 294.048 
L 147.79129 128.448003 
L 147.953658 291.168 
L 148.034841 292.608 
L 148.116025 160.128004 
L 148.278393 291.168 
L 148.359577 291.168 
L 148.440761 201.888003 
L 148.603129 289.728 
L 148.684313 291.168 
L 148.765497 255.168002 
L 148.927865 291.168 
L 149.009049 291.168 
L 149.090233 285.408001 
L 149.333784 292.608 
L 149.414968 292.608 
L 149.577336 291.168 
L 149.65852 292.608 
L 149.820888 291.168 
L 149.902072 294.048 
L 150.06444 289.728 
L 150.226808 292.608 
L 150.307992 292.608 
L 150.389175 289.728 
L 150.551543 292.608 
L 150.632727 294.048 
L 150.876279 288.288 
L 151.038647 292.608 
L 151.119831 291.168 
L 151.201015 278.208001 
L 151.363383 291.168 
L 151.444567 289.728 
L 151.525751 245.088002 
L 151.688118 291.168 
L 151.769302 289.728 
L 151.850486 211.968003 
L 152.012854 289.728 
L 152.094038 289.728 
L 152.175222 186.048004 
L 152.33759 291.168 
L 152.418774 286.848001 
L 152.499958 171.648004 
L 152.662326 291.168 
L 152.74351 285.408001 
L 152.824693 170.208004 
L 152.987061 291.168 
L 153.068245 283.968001 
L 153.149429 187.488004 
L 153.311797 289.728 
L 153.392981 282.528001 
L 153.474165 210.528003 
L 153.636533 289.728 
L 153.717717 286.848001 
L 153.798901 245.088002 
L 153.961268 292.608 
L 154.042452 288.288 
L 154.123636 275.328001 
L 154.286004 294.048 
L 154.448372 289.728 
L 154.529556 292.608 
L 154.61074 289.728 
L 154.691924 294.048 
L 154.854292 289.728 
L 154.935476 292.608 
L 155.097844 291.168 
L 155.260211 292.608 
L 155.422579 291.168 
L 155.503763 292.608 
L 155.666131 289.728 
L 155.747315 292.608 
L 155.828499 289.728 
L 155.990867 291.168 
L 156.234419 291.168 
L 156.315603 289.728 
L 156.396786 292.608 
L 156.559154 289.728 
L 156.640338 289.728 
L 156.721522 291.168 
L 156.88389 283.968001 
L 156.965074 292.608 
L 157.046258 291.168 
L 157.127442 259.488002 
L 157.370994 291.168 
L 157.452178 233.568003 
L 157.695729 292.608 
L 157.776913 210.528003 
L 158.020465 291.168 
L 158.101649 194.688004 
L 158.345201 291.168 
L 158.426385 190.368004 
L 158.588753 286.848001 
L 158.669937 289.728 
L 158.751121 200.448003 
L 158.913488 288.288 
L 158.994672 292.608 
L 159.075856 224.928003 
L 159.238224 289.728 
L 159.319408 291.168 
L 159.400592 253.728002 
L 159.56296 292.608 
L 159.644144 291.168 
L 159.725328 279.648001 
L 159.887696 292.608 
L 160.050063 288.288 
L 160.212431 291.168 
L 160.780719 291.168 
L 160.943087 289.728 
L 161.024271 292.608 
L 161.186638 289.728 
L 161.43019 292.608 
L 161.511374 292.608 
L 161.673742 291.168 
L 161.754926 291.168 
L 161.83611 285.408001 
L 162.079662 292.608 
L 162.160846 259.488002 
L 162.323214 289.728 
L 162.404397 291.168 
L 162.485581 210.528003 
L 162.647949 289.728 
L 162.729133 291.168 
L 162.810317 168.768004 
L 162.972685 291.168 
L 163.053869 292.608 
L 163.135053 137.088003 
L 163.297421 291.168 
L 163.378605 291.168 
L 163.459789 116.928003 
L 163.622156 291.168 
L 163.70334 292.608 
L 163.784524 118.368003 
L 163.946892 289.728 
L 164.028076 291.168 
L 164.10926 135.648003 
L 164.271628 289.728 
L 164.352812 292.608 
L 164.433996 167.328004 
L 164.596364 289.728 
L 164.677548 291.168 
L 164.758732 211.968003 
L 164.921099 289.728 
L 165.002283 289.728 
L 165.083467 256.608002 
L 165.245835 289.728 
L 165.327019 294.048 
L 165.408203 286.848001 
L 165.570571 294.048 
L 165.814123 288.288 
L 165.97649 292.608 
L 166.138858 292.608 
L 166.38241 289.728 
L 166.544778 291.168 
L 166.625962 291.168 
L 166.707146 289.728 
L 166.78833 291.168 
L 166.950698 289.728 
L 167.031882 292.608 
L 167.113066 291.168 
L 167.194249 286.848001 
L 167.356617 291.168 
L 167.437801 288.288 
L 167.518985 256.608002 
L 167.681353 291.168 
L 167.762537 291.168 
L 167.843721 210.528003 
L 168.006089 292.608 
L 168.087273 291.168 
L 168.168457 170.208004 
L 168.330825 289.728 
L 168.412008 289.728 
L 168.493192 141.408003 
L 168.65556 289.728 
L 168.736744 292.608 
L 168.817928 124.128003 
L 168.980296 289.728 
L 169.06148 291.168 
L 169.142664 125.568003 
L 169.305032 291.168 
L 169.386216 292.608 
L 169.4674 144.288003 
L 169.629767 291.168 
L 169.710951 292.608 
L 169.792135 178.848004 
L 169.954503 291.168 
L 170.035687 291.168 
L 170.116871 219.168003 
L 170.279239 291.168 
L 170.360423 291.168 
L 170.441607 263.808002 
L 170.603975 292.608 
L 170.685159 291.168 
L 170.766342 286.848001 
L 170.847526 291.168 
L 170.92871 289.728 
L 171.172262 294.048 
L 171.33463 289.728 
L 171.415814 292.608 
L 171.496998 289.728 
L 171.74055 292.608 
L 171.902918 291.168 
L 172.065285 291.168 
L 172.227653 289.728 
L 172.390021 292.608 
L 172.552389 289.728 
L 172.633573 291.168 
L 172.714757 289.728 
L 172.795941 291.168 
L 172.877125 283.968001 
L 173.120677 289.728 
L 173.20186 258.048002 
L 173.364228 289.728 
L 173.445412 285.408001 
L 173.526596 232.128003 
L 173.688964 289.728 
L 173.770148 279.648001 
L 173.851332 210.528003 
L 174.0137 291.168 
L 174.094884 269.568001 
L 174.176068 201.888003 
L 174.338436 291.168 
L 174.500803 201.888003 
L 174.663171 289.728 
L 174.825539 217.728003 
L 174.987907 294.048 
L 175.150275 240.768003 
L 175.312643 292.608 
L 175.475011 263.808002 
L 175.637378 291.168 
L 175.799746 283.968001 
L 175.962114 292.608 
L 176.124482 289.728 
L 176.205666 292.608 
L 176.28685 291.168 
L 176.449218 292.608 
L 176.611586 291.168 
L 176.773953 294.048 
L 176.936321 291.168 
L 177.017505 289.728 
L 177.179873 292.608 
L 177.342241 292.608 
L 177.504609 289.728 
L 177.585793 292.608 
L 177.748161 291.168 
L 177.829345 292.608 
L 177.910529 289.728 
L 177.991712 292.608 
L 178.15408 288.288 
L 178.235264 289.728 
L 178.397632 292.608 
L 178.478816 271.008001 
L 178.641184 288.288 
L 178.722368 291.168 
L 178.803552 237.888003 
L 178.96592 291.168 
L 179.047104 289.728 
L 179.128288 201.888003 
L 179.290655 289.728 
L 179.371839 291.168 
L 179.453023 174.528004 
L 179.615391 288.288 
L 179.696575 291.168 
L 179.777759 158.688004 
L 179.940127 292.608 
L 180.021311 291.168 
L 180.102495 161.568004 
L 180.264863 289.728 
L 180.346047 291.168 
L 180.42723 175.968004 
L 180.589598 291.168 
L 180.670782 292.608 
L 180.751966 204.768003 
L 180.914334 292.608 
L 180.995518 291.168 
L 181.076702 242.208003 
L 181.23907 292.608 
L 181.320254 292.608 
L 181.401438 278.208001 
L 181.644989 292.608 
L 181.726173 289.728 
L 181.888541 291.168 
L 181.969725 291.168 
L 182.050909 292.608 
L 182.213277 291.168 
L 182.294461 292.608 
L 182.375645 289.728 
L 182.456829 292.608 
L 182.619197 291.168 
L 182.700381 292.608 
L 182.862748 289.728 
L 182.943932 292.608 
L 183.025116 291.168 
L 183.1063 292.608 
L 183.187484 288.288 
L 183.349852 291.168 
L 183.431036 289.728 
L 183.51222 282.528001 
L 183.674588 291.168 
L 183.755772 291.168 
L 183.836956 247.968002 
L 183.999323 289.728 
L 184.080507 291.168 
L 184.161691 197.568004 
L 184.324059 289.728 
L 184.405243 291.168 
L 184.486427 155.808004 
L 184.648795 291.168 
L 184.729979 292.608 
L 184.811163 124.128003 
L 184.973531 292.608 
L 185.054715 288.288 
L 185.135899 111.168003 
L 185.298266 291.168 
L 185.37945 289.728 
L 185.460634 112.608003 
L 185.623002 291.168 
L 185.704186 289.728 
L 185.78537 131.328003 
L 185.947738 292.608 
L 186.028922 289.728 
L 186.110106 168.768004 
L 186.272474 292.608 
L 186.353658 291.168 
L 186.434841 214.848003 
L 186.597209 291.168 
L 186.678393 291.168 
L 186.759577 262.368002 
L 186.921945 292.608 
L 187.003129 291.168 
L 187.084313 286.848001 
L 187.165497 292.608 
L 187.246681 291.168 
L 187.327865 291.168 
L 187.409049 288.288 
L 187.571416 292.608 
L 187.733784 292.608 
L 187.814968 289.728 
L 187.977336 291.168 
L 188.139704 291.168 
L 188.220888 292.608 
L 188.383256 291.168 
L 188.46444 291.168 
L 188.545624 288.288 
L 188.789175 294.048 
L 188.870359 283.968001 
L 189.032727 291.168 
L 189.113911 289.728 
L 189.195095 258.048002 
L 189.357463 292.608 
L 189.438647 292.608 
L 189.519831 219.168003 
L 189.682199 291.168 
L 189.763383 289.728 
L 189.844567 183.168004 
L 190.006934 292.608 
L 190.088118 289.728 
L 190.169302 155.808004 
L 190.33167 292.608 
L 190.412854 289.728 
L 190.494038 144.288003 
L 190.656406 291.168 
L 190.73759 292.608 
L 190.818774 148.608003 
L 190.981142 291.168 
L 191.062326 291.168 
L 191.14351 170.208004 
L 191.305877 292.608 
L 191.387061 289.728 
L 191.468245 201.888003 
L 191.630613 292.608 
L 191.711797 289.728 
L 191.792981 242.208003 
L 191.955349 292.608 
L 192.036533 294.048 
L 192.117717 273.888001 
L 192.280085 289.728 
L 192.361268 292.608 
L 192.442452 291.168 
L 192.523636 292.608 
L 192.60482 291.168 
L 192.767188 294.048 
L 192.848372 289.728 
L 192.929556 294.048 
L 193.01074 291.168 
L 193.091924 294.048 
L 193.173108 289.728 
L 193.254292 291.168 
L 193.335476 292.608 
L 193.497844 291.168 
L 193.579027 291.168 
L 193.741395 292.608 
L 193.822579 292.608 
L 193.984947 288.288 
L 194.066131 289.728 
L 194.228499 291.168 
L 194.309683 289.728 
L 194.472051 292.608 
L 194.553235 286.848001 
L 194.715603 292.608 
L 194.796786 286.848001 
L 194.87797 272.448001 
L 195.040338 291.168 
L 195.202706 253.728002 
L 195.365074 291.168 
L 195.527442 237.888003 
L 195.68981 294.048 
L 195.852178 224.928003 
L 196.014545 291.168 
L 196.095729 226.368003 
L 196.176913 230.688003 
L 196.339281 291.168 
L 196.420465 224.928003 
L 196.501649 242.208003 
L 196.664017 291.168 
L 196.745201 236.448003 
L 196.988753 291.168 
L 197.069937 253.728002 
L 197.232304 291.168 
L 197.313488 289.728 
L 197.394672 275.328001 
L 197.55704 292.608 
L 197.638224 294.048 
L 197.719408 285.408001 
L 197.881776 292.608 
L 197.96296 291.168 
L 198.125328 292.608 
L 198.206512 289.728 
L 198.368879 291.168 
L 198.450063 291.168 
L 198.612431 289.728 
L 198.693615 292.608 
L 198.774799 291.168 
L 198.855983 292.608 
L 198.937167 289.728 
L 199.018351 292.608 
L 199.099535 289.728 
L 199.343087 292.608 
L 199.505455 289.728 
L 199.586638 294.048 
L 199.667822 289.728 
L 199.749006 292.608 
L 199.83019 285.408001 
L 199.992558 292.608 
L 200.073742 291.168 
L 200.154926 255.168002 
L 200.317294 291.168 
L 200.398478 291.168 
L 200.479662 211.968003 
L 200.64203 289.728 
L 200.723214 291.168 
L 200.804397 171.648004 
L 200.966765 289.728 
L 201.047949 291.168 
L 201.129133 144.288003 
L 201.291501 291.168 
L 201.372685 289.728 
L 201.453869 132.768003 
L 201.616237 291.168 
L 201.697421 291.168 
L 201.778605 137.088003 
L 201.940973 291.168 
L 202.022156 289.728 
L 202.10334 154.368004 
L 202.265708 292.608 
L 202.346892 294.048 
L 202.428076 191.808004 
L 202.590444 288.288 
L 202.671628 292.608 
L 202.752812 232.128003 
L 202.91518 291.168 
L 202.996364 291.168 
L 203.077548 272.448001 
L 203.239915 288.288 
L 203.483467 291.168 
L 203.564651 289.728 
L 203.727019 291.168 
L 203.808203 291.168 
L 203.970571 292.608 
L 204.214123 289.728 
L 204.295307 292.608 
L 204.457674 291.168 
L 204.620042 291.168 
L 204.701226 292.608 
L 204.863594 291.168 
L 205.107146 291.168 
L 205.18833 279.648001 
L 205.350698 292.608 
L 205.431882 291.168 
L 205.513066 240.768003 
L 205.675433 291.168 
L 205.756617 291.168 
L 205.837801 194.688004 
L 206.000169 288.288 
L 206.081353 289.728 
L 206.162537 151.488004 
L 206.324905 291.168 
L 206.406089 292.608 
L 206.487273 124.128003 
L 206.649641 291.168 
L 206.730825 289.728 
L 206.812008 112.608003 
L 206.974376 292.608 
L 207.05556 291.168 
L 207.136744 116.928003 
L 207.299112 291.168 
L 207.380296 291.168 
L 207.46148 144.288003 
L 207.623848 291.168 
L 207.705032 294.048 
L 207.786216 183.168004 
L 207.948584 291.168 
L 208.029767 289.728 
L 208.110951 226.368003 
L 208.273319 291.168 
L 208.354503 291.168 
L 208.435687 269.568001 
L 208.598055 291.168 
L 208.679239 294.048 
L 208.760423 289.728 
L 208.841607 292.608 
L 209.003975 289.728 
L 209.085159 291.168 
L 209.166342 295.488 
L 209.32871 289.728 
L 209.409894 292.608 
L 209.491078 291.168 
L 209.572262 292.608 
L 209.73463 289.728 
L 209.896998 292.608 
L 209.978182 291.168 
L 210.059366 294.048 
L 210.302918 291.168 
L 210.465285 294.048 
L 210.546469 288.288 
L 210.708837 291.168 
L 210.790021 292.608 
L 210.871205 268.128001 
L 211.033573 292.608 
L 211.114757 291.168 
L 211.195941 230.688003 
L 211.358309 292.608 
L 211.439493 291.168 
L 211.520677 200.448003 
L 211.683044 291.168 
L 211.764228 291.168 
L 211.845412 178.848004 
L 212.00778 291.168 
L 212.088964 286.848001 
L 212.170148 174.528004 
L 212.332516 291.168 
L 212.4137 283.968001 
L 212.494884 177.408004 
L 212.657252 292.608 
L 212.738436 283.968001 
L 212.819619 200.448003 
L 212.981987 291.168 
L 213.063171 283.968001 
L 213.144355 230.688003 
L 213.306723 292.608 
L 213.387907 286.848001 
L 213.469091 263.808002 
L 213.631459 292.608 
L 213.712643 292.608 
L 213.793827 282.528001 
L 213.956195 291.168 
L 214.118562 289.728 
L 214.362114 292.608 
L 214.524482 291.168 
L 214.68685 291.168 
L 214.768034 292.608 
L 214.849218 289.728 
L 215.011586 292.608 
L 215.09277 289.728 
L 215.173953 292.608 
L 215.336321 291.168 
L 215.417505 291.168 
L 215.498689 292.608 
L 215.661057 291.168 
L 215.742241 292.608 
L 215.904609 291.168 
L 215.985793 292.608 
L 216.066977 291.168 
L 216.148161 285.408001 
L 216.310529 292.608 
L 216.391712 291.168 
L 216.472896 275.328001 
L 216.55408 278.208001 
L 216.716448 291.168 
L 216.797632 249.408002 
L 217.041184 289.728 
L 217.122368 220.608003 
L 217.36592 291.168 
L 217.447104 200.448003 
L 217.690655 291.168 
L 217.771839 188.928004 
L 218.015391 292.608 
L 218.096575 191.808004 
L 218.258943 286.848001 
L 218.340127 291.168 
L 218.421311 207.648003 
L 218.583679 289.728 
L 218.664863 291.168 
L 218.746047 233.568003 
L 218.908414 291.168 
L 218.989598 291.168 
L 219.070782 265.248002 
L 219.23315 291.168 
L 219.314334 291.168 
L 219.395518 286.848001 
L 219.557886 292.608 
L 219.720254 291.168 
L 219.801438 291.168 
L 219.882622 292.608 
L 220.044989 291.168 
L 220.126173 292.608 
L 220.288541 291.168 
L 220.369725 291.168 
L 220.450909 289.728 
L 220.613277 292.608 
L 220.694461 289.728 
L 220.856829 292.608 
L 220.938013 289.728 
L 221.181564 292.608 
L 221.343932 292.608 
L 221.425116 291.168 
L 221.5063 276.768001 
L 221.668668 291.168 
L 221.749852 291.168 
L 221.831036 236.448003 
L 221.993404 291.168 
L 222.074588 289.728 
L 222.155772 191.808004 
L 222.31814 292.608 
L 222.399323 289.728 
L 222.480507 151.488004 
L 222.642875 292.608 
L 222.724059 292.608 
L 222.805243 127.008003 
L 222.967611 289.728 
L 223.048795 291.168 
L 223.129979 114.048003 
L 223.292347 292.608 
L 223.373531 291.168 
L 223.454715 122.688003 
L 223.617082 291.168 
L 223.698266 289.728 
L 223.77945 147.168003 
L 223.941818 294.048 
L 224.023002 291.168 
L 224.104186 186.048004 
L 224.266554 292.608 
L 224.347738 291.168 
L 224.428922 232.128003 
L 224.59129 294.048 
L 224.672474 292.608 
L 224.753658 273.888001 
L 224.916025 292.608 
L 225.159577 289.728 
L 225.240761 292.608 
L 225.484313 289.728 
L 225.727865 295.488 
L 225.809049 291.168 
L 225.890233 292.608 
L 225.971416 289.728 
L 226.133784 292.608 
L 226.214968 292.608 
L 226.377336 289.728 
L 226.45852 294.048 
L 226.620888 289.728 
L 226.702072 289.728 
L 226.783256 292.608 
L 226.86444 278.208001 
L 227.026808 291.168 
L 227.107992 294.048 
L 227.189175 236.448003 
L 227.351543 292.608 
L 227.432727 291.168 
L 227.513911 193.248004 
L 227.676279 291.168 
L 227.757463 289.728 
L 227.838647 154.368004 
L 228.001015 289.728 
L 228.082199 291.168 
L 228.163383 134.208003 
L 228.325751 291.168 
L 228.406934 294.048 
L 228.488118 125.568003 
L 228.650486 289.728 
L 228.73167 291.168 
L 228.812854 132.768003 
L 228.975222 292.608 
L 229.056406 291.168 
L 229.13759 158.688004 
L 229.299958 291.168 
L 229.381142 292.608 
L 229.462326 199.008004 
L 229.624693 292.608 
L 229.705877 291.168 
L 229.787061 242.208003 
L 229.949429 292.608 
L 230.030613 294.048 
L 230.111797 278.208001 
L 230.274165 292.608 
L 230.355349 291.168 
L 230.436533 292.608 
L 230.598901 291.168 
L 230.680085 291.168 
L 230.761268 292.608 
L 230.923636 289.728 
L 231.086004 291.168 
L 231.167188 291.168 
L 231.248372 294.048 
L 231.41074 291.168 
L 231.491924 294.048 
L 231.735476 291.168 
L 231.81666 294.048 
L 231.979027 291.168 
L 232.060211 291.168 
L 232.141395 292.608 
L 232.222579 288.288 
L 232.384947 294.048 
L 232.466131 291.168 
L 232.547315 275.328001 
L 232.709683 291.168 
L 232.790867 289.728 
L 232.872051 247.968002 
L 233.034419 292.608 
L 233.115603 283.968001 
L 233.196786 224.928003 
L 233.359154 291.168 
L 233.440338 273.888001 
L 233.521522 207.648003 
L 233.68389 291.168 
L 233.846258 201.888003 
L 234.008626 292.608 
L 234.170994 209.088003 
L 234.333362 291.168 
L 234.495729 227.808003 
L 234.658097 289.728 
L 234.820465 255.168002 
L 234.982833 291.168 
L 235.145201 276.768001 
L 235.307569 289.728 
L 235.469937 288.288 
L 235.713488 291.168 
L 235.875856 289.728 
L 235.95704 292.608 
L 236.119408 289.728 
L 236.200592 292.608 
L 236.281776 288.288 
L 236.444144 291.168 
L 236.525328 289.728 
L 236.687696 292.608 
L 236.850063 289.728 
L 236.931247 291.168 
L 237.093615 289.728 
L 237.255983 291.168 
L 237.337167 289.728 
L 237.580719 294.048 
L 237.824271 283.968001 
L 238.067822 291.168 
L 238.149006 255.168002 
L 238.311374 292.608 
L 238.392558 294.048 
L 238.473742 217.728003 
L 238.63611 291.168 
L 238.717294 289.728 
L 238.798478 187.488004 
L 238.960846 291.168 
L 239.04203 292.608 
L 239.123214 165.888004 
L 239.285581 292.608 
L 239.366765 292.608 
L 239.447949 157.248004 
L 239.610317 291.168 
L 239.691501 291.168 
L 239.772685 164.448004 
L 239.935053 291.168 
L 240.016237 289.728 
L 240.097421 184.608004 
L 240.259789 292.608 
L 240.340973 294.048 
L 240.422156 217.728003 
L 240.584524 291.168 
L 240.665708 294.048 
L 240.746892 256.608002 
L 240.90926 291.168 
L 241.071628 283.968001 
L 241.233996 292.608 
L 241.31518 291.168 
L 241.396364 292.608 
L 241.558732 289.728 
L 241.721099 294.048 
L 241.883467 289.728 
L 241.964651 289.728 
L 242.208203 292.608 
L 242.289387 292.608 
L 242.370571 291.168 
L 242.451755 294.048 
L 242.614123 291.168 
L 242.695307 291.168 
L 242.77649 292.608 
L 242.938858 289.728 
L 243.020042 292.608 
L 243.101226 291.168 
L 243.18241 271.008001 
L 243.344778 292.608 
L 243.425962 292.608 
L 243.507146 226.368003 
L 243.669514 289.728 
L 243.750698 292.608 
L 243.831882 178.848004 
L 243.994249 291.168 
L 244.075433 292.608 
L 244.156617 141.408003 
L 244.318985 291.168 
L 244.400169 291.168 
L 244.481353 115.488003 
L 244.643721 291.168 
L 244.724905 291.168 
L 244.806089 111.168003 
L 244.968457 294.048 
L 245.049641 294.048 
L 245.130825 119.808003 
L 245.293192 291.168 
L 245.374376 292.608 
L 245.45556 147.168003 
L 245.617928 292.608 
L 245.699112 291.168 
L 245.780296 191.808004 
L 245.942664 291.168 
L 246.023848 291.168 
L 246.105032 237.888003 
L 246.2674 291.168 
L 246.348584 291.168 
L 246.429767 278.208001 
L 246.592135 291.168 
L 246.754503 291.168 
L 246.835687 289.728 
L 246.998055 292.608 
L 247.079239 292.608 
L 247.160423 294.048 
L 247.241607 291.168 
L 247.322791 294.048 
L 247.403975 289.728 
L 247.566342 292.608 
L 247.72871 291.168 
L 247.809894 291.168 
L 247.891078 292.608 
L 248.053446 291.168 
L 248.13463 291.168 
L 248.296998 292.608 
L 248.378182 289.728 
L 248.459366 291.168 
L 248.54055 276.768001 
L 248.784101 291.168 
L 248.865285 245.088002 
L 249.027653 291.168 
L 249.108837 291.168 
L 249.190021 203.328003 
L 249.352389 291.168 
L 249.433573 291.168 
L 249.514757 170.208004 
L 249.677125 292.608 
L 249.758309 291.168 
L 249.839493 151.488004 
L 250.00186 291.168 
L 250.083044 291.168 
L 250.164228 145.728003 
L 250.326596 292.608 
L 250.40778 292.608 
L 250.488964 155.808004 
L 250.651332 289.728 
L 250.732516 291.168 
L 250.8137 183.168004 
L 250.976068 291.168 
L 251.057252 291.168 
L 251.138436 219.168003 
L 251.300803 291.168 
L 251.381987 289.728 
L 251.463171 258.048002 
L 251.625539 289.728 
L 251.706723 292.608 
L 251.787907 283.968001 
L 251.950275 289.728 
L 252.112643 292.608 
L 252.193827 292.608 
L 252.356195 291.168 
L 252.437378 291.168 
L 252.599746 292.608 
L 252.68093 292.608 
L 252.762114 289.728 
L 252.924482 292.608 
L 253.08685 291.168 
L 253.249218 291.168 
L 253.411586 292.608 
L 253.49277 291.168 
L 253.655137 292.608 
L 253.736321 291.168 
L 253.817505 294.048 
L 253.898689 289.728 
L 253.979873 291.168 
L 254.061057 292.608 
L 254.142241 289.728 
L 254.223425 282.528001 
L 254.385793 292.608 
L 254.548161 266.688002 
L 254.710529 291.168 
L 254.872896 247.968002 
L 255.035264 291.168 
L 255.197632 233.568003 
L 255.36 289.728 
L 255.522368 230.688003 
L 255.684736 289.728 
L 255.76592 223.488003 
L 255.847104 237.888003 
L 256.009471 289.728 
L 256.090655 224.928003 
L 256.334207 292.608 
L 256.415391 242.208003 
L 256.658943 292.608 
L 256.740127 263.808002 
L 256.902495 291.168 
L 256.983679 292.608 
L 257.064863 282.528001 
L 257.308414 294.048 
L 257.389598 289.728 
L 257.470782 292.608 
L 257.551966 289.728 
L 257.63315 294.048 
L 257.795518 291.168 
L 257.876702 291.168 
L 258.03907 292.608 
L 258.120254 289.728 
L 258.201438 294.048 
L 258.282622 289.728 
L 258.363805 291.168 
L 258.444989 291.168 
L 258.526173 292.608 
L 258.607357 291.168 
L 258.850909 294.048 
L 258.932093 289.728 
L 259.013277 291.168 
L 259.094461 291.168 
L 259.175645 288.288 
L 259.256829 291.168 
L 259.338013 288.288 
L 259.419197 291.168 
L 259.500381 273.888001 
L 259.662748 292.608 
L 259.743932 292.608 
L 259.825116 233.568003 
L 259.987484 291.168 
L 260.068668 291.168 
L 260.149852 193.248004 
L 260.31222 291.168 
L 260.393404 292.608 
L 260.474588 155.808004 
L 260.636956 291.168 
L 260.71814 292.608 
L 260.799323 137.088003 
L 260.961691 292.608 
L 261.042875 292.608 
L 261.124059 131.328003 
L 261.286427 291.168 
L 261.367611 291.168 
L 261.448795 141.408003 
L 261.611163 292.608 
L 261.692347 291.168 
L 261.773531 168.768004 
L 261.935899 292.608 
L 262.017082 291.168 
L 262.098266 207.648003 
L 262.260634 291.168 
L 262.341818 291.168 
L 262.423002 250.848002 
L 262.58537 292.608 
L 262.747738 283.968001 
L 262.99129 292.608 
L 263.072474 292.608 
L 263.153658 294.048 
L 263.234841 289.728 
L 263.316025 291.168 
L 263.397209 292.608 
L 263.478393 289.728 
L 263.640761 292.608 
L 263.721945 292.608 
L 263.884313 289.728 
L 263.965497 292.608 
L 264.209049 289.728 
L 264.4526 292.608 
L 264.533784 288.288 
L 264.614968 289.728 
L 264.696152 289.728 
L 264.777336 292.608 
L 264.85852 265.248002 
L 265.020888 291.168 
L 265.102072 292.608 
L 265.183256 217.728003 
L 265.345624 289.728 
L 265.426808 292.608 
L 265.507992 171.648004 
L 265.670359 291.168 
L 265.751543 291.168 
L 265.832727 137.088003 
L 265.995095 292.608 
L 266.076279 292.608 
L 266.157463 115.488003 
L 266.319831 292.608 
L 266.401015 291.168 
L 266.482199 114.048003 
L 266.644567 292.608 
L 266.725751 289.728 
L 266.806934 127.008003 
L 266.969302 292.608 
L 267.050486 291.168 
L 267.13167 157.248004 
L 267.294038 291.168 
L 267.375222 291.168 
L 267.456406 200.448003 
L 267.618774 291.168 
L 267.699958 289.728 
L 267.781142 247.968002 
L 267.94351 291.168 
L 268.024693 292.608 
L 268.105877 282.528001 
L 268.268245 291.168 
L 268.349429 291.168 
L 268.430613 289.728 
L 268.592981 294.048 
L 268.755349 292.608 
L 268.836533 292.608 
L 268.917717 291.168 
L 268.998901 295.488 
L 269.161268 291.168 
L 269.242452 292.608 
L 269.486004 289.728 
L 269.567188 292.608 
L 269.648372 291.168 
L 269.729556 292.608 
L 269.891924 291.168 
L 269.973108 292.608 
L 270.054292 291.168 
L 270.135476 292.608 
L 270.21666 281.088001 
L 270.379027 289.728 
L 270.460211 291.168 
L 270.541395 255.168002 
L 270.703763 291.168 
L 270.784947 291.168 
L 270.866131 217.728003 
L 271.028499 289.728 
L 271.109683 288.288 
L 271.190867 193.248004 
L 271.353235 292.608 
L 271.434419 285.408001 
L 271.515603 177.408004 
L 271.67797 291.168 
L 271.759154 283.968001 
L 271.840338 177.408004 
L 272.002706 292.608 
L 272.08389 282.528001 
L 272.165074 190.368004 
L 272.327442 292.608 
L 272.408626 281.088001 
L 272.48981 213.408003 
L 272.652178 291.168 
L 272.733362 286.848001 
L 272.814545 243.648002 
L 272.976913 294.048 
L 273.139281 275.328001 
L 273.301649 291.168 
L 273.382833 291.168 
L 273.464017 288.288 
L 273.788753 292.608 
L 273.869937 292.608 
L 274.032304 291.168 
L 274.113488 292.608 
L 274.275856 291.168 
L 274.35704 291.168 
L 274.438224 289.728 
L 274.681776 292.608 
L 274.76296 292.608 
L 274.844144 291.168 
L 274.925328 292.608 
L 275.006512 289.728 
L 275.087696 292.608 
L 275.168879 291.168 
L 275.250063 292.608 
L 275.412431 291.168 
L 275.493615 292.608 
L 275.574799 289.728 
L 275.655983 292.608 
L 275.737167 291.168 
L 275.818351 282.528001 
L 275.899535 283.968001 
L 276.061903 291.168 
L 276.143087 263.808002 
L 276.386638 291.168 
L 276.467822 232.128003 
L 276.711374 294.048 
L 276.792558 209.088003 
L 277.03611 291.168 
L 277.117294 190.368004 
L 277.360846 288.288 
L 277.44203 186.048004 
L 277.604397 289.728 
L 277.685581 292.608 
L 277.766765 196.128004 
L 277.929133 291.168 
L 278.010317 294.048 
L 278.091501 216.288003 
L 278.253869 291.168 
L 278.335053 292.608 
L 278.416237 247.968002 
L 278.578605 289.728 
L 278.659789 292.608 
L 278.740973 275.328001 
L 278.90334 292.608 
L 279.065708 289.728 
L 279.146892 292.608 
L 279.228076 291.168 
L 279.30926 292.608 
L 279.390444 291.168 
L 279.552812 292.608 
L 279.633996 292.608 
L 279.71518 291.168 
L 279.796364 292.608 
L 279.958732 289.728 
L 280.039915 292.608 
L 280.121099 288.288 
L 280.283467 291.168 
L 280.527019 291.168 
L 280.689387 292.608 
L 280.770571 292.608 
L 280.851755 286.848001 
L 280.932939 288.288 
L 281.095307 291.168 
L 281.17649 259.488002 
L 281.338858 292.608 
L 281.420042 289.728 
L 281.501226 214.848003 
L 281.663594 291.168 
L 281.744778 291.168 
L 281.825962 173.088004 
L 281.98833 291.168 
L 282.069514 291.168 
L 282.150698 137.088003 
L 282.313066 289.728 
L 282.394249 291.168 
L 282.475433 118.368003 
L 282.637801 289.728 
L 282.718985 291.168 
L 282.800169 115.488003 
L 282.962537 289.728 
L 283.043721 292.608 
L 283.124905 131.328003 
L 283.287273 289.728 
L 283.368457 292.608 
L 283.449641 161.568004 
L 283.612008 292.608 
L 283.693192 292.608 
L 283.774376 206.208003 
L 283.936744 291.168 
L 284.017928 292.608 
L 284.099112 252.288002 
L 284.26148 292.608 
L 284.342664 292.608 
L 284.423848 282.528001 
L 284.586216 291.168 
L 284.748584 291.168 
L 284.829767 288.288 
L 284.910951 292.608 
L 284.992135 291.168 
L 285.073319 291.168 
L 285.235687 292.608 
L 285.398055 292.608 
L 285.479239 289.728 
L 285.560423 292.608 
L 285.722791 289.728 
L 285.885159 292.608 
L 286.047526 289.728 
L 286.12871 291.168 
L 286.209894 288.288 
L 286.372262 291.168 
L 286.453446 291.168 
L 286.53463 262.368002 
L 286.696998 292.608 
L 286.778182 292.608 
L 286.859366 217.728003 
L 287.021734 292.608 
L 287.102918 291.168 
L 287.184101 175.968004 
L 287.346469 294.048 
L 287.427653 292.608 
L 287.508837 145.728003 
L 287.671205 289.728 
L 287.752389 292.608 
L 287.833573 127.008003 
L 287.995941 292.608 
L 288.077125 292.608 
L 288.158309 128.448003 
L 288.320677 292.608 
L 288.40186 292.608 
L 288.483044 144.288003 
L 288.645412 291.168 
L 288.726596 291.168 
L 288.80778 177.408004 
L 288.970148 294.048 
L 289.051332 291.168 
L 289.132516 216.288003 
L 289.294884 292.608 
L 289.376068 291.168 
L 289.457252 259.488002 
L 289.619619 292.608 
L 289.781987 286.848001 
L 289.944355 291.168 
L 290.025539 291.168 
L 290.106723 289.728 
L 290.350275 292.608 
L 290.431459 291.168 
L 290.593827 292.608 
L 290.675011 291.168 
L 290.837378 294.048 
L 290.999746 292.608 
L 291.08093 292.608 
L 291.162114 289.728 
L 291.324482 292.608 
L 291.405666 292.608 
L 291.649218 289.728 
L 291.811586 292.608 
L 291.89277 285.408001 
L 292.055137 294.048 
L 292.136321 291.168 
L 292.217505 266.688002 
L 292.379873 294.048 
L 292.461057 286.848001 
L 292.542241 242.208003 
L 292.704609 291.168 
L 292.785793 279.648001 
L 292.866977 219.168003 
L 293.029345 291.168 
L 293.191712 206.208003 
L 293.35408 291.168 
L 293.516448 206.208003 
L 293.678816 291.168 
L 293.841184 219.168003 
L 294.003552 289.728 
L 294.16592 240.768003 
L 294.328288 292.608 
L 294.490655 265.248002 
L 294.653023 291.168 
L 294.734207 282.528001 
L 294.815391 283.968001 
L 294.977759 291.168 
L 295.058943 289.728 
L 295.221311 294.048 
L 295.302495 292.608 
L 295.383679 291.168 
L 295.464863 294.048 
L 295.708414 291.168 
L 295.870782 291.168 
L 295.951966 292.608 
L 296.114334 291.168 
L 296.195518 291.168 
L 296.357886 289.728 
L 296.520254 292.608 
L 296.763805 289.728 
L 296.844989 291.168 
L 296.926173 288.288 
L 297.088541 292.608 
L 297.169725 288.288 
L 297.250909 289.728 
L 297.332093 289.728 
L 297.413277 291.168 
L 297.494461 272.448001 
L 297.656829 292.608 
L 297.738013 288.288 
L 297.819197 240.768003 
L 297.981564 291.168 
L 298.062748 291.168 
L 298.143932 201.888003 
L 298.3063 291.168 
L 298.387484 291.168 
L 298.468668 171.648004 
L 298.631036 291.168 
L 298.71222 292.608 
L 298.793404 158.688004 
L 298.955772 291.168 
L 299.036956 292.608 
L 299.11814 154.368004 
L 299.280507 289.728 
L 299.361691 291.168 
L 299.442875 168.768004 
L 299.605243 291.168 
L 299.686427 292.608 
L 299.767611 197.568004 
L 299.929979 289.728 
L 300.011163 292.608 
L 300.092347 235.008003 
L 300.254715 291.168 
L 300.335899 289.728 
L 300.417082 271.008001 
L 300.57945 291.168 
L 300.823002 291.168 
L 300.904186 292.608 
L 300.98537 289.728 
L 301.066554 292.608 
L 301.147738 289.728 
L 301.39129 292.608 
L 301.472474 292.608 
L 301.553658 289.728 
L 301.716025 292.608 
L 301.878393 291.168 
L 301.959577 291.168 
L 302.040761 288.288 
L 302.121945 292.608 
L 302.203129 289.728 
L 302.284313 292.608 
L 302.527865 286.848001 
L 302.609049 288.288 
L 302.771416 291.168 
L 302.8526 250.848002 
L 303.014968 291.168 
L 303.096152 289.728 
L 303.177336 203.328003 
L 303.339704 291.168 
L 303.420888 289.728 
L 303.502072 161.568004 
L 303.66444 291.168 
L 303.745624 292.608 
L 303.826808 125.568003 
L 303.989175 292.608 
L 304.070359 289.728 
L 304.151543 111.168003 
L 304.313911 291.168 
L 304.395095 292.608 
L 304.476279 112.608003 
L 304.638647 292.608 
L 304.719831 291.168 
L 304.801015 129.888003 
L 304.963383 289.728 
L 305.044567 292.608 
L 305.125751 164.448004 
L 305.288118 292.608 
L 305.369302 294.048 
L 305.450486 209.088003 
L 305.612854 292.608 
L 305.694038 291.168 
L 305.775222 258.048002 
L 305.93759 291.168 
L 306.018774 292.608 
L 306.099958 285.408001 
L 306.262326 294.048 
L 306.505877 291.168 
L 306.668245 292.608 
L 306.749429 291.168 
L 306.911797 292.608 
L 306.992981 292.608 
L 307.074165 294.048 
L 307.155349 289.728 
L 307.236533 291.168 
L 307.317717 291.168 
L 307.398901 292.608 
L 307.480085 291.168 
L 307.561268 292.608 
L 307.642452 291.168 
L 307.80482 292.608 
L 307.886004 288.288 
L 308.048372 291.168 
L 308.129556 291.168 
L 308.21074 263.808002 
L 308.373108 294.048 
L 308.454292 291.168 
L 308.535476 226.368003 
L 308.697844 294.048 
L 308.779027 292.608 
L 308.860211 188.928004 
L 309.022579 292.608 
L 309.103763 289.728 
L 309.184947 163.008004 
L 309.347315 292.608 
L 309.428499 291.168 
L 309.509683 147.168003 
L 309.672051 292.608 
L 309.753235 291.168 
L 309.834419 151.488004 
L 309.996786 292.608 
L 310.07797 291.168 
L 310.159154 171.648004 
L 310.321522 291.168 
L 310.402706 289.728 
L 310.48389 201.888003 
L 310.646258 292.608 
L 310.727442 291.168 
L 310.808626 239.328003 
L 310.970994 294.048 
L 311.052178 292.608 
L 311.133362 271.008001 
L 311.295729 291.168 
L 311.376913 291.168 
L 311.458097 289.728 
L 311.539281 291.168 
L 311.620465 289.728 
L 311.782833 292.608 
L 311.864017 292.608 
L 311.945201 291.168 
L 312.026385 294.048 
L 312.107569 289.728 
L 312.188753 292.608 
L 312.351121 291.168 
L 312.432304 291.168 
L 312.513488 292.608 
L 312.675856 289.728 
L 312.75704 292.608 
L 312.838224 291.168 
L 312.919408 294.048 
L 313.081776 291.168 
L 313.16296 289.728 
L 313.325328 292.608 
L 313.568879 286.848001 
L 313.650063 288.288 
L 313.731247 291.168 
L 313.893615 278.208001 
L 314.055983 289.728 
L 314.218351 258.048002 
L 314.380719 289.728 
L 314.543087 243.648002 
L 314.705455 291.168 
L 314.867822 232.128003 
L 315.03019 291.168 
L 315.111374 224.928003 
L 315.192558 233.568003 
L 315.354926 292.608 
L 315.43611 220.608003 
L 315.517294 242.208003 
L 315.679662 289.728 
L 315.760846 229.248003 
L 316.004397 288.288 
L 316.085581 249.408002 
L 316.329133 294.048 
L 316.410317 272.448001 
L 316.572685 291.168 
L 316.653869 289.728 
L 316.735053 285.408001 
L 316.978605 292.608 
L 317.059789 291.168 
L 317.140973 292.608 
L 317.30334 289.728 
L 317.465708 292.608 
L 317.628076 289.728 
L 317.70926 289.728 
L 317.952812 292.608 
L 318.033996 291.168 
L 318.11518 292.608 
L 318.277548 289.728 
L 318.358732 292.608 
L 318.521099 291.168 
L 318.602283 292.608 
L 318.683467 291.168 
L 318.764651 292.608 
L 318.845835 285.408001 
L 318.927019 291.168 
L 319.008203 289.728 
L 319.089387 292.608 
L 319.170571 256.608002 
L 319.332939 292.608 
L 319.414123 289.728 
L 319.495307 214.848003 
L 319.657674 291.168 
L 319.738858 289.728 
L 319.820042 174.528004 
L 319.98241 292.608 
L 320.063594 291.168 
L 320.144778 145.728003 
L 320.307146 289.728 
L 320.38833 291.168 
L 320.469514 128.448003 
L 320.631882 291.168 
L 320.713066 292.608 
L 320.794249 132.768003 
L 320.956617 291.168 
L 321.037801 292.608 
L 321.118985 152.928004 
L 321.281353 291.168 
L 321.362537 291.168 
L 321.443721 181.728004 
L 321.606089 292.608 
L 321.687273 291.168 
L 321.768457 227.808003 
L 321.930825 291.168 
L 322.012008 295.488 
L 322.093192 268.128001 
L 322.25556 292.608 
L 322.336744 292.608 
L 322.417928 289.728 
L 322.580296 292.608 
L 322.742664 289.728 
L 322.986216 292.608 
L 323.0674 291.168 
L 323.148584 294.048 
L 323.229767 292.608 
L 323.392135 294.048 
L 323.473319 289.728 
L 323.554503 291.168 
L 323.635687 292.608 
L 323.716871 289.728 
L 323.960423 292.608 
L 324.041607 289.728 
L 324.122791 291.168 
L 324.203975 281.088001 
L 324.366342 289.728 
L 324.447526 292.608 
L 324.52871 243.648002 
L 324.691078 291.168 
L 324.772262 292.608 
L 324.853446 199.008004 
L 325.015814 292.608 
L 325.096998 291.168 
L 325.178182 155.808004 
L 325.34055 294.048 
L 325.421734 294.048 
L 325.502918 125.568003 
L 325.665285 294.048 
L 325.746469 289.728 
L 325.827653 115.488003 
L 325.990021 291.168 
L 326.071205 294.048 
L 326.152389 115.488003 
L 326.314757 292.608 
L 326.395941 294.048 
L 326.477125 138.528003 
L 326.639493 292.608 
L 326.720677 289.728 
L 326.80186 175.968004 
L 326.964228 292.608 
L 327.045412 289.728 
L 327.126596 222.048003 
L 327.288964 291.168 
L 327.370148 292.608 
L 327.451332 266.688002 
L 327.6137 291.168 
L 327.694884 291.168 
L 327.776068 288.288 
L 328.100803 292.608 
L 328.263171 291.168 
L 328.425539 292.608 
L 328.669091 292.608 
L 328.750275 294.048 
L 329.075011 289.728 
L 329.156195 292.608 
L 329.237378 291.168 
L 329.399746 292.608 
L 329.562114 288.288 
L 329.724482 292.608 
L 329.805666 291.168 
L 329.88685 271.008001 
L 330.049218 291.168 
L 330.130402 291.168 
L 330.211586 237.888003 
L 330.373953 291.168 
L 330.455137 292.608 
L 330.536321 207.648003 
L 330.698689 292.608 
L 330.779873 288.288 
L 330.861057 186.048004 
L 331.023425 291.168 
L 331.104609 283.968001 
L 331.185793 174.528004 
L 331.348161 292.608 
L 331.429345 279.648001 
L 331.510529 181.728004 
L 331.672896 292.608 
L 331.75408 279.648001 
L 331.835264 200.448003 
L 331.997632 288.288 
L 332.078816 282.528001 
L 332.16 229.248003 
L 332.322368 289.728 
L 332.403552 286.848001 
L 332.484736 259.488002 
L 332.647104 292.608 
L 332.728288 291.168 
L 332.809471 282.528001 
L 332.971839 291.168 
L 333.134207 292.608 
L 333.215391 291.168 
L 333.377759 292.608 
L 333.458943 292.608 
L 333.621311 291.168 
L 333.702495 291.168 
L 333.864863 292.608 
L 334.108414 292.608 
L 334.270782 291.168 
L 334.351966 291.168 
L 334.43315 289.728 
L 334.676702 292.608 
L 334.757886 289.728 
L 335.001438 292.608 
L 335.244989 288.288 
L 335.407357 292.608 
L 335.488541 275.328001 
L 335.569725 281.088001 
L 335.650909 292.608 
L 335.732093 289.728 
L 335.813277 247.968002 
L 336.056829 291.168 
L 336.138013 219.168003 
L 336.381564 291.168 
L 336.462748 196.128004 
L 336.7063 291.168 
L 336.787484 186.048004 
L 336.949852 291.168 
L 337.031036 291.168 
L 337.11222 187.488004 
L 337.274588 289.728 
L 337.355772 291.168 
L 337.436956 201.888003 
L 337.599323 289.728 
L 337.680507 291.168 
L 337.761691 227.808003 
L 337.924059 289.728 
L 338.005243 294.048 
L 338.086427 259.488002 
L 338.248795 292.608 
L 338.329979 291.168 
L 338.411163 283.968001 
L 338.573531 292.608 
L 338.654715 291.168 
L 338.735899 294.048 
L 338.898266 291.168 
L 338.97945 292.608 
L 339.060634 289.728 
L 339.141818 292.608 
L 339.223002 291.168 
L 339.304186 294.048 
L 339.38537 291.168 
L 339.547738 292.608 
L 339.710106 289.728 
L 339.953658 294.048 
L 340.116025 288.288 
L 340.278393 292.608 
L 340.359577 292.608 
L 340.440761 289.728 
L 340.521945 279.648001 
L 340.684313 291.168 
L 340.765497 292.608 
L 340.846681 243.648002 
L 341.009049 291.168 
L 341.090233 292.608 
L 341.171416 196.128004 
L 341.333784 292.608 
L 341.414968 292.608 
L 341.496152 154.368004 
L 341.65852 292.608 
L 341.739704 294.048 
L 341.820888 125.568003 
L 341.983256 294.048 
L 342.06444 289.728 
L 342.145624 115.488003 
L 342.307992 292.608 
L 342.389175 289.728 
L 342.470359 119.808003 
L 342.632727 291.168 
L 342.713911 291.168 
L 342.795095 142.848003 
L 342.957463 292.608 
L 343.038647 292.608 
L 343.119831 178.848004 
L 343.282199 291.168 
L 343.363383 291.168 
L 343.444567 227.808003 
L 343.606934 292.608 
L 343.688118 292.608 
L 343.769302 269.568001 
L 343.93167 292.608 
L 344.012854 292.608 
L 344.094038 289.728 
L 344.33759 292.608 
L 344.418774 291.168 
L 344.499958 292.608 
L 344.581142 291.168 
L 344.74351 292.608 
L 344.905877 292.608 
L 344.987061 291.168 
L 345.149429 292.608 
L 345.230613 292.608 
L 345.474165 289.728 
L 345.555349 291.168 
L 345.636533 289.728 
L 345.717717 292.608 
L 345.798901 291.168 
L 345.880085 281.088001 
L 346.123636 294.048 
L 346.20482 245.088002 
L 346.367188 292.608 
L 346.448372 292.608 
L 346.529556 200.448003 
L 346.691924 291.168 
L 346.773108 289.728 
L 346.854292 161.568004 
L 347.01666 291.168 
L 347.097844 292.608 
L 347.179027 137.088003 
L 347.341395 292.608 
L 347.422579 292.608 
L 347.503763 128.448003 
L 347.666131 289.728 
L 347.747315 291.168 
L 347.828499 134.208003 
L 347.990867 291.168 
L 348.072051 292.608 
L 348.153235 158.688004 
L 348.315603 289.728 
L 348.396786 289.728 
L 348.47797 193.248004 
L 348.640338 291.168 
L 348.721522 291.168 
L 348.802706 237.888003 
L 348.965074 292.608 
L 349.046258 292.608 
L 349.127442 275.328001 
L 349.28981 292.608 
L 349.452178 289.728 
L 349.695729 292.608 
L 349.776913 291.168 
L 349.858097 292.608 
L 350.020465 289.728 
L 350.101649 292.608 
L 350.264017 289.728 
L 350.426385 292.608 
L 350.588753 289.728 
L 350.669937 294.048 
L 350.751121 291.168 
L 350.994672 294.048 
L 351.15704 289.728 
L 351.238224 289.728 
L 351.481776 292.608 
L 351.56296 281.088001 
L 351.725328 291.168 
L 351.806512 288.288 
L 351.887696 255.168002 
L 352.050063 292.608 
L 352.131247 282.528001 
L 352.212431 230.688003 
L 352.374799 294.048 
L 352.455983 273.888001 
L 352.537167 213.408003 
L 352.699535 291.168 
L 352.861903 207.648003 
L 353.024271 291.168 
L 353.186638 213.408003 
L 353.349006 292.608 
L 353.511374 230.688003 
L 353.673742 289.728 
L 353.83611 253.728002 
L 353.998478 291.168 
L 354.079662 272.448001 
L 354.160846 276.768001 
L 354.323214 292.608 
L 354.404397 285.408001 
L 354.647949 292.608 
L 354.729133 289.728 
L 354.810317 292.608 
L 354.891501 291.168 
L 355.053869 292.608 
L 355.216237 291.168 
L 355.459789 291.168 
L 355.540973 294.048 
L 355.865708 289.728 
L 356.028076 291.168 
L 356.10926 291.168 
L 356.190444 292.608 
L 356.352812 288.288 
L 356.51518 291.168 
L 356.596364 289.728 
L 356.677548 292.608 
L 356.758732 291.168 
L 356.839915 285.408001 
L 357.083467 292.608 
L 357.164651 258.048002 
L 357.327019 292.608 
L 357.408203 292.608 
L 357.489387 220.608003 
L 357.651755 292.608 
L 357.732939 289.728 
L 357.814123 186.048004 
L 357.97649 292.608 
L 358.057674 292.608 
L 358.138858 163.008004 
L 358.301226 292.608 
L 358.38241 289.728 
L 358.463594 152.928004 
L 358.625962 292.608 
L 358.707146 292.608 
L 358.78833 158.688004 
L 358.950698 291.168 
L 359.031882 291.168 
L 359.113066 178.848004 
L 359.275433 292.608 
L 359.356617 289.728 
L 359.437801 209.088003 
L 359.600169 292.608 
L 359.681353 291.168 
L 359.762537 249.408002 
L 359.924905 291.168 
L 360.006089 291.168 
L 360.087273 279.648001 
L 360.249641 291.168 
L 360.412008 289.728 
L 360.736744 294.048 
L 360.899112 291.168 
L 360.980296 291.168 
L 361.06148 289.728 
L 361.305032 292.608 
L 361.4674 291.168 
L 361.548584 291.168 
L 361.629767 292.608 
L 361.710951 291.168 
L 361.792135 294.048 
L 361.873319 289.728 
L 361.954503 292.608 
L 362.035687 291.168 
L 362.116871 292.608 
L 362.198055 276.768001 
L 362.360423 289.728 
L 362.441607 291.168 
L 362.522791 230.688003 
L 362.685159 292.608 
L 362.766342 291.168 
L 362.847526 183.168004 
L 363.009894 289.728 
L 363.091078 294.048 
L 363.172262 142.848003 
L 363.33463 291.168 
L 363.415814 291.168 
L 363.496998 118.368003 
L 363.659366 289.728 
L 363.74055 292.608 
L 363.902918 53.568 
L 364.065285 291.168 
L 364.146469 292.608 
L 364.227653 115.488003 
L 364.390021 291.168 
L 364.471205 291.168 
L 364.552389 142.848003 
L 364.714757 291.168 
L 364.795941 292.608 
L 364.877125 183.168004 
L 365.039493 292.608 
L 365.120677 291.168 
L 365.20186 230.688003 
L 365.364228 291.168 
L 365.445412 292.608 
L 365.526596 275.328001 
L 365.688964 289.728 
L 365.851332 289.728 
L 366.0137 291.168 
L 366.094884 289.728 
L 366.176068 294.048 
L 366.338436 291.168 
L 366.500803 291.168 
L 366.663171 292.608 
L 366.744355 291.168 
L 366.825539 294.048 
L 367.150275 289.728 
L 367.231459 289.728 
L 367.475011 292.608 
L 367.556195 291.168 
L 367.637378 282.528001 
L 367.799746 289.728 
L 367.88093 291.168 
L 367.962114 250.848002 
L 368.124482 291.168 
L 368.205666 291.168 
L 368.28685 210.528003 
L 368.449218 291.168 
L 368.530402 291.168 
L 368.611586 177.408004 
L 368.773953 291.168 
L 368.855137 291.168 
L 368.936321 155.808004 
L 369.098689 294.048 
L 369.179873 292.608 
L 369.261057 150.048004 
L 369.423425 292.608 
L 369.504609 291.168 
L 369.585793 160.128004 
L 369.748161 291.168 
L 369.829345 291.168 
L 369.910529 184.608004 
L 370.072896 292.608 
L 370.15408 289.728 
L 370.235264 219.168003 
L 370.397632 292.608 
L 370.478816 291.168 
L 370.56 259.488002 
L 370.722368 292.608 
L 370.884736 285.408001 
L 371.047104 294.048 
L 371.209471 291.168 
L 371.371839 295.488 
L 371.534207 292.608 
L 371.615391 291.168 
L 371.696575 294.048 
L 371.777759 291.168 
L 371.858943 294.048 
L 371.940127 292.608 
L 372.021311 294.048 
L 372.102495 289.728 
L 372.183679 292.608 
L 372.264863 291.168 
L 372.346047 292.608 
L 372.42723 289.728 
L 372.589598 292.608 
L 372.670782 291.168 
L 372.83315 292.608 
L 372.914334 291.168 
L 373.076702 292.608 
L 373.157886 292.608 
L 373.23907 291.168 
L 373.320254 286.848001 
L 373.482622 292.608 
L 373.644989 271.008001 
L 373.807357 289.728 
L 373.969725 253.728002 
L 374.132093 292.608 
L 374.294461 240.768003 
L 374.456829 291.168 
L 374.538013 226.368003 
L 374.619197 233.568003 
L 374.781564 292.608 
L 374.862748 216.288003 
L 374.943932 239.328003 
L 375.1063 292.608 
L 375.187484 220.608003 
L 375.431036 289.728 
L 375.51222 235.008003 
L 375.755772 292.608 
L 375.836956 256.608002 
L 376.080507 292.608 
L 376.161691 279.648001 
L 376.324059 292.608 
L 376.405243 294.048 
L 376.567611 292.608 
L 376.729979 292.608 
L 376.811163 294.048 
L 376.973531 289.728 
L 377.054715 292.608 
L 377.217082 291.168 
L 377.37945 292.608 
L 377.460634 292.608 
L 377.541818 289.728 
L 377.623002 292.608 
L 377.704186 289.728 
L 378.028922 294.048 
L 378.110106 294.048 
L 378.272474 289.728 
L 378.434841 292.608 
L 378.516025 289.728 
L 378.597209 275.328001 
L 378.759577 292.608 
L 378.840761 291.168 
L 378.921945 237.888003 
L 379.084313 292.608 
L 379.165497 289.728 
L 379.246681 194.688004 
L 379.409049 291.168 
L 379.490233 292.608 
L 379.571416 160.128004 
L 379.733784 292.608 
L 379.814968 289.728 
L 379.896152 135.648003 
L 380.05852 291.168 
L 380.139704 289.728 
L 380.220888 129.888003 
L 380.383256 289.728 
L 380.46444 291.168 
L 380.545624 138.528003 
L 380.707992 292.608 
L 380.789175 291.168 
L 380.870359 163.008004 
L 381.032727 291.168 
L 381.113911 291.168 
L 381.195095 200.448003 
L 381.357463 294.048 
L 381.438647 291.168 
L 381.519831 243.648002 
L 381.682199 291.168 
L 381.763383 294.048 
L 381.844567 281.088001 
L 382.006934 291.168 
L 382.088118 292.608 
L 382.169302 291.168 
L 382.250486 294.048 
L 382.494038 291.168 
L 382.656406 291.168 
L 382.73759 292.608 
L 382.899958 291.168 
L 382.981142 291.168 
L 383.062326 292.608 
L 383.14351 289.728 
L 383.305877 291.168 
L 383.387061 289.728 
L 383.549429 291.168 
L 383.630613 291.168 
L 383.711797 289.728 
L 383.874165 291.168 
L 383.955349 269.568001 
L 384.117717 289.728 
L 384.198901 292.608 
L 384.280085 226.368003 
L 384.442452 292.608 
L 384.523636 289.728 
L 384.60482 178.848004 
L 384.767188 289.728 
L 384.848372 291.168 
L 384.929556 139.968003 
L 385.091924 291.168 
L 385.173108 291.168 
L 385.254292 118.368003 
L 385.41666 292.608 
L 385.497844 289.728 
L 385.579027 112.608003 
L 385.741395 289.728 
L 385.822579 291.168 
L 385.903763 127.008003 
L 386.066131 292.608 
L 386.147315 291.168 
L 386.228499 155.808004 
L 386.390867 292.608 
L 386.472051 292.608 
L 386.553235 194.688004 
L 386.715603 295.488 
L 386.796786 291.168 
L 386.87797 243.648002 
L 387.040338 291.168 
L 387.121522 291.168 
L 387.202706 281.088001 
L 387.365074 292.608 
L 387.446258 292.608 
L 387.527442 291.168 
L 387.68981 292.608 
L 387.770994 291.168 
L 388.014545 294.048 
L 388.095729 291.168 
L 388.258097 294.048 
L 388.501649 291.168 
L 388.745201 294.048 
L 388.826385 294.048 
L 388.907569 292.608 
L 388.988753 294.048 
L 389.151121 291.168 
L 389.232304 291.168 
L 389.313488 285.408001 
L 389.475856 294.048 
L 389.55704 292.608 
L 389.638224 260.928002 
L 389.800592 294.048 
L 389.881776 291.168 
L 389.96296 224.928003 
L 390.125328 292.608 
L 390.206512 291.168 
L 390.287696 197.568004 
L 390.450063 292.608 
L 390.531247 286.848001 
L 390.612431 184.608004 
L 390.774799 292.608 
L 390.855983 282.528001 
L 390.937167 181.728004 
L 391.099535 291.168 
L 391.180719 279.648001 
L 391.261903 190.368004 
L 391.424271 289.728 
L 391.505455 279.648001 
L 391.586638 214.848003 
L 391.749006 291.168 
L 391.83019 283.968001 
L 391.911374 246.528002 
L 392.073742 291.168 
L 392.154926 289.728 
L 392.23611 272.448001 
L 392.398478 291.168 
L 392.479662 291.168 
L 392.560846 289.728 
L 392.804397 292.608 
L 393.047949 289.728 
L 393.129133 291.168 
L 393.210317 289.728 
L 393.372685 294.048 
L 393.535053 291.168 
L 393.697421 294.048 
L 393.778605 291.168 
L 393.940973 292.608 
L 394.022156 291.168 
L 394.10334 294.048 
L 394.184524 291.168 
L 394.265708 292.608 
L 394.428076 291.168 
L 394.50926 291.168 
L 394.590444 292.608 
L 394.671628 289.728 
L 394.833996 291.168 
L 394.91518 283.968001 
L 395.158732 289.728 
L 395.239915 263.808002 
L 395.483467 291.168 
L 395.564651 235.008003 
L 395.808203 291.168 
L 395.889387 206.208003 
L 396.132939 289.728 
L 396.214123 188.928004 
L 396.457674 292.608 
L 396.538858 183.168004 
L 396.701226 291.168 
L 396.78241 289.728 
L 396.863594 188.928004 
L 397.025962 291.168 
L 397.107146 291.168 
L 397.18833 211.968003 
L 397.350698 291.168 
L 397.431882 292.608 
L 397.513066 240.768003 
L 397.675433 292.608 
L 397.756617 292.608 
L 397.837801 268.128001 
L 398.000169 294.048 
L 398.081353 292.608 
L 398.243721 288.288 
L 398.487273 292.608 
L 398.487273 292.608 
" style="fill:none;stroke:#1f77b4;stroke-linecap:square;stroke-width:1.5;"/>
   </g>
   <g id="patch_3">
    <path d="M 57.6 307.584 
L 57.6 41.472 
" style="fill:none;stroke:#000000;stroke-linecap:square;stroke-linejoin:miter;stroke-width:0.8;"/>
   </g>
   <g id="patch_4">
    <path d="M 414.72 307.584 
L 414.72 41.472 
" style="fill:none;stroke:#000000;stroke-linecap:square;stroke-linejoin:miter;stroke-width:0.8;"/>
   </g>
   <g id="patch_5">
    <path d="M 57.6 307.584 
L 414.72 307.584 
" style="fill:none;stroke:#000000;stroke-linecap:square;stroke-linejoin:miter;stroke-width:0.8;"/>
   </g>
   <g id="patch_6">
    <path d="M 57.6 41.472 
L 414.72 41.472 
" style="fill:none;stroke:#000000;stroke-linecap:square;stroke-linejoin:miter;stroke-width:0.8;"/>
   </g>
   <g id="text_18">
    <!-- received signal sliced -->
    <g transform="translate(171.605625 35.472)scale(0.12 -0.12)">
     <defs>
      <path d="M 2631 2963 
Q 2534 3019 2420 3045 
Q 2306 3072 2169 3072 
Q 1681 3072 1420 2755 
Q 1159 2438 1159 1844 
L 1159 0 
L 581 0 
L 581 3500 
L 1159 3500 
L 1159 2956 
Q 1341 3275 1631 3429 
Q 1922 3584 2338 3584 
Q 2397 3584 2469 3576 
Q 2541 3569 2628 3553 
L 2631 2963 
z
" id="DejaVuSans-72" transform="scale(0.015625)"/>
      <path d="M 3122 3366 
L 3122 2828 
Q 2878 2963 2633 3030 
Q 2388 3097 2138 3097 
Q 1578 3097 1268 2742 
Q 959 2388 959 1747 
Q 959 1106 1268 751 
Q 1578 397 2138 397 
Q 2388 397 2633 464 
Q 2878 531 3122 666 
L 3122 134 
Q 2881 22 2623 -34 
Q 2366 -91 2075 -91 
Q 1284 -91 818 406 
Q 353 903 353 1747 
Q 353 2603 823 3093 
Q 1294 3584 2113 3584 
Q 2378 3584 2631 3529 
Q 2884 3475 3122 3366 
z
" id="DejaVuSans-63" transform="scale(0.015625)"/>
      <path d="M 191 3500 
L 800 3500 
L 1894 563 
L 2988 3500 
L 3597 3500 
L 2284 0 
L 1503 0 
L 191 3500 
z
" id="DejaVuSans-76" transform="scale(0.015625)"/>
      <path d="M 2906 2969 
L 2906 4863 
L 3481 4863 
L 3481 0 
L 2906 0 
L 2906 525 
Q 2725 213 2448 61 
Q 2172 -91 1784 -91 
Q 1150 -91 751 415 
Q 353 922 353 1747 
Q 353 2572 751 3078 
Q 1150 3584 1784 3584 
Q 2172 3584 2448 3432 
Q 2725 3281 2906 2969 
z
M 947 1747 
Q 947 1113 1208 752 
Q 1469 391 1925 391 
Q 2381 391 2643 752 
Q 2906 1113 2906 1747 
Q 2906 2381 2643 2742 
Q 2381 3103 1925 3103 
Q 1469 3103 1208 2742 
Q 947 2381 947 1747 
z
" id="DejaVuSans-64" transform="scale(0.015625)"/>
      <path d="M 2906 1791 
Q 2906 2416 2648 2759 
Q 2391 3103 1925 3103 
Q 1463 3103 1205 2759 
Q 947 2416 947 1791 
Q 947 1169 1205 825 
Q 1463 481 1925 481 
Q 2391 481 2648 825 
Q 2906 1169 2906 1791 
z
M 3481 434 
Q 3481 -459 3084 -895 
Q 2688 -1331 1869 -1331 
Q 1566 -1331 1297 -1286 
Q 1028 -1241 775 -1147 
L 775 -588 
Q 1028 -725 1275 -790 
Q 1522 -856 1778 -856 
Q 2344 -856 2625 -561 
Q 2906 -266 2906 331 
L 2906 616 
Q 2728 306 2450 153 
Q 2172 0 1784 0 
Q 1141 0 747 490 
Q 353 981 353 1791 
Q 353 2603 747 3093 
Q 1141 3584 1784 3584 
Q 2172 3584 2450 3431 
Q 2728 3278 2906 2969 
L 2906 3500 
L 3481 3500 
L 3481 434 
z
" id="DejaVuSans-67" transform="scale(0.015625)"/>
      <path d="M 3513 2113 
L 3513 0 
L 2938 0 
L 2938 2094 
Q 2938 2591 2744 2837 
Q 2550 3084 2163 3084 
Q 1697 3084 1428 2787 
Q 1159 2491 1159 1978 
L 1159 0 
L 581 0 
L 581 3500 
L 1159 3500 
L 1159 2956 
Q 1366 3272 1645 3428 
Q 1925 3584 2291 3584 
Q 2894 3584 3203 3211 
Q 3513 2838 3513 2113 
z
" id="DejaVuSans-6e" transform="scale(0.015625)"/>
      <path d="M 2194 1759 
Q 1497 1759 1228 1600 
Q 959 1441 959 1056 
Q 959 750 1161 570 
Q 1363 391 1709 391 
Q 2188 391 2477 730 
Q 2766 1069 2766 1631 
L 2766 1759 
L 2194 1759 
z
M 3341 1997 
L 3341 0 
L 2766 0 
L 2766 531 
Q 2569 213 2275 61 
Q 1981 -91 1556 -91 
Q 1019 -91 701 211 
Q 384 513 384 1019 
Q 384 1609 779 1909 
Q 1175 2209 1959 2209 
L 2766 2209 
L 2766 2266 
Q 2766 2663 2505 2880 
Q 2244 3097 1772 3097 
Q 1472 3097 1187 3025 
Q 903 2953 641 2809 
L 641 3341 
Q 956 3463 1253 3523 
Q 1550 3584 1831 3584 
Q 2591 3584 2966 3190 
Q 3341 2797 3341 1997 
z
" id="DejaVuSans-61" transform="scale(0.015625)"/>
      <path d="M 603 4863 
L 1178 4863 
L 1178 0 
L 603 0 
L 603 4863 
z
" id="DejaVuSans-6c" transform="scale(0.015625)"/>
     </defs>
     <use xlink:href="#DejaVuSans-72"/>
     <use x="38.863281" xlink:href="#DejaVuSans-65"/>
     <use x="100.386719" xlink:href="#DejaVuSans-63"/>
     <use x="155.367188" xlink:href="#DejaVuSans-65"/>
     <use x="216.890625" xlink:href="#DejaVuSans-69"/>
     <use x="244.673828" xlink:href="#DejaVuSans-76"/>
     <use x="303.853516" xlink:href="#DejaVuSans-65"/>
     <use x="365.376953" xlink:href="#DejaVuSans-64"/>
     <use x="428.853516" xlink:href="#DejaVuSans-20"/>
     <use x="460.640625" xlink:href="#DejaVuSans-73"/>
     <use x="512.740234" xlink:href="#DejaVuSans-69"/>
     <use x="540.523438" xlink:href="#DejaVuSans-67"/>
     <use x="604" xlink:href="#DejaVuSans-6e"/>
     <use x="667.378906" xlink:href="#DejaVuSans-61"/>
     <use x="728.658203" xlink:href="#DejaVuSans-6c"/>
     <use x="756.441406" xlink:href="#DejaVuSans-20"/>
     <use x="788.228516" xlink:href="#DejaVuSans-73"/>
     <use x="840.328125" xlink:href="#DejaVuSans-6c"/>
     <use x="868.111328" xlink:href="#DejaVuSans-69"/>
     <use x="895.894531" xlink:href="#DejaVuSans-63"/>
     <use x="950.875" xlink:href="#DejaVuSans-65"/>
     <use x="1012.398438" xlink:href="#DejaVuSans-64"/>
    </g>
   </g>
  </g>
 </g>
 <defs>
  <clipPath id="p644628de7a">
   <rect height="266.112" width="357.12" x="57.6" y="41.472"/>
  </clipPath>
 </defs>
</svg>
