<?xml version="1.0" encoding="utf-8" standalone="no"?>
<!DOCTYPE svg PUBLIC "-//W3C//DTD SVG 1.1//EN"
  "http://www.w3.org/Graphics/SVG/1.1/DTD/svg11.dtd">
<svg height="345.6pt" version="1.1" viewBox="0 0 460.8 345.6" width="460.8pt" xmlns="http://www.w3.org/2000/svg" xmlns:xlink="http://www.w3.org/1999/xlink">
 <metadata>
  <rdf:RDF xmlns:cc="http://creativecommons.org/ns#" xmlns:dc="http://purl.org/dc/elements/1.1/" xmlns:rdf="http://www.w3.org/1999/02/22-rdf-syntax-ns#">
   <cc:Work>
    <dc:type rdf:resource="http://purl.org/dc/dcmitype/StillImage"/>
    <dc:date>2021-11-04T01:37:12.497050</dc:date>
    <dc:format>image/svg+xml</dc:format>
    <dc:creator>
     <cc:Agent>
      <dc:title>Matplotlib v3.4.3, https://matplotlib.org/</dc:title>
     </cc:Agent>
    </dc:creator>
   </cc:Work>
  </rdf:RDF>
 </metadata>
 <defs>
  <style type="text/css">*{stroke-linecap:butt;stroke-linejoin:round;}</style>
 </defs>
 <g id="figure_1">
  <g id="patch_1">
   <path d="M 0 345.6 
L 460.8 345.6 
L 460.8 0 
L 0 0 
z
" style="fill:#ffffff;"/>
  </g>
  <g id="axes_1">
   <g id="patch_2">
    <path d="M 57.6 307.584 
L 414.72 307.584 
L 414.72 41.472 
L 57.6 41.472 
z
" style="fill:#ffffff;"/>
   </g>
   <g id="matplotlib.axis_1">
    <g id="xtick_1">
     <g id="line2d_1">
      <defs>
       <path d="M 0 0 
L 0 3.5 
" id="md0c82f4bc3" style="stroke:#000000;stroke-width:0.8;"/>
      </defs>
      <g>
       <use style="stroke:#000000;stroke-width:0.8;" x="73.832727" xlink:href="#md0c82f4bc3" y="307.584"/>
      </g>
     </g>
     <g id="text_1">
      <!-- −10000 -->
      <g transform="translate(53.736634 322.182437)scale(0.1 -0.1)">
       <defs>
        <path d="M 678 2272 
L 4684 2272 
L 4684 1741 
L 678 1741 
L 678 2272 
z
" id="DejaVuSans-2212" transform="scale(0.015625)"/>
        <path d="M 794 531 
L 1825 531 
L 1825 4091 
L 703 3866 
L 703 4441 
L 1819 4666 
L 2450 4666 
L 2450 531 
L 3481 531 
L 3481 0 
L 794 0 
L 794 531 
z
" id="DejaVuSans-31" transform="scale(0.015625)"/>
        <path d="M 2034 4250 
Q 1547 4250 1301 3770 
Q 1056 3291 1056 2328 
Q 1056 1369 1301 889 
Q 1547 409 2034 409 
Q 2525 409 2770 889 
Q 3016 1369 3016 2328 
Q 3016 3291 2770 3770 
Q 2525 4250 2034 4250 
z
M 2034 4750 
Q 2819 4750 3233 4129 
Q 3647 3509 3647 2328 
Q 3647 1150 3233 529 
Q 2819 -91 2034 -91 
Q 1250 -91 836 529 
Q 422 1150 422 2328 
Q 422 3509 836 4129 
Q 1250 4750 2034 4750 
z
" id="DejaVuSans-30" transform="scale(0.015625)"/>
       </defs>
       <use xlink:href="#DejaVuSans-2212"/>
       <use x="83.789062" xlink:href="#DejaVuSans-31"/>
       <use x="147.412109" xlink:href="#DejaVuSans-30"/>
       <use x="211.035156" xlink:href="#DejaVuSans-30"/>
       <use x="274.658203" xlink:href="#DejaVuSans-30"/>
       <use x="338.28125" xlink:href="#DejaVuSans-30"/>
      </g>
     </g>
    </g>
    <g id="xtick_2">
     <g id="line2d_2">
      <g>
       <use style="stroke:#000000;stroke-width:0.8;" x="114.424693" xlink:href="#md0c82f4bc3" y="307.584"/>
      </g>
     </g>
     <g id="text_2">
      <!-- −7500 -->
      <g transform="translate(97.50985 322.182437)scale(0.1 -0.1)">
       <defs>
        <path d="M 525 4666 
L 3525 4666 
L 3525 4397 
L 1831 0 
L 1172 0 
L 2766 4134 
L 525 4134 
L 525 4666 
z
" id="DejaVuSans-37" transform="scale(0.015625)"/>
        <path d="M 691 4666 
L 3169 4666 
L 3169 4134 
L 1269 4134 
L 1269 2991 
Q 1406 3038 1543 3061 
Q 1681 3084 1819 3084 
Q 2600 3084 3056 2656 
Q 3513 2228 3513 1497 
Q 3513 744 3044 326 
Q 2575 -91 1722 -91 
Q 1428 -91 1123 -41 
Q 819 9 494 109 
L 494 744 
Q 775 591 1075 516 
Q 1375 441 1709 441 
Q 2250 441 2565 725 
Q 2881 1009 2881 1497 
Q 2881 1984 2565 2268 
Q 2250 2553 1709 2553 
Q 1456 2553 1204 2497 
Q 953 2441 691 2322 
L 691 4666 
z
" id="DejaVuSans-35" transform="scale(0.015625)"/>
       </defs>
       <use xlink:href="#DejaVuSans-2212"/>
       <use x="83.789062" xlink:href="#DejaVuSans-37"/>
       <use x="147.412109" xlink:href="#DejaVuSans-35"/>
       <use x="211.035156" xlink:href="#DejaVuSans-30"/>
       <use x="274.658203" xlink:href="#DejaVuSans-30"/>
      </g>
     </g>
    </g>
    <g id="xtick_3">
     <g id="line2d_3">
      <g>
       <use style="stroke:#000000;stroke-width:0.8;" x="155.01666" xlink:href="#md0c82f4bc3" y="307.584"/>
      </g>
     </g>
     <g id="text_3">
      <!-- −5000 -->
      <g transform="translate(138.101816 322.182437)scale(0.1 -0.1)">
       <use xlink:href="#DejaVuSans-2212"/>
       <use x="83.789062" xlink:href="#DejaVuSans-35"/>
       <use x="147.412109" xlink:href="#DejaVuSans-30"/>
       <use x="211.035156" xlink:href="#DejaVuSans-30"/>
       <use x="274.658203" xlink:href="#DejaVuSans-30"/>
      </g>
     </g>
    </g>
    <g id="xtick_4">
     <g id="line2d_4">
      <g>
       <use style="stroke:#000000;stroke-width:0.8;" x="195.608626" xlink:href="#md0c82f4bc3" y="307.584"/>
      </g>
     </g>
     <g id="text_4">
      <!-- −2500 -->
      <g transform="translate(178.693782 322.182437)scale(0.1 -0.1)">
       <defs>
        <path d="M 1228 531 
L 3431 531 
L 3431 0 
L 469 0 
L 469 531 
Q 828 903 1448 1529 
Q 2069 2156 2228 2338 
Q 2531 2678 2651 2914 
Q 2772 3150 2772 3378 
Q 2772 3750 2511 3984 
Q 2250 4219 1831 4219 
Q 1534 4219 1204 4116 
Q 875 4013 500 3803 
L 500 4441 
Q 881 4594 1212 4672 
Q 1544 4750 1819 4750 
Q 2544 4750 2975 4387 
Q 3406 4025 3406 3419 
Q 3406 3131 3298 2873 
Q 3191 2616 2906 2266 
Q 2828 2175 2409 1742 
Q 1991 1309 1228 531 
z
" id="DejaVuSans-32" transform="scale(0.015625)"/>
       </defs>
       <use xlink:href="#DejaVuSans-2212"/>
       <use x="83.789062" xlink:href="#DejaVuSans-32"/>
       <use x="147.412109" xlink:href="#DejaVuSans-35"/>
       <use x="211.035156" xlink:href="#DejaVuSans-30"/>
       <use x="274.658203" xlink:href="#DejaVuSans-30"/>
      </g>
     </g>
    </g>
    <g id="xtick_5">
     <g id="line2d_5">
      <g>
       <use style="stroke:#000000;stroke-width:0.8;" x="236.200592" xlink:href="#md0c82f4bc3" y="307.584"/>
      </g>
     </g>
     <g id="text_5">
      <!-- 0 -->
      <g transform="translate(233.019342 322.182437)scale(0.1 -0.1)">
       <use xlink:href="#DejaVuSans-30"/>
      </g>
     </g>
    </g>
    <g id="xtick_6">
     <g id="line2d_6">
      <g>
       <use style="stroke:#000000;stroke-width:0.8;" x="276.792558" xlink:href="#md0c82f4bc3" y="307.584"/>
      </g>
     </g>
     <g id="text_6">
      <!-- 2500 -->
      <g transform="translate(264.067558 322.182437)scale(0.1 -0.1)">
       <use xlink:href="#DejaVuSans-32"/>
       <use x="63.623047" xlink:href="#DejaVuSans-35"/>
       <use x="127.246094" xlink:href="#DejaVuSans-30"/>
       <use x="190.869141" xlink:href="#DejaVuSans-30"/>
      </g>
     </g>
    </g>
    <g id="xtick_7">
     <g id="line2d_7">
      <g>
       <use style="stroke:#000000;stroke-width:0.8;" x="317.384524" xlink:href="#md0c82f4bc3" y="307.584"/>
      </g>
     </g>
     <g id="text_7">
      <!-- 5000 -->
      <g transform="translate(304.659524 322.182437)scale(0.1 -0.1)">
       <use xlink:href="#DejaVuSans-35"/>
       <use x="63.623047" xlink:href="#DejaVuSans-30"/>
       <use x="127.246094" xlink:href="#DejaVuSans-30"/>
       <use x="190.869141" xlink:href="#DejaVuSans-30"/>
      </g>
     </g>
    </g>
    <g id="xtick_8">
     <g id="line2d_8">
      <g>
       <use style="stroke:#000000;stroke-width:0.8;" x="357.97649" xlink:href="#md0c82f4bc3" y="307.584"/>
      </g>
     </g>
     <g id="text_8">
      <!-- 7500 -->
      <g transform="translate(345.25149 322.182437)scale(0.1 -0.1)">
       <use xlink:href="#DejaVuSans-37"/>
       <use x="63.623047" xlink:href="#DejaVuSans-35"/>
       <use x="127.246094" xlink:href="#DejaVuSans-30"/>
       <use x="190.869141" xlink:href="#DejaVuSans-30"/>
      </g>
     </g>
    </g>
    <g id="xtick_9">
     <g id="line2d_9">
      <g>
       <use style="stroke:#000000;stroke-width:0.8;" x="398.568457" xlink:href="#md0c82f4bc3" y="307.584"/>
      </g>
     </g>
     <g id="text_9">
      <!-- 10000 -->
      <g transform="translate(382.662207 322.182437)scale(0.1 -0.1)">
       <use xlink:href="#DejaVuSans-31"/>
       <use x="63.623047" xlink:href="#DejaVuSans-30"/>
       <use x="127.246094" xlink:href="#DejaVuSans-30"/>
       <use x="190.869141" xlink:href="#DejaVuSans-30"/>
       <use x="254.492188" xlink:href="#DejaVuSans-30"/>
      </g>
     </g>
    </g>
    <g id="text_10">
     <!-- frequency $\left[Hz\right]$ -->
     <g transform="translate(199.06 335.862125)scale(0.1 -0.1)">
      <defs>
       <path d="M 2375 4863 
L 2375 4384 
L 1825 4384 
Q 1516 4384 1395 4259 
Q 1275 4134 1275 3809 
L 1275 3500 
L 2222 3500 
L 2222 3053 
L 1275 3053 
L 1275 0 
L 697 0 
L 697 3053 
L 147 3053 
L 147 3500 
L 697 3500 
L 697 3744 
Q 697 4328 969 4595 
Q 1241 4863 1831 4863 
L 2375 4863 
z
" id="DejaVuSans-66" transform="scale(0.015625)"/>
       <path d="M 2631 2963 
Q 2534 3019 2420 3045 
Q 2306 3072 2169 3072 
Q 1681 3072 1420 2755 
Q 1159 2438 1159 1844 
L 1159 0 
L 581 0 
L 581 3500 
L 1159 3500 
L 1159 2956 
Q 1341 3275 1631 3429 
Q 1922 3584 2338 3584 
Q 2397 3584 2469 3576 
Q 2541 3569 2628 3553 
L 2631 2963 
z
" id="DejaVuSans-72" transform="scale(0.015625)"/>
       <path d="M 3597 1894 
L 3597 1613 
L 953 1613 
Q 991 1019 1311 708 
Q 1631 397 2203 397 
Q 2534 397 2845 478 
Q 3156 559 3463 722 
L 3463 178 
Q 3153 47 2828 -22 
Q 2503 -91 2169 -91 
Q 1331 -91 842 396 
Q 353 884 353 1716 
Q 353 2575 817 3079 
Q 1281 3584 2069 3584 
Q 2775 3584 3186 3129 
Q 3597 2675 3597 1894 
z
M 3022 2063 
Q 3016 2534 2758 2815 
Q 2500 3097 2075 3097 
Q 1594 3097 1305 2825 
Q 1016 2553 972 2059 
L 3022 2063 
z
" id="DejaVuSans-65" transform="scale(0.015625)"/>
       <path d="M 947 1747 
Q 947 1113 1208 752 
Q 1469 391 1925 391 
Q 2381 391 2643 752 
Q 2906 1113 2906 1747 
Q 2906 2381 2643 2742 
Q 2381 3103 1925 3103 
Q 1469 3103 1208 2742 
Q 947 2381 947 1747 
z
M 2906 525 
Q 2725 213 2448 61 
Q 2172 -91 1784 -91 
Q 1150 -91 751 415 
Q 353 922 353 1747 
Q 353 2572 751 3078 
Q 1150 3584 1784 3584 
Q 2172 3584 2448 3432 
Q 2725 3281 2906 2969 
L 2906 3500 
L 3481 3500 
L 3481 -1331 
L 2906 -1331 
L 2906 525 
z
" id="DejaVuSans-71" transform="scale(0.015625)"/>
       <path d="M 544 1381 
L 544 3500 
L 1119 3500 
L 1119 1403 
Q 1119 906 1312 657 
Q 1506 409 1894 409 
Q 2359 409 2629 706 
Q 2900 1003 2900 1516 
L 2900 3500 
L 3475 3500 
L 3475 0 
L 2900 0 
L 2900 538 
Q 2691 219 2414 64 
Q 2138 -91 1772 -91 
Q 1169 -91 856 284 
Q 544 659 544 1381 
z
M 1991 3584 
L 1991 3584 
z
" id="DejaVuSans-75" transform="scale(0.015625)"/>
       <path d="M 3513 2113 
L 3513 0 
L 2938 0 
L 2938 2094 
Q 2938 2591 2744 2837 
Q 2550 3084 2163 3084 
Q 1697 3084 1428 2787 
Q 1159 2491 1159 1978 
L 1159 0 
L 581 0 
L 581 3500 
L 1159 3500 
L 1159 2956 
Q 1366 3272 1645 3428 
Q 1925 3584 2291 3584 
Q 2894 3584 3203 3211 
Q 3513 2838 3513 2113 
z
" id="DejaVuSans-6e" transform="scale(0.015625)"/>
       <path d="M 3122 3366 
L 3122 2828 
Q 2878 2963 2633 3030 
Q 2388 3097 2138 3097 
Q 1578 3097 1268 2742 
Q 959 2388 959 1747 
Q 959 1106 1268 751 
Q 1578 397 2138 397 
Q 2388 397 2633 464 
Q 2878 531 3122 666 
L 3122 134 
Q 2881 22 2623 -34 
Q 2366 -91 2075 -91 
Q 1284 -91 818 406 
Q 353 903 353 1747 
Q 353 2603 823 3093 
Q 1294 3584 2113 3584 
Q 2378 3584 2631 3529 
Q 2884 3475 3122 3366 
z
" id="DejaVuSans-63" transform="scale(0.015625)"/>
       <path d="M 2059 -325 
Q 1816 -950 1584 -1140 
Q 1353 -1331 966 -1331 
L 506 -1331 
L 506 -850 
L 844 -850 
Q 1081 -850 1212 -737 
Q 1344 -625 1503 -206 
L 1606 56 
L 191 3500 
L 800 3500 
L 1894 763 
L 2988 3500 
L 3597 3500 
L 2059 -325 
z
" id="DejaVuSans-79" transform="scale(0.015625)"/>
       <path id="DejaVuSans-20" transform="scale(0.015625)"/>
       <path d="M 550 4863 
L 1875 4863 
L 1875 4416 
L 1125 4416 
L 1125 -397 
L 1875 -397 
L 1875 -844 
L 550 -844 
L 550 4863 
z
" id="DejaVuSans-5b" transform="scale(0.015625)"/>
       <path d="M 1081 4666 
L 1716 4666 
L 1344 2753 
L 3634 2753 
L 4006 4666 
L 4641 4666 
L 3731 0 
L 3097 0 
L 3531 2222 
L 1241 2222 
L 806 0 
L 172 0 
L 1081 4666 
z
" id="DejaVuSans-Oblique-48" transform="scale(0.015625)"/>
       <path d="M 744 3500 
L 3475 3500 
L 3372 2975 
L 738 459 
L 2913 459 
L 2822 0 
L -19 0 
L 84 525 
L 2719 3041 
L 653 3041 
L 744 3500 
z
" id="DejaVuSans-Oblique-7a" transform="scale(0.015625)"/>
       <path d="M 1947 4863 
L 1947 -844 
L 622 -844 
L 622 -397 
L 1369 -397 
L 1369 4416 
L 622 4416 
L 622 4863 
L 1947 4863 
z
" id="DejaVuSans-5d" transform="scale(0.015625)"/>
      </defs>
      <use transform="translate(0 0.015625)" xlink:href="#DejaVuSans-66"/>
      <use transform="translate(35.205078 0.015625)" xlink:href="#DejaVuSans-72"/>
      <use transform="translate(76.318359 0.015625)" xlink:href="#DejaVuSans-65"/>
      <use transform="translate(137.841797 0.015625)" xlink:href="#DejaVuSans-71"/>
      <use transform="translate(201.318359 0.015625)" xlink:href="#DejaVuSans-75"/>
      <use transform="translate(264.697266 0.015625)" xlink:href="#DejaVuSans-65"/>
      <use transform="translate(326.220703 0.015625)" xlink:href="#DejaVuSans-6e"/>
      <use transform="translate(389.599609 0.015625)" xlink:href="#DejaVuSans-63"/>
      <use transform="translate(444.580078 0.015625)" xlink:href="#DejaVuSans-79"/>
      <use transform="translate(503.759766 0.015625)" xlink:href="#DejaVuSans-20"/>
      <use transform="translate(535.546875 0.015625)" xlink:href="#DejaVuSans-5b"/>
      <use transform="translate(574.560547 0.015625)" xlink:href="#DejaVuSans-Oblique-48"/>
      <use transform="translate(649.755859 0.015625)" xlink:href="#DejaVuSans-Oblique-7a"/>
      <use transform="translate(702.246094 0.015625)" xlink:href="#DejaVuSans-5d"/>
     </g>
    </g>
   </g>
   <g id="matplotlib.axis_2">
    <g id="ytick_1">
     <g id="line2d_10">
      <defs>
       <path d="M 0 0 
L -3.5 0 
" id="ma95bcf358a" style="stroke:#000000;stroke-width:0.8;"/>
      </defs>
      <g>
       <use style="stroke:#000000;stroke-width:0.8;" x="57.6" xlink:href="#ma95bcf358a" y="295.493721"/>
      </g>
     </g>
     <g id="text_11">
      <!-- 0.000 -->
      <g transform="translate(21.971875 299.29294)scale(0.1 -0.1)">
       <defs>
        <path d="M 684 794 
L 1344 794 
L 1344 0 
L 684 0 
L 684 794 
z
" id="DejaVuSans-2e" transform="scale(0.015625)"/>
       </defs>
       <use xlink:href="#DejaVuSans-30"/>
       <use x="63.623047" xlink:href="#DejaVuSans-2e"/>
       <use x="95.410156" xlink:href="#DejaVuSans-30"/>
       <use x="159.033203" xlink:href="#DejaVuSans-30"/>
       <use x="222.65625" xlink:href="#DejaVuSans-30"/>
      </g>
     </g>
    </g>
    <g id="ytick_2">
     <g id="line2d_11">
      <g>
       <use style="stroke:#000000;stroke-width:0.8;" x="57.6" xlink:href="#ma95bcf358a" y="239.539638"/>
      </g>
     </g>
     <g id="text_12">
      <!-- 0.005 -->
      <g transform="translate(21.971875 243.338857)scale(0.1 -0.1)">
       <use xlink:href="#DejaVuSans-30"/>
       <use x="63.623047" xlink:href="#DejaVuSans-2e"/>
       <use x="95.410156" xlink:href="#DejaVuSans-30"/>
       <use x="159.033203" xlink:href="#DejaVuSans-30"/>
       <use x="222.65625" xlink:href="#DejaVuSans-35"/>
      </g>
     </g>
    </g>
    <g id="ytick_3">
     <g id="line2d_12">
      <g>
       <use style="stroke:#000000;stroke-width:0.8;" x="57.6" xlink:href="#ma95bcf358a" y="183.585555"/>
      </g>
     </g>
     <g id="text_13">
      <!-- 0.010 -->
      <g transform="translate(21.971875 187.384774)scale(0.1 -0.1)">
       <use xlink:href="#DejaVuSans-30"/>
       <use x="63.623047" xlink:href="#DejaVuSans-2e"/>
       <use x="95.410156" xlink:href="#DejaVuSans-30"/>
       <use x="159.033203" xlink:href="#DejaVuSans-31"/>
       <use x="222.65625" xlink:href="#DejaVuSans-30"/>
      </g>
     </g>
    </g>
    <g id="ytick_4">
     <g id="line2d_13">
      <g>
       <use style="stroke:#000000;stroke-width:0.8;" x="57.6" xlink:href="#ma95bcf358a" y="127.631472"/>
      </g>
     </g>
     <g id="text_14">
      <!-- 0.015 -->
      <g transform="translate(21.971875 131.430691)scale(0.1 -0.1)">
       <use xlink:href="#DejaVuSans-30"/>
       <use x="63.623047" xlink:href="#DejaVuSans-2e"/>
       <use x="95.410156" xlink:href="#DejaVuSans-30"/>
       <use x="159.033203" xlink:href="#DejaVuSans-31"/>
       <use x="222.65625" xlink:href="#DejaVuSans-35"/>
      </g>
     </g>
    </g>
    <g id="ytick_5">
     <g id="line2d_14">
      <g>
       <use style="stroke:#000000;stroke-width:0.8;" x="57.6" xlink:href="#ma95bcf358a" y="71.677389"/>
      </g>
     </g>
     <g id="text_15">
      <!-- 0.020 -->
      <g transform="translate(21.971875 75.476608)scale(0.1 -0.1)">
       <use xlink:href="#DejaVuSans-30"/>
       <use x="63.623047" xlink:href="#DejaVuSans-2e"/>
       <use x="95.410156" xlink:href="#DejaVuSans-30"/>
       <use x="159.033203" xlink:href="#DejaVuSans-32"/>
       <use x="222.65625" xlink:href="#DejaVuSans-30"/>
      </g>
     </g>
    </g>
    <g id="text_16">
     <!-- magnitude -->
     <g transform="translate(15.892187 201.574094)rotate(-90)scale(0.1 -0.1)">
      <defs>
       <path d="M 3328 2828 
Q 3544 3216 3844 3400 
Q 4144 3584 4550 3584 
Q 5097 3584 5394 3201 
Q 5691 2819 5691 2113 
L 5691 0 
L 5113 0 
L 5113 2094 
Q 5113 2597 4934 2840 
Q 4756 3084 4391 3084 
Q 3944 3084 3684 2787 
Q 3425 2491 3425 1978 
L 3425 0 
L 2847 0 
L 2847 2094 
Q 2847 2600 2669 2842 
Q 2491 3084 2119 3084 
Q 1678 3084 1418 2786 
Q 1159 2488 1159 1978 
L 1159 0 
L 581 0 
L 581 3500 
L 1159 3500 
L 1159 2956 
Q 1356 3278 1631 3431 
Q 1906 3584 2284 3584 
Q 2666 3584 2933 3390 
Q 3200 3197 3328 2828 
z
" id="DejaVuSans-6d" transform="scale(0.015625)"/>
       <path d="M 2194 1759 
Q 1497 1759 1228 1600 
Q 959 1441 959 1056 
Q 959 750 1161 570 
Q 1363 391 1709 391 
Q 2188 391 2477 730 
Q 2766 1069 2766 1631 
L 2766 1759 
L 2194 1759 
z
M 3341 1997 
L 3341 0 
L 2766 0 
L 2766 531 
Q 2569 213 2275 61 
Q 1981 -91 1556 -91 
Q 1019 -91 701 211 
Q 384 513 384 1019 
Q 384 1609 779 1909 
Q 1175 2209 1959 2209 
L 2766 2209 
L 2766 2266 
Q 2766 2663 2505 2880 
Q 2244 3097 1772 3097 
Q 1472 3097 1187 3025 
Q 903 2953 641 2809 
L 641 3341 
Q 956 3463 1253 3523 
Q 1550 3584 1831 3584 
Q 2591 3584 2966 3190 
Q 3341 2797 3341 1997 
z
" id="DejaVuSans-61" transform="scale(0.015625)"/>
       <path d="M 2906 1791 
Q 2906 2416 2648 2759 
Q 2391 3103 1925 3103 
Q 1463 3103 1205 2759 
Q 947 2416 947 1791 
Q 947 1169 1205 825 
Q 1463 481 1925 481 
Q 2391 481 2648 825 
Q 2906 1169 2906 1791 
z
M 3481 434 
Q 3481 -459 3084 -895 
Q 2688 -1331 1869 -1331 
Q 1566 -1331 1297 -1286 
Q 1028 -1241 775 -1147 
L 775 -588 
Q 1028 -725 1275 -790 
Q 1522 -856 1778 -856 
Q 2344 -856 2625 -561 
Q 2906 -266 2906 331 
L 2906 616 
Q 2728 306 2450 153 
Q 2172 0 1784 0 
Q 1141 0 747 490 
Q 353 981 353 1791 
Q 353 2603 747 3093 
Q 1141 3584 1784 3584 
Q 2172 3584 2450 3431 
Q 2728 3278 2906 2969 
L 2906 3500 
L 3481 3500 
L 3481 434 
z
" id="DejaVuSans-67" transform="scale(0.015625)"/>
       <path d="M 603 3500 
L 1178 3500 
L 1178 0 
L 603 0 
L 603 3500 
z
M 603 4863 
L 1178 4863 
L 1178 4134 
L 603 4134 
L 603 4863 
z
" id="DejaVuSans-69" transform="scale(0.015625)"/>
       <path d="M 1172 4494 
L 1172 3500 
L 2356 3500 
L 2356 3053 
L 1172 3053 
L 1172 1153 
Q 1172 725 1289 603 
Q 1406 481 1766 481 
L 2356 481 
L 2356 0 
L 1766 0 
Q 1100 0 847 248 
Q 594 497 594 1153 
L 594 3053 
L 172 3053 
L 172 3500 
L 594 3500 
L 594 4494 
L 1172 4494 
z
" id="DejaVuSans-74" transform="scale(0.015625)"/>
       <path d="M 2906 2969 
L 2906 4863 
L 3481 4863 
L 3481 0 
L 2906 0 
L 2906 525 
Q 2725 213 2448 61 
Q 2172 -91 1784 -91 
Q 1150 -91 751 415 
Q 353 922 353 1747 
Q 353 2572 751 3078 
Q 1150 3584 1784 3584 
Q 2172 3584 2448 3432 
Q 2725 3281 2906 2969 
z
M 947 1747 
Q 947 1113 1208 752 
Q 1469 391 1925 391 
Q 2381 391 2643 752 
Q 2906 1113 2906 1747 
Q 2906 2381 2643 2742 
Q 2381 3103 1925 3103 
Q 1469 3103 1208 2742 
Q 947 2381 947 1747 
z
" id="DejaVuSans-64" transform="scale(0.015625)"/>
      </defs>
      <use xlink:href="#DejaVuSans-6d"/>
      <use x="97.412109" xlink:href="#DejaVuSans-61"/>
      <use x="158.691406" xlink:href="#DejaVuSans-67"/>
      <use x="222.167969" xlink:href="#DejaVuSans-6e"/>
      <use x="285.546875" xlink:href="#DejaVuSans-69"/>
      <use x="313.330078" xlink:href="#DejaVuSans-74"/>
      <use x="352.539062" xlink:href="#DejaVuSans-75"/>
      <use x="415.917969" xlink:href="#DejaVuSans-64"/>
      <use x="479.394531" xlink:href="#DejaVuSans-65"/>
     </g>
    </g>
   </g>
   <g id="line2d_15">
    <path clip-path="url(#p6593fe30cb)" d="M 73.832727 286.784169 
L 73.913911 286.21929 
L 74.238647 278.921101 
L 74.319831 280.908876 
L 74.401015 290.096686 
L 74.482199 190.171736 
L 74.644567 259.916503 
L 74.969302 284.638607 
L 75.212854 291.837904 
L 75.53759 288.900597 
L 75.618774 289.40344 
L 75.699958 289.170534 
L 75.781142 287.65205 
L 75.94351 294.537479 
L 76.024693 294.532883 
L 76.268245 293.573804 
L 76.349429 292.988409 
L 76.430613 293.132265 
L 76.511797 292.904501 
L 76.592981 293.66704 
L 76.674165 290.519329 
L 76.755349 291.032456 
L 76.917717 293.232165 
L 76.998901 292.948973 
L 77.080085 292.977751 
L 77.161268 294.720021 
L 77.242452 294.465815 
L 77.323636 295.13513 
L 77.486004 292.173245 
L 77.81074 279.263286 
L 77.973108 259.170238 
L 78.054292 221.546441 
L 78.135476 290.280844 
L 78.21666 284.896878 
L 78.379027 283.334026 
L 78.460211 283.901617 
L 78.784947 290.25047 
L 78.866131 289.37249 
L 79.109683 285.069142 
L 79.190867 285.707665 
L 79.272051 292.023887 
L 79.353235 225.522624 
L 79.596786 274.476504 
L 79.921522 288.5521 
L 80.002706 291.079845 
L 80.08389 291.062243 
L 80.408626 288.511579 
L 80.570994 289.359618 
L 80.652178 287.235149 
L 80.733362 294.079751 
L 80.814545 293.384357 
L 80.895729 293.353562 
L 81.139281 292.136253 
L 81.220465 292.515093 
L 81.301649 292.453761 
L 81.382833 292.208093 
L 81.464017 292.307723 
L 81.545201 291.025658 
L 81.707569 295.179851 
L 81.951121 293.224637 
L 82.032304 293.829097 
L 82.113488 293.699701 
L 82.275856 293.313194 
L 82.519408 294.569649 
L 82.600592 294.814406 
L 82.76296 291.783063 
L 82.844144 288.926247 
L 82.925328 277.38156 
L 83.006512 292.94865 
L 83.087696 291.807925 
L 83.250063 290.76457 
L 83.331247 291.095608 
L 83.412431 291.27454 
L 83.737167 295.074238 
L 83.899535 294.341997 
L 84.061903 292.781428 
L 84.143087 293.134106 
L 84.224271 280.325906 
L 84.467822 289.462738 
L 84.63019 291.373382 
L 84.873742 293.34185 
L 85.117294 292.292514 
L 85.198478 292.50803 
L 85.279662 292.004348 
L 85.360846 292.24223 
L 85.44203 292.199982 
L 85.523214 290.871208 
L 85.604397 294.682 
L 85.685581 293.817921 
L 85.766765 293.587061 
L 85.847949 293.710962 
L 85.929133 293.064052 
L 86.091501 293.765926 
L 86.253869 294.02898 
L 86.416237 293.617797 
L 86.497421 293.625235 
L 86.578605 293.817159 
L 86.740973 293.52407 
L 86.822156 293.649352 
L 86.90334 293.518015 
L 87.146892 293.78451 
L 87.30926 293.339224 
L 87.471628 292.19661 
L 87.552812 292.681179 
L 87.796364 291.140845 
L 87.877548 294.16205 
L 87.958732 293.651008 
L 88.121099 294.424552 
L 88.283467 295.087535 
L 88.608203 292.959654 
L 88.851755 293.532378 
L 88.932939 293.60857 
L 89.014123 294.031779 
L 89.095307 289.959378 
L 89.257674 294.384929 
L 89.420042 295.220868 
L 89.744778 293.890415 
L 89.825962 294.674021 
L 89.907146 293.841525 
L 90.069514 294.663228 
L 90.150698 294.629933 
L 90.231882 294.354849 
L 90.313066 295.150199 
L 90.394249 294.039985 
L 90.475433 295.372805 
L 90.556617 294.437155 
L 90.637801 294.818712 
L 90.718985 294.189327 
L 90.800169 294.556467 
L 90.881353 294.154282 
L 91.043721 294.778111 
L 91.206089 294.540809 
L 91.287273 295.447409 
L 91.449641 293.832673 
L 91.530825 294.300845 
L 91.612008 294.226785 
L 91.693192 294.19583 
L 91.774376 293.878841 
L 91.936744 294.405236 
L 92.017928 294.318978 
L 92.099112 294.721059 
L 92.342664 294.001864 
L 92.423848 294.57632 
L 92.505032 294.430229 
L 92.586216 294.24957 
L 92.6674 294.54669 
L 92.748584 294.455328 
L 92.829767 293.840934 
L 92.910951 294.764776 
L 92.992135 294.620459 
L 93.073319 295.11907 
L 93.154503 294.725823 
L 93.235687 294.788168 
L 93.316871 294.806864 
L 93.479239 294.328187 
L 93.560423 294.506517 
L 93.641607 293.864798 
L 93.722791 294.506043 
L 93.803975 294.402437 
L 93.885159 294.57538 
L 93.966342 293.76734 
L 94.12871 295.010106 
L 94.209894 294.899441 
L 94.291078 294.861867 
L 94.372262 294.956934 
L 94.615814 294.615837 
L 94.696998 294.318351 
L 94.778182 295.050464 
L 94.859366 294.49608 
L 94.94055 294.608178 
L 95.021734 295.047488 
L 95.184101 294.612912 
L 95.265285 295.019068 
L 95.346469 293.987855 
L 95.590021 295.00397 
L 95.752389 294.219104 
L 95.833573 294.258827 
L 95.995941 294.467665 
L 96.158309 294.862784 
L 96.239493 294.767542 
L 96.483044 294.900011 
L 96.564228 294.694656 
L 96.645412 295.236075 
L 96.726596 294.723211 
L 96.80778 294.738993 
L 96.888964 295.008472 
L 96.970148 294.261268 
L 97.051332 295.190537 
L 97.132516 294.535965 
L 97.2137 295.136995 
L 97.294884 295.058239 
L 97.457252 294.668172 
L 97.538436 293.503027 
L 97.700803 294.949462 
L 97.781987 294.755124 
L 97.863171 294.861998 
L 97.944355 294.787035 
L 98.106723 294.463259 
L 98.187907 295.038931 
L 98.269091 294.860119 
L 98.431459 295.021445 
L 98.593827 294.829725 
L 98.756195 294.561336 
L 98.837378 294.623465 
L 98.918562 294.341479 
L 98.999746 294.36946 
L 99.08093 294.438555 
L 99.162114 294.66998 
L 99.243298 294.383176 
L 99.324482 294.61486 
L 99.48685 294.432912 
L 99.568034 294.956561 
L 99.649218 294.847406 
L 99.730402 294.565651 
L 99.89277 294.794848 
L 99.973953 294.758195 
L 100.055137 295.161804 
L 100.136321 294.743926 
L 100.217505 295.084513 
L 100.298689 294.91913 
L 100.379873 294.392581 
L 100.461057 295.30274 
L 100.542241 294.384301 
L 100.623425 294.997089 
L 100.704609 294.75741 
L 100.785793 294.826673 
L 100.866977 294.732932 
L 100.948161 294.969026 
L 101.029345 293.959765 
L 101.191712 294.942597 
L 101.272896 294.593029 
L 101.35408 294.99721 
L 101.516448 294.518561 
L 101.678816 295.010524 
L 101.76 295.028487 
L 101.841184 294.815985 
L 102.003552 295.001157 
L 102.16592 294.497245 
L 102.247104 294.760438 
L 102.328288 294.097698 
L 102.490655 295.195507 
L 102.571839 295.079589 
L 102.653023 294.746079 
L 102.896575 295.240976 
L 103.140127 294.645839 
L 103.221311 294.936565 
L 103.302495 294.249274 
L 103.383679 294.438716 
L 103.464863 294.826263 
L 103.546047 294.456122 
L 103.62723 295.30839 
L 103.708414 294.62237 
L 103.870782 295.138778 
L 103.951966 295.12145 
L 104.03315 295.290183 
L 104.114334 294.763796 
L 104.195518 295.213858 
L 104.276702 294.716005 
L 104.357886 295.008583 
L 104.520254 294.598878 
L 104.601438 295.248038 
L 104.763805 294.459985 
L 104.844989 294.985936 
L 104.926173 294.854375 
L 105.007357 294.664592 
L 105.088541 295.10414 
L 105.169725 294.937512 
L 105.250909 295.278262 
L 105.575645 294.696177 
L 105.656829 295.02431 
L 105.819197 294.550923 
L 105.981564 295.278766 
L 106.062748 295.080395 
L 106.225116 294.3724 
L 106.468668 295.138838 
L 106.631036 295.227197 
L 106.71222 295.131327 
L 106.793404 294.421527 
L 106.874588 294.967936 
L 106.955772 294.954392 
L 107.036956 294.46764 
L 107.11814 294.842437 
L 107.199323 294.508287 
L 107.280507 295.172269 
L 107.361691 295.046865 
L 107.442875 294.934881 
L 107.524059 294.485643 
L 107.848795 295.15103 
L 107.929979 295.1096 
L 108.011163 295.222774 
L 108.092347 294.84606 
L 108.173531 295.062234 
L 108.335899 294.858738 
L 108.498266 295.381167 
L 108.57945 295.265053 
L 108.660634 294.736008 
L 108.741818 294.75375 
L 108.823002 294.551015 
L 108.904186 295.168801 
L 108.98537 295.026989 
L 109.066554 295.064392 
L 109.147738 295.295366 
L 109.228922 294.79767 
L 109.472474 295.304803 
L 109.553658 294.952892 
L 109.634841 295.089688 
L 109.716025 294.82918 
L 109.797209 295.146492 
L 109.878393 295.080367 
L 109.959577 295.169598 
L 110.040761 294.893973 
L 110.121945 295.171827 
L 110.203129 294.766243 
L 110.365497 295.38535 
L 110.527865 294.626504 
L 110.609049 295.064893 
L 110.690233 295.002211 
L 110.771416 294.920041 
L 110.933784 295.171795 
L 111.014968 294.251715 
L 111.177336 295.151918 
L 111.339704 295.056042 
L 111.502072 295.192891 
L 111.583256 294.849271 
L 111.66444 295.356275 
L 111.745624 294.679917 
L 111.907992 295.17891 
L 111.989175 294.888577 
L 112.070359 295.117474 
L 112.151543 294.931778 
L 112.395095 295.366797 
L 112.557463 294.868229 
L 112.719831 295.425791 
L 112.882199 294.503046 
L 112.963383 295.139928 
L 113.044567 295.035004 
L 113.125751 295.256478 
L 113.206934 294.752691 
L 113.288118 295.266918 
L 113.369302 294.842003 
L 113.450486 294.960309 
L 113.53167 294.719706 
L 113.612854 295.263699 
L 113.694038 295.093955 
L 113.856406 294.823665 
L 113.93759 295.200175 
L 114.018774 295.091323 
L 114.181142 295.106877 
L 114.262326 294.797019 
L 114.34351 294.974445 
L 114.424693 294.725869 
L 114.505877 294.875353 
L 114.587061 294.760735 
L 114.668245 294.851185 
L 114.749429 295.115374 
L 114.911797 294.770673 
L 115.074165 295.002398 
L 115.155349 294.880156 
L 115.236533 295.30188 
L 115.398901 294.735107 
L 115.480085 294.883291 
L 115.561268 295.056223 
L 115.642452 294.900348 
L 115.723636 295.335297 
L 115.886004 294.70384 
L 115.967188 295.10969 
L 116.048372 295.077228 
L 116.129556 295.09727 
L 116.21074 294.957879 
L 116.291924 295.005341 
L 116.373108 295.02028 
L 116.454292 294.841678 
L 116.535476 294.914919 
L 116.61666 294.779611 
L 116.779027 295.443621 
L 116.860211 294.565991 
L 117.022579 295.00702 
L 117.184947 294.812303 
L 117.266131 295.425139 
L 117.509683 294.879633 
L 117.753235 295.444536 
L 117.834419 294.949346 
L 117.915603 295.414546 
L 117.996786 294.779198 
L 118.07797 295.128515 
L 118.159154 294.791956 
L 118.321522 295.159882 
L 118.402706 295.216679 
L 118.48389 295.102127 
L 118.727442 295.400447 
L 118.808626 295.222742 
L 118.88981 294.721889 
L 118.970994 295.084112 
L 119.052178 294.958596 
L 119.214545 295.27344 
L 119.295729 295.079985 
L 119.458097 294.655286 
L 119.539281 295.259088 
L 119.620465 295.037595 
L 119.701649 295.21411 
L 119.782833 294.854362 
L 119.864017 295.195846 
L 120.026385 294.911092 
L 120.107569 295.245669 
L 120.188753 294.969757 
L 120.351121 295.361722 
L 120.594672 294.859779 
L 120.675856 295.130671 
L 120.75704 295.046936 
L 120.838224 294.955354 
L 121.000592 295.224642 
L 121.081776 295.192015 
L 121.16296 294.861424 
L 121.244144 295.16159 
L 121.325328 295.032542 
L 121.406512 295.244292 
L 121.568879 294.94099 
L 121.650063 295.259322 
L 121.731247 295.136288 
L 121.812431 295.081345 
L 121.893615 295.365691 
L 121.974799 295.25523 
L 122.055983 294.924791 
L 122.218351 295.358751 
L 122.299535 295.161823 
L 122.380719 295.32729 
L 122.543087 294.758536 
L 122.624271 295.253407 
L 122.705455 295.091803 
L 122.786638 295.438869 
L 122.949006 294.918676 
L 123.03019 294.855384 
L 123.111374 294.995261 
L 123.192558 295.368139 
L 123.273742 295.340646 
L 123.354926 295.350454 
L 123.43611 294.946822 
L 123.679662 295.392414 
L 123.84203 294.801927 
L 123.923214 295.287561 
L 124.004397 294.971641 
L 124.085581 295.401589 
L 124.166765 294.725891 
L 124.247949 295.296061 
L 124.329133 295.04959 
L 124.410317 295.329075 
L 124.491501 295.221285 
L 124.653869 294.969705 
L 124.735053 295.297026 
L 124.897421 295.152172 
L 125.059789 295.323742 
L 125.140973 295.014138 
L 125.222156 295.048229 
L 125.384524 295.43416 
L 125.465708 295.048763 
L 125.546892 295.301569 
L 125.628076 294.856754 
L 125.70926 295.120406 
L 125.790444 295.040988 
L 125.952812 294.964477 
L 126.196364 295.233327 
L 126.358732 295.248179 
L 126.439915 295.411893 
L 126.521099 295.15051 
L 126.602283 295.189045 
L 126.845835 294.86041 
L 126.927019 295.330912 
L 127.008203 295.111472 
L 127.170571 295.294706 
L 127.332939 295.13594 
L 127.414123 295.041454 
L 127.57649 295.324459 
L 127.657674 295.082055 
L 127.738858 295.252132 
L 127.901226 294.7537 
L 128.144778 295.314266 
L 128.307146 294.688697 
L 128.38833 295.258191 
L 128.469514 294.907782 
L 128.713066 295.376966 
L 128.794249 294.98484 
L 128.875433 295.290298 
L 128.956617 295.204379 
L 129.037801 295.121214 
L 129.118985 295.42065 
L 129.362537 294.903641 
L 129.443721 294.9072 
L 129.687273 295.372718 
L 129.849641 295.145257 
L 130.093192 294.722132 
L 130.174376 295.257207 
L 130.25556 295.169267 
L 130.336744 295.338886 
L 130.580296 294.834111 
L 130.66148 295.351076 
L 130.905032 294.853446 
L 130.986216 295.148659 
L 131.148584 295.035448 
L 131.229767 295.287468 
L 131.310951 294.836451 
L 131.392135 295.079808 
L 131.473319 294.938851 
L 131.554503 295.439929 
L 131.635687 294.950863 
L 131.716871 295.265874 
L 131.798055 295.080759 
L 131.879239 295.26067 
L 131.960423 295.206851 
L 132.041607 295.142933 
L 132.122791 295.326188 
L 132.285159 295.125233 
L 132.366342 295.066762 
L 132.447526 294.780318 
L 132.52871 295.287193 
L 132.609894 294.582787 
L 132.691078 295.009203 
L 132.772262 293.999682 
L 132.853446 295.436379 
L 132.93463 294.770665 
L 133.015814 295.488 
L 133.096998 295.452177 
L 133.178182 295.083875 
L 133.259366 295.120473 
L 133.34055 294.990068 
L 133.421734 295.247565 
L 133.502918 294.836216 
L 133.584101 294.871302 
L 133.746469 295.184745 
L 133.908837 294.965944 
L 133.990021 295.27312 
L 134.071205 293.870239 
L 134.233573 295.109194 
L 134.314757 295.384363 
L 134.558309 294.984567 
L 134.639493 294.920121 
L 134.720677 295.008297 
L 134.80186 295.270897 
L 134.964228 294.728685 
L 135.126596 295.359107 
L 135.288964 295.019814 
L 135.370148 295.217678 
L 135.451332 294.917265 
L 135.532516 295.329863 
L 135.6137 295.087578 
L 135.694884 295.165969 
L 135.776068 295.179301 
L 135.857252 294.991425 
L 135.938436 295.484764 
L 136.100803 295.196107 
L 136.181987 295.043762 
L 136.344355 295.271702 
L 136.425539 295.3466 
L 136.587907 294.973987 
L 136.750275 295.418533 
L 136.831459 294.880773 
L 136.993827 295.28811 
L 137.075011 295.222858 
L 137.318562 294.722241 
L 137.399746 294.712934 
L 137.562114 293.93265 
L 137.643298 288.655557 
L 137.724482 294.5862 
L 137.805666 294.364208 
L 137.88685 293.78147 
L 138.29277 294.897327 
L 138.373953 294.58099 
L 138.455137 295.000319 
L 138.617505 294.588616 
L 138.779873 294.392492 
L 138.861057 294.508878 
L 138.942241 292.273446 
L 139.185793 294.230276 
L 139.266977 294.03793 
L 139.510529 295.142213 
L 139.591712 294.353761 
L 139.672896 294.845959 
L 139.75408 294.436818 
L 139.835264 294.771942 
L 139.997632 294.384465 
L 140.078816 294.739276 
L 140.241184 294.013359 
L 140.403552 294.90817 
L 140.484736 295.070447 
L 140.56592 294.684227 
L 140.647104 294.838328 
L 140.809471 294.551596 
L 140.890655 295.195653 
L 141.053023 294.782416 
L 141.215391 290.983591 
L 141.377759 293.499483 
L 141.540127 294.139151 
L 141.621311 293.900165 
L 141.783679 294.492957 
L 141.864863 294.748074 
L 141.946047 293.765152 
L 142.02723 294.318289 
L 142.108414 294.004724 
L 142.189598 293.189741 
L 142.270782 293.22149 
L 142.43315 293.678106 
L 142.514334 292.419435 
L 142.676702 294.842834 
L 142.757886 294.439826 
L 142.83907 294.898084 
L 142.920254 294.659591 
L 143.001438 294.966103 
L 143.163805 294.441545 
L 143.244989 294.938242 
L 143.326173 294.206289 
L 143.407357 294.367427 
L 143.569725 294.781189 
L 143.894461 292.044876 
L 143.975645 292.796094 
L 144.056829 292.766182 
L 144.381564 293.862151 
L 144.462748 293.853425 
L 144.7063 293.174355 
L 144.787484 293.815889 
L 144.868668 293.380537 
L 144.949852 293.580488 
L 145.031036 294.285065 
L 145.11222 293.847891 
L 145.193404 294.10773 
L 145.436956 293.370088 
L 145.599323 293.160255 
L 145.680507 293.238349 
L 145.761691 292.884114 
L 146.005243 293.714015 
L 146.086427 289.711552 
L 146.167611 290.500776 
L 146.248795 290.963542 
L 146.329979 290.742166 
L 146.492347 291.244119 
L 146.654715 292.451353 
L 146.97945 285.819907 
L 147.223002 278.268604 
L 147.304186 270.926507 
L 147.38537 203.371565 
L 147.466554 286.810708 
L 147.547738 286.41243 
L 147.628922 286.367244 
L 147.872474 290.008087 
L 148.034841 292.39566 
L 148.278393 289.718241 
L 148.359577 289.764319 
L 148.603129 292.230784 
L 148.684313 265.852129 
L 148.927865 289.324928 
L 149.2526 294.573942 
L 149.333784 294.040169 
L 149.414968 294.032363 
L 149.577336 294.618088 
L 149.65852 294.031485 
L 149.739704 294.303955 
L 149.820888 295.021937 
L 149.983256 294.689224 
L 150.06444 290.198912 
L 150.226808 292.812086 
L 150.307992 291.571861 
L 150.389175 291.646931 
L 150.551543 292.481134 
L 150.632727 292.441022 
L 150.713911 293.368436 
L 150.795095 292.981952 
L 150.876279 290.149105 
L 150.957463 293.671027 
L 151.201015 289.881327 
L 151.282199 289.676608 
L 151.525751 291.702826 
L 151.769302 282.665354 
L 152.094038 261.07238 
L 152.175222 246.688393 
L 152.256406 83.011068 
L 152.33759 274.75084 
L 152.418774 273.572886 
L 152.499958 273.179756 
L 152.662326 277.106628 
L 152.987061 289.258056 
L 153.068245 288.347177 
L 153.311797 283.183958 
L 153.392981 283.391925 
L 153.474165 282.665337 
L 153.555349 218.592014 
L 153.798901 274.328015 
L 154.123636 291.441913 
L 154.286004 294.029364 
L 154.529556 291.056341 
L 154.61074 291.6129 
L 154.691924 291.303613 
L 154.773108 291.432251 
L 154.935476 288.612468 
L 155.097844 293.678602 
L 155.260211 294.266659 
L 155.422579 294.121129 
L 155.503763 294.365217 
L 155.584947 295.297757 
L 155.747315 291.053959 
L 155.828499 294.284772 
L 155.909683 293.333338 
L 155.990867 292.041741 
L 156.072051 292.321421 
L 156.153235 292.28133 
L 156.234419 293.365327 
L 156.315603 293.207399 
L 156.396786 293.345272 
L 156.640338 284.830424 
L 156.965074 264.48972 
L 157.046258 250.943135 
L 157.127442 73.67474 
L 157.208626 273.315326 
L 157.28981 272.518251 
L 157.370994 272.661638 
L 157.452178 273.522587 
L 157.695729 282.918036 
L 157.939281 290.031628 
L 158.345201 280.136739 
L 158.426385 216.519421 
L 158.507569 239.653903 
L 158.669937 271.835103 
L 158.994672 290.443037 
L 159.075856 292.041318 
L 159.15704 291.712615 
L 159.319408 289.150673 
L 159.481776 288.490269 
L 159.644144 289.785883 
L 159.725328 288.496107 
L 159.887696 294.527523 
L 159.968879 293.376104 
L 160.131247 292.249621 
L 160.212431 292.299319 
L 160.293615 292.053254 
L 160.537167 293.45681 
L 160.699535 292.680818 
L 160.780719 295.340245 
L 160.861903 294.889742 
L 161.024271 293.755298 
L 161.186638 293.543739 
L 161.349006 294.288255 
L 161.511374 292.468934 
L 161.673742 288.985395 
L 161.83611 283.831536 
L 161.917294 277.775858 
L 161.998478 189.658716 
L 162.160846 283.898865 
L 162.24203 283.243041 
L 162.404397 285.069174 
L 162.566765 288.068998 
L 162.810317 294.711471 
L 163.216237 286.288438 
L 163.297421 263.250326 
L 163.378605 271.198886 
L 163.540973 284.521037 
L 163.946892 292.177029 
L 164.190444 290.037583 
L 164.433996 291.24177 
L 164.596364 290.463003 
L 164.677548 294.052759 
L 164.758732 293.231203 
L 164.839915 293.028057 
L 164.921099 292.311097 
L 165.002283 292.753272 
L 165.083467 292.112815 
L 165.164651 292.265513 
L 165.245835 292.339402 
L 165.408203 292.966503 
L 165.489387 290.782759 
L 165.651755 294.675043 
L 165.814123 293.079707 
L 165.895307 293.353609 
L 165.97649 293.219895 
L 166.057674 292.335996 
L 166.138858 292.768895 
L 166.220042 292.56123 
L 166.463594 293.461245 
L 166.544778 293.530476 
L 166.625962 293.232725 
L 166.707146 293.536584 
L 166.78833 293.425957 
L 166.869514 287.743289 
L 166.950698 292.999383 
L 167.031882 292.724196 
L 167.113066 292.940732 
L 167.194249 292.551856 
L 167.275433 293.207478 
L 167.356617 292.52585 
L 167.518985 293.011987 
L 167.600169 292.492645 
L 167.681353 293.003585 
L 167.762537 292.696753 
L 167.843721 293.278978 
L 167.924905 292.955391 
L 168.006089 293.369443 
L 168.087273 293.312752 
L 168.168457 292.038086 
L 168.412008 294.026172 
L 168.493192 293.753171 
L 168.574376 292.845946 
L 168.65556 293.424536 
L 168.736744 293.008515 
L 168.817928 293.514797 
L 168.899112 293.121834 
L 168.980296 293.899765 
L 169.142664 293.507941 
L 169.223848 293.647781 
L 169.305032 293.592794 
L 169.386216 293.491094 
L 169.548584 293.743169 
L 169.629767 292.971555 
L 169.792135 293.677896 
L 169.873319 293.354866 
L 170.035687 294.07185 
L 170.198055 293.111962 
L 170.360423 293.629761 
L 170.603975 293.277741 
L 170.92871 293.929672 
L 171.091078 293.169186 
L 171.172262 293.545158 
L 171.253446 293.418293 
L 171.33463 293.536974 
L 171.415814 292.942649 
L 171.496998 293.595857 
L 171.659366 292.224261 
L 171.74055 288.249874 
L 171.821734 294.070054 
L 171.902918 293.990469 
L 171.984101 294.093179 
L 172.065285 294.728144 
L 172.227653 294.113139 
L 172.308837 293.978948 
L 172.471205 293.448014 
L 172.633573 293.839583 
L 172.714757 293.08611 
L 172.958309 294.763365 
L 173.039493 291.920496 
L 173.120677 292.958872 
L 173.283044 294.961737 
L 173.60778 293.54723 
L 173.688964 294.096299 
L 173.770148 294.0631 
L 174.0137 294.361213 
L 174.176068 294.334148 
L 174.257252 293.8682 
L 174.338436 294.18403 
L 174.419619 293.317099 
L 174.500803 294.047369 
L 174.581987 293.598859 
L 174.663171 294.250425 
L 174.744355 294.031377 
L 174.906723 293.735087 
L 175.069091 294.285626 
L 175.312643 293.315617 
L 175.475011 293.955405 
L 175.637378 293.677023 
L 175.88093 294.741384 
L 175.962114 294.074077 
L 176.043298 294.108058 
L 176.124482 293.926938 
L 176.368034 294.761897 
L 176.611586 292.353097 
L 176.773953 294.160712 
L 176.936321 293.683865 
L 177.098689 294.253983 
L 177.179873 293.671784 
L 177.261057 294.114631 
L 177.342241 293.697851 
L 177.423425 294.242861 
L 177.504609 293.617615 
L 177.585793 294.144182 
L 177.666977 293.345477 
L 177.748161 294.099303 
L 177.829345 294.061671 
L 178.072896 293.176148 
L 178.15408 293.926298 
L 178.235264 293.88595 
L 178.397632 294.134807 
L 178.56 293.808949 
L 178.641184 294.148531 
L 178.722368 294.001608 
L 178.884736 294.303108 
L 178.96592 294.043447 
L 179.047104 294.165479 
L 179.128288 294.497698 
L 179.209471 293.709316 
L 179.371839 294.181137 
L 179.453023 294.052288 
L 179.615391 293.644997 
L 179.777759 294.057279 
L 179.858943 293.965286 
L 179.940127 294.070514 
L 180.021311 293.847852 
L 180.183679 294.309386 
L 180.346047 294.276699 
L 180.42723 293.620656 
L 180.589598 294.262271 
L 180.83315 293.946991 
L 180.995518 294.327479 
L 181.157886 293.824732 
L 181.320254 294.776519 
L 181.401438 294.440251 
L 181.482622 293.056994 
L 181.644989 294.279791 
L 181.726173 293.707745 
L 181.807357 294.21367 
L 181.969725 293.324688 
L 182.132093 294.034975 
L 182.294461 294.375975 
L 182.538013 293.604824 
L 182.619197 293.967942 
L 182.700381 293.778937 
L 182.781564 294.356961 
L 182.943932 293.698495 
L 183.1063 294.295154 
L 183.268668 293.933915 
L 183.431036 294.019951 
L 183.51222 294.624947 
L 183.755772 293.803962 
L 183.91814 294.405413 
L 184.080507 293.780121 
L 184.161691 294.538781 
L 184.242875 293.989568 
L 184.324059 294.063834 
L 184.486427 294.890799 
L 184.648795 294.055928 
L 184.729979 294.464187 
L 184.811163 294.059147 
L 184.892347 294.350829 
L 184.973531 294.210552 
L 185.054715 294.355185 
L 185.217082 294.106654 
L 185.298266 294.342322 
L 185.37945 293.899092 
L 185.460634 294.498874 
L 185.541818 294.010442 
L 185.623002 294.744935 
L 185.704186 293.761128 
L 185.78537 294.44188 
L 185.866554 294.358359 
L 185.947738 294.552885 
L 186.028922 294.210975 
L 186.110106 294.638864 
L 186.19129 294.491116 
L 186.272474 294.353777 
L 186.353658 294.987453 
L 186.434841 294.022401 
L 186.516025 294.681171 
L 186.597209 294.093382 
L 186.678393 294.567239 
L 186.840761 294.064039 
L 186.921945 294.775928 
L 187.084313 294.145556 
L 187.165497 294.445881 
L 187.327865 294.003151 
L 187.571416 295.124994 
L 187.6526 294.338071 
L 187.733784 294.496963 
L 187.814968 294.366447 
L 187.896152 294.835606 
L 187.977336 294.200046 
L 188.05852 294.490041 
L 188.220888 293.858635 
L 188.302072 294.238036 
L 188.383256 294.150565 
L 188.46444 294.071047 
L 188.626808 294.540376 
L 188.789175 293.874039 
L 189.032727 294.845543 
L 189.195095 294.447293 
L 189.276279 294.678778 
L 189.357463 294.259936 
L 189.438647 294.350467 
L 189.519831 294.305991 
L 189.682199 294.769679 
L 189.763383 293.812817 
L 189.844567 294.852413 
L 189.925751 294.099625 
L 190.006934 294.34952 
L 190.250486 293.862359 
L 190.494038 294.434486 
L 190.575222 294.260132 
L 190.656406 294.453399 
L 190.73759 294.338446 
L 190.818774 294.607957 
L 190.899958 294.530834 
L 190.981142 294.119777 
L 191.14351 294.734557 
L 191.224693 294.336811 
L 191.305877 295.123682 
L 191.387061 294.417782 
L 191.468245 294.54258 
L 191.549429 294.226062 
L 191.630613 294.344408 
L 191.711797 294.42493 
L 191.792981 294.205876 
L 191.874165 294.726157 
L 191.955349 294.406433 
L 192.036533 294.7497 
L 192.198901 294.524626 
L 192.361268 294.683755 
L 192.442452 294.5412 
L 192.523636 294.141319 
L 192.60482 294.188667 
L 192.686004 294.301839 
L 192.767188 293.805025 
L 192.848372 294.429534 
L 192.929556 294.349884 
L 193.01074 294.114087 
L 193.091924 294.283302 
L 193.173108 293.923808 
L 193.254292 294.501899 
L 193.335476 294.113262 
L 193.41666 294.337075 
L 193.497844 294.071082 
L 193.579027 294.515946 
L 193.660211 294.476472 
L 193.822579 294.200278 
L 193.903763 294.515114 
L 193.984947 294.337252 
L 194.066131 294.78649 
L 194.147315 293.766795 
L 194.228499 293.952762 
L 194.390867 294.818753 
L 194.553235 294.310467 
L 194.634419 294.632456 
L 194.715603 294.039767 
L 194.959154 294.721358 
L 195.365074 294.523978 
L 195.446258 294.661602 
L 195.527442 294.510876 
L 195.608626 293.848799 
L 195.68981 294.572869 
L 195.770994 294.481641 
L 195.933362 294.139924 
L 196.014545 294.672821 
L 196.095729 294.621914 
L 196.176913 294.101662 
L 196.258097 294.214214 
L 196.339281 294.115211 
L 196.501649 294.653399 
L 196.664017 294.031947 
L 196.745201 294.43383 
L 196.826385 294.01356 
L 196.988753 294.436258 
L 197.232304 294.690534 
L 197.394672 294.344228 
L 197.475856 294.376527 
L 197.55704 294.556296 
L 197.719408 294.194406 
L 197.800592 294.395504 
L 197.881776 294.196603 
L 198.044144 294.411749 
L 198.206512 294.113902 
L 198.287696 294.907776 
L 198.368879 294.598879 
L 198.450063 293.781889 
L 198.612431 294.21619 
L 198.693615 294.138383 
L 198.774799 294.298246 
L 198.855983 294.813004 
L 198.937167 294.197381 
L 199.018351 294.442888 
L 199.099535 293.979732 
L 199.261903 294.695851 
L 199.343087 294.550246 
L 199.424271 294.16009 
L 199.667822 294.660865 
L 199.83019 294.333356 
L 199.992558 294.381197 
L 200.073742 294.75875 
L 200.23611 294.350282 
L 200.317294 294.274287 
L 200.398478 294.688877 
L 200.479662 294.663386 
L 200.64203 294.148114 
L 200.723214 294.691644 
L 200.885581 294.187895 
L 201.047949 295.029242 
L 201.210317 294.13889 
L 201.372685 295.051406 
L 201.453869 294.758192 
L 201.535053 294.006645 
L 201.616237 294.17619 
L 201.697421 294.551113 
L 201.778605 294.522963 
L 201.940973 294.27994 
L 202.022156 294.197204 
L 202.10334 294.564807 
L 202.184524 294.263454 
L 202.428076 294.893155 
L 202.50926 294.861025 
L 202.590444 294.712977 
L 202.671628 293.9669 
L 202.833996 294.906451 
L 202.91518 294.388184 
L 202.996364 294.723993 
L 203.158732 294.182868 
L 203.239915 294.70422 
L 203.321099 293.980092 
L 203.402283 294.806612 
L 203.483467 294.004999 
L 203.727019 294.779699 
L 203.889387 294.480806 
L 203.970571 294.420139 
L 204.051755 294.681209 
L 204.214123 294.498955 
L 204.295307 295.096925 
L 204.37649 294.044788 
L 204.457674 294.433449 
L 204.538858 294.825274 
L 204.620042 294.699983 
L 204.701226 294.786566 
L 204.78241 294.208127 
L 204.863594 294.436568 
L 204.944778 294.169092 
L 205.025962 294.279452 
L 205.107146 294.709114 
L 205.269514 294.084108 
L 205.350698 294.929934 
L 205.431882 294.371691 
L 205.513066 294.660519 
L 205.594249 293.682505 
L 205.675433 294.800417 
L 205.756617 294.669757 
L 205.837801 294.920876 
L 206.000169 294.58975 
L 206.081353 294.598265 
L 206.162537 294.750905 
L 206.243721 294.506057 
L 206.324905 294.766441 
L 206.406089 294.264854 
L 206.649641 294.642461 
L 206.812008 294.359655 
L 206.893192 294.416256 
L 206.974376 295.011119 
L 207.136744 294.103525 
L 207.217928 294.247795 
L 207.299112 294.236937 
L 207.380296 294.842865 
L 207.46148 294.285484 
L 207.542664 294.529334 
L 207.623848 294.120156 
L 207.786216 294.985029 
L 207.8674 294.309416 
L 207.948584 294.404034 
L 208.029767 294.862523 
L 208.110951 294.212187 
L 208.192135 294.455208 
L 208.273319 294.293127 
L 208.354503 294.389414 
L 208.435687 294.313185 
L 208.679239 295.034736 
L 208.922791 294.276904 
L 209.003975 294.313609 
L 209.166342 294.574981 
L 209.32871 294.530278 
L 209.491078 294.007768 
L 209.572262 294.965729 
L 209.653446 294.288354 
L 209.896998 294.817049 
L 209.978182 294.334699 
L 210.059366 294.511754 
L 210.14055 294.251531 
L 210.384101 295.180657 
L 210.546469 293.452361 
L 210.790021 294.876435 
L 210.871205 294.794047 
L 210.952389 294.9632 
L 211.277125 293.981425 
L 211.439493 294.767637 
L 211.520677 294.544899 
L 211.683044 295.039577 
L 211.764228 294.599233 
L 211.845412 291.29833 
L 211.926596 294.149563 
L 212.00778 293.656586 
L 212.088964 294.47922 
L 212.170148 294.304007 
L 212.332516 294.853301 
L 212.494884 294.417547 
L 212.657252 294.432782 
L 212.738436 294.815837 
L 212.819619 294.341086 
L 212.900803 294.825839 
L 212.981987 294.214385 
L 213.063171 294.445423 
L 213.225539 293.841243 
L 213.306723 293.940745 
L 213.469091 294.695742 
L 213.550275 294.364815 
L 213.631459 294.561299 
L 213.712643 294.31685 
L 213.956195 294.823354 
L 214.118562 294.437107 
L 214.199746 293.84983 
L 214.28093 293.988142 
L 214.362114 294.095589 
L 214.443298 294.707121 
L 214.605666 294.349192 
L 214.68685 294.649877 
L 214.768034 294.526904 
L 214.849218 294.193278 
L 215.09277 294.638409 
L 215.173953 294.015343 
L 215.336321 294.642323 
L 215.417505 293.572392 
L 215.579873 294.772399 
L 215.661057 294.397025 
L 215.823425 294.274036 
L 215.985793 294.642109 
L 216.066977 294.294849 
L 216.229345 294.548788 
L 216.391712 294.175158 
L 216.55408 294.784719 
L 216.716448 292.714373 
L 216.797632 294.827688 
L 216.878816 294.731975 
L 216.96 294.713241 
L 217.041184 294.373996 
L 217.122368 294.942264 
L 217.36592 294.206652 
L 217.609471 295.046548 
L 217.690655 294.466254 
L 217.771839 294.875725 
L 218.015391 294.053175 
L 218.177759 294.162324 
L 218.340127 294.191931 
L 218.421311 294.836387 
L 218.502495 294.625529 
L 218.583679 294.529213 
L 218.664863 294.865616 
L 218.908414 293.136291 
L 218.989598 294.346998 
L 219.070782 294.256345 
L 219.151966 294.27166 
L 219.23315 294.688623 
L 219.314334 294.496297 
L 219.395518 294.824148 
L 219.63907 294.286541 
L 219.720254 294.581079 
L 219.801438 294.028049 
L 219.963805 295.313144 
L 220.126173 294.488229 
L 220.288541 291.410236 
L 220.450909 295.091792 
L 220.532093 295.224407 
L 220.694461 294.155597 
L 220.775645 294.008739 
L 220.856829 294.337337 
L 220.938013 293.717613 
L 221.019197 294.720634 
L 221.100381 294.466287 
L 221.181564 294.65071 
L 221.425116 294.473805 
L 221.5063 293.793114 
L 221.587484 284.158615 
L 221.749852 294.790169 
L 221.993404 295.182756 
L 222.074588 294.781733 
L 222.155772 294.889709 
L 222.236956 294.676817 
L 222.31814 293.963318 
L 222.480507 294.38317 
L 222.561691 294.299092 
L 222.642875 294.980363 
L 222.724059 294.963238 
L 222.805243 294.771814 
L 222.886427 290.853902 
L 222.967611 292.028589 
L 223.129979 295.42949 
L 223.211163 294.748801 
L 223.292347 294.956274 
L 223.373531 294.588117 
L 223.454715 294.671974 
L 223.617082 294.134537 
L 223.698266 294.512459 
L 223.77945 293.920195 
L 223.860634 294.939093 
L 223.941818 294.582947 
L 224.023002 294.212129 
L 224.18537 294.803813 
L 224.266554 292.910028 
L 224.347738 294.293316 
L 224.428922 294.241271 
L 224.510106 294.236432 
L 224.59129 294.747641 
L 224.672474 294.703744 
L 224.834841 294.732297 
L 224.916025 294.398845 
L 224.997209 294.515737 
L 225.078393 294.667618 
L 225.159577 294.240966 
L 225.321945 295.070536 
L 225.403129 294.997099 
L 225.484313 295.21688 
L 225.565497 294.516112 
L 225.646681 294.555254 
L 225.727865 295.125175 
L 225.809049 294.777404 
L 225.890233 295.193823 
L 225.971416 294.713767 
L 226.133784 295.000335 
L 226.214968 294.918452 
L 226.377336 293.893342 
L 226.45852 232.299606 
L 226.620888 294.14425 
L 226.702072 293.760248 
L 226.783256 293.810807 
L 227.107992 294.618197 
L 227.189175 294.27276 
L 227.351543 295.214444 
L 227.513911 294.186262 
L 227.676279 294.575654 
L 227.757463 294.706953 
L 227.838647 294.584604 
L 228.001015 294.945901 
L 228.244567 294.290192 
L 228.325751 294.054216 
L 228.569302 295.083639 
L 228.73167 294.197346 
L 228.812854 294.792272 
L 228.975222 294.100129 
L 229.056406 293.988591 
L 229.13759 293.101403 
L 229.218774 294.445587 
L 229.299958 294.342498 
L 229.462326 295.125024 
L 229.787061 290.711717 
L 229.868245 288.426534 
L 230.030613 267.694941 
L 230.192981 289.728427 
L 230.436533 293.894231 
L 230.598901 294.400608 
L 230.680085 293.610518 
L 230.761268 293.971615 
L 230.842452 293.588422 
L 231.086004 294.942374 
L 231.167188 294.564598 
L 231.248372 293.228177 
L 231.329556 53.568 
L 231.41074 292.553626 
L 231.491924 291.510243 
L 231.81666 292.354158 
L 231.897844 292.749094 
L 232.060211 294.804878 
L 232.384947 290.436011 
L 232.547315 286.506022 
L 232.628499 267.499689 
L 232.872051 290.967195 
L 232.953235 291.141003 
L 233.196786 294.464904 
L 233.359154 295.191351 
L 233.440338 294.702844 
L 233.521522 293.015822 
L 233.602706 293.837419 
L 233.68389 293.721117 
L 233.846258 293.275192 
L 234.170994 294.408119 
L 234.252178 294.248643 
L 234.333362 293.814029 
L 234.495729 291.404829 
L 234.739281 283.911972 
L 234.901649 248.024116 
L 235.064017 286.095374 
L 235.388753 293.169151 
L 235.469937 293.130082 
L 235.713488 292.141416 
L 235.794672 291.588046 
L 236.119408 293.673908 
L 236.200592 273.852172 
L 236.281776 293.673908 
L 236.36296 293.209664 
L 236.525328 292.290101 
L 236.606512 291.588046 
L 236.931247 293.130082 
L 237.012431 293.169151 
L 237.255983 288.467178 
L 237.337167 286.095374 
L 237.418351 280.365471 
L 237.499535 248.024116 
L 237.743087 287.738739 
L 237.824271 287.04607 
L 237.986638 292.527729 
L 238.149006 294.248643 
L 238.23019 294.408119 
L 238.392558 293.809707 
L 238.554926 293.275192 
L 238.798478 293.837419 
L 238.879662 293.015822 
L 239.04203 295.191351 
L 239.366765 292.725392 
L 239.610317 288.135398 
L 239.772685 267.499689 
L 239.935053 288.864935 
L 240.340973 294.804878 
L 240.422156 294.223769 
L 240.584524 292.354158 
L 240.665708 292.254947 
L 240.90926 291.510243 
L 240.990444 292.553626 
L 241.071628 53.568 
L 241.233996 294.564598 
L 241.31518 294.942374 
L 241.396364 294.788769 
L 241.558732 293.588422 
L 241.639915 293.971615 
L 241.721099 293.610518 
L 241.883467 294.412379 
L 241.964651 293.894231 
L 242.289387 286.301647 
L 242.370571 267.694941 
L 242.614123 290.711717 
L 242.938858 295.125024 
L 243.020042 295.083425 
L 243.263594 293.101403 
L 243.425962 294.100129 
L 243.507146 294.149908 
L 243.58833 294.792272 
L 243.669514 294.197346 
L 243.831882 295.083639 
L 244.075433 294.054216 
L 244.400169 294.945901 
L 244.724905 294.575654 
L 244.806089 294.524822 
L 244.887273 294.186262 
L 245.049641 295.214444 
L 245.130825 294.884615 
L 245.212008 294.27276 
L 245.293192 294.618197 
L 245.699112 293.760248 
L 245.780296 294.14425 
L 245.86148 293.507145 
L 245.942664 232.299606 
L 246.105032 294.455815 
L 246.2674 295.000335 
L 246.348584 295.01742 
L 246.429767 294.713767 
L 246.510951 295.193823 
L 246.592135 294.777404 
L 246.673319 295.125175 
L 246.835687 294.516112 
L 246.916871 295.21688 
L 246.998055 294.997099 
L 247.079239 295.070536 
L 247.241607 294.240966 
L 247.322791 294.667618 
L 247.403975 294.515737 
L 247.485159 294.398845 
L 247.566342 294.732297 
L 247.647526 294.663176 
L 247.809894 294.747641 
L 247.972262 294.241271 
L 248.053446 294.293316 
L 248.13463 292.910028 
L 248.215814 294.803813 
L 248.296998 294.590773 
L 248.378182 294.212129 
L 248.54055 294.939093 
L 248.621734 293.920195 
L 248.702918 294.512459 
L 248.784101 294.134537 
L 248.946469 294.671974 
L 249.027653 294.588117 
L 249.108837 294.956274 
L 249.190021 294.748801 
L 249.271205 295.42949 
L 249.352389 294.633631 
L 249.514757 290.853902 
L 249.677125 294.963238 
L 249.758309 294.980363 
L 249.839493 294.299092 
L 249.920677 294.38317 
L 250.00186 294.291207 
L 250.083044 293.963318 
L 250.245412 294.889709 
L 250.326596 294.781733 
L 250.40778 295.182756 
L 250.732516 294.446879 
L 250.8137 284.158615 
L 250.976068 294.473805 
L 251.138436 294.540976 
L 251.219619 294.65071 
L 251.300803 294.466287 
L 251.381987 294.720634 
L 251.463171 293.717613 
L 251.544355 294.337337 
L 251.625539 294.008739 
L 251.787907 294.423658 
L 251.869091 295.224407 
L 251.950275 295.091792 
L 252.031459 294.866761 
L 252.112643 291.410236 
L 252.193827 292.289755 
L 252.356195 294.737121 
L 252.437378 295.313144 
L 252.599746 294.028049 
L 252.68093 294.581079 
L 252.843298 294.268048 
L 253.005666 294.824148 
L 253.08685 294.496297 
L 253.168034 294.688623 
L 253.330402 294.256345 
L 253.411586 294.346998 
L 253.49277 293.136291 
L 253.736321 294.865616 
L 253.817505 294.529213 
L 253.898689 294.625529 
L 253.979873 294.836387 
L 254.142241 294.145702 
L 254.304609 294.183643 
L 254.385793 294.053175 
L 254.466977 294.162826 
L 254.629345 294.875725 
L 254.710529 294.466254 
L 254.791712 295.046548 
L 254.872896 294.963542 
L 255.035264 294.206652 
L 255.116448 294.457363 
L 255.278816 294.942264 
L 255.36 294.373996 
L 255.522368 294.731975 
L 255.603552 294.827688 
L 255.684736 292.714373 
L 255.847104 294.784719 
L 256.009471 294.175158 
L 256.171839 294.548788 
L 256.253023 294.455165 
L 256.334207 294.294849 
L 256.496575 294.653142 
L 256.577759 294.274036 
L 256.658943 294.367531 
L 256.740127 294.397025 
L 256.821311 294.772399 
L 256.983679 293.572392 
L 257.064863 294.642323 
L 257.146047 294.353408 
L 257.22723 294.015343 
L 257.308414 294.638409 
L 257.389598 294.315623 
L 257.470782 294.404331 
L 257.551966 294.193278 
L 257.714334 294.649877 
L 257.795518 294.349192 
L 257.876702 294.396439 
L 257.957886 294.707121 
L 258.120254 293.988142 
L 258.201438 293.84983 
L 258.444989 294.823354 
L 258.688541 294.31685 
L 258.769725 294.561299 
L 258.850909 294.364815 
L 258.932093 294.695742 
L 259.013277 294.492872 
L 259.175645 293.841243 
L 259.338013 294.445423 
L 259.419197 294.214385 
L 259.500381 294.825839 
L 259.581564 294.341086 
L 259.662748 294.815837 
L 259.825116 294.406582 
L 259.987484 294.423126 
L 260.068668 294.853301 
L 260.231036 294.304007 
L 260.31222 294.47922 
L 260.393404 293.656586 
L 260.474588 294.149563 
L 260.555772 291.29833 
L 260.71814 295.039577 
L 260.880507 294.544899 
L 260.961691 294.767637 
L 261.042875 294.730435 
L 261.124059 293.981425 
L 261.448795 294.9632 
L 261.692347 294.593543 
L 261.854715 293.452361 
L 262.017082 295.180657 
L 262.098266 294.916648 
L 262.260634 294.251531 
L 262.341818 294.511754 
L 262.423002 294.334699 
L 262.504186 294.817049 
L 262.58537 294.640455 
L 262.666554 294.569999 
L 262.747738 294.288354 
L 262.828922 294.965729 
L 262.910106 294.007768 
L 262.99129 294.115586 
L 263.072474 294.530278 
L 263.153658 294.500366 
L 263.316025 294.585107 
L 263.478393 294.276904 
L 263.559577 294.354514 
L 263.721945 295.034736 
L 263.965497 294.313185 
L 264.046681 294.389414 
L 264.127865 294.293127 
L 264.209049 294.455208 
L 264.290233 294.212187 
L 264.371416 294.862523 
L 264.533784 294.309416 
L 264.614968 294.985029 
L 264.696152 294.81214 
L 264.777336 294.120156 
L 264.85852 294.529334 
L 264.939704 294.285484 
L 265.020888 294.842865 
L 265.183256 294.247795 
L 265.26444 294.103525 
L 265.426808 295.011119 
L 265.589175 294.359655 
L 265.832727 294.660641 
L 265.995095 294.264854 
L 266.076279 294.766441 
L 266.157463 294.506057 
L 266.238647 294.750905 
L 266.401015 294.58975 
L 266.482199 294.600504 
L 266.563383 294.920876 
L 266.644567 294.669757 
L 266.725751 294.800417 
L 266.806934 293.682505 
L 266.888118 294.660519 
L 266.969302 294.371691 
L 267.050486 294.929934 
L 267.13167 294.084108 
L 267.294038 294.709114 
L 267.456406 294.169092 
L 267.53759 294.436568 
L 267.618774 294.208127 
L 267.699958 294.786566 
L 267.781142 294.699983 
L 267.862326 294.825274 
L 268.024693 294.044788 
L 268.105877 295.096925 
L 268.268245 294.474905 
L 268.349429 294.681209 
L 268.430613 294.420139 
L 268.511797 294.480806 
L 268.592981 294.512162 
L 268.674165 294.779699 
L 268.836533 294.371695 
L 268.917717 294.004999 
L 268.998901 294.806612 
L 269.080085 293.980092 
L 269.161268 294.70422 
L 269.242452 294.182868 
L 269.323636 294.289786 
L 269.40482 294.723993 
L 269.486004 294.388184 
L 269.567188 294.906451 
L 269.648372 294.75207 
L 269.729556 293.9669 
L 269.891924 294.861025 
L 269.973108 294.893155 
L 270.21666 294.263454 
L 270.297844 294.564807 
L 270.379027 294.197204 
L 270.460211 294.27994 
L 270.541395 294.266399 
L 270.703763 294.551113 
L 270.866131 294.006645 
L 271.028499 295.051406 
L 271.190867 294.13889 
L 271.353235 295.029242 
L 271.515603 294.187895 
L 271.596786 294.30482 
L 271.67797 294.691644 
L 271.759154 294.148114 
L 271.921522 294.663386 
L 272.002706 294.688877 
L 272.08389 294.274287 
L 272.165074 294.350282 
L 272.246258 294.389451 
L 272.327442 294.75875 
L 272.48981 294.384581 
L 272.652178 294.373557 
L 272.733362 294.660865 
L 272.976913 294.16009 
L 273.139281 294.695851 
L 273.220465 294.684438 
L 273.301649 293.979732 
L 273.382833 294.442888 
L 273.464017 294.197381 
L 273.545201 294.813004 
L 273.707569 294.138383 
L 273.869937 294.198365 
L 273.951121 293.781889 
L 274.113488 294.907776 
L 274.194672 294.113902 
L 274.275856 294.141854 
L 274.35704 294.411749 
L 274.438224 294.339341 
L 274.519408 294.196603 
L 274.600592 294.395504 
L 274.681776 294.194406 
L 274.844144 294.556296 
L 275.006512 294.344228 
L 275.331247 294.558109 
L 275.574799 294.01356 
L 275.655983 294.43383 
L 275.737167 294.031947 
L 275.899535 294.653399 
L 276.061903 294.115211 
L 276.143087 294.214214 
L 276.224271 294.101662 
L 276.386638 294.672821 
L 276.467822 294.139924 
L 276.711374 294.572869 
L 276.792558 293.848799 
L 276.954926 294.661602 
L 277.117294 294.531337 
L 277.279662 294.513153 
L 277.44203 294.721358 
L 277.523214 294.695181 
L 277.685581 294.039767 
L 277.766765 294.632456 
L 277.847949 294.310467 
L 277.929133 294.437798 
L 278.010317 294.818753 
L 278.253869 293.766795 
L 278.335053 294.78649 
L 278.416237 294.337252 
L 278.497421 294.515114 
L 278.578605 294.200278 
L 278.659789 294.248485 
L 278.822156 294.515946 
L 278.90334 294.071082 
L 278.984524 294.337075 
L 279.065708 294.113262 
L 279.146892 294.501899 
L 279.228076 293.923808 
L 279.30926 294.283302 
L 279.390444 294.114087 
L 279.552812 294.429534 
L 279.633996 293.805025 
L 279.71518 294.301839 
L 279.796364 294.188667 
L 279.877548 294.141319 
L 280.039915 294.683755 
L 280.202283 294.524626 
L 280.283467 294.557114 
L 280.364651 294.7497 
L 280.445835 294.406433 
L 280.527019 294.726157 
L 280.608203 294.205876 
L 280.689387 294.42493 
L 280.770571 294.344408 
L 280.851755 294.226062 
L 281.095307 295.123682 
L 281.17649 294.336811 
L 281.257674 294.734557 
L 281.420042 294.119777 
L 281.58241 294.607957 
L 281.663594 294.338446 
L 281.744778 294.453399 
L 281.825962 294.260132 
L 281.907146 294.434486 
L 282.150698 293.862359 
L 282.231882 293.864589 
L 282.394249 294.34952 
L 282.475433 294.099625 
L 282.556617 294.852413 
L 282.637801 293.812817 
L 282.718985 294.769679 
L 282.800169 294.7457 
L 282.881353 294.305991 
L 282.962537 294.350467 
L 283.043721 294.259936 
L 283.124905 294.678778 
L 283.287273 294.436853 
L 283.368457 294.845543 
L 283.612008 293.874039 
L 283.693192 293.899521 
L 283.85556 294.530122 
L 283.936744 294.071047 
L 284.017928 294.150565 
L 284.099112 294.238036 
L 284.180296 293.858635 
L 284.342664 294.490041 
L 284.423848 294.200046 
L 284.505032 294.835606 
L 284.586216 294.366447 
L 284.6674 294.496963 
L 284.748584 294.338071 
L 284.829767 295.124994 
L 284.910951 294.336623 
L 284.992135 294.437552 
L 285.073319 294.003151 
L 285.154503 294.132548 
L 285.235687 294.445881 
L 285.316871 294.145556 
L 285.398055 294.290069 
L 285.479239 294.775928 
L 285.560423 294.064039 
L 285.641607 294.265135 
L 285.722791 294.567239 
L 285.803975 294.093382 
L 285.885159 294.681171 
L 285.966342 294.022401 
L 286.047526 294.987453 
L 286.12871 294.353777 
L 286.209894 294.491116 
L 286.291078 294.638864 
L 286.372262 294.210975 
L 286.453446 294.552885 
L 286.696998 293.761128 
L 286.778182 294.744935 
L 286.859366 294.010442 
L 286.94055 294.498874 
L 287.021734 293.899092 
L 287.102918 294.342322 
L 287.184101 294.106654 
L 287.265285 294.151422 
L 287.346469 294.355185 
L 287.427653 294.210552 
L 287.508837 294.350829 
L 287.590021 294.059147 
L 287.671205 294.464187 
L 287.752389 294.055928 
L 287.833573 294.120687 
L 287.914757 294.890799 
L 288.158309 293.989568 
L 288.239493 294.538781 
L 288.320677 293.780121 
L 288.483044 294.405413 
L 288.645412 293.803962 
L 288.888964 294.624947 
L 289.051332 294.004193 
L 289.132516 293.933915 
L 289.294884 294.295154 
L 289.376068 294.142772 
L 289.457252 293.698495 
L 289.619619 294.356961 
L 289.700803 293.778937 
L 289.781987 293.967942 
L 289.863171 293.604824 
L 290.106723 294.375975 
L 290.431459 293.324688 
L 290.512643 293.484927 
L 290.593827 294.21367 
L 290.675011 293.707745 
L 290.756195 294.279791 
L 290.837378 294.093685 
L 290.918562 293.056994 
L 291.08093 294.776519 
L 291.243298 293.824732 
L 291.324482 293.864184 
L 291.405666 294.327479 
L 291.568034 293.946991 
L 291.811586 294.262271 
L 291.89277 294.248458 
L 291.973953 293.620656 
L 292.055137 294.276699 
L 292.136321 294.219638 
L 292.298689 294.276209 
L 292.379873 293.847852 
L 292.461057 294.070514 
L 292.542241 293.965286 
L 292.623425 294.057279 
L 292.866977 293.639296 
L 293.029345 294.181137 
L 293.110529 294.108357 
L 293.191712 293.709316 
L 293.272896 294.497698 
L 293.435264 294.043447 
L 293.516448 294.303108 
L 293.922368 293.80534 
L 294.084736 294.126589 
L 294.328288 293.176148 
L 294.409471 293.23228 
L 294.653023 294.099303 
L 294.734207 293.345477 
L 294.815391 294.144182 
L 294.896575 293.617615 
L 294.977759 294.242861 
L 295.058943 293.697851 
L 295.140127 294.114631 
L 295.221311 293.671784 
L 295.302495 294.253983 
L 295.464863 293.683865 
L 295.62723 294.160712 
L 295.708414 293.935763 
L 295.789598 292.353097 
L 295.951966 294.198747 
L 296.03315 294.761897 
L 296.195518 294.206378 
L 296.276702 293.926938 
L 296.520254 294.741384 
L 296.763805 293.677023 
L 296.926173 293.955405 
L 297.088541 293.315617 
L 297.332093 294.285626 
L 297.494461 293.735087 
L 297.738013 294.250425 
L 297.819197 293.598859 
L 297.900381 294.047369 
L 297.981564 293.317099 
L 298.062748 294.18403 
L 298.143932 293.8682 
L 298.225116 294.334148 
L 298.3063 294.269024 
L 298.468668 294.315218 
L 298.71222 294.096299 
L 298.874588 293.554872 
L 298.955772 294.683549 
L 299.036956 294.592684 
L 299.11814 294.961737 
L 299.199323 294.590861 
L 299.361691 291.920496 
L 299.442875 294.763365 
L 299.524059 294.050264 
L 299.605243 293.775674 
L 299.686427 293.08611 
L 299.767611 293.839583 
L 299.848795 293.660154 
L 299.929979 293.448014 
L 300.254715 294.157987 
L 300.335899 294.728144 
L 300.498266 293.990469 
L 300.57945 294.070054 
L 300.660634 288.249874 
L 300.823002 292.653844 
L 300.904186 293.595857 
L 300.98537 292.942649 
L 301.066554 293.536974 
L 301.147738 293.418293 
L 301.228922 293.545158 
L 301.310106 293.169186 
L 301.472474 293.929672 
L 301.634841 293.47569 
L 301.878393 293.339023 
L 302.040761 293.629761 
L 302.121945 293.574271 
L 302.203129 293.111962 
L 302.365497 294.07185 
L 302.446681 293.927425 
L 302.527865 293.354866 
L 302.609049 293.677896 
L 302.771416 292.971555 
L 302.8526 293.743169 
L 302.933784 293.58406 
L 303.014968 293.491094 
L 303.177336 293.647781 
L 303.339704 293.547436 
L 303.420888 293.899765 
L 303.502072 293.121834 
L 303.583256 293.514797 
L 303.66444 293.008515 
L 303.745624 293.424536 
L 303.826808 292.845946 
L 303.989175 294.026172 
L 304.070359 294.019174 
L 304.232727 292.038086 
L 304.395095 293.369443 
L 304.476279 292.955391 
L 304.557463 293.278978 
L 304.638647 292.696753 
L 304.719831 293.003585 
L 304.801015 292.492645 
L 304.882199 293.011987 
L 304.963383 292.914089 
L 305.044567 292.52585 
L 305.125751 293.207478 
L 305.206934 292.551856 
L 305.288118 292.940732 
L 305.369302 292.724196 
L 305.450486 292.999383 
L 305.53167 287.743289 
L 305.694038 293.536584 
L 305.775222 293.232725 
L 305.856406 293.530476 
L 305.93759 293.461245 
L 306.181142 292.56123 
L 306.262326 292.768895 
L 306.34351 292.335996 
L 306.505877 293.353609 
L 306.587061 293.079707 
L 306.668245 293.452886 
L 306.749429 294.675043 
L 306.911797 290.782759 
L 306.992981 292.966503 
L 307.074165 292.742675 
L 307.236533 292.265513 
L 307.317717 292.112815 
L 307.398901 292.753272 
L 307.480085 292.311097 
L 307.723636 294.052759 
L 307.80482 290.463003 
L 307.886004 290.892372 
L 307.967188 291.24177 
L 308.21074 290.037583 
L 308.454292 292.177029 
L 308.61666 290.738467 
L 308.941395 281.303573 
L 309.103763 263.250326 
L 309.266131 288.250341 
L 309.428499 290.646374 
L 309.590867 294.711471 
L 310.159154 283.243041 
L 310.240338 283.898865 
L 310.321522 283.512422 
L 310.402706 189.658716 
L 310.565074 283.831536 
L 310.88981 292.468934 
L 311.052178 294.288255 
L 311.295729 293.543059 
L 311.458097 293.846612 
L 311.620465 295.340245 
L 311.701649 292.680818 
L 311.782833 292.963187 
L 311.864017 293.45681 
L 312.107569 292.053254 
L 312.432304 293.376104 
L 312.513488 294.527523 
L 312.675856 288.496107 
L 312.75704 289.785883 
L 313.000592 288.494304 
L 313.16296 289.580946 
L 313.325328 292.041318 
L 313.487696 286.889002 
L 313.731247 271.835103 
L 313.812431 264.073055 
L 313.974799 216.519421 
L 314.137167 282.210118 
L 314.218351 282.66676 
L 314.461903 290.031628 
L 314.543087 289.564981 
L 315.111374 272.518251 
L 315.192558 273.315326 
L 315.273742 73.67474 
L 315.43611 264.48972 
L 315.84203 288.627133 
L 316.004397 293.345272 
L 316.085581 293.207399 
L 316.166765 293.365327 
L 316.247949 292.28133 
L 316.329133 292.321421 
L 316.410317 292.041741 
L 316.572685 294.284772 
L 316.653869 291.053959 
L 316.816237 295.297757 
L 316.978605 294.121129 
L 317.140973 294.266659 
L 317.222156 294.105074 
L 317.384524 293.17099 
L 317.465708 288.612468 
L 317.628076 291.432251 
L 317.70926 291.303613 
L 317.790444 291.6129 
L 317.871628 291.056341 
L 318.11518 294.029364 
L 318.196364 293.659934 
L 318.439915 284.558015 
L 318.683467 266.840241 
L 318.845835 218.592014 
L 319.008203 283.391925 
L 319.089387 283.183958 
L 319.170571 283.87606 
L 319.414123 289.258056 
L 319.57649 284.499078 
L 319.901226 273.179756 
L 319.98241 273.572886 
L 320.063594 274.75084 
L 320.144778 83.011068 
L 320.307146 261.07238 
L 320.713066 286.418727 
L 320.875433 291.702826 
L 321.118985 289.676608 
L 321.281353 290.344673 
L 321.443721 293.671027 
L 321.524905 290.149105 
L 321.687273 293.368436 
L 321.768457 292.441022 
L 321.849641 292.481134 
L 321.930825 292.286117 
L 322.093192 291.571861 
L 322.174376 292.812086 
L 322.25556 292.640596 
L 322.336744 290.198912 
L 322.417928 294.689224 
L 322.499112 294.685674 
L 322.580296 295.021937 
L 322.742664 294.031485 
L 322.823848 294.618088 
L 322.905032 294.523058 
L 323.0674 294.040169 
L 323.148584 294.573942 
L 323.229767 294.257469 
L 323.473319 289.324928 
L 323.554503 285.649605 
L 323.716871 265.852129 
L 323.798055 292.230784 
L 323.879239 291.213522 
L 323.960423 290.885349 
L 324.122791 289.718241 
L 324.285159 291.761365 
L 324.366342 292.39566 
L 324.447526 291.918361 
L 324.772262 286.367244 
L 324.853446 286.41243 
L 324.93463 286.810708 
L 325.015814 203.371565 
L 325.178182 278.268604 
L 325.746469 292.451353 
L 325.827653 292.45499 
L 325.990021 291.092874 
L 326.071205 290.742166 
L 326.152389 290.963542 
L 326.314757 289.711552 
L 326.395941 293.714015 
L 326.477125 293.375787 
L 326.639493 292.884114 
L 326.720677 293.238349 
L 326.80186 293.160255 
L 326.883044 293.141353 
L 327.20778 294.10773 
L 327.288964 293.847891 
L 327.370148 294.285065 
L 327.532516 293.380537 
L 327.6137 293.815889 
L 327.694884 293.174355 
L 327.938436 293.853425 
L 328.019619 293.862151 
L 328.181987 293.167183 
L 328.263171 293.120967 
L 328.506723 292.044876 
L 328.831459 294.781189 
L 329.075011 294.206289 
L 329.156195 294.938242 
L 329.237378 294.441545 
L 329.318562 294.589521 
L 329.399746 294.966103 
L 329.48093 294.659591 
L 329.562114 294.898084 
L 329.643298 294.439826 
L 329.724482 294.842834 
L 329.805666 294.465008 
L 329.88685 292.419435 
L 329.968034 293.678106 
L 330.049218 293.361271 
L 330.211586 293.189741 
L 330.373953 294.318289 
L 330.455137 293.765152 
L 330.536321 294.748074 
L 330.617505 294.492957 
L 330.698689 294.4266 
L 330.779873 293.900165 
L 330.861057 294.139151 
L 331.104609 293.021417 
L 331.185793 290.983591 
L 331.429345 294.922298 
L 331.510529 295.195653 
L 331.672896 294.549866 
L 331.75408 294.838328 
L 331.835264 294.684227 
L 331.916448 295.070447 
L 332.078816 294.701517 
L 332.16 294.013359 
L 332.322368 294.739276 
L 332.403552 294.384465 
L 332.484736 294.474187 
L 332.56592 294.771942 
L 332.647104 294.436818 
L 332.728288 294.845959 
L 332.809471 294.353761 
L 332.890655 295.142213 
L 333.134207 294.03793 
L 333.215391 294.230276 
L 333.458943 292.273446 
L 333.540127 294.508878 
L 333.621311 294.392492 
L 333.864863 294.61295 
L 333.946047 295.000319 
L 334.02723 294.58099 
L 334.108414 294.897327 
L 334.189598 294.783152 
L 334.514334 293.78147 
L 334.676702 294.5862 
L 334.757886 288.655557 
L 334.920254 294.398196 
L 335.163805 294.975956 
L 335.244989 294.912589 
L 335.407357 295.28811 
L 335.488541 295.229576 
L 335.569725 294.880773 
L 335.650909 295.418533 
L 335.813277 294.973987 
L 335.894461 295.015441 
L 335.975645 295.3466 
L 336.056829 295.271702 
L 336.138013 295.254302 
L 336.219197 295.043762 
L 336.462748 295.484764 
L 336.543932 294.991425 
L 336.625116 295.179301 
L 336.787484 295.087578 
L 336.868668 295.329863 
L 336.949852 294.917265 
L 337.031036 295.217678 
L 337.11222 295.019814 
L 337.274588 295.359107 
L 337.436956 294.728685 
L 337.51814 294.975392 
L 337.599323 295.270897 
L 337.761691 294.920121 
L 337.842875 294.984567 
L 338.086427 295.384363 
L 338.248795 294.966784 
L 338.329979 293.870239 
L 338.411163 295.27312 
L 338.492347 294.965944 
L 338.573531 294.951217 
L 338.654715 295.184745 
L 338.898266 294.836216 
L 338.97945 295.247565 
L 339.060634 294.990068 
L 339.38537 295.488 
L 339.466554 294.770665 
L 339.547738 295.436379 
L 339.628922 293.999682 
L 339.710106 295.009203 
L 339.79129 294.582787 
L 339.872474 295.287193 
L 339.953658 294.780318 
L 340.116025 295.125233 
L 340.197209 295.137692 
L 340.278393 295.326188 
L 340.359577 295.142933 
L 340.440761 295.206851 
L 340.521945 295.26067 
L 340.603129 295.080759 
L 340.684313 295.265874 
L 340.765497 294.950863 
L 340.846681 295.439929 
L 340.927865 294.938851 
L 341.009049 295.079808 
L 341.090233 294.836451 
L 341.171416 295.287468 
L 341.333784 295.001088 
L 341.414968 295.148659 
L 341.496152 294.853446 
L 341.739704 295.351076 
L 341.820888 294.834111 
L 341.902072 294.988185 
L 341.983256 295.074988 
L 342.06444 295.338886 
L 342.145624 295.169267 
L 342.226808 295.257207 
L 342.307992 294.722132 
L 342.470359 295.04687 
L 342.713911 295.372718 
L 342.795095 295.288595 
L 343.038647 294.903641 
L 343.201015 295.169543 
L 343.282199 295.42065 
L 343.363383 295.121214 
L 343.444567 295.204379 
L 343.525751 295.290298 
L 343.606934 294.98484 
L 343.688118 295.376966 
L 343.93167 294.907782 
L 344.012854 295.258191 
L 344.094038 294.688697 
L 344.256406 295.314266 
L 344.418774 295.104697 
L 344.499958 294.7537 
L 344.824693 295.324459 
L 344.987061 295.041454 
L 345.311797 295.308828 
L 345.392981 295.111472 
L 345.474165 295.330912 
L 345.555349 294.86041 
L 345.636533 294.968949 
L 345.961268 295.411893 
L 346.042452 295.248179 
L 346.61074 295.040988 
L 346.691924 295.120406 
L 346.773108 294.856754 
L 346.854292 295.301569 
L 346.935476 295.048763 
L 347.01666 295.43416 
L 347.260211 295.014138 
L 347.341395 295.323742 
L 347.422579 295.278679 
L 347.584947 295.154569 
L 347.666131 295.297026 
L 347.747315 294.969705 
L 347.828499 295.082491 
L 347.990867 295.329075 
L 348.072051 295.04959 
L 348.153235 295.296061 
L 348.234419 294.725891 
L 348.315603 295.401589 
L 348.396786 294.971641 
L 348.47797 295.287561 
L 348.559154 294.801927 
L 348.802706 295.383117 
L 348.965074 294.946822 
L 349.127442 295.340646 
L 349.208626 295.368139 
L 349.370994 294.855384 
L 349.533362 295.021843 
L 349.614545 295.438869 
L 349.695729 295.091803 
L 349.776913 295.253407 
L 349.858097 294.758536 
L 349.939281 294.910366 
L 350.020465 295.32729 
L 350.101649 295.161823 
L 350.182833 295.358751 
L 350.345201 294.924791 
L 350.507569 295.365691 
L 350.588753 295.081345 
L 350.669937 295.136288 
L 350.751121 295.259322 
L 350.832304 294.94099 
L 350.913488 295.056261 
L 350.994672 295.244292 
L 351.075856 295.032542 
L 351.15704 295.16159 
L 351.238224 294.861424 
L 351.400592 295.224642 
L 351.481776 295.166322 
L 351.56296 294.955354 
L 351.644144 295.046936 
L 351.725328 295.130671 
L 351.806512 294.859779 
L 352.050063 295.361722 
L 352.131247 295.355844 
L 352.212431 294.969757 
L 352.293615 295.245669 
L 352.374799 294.911092 
L 352.455983 294.95537 
L 352.537167 295.195846 
L 352.618351 294.854362 
L 352.699535 295.21411 
L 352.780719 295.037595 
L 352.861903 295.259088 
L 352.943087 294.655286 
L 353.186638 295.27344 
L 353.349006 294.958596 
L 353.43019 295.084112 
L 353.511374 294.721889 
L 353.673742 295.400447 
L 354.24203 294.791956 
L 354.323214 295.128515 
L 354.404397 294.779198 
L 354.485581 295.414546 
L 354.566765 294.949346 
L 354.647949 295.444536 
L 354.891501 294.879633 
L 354.972685 294.864336 
L 355.135053 295.425139 
L 355.297421 294.812081 
L 355.378605 295.00702 
L 355.459789 294.920982 
L 355.540973 294.565991 
L 355.622156 295.443621 
L 355.70334 295.139367 
L 355.784524 294.779611 
L 355.865708 294.914919 
L 355.946892 294.841678 
L 356.10926 295.005341 
L 356.190444 294.957879 
L 356.352812 295.077228 
L 356.433996 295.10969 
L 356.51518 294.70384 
L 356.677548 295.335297 
L 356.758732 294.900348 
L 356.839915 295.056223 
L 357.002283 294.735107 
L 357.164651 295.30188 
L 357.245835 294.880156 
L 357.327019 295.002398 
L 357.408203 295.003453 
L 357.489387 294.770673 
L 357.651755 295.115374 
L 357.814123 294.760735 
L 357.895307 294.875353 
L 357.97649 294.725869 
L 358.057674 294.974445 
L 358.138858 294.797019 
L 358.301226 295.175074 
L 358.38241 295.091323 
L 358.463594 295.200175 
L 358.544778 294.823665 
L 358.78833 295.263699 
L 358.869514 294.719706 
L 358.950698 294.960309 
L 359.031882 294.842003 
L 359.113066 295.266918 
L 359.194249 294.752691 
L 359.275433 295.256478 
L 359.356617 295.035004 
L 359.437801 295.139928 
L 359.518985 294.503046 
L 359.681353 295.425791 
L 359.762537 295.353361 
L 359.843721 294.868229 
L 359.924905 294.99287 
L 360.087273 295.35355 
L 360.249641 294.931778 
L 360.330825 295.117474 
L 360.412008 294.888577 
L 360.574376 295.189393 
L 360.65556 294.679917 
L 360.736744 295.356275 
L 360.817928 294.849271 
L 360.899112 295.192891 
L 360.980296 295.101296 
L 361.142664 295.044166 
L 361.223848 295.151918 
L 361.386216 294.251715 
L 361.548584 295.166219 
L 361.629767 294.920041 
L 361.710951 295.002211 
L 361.792135 295.064893 
L 361.873319 294.626504 
L 362.035687 295.38535 
L 362.116871 295.33398 
L 362.198055 294.766243 
L 362.279239 295.171827 
L 362.360423 294.893973 
L 362.441607 295.169598 
L 362.522791 295.080367 
L 362.603975 295.146492 
L 362.685159 294.82918 
L 362.766342 295.089688 
L 362.847526 294.952892 
L 362.92871 295.304803 
L 363.172262 294.79767 
L 363.253446 295.295366 
L 363.415814 295.026989 
L 363.496998 295.168801 
L 363.578182 294.551015 
L 363.659366 294.75375 
L 363.74055 294.736008 
L 363.902918 295.381167 
L 363.984101 295.286121 
L 364.065285 294.858738 
L 364.146469 294.930323 
L 364.227653 295.062234 
L 364.308837 294.84606 
L 364.390021 295.222774 
L 364.471205 295.1096 
L 364.633573 295.15199 
L 364.877125 294.485643 
L 365.039493 295.046865 
L 365.120677 295.172269 
L 365.20186 294.508287 
L 365.283044 294.842437 
L 365.364228 294.46764 
L 365.526596 294.967936 
L 365.60778 294.421527 
L 365.770148 295.227197 
L 366.0137 295.051699 
L 366.176068 294.3724 
L 366.257252 294.412134 
L 366.419619 295.278766 
L 366.500803 295.190084 
L 366.581987 294.550923 
L 366.744355 295.02431 
L 366.825539 294.696177 
L 366.906723 294.991519 
L 366.987907 294.722079 
L 367.150275 295.278262 
L 367.231459 294.937512 
L 367.312643 295.10414 
L 367.393827 294.664592 
L 367.556195 294.985936 
L 367.637378 294.459985 
L 367.799746 295.248038 
L 367.88093 294.598878 
L 367.962114 294.697997 
L 368.043298 295.008583 
L 368.124482 294.716005 
L 368.205666 295.213858 
L 368.28685 294.763796 
L 368.368034 295.290183 
L 368.449218 295.12145 
L 368.530402 295.138778 
L 368.69277 294.62237 
L 368.773953 295.30839 
L 368.855137 294.456122 
L 368.936321 294.826263 
L 369.098689 294.249274 
L 369.179873 294.936565 
L 369.261057 294.645839 
L 369.504609 295.240976 
L 369.748161 294.746079 
L 369.910529 295.195507 
L 370.072896 294.097698 
L 370.15408 294.760438 
L 370.235264 294.497245 
L 370.397632 295.001157 
L 370.56 294.815985 
L 370.722368 295.010524 
L 370.803552 294.917271 
L 370.884736 294.518561 
L 371.047104 294.99721 
L 371.128288 294.593029 
L 371.209471 294.942597 
L 371.290655 294.749981 
L 371.371839 293.959765 
L 371.453023 294.969026 
L 371.534207 294.732932 
L 371.777759 294.997089 
L 371.858943 294.384301 
L 371.940127 295.30274 
L 372.021311 294.392581 
L 372.183679 295.084513 
L 372.264863 294.743926 
L 372.346047 295.161804 
L 372.42723 294.758195 
L 372.508414 294.794848 
L 372.589598 294.758315 
L 372.670782 294.565651 
L 372.83315 294.956561 
L 372.914334 294.432912 
L 372.995518 294.447236 
L 373.076702 294.61486 
L 373.157886 294.383176 
L 373.23907 294.66998 
L 373.401438 294.36946 
L 373.482622 294.341479 
L 373.563805 294.623465 
L 373.644989 294.561336 
L 373.726173 294.595794 
L 373.969725 295.021445 
L 374.213277 295.038931 
L 374.294461 294.463259 
L 374.538013 294.861998 
L 374.619197 294.755124 
L 374.700381 294.949462 
L 374.781564 294.800303 
L 374.862748 293.503027 
L 375.025116 294.924996 
L 375.187484 295.136995 
L 375.268668 294.535965 
L 375.349852 295.190537 
L 375.431036 294.261268 
L 375.51222 295.008472 
L 375.593404 294.738993 
L 375.674588 294.723211 
L 375.755772 295.236075 
L 375.836956 294.694656 
L 375.91814 294.900011 
L 376.324059 294.856019 
L 376.486427 294.362463 
L 376.648795 294.219104 
L 376.811163 295.00397 
L 377.054715 293.987855 
L 377.135899 295.019068 
L 377.298266 294.610413 
L 377.37945 295.047488 
L 377.541818 294.49608 
L 377.623002 295.050464 
L 377.704186 294.318351 
L 377.947738 294.852029 
L 378.028922 294.956934 
L 378.19129 294.899441 
L 378.272474 295.010106 
L 378.434841 293.76734 
L 378.516025 294.57538 
L 378.597209 294.402437 
L 378.678393 294.506043 
L 378.759577 293.864798 
L 378.840761 294.506517 
L 378.921945 294.328187 
L 379.165497 294.788168 
L 379.246681 294.725823 
L 379.327865 295.11907 
L 379.571416 293.840934 
L 379.733784 294.54669 
L 379.814968 294.24957 
L 379.977336 294.57632 
L 380.05852 294.001864 
L 380.139704 294.506067 
L 380.220888 294.428184 
L 380.302072 294.721059 
L 380.383256 294.318978 
L 380.46444 294.405236 
L 380.545624 294.323472 
L 380.626808 293.878841 
L 380.789175 294.226785 
L 380.870359 294.300845 
L 380.951543 293.832673 
L 381.032727 294.027944 
L 381.113911 295.447409 
L 381.195095 294.540809 
L 381.276279 294.5576 
L 381.357463 294.778111 
L 381.438647 294.68126 
L 381.519831 294.154282 
L 381.601015 294.556467 
L 381.682199 294.189327 
L 381.763383 294.818712 
L 381.844567 294.437155 
L 381.925751 295.372805 
L 382.006934 294.039985 
L 382.088118 295.150199 
L 382.169302 294.354849 
L 382.250486 294.629933 
L 382.33167 294.663228 
L 382.494038 293.841525 
L 382.575222 294.674021 
L 382.656406 293.890415 
L 382.73759 294.314987 
L 382.818774 294.089228 
L 383.062326 295.211928 
L 383.224693 293.349304 
L 383.305877 289.959378 
L 383.387061 294.031779 
L 383.468245 293.60857 
L 383.549429 293.532378 
L 383.792981 292.959654 
L 384.117717 295.087535 
L 384.442452 293.651008 
L 384.523636 294.16205 
L 384.60482 291.140845 
L 384.686004 292.180407 
L 384.767188 292.285022 
L 384.848372 292.681179 
L 384.929556 292.19661 
L 385.254292 293.78451 
L 385.41666 293.665749 
L 385.497844 293.518015 
L 385.579027 293.649352 
L 385.660211 293.52407 
L 385.822579 293.817159 
L 385.984947 293.617797 
L 386.066131 293.723441 
L 386.147315 294.02898 
L 386.390867 293.740179 
L 386.472051 293.064052 
L 386.553235 293.710962 
L 386.634419 293.587061 
L 386.715603 293.817921 
L 386.796786 294.682 
L 386.87797 290.871208 
L 386.959154 292.199982 
L 387.040338 292.24223 
L 387.121522 292.004348 
L 387.202706 292.50803 
L 387.28389 292.292514 
L 387.365074 293.054875 
L 387.446258 292.894107 
L 387.527442 293.34185 
L 387.608626 292.070202 
L 387.68981 292.247764 
L 388.014545 287.798378 
L 388.176913 280.325906 
L 388.258097 293.134106 
L 388.339281 292.781428 
L 388.420465 293.138294 
L 388.582833 294.859297 
L 388.664017 295.074238 
L 388.988753 291.27454 
L 389.151121 290.76457 
L 389.394672 292.94865 
L 389.475856 277.38156 
L 389.638224 291.783063 
L 389.800592 294.814406 
L 390.044144 294.082028 
L 390.125328 293.313194 
L 390.206512 293.322926 
L 390.368879 293.829097 
L 390.450063 293.224637 
L 390.531247 293.332686 
L 390.693615 295.179851 
L 390.774799 294.482832 
L 390.855983 291.025658 
L 390.937167 292.307723 
L 391.018351 292.208093 
L 391.180719 292.515093 
L 391.261903 292.136253 
L 391.505455 293.353562 
L 391.586638 293.384357 
L 391.667822 294.079751 
L 391.749006 287.235149 
L 391.83019 289.359618 
L 391.911374 289.185499 
L 391.992558 288.511579 
L 392.398478 291.079845 
L 392.723214 279.22885 
L 392.885581 268.963681 
L 393.047949 225.522624 
L 393.129133 292.023887 
L 393.210317 285.707665 
L 393.291501 285.069142 
L 393.453869 286.85192 
L 393.616237 290.25047 
L 393.778605 287.294991 
L 394.022156 283.334026 
L 394.10334 283.404038 
L 394.184524 284.896878 
L 394.265708 290.280844 
L 394.346892 221.546441 
L 394.50926 272.978104 
L 394.752812 286.795473 
L 395.077548 295.13513 
L 395.158732 294.465815 
L 395.239915 294.720021 
L 395.402283 292.948973 
L 395.483467 293.232165 
L 395.727019 290.519329 
L 395.808203 293.66704 
L 395.889387 292.904501 
L 395.970571 293.132265 
L 396.051755 292.988409 
L 396.37649 294.532883 
L 396.457674 294.537479 
L 396.538858 293.126406 
L 396.620042 287.65205 
L 396.701226 289.170534 
L 396.78241 289.40344 
L 396.863594 288.900597 
L 397.18833 291.837904 
L 397.269514 291.246865 
L 397.513066 279.560531 
L 397.756617 259.916503 
L 397.837801 239.368411 
L 397.918985 190.171736 
L 398.000169 290.096686 
L 398.081353 280.908876 
L 398.162537 278.921101 
L 398.243721 279.126748 
L 398.487273 286.21929 
L 398.487273 286.21929 
" style="fill:none;stroke:#1f77b4;stroke-linecap:square;stroke-width:1.5;"/>
   </g>
   <g id="patch_3">
    <path d="M 57.6 307.584 
L 57.6 41.472 
" style="fill:none;stroke:#000000;stroke-linecap:square;stroke-linejoin:miter;stroke-width:0.8;"/>
   </g>
   <g id="patch_4">
    <path d="M 414.72 307.584 
L 414.72 41.472 
" style="fill:none;stroke:#000000;stroke-linecap:square;stroke-linejoin:miter;stroke-width:0.8;"/>
   </g>
   <g id="patch_5">
    <path d="M 57.6 307.584 
L 414.72 307.584 
" style="fill:none;stroke:#000000;stroke-linecap:square;stroke-linejoin:miter;stroke-width:0.8;"/>
   </g>
   <g id="patch_6">
    <path d="M 57.6 41.472 
L 414.72 41.472 
" style="fill:none;stroke:#000000;stroke-linecap:square;stroke-linejoin:miter;stroke-width:0.8;"/>
   </g>
   <g id="text_17">
    <!-- AM frequency domain -->
    <g transform="translate(170.502187 35.472)scale(0.12 -0.12)">
     <defs>
      <path d="M 2188 4044 
L 1331 1722 
L 3047 1722 
L 2188 4044 
z
M 1831 4666 
L 2547 4666 
L 4325 0 
L 3669 0 
L 3244 1197 
L 1141 1197 
L 716 0 
L 50 0 
L 1831 4666 
z
" id="DejaVuSans-41" transform="scale(0.015625)"/>
      <path d="M 628 4666 
L 1569 4666 
L 2759 1491 
L 3956 4666 
L 4897 4666 
L 4897 0 
L 4281 0 
L 4281 4097 
L 3078 897 
L 2444 897 
L 1241 4097 
L 1241 0 
L 628 0 
L 628 4666 
z
" id="DejaVuSans-4d" transform="scale(0.015625)"/>
      <path d="M 1959 3097 
Q 1497 3097 1228 2736 
Q 959 2375 959 1747 
Q 959 1119 1226 758 
Q 1494 397 1959 397 
Q 2419 397 2687 759 
Q 2956 1122 2956 1747 
Q 2956 2369 2687 2733 
Q 2419 3097 1959 3097 
z
M 1959 3584 
Q 2709 3584 3137 3096 
Q 3566 2609 3566 1747 
Q 3566 888 3137 398 
Q 2709 -91 1959 -91 
Q 1206 -91 779 398 
Q 353 888 353 1747 
Q 353 2609 779 3096 
Q 1206 3584 1959 3584 
z
" id="DejaVuSans-6f" transform="scale(0.015625)"/>
     </defs>
     <use xlink:href="#DejaVuSans-41"/>
     <use x="68.408203" xlink:href="#DejaVuSans-4d"/>
     <use x="154.6875" xlink:href="#DejaVuSans-20"/>
     <use x="186.474609" xlink:href="#DejaVuSans-66"/>
     <use x="221.679688" xlink:href="#DejaVuSans-72"/>
     <use x="260.542969" xlink:href="#DejaVuSans-65"/>
     <use x="322.066406" xlink:href="#DejaVuSans-71"/>
     <use x="385.542969" xlink:href="#DejaVuSans-75"/>
     <use x="448.921875" xlink:href="#DejaVuSans-65"/>
     <use x="510.445312" xlink:href="#DejaVuSans-6e"/>
     <use x="573.824219" xlink:href="#DejaVuSans-63"/>
     <use x="628.804688" xlink:href="#DejaVuSans-79"/>
     <use x="687.984375" xlink:href="#DejaVuSans-20"/>
     <use x="719.771484" xlink:href="#DejaVuSans-64"/>
     <use x="783.248047" xlink:href="#DejaVuSans-6f"/>
     <use x="844.429688" xlink:href="#DejaVuSans-6d"/>
     <use x="941.841797" xlink:href="#DejaVuSans-61"/>
     <use x="1003.121094" xlink:href="#DejaVuSans-69"/>
     <use x="1030.904297" xlink:href="#DejaVuSans-6e"/>
    </g>
   </g>
  </g>
 </g>
 <defs>
  <clipPath id="p6593fe30cb">
   <rect height="266.112" width="357.12" x="57.6" y="41.472"/>
  </clipPath>
 </defs>
</svg>
