<?xml version="1.0" encoding="utf-8" standalone="no"?>
<!DOCTYPE svg PUBLIC "-//W3C//DTD SVG 1.1//EN"
  "http://www.w3.org/Graphics/SVG/1.1/DTD/svg11.dtd">
<svg height="345.6pt" version="1.1" viewBox="0 0 460.8 345.6" width="460.8pt" xmlns="http://www.w3.org/2000/svg" xmlns:xlink="http://www.w3.org/1999/xlink">
 <metadata>
  <rdf:RDF xmlns:cc="http://creativecommons.org/ns#" xmlns:dc="http://purl.org/dc/elements/1.1/" xmlns:rdf="http://www.w3.org/1999/02/22-rdf-syntax-ns#">
   <cc:Work>
    <dc:type rdf:resource="http://purl.org/dc/dcmitype/StillImage"/>
    <dc:date>2021-11-07T21:56:35.988255</dc:date>
    <dc:format>image/svg+xml</dc:format>
    <dc:creator>
     <cc:Agent>
      <dc:title>Matplotlib v3.4.3, https://matplotlib.org/</dc:title>
     </cc:Agent>
    </dc:creator>
   </cc:Work>
  </rdf:RDF>
 </metadata>
 <defs>
  <style type="text/css">*{stroke-linecap:butt;stroke-linejoin:round;}</style>
 </defs>
 <g id="figure_1">
  <g id="patch_1">
   <path d="M 0 345.6 
L 460.8 345.6 
L 460.8 0 
L 0 0 
z
" style="fill:#ffffff;"/>
  </g>
  <g id="axes_1">
   <g id="patch_2">
    <path d="M 57.6 307.584 
L 414.72 307.584 
L 414.72 41.472 
L 57.6 41.472 
z
" style="fill:#ffffff;"/>
   </g>
   <g id="matplotlib.axis_1">
    <g id="xtick_1">
     <g id="line2d_1">
      <defs>
       <path d="M 0 0 
L 0 3.5 
" id="m27e66871ff" style="stroke:#000000;stroke-width:0.8;"/>
      </defs>
      <g>
       <use style="stroke:#000000;stroke-width:0.8;" x="73.784017" xlink:href="#m27e66871ff" y="307.584"/>
      </g>
     </g>
     <g id="text_1">
      <!-- 300 -->
      <g transform="translate(64.240267 322.182437)scale(0.1 -0.1)">
       <defs>
        <path d="M 2597 2516 
Q 3050 2419 3304 2112 
Q 3559 1806 3559 1356 
Q 3559 666 3084 287 
Q 2609 -91 1734 -91 
Q 1441 -91 1130 -33 
Q 819 25 488 141 
L 488 750 
Q 750 597 1062 519 
Q 1375 441 1716 441 
Q 2309 441 2620 675 
Q 2931 909 2931 1356 
Q 2931 1769 2642 2001 
Q 2353 2234 1838 2234 
L 1294 2234 
L 1294 2753 
L 1863 2753 
Q 2328 2753 2575 2939 
Q 2822 3125 2822 3475 
Q 2822 3834 2567 4026 
Q 2313 4219 1838 4219 
Q 1578 4219 1281 4162 
Q 984 4106 628 3988 
L 628 4550 
Q 988 4650 1302 4700 
Q 1616 4750 1894 4750 
Q 2613 4750 3031 4423 
Q 3450 4097 3450 3541 
Q 3450 3153 3228 2886 
Q 3006 2619 2597 2516 
z
" id="DejaVuSans-33" transform="scale(0.015625)"/>
        <path d="M 2034 4250 
Q 1547 4250 1301 3770 
Q 1056 3291 1056 2328 
Q 1056 1369 1301 889 
Q 1547 409 2034 409 
Q 2525 409 2770 889 
Q 3016 1369 3016 2328 
Q 3016 3291 2770 3770 
Q 2525 4250 2034 4250 
z
M 2034 4750 
Q 2819 4750 3233 4129 
Q 3647 3509 3647 2328 
Q 3647 1150 3233 529 
Q 2819 -91 2034 -91 
Q 1250 -91 836 529 
Q 422 1150 422 2328 
Q 422 3509 836 4129 
Q 1250 4750 2034 4750 
z
" id="DejaVuSans-30" transform="scale(0.015625)"/>
       </defs>
       <use xlink:href="#DejaVuSans-33"/>
       <use x="63.623047" xlink:href="#DejaVuSans-30"/>
       <use x="127.246094" xlink:href="#DejaVuSans-30"/>
      </g>
     </g>
    </g>
    <g id="xtick_2">
     <g id="line2d_2">
      <g>
       <use style="stroke:#000000;stroke-width:0.8;" x="114.371924" xlink:href="#m27e66871ff" y="307.584"/>
      </g>
     </g>
     <g id="text_2">
      <!-- 325 -->
      <g transform="translate(104.828174 322.182437)scale(0.1 -0.1)">
       <defs>
        <path d="M 1228 531 
L 3431 531 
L 3431 0 
L 469 0 
L 469 531 
Q 828 903 1448 1529 
Q 2069 2156 2228 2338 
Q 2531 2678 2651 2914 
Q 2772 3150 2772 3378 
Q 2772 3750 2511 3984 
Q 2250 4219 1831 4219 
Q 1534 4219 1204 4116 
Q 875 4013 500 3803 
L 500 4441 
Q 881 4594 1212 4672 
Q 1544 4750 1819 4750 
Q 2544 4750 2975 4387 
Q 3406 4025 3406 3419 
Q 3406 3131 3298 2873 
Q 3191 2616 2906 2266 
Q 2828 2175 2409 1742 
Q 1991 1309 1228 531 
z
" id="DejaVuSans-32" transform="scale(0.015625)"/>
        <path d="M 691 4666 
L 3169 4666 
L 3169 4134 
L 1269 4134 
L 1269 2991 
Q 1406 3038 1543 3061 
Q 1681 3084 1819 3084 
Q 2600 3084 3056 2656 
Q 3513 2228 3513 1497 
Q 3513 744 3044 326 
Q 2575 -91 1722 -91 
Q 1428 -91 1123 -41 
Q 819 9 494 109 
L 494 744 
Q 775 591 1075 516 
Q 1375 441 1709 441 
Q 2250 441 2565 725 
Q 2881 1009 2881 1497 
Q 2881 1984 2565 2268 
Q 2250 2553 1709 2553 
Q 1456 2553 1204 2497 
Q 953 2441 691 2322 
L 691 4666 
z
" id="DejaVuSans-35" transform="scale(0.015625)"/>
       </defs>
       <use xlink:href="#DejaVuSans-33"/>
       <use x="63.623047" xlink:href="#DejaVuSans-32"/>
       <use x="127.246094" xlink:href="#DejaVuSans-35"/>
      </g>
     </g>
    </g>
    <g id="xtick_3">
     <g id="line2d_3">
      <g>
       <use style="stroke:#000000;stroke-width:0.8;" x="154.959831" xlink:href="#m27e66871ff" y="307.584"/>
      </g>
     </g>
     <g id="text_3">
      <!-- 350 -->
      <g transform="translate(145.416081 322.182437)scale(0.1 -0.1)">
       <use xlink:href="#DejaVuSans-33"/>
       <use x="63.623047" xlink:href="#DejaVuSans-35"/>
       <use x="127.246094" xlink:href="#DejaVuSans-30"/>
      </g>
     </g>
    </g>
    <g id="xtick_4">
     <g id="line2d_4">
      <g>
       <use style="stroke:#000000;stroke-width:0.8;" x="195.547738" xlink:href="#m27e66871ff" y="307.584"/>
      </g>
     </g>
     <g id="text_4">
      <!-- 375 -->
      <g transform="translate(186.003988 322.182437)scale(0.1 -0.1)">
       <defs>
        <path d="M 525 4666 
L 3525 4666 
L 3525 4397 
L 1831 0 
L 1172 0 
L 2766 4134 
L 525 4134 
L 525 4666 
z
" id="DejaVuSans-37" transform="scale(0.015625)"/>
       </defs>
       <use xlink:href="#DejaVuSans-33"/>
       <use x="63.623047" xlink:href="#DejaVuSans-37"/>
       <use x="127.246094" xlink:href="#DejaVuSans-35"/>
      </g>
     </g>
    </g>
    <g id="xtick_5">
     <g id="line2d_5">
      <g>
       <use style="stroke:#000000;stroke-width:0.8;" x="236.135645" xlink:href="#m27e66871ff" y="307.584"/>
      </g>
     </g>
     <g id="text_5">
      <!-- 400 -->
      <g transform="translate(226.591895 322.182437)scale(0.1 -0.1)">
       <defs>
        <path d="M 2419 4116 
L 825 1625 
L 2419 1625 
L 2419 4116 
z
M 2253 4666 
L 3047 4666 
L 3047 1625 
L 3713 1625 
L 3713 1100 
L 3047 1100 
L 3047 0 
L 2419 0 
L 2419 1100 
L 313 1100 
L 313 1709 
L 2253 4666 
z
" id="DejaVuSans-34" transform="scale(0.015625)"/>
       </defs>
       <use xlink:href="#DejaVuSans-34"/>
       <use x="63.623047" xlink:href="#DejaVuSans-30"/>
       <use x="127.246094" xlink:href="#DejaVuSans-30"/>
      </g>
     </g>
    </g>
    <g id="xtick_6">
     <g id="line2d_6">
      <g>
       <use style="stroke:#000000;stroke-width:0.8;" x="276.723552" xlink:href="#m27e66871ff" y="307.584"/>
      </g>
     </g>
     <g id="text_6">
      <!-- 425 -->
      <g transform="translate(267.179802 322.182437)scale(0.1 -0.1)">
       <use xlink:href="#DejaVuSans-34"/>
       <use x="63.623047" xlink:href="#DejaVuSans-32"/>
       <use x="127.246094" xlink:href="#DejaVuSans-35"/>
      </g>
     </g>
    </g>
    <g id="xtick_7">
     <g id="line2d_7">
      <g>
       <use style="stroke:#000000;stroke-width:0.8;" x="317.311459" xlink:href="#m27e66871ff" y="307.584"/>
      </g>
     </g>
     <g id="text_7">
      <!-- 450 -->
      <g transform="translate(307.767709 322.182437)scale(0.1 -0.1)">
       <use xlink:href="#DejaVuSans-34"/>
       <use x="63.623047" xlink:href="#DejaVuSans-35"/>
       <use x="127.246094" xlink:href="#DejaVuSans-30"/>
      </g>
     </g>
    </g>
    <g id="xtick_8">
     <g id="line2d_8">
      <g>
       <use style="stroke:#000000;stroke-width:0.8;" x="357.899366" xlink:href="#m27e66871ff" y="307.584"/>
      </g>
     </g>
     <g id="text_8">
      <!-- 475 -->
      <g transform="translate(348.355616 322.182437)scale(0.1 -0.1)">
       <use xlink:href="#DejaVuSans-34"/>
       <use x="63.623047" xlink:href="#DejaVuSans-37"/>
       <use x="127.246094" xlink:href="#DejaVuSans-35"/>
      </g>
     </g>
    </g>
    <g id="xtick_9">
     <g id="line2d_9">
      <g>
       <use style="stroke:#000000;stroke-width:0.8;" x="398.487273" xlink:href="#m27e66871ff" y="307.584"/>
      </g>
     </g>
     <g id="text_9">
      <!-- 500 -->
      <g transform="translate(388.943523 322.182437)scale(0.1 -0.1)">
       <use xlink:href="#DejaVuSans-35"/>
       <use x="63.623047" xlink:href="#DejaVuSans-30"/>
       <use x="127.246094" xlink:href="#DejaVuSans-30"/>
      </g>
     </g>
    </g>
    <g id="text_10">
     <!-- time [ms] -->
     <g transform="translate(211.898281 335.860562)scale(0.1 -0.1)">
      <defs>
       <path d="M 1172 4494 
L 1172 3500 
L 2356 3500 
L 2356 3053 
L 1172 3053 
L 1172 1153 
Q 1172 725 1289 603 
Q 1406 481 1766 481 
L 2356 481 
L 2356 0 
L 1766 0 
Q 1100 0 847 248 
Q 594 497 594 1153 
L 594 3053 
L 172 3053 
L 172 3500 
L 594 3500 
L 594 4494 
L 1172 4494 
z
" id="DejaVuSans-74" transform="scale(0.015625)"/>
       <path d="M 603 3500 
L 1178 3500 
L 1178 0 
L 603 0 
L 603 3500 
z
M 603 4863 
L 1178 4863 
L 1178 4134 
L 603 4134 
L 603 4863 
z
" id="DejaVuSans-69" transform="scale(0.015625)"/>
       <path d="M 3328 2828 
Q 3544 3216 3844 3400 
Q 4144 3584 4550 3584 
Q 5097 3584 5394 3201 
Q 5691 2819 5691 2113 
L 5691 0 
L 5113 0 
L 5113 2094 
Q 5113 2597 4934 2840 
Q 4756 3084 4391 3084 
Q 3944 3084 3684 2787 
Q 3425 2491 3425 1978 
L 3425 0 
L 2847 0 
L 2847 2094 
Q 2847 2600 2669 2842 
Q 2491 3084 2119 3084 
Q 1678 3084 1418 2786 
Q 1159 2488 1159 1978 
L 1159 0 
L 581 0 
L 581 3500 
L 1159 3500 
L 1159 2956 
Q 1356 3278 1631 3431 
Q 1906 3584 2284 3584 
Q 2666 3584 2933 3390 
Q 3200 3197 3328 2828 
z
" id="DejaVuSans-6d" transform="scale(0.015625)"/>
       <path d="M 3597 1894 
L 3597 1613 
L 953 1613 
Q 991 1019 1311 708 
Q 1631 397 2203 397 
Q 2534 397 2845 478 
Q 3156 559 3463 722 
L 3463 178 
Q 3153 47 2828 -22 
Q 2503 -91 2169 -91 
Q 1331 -91 842 396 
Q 353 884 353 1716 
Q 353 2575 817 3079 
Q 1281 3584 2069 3584 
Q 2775 3584 3186 3129 
Q 3597 2675 3597 1894 
z
M 3022 2063 
Q 3016 2534 2758 2815 
Q 2500 3097 2075 3097 
Q 1594 3097 1305 2825 
Q 1016 2553 972 2059 
L 3022 2063 
z
" id="DejaVuSans-65" transform="scale(0.015625)"/>
       <path id="DejaVuSans-20" transform="scale(0.015625)"/>
       <path d="M 550 4863 
L 1875 4863 
L 1875 4416 
L 1125 4416 
L 1125 -397 
L 1875 -397 
L 1875 -844 
L 550 -844 
L 550 4863 
z
" id="DejaVuSans-5b" transform="scale(0.015625)"/>
       <path d="M 2834 3397 
L 2834 2853 
Q 2591 2978 2328 3040 
Q 2066 3103 1784 3103 
Q 1356 3103 1142 2972 
Q 928 2841 928 2578 
Q 928 2378 1081 2264 
Q 1234 2150 1697 2047 
L 1894 2003 
Q 2506 1872 2764 1633 
Q 3022 1394 3022 966 
Q 3022 478 2636 193 
Q 2250 -91 1575 -91 
Q 1294 -91 989 -36 
Q 684 19 347 128 
L 347 722 
Q 666 556 975 473 
Q 1284 391 1588 391 
Q 1994 391 2212 530 
Q 2431 669 2431 922 
Q 2431 1156 2273 1281 
Q 2116 1406 1581 1522 
L 1381 1569 
Q 847 1681 609 1914 
Q 372 2147 372 2553 
Q 372 3047 722 3315 
Q 1072 3584 1716 3584 
Q 2034 3584 2315 3537 
Q 2597 3491 2834 3397 
z
" id="DejaVuSans-73" transform="scale(0.015625)"/>
       <path d="M 1947 4863 
L 1947 -844 
L 622 -844 
L 622 -397 
L 1369 -397 
L 1369 4416 
L 622 4416 
L 622 4863 
L 1947 4863 
z
" id="DejaVuSans-5d" transform="scale(0.015625)"/>
      </defs>
      <use xlink:href="#DejaVuSans-74"/>
      <use x="39.208984" xlink:href="#DejaVuSans-69"/>
      <use x="66.992188" xlink:href="#DejaVuSans-6d"/>
      <use x="164.404297" xlink:href="#DejaVuSans-65"/>
      <use x="225.927734" xlink:href="#DejaVuSans-20"/>
      <use x="257.714844" xlink:href="#DejaVuSans-5b"/>
      <use x="296.728516" xlink:href="#DejaVuSans-6d"/>
      <use x="394.140625" xlink:href="#DejaVuSans-73"/>
      <use x="446.240234" xlink:href="#DejaVuSans-5d"/>
     </g>
    </g>
   </g>
   <g id="matplotlib.axis_2">
    <g id="ytick_1">
     <g id="line2d_10">
      <defs>
       <path d="M 0 0 
L -3.5 0 
" id="mcc06f63af1" style="stroke:#000000;stroke-width:0.8;"/>
      </defs>
      <g>
       <use style="stroke:#000000;stroke-width:0.8;" x="57.6" xlink:href="#mcc06f63af1" y="272.366869"/>
      </g>
     </g>
     <g id="text_11">
      <!-- $\mathdefault{0}$ -->
      <g transform="translate(44.2 276.166088)scale(0.1 -0.1)">
       <use transform="translate(0 0.78125)" xlink:href="#DejaVuSans-30"/>
      </g>
     </g>
    </g>
    <g id="ytick_2">
     <g id="line2d_11">
      <g>
       <use style="stroke:#000000;stroke-width:0.8;" x="57.6" xlink:href="#mcc06f63af1" y="215.189318"/>
      </g>
     </g>
     <g id="text_12">
      <!-- $\mathdefault{1}$ -->
      <g transform="translate(44.2 218.988536)scale(0.1 -0.1)">
       <defs>
        <path d="M 794 531 
L 1825 531 
L 1825 4091 
L 703 3866 
L 703 4441 
L 1819 4666 
L 2450 4666 
L 2450 531 
L 3481 531 
L 3481 0 
L 794 0 
L 794 531 
z
" id="DejaVuSans-31" transform="scale(0.015625)"/>
       </defs>
       <use transform="translate(0 0.09375)" xlink:href="#DejaVuSans-31"/>
      </g>
     </g>
    </g>
    <g id="ytick_3">
     <g id="line2d_12">
      <g>
       <use style="stroke:#000000;stroke-width:0.8;" x="57.6" xlink:href="#mcc06f63af1" y="158.011767"/>
      </g>
     </g>
     <g id="text_13">
      <!-- $\mathdefault{2}$ -->
      <g transform="translate(44.2 161.810985)scale(0.1 -0.1)">
       <use transform="translate(0 0.78125)" xlink:href="#DejaVuSans-32"/>
      </g>
     </g>
    </g>
    <g id="ytick_4">
     <g id="line2d_13">
      <g>
       <use style="stroke:#000000;stroke-width:0.8;" x="57.6" xlink:href="#mcc06f63af1" y="100.834215"/>
      </g>
     </g>
     <g id="text_14">
      <!-- $\mathdefault{3}$ -->
      <g transform="translate(44.2 104.633434)scale(0.1 -0.1)">
       <use transform="translate(0 0.78125)" xlink:href="#DejaVuSans-33"/>
      </g>
     </g>
    </g>
    <g id="ytick_5">
     <g id="line2d_14">
      <g>
       <use style="stroke:#000000;stroke-width:0.8;" x="57.6" xlink:href="#mcc06f63af1" y="43.656664"/>
      </g>
     </g>
     <g id="text_15">
      <!-- $\mathdefault{4}$ -->
      <g transform="translate(44.2 47.455883)scale(0.1 -0.1)">
       <use transform="translate(0 0.09375)" xlink:href="#DejaVuSans-34"/>
      </g>
     </g>
    </g>
    <g id="text_16">
     <!-- $\times\mathdefault{10^{−4}}\mathdefault{}$ -->
     <g transform="translate(57.6 38.472)scale(0.1 -0.1)">
      <defs>
       <path d="M 4488 3438 
L 3059 2003 
L 4488 575 
L 4116 197 
L 2681 1631 
L 1247 197 
L 878 575 
L 2303 2003 
L 878 3438 
L 1247 3816 
L 2681 2381 
L 4116 3816 
L 4488 3438 
z
" id="DejaVuSans-d7" transform="scale(0.015625)"/>
       <path d="M 678 2272 
L 4684 2272 
L 4684 1741 
L 678 1741 
L 678 2272 
z
" id="DejaVuSans-2212" transform="scale(0.015625)"/>
      </defs>
      <use transform="translate(0 0.684375)" xlink:href="#DejaVuSans-d7"/>
      <use transform="translate(83.789062 0.684375)" xlink:href="#DejaVuSans-31"/>
      <use transform="translate(147.412109 0.684375)" xlink:href="#DejaVuSans-30"/>
      <use transform="translate(211.992188 38.965625)scale(0.7)" xlink:href="#DejaVuSans-2212"/>
      <use transform="translate(270.644531 38.965625)scale(0.7)" xlink:href="#DejaVuSans-34"/>
     </g>
    </g>
   </g>
   <g id="line2d_15">
    <path clip-path="url(#pdb1a107e0e)" d="M 73.832727 219.286912 
L 73.913911 224.465627 
L 73.995095 294.008367 
L 74.076279 293.268551 
L 74.157463 205.970216 
L 74.238647 213.36838 
L 74.319831 294.008367 
L 74.401015 292.528735 
L 74.482199 194.50306 
L 74.563383 204.120675 
L 74.644567 293.268551 
L 74.725751 291.41901 
L 74.806934 184.885446 
L 74.888118 197.462326 
L 74.969302 292.898643 
L 75.050486 288.829653 
L 75.13167 177.857189 
L 75.212854 193.763244 
L 75.294038 293.268551 
L 75.375222 285.500479 
L 75.456406 173.048382 
L 75.53759 193.393336 
L 75.618774 293.268551 
L 75.699958 283.28103 
L 75.781142 172.678474 
L 75.862326 194.872969 
L 75.94351 293.638459 
L 76.024693 281.061581 
L 76.105877 176.007648 
L 76.187061 200.051684 
L 76.268245 294.008367 
L 76.349429 279.581949 
L 76.430613 183.775721 
L 76.511797 208.189665 
L 76.592981 294.008367 
L 76.674165 279.581949 
L 76.755349 194.872969 
L 76.836533 217.807279 
L 76.917717 294.008367 
L 76.998901 281.431489 
L 77.080085 208.559573 
L 77.161268 230.01425 
L 77.242452 294.008367 
L 77.323636 283.650939 
L 77.40482 226.315168 
L 77.486004 243.330946 
L 77.567188 294.378275 
L 77.648372 285.870388 
L 77.729556 244.44067 
L 77.81074 256.647641 
L 77.891924 294.008367 
L 77.973108 290.309286 
L 78.054292 262.196264 
L 78.135476 269.594428 
L 78.21666 294.378275 
L 78.297844 291.788918 
L 78.379027 278.842132 
L 78.460211 282.171306 
L 78.541395 294.378275 
L 78.622579 293.638459 
L 78.703763 289.569469 
L 78.784947 290.309286 
L 78.947315 293.638459 
L 79.109683 293.268551 
L 79.272051 294.008367 
L 79.434419 293.268551 
L 79.596786 294.378275 
L 79.759154 293.638459 
L 79.840338 293.638459 
L 80.08389 294.748184 
L 80.408626 293.638459 
L 80.48981 293.638459 
L 80.570994 293.268551 
L 80.733362 294.008367 
L 80.895729 293.268551 
L 80.976913 294.008367 
L 81.058097 293.268551 
L 81.220465 293.638459 
L 81.301649 293.638459 
L 81.464017 293.268551 
L 81.626385 294.008367 
L 81.788753 293.268551 
L 81.869937 293.638459 
L 82.032304 293.268551 
L 82.113488 293.638459 
L 82.275856 293.268551 
L 82.35704 294.378275 
L 82.438224 293.268551 
L 82.519408 293.638459 
L 82.681776 293.268551 
L 82.76296 294.008367 
L 82.925328 292.898643 
L 83.087696 293.638459 
L 83.250063 289.939377 
L 83.412431 293.638459 
L 83.574799 280.691673 
L 83.737167 293.268551 
L 83.899535 267.00507 
L 84.061903 293.268551 
L 84.224271 250.359202 
L 84.386638 293.638459 
L 84.549006 232.973516 
L 84.711374 293.268551 
L 84.873742 217.807279 
L 85.03611 293.638459 
L 85.198478 203.750766 
L 85.360846 293.638459 
L 85.523214 193.023427 
L 85.685581 292.898643 
L 85.847949 185.625263 
L 86.010317 293.638459 
L 86.172685 182.296088 
L 86.335053 293.268551 
L 86.497421 181.92618 
L 86.659789 294.008367 
L 86.740973 183.775721 
L 86.822156 185.255354 
L 86.984524 293.638459 
L 87.065708 188.21462 
L 87.146892 190.064162 
L 87.30926 293.638459 
L 87.390444 195.242877 
L 87.471628 197.462326 
L 87.633996 294.378275 
L 87.71518 204.490583 
L 87.796364 208.559573 
L 87.958732 293.638459 
L 88.039915 216.697554 
L 88.121099 220.026728 
L 88.202283 294.008367 
L 88.283467 293.268551 
L 88.364651 230.754067 
L 88.445835 233.713332 
L 88.527019 294.378275 
L 88.608203 293.268551 
L 88.689387 246.290211 
L 88.770571 247.399936 
L 88.932939 294.008367 
L 89.014123 261.826356 
L 89.095307 262.566172 
L 89.257674 294.378275 
L 89.420042 275.512959 
L 89.58241 293.638459 
L 89.744778 287.719928 
L 89.907146 294.008367 
L 89.98833 293.638459 
L 90.069514 292.528735 
L 90.150698 294.378275 
L 90.313066 293.638459 
L 90.394249 293.268551 
L 90.637801 294.008367 
L 90.881353 294.008367 
L 90.962537 294.378275 
L 91.043721 293.638459 
L 91.206089 294.008367 
L 91.368457 294.008367 
L 91.530825 293.638459 
L 91.612008 293.638459 
L 91.693192 294.008367 
L 91.774376 293.638459 
L 91.936744 294.008367 
L 92.099112 293.638459 
L 92.180296 294.378275 
L 92.423848 293.268551 
L 92.586216 293.638459 
L 92.6674 293.638459 
L 92.748584 294.008367 
L 92.829767 293.268551 
L 93.073319 294.008367 
L 93.235687 293.268551 
L 93.479239 294.008367 
L 93.560423 292.528735 
L 93.641607 293.268551 
L 93.722791 292.898643 
L 93.803975 293.638459 
L 93.966342 288.459745 
L 94.047526 293.638459 
L 94.12871 293.268551 
L 94.209894 278.842132 
L 94.291078 279.951857 
L 94.453446 293.638459 
L 94.53463 266.265254 
L 94.615814 267.374979 
L 94.778182 293.638459 
L 94.859366 251.468926 
L 94.94055 254.428192 
L 95.021734 293.638459 
L 95.102918 293.268551 
L 95.184101 236.30269 
L 95.265285 241.481405 
L 95.346469 293.638459 
L 95.427653 291.049102 
L 95.508837 221.506361 
L 95.590021 230.384158 
L 95.671205 293.268551 
L 95.752389 288.089837 
L 95.833573 205.970216 
L 95.914757 219.65682 
L 95.995941 293.268551 
L 96.077125 282.911122 
L 96.158309 191.913703 
L 96.239493 212.258656 
L 96.320677 293.268551 
L 96.40186 276.992591 
L 96.483044 178.966914 
L 96.564228 205.970216 
L 96.645412 293.638459 
L 96.726596 272.183785 
L 96.80778 171.198841 
L 96.888964 204.120675 
L 96.970148 294.008367 
L 97.051332 267.374979 
L 97.132516 166.390033 
L 97.294884 293.268551 
L 97.376068 264.045805 
L 97.457252 166.390033 
L 97.619619 294.008367 
L 97.700803 261.456447 
L 97.781987 170.828932 
L 97.944355 293.638459 
L 98.025539 261.086539 
L 98.106723 178.597006 
L 98.269091 293.638459 
L 98.350275 262.93608 
L 98.431459 191.543794 
L 98.593827 294.008367 
L 98.675011 266.265254 
L 98.756195 207.449849 
L 98.918562 294.378275 
L 98.999746 271.07406 
L 99.08093 225.205443 
L 99.243298 294.378275 
L 99.324482 276.622683 
L 99.405666 245.180487 
L 99.568034 294.378275 
L 99.649218 282.541214 
L 99.730402 264.045805 
L 99.89277 293.638459 
L 99.973953 288.829653 
L 100.055137 280.321765 
L 100.217505 293.638459 
L 100.298689 292.158826 
L 100.379873 290.679194 
L 100.542241 293.638459 
L 100.704609 293.638459 
L 100.866977 294.008367 
L 100.948161 293.638459 
L 101.110529 294.008367 
L 101.191712 294.008367 
L 101.272896 293.268551 
L 101.516448 294.378275 
L 101.597632 293.638459 
L 101.678816 294.378275 
L 101.76 294.008367 
L 101.841184 294.378275 
L 102.003552 293.638459 
L 102.084736 294.378275 
L 102.247104 293.638459 
L 102.328288 294.008367 
L 102.409471 293.268551 
L 102.571839 294.008367 
L 102.653023 293.638459 
L 102.734207 294.008367 
L 102.815391 293.638459 
L 102.896575 294.008367 
L 102.977759 293.268551 
L 103.058943 294.378275 
L 103.221311 293.638459 
L 103.383679 293.638459 
L 103.464863 294.008367 
L 103.708414 293.268551 
L 103.789598 293.268551 
L 103.951966 293.638459 
L 104.03315 292.898643 
L 104.114334 294.008367 
L 104.195518 293.638459 
L 104.357886 293.638459 
L 104.601438 292.898643 
L 104.682622 294.378275 
L 104.763805 293.638459 
L 104.926173 287.719928 
L 105.088541 293.638459 
L 105.250909 276.992591 
L 105.332093 293.638459 
L 105.413277 292.898643 
L 105.575645 263.305988 
L 105.738013 293.638459 
L 105.900381 248.139752 
L 106.062748 293.638459 
L 106.143932 232.2337 
L 106.225116 232.603608 
L 106.387484 293.638459 
L 106.468668 216.697554 
L 106.549852 218.547095 
L 106.71222 293.638459 
L 106.793404 203.750766 
L 106.874588 205.970216 
L 107.036956 293.638459 
L 107.11814 193.023427 
L 107.199323 195.982693 
L 107.280507 293.638459 
L 107.361691 293.268551 
L 107.442875 183.405813 
L 107.524059 188.21462 
L 107.686427 293.638459 
L 107.767611 178.597006 
L 107.848795 183.405813 
L 107.929979 294.008367 
L 108.011163 293.268551 
L 108.092347 176.747465 
L 108.173531 182.296088 
L 108.335899 294.008367 
L 108.417082 177.487281 
L 108.498266 183.775721 
L 108.57945 294.008367 
L 108.660634 293.638459 
L 108.741818 182.665997 
L 108.823002 189.324345 
L 108.98537 294.008367 
L 109.066554 190.43407 
L 109.147738 195.982693 
L 109.310106 294.008367 
L 109.39129 201.901225 
L 109.472474 207.07994 
L 109.634841 294.008367 
L 109.716025 215.217921 
L 109.797209 218.177187 
L 109.878393 294.748184 
L 109.959577 294.378275 
L 110.040761 229.644342 
L 110.121945 233.713332 
L 110.203129 294.008367 
L 110.284313 293.638459 
L 110.365497 245.920303 
L 110.446681 248.509661 
L 110.527865 294.008367 
L 110.609049 293.638459 
L 110.690233 262.196264 
L 110.771416 263.305988 
L 110.933784 294.378275 
L 111.096152 276.992591 
L 111.177336 294.748184 
L 111.25852 293.638459 
L 111.420888 288.089837 
L 111.583256 294.378275 
L 111.745624 292.898643 
L 111.907992 294.378275 
L 112.151543 293.638459 
L 112.313911 294.008367 
L 112.395095 293.638459 
L 112.557463 294.378275 
L 112.719831 293.638459 
L 112.801015 293.638459 
L 112.882199 294.378275 
L 112.963383 294.008367 
L 113.044567 294.378275 
L 113.206934 293.638459 
L 113.288118 293.638459 
L 113.369302 294.008367 
L 113.450486 293.638459 
L 113.53167 294.008367 
L 113.612854 293.638459 
L 113.694038 294.008367 
L 113.856406 293.638459 
L 113.93759 293.638459 
L 114.018774 293.268551 
L 114.181142 293.638459 
L 114.424693 293.638459 
L 114.505877 294.008367 
L 114.668245 293.268551 
L 114.830613 293.268551 
L 114.992981 293.638459 
L 115.155349 293.268551 
L 115.236533 293.268551 
L 115.317717 292.898643 
L 115.480085 293.268551 
L 115.642452 289.569469 
L 115.80482 293.268551 
L 115.886004 281.061581 
L 115.967188 281.431489 
L 116.129556 293.268551 
L 116.21074 269.594428 
L 116.291924 270.334244 
L 116.373108 294.008367 
L 116.454292 292.158826 
L 116.535476 254.428192 
L 116.61666 258.86709 
L 116.697844 293.638459 
L 116.779027 288.089837 
L 116.860211 237.042506 
L 116.941395 247.769844 
L 117.022579 293.638459 
L 117.103763 281.801398 
L 117.184947 218.547095 
L 117.266131 237.042506 
L 117.347315 293.268551 
L 117.428499 273.663418 
L 117.509683 201.531317 
L 117.672051 293.268551 
L 117.753235 265.895346 
L 117.834419 186.365079 
L 117.996786 293.268551 
L 118.07797 258.127274 
L 118.159154 174.528015 
L 118.321522 294.008367 
L 118.402706 251.838834 
L 118.48389 165.650217 
L 118.646258 293.638459 
L 118.808626 162.321042 
L 118.970994 293.638459 
L 119.133362 162.690951 
L 119.295729 293.638459 
L 119.458097 168.239575 
L 119.620465 294.008367 
L 119.782833 177.487281 
L 119.945201 294.378275 
L 120.107569 191.543794 
L 120.269937 294.378275 
L 120.432304 208.189665 
L 120.594672 294.748184 
L 120.75704 227.054985 
L 120.919408 294.008367 
L 121.081776 246.290211 
L 121.244144 294.378275 
L 121.406512 265.155529 
L 121.568879 294.378275 
L 121.731247 281.061581 
L 121.893615 294.378275 
L 122.055983 290.309286 
L 122.137167 294.748184 
L 122.218351 294.378275 
L 122.380719 293.268551 
L 122.543087 294.378275 
L 122.624271 294.378275 
L 122.786638 293.638459 
L 122.867822 293.638459 
L 122.949006 294.378275 
L 123.111374 294.008367 
L 123.192558 294.378275 
L 123.354926 294.008367 
L 123.43611 294.748184 
L 123.679662 293.638459 
L 123.84203 294.008367 
L 123.923214 293.638459 
L 124.166765 294.378275 
L 124.247949 293.638459 
L 124.329133 294.378275 
L 124.572685 293.638459 
L 124.653869 294.378275 
L 124.735053 293.268551 
L 124.816237 293.638459 
L 124.897421 294.748184 
L 124.978605 293.638459 
L 125.059789 294.008367 
L 125.222156 294.008367 
L 125.30334 293.638459 
L 125.465708 294.378275 
L 125.628076 293.268551 
L 125.70926 294.008367 
L 125.790444 293.268551 
L 125.871628 293.638459 
L 125.952812 293.268551 
L 126.11518 293.638459 
L 126.196364 292.158826 
L 126.439915 293.638459 
L 126.602283 284.760663 
L 126.764651 294.008367 
L 126.927019 273.293509 
L 127.089387 293.638459 
L 127.170571 257.757366 
L 127.251755 258.497182 
L 127.332939 293.638459 
L 127.414123 293.268551 
L 127.495307 241.851313 
L 127.57649 243.700854 
L 127.738858 293.638459 
L 127.820042 225.575352 
L 127.901226 229.274434 
L 127.98241 294.008367 
L 128.063594 293.638459 
L 128.144778 210.779023 
L 128.225962 214.108197 
L 128.38833 293.638459 
L 128.469514 196.72251 
L 128.550698 201.901225 
L 128.631882 294.008367 
L 128.713066 292.898643 
L 128.794249 186.365079 
L 128.875433 192.653519 
L 129.037801 294.008367 
L 129.118985 177.857189 
L 129.200169 185.625263 
L 129.362537 294.008367 
L 129.443721 174.158107 
L 129.524905 180.446547 
L 129.606089 294.008367 
L 129.687273 293.638459 
L 129.768457 172.678474 
L 129.849641 180.076639 
L 130.012008 294.378275 
L 130.093192 174.897923 
L 130.174376 183.405813 
L 130.25556 294.008367 
L 130.336744 293.638459 
L 130.417928 180.816455 
L 130.499112 188.584529 
L 130.66148 294.378275 
L 130.742664 189.694253 
L 130.823848 197.092418 
L 130.905032 294.378275 
L 130.986216 294.008367 
L 131.0674 201.901225 
L 131.148584 207.819757 
L 131.310951 294.008367 
L 131.392135 215.957738 
L 131.473319 221.136453 
L 131.554503 294.378275 
L 131.635687 294.008367 
L 131.716871 231.123975 
L 131.798055 235.562873 
L 131.879239 294.378275 
L 131.960423 294.008367 
L 132.041607 248.139752 
L 132.122791 251.099018 
L 132.285159 294.008367 
L 132.366342 263.305988 
L 132.447526 265.525438 
L 132.52871 294.378275 
L 132.609894 293.638459 
L 132.691078 278.472224 
L 132.772262 279.21204 
L 132.93463 294.378275 
L 133.096998 288.829653 
L 133.259366 294.378275 
L 133.34055 292.898643 
L 133.584101 294.748184 
L 133.665285 293.638459 
L 133.746469 294.008367 
L 133.827653 294.008367 
L 133.908837 294.378275 
L 134.071205 294.008367 
L 134.152389 294.008367 
L 134.395941 293.268551 
L 134.558309 293.638459 
L 134.639493 293.638459 
L 134.80186 294.378275 
L 134.964228 293.638459 
L 135.126596 294.008367 
L 135.20778 293.638459 
L 135.288964 294.378275 
L 135.451332 294.008367 
L 135.532516 294.378275 
L 135.6137 293.638459 
L 135.776068 294.008367 
L 136.019619 293.268551 
L 136.181987 294.008367 
L 136.344355 293.268551 
L 136.587907 294.008367 
L 136.669091 294.008367 
L 136.750275 293.268551 
L 136.831459 293.638459 
L 136.912643 292.528735 
L 137.156195 294.008367 
L 137.237378 290.309286 
L 137.318562 291.049102 
L 137.48093 293.268551 
L 137.562114 283.650939 
L 137.643298 284.760663 
L 137.724482 294.378275 
L 137.805666 291.41901 
L 137.88685 270.704152 
L 137.968034 274.773142 
L 138.049218 293.638459 
L 138.130402 286.610204 
L 138.211586 254.428192 
L 138.29277 265.525438 
L 138.373953 293.268551 
L 138.455137 277.362499 
L 138.536321 235.192965 
L 138.698689 293.638459 
L 138.861057 215.58783 
L 138.942241 248.139752 
L 139.023425 293.638459 
L 139.185793 198.572051 
L 139.348161 293.638459 
L 139.510529 183.405813 
L 139.672896 294.378275 
L 139.835264 171.938657 
L 139.997632 294.008367 
L 140.16 164.9104 
L 140.322368 294.008367 
L 140.484736 162.321042 
L 140.647104 294.008367 
L 140.809471 164.540492 
L 140.971839 294.008367 
L 141.134207 170.459024 
L 141.296575 294.008367 
L 141.458943 180.816455 
L 141.621311 294.378275 
L 141.783679 195.242877 
L 141.946047 294.748184 
L 142.108414 212.258656 
L 142.270782 294.378275 
L 142.43315 230.384158 
L 142.595518 294.008367 
L 142.757886 249.989293 
L 142.920254 294.378275 
L 143.082622 266.265254 
L 143.244989 294.748184 
L 143.407357 279.21204 
L 143.569725 294.378275 
L 143.732093 288.459745 
L 143.813277 294.748184 
L 143.894461 294.378275 
L 143.975645 292.898643 
L 144.138013 294.378275 
L 144.300381 294.008367 
L 144.381564 294.378275 
L 144.462748 293.638459 
L 144.543932 295.118092 
L 144.7063 294.008367 
L 144.868668 294.378275 
L 145.031036 294.378275 
L 145.193404 293.638459 
L 145.274588 294.008367 
L 145.355772 293.638459 
L 145.436956 294.008367 
L 145.599323 293.638459 
L 145.761691 294.008367 
L 145.924059 294.008367 
L 146.086427 294.378275 
L 146.248795 293.638459 
L 146.329979 294.008367 
L 146.411163 293.268551 
L 146.573531 294.378275 
L 146.735899 293.638459 
L 146.898266 293.638459 
L 146.97945 293.268551 
L 147.141818 294.008367 
L 147.223002 294.008367 
L 147.304186 293.638459 
L 147.38537 294.008367 
L 147.466554 293.268551 
L 147.710106 294.008367 
L 147.953658 291.41901 
L 148.034841 293.638459 
L 148.116025 293.268551 
L 148.278393 282.541214 
L 148.440761 293.268551 
L 148.603129 269.594428 
L 148.684313 294.008367 
L 148.765497 292.898643 
L 148.846681 254.058284 
L 148.927865 255.168008 
L 149.090233 293.638459 
L 149.171416 237.042506 
L 149.2526 239.631864 
L 149.333784 293.638459 
L 149.414968 292.898643 
L 149.496152 221.506361 
L 149.577336 225.205443 
L 149.739704 293.638459 
L 149.820888 206.340124 
L 149.902072 211.888747 
L 150.06444 294.008367 
L 150.145624 193.763244 
L 150.226808 200.7915 
L 150.307992 294.008367 
L 150.389175 293.638459 
L 150.470359 183.775721 
L 150.551543 191.173886 
L 150.632727 294.378275 
L 150.713911 293.638459 
L 150.795095 176.747465 
L 150.876279 185.625263 
L 151.038647 293.638459 
L 151.119831 172.678474 
L 151.201015 181.92618 
L 151.363383 294.008367 
L 151.444567 173.41829 
L 151.525751 182.296088 
L 151.688118 294.008367 
L 151.769302 176.747465 
L 151.850486 185.255354 
L 151.93167 294.378275 
L 152.012854 293.638459 
L 152.094038 183.405813 
L 152.175222 191.913703 
L 152.33759 294.008367 
L 152.418774 192.653519 
L 152.499958 201.161409 
L 152.581142 294.378275 
L 152.662326 294.008367 
L 152.74351 205.970216 
L 152.824693 212.998472 
L 152.987061 294.378275 
L 153.068245 220.766545 
L 153.149429 225.575352 
L 153.311797 294.378275 
L 153.392981 235.932782 
L 153.474165 240.001772 
L 153.555349 294.378275 
L 153.636533 294.008367 
L 153.717717 252.578651 
L 153.798901 255.168008 
L 153.961268 294.748184 
L 154.042452 268.484703 
L 154.123636 269.594428 
L 154.286004 294.378275 
L 154.367188 282.171306 
L 154.448372 282.911122 
L 154.61074 294.378275 
L 154.773108 291.41901 
L 154.854292 294.748184 
L 154.935476 294.008367 
L 155.097844 294.008367 
L 155.260211 294.378275 
L 155.341395 294.008367 
L 155.422579 294.748184 
L 155.503763 294.008367 
L 155.584947 294.748184 
L 155.828499 294.008367 
L 155.909683 294.008367 
L 156.072051 294.378275 
L 156.315603 294.378275 
L 156.396786 294.008367 
L 156.559154 294.378275 
L 156.721522 293.638459 
L 156.88389 294.008367 
L 156.965074 294.008367 
L 157.046258 294.378275 
L 157.127442 293.638459 
L 157.370994 294.378275 
L 157.533362 294.378275 
L 157.776913 293.638459 
L 157.939281 294.378275 
L 158.020465 293.268551 
L 158.182833 294.378275 
L 158.264017 294.378275 
L 158.426385 293.638459 
L 158.507569 294.748184 
L 158.669937 293.638459 
L 158.832304 294.008367 
L 158.994672 292.158826 
L 159.075856 293.638459 
L 159.15704 292.528735 
L 159.238224 285.500479 
L 159.319408 288.089837 
L 159.400592 294.008367 
L 159.56296 272.553693 
L 159.725328 293.638459 
L 159.887696 253.318467 
L 160.050063 293.638459 
L 160.212431 234.083241 
L 160.374799 293.638459 
L 160.537167 215.58783 
L 160.699535 294.008367 
L 160.861903 198.572051 
L 161.024271 294.008367 
L 161.186638 184.885446 
L 161.349006 294.008367 
L 161.511374 174.528015 
L 161.673742 294.378275 
L 161.83611 168.239575 
L 161.998478 294.378275 
L 162.160846 166.759942 
L 162.323214 294.008367 
L 162.485581 169.719208 
L 162.647949 294.008367 
L 162.810317 176.377556 
L 162.972685 294.378275 
L 163.135053 187.474804 
L 163.297421 293.268551 
L 163.459789 201.161409 
L 163.622156 294.378275 
L 163.784524 217.437371 
L 163.946892 294.378275 
L 164.10926 234.823057 
L 164.271628 294.008367 
L 164.433996 250.359202 
L 164.596364 294.748184 
L 164.758732 264.045805 
L 164.921099 294.378275 
L 165.083467 276.622683 
L 165.164651 294.748184 
L 165.245835 294.378275 
L 165.408203 286.240296 
L 165.489387 294.748184 
L 165.570571 294.378275 
L 165.732939 292.898643 
L 165.814123 294.378275 
L 165.895307 294.008367 
L 165.97649 294.748184 
L 166.138858 294.008367 
L 166.220042 294.748184 
L 166.463594 294.008367 
L 166.625962 294.008367 
L 166.707146 294.748184 
L 166.869514 294.008367 
L 166.950698 294.008367 
L 167.031882 294.378275 
L 167.194249 294.008367 
L 167.275433 294.008367 
L 167.356617 293.638459 
L 167.600169 294.378275 
L 167.681353 294.378275 
L 167.843721 294.008367 
L 167.924905 294.008367 
L 168.006089 294.378275 
L 168.087273 294.008367 
L 168.168457 294.748184 
L 168.330825 293.638459 
L 168.412008 294.378275 
L 168.493192 293.638459 
L 168.574376 294.378275 
L 168.736744 294.008367 
L 168.980296 294.008367 
L 169.06148 294.378275 
L 169.305032 293.268551 
L 169.4674 294.008367 
L 169.629767 290.679194 
L 169.792135 294.008367 
L 169.954503 281.801398 
L 170.116871 294.008367 
L 170.198055 267.744887 
L 170.279239 268.484703 
L 170.441607 294.008367 
L 170.522791 252.208743 
L 170.603975 253.318467 
L 170.685159 294.008367 
L 170.766342 293.638459 
L 170.847526 234.823057 
L 170.92871 238.892047 
L 171.091078 293.638459 
L 171.172262 220.396637 
L 171.253446 225.575352 
L 171.415814 293.638459 
L 171.496998 206.340124 
L 171.578182 212.628564 
L 171.74055 294.008367 
L 171.821734 194.133152 
L 171.902918 201.901225 
L 172.065285 294.008367 
L 172.146469 185.625263 
L 172.227653 194.133152 
L 172.390021 294.378275 
L 172.471205 178.966914 
L 172.552389 188.954437 
L 172.633573 294.378275 
L 172.714757 294.008367 
L 172.795941 175.63774 
L 172.877125 186.365079 
L 172.958309 294.008367 
L 173.039493 292.898643 
L 173.120677 176.747465 
L 173.20186 187.844712 
L 173.283044 294.008367 
L 173.364228 292.158826 
L 173.445412 180.076639 
L 173.526596 191.913703 
L 173.60778 294.378275 
L 173.688964 291.41901 
L 173.770148 186.365079 
L 173.851332 198.941959 
L 173.932516 294.748184 
L 174.0137 291.049102 
L 174.094884 195.982693 
L 174.176068 208.929482 
L 174.257252 294.748184 
L 174.338436 291.41901 
L 174.419619 208.929482 
L 174.500803 220.026728 
L 174.581987 294.378275 
L 174.663171 291.788918 
L 174.744355 224.095719 
L 174.825539 233.343424 
L 174.906723 294.378275 
L 174.987907 292.898643 
L 175.069091 241.111497 
L 175.150275 247.769844 
L 175.231459 294.748184 
L 175.312643 293.268551 
L 175.393827 258.127274 
L 175.475011 261.456447 
L 175.556195 294.748184 
L 175.637378 293.638459 
L 175.718562 273.663418 
L 175.799746 275.882867 
L 175.88093 294.378275 
L 175.962114 294.008367 
L 176.043298 285.870388 
L 176.124482 286.610204 
L 176.28685 294.748184 
L 176.449218 293.268551 
L 176.611586 294.748184 
L 176.855137 294.008367 
L 176.936321 294.748184 
L 177.017505 294.008367 
L 177.098689 294.378275 
L 177.179873 294.008367 
L 177.342241 294.378275 
L 177.504609 294.008367 
L 177.666977 295.118092 
L 177.829345 293.638459 
L 177.991712 294.378275 
L 178.072896 294.378275 
L 178.15408 294.008367 
L 178.235264 294.748184 
L 178.397632 293.638459 
L 178.56 294.748184 
L 178.641184 293.638459 
L 178.722368 294.008367 
L 178.884736 294.008367 
L 178.96592 294.378275 
L 179.047104 293.638459 
L 179.209471 294.748184 
L 179.371839 293.638459 
L 179.534207 294.748184 
L 179.696575 293.638459 
L 179.858943 294.378275 
L 180.021311 294.008367 
L 180.183679 294.008367 
L 180.264863 293.638459 
L 180.42723 294.008367 
L 180.589598 292.528735 
L 180.751966 293.638459 
L 180.914334 285.130571 
L 181.076702 293.638459 
L 181.23907 270.704152 
L 181.401438 293.268551 
L 181.563805 253.688375 
L 181.726173 293.268551 
L 181.888541 234.453149 
L 182.050909 293.638459 
L 182.213277 217.067463 
L 182.375645 294.008367 
L 182.538013 201.901225 
L 182.700381 294.378275 
L 182.862748 189.324345 
L 183.025116 293.638459 
L 183.187484 180.076639 
L 183.349852 293.638459 
L 183.51222 175.63774 
L 183.674588 294.378275 
L 183.836956 175.267832 
L 183.999323 293.638459 
L 184.161691 178.597006 
L 184.324059 294.748184 
L 184.486427 185.255354 
L 184.648795 294.008367 
L 184.811163 195.242877 
L 184.973531 294.008367 
L 185.135899 207.819757 
L 185.298266 294.748184 
L 185.37945 219.65682 
L 185.460634 220.766545 
L 185.623002 294.748184 
L 185.704186 232.2337 
L 185.78537 233.343424 
L 185.947738 294.378275 
L 186.028922 246.290211 
L 186.110106 248.139752 
L 186.19129 294.748184 
L 186.272474 294.008367 
L 186.353658 260.346723 
L 186.434841 261.456447 
L 186.597209 294.378275 
L 186.759577 274.773142 
L 186.921945 294.748184 
L 187.084313 286.240296 
L 187.165497 294.748184 
L 187.246681 294.008367 
L 187.409049 292.528735 
L 187.571416 294.378275 
L 187.733784 294.378275 
L 187.814968 294.008367 
L 187.977336 294.378275 
L 188.139704 294.008367 
L 188.302072 294.378275 
L 188.46444 294.008367 
L 188.545624 294.748184 
L 188.626808 293.638459 
L 188.707992 294.748184 
L 188.789175 294.378275 
L 189.032727 294.378275 
L 189.195095 294.008367 
L 189.438647 294.008367 
L 189.519831 295.118092 
L 189.601015 294.008367 
L 189.682199 294.378275 
L 189.763383 294.008367 
L 189.925751 294.378275 
L 190.006934 293.638459 
L 190.169302 294.748184 
L 190.250486 294.378275 
L 190.33167 293.638459 
L 190.494038 294.378275 
L 190.73759 293.638459 
L 190.818774 294.378275 
L 190.899958 294.008367 
L 190.981142 294.378275 
L 191.14351 293.638459 
L 191.305877 290.309286 
L 191.468245 294.378275 
L 191.630613 281.431489 
L 191.792981 294.378275 
L 191.874165 267.744887 
L 191.955349 268.114795 
L 192.117717 294.008367 
L 192.198901 251.838834 
L 192.280085 254.428192 
L 192.361268 294.008367 
L 192.442452 293.638459 
L 192.523636 236.672598 
L 192.60482 240.741588 
L 192.767188 294.008367 
L 192.848372 221.876269 
L 192.929556 228.164709 
L 193.091924 294.008367 
L 193.173108 208.929482 
L 193.254292 215.957738 
L 193.335476 294.378275 
L 193.41666 292.528735 
L 193.497844 196.72251 
L 193.579027 206.710032 
L 193.660211 293.638459 
L 193.741395 290.679194 
L 193.822579 186.365079 
L 193.903763 199.681776 
L 193.984947 293.638459 
L 194.066131 287.35002 
L 194.147315 178.227098 
L 194.228499 195.982693 
L 194.309683 293.638459 
L 194.390867 284.390755 
L 194.472051 173.048382 
L 194.553235 194.872969 
L 194.634419 294.008367 
L 194.715603 281.061581 
L 194.796786 172.678474 
L 194.87797 196.72251 
L 194.959154 294.008367 
L 195.040338 279.21204 
L 195.121522 175.267832 
L 195.202706 201.531317 
L 195.28389 294.378275 
L 195.365074 276.992591 
L 195.446258 181.556272 
L 195.527442 208.559573 
L 195.608626 294.378275 
L 195.68981 278.102316 
L 195.770994 192.653519 
L 195.852178 218.547095 
L 195.933362 294.008367 
L 196.014545 279.21204 
L 196.095729 206.710032 
L 196.176913 230.01425 
L 196.258097 295.118092 
L 196.339281 281.801398 
L 196.420465 224.095719 
L 196.501649 242.961038 
L 196.582833 294.378275 
L 196.664017 285.500479 
L 196.745201 241.851313 
L 196.826385 255.907825 
L 196.907569 294.008367 
L 196.988753 288.459745 
L 197.069937 260.716631 
L 197.151121 269.224519 
L 197.232304 294.748184 
L 197.313488 291.788918 
L 197.394672 277.362499 
L 197.475856 281.431489 
L 197.55704 294.378275 
L 197.638224 293.638459 
L 197.719408 288.829653 
L 197.800592 290.309286 
L 197.881776 294.748184 
L 197.96296 294.008367 
L 198.044144 293.268551 
L 198.287696 294.748184 
L 198.368879 294.378275 
L 198.531247 294.378275 
L 198.693615 294.008367 
L 198.774799 294.378275 
L 198.855983 294.008367 
L 199.018351 294.748184 
L 199.261903 293.638459 
L 199.424271 294.378275 
L 199.667822 293.638459 
L 199.749006 293.638459 
L 199.911374 294.008367 
L 200.073742 294.008367 
L 200.154926 293.638459 
L 200.23611 294.748184 
L 200.317294 294.008367 
L 200.398478 294.378275 
L 200.479662 294.008367 
L 200.560846 294.378275 
L 200.723214 293.638459 
L 200.804397 294.378275 
L 201.047949 293.638459 
L 201.129133 293.638459 
L 201.291501 294.008367 
L 201.372685 294.008367 
L 201.535053 293.268551 
L 201.616237 294.748184 
L 201.697421 294.378275 
L 201.940973 293.268551 
L 202.10334 294.378275 
L 202.265708 291.788918 
L 202.428076 294.008367 
L 202.590444 282.541214 
L 202.752812 294.008367 
L 202.91518 269.224519 
L 203.077548 293.638459 
L 203.239915 252.948559 
L 203.402283 293.268551 
L 203.564651 237.412414 
L 203.727019 294.008367 
L 203.889387 221.136453 
L 204.051755 294.378275 
L 204.214123 207.449849 
L 204.37649 293.638459 
L 204.538858 195.612785 
L 204.701226 294.008367 
L 204.863594 188.21462 
L 205.025962 294.378275 
L 205.18833 184.515538 
L 205.350698 294.378275 
L 205.513066 183.035905 
L 205.675433 294.008367 
L 205.756617 183.775721 
L 205.837801 184.885446 
L 206.000169 294.748184 
L 206.081353 186.365079 
L 206.162537 190.43407 
L 206.324905 294.008367 
L 206.406089 193.393336 
L 206.487273 197.462326 
L 206.568457 294.378275 
L 206.649641 294.008367 
L 206.730825 202.271133 
L 206.812008 206.710032 
L 206.893192 294.748184 
L 206.974376 294.378275 
L 207.05556 214.848013 
L 207.136744 218.177187 
L 207.217928 294.748184 
L 207.299112 294.378275 
L 207.380296 228.904526 
L 207.46148 231.863791 
L 207.623848 294.748184 
L 207.705032 244.070762 
L 207.786216 246.66012 
L 207.948584 294.378275 
L 208.029767 259.976815 
L 208.110951 260.716631 
L 208.273319 294.378275 
L 208.435687 274.403234 
L 208.598055 294.748184 
L 208.679239 286.240296 
L 208.760423 286.610204 
L 208.922791 294.748184 
L 209.003975 292.898643 
L 209.085159 293.268551 
L 209.247526 294.378275 
L 209.32871 294.008367 
L 209.409894 294.378275 
L 209.491078 294.008367 
L 209.73463 294.748184 
L 209.896998 294.008367 
L 209.978182 294.748184 
L 210.059366 294.378275 
L 210.14055 294.748184 
L 210.302918 294.378275 
L 210.384101 294.378275 
L 210.465285 293.638459 
L 210.627653 294.378275 
L 210.871205 293.638459 
L 211.033573 294.378275 
L 211.114757 293.638459 
L 211.195941 294.378275 
L 211.277125 293.638459 
L 211.358309 294.378275 
L 211.520677 293.638459 
L 211.683044 294.008367 
L 211.764228 294.008367 
L 211.845412 293.638459 
L 212.00778 294.378275 
L 212.088964 293.638459 
L 212.251332 294.008367 
L 212.332516 293.638459 
L 212.4137 294.378275 
L 212.657252 293.638459 
L 212.738436 293.638459 
L 212.819619 293.268551 
L 212.981987 290.309286 
L 213.144355 293.638459 
L 213.225539 281.061581 
L 213.306723 281.801398 
L 213.469091 294.008367 
L 213.550275 268.484703 
L 213.631459 269.594428 
L 213.793827 294.748184 
L 213.875011 254.428192 
L 213.956195 257.387457 
L 214.037378 294.008367 
L 214.118562 293.268551 
L 214.199746 238.892047 
L 214.28093 244.810579 
L 214.362114 293.638459 
L 214.443298 291.049102 
L 214.524482 223.725811 
L 214.605666 232.603608 
L 214.68685 293.638459 
L 214.768034 286.980112 
L 214.849218 207.449849 
L 214.930402 222.246178 
L 215.011586 293.268551 
L 215.09277 281.801398 
L 215.173953 193.023427 
L 215.255137 214.848013 
L 215.336321 294.008367 
L 215.417505 276.622683 
L 215.498689 180.816455 
L 215.579873 208.929482 
L 215.661057 294.008367 
L 215.742241 270.334244 
L 215.823425 171.198841 
L 215.904609 206.340124 
L 215.985793 293.638459 
L 216.066977 265.525438 
L 216.148161 166.759942 
L 216.310529 294.378275 
L 216.391712 261.826356 
L 216.472896 165.280309 
L 216.635264 294.008367 
L 216.716448 259.606907 
L 216.797632 168.979391 
L 216.96 294.008367 
L 217.041184 259.236998 
L 217.122368 177.487281 
L 217.284736 294.378275 
L 217.36592 260.716631 
L 217.447104 189.324345 
L 217.609471 294.378275 
L 217.690655 264.045805 
L 217.771839 205.230399 
L 217.934207 294.378275 
L 218.015391 268.484703 
L 218.096575 222.985994 
L 218.258943 294.378275 
L 218.421311 242.221221 
L 218.583679 294.748184 
L 218.746047 262.196264 
L 218.908414 294.378275 
L 218.989598 287.719928 
L 219.070782 279.21204 
L 219.23315 294.008367 
L 219.395518 291.049102 
L 219.557886 294.008367 
L 219.720254 294.008367 
L 219.882622 294.748184 
L 220.044989 294.378275 
L 220.207357 294.378275 
L 220.288541 294.008367 
L 220.532093 294.748184 
L 220.613277 294.378275 
L 220.775645 294.748184 
L 221.019197 294.008367 
L 221.100381 294.378275 
L 221.181564 294.008367 
L 221.262748 294.378275 
L 221.343932 294.008367 
L 221.425116 294.748184 
L 221.587484 294.008367 
L 221.749852 294.748184 
L 221.91222 294.008367 
L 222.074588 294.378275 
L 222.155772 294.008367 
L 222.236956 294.748184 
L 222.31814 294.008367 
L 222.480507 294.748184 
L 222.561691 294.008367 
L 222.724059 294.378275 
L 222.805243 294.378275 
L 222.886427 293.268551 
L 222.967611 293.638459 
L 223.211163 294.748184 
L 223.292347 293.638459 
L 223.373531 294.008367 
L 223.535899 293.268551 
L 223.77945 294.008367 
L 223.941818 289.199561 
L 224.104186 294.378275 
L 224.266554 278.472224 
L 224.347738 294.008367 
L 224.428922 293.638459 
L 224.59129 264.415713 
L 224.672474 294.378275 
L 224.753658 293.638459 
L 224.834841 249.249477 
L 224.916025 249.989293 
L 225.078393 293.638459 
L 225.159577 234.453149 
L 225.240761 234.823057 
L 225.403129 294.008367 
L 225.484313 218.177187 
L 225.565497 220.396637 
L 225.727865 293.638459 
L 225.809049 204.860491 
L 225.890233 208.189665 
L 226.0526 293.638459 
L 226.133784 193.023427 
L 226.214968 197.462326 
L 226.377336 293.638459 
L 226.45852 184.14563 
L 226.539704 188.954437 
L 226.702072 294.008367 
L 226.783256 178.597006 
L 226.86444 184.14563 
L 226.945624 294.008367 
L 227.026808 293.638459 
L 227.107992 176.007648 
L 227.189175 182.296088 
L 227.351543 294.378275 
L 227.432727 177.487281 
L 227.513911 183.405813 
L 227.676279 294.748184 
L 227.757463 180.816455 
L 227.838647 188.21462 
L 227.919831 294.378275 
L 228.001015 294.008367 
L 228.082199 188.954437 
L 228.163383 195.612785 
L 228.325751 294.378275 
L 228.406934 199.681776 
L 228.488118 205.230399 
L 228.650486 294.378275 
L 228.73167 212.998472 
L 228.812854 217.067463 
L 228.894038 294.378275 
L 228.975222 294.008367 
L 229.056406 227.794801 
L 229.13759 231.493883 
L 229.299958 294.748184 
L 229.381142 244.44067 
L 229.462326 246.66012 
L 229.54351 295.118092 
L 229.624693 294.008367 
L 229.705877 260.716631 
L 229.787061 261.826356 
L 229.868245 294.748184 
L 229.949429 294.378275 
L 230.030613 275.512959 
L 230.111797 275.882867 
L 230.274165 294.748184 
L 230.436533 286.980112 
L 230.598901 294.748184 
L 230.761268 293.268551 
L 230.842452 294.748184 
L 230.923636 294.008367 
L 231.00482 294.378275 
L 231.167188 294.008367 
L 231.248372 294.748184 
L 231.329556 294.008367 
L 231.491924 294.378275 
L 231.573108 294.008367 
L 231.654292 294.748184 
L 231.897844 294.008367 
L 232.060211 294.008367 
L 232.141395 293.638459 
L 232.303763 294.378275 
L 232.466131 294.378275 
L 232.547315 294.008367 
L 232.628499 294.378275 
L 232.790867 294.008367 
L 232.953235 294.748184 
L 233.034419 294.008367 
L 233.115603 294.378275 
L 233.196786 293.638459 
L 233.359154 294.008367 
L 233.440338 294.008367 
L 233.602706 294.378275 
L 233.846258 294.378275 
L 234.008626 294.008367 
L 234.170994 294.008367 
L 234.333362 293.268551 
L 234.414545 294.378275 
L 234.495729 293.638459 
L 234.658097 291.049102 
L 234.739281 294.378275 
L 234.820465 294.008367 
L 234.901649 283.28103 
L 234.982833 283.650939 
L 235.145201 293.638459 
L 235.226385 270.704152 
L 235.307569 273.293509 
L 235.388753 294.008367 
L 235.469937 292.528735 
L 235.551121 257.387457 
L 235.632304 262.196264 
L 235.713488 294.008367 
L 235.794672 288.089837 
L 235.875856 239.631864 
L 235.95704 250.359202 
L 236.038224 293.638459 
L 236.119408 281.801398 
L 236.200592 221.136453 
L 236.281776 240.741588 
L 236.36296 294.008367 
L 236.444144 272.923601 
L 236.525328 203.750766 
L 236.687696 294.008367 
L 236.768879 264.785621 
L 236.850063 188.21462 
L 237.012431 294.378275 
L 237.093615 256.647641 
L 237.174799 175.267832 
L 237.337167 293.638459 
L 237.418351 250.72911 
L 237.499535 167.12985 
L 237.661903 294.008367 
L 237.824271 162.321042 
L 237.986638 294.008367 
L 238.149006 162.690951 
L 238.311374 294.748184 
L 238.473742 167.499758 
L 238.63611 294.748184 
L 238.798478 177.117373 
L 238.960846 294.748184 
L 239.123214 190.064162 
L 239.285581 294.748184 
L 239.447949 206.340124 
L 239.610317 294.748184 
L 239.772685 224.835535 
L 239.935053 294.748184 
L 240.097421 245.180487 
L 240.259789 294.748184 
L 240.422156 263.305988 
L 240.584524 294.748184 
L 240.746892 279.21204 
L 240.90926 294.378275 
L 241.071628 288.829653 
L 241.233996 294.748184 
L 241.396364 293.268551 
L 241.558732 294.748184 
L 241.639915 294.748184 
L 241.721099 294.378275 
L 241.802283 295.118092 
L 242.045835 294.008367 
L 242.208203 294.748184 
L 242.289387 294.378275 
L 242.370571 294.748184 
L 242.451755 294.008367 
L 242.532939 295.118092 
L 242.695307 294.008367 
L 242.77649 294.008367 
L 242.857674 294.378275 
L 242.938858 294.008367 
L 243.101226 294.378275 
L 243.263594 294.378275 
L 243.425962 294.008367 
L 243.507146 294.378275 
L 243.750698 293.268551 
L 243.913066 294.008367 
L 244.075433 293.638459 
L 244.156617 293.638459 
L 244.237801 294.748184 
L 244.400169 294.008367 
L 244.481353 294.008367 
L 244.562537 293.638459 
L 244.724905 294.378275 
L 244.806089 294.378275 
L 244.968457 294.008367 
L 245.049641 294.008367 
L 245.130825 294.378275 
L 245.293192 292.898643 
L 245.374376 294.378275 
L 245.45556 293.638459 
L 245.617928 286.610204 
L 245.699112 294.008367 
L 245.780296 293.638459 
L 245.942664 275.14305 
L 246.023848 294.378275 
L 246.105032 294.008367 
L 246.2674 259.606907 
L 246.429767 294.008367 
L 246.510951 244.070762 
L 246.592135 244.810579 
L 246.754503 294.008367 
L 246.835687 227.424893 
L 246.916871 230.01425 
L 247.079239 294.008367 
L 247.160423 211.888747 
L 247.241607 215.58783 
L 247.403975 294.008367 
L 247.485159 199.311868 
L 247.566342 203.750766 
L 247.647526 294.008367 
L 247.72871 293.638459 
L 247.809894 187.104896 
L 247.891078 193.763244 
L 248.053446 294.378275 
L 248.13463 178.966914 
L 248.215814 185.995171 
L 248.378182 294.008367 
L 248.459366 173.788199 
L 248.54055 181.92618 
L 248.621734 294.378275 
L 248.702918 294.008367 
L 248.784101 172.678474 
L 248.865285 181.186364 
L 249.027653 294.378275 
L 249.108837 174.897923 
L 249.190021 182.665997 
L 249.271205 294.748184 
L 249.352389 294.378275 
L 249.433573 180.076639 
L 249.514757 187.844712 
L 249.595941 294.378275 
L 249.677125 294.008367 
L 249.758309 188.954437 
L 249.839493 196.352602 
L 250.00186 294.378275 
L 250.083044 200.7915 
L 250.164228 207.07994 
L 250.326596 294.378275 
L 250.40778 214.848013 
L 250.488964 219.286912 
L 250.570148 294.748184 
L 250.651332 294.008367 
L 250.732516 230.384158 
L 250.8137 234.453149 
L 250.976068 294.748184 
L 251.057252 246.66012 
L 251.138436 249.249477 
L 251.300803 294.748184 
L 251.381987 262.93608 
L 251.463171 264.785621 
L 251.544355 294.748184 
L 251.625539 294.378275 
L 251.787907 278.102316 
L 251.869091 294.748184 
L 251.950275 294.378275 
L 252.112643 289.199561 
L 252.275011 294.748184 
L 252.356195 294.748184 
L 252.518562 294.378275 
L 252.599746 295.488 
L 252.68093 294.748184 
L 252.762114 295.118092 
L 252.843298 294.008367 
L 253.005666 295.118092 
L 253.168034 294.378275 
L 253.249218 294.748184 
L 253.411586 294.008367 
L 253.49277 294.748184 
L 253.655137 294.008367 
L 253.736321 294.748184 
L 253.817505 294.378275 
L 253.898689 294.748184 
L 253.979873 294.008367 
L 254.142241 294.748184 
L 254.385793 294.008367 
L 254.548161 294.748184 
L 254.629345 293.638459 
L 254.791712 294.378275 
L 254.872896 294.378275 
L 254.95408 294.748184 
L 255.116448 294.008367 
L 255.278816 294.748184 
L 255.441184 294.008367 
L 255.603552 294.378275 
L 255.684736 293.638459 
L 255.76592 294.378275 
L 255.847104 294.008367 
L 256.009471 294.748184 
L 256.171839 294.378275 
L 256.334207 292.528735 
L 256.415391 294.378275 
L 256.496575 293.638459 
L 256.577759 285.500479 
L 256.658943 286.240296 
L 256.740127 293.638459 
L 256.821311 292.158826 
L 256.902495 274.403234 
L 256.983679 278.472224 
L 257.064863 294.008367 
L 257.146047 286.610204 
L 257.22723 257.017549 
L 257.389598 294.008367 
L 257.470782 277.362499 
L 257.551966 238.522139 
L 257.714334 294.008367 
L 257.876702 218.917004 
L 257.957886 251.099018 
L 258.03907 293.638459 
L 258.201438 200.421592 
L 258.363805 294.008367 
L 258.526173 185.255354 
L 258.688541 294.008367 
L 258.850909 174.158107 
L 259.013277 294.008367 
L 259.175645 165.650217 
L 259.338013 294.378275 
L 259.500381 162.321042 
L 259.662748 294.008367 
L 259.825116 163.800676 
L 259.987484 294.748184 
L 260.149852 170.089116 
L 260.31222 294.748184 
L 260.474588 180.446547 
L 260.636956 295.118092 
L 260.799323 194.133152 
L 260.961691 294.378275 
L 261.124059 210.039206 
L 261.286427 294.008367 
L 261.448795 229.274434 
L 261.611163 294.378275 
L 261.773531 247.030028 
L 261.935899 294.008367 
L 262.098266 263.675897 
L 262.260634 294.748184 
L 262.423002 277.732408 
L 262.58537 294.748184 
L 262.747738 286.980112 
L 262.828922 294.748184 
L 262.910106 294.008367 
L 263.072474 293.268551 
L 263.234841 294.748184 
L 263.397209 294.008367 
L 263.559577 294.748184 
L 263.640761 294.008367 
L 263.803129 295.118092 
L 263.884313 294.378275 
L 263.965497 294.748184 
L 264.209049 294.008367 
L 264.371416 294.378275 
L 264.4526 294.008367 
L 264.533784 294.378275 
L 264.696152 294.008367 
L 264.777336 294.378275 
L 264.939704 294.008367 
L 265.102072 294.008367 
L 265.183256 294.748184 
L 265.345624 294.378275 
L 265.426808 294.378275 
L 265.507992 294.008367 
L 265.670359 294.378275 
L 265.751543 294.008367 
L 265.913911 294.378275 
L 266.157463 294.378275 
L 266.238647 294.008367 
L 266.319831 294.378275 
L 266.482199 294.008367 
L 266.644567 294.008367 
L 266.725751 293.638459 
L 266.806934 294.008367 
L 266.969302 292.158826 
L 267.050486 294.748184 
L 267.13167 294.378275 
L 267.294038 284.390755 
L 267.456406 294.008367 
L 267.53759 271.443969 
L 267.618774 271.813877 
L 267.699958 294.748184 
L 267.781142 294.008367 
L 267.862326 255.537916 
L 267.94351 257.017549 
L 268.105877 294.378275 
L 268.187061 240.001772 
L 268.268245 242.221221 
L 268.430613 294.008367 
L 268.511797 223.725811 
L 268.592981 227.054985 
L 268.755349 294.748184 
L 268.836533 209.29939 
L 268.917717 213.738289 
L 269.080085 294.008367 
L 269.161268 196.352602 
L 269.242452 201.901225 
L 269.40482 294.378275 
L 269.486004 185.995171 
L 269.567188 193.393336 
L 269.729556 294.748184 
L 269.81074 178.227098 
L 269.891924 186.365079 
L 270.054292 294.378275 
L 270.135476 174.158107 
L 270.21666 183.405813 
L 270.379027 294.378275 
L 270.460211 173.41829 
L 270.541395 183.035905 
L 270.703763 294.748184 
L 270.784947 176.747465 
L 270.866131 185.995171 
L 271.028499 294.748184 
L 271.109683 182.296088 
L 271.190867 192.283611 
L 271.272051 294.748184 
L 271.353235 294.378275 
L 271.434419 192.653519 
L 271.515603 200.7915 
L 271.67797 294.748184 
L 271.759154 204.490583 
L 271.840338 212.628564 
L 272.002706 294.378275 
L 272.08389 218.547095 
L 272.165074 224.835535 
L 272.246258 294.748184 
L 272.327442 294.008367 
L 272.408626 234.083241 
L 272.48981 239.631864 
L 272.570994 295.118092 
L 272.652178 294.008367 
L 272.733362 251.468926 
L 272.814545 254.7981 
L 272.976913 294.748184 
L 273.058097 267.374979 
L 273.139281 268.854611 
L 273.301649 294.378275 
L 273.382833 281.431489 
L 273.464017 282.171306 
L 273.626385 294.748184 
L 273.788753 291.049102 
L 273.869937 294.748184 
L 273.951121 294.008367 
L 274.032304 294.748184 
L 274.113488 293.638459 
L 274.275856 294.748184 
L 274.35704 294.748184 
L 274.438224 295.118092 
L 274.681776 294.008367 
L 274.76296 294.748184 
L 274.844144 294.378275 
L 275.006512 294.748184 
L 275.168879 294.378275 
L 275.250063 294.378275 
L 275.412431 294.748184 
L 275.574799 294.378275 
L 275.655983 294.748184 
L 275.818351 294.008367 
L 276.061903 294.748184 
L 276.143087 294.748184 
L 276.224271 294.378275 
L 276.305455 294.748184 
L 276.386638 294.378275 
L 276.467822 294.748184 
L 276.63019 294.008367 
L 276.711374 294.008367 
L 276.873742 294.748184 
L 277.03611 294.008367 
L 277.198478 294.008367 
L 277.360846 294.378275 
L 277.44203 294.378275 
L 277.523214 294.748184 
L 277.685581 294.008367 
L 277.847949 294.008367 
L 278.010317 292.898643 
L 278.091501 294.378275 
L 278.172685 292.528735 
L 278.253869 287.35002 
L 278.416237 294.008367 
L 278.578605 274.403234 
L 278.740973 294.008367 
L 278.90334 256.647641 
L 279.065708 294.008367 
L 279.228076 237.042506 
L 279.390444 293.638459 
L 279.552812 218.177187 
L 279.71518 294.008367 
L 279.877548 200.7915 
L 280.039915 294.008367 
L 280.202283 186.734987 
L 280.364651 293.638459 
L 280.527019 176.377556 
L 280.689387 294.008367 
L 280.851755 170.089116 
L 281.014123 294.378275 
L 281.17649 168.239575 
L 281.338858 294.008367 
L 281.501226 170.089116 
L 281.663594 294.008367 
L 281.825962 177.117373 
L 281.98833 294.748184 
L 282.150698 187.474804 
L 282.313066 294.378275 
L 282.475433 200.7915 
L 282.637801 294.378275 
L 282.800169 216.327646 
L 282.962537 294.378275 
L 283.124905 231.863791 
L 283.287273 294.748184 
L 283.449641 248.139752 
L 283.612008 294.748184 
L 283.774376 261.826356 
L 283.936744 294.378275 
L 284.017928 274.773142 
L 284.099112 275.14305 
L 284.26148 295.118092 
L 284.423848 285.870388 
L 284.505032 295.118092 
L 284.586216 294.748184 
L 284.748584 292.898643 
L 284.910951 294.378275 
L 285.073319 294.748184 
L 285.235687 294.748184 
L 285.398055 294.378275 
L 285.560423 294.748184 
L 285.641607 294.008367 
L 285.803975 294.748184 
L 286.12871 294.748184 
L 286.291078 295.118092 
L 286.372262 295.118092 
L 286.53463 294.378275 
L 286.615814 294.748184 
L 286.778182 294.378275 
L 286.859366 294.378275 
L 286.94055 294.748184 
L 287.021734 294.378275 
L 287.102918 294.748184 
L 287.265285 294.008367 
L 287.346469 294.378275 
L 287.427653 293.638459 
L 287.508837 295.118092 
L 287.671205 294.378275 
L 287.833573 294.378275 
L 287.914757 294.008367 
L 287.995941 294.378275 
L 288.077125 294.008367 
L 288.239493 294.748184 
L 288.320677 294.008367 
L 288.483044 294.378275 
L 288.645412 292.158826 
L 288.80778 294.008367 
L 288.888964 283.28103 
L 288.970148 283.650939 
L 289.051332 294.378275 
L 289.132516 294.008367 
L 289.2137 269.964336 
L 289.294884 271.07406 
L 289.457252 294.378275 
L 289.538436 254.428192 
L 289.619619 255.907825 
L 289.781987 294.378275 
L 289.863171 237.782323 
L 289.944355 242.221221 
L 290.106723 294.378275 
L 290.187907 222.985994 
L 290.269091 227.794801 
L 290.431459 294.008367 
L 290.512643 208.559573 
L 290.593827 214.478105 
L 290.756195 294.378275 
L 290.837378 196.72251 
L 290.918562 203.380858 
L 291.08093 294.378275 
L 291.162114 187.104896 
L 291.243298 195.982693 
L 291.324482 294.378275 
L 291.405666 293.638459 
L 291.48685 180.446547 
L 291.568034 190.803978 
L 291.649218 294.748184 
L 291.730402 293.268551 
L 291.811586 176.747465 
L 291.89277 188.21462 
L 291.973953 294.378275 
L 292.055137 292.898643 
L 292.136321 176.007648 
L 292.217505 188.954437 
L 292.298689 294.378275 
L 292.379873 292.158826 
L 292.461057 179.706731 
L 292.542241 192.283611 
L 292.623425 294.378275 
L 292.704609 290.679194 
L 292.785793 184.515538 
L 292.866977 198.572051 
L 292.948161 294.008367 
L 293.029345 290.679194 
L 293.110529 194.872969 
L 293.191712 208.559573 
L 293.272896 294.748184 
L 293.35408 290.309286 
L 293.435264 207.449849 
L 293.516448 219.65682 
L 293.597632 294.378275 
L 293.678816 290.309286 
L 293.76 222.246178 
L 293.841184 232.973516 
L 293.922368 294.748184 
L 294.003552 292.158826 
L 294.084736 239.261956 
L 294.16592 246.66012 
L 294.247104 294.378275 
L 294.328288 293.268551 
L 294.409471 255.537916 
L 294.490655 261.086539 
L 294.571839 295.118092 
L 294.653023 293.638459 
L 294.734207 272.923601 
L 294.815391 274.773142 
L 294.977759 294.378275 
L 295.058943 284.760663 
L 295.140127 285.870388 
L 295.302495 295.118092 
L 295.383679 292.158826 
L 295.62723 294.748184 
L 295.708414 294.748184 
L 295.789598 294.008367 
L 295.951966 295.118092 
L 296.03315 294.008367 
L 296.114334 294.378275 
L 296.276702 294.748184 
L 296.43907 294.008367 
L 296.520254 295.118092 
L 296.682622 294.378275 
L 296.763805 294.748184 
L 296.926173 294.008367 
L 297.088541 294.748184 
L 297.169725 294.008367 
L 297.332093 294.748184 
L 297.494461 294.008367 
L 297.656829 294.378275 
L 297.819197 294.008367 
L 297.900381 294.378275 
L 297.981564 294.008367 
L 298.143932 294.378275 
L 298.225116 294.008367 
L 298.387484 294.378275 
L 298.468668 294.378275 
L 298.549852 294.748184 
L 298.631036 293.638459 
L 298.71222 294.008367 
L 298.874588 294.378275 
L 298.955772 294.378275 
L 299.036956 293.638459 
L 299.11814 294.378275 
L 299.199323 294.008367 
L 299.280507 294.378275 
L 299.361691 293.638459 
L 299.442875 294.008367 
L 299.686427 293.268551 
L 299.767611 294.008367 
L 299.929979 286.980112 
L 300.092347 293.638459 
L 300.254715 273.663418 
L 300.417082 294.748184 
L 300.57945 256.277733 
L 300.741818 294.008367 
L 300.904186 237.782323 
L 301.066554 294.008367 
L 301.228922 220.026728 
L 301.39129 294.008367 
L 301.553658 204.860491 
L 301.716025 294.378275 
L 301.878393 191.913703 
L 302.040761 294.378275 
L 302.203129 182.296088 
L 302.365497 294.008367 
L 302.527865 177.857189 
L 302.690233 294.378275 
L 302.8526 176.377556 
L 303.014968 294.008367 
L 303.177336 180.076639 
L 303.339704 294.748184 
L 303.502072 185.995171 
L 303.66444 294.008367 
L 303.826808 194.872969 
L 303.989175 294.748184 
L 304.151543 206.710032 
L 304.313911 294.748184 
L 304.395095 217.067463 
L 304.476279 218.917004 
L 304.638647 294.748184 
L 304.719831 230.01425 
L 304.801015 231.863791 
L 304.882199 294.748184 
L 304.963383 294.378275 
L 305.044567 244.44067 
L 305.125751 245.920303 
L 305.288118 294.748184 
L 305.369302 258.497182 
L 305.450486 259.606907 
L 305.53167 294.748184 
L 305.612854 294.378275 
L 305.694038 273.293509 
L 305.775222 273.663418 
L 305.93759 294.748184 
L 306.018774 284.760663 
L 306.099958 285.130571 
L 306.262326 294.748184 
L 306.424693 292.898643 
L 306.587061 294.748184 
L 306.668245 295.118092 
L 306.749429 294.378275 
L 306.911797 294.748184 
L 307.236533 293.638459 
L 307.317717 295.118092 
L 307.398901 294.378275 
L 307.480085 294.748184 
L 307.561268 294.378275 
L 307.642452 294.748184 
L 307.886004 294.008367 
L 308.048372 294.748184 
L 308.129556 293.638459 
L 308.21074 294.008367 
L 308.291924 294.748184 
L 308.454292 294.378275 
L 308.61666 294.378275 
L 308.697844 294.008367 
L 308.860211 294.378275 
L 308.941395 294.008367 
L 309.022579 294.378275 
L 309.184947 293.638459 
L 309.347315 294.008367 
L 309.509683 293.638459 
L 309.753235 294.378275 
L 309.834419 293.638459 
L 309.996786 294.008367 
L 310.07797 294.008367 
L 310.159154 293.638459 
L 310.321522 291.788918 
L 310.402706 294.748184 
L 310.48389 294.008367 
L 310.646258 282.911122 
L 310.808626 294.008367 
L 310.88981 269.964336 
L 310.970994 271.443969 
L 311.052178 294.008367 
L 311.133362 293.638459 
L 311.214545 254.7981 
L 311.295729 257.017549 
L 311.376913 294.008367 
L 311.458097 293.638459 
L 311.539281 238.892047 
L 311.620465 242.961038 
L 311.782833 294.008367 
L 311.864017 224.835535 
L 311.945201 230.01425 
L 312.026385 294.378275 
L 312.107569 293.268551 
L 312.188753 210.039206 
L 312.269937 218.547095 
L 312.351121 294.008367 
L 312.432304 292.528735 
L 312.513488 198.572051 
L 312.594672 208.929482 
L 312.675856 293.638459 
L 312.75704 290.309286 
L 312.838224 187.844712 
L 312.919408 201.901225 
L 313.000592 294.008367 
L 313.081776 286.240296 
L 313.16296 178.597006 
L 313.244144 197.462326 
L 313.325328 294.008367 
L 313.406512 282.171306 
L 313.487696 173.048382 
L 313.568879 196.72251 
L 313.650063 294.008367 
L 313.731247 279.21204 
L 313.812431 171.198841 
L 313.893615 198.202143 
L 313.974799 294.378275 
L 314.055983 277.732408 
L 314.137167 173.41829 
L 314.218351 202.271133 
L 314.299535 294.748184 
L 314.380719 275.882867 
L 314.461903 180.076639 
L 314.543087 209.29939 
L 314.624271 294.378275 
L 314.705455 275.512959 
L 314.786638 190.43407 
L 314.867822 218.917004 
L 314.949006 294.378275 
L 315.03019 276.992591 
L 315.111374 204.490583 
L 315.192558 229.644342 
L 315.273742 294.748184 
L 315.354926 279.581949 
L 315.43611 221.136453 
L 315.598478 295.118092 
L 315.679662 283.650939 
L 315.760846 239.631864 
L 315.923214 295.118092 
L 316.004397 286.980112 
L 316.085581 258.497182 
L 316.247949 294.378275 
L 316.329133 291.41901 
L 316.410317 275.14305 
L 316.491501 280.691673 
L 316.572685 294.748184 
L 316.653869 293.638459 
L 316.735053 288.459745 
L 316.816237 290.309286 
L 316.978605 295.118092 
L 317.059789 293.638459 
L 317.140973 294.378275 
L 317.222156 294.008367 
L 317.30334 294.748184 
L 317.384524 294.008367 
L 317.465708 295.118092 
L 317.546892 294.378275 
L 317.628076 294.748184 
L 317.70926 294.008367 
L 317.790444 295.118092 
L 317.871628 294.008367 
L 317.952812 294.378275 
L 318.033996 295.118092 
L 318.358732 294.008367 
L 318.521099 294.748184 
L 318.602283 294.748184 
L 318.683467 295.118092 
L 318.764651 294.378275 
L 318.845835 294.748184 
L 319.008203 294.378275 
L 319.170571 294.748184 
L 319.251755 294.748184 
L 319.332939 294.008367 
L 319.57649 294.748184 
L 319.738858 294.008367 
L 319.820042 294.748184 
L 319.98241 293.638459 
L 320.063594 294.748184 
L 320.144778 294.008367 
L 320.307146 294.378275 
L 320.38833 294.008367 
L 320.550698 295.118092 
L 320.631882 294.008367 
L 320.713066 294.378275 
L 320.956617 293.638459 
L 321.037801 294.748184 
L 321.118985 294.008367 
L 321.281353 291.41901 
L 321.443721 294.378275 
L 321.606089 284.020847 
L 321.768457 294.008367 
L 321.930825 270.704152 
L 322.093192 294.008367 
L 322.25556 255.537916 
L 322.417928 294.378275 
L 322.580296 239.261956 
L 322.742664 294.008367 
L 322.905032 223.355902 
L 323.0674 294.008367 
L 323.229767 209.669298 
L 323.392135 294.008367 
L 323.554503 197.832235 
L 323.716871 294.008367 
L 323.879239 189.694253 
L 324.041607 294.008367 
L 324.203975 184.885446 
L 324.366342 294.378275 
L 324.447526 182.665997 
L 324.52871 184.14563 
L 324.691078 294.378275 
L 324.772262 181.92618 
L 324.853446 185.255354 
L 325.015814 294.008367 
L 325.096998 185.255354 
L 325.178182 188.954437 
L 325.34055 294.378275 
L 325.421734 190.43407 
L 325.502918 195.982693 
L 325.584101 294.748184 
L 325.665285 294.008367 
L 325.746469 200.7915 
L 325.827653 204.860491 
L 325.908837 294.748184 
L 325.990021 294.008367 
L 326.071205 212.258656 
L 326.152389 215.58783 
L 326.314757 294.748184 
L 326.395941 226.685076 
L 326.477125 228.904526 
L 326.639493 295.118092 
L 326.720677 241.481405 
L 326.80186 244.44067 
L 326.964228 295.118092 
L 327.045412 257.757366 
L 327.126596 258.497182 
L 327.20778 294.378275 
L 327.288964 294.008367 
L 327.370148 272.183785 
L 327.451332 272.923601 
L 327.6137 294.748184 
L 327.694884 284.760663 
L 327.776068 285.500479 
L 327.857252 294.748184 
L 327.938436 294.008367 
L 328.100803 292.158826 
L 328.181987 294.748184 
L 328.263171 294.378275 
L 328.344355 295.118092 
L 328.587907 294.378275 
L 328.831459 294.378275 
L 328.912643 294.008367 
L 328.993827 294.378275 
L 329.075011 294.008367 
L 329.237378 294.748184 
L 329.399746 294.378275 
L 329.48093 294.378275 
L 329.562114 294.748184 
L 329.643298 293.638459 
L 329.805666 294.378275 
L 329.88685 294.378275 
L 330.049218 294.008367 
L 330.211586 294.008367 
L 330.373953 295.118092 
L 330.698689 294.008367 
L 330.779873 294.378275 
L 330.861057 294.008367 
L 330.942241 294.748184 
L 331.104609 293.638459 
L 331.266977 294.378275 
L 331.348161 294.378275 
L 331.429345 294.008367 
L 331.510529 294.378275 
L 331.672896 294.008367 
L 331.75408 294.378275 
L 331.835264 293.638459 
L 331.997632 291.41901 
L 332.078816 294.008367 
L 332.16 293.268551 
L 332.322368 283.650939 
L 332.484736 294.008367 
L 332.56592 271.813877 
L 332.647104 272.923601 
L 332.809471 294.378275 
L 332.890655 257.017549 
L 332.971839 259.606907 
L 333.053023 294.748184 
L 333.134207 293.638459 
L 333.215391 241.851313 
L 333.296575 247.030028 
L 333.377759 294.748184 
L 333.458943 290.309286 
L 333.540127 225.94526 
L 333.621311 235.562873 
L 333.702495 294.008367 
L 333.783679 286.980112 
L 333.864863 210.039206 
L 333.946047 225.575352 
L 334.02723 294.378275 
L 334.108414 280.691673 
L 334.189598 194.872969 
L 334.270782 217.437371 
L 334.351966 293.638459 
L 334.43315 274.033326 
L 334.514334 181.556272 
L 334.595518 211.148931 
L 334.676702 294.378275 
L 334.757886 268.484703 
L 334.83907 171.938657 
L 335.001438 294.748184 
L 335.082622 263.675897 
L 335.163805 166.390033 
L 335.326173 294.378275 
L 335.407357 259.606907 
L 335.488541 165.280309 
L 335.650909 295.118092 
L 335.732093 257.017549 
L 335.813277 168.239575 
L 335.975645 295.118092 
L 336.056829 257.017549 
L 336.138013 176.007648 
L 336.300381 294.378275 
L 336.381564 258.127274 
L 336.462748 187.844712 
L 336.625116 294.378275 
L 336.7063 261.826356 
L 336.787484 203.01095 
L 336.949852 294.378275 
L 337.11222 220.766545 
L 337.274588 295.118092 
L 337.436956 240.741588 
L 337.599323 294.378275 
L 337.761691 259.606907 
L 337.924059 294.378275 
L 338.086427 276.622683 
L 338.248795 295.488 
L 338.411163 289.199561 
L 338.573531 295.118092 
L 338.735899 294.008367 
L 338.898266 294.748184 
L 338.97945 294.378275 
L 339.060634 295.118092 
L 339.223002 294.748184 
L 339.304186 294.748184 
L 339.466554 294.008367 
L 339.628922 294.378275 
L 339.710106 294.378275 
L 339.79129 294.748184 
L 339.872474 294.378275 
L 339.953658 294.748184 
L 340.197209 294.008367 
L 340.278393 294.748184 
L 340.359577 294.008367 
L 340.521945 294.748184 
L 340.684313 294.008367 
L 340.846681 294.378275 
L 341.333784 294.378275 
L 341.414968 294.748184 
L 341.496152 294.008367 
L 341.577336 294.748184 
L 341.65852 294.008367 
L 341.739704 294.748184 
L 341.820888 294.008367 
L 341.983256 295.118092 
L 342.06444 294.008367 
L 342.145624 294.378275 
L 342.226808 294.748184 
L 342.551543 293.638459 
L 342.713911 294.008367 
L 342.795095 293.638459 
L 342.957463 289.939377 
L 343.119831 294.748184 
L 343.282199 279.581949 
L 343.444567 294.008367 
L 343.606934 266.265254 
L 343.769302 294.008367 
L 343.93167 251.468926 
L 344.094038 294.748184 
L 344.175222 235.192965 
L 344.256406 235.932782 
L 344.418774 294.008367 
L 344.499958 219.65682 
L 344.581142 221.506361 
L 344.74351 294.008367 
L 344.824693 205.600308 
L 344.905877 208.189665 
L 345.068245 293.638459 
L 345.149429 193.393336 
L 345.230613 197.832235 
L 345.392981 294.008367 
L 345.474165 184.515538 
L 345.555349 189.324345 
L 345.717717 294.008367 
L 345.798901 178.597006 
L 345.880085 184.515538 
L 346.042452 294.378275 
L 346.123636 175.63774 
L 346.20482 182.296088 
L 346.286004 294.378275 
L 346.367188 294.008367 
L 346.448372 176.377556 
L 346.529556 183.035905 
L 346.61074 294.748184 
L 346.691924 294.378275 
L 346.773108 180.446547 
L 346.854292 187.104896 
L 347.01666 295.118092 
L 347.097844 187.474804 
L 347.179027 193.763244 
L 347.260211 295.118092 
L 347.341395 294.378275 
L 347.422579 198.572051 
L 347.503763 203.750766 
L 347.584947 294.748184 
L 347.666131 294.378275 
L 347.747315 211.888747 
L 347.828499 216.327646 
L 347.909683 295.118092 
L 347.990867 294.748184 
L 348.072051 225.94526 
L 348.153235 229.644342 
L 348.315603 294.378275 
L 348.396786 241.851313 
L 348.47797 244.810579 
L 348.559154 295.118092 
L 348.640338 294.008367 
L 348.721522 258.497182 
L 348.802706 259.976815 
L 348.965074 294.748184 
L 349.046258 273.663418 
L 349.127442 274.403234 
L 349.28981 295.118092 
L 349.452178 286.240296 
L 349.614545 294.378275 
L 349.776913 293.268551 
L 349.939281 295.118092 
L 350.101649 294.378275 
L 350.264017 294.748184 
L 350.345201 294.378275 
L 350.426385 294.748184 
L 350.507569 294.378275 
L 350.669937 294.748184 
L 350.751121 294.008367 
L 350.832304 295.118092 
L 350.913488 294.748184 
L 351.075856 294.748184 
L 351.238224 294.008367 
L 351.319408 295.118092 
L 351.400592 294.748184 
L 351.481776 295.118092 
L 351.644144 294.378275 
L 351.806512 293.638459 
L 351.968879 294.748184 
L 352.212431 294.748184 
L 352.374799 294.008367 
L 352.618351 294.748184 
L 352.780719 294.378275 
L 352.943087 294.378275 
L 353.024271 294.008367 
L 353.105455 294.748184 
L 353.186638 294.008367 
L 353.349006 294.378275 
L 353.511374 294.378275 
L 353.673742 291.788918 
L 353.754926 294.378275 
L 353.83611 294.008367 
L 353.917294 285.130571 
L 353.998478 285.500479 
L 354.079662 294.378275 
L 354.160846 293.638459 
L 354.24203 274.033326 
L 354.323214 275.14305 
L 354.404397 294.378275 
L 354.485581 292.158826 
L 354.566765 259.606907 
L 354.647949 264.415713 
L 354.729133 294.008367 
L 354.810317 287.719928 
L 354.891501 242.221221 
L 354.972685 253.318467 
L 355.053869 294.008367 
L 355.135053 280.691673 
L 355.216237 224.095719 
L 355.297421 243.700854 
L 355.378605 293.268551 
L 355.459789 272.553693 
L 355.540973 205.600308 
L 355.70334 293.638459 
L 355.784524 263.305988 
L 355.865708 189.324345 
L 356.028076 294.008367 
L 356.10926 255.907825 
L 356.190444 176.377556 
L 356.352812 293.638459 
L 356.51518 167.12985 
L 356.677548 293.638459 
L 356.839915 163.060859 
L 357.002283 294.748184 
L 357.164651 162.321042 
L 357.327019 294.748184 
L 357.489387 167.12985 
L 357.651755 295.118092 
L 357.814123 175.63774 
L 357.97649 294.378275 
L 358.138858 188.21462 
L 358.301226 294.748184 
L 358.463594 204.120675 
L 358.625962 294.008367 
L 358.78833 222.985994 
L 358.950698 294.378275 
L 359.113066 242.591129 
L 359.275433 294.748184 
L 359.437801 261.086539 
L 359.600169 294.748184 
L 359.762537 277.732408 
L 359.924905 294.748184 
L 360.087273 287.719928 
L 360.168457 294.748184 
L 360.249641 294.378275 
L 360.412008 292.898643 
L 360.574376 295.118092 
L 360.65556 294.748184 
L 360.736744 294.378275 
L 360.899112 294.748184 
L 360.980296 294.008367 
L 361.142664 294.748184 
L 361.223848 294.378275 
L 361.305032 295.118092 
L 361.4674 294.378275 
L 361.548584 294.378275 
L 361.629767 295.118092 
L 361.710951 294.748184 
L 361.792135 295.118092 
L 362.035687 294.378275 
L 362.198055 294.378275 
L 362.360423 293.638459 
L 362.522791 294.378275 
L 362.685159 294.008367 
L 362.92871 294.748184 
L 363.172262 294.008367 
L 363.253446 294.008367 
L 363.33463 294.748184 
L 363.496998 294.378275 
L 363.74055 294.378275 
L 363.821734 294.008367 
L 363.902918 294.378275 
L 364.065285 294.008367 
L 364.146469 294.008367 
L 364.308837 293.268551 
L 364.390021 294.748184 
L 364.471205 293.638459 
L 364.633573 287.719928 
L 364.714757 294.748184 
L 364.795941 294.008367 
L 364.958309 276.252775 
L 365.120677 294.748184 
L 365.20186 261.456447 
L 365.283044 262.196264 
L 365.445412 294.378275 
L 365.526596 245.550395 
L 365.60778 247.030028 
L 365.688964 294.378275 
L 365.770148 294.008367 
L 365.851332 229.274434 
L 365.932516 232.2337 
L 366.0137 294.378275 
L 366.094884 293.638459 
L 366.176068 213.36838 
L 366.257252 218.177187 
L 366.419619 294.008367 
L 366.500803 200.051684 
L 366.581987 205.230399 
L 366.744355 294.378275 
L 366.825539 188.21462 
L 366.906723 194.872969 
L 366.987907 294.378275 
L 367.069091 294.008367 
L 367.150275 180.076639 
L 367.231459 187.474804 
L 367.393827 294.378275 
L 367.475011 175.267832 
L 367.556195 182.665997 
L 367.718562 294.748184 
L 367.88093 53.568 
L 368.043298 294.748184 
L 368.124482 294.008367 
L 368.205666 174.528015 
L 368.28685 182.665997 
L 368.449218 294.748184 
L 368.530402 180.076639 
L 368.611586 187.844712 
L 368.773953 294.748184 
L 368.855137 188.584529 
L 368.936321 195.982693 
L 369.098689 295.118092 
L 369.179873 200.051684 
L 369.261057 205.970216 
L 369.423425 295.118092 
L 369.504609 212.998472 
L 369.585793 219.286912 
L 369.748161 294.378275 
L 369.829345 228.534617 
L 369.910529 232.973516 
L 369.991712 295.118092 
L 370.072896 294.748184 
L 370.15408 245.180487 
L 370.235264 248.139752 
L 370.316448 295.488 
L 370.397632 295.118092 
L 370.478816 261.826356 
L 370.56 263.675897 
L 370.641184 295.488 
L 370.722368 294.748184 
L 370.803552 276.252775 
L 370.884736 277.362499 
L 371.047104 295.488 
L 371.209471 288.459745 
L 371.290655 295.118092 
L 371.371839 294.748184 
L 371.534207 293.638459 
L 371.696575 295.118092 
L 371.777759 294.748184 
L 371.940127 295.118092 
L 372.102495 294.378275 
L 372.183679 294.748184 
L 372.264863 294.378275 
L 372.346047 294.748184 
L 372.42723 294.378275 
L 372.508414 294.748184 
L 372.589598 294.008367 
L 372.751966 295.118092 
L 372.83315 294.378275 
L 373.076702 295.118092 
L 373.157886 295.118092 
L 373.23907 294.748184 
L 373.401438 295.118092 
L 373.482622 294.378275 
L 373.563805 294.748184 
L 373.807357 294.008367 
L 374.050909 295.118092 
L 374.294461 294.378275 
L 374.456829 294.378275 
L 374.619197 294.748184 
L 374.781564 294.378275 
L 374.862748 294.748184 
L 374.943932 294.008367 
L 375.025116 294.378275 
L 375.1063 294.008367 
L 375.187484 294.748184 
L 375.268668 294.378275 
L 375.349852 292.898643 
L 375.431036 293.268551 
L 375.51222 294.008367 
L 375.593404 293.638459 
L 375.674588 287.35002 
L 375.755772 287.719928 
L 375.836956 294.008367 
L 375.91814 291.788918 
L 375.999323 276.992591 
L 376.080507 279.951857 
L 376.161691 294.008367 
L 376.242875 286.240296 
L 376.324059 259.606907 
L 376.486427 294.008367 
L 376.648795 240.741588 
L 376.729979 261.826356 
L 376.811163 294.378275 
L 376.973531 221.136453 
L 377.135899 294.378275 
L 377.298266 203.01095 
L 377.460634 294.378275 
L 377.623002 187.474804 
L 377.78537 294.008367 
L 377.947738 176.007648 
L 378.110106 294.378275 
L 378.272474 167.869666 
L 378.434841 295.118092 
L 378.597209 163.430767 
L 378.759577 294.748184 
L 378.921945 164.540492 
L 379.084313 294.748184 
L 379.246681 170.459024 
L 379.409049 295.118092 
L 379.571416 179.706731 
L 379.733784 294.008367 
L 379.896152 192.653519 
L 380.05852 295.118092 
L 380.220888 208.929482 
L 380.383256 294.378275 
L 380.545624 226.685076 
L 380.707992 294.748184 
L 380.870359 244.810579 
L 381.032727 294.748184 
L 381.195095 261.826356 
L 381.357463 295.118092 
L 381.519831 275.512959 
L 381.682199 295.118092 
L 381.844567 285.870388 
L 382.006934 295.118092 
L 382.169302 292.528735 
L 382.250486 295.118092 
L 382.33167 294.748184 
L 382.656406 294.748184 
L 382.73759 295.118092 
L 382.818774 294.748184 
L 382.899958 295.118092 
L 383.062326 294.748184 
L 383.224693 295.118092 
L 383.305877 294.748184 
L 383.468245 295.118092 
L 383.549429 294.748184 
L 383.711797 295.118092 
L 383.792981 295.118092 
L 383.874165 295.488 
L 384.036533 294.748184 
L 384.117717 294.378275 
L 384.198901 294.748184 
L 384.280085 294.378275 
L 384.361268 295.118092 
L 384.523636 294.008367 
L 384.60482 295.488 
L 384.686004 295.118092 
L 384.848372 294.378275 
L 385.01074 294.748184 
L 385.173108 294.378275 
L 385.335476 295.118092 
L 385.497844 294.378275 
L 385.579027 294.748184 
L 385.741395 294.378275 
L 385.822579 294.748184 
L 385.984947 293.638459 
L 386.066131 292.898643 
L 386.147315 295.118092 
L 386.228499 294.378275 
L 386.390867 285.870388 
L 386.553235 294.748184 
L 386.634419 272.923601 
L 386.715603 274.033326 
L 386.87797 294.378275 
L 386.959154 258.127274 
L 387.040338 259.236998 
L 387.202706 294.378275 
L 387.28389 242.221221 
L 387.365074 244.810579 
L 387.527442 294.748184 
L 387.608626 226.315168 
L 387.68981 230.384158 
L 387.852178 294.378275 
L 387.933362 210.409115 
L 388.014545 215.58783 
L 388.176913 294.748184 
L 388.258097 197.092418 
L 388.339281 204.490583 
L 388.420465 294.378275 
L 388.501649 294.008367 
L 388.582833 187.104896 
L 388.664017 194.872969 
L 388.826385 294.378275 
L 388.907569 179.336822 
L 388.988753 187.474804 
L 389.151121 294.378275 
L 389.232304 174.528015 
L 389.313488 184.14563 
L 389.475856 294.748184 
L 389.55704 173.788199 
L 389.638224 183.775721 
L 389.800592 294.378275 
L 389.881776 176.377556 
L 389.96296 186.365079 
L 390.125328 294.378275 
L 390.206512 182.665997 
L 390.287696 191.913703 
L 390.450063 294.748184 
L 390.531247 191.913703 
L 390.612431 200.421592 
L 390.693615 295.118092 
L 390.774799 294.378275 
L 390.855983 203.380858 
L 390.937167 211.148931 
L 391.099535 294.748184 
L 391.180719 218.177187 
L 391.261903 224.095719 
L 391.424271 295.118092 
L 391.505455 233.343424 
L 391.586638 238.152231 
L 391.667822 295.118092 
L 391.749006 294.748184 
L 391.83019 249.989293 
L 391.911374 253.318467 
L 391.992558 295.118092 
L 392.073742 294.748184 
L 392.154926 265.895346 
L 392.23611 268.114795 
L 392.398478 295.118092 
L 392.479662 280.321765 
L 392.560846 281.061581 
L 392.723214 294.748184 
L 392.885581 291.049102 
L 392.966765 295.118092 
L 393.047949 294.748184 
L 393.129133 294.748184 
L 393.210317 294.008367 
L 393.291501 294.748184 
L 393.453869 294.378275 
L 393.535053 294.748184 
L 393.616237 294.008367 
L 393.778605 294.378275 
L 393.859789 294.378275 
L 393.940973 294.748184 
L 394.022156 294.378275 
L 394.184524 294.748184 
L 394.265708 294.748184 
L 394.428076 294.378275 
L 394.590444 295.118092 
L 394.671628 294.378275 
L 394.752812 294.748184 
L 394.833996 294.378275 
L 395.077548 295.118092 
L 395.321099 294.378275 
L 395.564651 294.378275 
L 395.645835 294.748184 
L 395.727019 294.378275 
L 395.808203 294.748184 
L 396.051755 294.008367 
L 396.132939 294.748184 
L 396.295307 294.378275 
L 396.37649 294.748184 
L 396.457674 294.378275 
L 396.538858 295.118092 
L 396.701226 294.008367 
L 396.78241 294.378275 
L 396.863594 294.748184 
L 397.269514 293.268551 
L 397.350698 289.199561 
L 397.513066 294.748184 
L 397.675433 276.622683 
L 397.837801 294.378275 
L 398.000169 259.236998 
L 398.162537 294.378275 
L 398.324905 240.001772 
L 398.487273 294.378275 
L 398.487273 294.378275 
" style="fill:none;stroke:#1f77b4;stroke-linecap:square;stroke-width:1.5;"/>
   </g>
   <g id="patch_3">
    <path d="M 57.6 307.584 
L 57.6 41.472 
" style="fill:none;stroke:#000000;stroke-linecap:square;stroke-linejoin:miter;stroke-width:0.8;"/>
   </g>
   <g id="patch_4">
    <path d="M 414.72 307.584 
L 414.72 41.472 
" style="fill:none;stroke:#000000;stroke-linecap:square;stroke-linejoin:miter;stroke-width:0.8;"/>
   </g>
   <g id="patch_5">
    <path d="M 57.6 307.584 
L 414.72 307.584 
" style="fill:none;stroke:#000000;stroke-linecap:square;stroke-linejoin:miter;stroke-width:0.8;"/>
   </g>
   <g id="patch_6">
    <path d="M 57.6 41.472 
L 414.72 41.472 
" style="fill:none;stroke:#000000;stroke-linecap:square;stroke-linejoin:miter;stroke-width:0.8;"/>
   </g>
   <g id="text_17">
    <!-- received signal sliced -->
    <g transform="translate(171.605625 35.472)scale(0.12 -0.12)">
     <defs>
      <path d="M 2631 2963 
Q 2534 3019 2420 3045 
Q 2306 3072 2169 3072 
Q 1681 3072 1420 2755 
Q 1159 2438 1159 1844 
L 1159 0 
L 581 0 
L 581 3500 
L 1159 3500 
L 1159 2956 
Q 1341 3275 1631 3429 
Q 1922 3584 2338 3584 
Q 2397 3584 2469 3576 
Q 2541 3569 2628 3553 
L 2631 2963 
z
" id="DejaVuSans-72" transform="scale(0.015625)"/>
      <path d="M 3122 3366 
L 3122 2828 
Q 2878 2963 2633 3030 
Q 2388 3097 2138 3097 
Q 1578 3097 1268 2742 
Q 959 2388 959 1747 
Q 959 1106 1268 751 
Q 1578 397 2138 397 
Q 2388 397 2633 464 
Q 2878 531 3122 666 
L 3122 134 
Q 2881 22 2623 -34 
Q 2366 -91 2075 -91 
Q 1284 -91 818 406 
Q 353 903 353 1747 
Q 353 2603 823 3093 
Q 1294 3584 2113 3584 
Q 2378 3584 2631 3529 
Q 2884 3475 3122 3366 
z
" id="DejaVuSans-63" transform="scale(0.015625)"/>
      <path d="M 191 3500 
L 800 3500 
L 1894 563 
L 2988 3500 
L 3597 3500 
L 2284 0 
L 1503 0 
L 191 3500 
z
" id="DejaVuSans-76" transform="scale(0.015625)"/>
      <path d="M 2906 2969 
L 2906 4863 
L 3481 4863 
L 3481 0 
L 2906 0 
L 2906 525 
Q 2725 213 2448 61 
Q 2172 -91 1784 -91 
Q 1150 -91 751 415 
Q 353 922 353 1747 
Q 353 2572 751 3078 
Q 1150 3584 1784 3584 
Q 2172 3584 2448 3432 
Q 2725 3281 2906 2969 
z
M 947 1747 
Q 947 1113 1208 752 
Q 1469 391 1925 391 
Q 2381 391 2643 752 
Q 2906 1113 2906 1747 
Q 2906 2381 2643 2742 
Q 2381 3103 1925 3103 
Q 1469 3103 1208 2742 
Q 947 2381 947 1747 
z
" id="DejaVuSans-64" transform="scale(0.015625)"/>
      <path d="M 2906 1791 
Q 2906 2416 2648 2759 
Q 2391 3103 1925 3103 
Q 1463 3103 1205 2759 
Q 947 2416 947 1791 
Q 947 1169 1205 825 
Q 1463 481 1925 481 
Q 2391 481 2648 825 
Q 2906 1169 2906 1791 
z
M 3481 434 
Q 3481 -459 3084 -895 
Q 2688 -1331 1869 -1331 
Q 1566 -1331 1297 -1286 
Q 1028 -1241 775 -1147 
L 775 -588 
Q 1028 -725 1275 -790 
Q 1522 -856 1778 -856 
Q 2344 -856 2625 -561 
Q 2906 -266 2906 331 
L 2906 616 
Q 2728 306 2450 153 
Q 2172 0 1784 0 
Q 1141 0 747 490 
Q 353 981 353 1791 
Q 353 2603 747 3093 
Q 1141 3584 1784 3584 
Q 2172 3584 2450 3431 
Q 2728 3278 2906 2969 
L 2906 3500 
L 3481 3500 
L 3481 434 
z
" id="DejaVuSans-67" transform="scale(0.015625)"/>
      <path d="M 3513 2113 
L 3513 0 
L 2938 0 
L 2938 2094 
Q 2938 2591 2744 2837 
Q 2550 3084 2163 3084 
Q 1697 3084 1428 2787 
Q 1159 2491 1159 1978 
L 1159 0 
L 581 0 
L 581 3500 
L 1159 3500 
L 1159 2956 
Q 1366 3272 1645 3428 
Q 1925 3584 2291 3584 
Q 2894 3584 3203 3211 
Q 3513 2838 3513 2113 
z
" id="DejaVuSans-6e" transform="scale(0.015625)"/>
      <path d="M 2194 1759 
Q 1497 1759 1228 1600 
Q 959 1441 959 1056 
Q 959 750 1161 570 
Q 1363 391 1709 391 
Q 2188 391 2477 730 
Q 2766 1069 2766 1631 
L 2766 1759 
L 2194 1759 
z
M 3341 1997 
L 3341 0 
L 2766 0 
L 2766 531 
Q 2569 213 2275 61 
Q 1981 -91 1556 -91 
Q 1019 -91 701 211 
Q 384 513 384 1019 
Q 384 1609 779 1909 
Q 1175 2209 1959 2209 
L 2766 2209 
L 2766 2266 
Q 2766 2663 2505 2880 
Q 2244 3097 1772 3097 
Q 1472 3097 1187 3025 
Q 903 2953 641 2809 
L 641 3341 
Q 956 3463 1253 3523 
Q 1550 3584 1831 3584 
Q 2591 3584 2966 3190 
Q 3341 2797 3341 1997 
z
" id="DejaVuSans-61" transform="scale(0.015625)"/>
      <path d="M 603 4863 
L 1178 4863 
L 1178 0 
L 603 0 
L 603 4863 
z
" id="DejaVuSans-6c" transform="scale(0.015625)"/>
     </defs>
     <use xlink:href="#DejaVuSans-72"/>
     <use x="38.863281" xlink:href="#DejaVuSans-65"/>
     <use x="100.386719" xlink:href="#DejaVuSans-63"/>
     <use x="155.367188" xlink:href="#DejaVuSans-65"/>
     <use x="216.890625" xlink:href="#DejaVuSans-69"/>
     <use x="244.673828" xlink:href="#DejaVuSans-76"/>
     <use x="303.853516" xlink:href="#DejaVuSans-65"/>
     <use x="365.376953" xlink:href="#DejaVuSans-64"/>
     <use x="428.853516" xlink:href="#DejaVuSans-20"/>
     <use x="460.640625" xlink:href="#DejaVuSans-73"/>
     <use x="512.740234" xlink:href="#DejaVuSans-69"/>
     <use x="540.523438" xlink:href="#DejaVuSans-67"/>
     <use x="604" xlink:href="#DejaVuSans-6e"/>
     <use x="667.378906" xlink:href="#DejaVuSans-61"/>
     <use x="728.658203" xlink:href="#DejaVuSans-6c"/>
     <use x="756.441406" xlink:href="#DejaVuSans-20"/>
     <use x="788.228516" xlink:href="#DejaVuSans-73"/>
     <use x="840.328125" xlink:href="#DejaVuSans-6c"/>
     <use x="868.111328" xlink:href="#DejaVuSans-69"/>
     <use x="895.894531" xlink:href="#DejaVuSans-63"/>
     <use x="950.875" xlink:href="#DejaVuSans-65"/>
     <use x="1012.398438" xlink:href="#DejaVuSans-64"/>
    </g>
   </g>
  </g>
 </g>
 <defs>
  <clipPath id="pdb1a107e0e">
   <rect height="266.112" width="357.12" x="57.6" y="41.472"/>
  </clipPath>
 </defs>
</svg>
