<?xml version="1.0" encoding="utf-8" standalone="no"?>
<!DOCTYPE svg PUBLIC "-//W3C//DTD SVG 1.1//EN"
  "http://www.w3.org/Graphics/SVG/1.1/DTD/svg11.dtd">
<svg height="345.6pt" version="1.1" viewBox="0 0 460.8 345.6" width="460.8pt" xmlns="http://www.w3.org/2000/svg" xmlns:xlink="http://www.w3.org/1999/xlink">
 <metadata>
  <rdf:RDF xmlns:cc="http://creativecommons.org/ns#" xmlns:dc="http://purl.org/dc/elements/1.1/" xmlns:rdf="http://www.w3.org/1999/02/22-rdf-syntax-ns#">
   <cc:Work>
    <dc:type rdf:resource="http://purl.org/dc/dcmitype/StillImage"/>
    <dc:date>2021-11-07T21:56:31.001586</dc:date>
    <dc:format>image/svg+xml</dc:format>
    <dc:creator>
     <cc:Agent>
      <dc:title>Matplotlib v3.4.3, https://matplotlib.org/</dc:title>
     </cc:Agent>
    </dc:creator>
   </cc:Work>
  </rdf:RDF>
 </metadata>
 <defs>
  <style type="text/css">*{stroke-linecap:butt;stroke-linejoin:round;}</style>
 </defs>
 <g id="figure_1">
  <g id="patch_1">
   <path d="M 0 345.6 
L 460.8 345.6 
L 460.8 0 
L 0 0 
z
" style="fill:#ffffff;"/>
  </g>
  <g id="axes_1">
   <g id="patch_2">
    <path d="M 57.6 307.584 
L 414.72 307.584 
L 414.72 41.472 
L 57.6 41.472 
z
" style="fill:#ffffff;"/>
   </g>
   <g id="matplotlib.axis_1">
    <g id="xtick_1">
     <g id="line2d_1">
      <defs>
       <path d="M 0 0 
L 0 3.5 
" id="maba56d6f44" style="stroke:#000000;stroke-width:0.8;"/>
      </defs>
      <g>
       <use style="stroke:#000000;stroke-width:0.8;" x="73.784017" xlink:href="#maba56d6f44" y="307.584"/>
      </g>
     </g>
     <g id="text_1">
      <!-- 300 -->
      <g transform="translate(64.240267 322.182437)scale(0.1 -0.1)">
       <defs>
        <path d="M 2597 2516 
Q 3050 2419 3304 2112 
Q 3559 1806 3559 1356 
Q 3559 666 3084 287 
Q 2609 -91 1734 -91 
Q 1441 -91 1130 -33 
Q 819 25 488 141 
L 488 750 
Q 750 597 1062 519 
Q 1375 441 1716 441 
Q 2309 441 2620 675 
Q 2931 909 2931 1356 
Q 2931 1769 2642 2001 
Q 2353 2234 1838 2234 
L 1294 2234 
L 1294 2753 
L 1863 2753 
Q 2328 2753 2575 2939 
Q 2822 3125 2822 3475 
Q 2822 3834 2567 4026 
Q 2313 4219 1838 4219 
Q 1578 4219 1281 4162 
Q 984 4106 628 3988 
L 628 4550 
Q 988 4650 1302 4700 
Q 1616 4750 1894 4750 
Q 2613 4750 3031 4423 
Q 3450 4097 3450 3541 
Q 3450 3153 3228 2886 
Q 3006 2619 2597 2516 
z
" id="DejaVuSans-33" transform="scale(0.015625)"/>
        <path d="M 2034 4250 
Q 1547 4250 1301 3770 
Q 1056 3291 1056 2328 
Q 1056 1369 1301 889 
Q 1547 409 2034 409 
Q 2525 409 2770 889 
Q 3016 1369 3016 2328 
Q 3016 3291 2770 3770 
Q 2525 4250 2034 4250 
z
M 2034 4750 
Q 2819 4750 3233 4129 
Q 3647 3509 3647 2328 
Q 3647 1150 3233 529 
Q 2819 -91 2034 -91 
Q 1250 -91 836 529 
Q 422 1150 422 2328 
Q 422 3509 836 4129 
Q 1250 4750 2034 4750 
z
" id="DejaVuSans-30" transform="scale(0.015625)"/>
       </defs>
       <use xlink:href="#DejaVuSans-33"/>
       <use x="63.623047" xlink:href="#DejaVuSans-30"/>
       <use x="127.246094" xlink:href="#DejaVuSans-30"/>
      </g>
     </g>
    </g>
    <g id="xtick_2">
     <g id="line2d_2">
      <g>
       <use style="stroke:#000000;stroke-width:0.8;" x="114.371924" xlink:href="#maba56d6f44" y="307.584"/>
      </g>
     </g>
     <g id="text_2">
      <!-- 325 -->
      <g transform="translate(104.828174 322.182437)scale(0.1 -0.1)">
       <defs>
        <path d="M 1228 531 
L 3431 531 
L 3431 0 
L 469 0 
L 469 531 
Q 828 903 1448 1529 
Q 2069 2156 2228 2338 
Q 2531 2678 2651 2914 
Q 2772 3150 2772 3378 
Q 2772 3750 2511 3984 
Q 2250 4219 1831 4219 
Q 1534 4219 1204 4116 
Q 875 4013 500 3803 
L 500 4441 
Q 881 4594 1212 4672 
Q 1544 4750 1819 4750 
Q 2544 4750 2975 4387 
Q 3406 4025 3406 3419 
Q 3406 3131 3298 2873 
Q 3191 2616 2906 2266 
Q 2828 2175 2409 1742 
Q 1991 1309 1228 531 
z
" id="DejaVuSans-32" transform="scale(0.015625)"/>
        <path d="M 691 4666 
L 3169 4666 
L 3169 4134 
L 1269 4134 
L 1269 2991 
Q 1406 3038 1543 3061 
Q 1681 3084 1819 3084 
Q 2600 3084 3056 2656 
Q 3513 2228 3513 1497 
Q 3513 744 3044 326 
Q 2575 -91 1722 -91 
Q 1428 -91 1123 -41 
Q 819 9 494 109 
L 494 744 
Q 775 591 1075 516 
Q 1375 441 1709 441 
Q 2250 441 2565 725 
Q 2881 1009 2881 1497 
Q 2881 1984 2565 2268 
Q 2250 2553 1709 2553 
Q 1456 2553 1204 2497 
Q 953 2441 691 2322 
L 691 4666 
z
" id="DejaVuSans-35" transform="scale(0.015625)"/>
       </defs>
       <use xlink:href="#DejaVuSans-33"/>
       <use x="63.623047" xlink:href="#DejaVuSans-32"/>
       <use x="127.246094" xlink:href="#DejaVuSans-35"/>
      </g>
     </g>
    </g>
    <g id="xtick_3">
     <g id="line2d_3">
      <g>
       <use style="stroke:#000000;stroke-width:0.8;" x="154.959831" xlink:href="#maba56d6f44" y="307.584"/>
      </g>
     </g>
     <g id="text_3">
      <!-- 350 -->
      <g transform="translate(145.416081 322.182437)scale(0.1 -0.1)">
       <use xlink:href="#DejaVuSans-33"/>
       <use x="63.623047" xlink:href="#DejaVuSans-35"/>
       <use x="127.246094" xlink:href="#DejaVuSans-30"/>
      </g>
     </g>
    </g>
    <g id="xtick_4">
     <g id="line2d_4">
      <g>
       <use style="stroke:#000000;stroke-width:0.8;" x="195.547738" xlink:href="#maba56d6f44" y="307.584"/>
      </g>
     </g>
     <g id="text_4">
      <!-- 375 -->
      <g transform="translate(186.003988 322.182437)scale(0.1 -0.1)">
       <defs>
        <path d="M 525 4666 
L 3525 4666 
L 3525 4397 
L 1831 0 
L 1172 0 
L 2766 4134 
L 525 4134 
L 525 4666 
z
" id="DejaVuSans-37" transform="scale(0.015625)"/>
       </defs>
       <use xlink:href="#DejaVuSans-33"/>
       <use x="63.623047" xlink:href="#DejaVuSans-37"/>
       <use x="127.246094" xlink:href="#DejaVuSans-35"/>
      </g>
     </g>
    </g>
    <g id="xtick_5">
     <g id="line2d_5">
      <g>
       <use style="stroke:#000000;stroke-width:0.8;" x="236.135645" xlink:href="#maba56d6f44" y="307.584"/>
      </g>
     </g>
     <g id="text_5">
      <!-- 400 -->
      <g transform="translate(226.591895 322.182437)scale(0.1 -0.1)">
       <defs>
        <path d="M 2419 4116 
L 825 1625 
L 2419 1625 
L 2419 4116 
z
M 2253 4666 
L 3047 4666 
L 3047 1625 
L 3713 1625 
L 3713 1100 
L 3047 1100 
L 3047 0 
L 2419 0 
L 2419 1100 
L 313 1100 
L 313 1709 
L 2253 4666 
z
" id="DejaVuSans-34" transform="scale(0.015625)"/>
       </defs>
       <use xlink:href="#DejaVuSans-34"/>
       <use x="63.623047" xlink:href="#DejaVuSans-30"/>
       <use x="127.246094" xlink:href="#DejaVuSans-30"/>
      </g>
     </g>
    </g>
    <g id="xtick_6">
     <g id="line2d_6">
      <g>
       <use style="stroke:#000000;stroke-width:0.8;" x="276.723552" xlink:href="#maba56d6f44" y="307.584"/>
      </g>
     </g>
     <g id="text_6">
      <!-- 425 -->
      <g transform="translate(267.179802 322.182437)scale(0.1 -0.1)">
       <use xlink:href="#DejaVuSans-34"/>
       <use x="63.623047" xlink:href="#DejaVuSans-32"/>
       <use x="127.246094" xlink:href="#DejaVuSans-35"/>
      </g>
     </g>
    </g>
    <g id="xtick_7">
     <g id="line2d_7">
      <g>
       <use style="stroke:#000000;stroke-width:0.8;" x="317.311459" xlink:href="#maba56d6f44" y="307.584"/>
      </g>
     </g>
     <g id="text_7">
      <!-- 450 -->
      <g transform="translate(307.767709 322.182437)scale(0.1 -0.1)">
       <use xlink:href="#DejaVuSans-34"/>
       <use x="63.623047" xlink:href="#DejaVuSans-35"/>
       <use x="127.246094" xlink:href="#DejaVuSans-30"/>
      </g>
     </g>
    </g>
    <g id="xtick_8">
     <g id="line2d_8">
      <g>
       <use style="stroke:#000000;stroke-width:0.8;" x="357.899366" xlink:href="#maba56d6f44" y="307.584"/>
      </g>
     </g>
     <g id="text_8">
      <!-- 475 -->
      <g transform="translate(348.355616 322.182437)scale(0.1 -0.1)">
       <use xlink:href="#DejaVuSans-34"/>
       <use x="63.623047" xlink:href="#DejaVuSans-37"/>
       <use x="127.246094" xlink:href="#DejaVuSans-35"/>
      </g>
     </g>
    </g>
    <g id="xtick_9">
     <g id="line2d_9">
      <g>
       <use style="stroke:#000000;stroke-width:0.8;" x="398.487273" xlink:href="#maba56d6f44" y="307.584"/>
      </g>
     </g>
     <g id="text_9">
      <!-- 500 -->
      <g transform="translate(388.943523 322.182437)scale(0.1 -0.1)">
       <use xlink:href="#DejaVuSans-35"/>
       <use x="63.623047" xlink:href="#DejaVuSans-30"/>
       <use x="127.246094" xlink:href="#DejaVuSans-30"/>
      </g>
     </g>
    </g>
    <g id="text_10">
     <!-- time [ms] -->
     <g transform="translate(211.898281 335.860562)scale(0.1 -0.1)">
      <defs>
       <path d="M 1172 4494 
L 1172 3500 
L 2356 3500 
L 2356 3053 
L 1172 3053 
L 1172 1153 
Q 1172 725 1289 603 
Q 1406 481 1766 481 
L 2356 481 
L 2356 0 
L 1766 0 
Q 1100 0 847 248 
Q 594 497 594 1153 
L 594 3053 
L 172 3053 
L 172 3500 
L 594 3500 
L 594 4494 
L 1172 4494 
z
" id="DejaVuSans-74" transform="scale(0.015625)"/>
       <path d="M 603 3500 
L 1178 3500 
L 1178 0 
L 603 0 
L 603 3500 
z
M 603 4863 
L 1178 4863 
L 1178 4134 
L 603 4134 
L 603 4863 
z
" id="DejaVuSans-69" transform="scale(0.015625)"/>
       <path d="M 3328 2828 
Q 3544 3216 3844 3400 
Q 4144 3584 4550 3584 
Q 5097 3584 5394 3201 
Q 5691 2819 5691 2113 
L 5691 0 
L 5113 0 
L 5113 2094 
Q 5113 2597 4934 2840 
Q 4756 3084 4391 3084 
Q 3944 3084 3684 2787 
Q 3425 2491 3425 1978 
L 3425 0 
L 2847 0 
L 2847 2094 
Q 2847 2600 2669 2842 
Q 2491 3084 2119 3084 
Q 1678 3084 1418 2786 
Q 1159 2488 1159 1978 
L 1159 0 
L 581 0 
L 581 3500 
L 1159 3500 
L 1159 2956 
Q 1356 3278 1631 3431 
Q 1906 3584 2284 3584 
Q 2666 3584 2933 3390 
Q 3200 3197 3328 2828 
z
" id="DejaVuSans-6d" transform="scale(0.015625)"/>
       <path d="M 3597 1894 
L 3597 1613 
L 953 1613 
Q 991 1019 1311 708 
Q 1631 397 2203 397 
Q 2534 397 2845 478 
Q 3156 559 3463 722 
L 3463 178 
Q 3153 47 2828 -22 
Q 2503 -91 2169 -91 
Q 1331 -91 842 396 
Q 353 884 353 1716 
Q 353 2575 817 3079 
Q 1281 3584 2069 3584 
Q 2775 3584 3186 3129 
Q 3597 2675 3597 1894 
z
M 3022 2063 
Q 3016 2534 2758 2815 
Q 2500 3097 2075 3097 
Q 1594 3097 1305 2825 
Q 1016 2553 972 2059 
L 3022 2063 
z
" id="DejaVuSans-65" transform="scale(0.015625)"/>
       <path id="DejaVuSans-20" transform="scale(0.015625)"/>
       <path d="M 550 4863 
L 1875 4863 
L 1875 4416 
L 1125 4416 
L 1125 -397 
L 1875 -397 
L 1875 -844 
L 550 -844 
L 550 4863 
z
" id="DejaVuSans-5b" transform="scale(0.015625)"/>
       <path d="M 2834 3397 
L 2834 2853 
Q 2591 2978 2328 3040 
Q 2066 3103 1784 3103 
Q 1356 3103 1142 2972 
Q 928 2841 928 2578 
Q 928 2378 1081 2264 
Q 1234 2150 1697 2047 
L 1894 2003 
Q 2506 1872 2764 1633 
Q 3022 1394 3022 966 
Q 3022 478 2636 193 
Q 2250 -91 1575 -91 
Q 1294 -91 989 -36 
Q 684 19 347 128 
L 347 722 
Q 666 556 975 473 
Q 1284 391 1588 391 
Q 1994 391 2212 530 
Q 2431 669 2431 922 
Q 2431 1156 2273 1281 
Q 2116 1406 1581 1522 
L 1381 1569 
Q 847 1681 609 1914 
Q 372 2147 372 2553 
Q 372 3047 722 3315 
Q 1072 3584 1716 3584 
Q 2034 3584 2315 3537 
Q 2597 3491 2834 3397 
z
" id="DejaVuSans-73" transform="scale(0.015625)"/>
       <path d="M 1947 4863 
L 1947 -844 
L 622 -844 
L 622 -397 
L 1369 -397 
L 1369 4416 
L 622 4416 
L 622 4863 
L 1947 4863 
z
" id="DejaVuSans-5d" transform="scale(0.015625)"/>
      </defs>
      <use xlink:href="#DejaVuSans-74"/>
      <use x="39.208984" xlink:href="#DejaVuSans-69"/>
      <use x="66.992188" xlink:href="#DejaVuSans-6d"/>
      <use x="164.404297" xlink:href="#DejaVuSans-65"/>
      <use x="225.927734" xlink:href="#DejaVuSans-20"/>
      <use x="257.714844" xlink:href="#DejaVuSans-5b"/>
      <use x="296.728516" xlink:href="#DejaVuSans-6d"/>
      <use x="394.140625" xlink:href="#DejaVuSans-73"/>
      <use x="446.240234" xlink:href="#DejaVuSans-5d"/>
     </g>
    </g>
   </g>
   <g id="matplotlib.axis_2">
    <g id="ytick_1">
     <g id="line2d_10">
      <defs>
       <path d="M 0 0 
L -3.5 0 
" id="m3152094874" style="stroke:#000000;stroke-width:0.8;"/>
      </defs>
      <g>
       <use style="stroke:#000000;stroke-width:0.8;" x="57.6" xlink:href="#m3152094874" y="288.923053"/>
      </g>
     </g>
     <g id="text_11">
      <!-- $\mathdefault{−3}$ -->
      <g transform="translate(35.8 292.722272)scale(0.1 -0.1)">
       <defs>
        <path d="M 678 2272 
L 4684 2272 
L 4684 1741 
L 678 1741 
L 678 2272 
z
" id="DejaVuSans-2212" transform="scale(0.015625)"/>
       </defs>
       <use transform="translate(0 0.78125)" xlink:href="#DejaVuSans-2212"/>
       <use transform="translate(83.789062 0.78125)" xlink:href="#DejaVuSans-33"/>
      </g>
     </g>
    </g>
    <g id="ytick_2">
     <g id="line2d_11">
      <g>
       <use style="stroke:#000000;stroke-width:0.8;" x="57.6" xlink:href="#m3152094874" y="252.405353"/>
      </g>
     </g>
     <g id="text_12">
      <!-- $\mathdefault{−2}$ -->
      <g transform="translate(35.8 256.204572)scale(0.1 -0.1)">
       <use transform="translate(0 0.78125)" xlink:href="#DejaVuSans-2212"/>
       <use transform="translate(83.789062 0.78125)" xlink:href="#DejaVuSans-32"/>
      </g>
     </g>
    </g>
    <g id="ytick_3">
     <g id="line2d_12">
      <g>
       <use style="stroke:#000000;stroke-width:0.8;" x="57.6" xlink:href="#m3152094874" y="215.887653"/>
      </g>
     </g>
     <g id="text_13">
      <!-- $\mathdefault{−1}$ -->
      <g transform="translate(35.8 219.686871)scale(0.1 -0.1)">
       <defs>
        <path d="M 794 531 
L 1825 531 
L 1825 4091 
L 703 3866 
L 703 4441 
L 1819 4666 
L 2450 4666 
L 2450 531 
L 3481 531 
L 3481 0 
L 794 0 
L 794 531 
z
" id="DejaVuSans-31" transform="scale(0.015625)"/>
       </defs>
       <use transform="translate(0 0.09375)" xlink:href="#DejaVuSans-2212"/>
       <use transform="translate(83.789062 0.09375)" xlink:href="#DejaVuSans-31"/>
      </g>
     </g>
    </g>
    <g id="ytick_4">
     <g id="line2d_13">
      <g>
       <use style="stroke:#000000;stroke-width:0.8;" x="57.6" xlink:href="#m3152094874" y="179.369952"/>
      </g>
     </g>
     <g id="text_14">
      <!-- $\mathdefault{0}$ -->
      <g transform="translate(44.2 183.169171)scale(0.1 -0.1)">
       <use transform="translate(0 0.78125)" xlink:href="#DejaVuSans-30"/>
      </g>
     </g>
    </g>
    <g id="ytick_5">
     <g id="line2d_14">
      <g>
       <use style="stroke:#000000;stroke-width:0.8;" x="57.6" xlink:href="#m3152094874" y="142.852252"/>
      </g>
     </g>
     <g id="text_15">
      <!-- $\mathdefault{1}$ -->
      <g transform="translate(44.2 146.651471)scale(0.1 -0.1)">
       <use transform="translate(0 0.09375)" xlink:href="#DejaVuSans-31"/>
      </g>
     </g>
    </g>
    <g id="ytick_6">
     <g id="line2d_15">
      <g>
       <use style="stroke:#000000;stroke-width:0.8;" x="57.6" xlink:href="#m3152094874" y="106.334552"/>
      </g>
     </g>
     <g id="text_16">
      <!-- $\mathdefault{2}$ -->
      <g transform="translate(44.2 110.133771)scale(0.1 -0.1)">
       <use transform="translate(0 0.78125)" xlink:href="#DejaVuSans-32"/>
      </g>
     </g>
    </g>
    <g id="ytick_7">
     <g id="line2d_16">
      <g>
       <use style="stroke:#000000;stroke-width:0.8;" x="57.6" xlink:href="#m3152094874" y="69.816852"/>
      </g>
     </g>
     <g id="text_17">
      <!-- $\mathdefault{3}$ -->
      <g transform="translate(44.2 73.616071)scale(0.1 -0.1)">
       <use transform="translate(0 0.78125)" xlink:href="#DejaVuSans-33"/>
      </g>
     </g>
    </g>
    <g id="text_18">
     <!-- $\times\mathdefault{10^{−4}}\mathdefault{}$ -->
     <g transform="translate(57.6 38.472)scale(0.1 -0.1)">
      <defs>
       <path d="M 4488 3438 
L 3059 2003 
L 4488 575 
L 4116 197 
L 2681 1631 
L 1247 197 
L 878 575 
L 2303 2003 
L 878 3438 
L 1247 3816 
L 2681 2381 
L 4116 3816 
L 4488 3438 
z
" id="DejaVuSans-d7" transform="scale(0.015625)"/>
      </defs>
      <use transform="translate(0 0.684375)" xlink:href="#DejaVuSans-d7"/>
      <use transform="translate(83.789062 0.684375)" xlink:href="#DejaVuSans-31"/>
      <use transform="translate(147.412109 0.684375)" xlink:href="#DejaVuSans-30"/>
      <use transform="translate(211.992188 38.965625)scale(0.7)" xlink:href="#DejaVuSans-2212"/>
      <use transform="translate(270.644531 38.965625)scale(0.7)" xlink:href="#DejaVuSans-34"/>
     </g>
    </g>
   </g>
   <g id="line2d_17">
    <path clip-path="url(#p1411c09277)" d="M 73.832727 220.124269 
L 73.913911 239.496765 
L 74.076279 91.840512 
L 74.238647 246.584264 
L 74.401015 86.170511 
L 74.563383 251.309263 
L 74.725751 82.86301 
L 74.888118 253.435512 
L 75.050486 81.918009 
L 75.212854 253.199262 
L 75.375222 83.80801 
L 75.53759 250.364263 
L 75.618774 85.46176 
L 75.699958 87.588011 
L 75.781142 249.655513 
L 75.862326 245.403014 
L 75.94351 87.115511 
L 76.024693 93.021762 
L 76.105877 246.820514 
L 76.187061 238.551765 
L 76.268245 90.423012 
L 76.349429 100.581764 
L 76.430613 242.095515 
L 76.511797 230.046767 
L 76.592981 96.801763 
L 76.674165 109.323016 
L 76.755349 234.535516 
L 76.836533 219.888019 
L 76.917717 105.306765 
L 76.998901 119.954268 
L 77.080085 224.849268 
L 77.161268 209.49302 
L 77.242452 116.174267 
L 77.323636 130.821769 
L 77.40482 213.509269 
L 77.486004 198.625521 
L 77.567188 128.695519 
L 77.648372 141.925521 
L 77.729556 200.043021 
L 77.81074 187.285522 
L 77.891924 142.870521 
L 77.973108 153.265521 
L 78.054292 184.686772 
L 78.135476 176.181772 
L 78.21666 158.463022 
L 78.297844 164.369272 
L 78.379027 168.858022 
L 78.460211 166.023022 
L 78.541395 174.291772 
L 78.622579 173.819272 
L 78.703763 152.320521 
L 78.784947 156.809272 
L 78.866131 191.065521 
L 78.947315 183.033022 
L 79.028499 136.25552 
L 79.109683 148.540521 
L 79.190867 207.13052 
L 79.272051 191.065521 
L 79.353235 119.954268 
L 79.434419 140.508021 
L 79.515603 223.668018 
L 79.596786 197.444271 
L 79.67797 105.543015 
L 79.759154 135.54677 
L 79.840338 237.843016 
L 79.921522 202.169271 
L 80.002706 91.368012 
L 80.08389 131.53052 
L 80.165074 251.073013 
L 80.246258 205.47677 
L 80.327442 79.083009 
L 80.408626 129.168019 
L 80.48981 262.17676 
L 80.570994 207.60302 
L 80.652178 69.869256 
L 80.733362 128.459269 
L 80.814545 271.154258 
L 80.976913 62.781753 
L 81.058097 128.459269 
L 81.139281 276.824256 
L 81.301649 58.529252 
L 81.382833 130.585519 
L 81.464017 279.895505 
L 81.626385 56.639251 
L 81.707569 133.42052 
L 81.788753 280.368005 
L 81.951121 57.820502 
L 82.032304 137.43677 
L 82.113488 277.296756 
L 82.275856 62.781753 
L 82.35704 141.925521 
L 82.438224 270.918008 
L 82.600592 70.341756 
L 82.76296 261.70426 
L 82.925328 80.500509 
L 83.087696 250.128013 
L 83.250063 93.021762 
L 83.412431 235.716766 
L 83.574799 107.669266 
L 83.737167 220.124269 
L 83.899535 124.679269 
L 84.061903 202.169271 
L 84.224271 142.870521 
L 84.386638 183.741772 
L 84.549006 161.770522 
L 84.63019 167.676772 
L 84.711374 164.605522 
L 84.792558 167.676772 
L 84.873742 181.143022 
L 85.03611 145.469271 
L 85.198478 199.806771 
L 85.360846 126.569269 
L 85.523214 218.234269 
L 85.685581 109.559266 
L 85.847949 235.008016 
L 86.010317 94.203013 
L 86.172685 250.128013 
L 86.335053 80.500509 
L 86.497421 262.17676 
L 86.659789 69.869256 
L 86.822156 272.099257 
L 86.984524 61.128003 
L 87.146892 279.423005 
L 87.30926 55.930501 
L 87.471628 283.203004 
L 87.633996 53.80425 
L 87.796364 284.620504 
L 87.958732 54.513 
L 88.121099 282.021754 
L 88.283467 58.056752 
L 88.445835 277.060506 
L 88.608203 64.908004 
L 88.770571 268.555508 
L 88.932939 74.358007 
L 89.095307 257.215511 
L 89.257674 86.643011 
L 89.420042 244.458014 
L 89.58241 100.345514 
L 89.744778 229.101767 
L 89.907146 115.701767 
L 90.069514 212.56427 
L 90.231882 132.94802 
L 90.394249 195.554271 
L 90.556617 149.721771 
L 90.718985 178.071772 
L 90.800169 166.023022 
L 90.881353 167.440522 
L 90.962537 166.731772 
L 91.043721 160.116772 
L 91.206089 184.686772 
L 91.368457 144.051771 
L 91.530825 201.460521 
L 91.693192 128.223019 
L 91.85556 216.344269 
L 92.017928 114.048017 
L 92.180296 229.574267 
L 92.342664 101.526764 
L 92.505032 241.150515 
L 92.6674 91.604262 
L 92.829767 249.655513 
L 92.992135 84.51676 
L 93.154503 256.270512 
L 93.316871 79.555509 
L 93.479239 260.050511 
L 93.641607 76.720508 
L 93.803975 260.99551 
L 93.966342 77.429258 
L 94.12871 259.814261 
L 94.291078 80.028009 
L 94.453446 256.034262 
L 94.615814 85.22551 
L 94.778182 249.891763 
L 94.94055 91.840512 
L 95.102918 241.623015 
L 95.184101 100.581764 
L 95.265285 100.818014 
L 95.346469 233.826766 
L 95.427653 231.700517 
L 95.508837 107.433016 
L 95.590021 111.449266 
L 95.671205 226.266768 
L 95.752389 220.360518 
L 95.833573 116.174267 
L 95.914757 123.025518 
L 95.995941 216.344269 
L 96.077125 209.02052 
L 96.158309 127.041769 
L 96.239493 135.07427 
L 96.320677 204.29552 
L 96.40186 196.499271 
L 96.483044 139.56302 
L 96.564228 147.595521 
L 96.645412 191.301771 
L 96.726596 184.214272 
L 96.80778 153.265521 
L 96.888964 159.408022 
L 96.970148 177.126772 
L 97.051332 171.693022 
L 97.132516 168.385522 
L 97.2137 171.456772 
L 97.376068 161.298022 
L 97.457252 183.978022 
L 97.538436 182.324272 
L 97.619619 145.941771 
L 97.700803 150.430521 
L 97.781987 199.806771 
L 97.863171 192.010521 
L 97.944355 130.349269 
L 98.025539 141.216771 
L 98.106723 215.399269 
L 98.187907 200.515521 
L 98.269091 115.465517 
L 98.350275 133.89302 
L 98.431459 229.810517 
L 98.512643 207.13052 
L 98.593827 101.290514 
L 98.675011 127.750519 
L 98.756195 243.276764 
L 98.837378 212.32802 
L 98.918562 89.005511 
L 98.999746 124.443019 
L 99.08093 255.325512 
L 99.162114 215.635519 
L 99.243298 78.374258 
L 99.324482 120.899268 
L 99.405666 265.011759 
L 99.48685 217.053019 
L 99.568034 70.105506 
L 99.649218 120.663018 
L 99.730402 271.863007 
L 99.811586 217.289269 
L 99.89277 64.908004 
L 99.973953 121.371768 
L 100.055137 276.824256 
L 100.136321 215.635519 
L 100.217505 61.600503 
L 100.298689 123.970519 
L 100.379873 278.241756 
L 100.542241 61.600503 
L 100.623425 127.278019 
L 100.704609 277.060506 
L 100.866977 64.671754 
L 100.948161 132.00302 
L 101.029345 272.571757 
L 101.191712 70.341756 
L 101.272896 136.96427 
L 101.35408 265.484259 
L 101.516448 78.846759 
L 101.597632 142.634271 
L 101.678816 255.089262 
L 101.841184 89.950512 
L 101.922368 148.540521 
L 102.003552 242.095515 
L 102.16592 103.653015 
L 102.328288 227.211767 
L 102.490655 119.245518 
L 102.653023 210.43802 
L 102.815391 136.49177 
L 102.977759 192.719271 
L 103.140127 154.919272 
L 103.302495 173.583022 
L 103.383679 168.858022 
L 103.464863 174.528022 
L 103.546047 170.275522 
L 103.62723 155.155522 
L 103.789598 192.955521 
L 103.951966 136.01927 
L 104.114334 211.14677 
L 104.276702 118.300518 
L 104.43907 229.101767 
L 104.601438 101.526764 
L 104.763805 244.694264 
L 104.926173 87.351761 
L 105.088541 258.396761 
L 105.250909 74.830507 
L 105.413277 269.973008 
L 105.575645 64.908004 
L 105.738013 278.478006 
L 105.900381 58.056752 
L 106.062748 284.620504 
L 106.225116 54.27675 
L 106.387484 287.455503 
L 106.549852 53.568 
L 106.71222 286.274253 
L 106.874588 55.458001 
L 107.036956 282.494254 
L 107.199323 60.891753 
L 107.361691 275.170506 
L 107.524059 69.396756 
L 107.686427 265.248009 
L 107.848795 80.028009 
L 108.011163 253.435512 
L 108.173531 93.258012 
L 108.335899 239.024265 
L 108.498266 108.141766 
L 108.660634 222.723018 
L 108.823002 124.915519 
L 108.98537 205.47677 
L 109.147738 142.634271 
L 109.310106 187.285522 
L 109.472474 161.061772 
L 109.553658 170.511772 
L 109.634841 169.094272 
L 109.716025 170.984272 
L 109.797209 178.780522 
L 109.959577 151.848021 
L 110.121945 196.263021 
L 110.284313 134.83802 
L 110.446681 213.036769 
L 110.609049 119.245518 
L 110.771416 228.156767 
L 110.933784 105.306765 
L 111.096152 240.678015 
L 111.25852 93.494263 
L 111.420888 251.309263 
L 111.583256 84.28051 
L 111.745624 259.814261 
L 111.907992 77.901758 
L 112.070359 265.484259 
L 112.232727 74.121757 
L 112.395095 267.846759 
L 112.557463 72.468007 
L 112.719831 267.846759 
L 112.882199 74.358007 
L 113.044567 265.248009 
L 113.206934 77.901758 
L 113.369302 259.814261 
L 113.53167 84.04426 
L 113.694038 252.254263 
L 113.856406 92.549262 
L 114.018774 242.568015 
L 114.181142 103.180515 
L 114.34351 231.464267 
L 114.505877 114.520517 
L 114.668245 219.179269 
L 114.749429 127.278019 
L 114.830613 127.514269 
L 114.911797 207.83927 
L 114.992981 206.18552 
L 115.074165 137.67302 
L 115.155349 140.03552 
L 115.236533 196.263021 
L 115.317717 192.719271 
L 115.398901 150.194271 
L 115.480085 153.974272 
L 115.561268 183.505522 
L 115.642452 179.253022 
L 115.723636 163.424272 
L 115.80482 166.968022 
L 115.886004 169.330522 
L 115.967188 166.023022 
L 116.129556 179.961772 
L 116.291924 154.210522 
L 116.373108 192.483021 
L 116.454292 190.829271 
L 116.535476 140.03552 
L 116.61666 143.343021 
L 116.697844 207.13052 
L 116.779027 201.696771 
L 116.860211 125.388019 
L 116.941395 134.12927 
L 117.022579 221.778018 
L 117.103763 210.43802 
L 117.184947 111.449266 
L 117.266131 126.096769 
L 117.347315 235.008016 
L 117.428499 217.289269 
L 117.509683 98.691764 
L 117.590867 120.190518 
L 117.672051 247.293014 
L 117.753235 222.250518 
L 117.834419 88.060511 
L 117.915603 116.410517 
L 117.996786 257.924261 
L 118.07797 225.794268 
L 118.159154 78.846759 
L 118.240338 113.575517 
L 118.321522 265.720509 
L 118.402706 226.975517 
L 118.48389 71.995506 
L 118.565074 113.811767 
L 118.646258 271.863007 
L 118.727442 226.739268 
L 118.808626 67.506755 
L 118.88981 114.993017 
L 118.970994 274.698007 
L 119.052178 223.904268 
L 119.133362 65.853004 
L 119.214545 117.828018 
L 119.295729 274.934257 
L 119.376913 220.596768 
L 119.458097 67.743005 
L 119.539281 121.844268 
L 119.620465 272.099257 
L 119.701649 215.635519 
L 119.782833 71.759256 
L 119.864017 127.750519 
L 119.945201 266.665509 
L 120.107569 78.374258 
L 120.188753 133.65677 
L 120.269937 257.924261 
L 120.432304 88.296761 
L 120.513488 140.03552 
L 120.594672 246.820514 
L 120.75704 100.581764 
L 120.838224 146.886771 
L 120.919408 233.354266 
L 121.081776 114.756767 
L 121.16296 153.501772 
L 121.244144 218.234269 
L 121.406512 130.821769 
L 121.487696 159.880522 
L 121.568879 200.988021 
L 121.731247 148.304271 
L 121.893615 183.033022 
L 122.055983 166.968022 
L 122.137167 170.511772 
L 122.218351 164.133022 
L 122.299535 167.676772 
L 122.380719 185.631772 
L 122.461903 174.055522 
L 122.543087 145.705521 
L 122.705455 203.82302 
L 122.786638 177.126772 
L 122.867822 127.986769 
L 123.03019 222.250518 
L 123.192558 110.268016 
L 123.354926 238.551765 
L 123.517294 95.148013 
L 123.679662 253.671762 
L 123.84203 81.918009 
L 124.004397 265.720509 
L 124.166765 70.578006 
L 124.329133 275.879256 
L 124.491501 62.073003 
L 124.653869 283.439254 
L 124.816237 56.166751 
L 124.978605 287.691753 
L 125.140973 53.568 
L 125.30334 288.873002 
L 125.465708 54.513 
L 125.628076 286.038003 
L 125.790444 58.529252 
L 125.952812 280.840505 
L 126.11518 65.616754 
L 126.277548 272.571757 
L 126.439915 74.830507 
L 126.602283 260.99551 
L 126.764651 87.351761 
L 126.927019 247.765514 
L 127.089387 101.526764 
L 127.251755 232.173017 
L 127.414123 117.591768 
L 127.57649 215.399269 
L 127.738858 134.83802 
L 127.901226 197.208021 
L 128.063594 153.265521 
L 128.225962 178.544272 
L 128.307146 170.039272 
L 128.38833 172.165522 
L 128.469514 168.858022 
L 128.550698 159.644272 
L 128.713066 190.593021 
L 128.875433 141.689271 
L 129.037801 207.60302 
L 129.200169 125.151769 
L 129.362537 224.140518 
L 129.524905 109.795516 
L 129.687273 239.024265 
L 129.849641 96.329263 
L 130.012008 251.309263 
L 130.174376 85.934261 
L 130.336744 261.46801 
L 130.499112 77.429258 
L 130.66148 268.555508 
L 130.823848 71.995506 
L 130.986216 273.044257 
L 131.148584 69.160506 
L 131.310951 274.698007 
L 131.473319 69.160506 
L 131.635687 273.044257 
L 131.798055 71.523006 
L 131.960423 269.028008 
L 132.122791 76.720508 
L 132.285159 262.17676 
L 132.447526 84.98926 
L 132.609894 253.199262 
L 132.772262 94.675513 
L 132.93463 242.095515 
L 133.096998 106.251765 
L 133.259366 229.574267 
L 133.421734 119.009268 
L 133.584101 216.108019 
L 133.746469 132.94802 
L 133.908837 201.696771 
L 134.071205 147.123021 
L 134.152389 188.230522 
L 134.233573 187.285522 
L 134.314757 159.408022 
L 134.395941 161.298022 
L 134.477125 176.181772 
L 134.558309 173.110522 
L 134.639493 172.401772 
L 134.720677 175.945522 
L 134.883044 159.408022 
L 135.045412 189.175522 
L 135.20778 146.650521 
L 135.370148 201.460521 
L 135.532516 135.54677 
L 135.6137 213.509269 
L 135.694884 211.61927 
L 135.776068 121.608018 
L 135.857252 125.860519 
L 135.938436 226.503018 
L 136.019619 220.596768 
L 136.100803 109.559266 
L 136.181987 117.828018 
L 136.263171 238.788015 
L 136.344355 227.684267 
L 136.425539 98.455514 
L 136.506723 112.158017 
L 136.587907 249.655513 
L 136.669091 232.409267 
L 136.750275 88.296761 
L 136.831459 108.141766 
L 136.912643 258.869261 
L 136.993827 235.008016 
L 137.075011 80.736759 
L 137.156195 106.960516 
L 137.237378 265.720509 
L 137.318562 236.425516 
L 137.399746 75.303007 
L 137.48093 106.488015 
L 137.562114 269.973008 
L 137.643298 235.244266 
L 137.724482 72.468007 
L 137.805666 108.850516 
L 137.88685 271.154258 
L 137.968034 231.700517 
L 138.049218 72.231757 
L 138.130402 112.394267 
L 138.211586 270.445508 
L 138.29277 227.211767 
L 138.373953 75.066757 
L 138.455137 117.828018 
L 138.536321 266.193009 
L 138.617505 221.541768 
L 138.698689 80.028009 
L 138.779873 124.206769 
L 138.861057 260.050511 
L 138.942241 214.926769 
L 139.023425 87.824261 
L 139.104609 131.058019 
L 139.185793 249.891763 
L 139.266977 207.60302 
L 139.348161 98.455514 
L 139.429345 138.85427 
L 139.510529 238.079266 
L 139.672896 110.976766 
L 139.75408 146.886771 
L 139.835264 224.376768 
L 139.997632 125.860519 
L 140.078816 154.683022 
L 140.16 208.54802 
L 140.322368 142.161771 
L 140.403552 161.770522 
L 140.484736 191.538021 
L 140.647104 159.880522 
L 140.809471 173.583022 
L 140.890655 170.511772 
L 140.971839 177.599272 
L 141.053023 174.528022 
L 141.134207 155.155522 
L 141.215391 165.078022 
L 141.296575 196.263021 
L 141.377759 179.253022 
L 141.458943 136.72802 
L 141.621311 214.218019 
L 141.702495 183.269272 
L 141.783679 119.481768 
L 141.946047 231.700517 
L 142.02723 185.631772 
L 142.108414 103.653015 
L 142.270782 247.056764 
L 142.43315 89.478012 
L 142.595518 260.75926 
L 142.757886 76.956758 
L 142.920254 272.099257 
L 143.082622 67.270505 
L 143.244989 281.313005 
L 143.407357 60.419253 
L 143.569725 286.510503 
L 143.732093 56.166751 
L 143.894461 289.581752 
L 144.056829 54.74925 
L 144.219197 288.636752 
L 144.381564 57.348001 
L 144.543932 284.856754 
L 144.7063 63.018003 
L 144.868668 277.769256 
L 145.031036 70.814256 
L 145.193404 267.846759 
L 145.355772 81.681759 
L 145.51814 255.561762 
L 145.680507 95.148013 
L 145.842875 241.150515 
L 146.005243 110.740516 
L 146.167611 224.613018 
L 146.329979 127.750519 
L 146.492347 206.42177 
L 146.654715 145.941771 
L 146.817082 187.758022 
L 146.97945 165.078022 
L 147.060634 171.693022 
L 147.141818 168.858022 
L 147.223002 172.874272 
L 147.304186 183.741772 
L 147.466554 150.194271 
L 147.628922 202.405521 
L 147.79129 132.23927 
L 147.953658 219.651769 
L 148.116025 115.701767 
L 148.278393 235.480516 
L 148.440761 101.290514 
L 148.603129 249.419263 
L 148.765497 88.533011 
L 148.927865 261.23176 
L 149.090233 78.374258 
L 149.2526 269.973008 
L 149.414968 71.050506 
L 149.577336 275.879256 
L 149.739704 66.561755 
L 149.902072 279.423005 
L 150.06444 64.671754 
L 150.226808 279.423005 
L 150.389175 66.325505 
L 150.551543 276.351756 
L 150.713911 70.105506 
L 150.876279 271.154258 
L 151.038647 77.193008 
L 151.201015 262.88551 
L 151.363383 86.643011 
L 151.525751 252.726762 
L 151.688118 97.510513 
L 151.850486 239.733015 
L 152.012854 110.740516 
L 152.175222 226.503018 
L 152.33759 125.151769 
L 152.499958 211.38302 
L 152.662326 139.79927 
L 152.824693 196.263021 
L 152.987061 155.391772 
L 153.068245 181.379272 
L 153.149429 180.434272 
L 153.230613 167.913022 
L 153.311797 170.275522 
L 153.392981 169.803022 
L 153.474165 165.550522 
L 153.636533 185.159272 
L 153.798901 151.375521 
L 153.961268 199.334271 
L 154.123636 138.38177 
L 154.286004 211.61927 
L 154.448372 126.805519 
L 154.61074 222.486768 
L 154.773108 117.355517 
L 154.935476 230.991767 
L 155.01666 108.614266 
L 155.097844 109.086766 
L 155.179027 240.914265 
L 155.260211 237.843016 
L 155.341395 98.455514 
L 155.422579 103.653015 
L 155.503763 250.128013 
L 155.584947 242.804265 
L 155.666131 90.423012 
L 155.747315 100.581764 
L 155.828499 257.924261 
L 155.909683 244.930514 
L 155.990867 84.28051 
L 156.072051 99.873014 
L 156.153235 263.12176 
L 156.234419 244.458014 
L 156.315603 79.791759 
L 156.396786 100.581764 
L 156.47797 265.956759 
L 156.559154 242.331765 
L 156.640338 78.374258 
L 156.721522 103.653015 
L 156.802706 266.429259 
L 156.88389 238.315515 
L 156.965074 79.555509 
L 157.046258 108.141766 
L 157.127442 264.06676 
L 157.208626 233.354266 
L 157.28981 82.86301 
L 157.370994 114.284267 
L 157.452178 259.341761 
L 157.533362 226.266768 
L 157.614545 88.769261 
L 157.695729 122.080518 
L 157.776913 251.545513 
L 157.858097 217.998019 
L 157.939281 97.746764 
L 158.020465 130.113019 
L 158.101649 241.623015 
L 158.182833 209.49302 
L 158.264017 108.850516 
L 158.345201 139.09052 
L 158.426385 229.101767 
L 158.507569 200.043021 
L 158.588753 122.080518 
L 158.669937 148.304271 
L 158.751121 214.690519 
L 158.832304 191.065521 
L 158.913488 137.20052 
L 159.075856 198.861771 
L 159.15704 182.796772 
L 159.238224 153.738022 
L 159.400592 181.851772 
L 159.481776 174.291772 
L 159.56296 170.748022 
L 159.644144 173.583022 
L 159.725328 164.133022 
L 159.806512 166.968022 
L 159.887696 188.939272 
L 159.968879 180.198022 
L 160.050063 146.886771 
L 160.131247 160.589272 
L 160.212431 206.65802 
L 160.293615 185.868022 
L 160.374799 128.931769 
L 160.455983 155.864272 
L 160.537167 223.668018 
L 160.618351 190.829271 
L 160.699535 112.866767 
L 160.861903 239.969265 
L 160.943087 193.664271 
L 161.024271 97.510513 
L 161.186638 254.144262 
L 161.267822 195.318021 
L 161.349006 84.51676 
L 161.511374 266.901759 
L 161.592558 195.790521 
L 161.673742 74.121757 
L 161.83611 276.588006 
L 161.917294 195.790521 
L 161.998478 65.616754 
L 162.160846 283.675504 
L 162.323214 59.710502 
L 162.485581 288.164252 
L 162.647949 57.348001 
L 162.810317 289.109252 
L 162.972685 57.820502 
L 163.135053 286.746753 
L 163.297421 61.128003 
L 163.459789 281.785504 
L 163.622156 67.979255 
L 163.784524 273.044257 
L 163.946892 77.665508 
L 164.10926 261.70426 
L 164.271628 89.950512 
L 164.433996 248.474263 
L 164.596364 104.125515 
L 164.758732 232.645517 
L 164.921099 120.899268 
L 165.083467 215.399269 
L 165.245835 138.61802 
L 165.408203 196.499271 
L 165.570571 157.045522 
L 165.732939 177.835522 
L 165.814123 172.401772 
L 165.895307 176.418022 
L 166.057674 159.171772 
L 166.220042 195.318021 
L 166.38241 140.744271 
L 166.544778 213.509269 
L 166.707146 122.789268 
L 166.869514 230.283017 
L 167.031882 106.724265 
L 167.194249 246.348014 
L 167.356617 92.785512 
L 167.518985 259.105511 
L 167.681353 81.209259 
L 167.843721 269.736758 
L 168.006089 72.468007 
L 168.168457 277.533006 
L 168.330825 65.853004 
L 168.493192 282.494254 
L 168.65556 63.018003 
L 168.817928 283.911754 
L 168.980296 62.781753 
L 169.142664 282.730504 
L 169.305032 65.380504 
L 169.4674 278.714255 
L 169.629767 70.814256 
L 169.792135 271.626758 
L 169.954503 79.319259 
L 170.116871 261.94051 
L 170.279239 89.714262 
L 170.441607 249.655513 
L 170.603975 102.235515 
L 170.766342 236.425516 
L 170.92871 116.410517 
L 171.091078 221.069268 
L 171.253446 132.23927 
L 171.415814 205.47677 
L 171.578182 147.595521 
L 171.74055 188.703022 
L 171.902918 164.133022 
L 171.984101 175.000522 
L 172.065285 172.874272 
L 172.227653 180.198022 
L 172.390021 157.045522 
L 172.552389 195.318021 
L 172.714757 142.634271 
L 172.877125 209.72927 
L 173.039493 129.168019 
L 173.20186 221.778018 
L 173.364228 117.828018 
L 173.526596 232.409267 
L 173.688964 108.614266 
L 173.851332 241.623015 
L 174.0137 101.054264 
L 174.176068 247.765514 
L 174.338436 96.093013 
L 174.500803 251.309263 
L 174.663171 93.730513 
L 174.744355 255.561762 
L 174.825539 252.963012 
L 174.906723 88.533011 
L 174.987907 93.258012 
L 175.069091 259.814261 
L 175.150275 252.254263 
L 175.231459 85.934261 
L 175.312643 94.911763 
L 175.393827 261.23176 
L 175.475011 249.419263 
L 175.556195 85.46176 
L 175.637378 98.928014 
L 175.718562 260.286761 
L 175.799746 244.221764 
L 175.88093 87.115511 
L 175.962114 104.834265 
L 176.043298 256.979261 
L 176.124482 237.606766 
L 176.205666 91.840512 
L 176.28685 112.394267 
L 176.368034 251.545513 
L 176.449218 229.338017 
L 176.530402 98.928014 
L 176.611586 121.135518 
L 176.69277 243.040515 
L 176.773953 220.360518 
L 176.855137 108.614266 
L 176.936321 130.821769 
L 177.017505 231.936767 
L 177.098689 210.20177 
L 177.179873 119.245518 
L 177.261057 140.744271 
L 177.342241 219.651769 
L 177.423425 199.570521 
L 177.504609 133.18427 
L 177.585793 150.903021 
L 177.666977 205.24052 
L 177.748161 189.648022 
L 177.829345 148.304271 
L 177.910529 160.825522 
L 177.991712 189.648022 
L 178.072896 179.725522 
L 178.15408 164.369272 
L 178.316448 172.638022 
L 178.397632 170.511772 
L 178.478816 181.615522 
L 178.56 179.016772 
L 178.641184 155.391772 
L 178.722368 162.479272 
L 178.803552 198.625521 
L 178.884736 187.285522 
L 178.96592 138.85427 
L 179.047104 155.628022 
L 179.128288 215.399269 
L 179.209471 193.428021 
L 179.290655 122.553018 
L 179.371839 149.721771 
L 179.453023 231.700517 
L 179.534207 198.625521 
L 179.615391 106.724265 
L 179.696575 145.233021 
L 179.777759 246.584264 
L 179.858943 202.405521 
L 179.940127 93.021762 
L 180.021311 142.161771 
L 180.102495 260.050511 
L 180.264863 81.209259 
L 180.346047 140.744271 
L 180.42723 271.390508 
L 180.589598 71.523006 
L 180.670782 140.744271 
L 180.751966 279.659255 
L 180.914334 64.671754 
L 180.995518 141.925521 
L 181.076702 285.093003 
L 181.23907 60.891753 
L 181.320254 143.815521 
L 181.401438 287.455503 
L 181.563805 59.710502 
L 181.726173 286.983003 
L 181.888541 61.836753 
L 182.050909 283.439254 
L 182.213277 66.798005 
L 182.375645 277.060506 
L 182.538013 74.594257 
L 182.700381 267.138009 
L 182.862748 85.69801 
L 183.025116 254.853012 
L 183.187484 98.691764 
L 183.349852 240.441765 
L 183.51222 114.284267 
L 183.674588 223.904268 
L 183.836956 131.29427 
L 183.999323 205.71302 
L 184.161691 149.485521 
L 184.324059 186.813022 
L 184.486427 169.094272 
L 184.567611 172.638022 
L 184.648795 167.440522 
L 184.811163 187.758022 
L 184.973531 148.776771 
L 185.135899 206.42177 
L 185.298266 130.821769 
L 185.460634 224.376768 
L 185.623002 113.575517 
L 185.78537 240.914265 
L 185.947738 98.455514 
L 186.110106 255.325512 
L 186.272474 85.46176 
L 186.434841 267.610509 
L 186.597209 74.594257 
L 186.759577 277.060506 
L 186.921945 67.034255 
L 187.084313 283.675504 
L 187.246681 62.309253 
L 187.409049 287.219253 
L 187.571416 60.183002 
L 187.733784 287.219253 
L 187.896152 61.364253 
L 188.05852 284.620504 
L 188.220888 65.616754 
L 188.383256 278.714255 
L 188.545624 73.176757 
L 188.707992 269.973008 
L 188.870359 82.15426 
L 189.032727 259.341761 
L 189.195095 94.439263 
L 189.357463 245.875514 
L 189.519831 107.905516 
L 189.682199 230.755517 
L 189.844567 123.734268 
L 190.006934 215.163019 
L 190.169302 139.79927 
L 190.33167 198.153021 
L 190.494038 157.281772 
L 190.656406 180.906772 
L 190.73759 171.456772 
L 190.818774 174.055522 
L 190.981142 164.369272 
L 191.14351 190.356771 
L 191.305877 148.304271 
L 191.468245 206.18552 
L 191.630613 133.42052 
L 191.792981 220.360518 
L 191.955349 120.190518 
L 192.117717 232.881766 
L 192.280085 109.086766 
L 192.442452 243.513014 
L 192.60482 99.873014 
L 192.767188 251.309263 
L 192.929556 93.021762 
L 193.091924 257.215511 
L 193.254292 89.005511 
L 193.41666 259.814261 
L 193.579027 87.351761 
L 193.741395 260.52301 
L 193.903763 88.060511 
L 194.066131 258.869261 
L 194.228499 91.131762 
L 194.309683 255.325512 
L 194.390867 254.853012 
L 194.472051 93.258012 
L 194.553235 95.620513 
L 194.634419 253.199262 
L 194.715603 248.710513 
L 194.796786 96.093013 
L 194.87797 102.944265 
L 194.959154 249.655513 
L 195.040338 240.441765 
L 195.121522 101.526764 
L 195.202706 111.685516 
L 195.28389 242.804265 
L 195.365074 230.755517 
L 195.446258 108.850516 
L 195.527442 121.608018 
L 195.608626 234.299266 
L 195.68981 220.124269 
L 195.770994 118.536768 
L 195.852178 132.71177 
L 195.933362 223.195518 
L 196.014545 209.25677 
L 196.095729 129.876769 
L 196.176913 143.579271 
L 196.258097 210.20177 
L 196.339281 197.916771 
L 196.420465 143.815521 
L 196.501649 155.155522 
L 196.582833 196.263021 
L 196.664017 186.340522 
L 196.745201 158.935522 
L 196.826385 166.259272 
L 196.907569 180.670522 
L 196.988753 175.709272 
L 197.069937 174.528022 
L 197.151121 176.654272 
L 197.232304 164.605522 
L 197.313488 165.314272 
L 197.394672 190.829271 
L 197.475856 186.340522 
L 197.55704 148.068021 
L 197.638224 156.809272 
L 197.719408 207.36677 
L 197.800592 194.845521 
L 197.881776 131.53052 
L 197.96296 148.540521 
L 198.044144 223.904268 
L 198.125328 202.169271 
L 198.206512 116.410517 
L 198.287696 141.925521 
L 198.368879 238.315515 
L 198.450063 207.83927 
L 198.531247 102.235515 
L 198.612431 137.90927 
L 198.693615 252.254263 
L 198.774799 211.14677 
L 198.855983 89.478012 
L 198.937167 134.36552 
L 199.018351 264.06676 
L 199.099535 213.745519 
L 199.180719 79.319259 
L 199.261903 133.18427 
L 199.343087 273.516757 
L 199.424271 214.690519 
L 199.505455 71.523006 
L 199.586638 133.42052 
L 199.667822 280.368005 
L 199.83019 65.616754 
L 199.911374 134.36552 
L 199.992558 284.384254 
L 200.154926 63.254254 
L 200.23611 136.72802 
L 200.317294 286.038003 
L 200.479662 63.726754 
L 200.560846 140.03552 
L 200.64203 283.439254 
L 200.804397 67.034255 
L 200.885581 144.524271 
L 200.966765 278.714255 
L 201.129133 73.413007 
L 201.210317 149.249271 
L 201.291501 271.154258 
L 201.453869 82.62676 
L 201.616237 259.814261 
L 201.778605 94.203013 
L 201.940973 246.584264 
L 202.10334 108.614266 
L 202.265708 231.464267 
L 202.428076 124.915519 
L 202.590444 213.745519 
L 202.752812 142.161771 
L 202.91518 196.026771 
L 203.077548 160.589272 
L 203.239915 176.890522 
L 203.321099 173.583022 
L 203.402283 179.961772 
L 203.483467 174.291772 
L 203.564651 157.281772 
L 203.727019 198.861771 
L 203.889387 139.09052 
L 204.051755 217.053019 
L 204.214123 120.899268 
L 204.37649 235.008016 
L 204.538858 105.306765 
L 204.701226 250.128013 
L 204.863594 91.131762 
L 205.025962 264.06676 
L 205.18833 78.846759 
L 205.350698 274.698007 
L 205.513066 69.633006 
L 205.675433 283.439254 
L 205.837801 62.781753 
L 206.000169 287.928003 
L 206.162537 59.238002 
L 206.324905 290.290502 
L 206.487273 59.474252 
L 206.649641 289.109252 
L 206.812008 61.836753 
L 206.974376 284.856754 
L 207.136744 67.743005 
L 207.299112 277.533006 
L 207.46148 76.248008 
L 207.623848 267.610509 
L 207.786216 87.351761 
L 207.948584 254.616762 
L 208.110951 100.818014 
L 208.273319 240.441765 
L 208.435687 115.465517 
L 208.598055 224.376768 
L 208.760423 132.23927 
L 208.922791 207.36677 
L 209.085159 149.485521 
L 209.247526 189.648022 
L 209.409894 167.204272 
L 209.491078 175.236772 
L 209.572262 171.929272 
L 209.73463 184.450522 
L 209.896998 154.683022 
L 210.059366 201.224271 
L 210.221734 138.61802 
L 210.384101 217.053019 
L 210.546469 123.970519 
L 210.708837 230.991767 
L 210.871205 110.740516 
L 211.033573 243.513014 
L 211.195941 100.581764 
L 211.358309 253.435512 
L 211.520677 91.840512 
L 211.683044 260.75926 
L 211.845412 85.934261 
L 212.00778 265.011759 
L 212.170148 81.918009 
L 212.332516 267.610509 
L 212.494884 81.445509 
L 212.657252 267.138009 
L 212.819619 83.57176 
L 212.981987 264.06676 
L 213.144355 87.588011 
L 213.306723 258.633011 
L 213.469091 94.439263 
L 213.631459 250.836763 
L 213.793827 102.471765 
L 213.956195 241.623015 
L 214.037378 110.976766 
L 214.118562 112.394267 
L 214.199746 233.826766 
L 214.28093 230.519267 
L 214.362114 119.009268 
L 214.443298 122.789268 
L 214.524482 224.849268 
L 214.605666 218.943019 
L 214.68685 128.459269 
L 214.768034 135.31052 
L 214.849218 213.745519 
L 214.930402 206.42177 
L 215.011586 140.508021 
L 215.09277 147.831771 
L 215.173953 200.751771 
L 215.255137 194.136771 
L 215.336321 153.974272 
L 215.417505 160.589272 
L 215.498689 187.049272 
L 215.579873 181.615522 
L 215.661057 168.621772 
L 215.742241 172.401772 
L 215.823425 172.165522 
L 215.904609 170.039272 
L 216.066977 183.978022 
L 216.148161 156.573022 
L 216.229345 158.935522 
L 216.310529 199.570521 
L 216.391712 194.609271 
L 216.472896 140.980521 
L 216.55408 149.249271 
L 216.635264 215.163019 
L 216.716448 203.58677 
L 216.797632 126.096769 
L 216.878816 140.744271 
L 216.96 229.810517 
L 217.041184 211.14677 
L 217.122368 111.921767 
L 217.203552 134.36552 
L 217.284736 243.749264 
L 217.36592 216.816769 
L 217.447104 98.691764 
L 217.528288 129.404269 
L 217.609471 256.270512 
L 217.690655 220.833018 
L 217.771839 87.588011 
L 217.853023 126.333019 
L 217.934207 266.665509 
L 218.015391 223.431768 
L 218.096575 78.610508 
L 218.177759 124.679269 
L 218.258943 274.461757 
L 218.340127 223.431768 
L 218.421311 71.995506 
L 218.502495 124.915519 
L 218.583679 280.131755 
L 218.664863 222.486768 
L 218.746047 68.688005 
L 218.82723 127.041769 
L 218.908414 283.203004 
L 218.989598 220.596768 
L 219.070782 67.270505 
L 219.151966 129.876769 
L 219.23315 282.494254 
L 219.395518 68.924255 
L 219.476702 134.12927 
L 219.557886 278.714255 
L 219.720254 73.413007 
L 219.801438 138.85427 
L 219.882622 272.808007 
L 220.044989 80.973009 
L 220.126173 144.760521 
L 220.207357 263.59426 
L 220.369725 91.368012 
L 220.450909 150.666771 
L 220.532093 251.545513 
L 220.694461 103.889265 
L 220.775645 156.336772 
L 220.856829 237.843016 
L 221.019197 119.009268 
L 221.181564 221.778018 
L 221.343932 135.78302 
L 221.5063 204.05927 
L 221.668668 153.738022 
L 221.831036 185.631772 
L 221.993404 172.401772 
L 222.074588 174.764272 
L 222.155772 166.495522 
L 222.236956 172.401772 
L 222.31814 191.301771 
L 222.480507 147.831771 
L 222.642875 210.43802 
L 222.805243 129.876769 
L 222.967611 228.156767 
L 223.129979 112.394267 
L 223.292347 244.694264 
L 223.454715 97.038013 
L 223.617082 258.869261 
L 223.77945 84.04426 
L 223.941818 271.626758 
L 224.104186 73.413007 
L 224.266554 281.076755 
L 224.428922 65.380504 
L 224.59129 288.164252 
L 224.753658 60.419253 
L 224.916025 291.471751 
L 225.078393 58.056752 
L 225.240761 291.944251 
L 225.403129 59.710502 
L 225.565497 289.345502 
L 225.727865 63.726754 
L 225.890233 283.203004 
L 226.0526 70.578006 
L 226.214968 274.698007 
L 226.377336 80.973009 
L 226.539704 262.88551 
L 226.702072 93.494263 
L 226.86444 249.183013 
L 227.026808 107.669266 
L 227.189175 233.354266 
L 227.351543 124.206769 
L 227.513911 216.580519 
L 227.676279 141.216771 
L 227.838647 198.861771 
L 228.001015 159.644272 
L 228.163383 180.434272 
L 228.244567 174.055522 
L 228.325751 177.363022 
L 228.488118 162.479272 
L 228.650486 195.081771 
L 228.812854 144.996771 
L 228.975222 212.800519 
L 229.13759 128.695519 
L 229.299958 227.920517 
L 229.462326 114.284267 
L 229.624693 241.859265 
L 229.787061 101.999265 
L 229.949429 253.199262 
L 230.111797 91.368012 
L 230.274165 262.88551 
L 230.436533 83.80801 
L 230.598901 269.028008 
L 230.761268 78.846759 
L 230.923636 272.571757 
L 231.086004 76.484258 
L 231.248372 273.753007 
L 231.41074 77.193008 
L 231.573108 272.099257 
L 231.735476 80.264259 
L 231.897844 267.846759 
L 232.060211 85.69801 
L 232.222579 260.99551 
L 232.384947 93.021762 
L 232.547315 252.018013 
L 232.709683 103.180515 
L 232.872051 240.914265 
L 233.034419 114.756767 
L 233.196786 228.865517 
L 233.359154 126.805519 
L 233.521522 215.871769 
L 233.602706 138.85427 
L 233.68389 139.79927 
L 233.765074 205.24052 
L 233.846258 202.405521 
L 233.927442 150.903021 
L 234.008626 153.974272 
L 234.08981 192.483021 
L 234.170994 188.939272 
L 234.252178 163.660522 
L 234.333362 167.440522 
L 234.414545 178.544272 
L 234.495729 175.473022 
L 234.658097 180.198022 
L 234.820465 162.479272 
L 234.982833 192.246771 
L 235.064017 149.721771 
L 235.145201 151.375521 
L 235.226385 206.42177 
L 235.307569 203.350521 
L 235.388753 135.54677 
L 235.469937 141.216771 
L 235.551121 221.069268 
L 235.632304 212.32802 
L 235.713488 121.608018 
L 235.794672 132.47552 
L 235.875856 235.008016 
L 235.95704 220.596768 
L 236.038224 108.378016 
L 236.119408 126.096769 
L 236.200592 247.529264 
L 236.281776 226.266768 
L 236.36296 96.801763 
L 236.444144 120.899268 
L 236.525328 258.396761 
L 236.606512 230.519267 
L 236.687696 87.351761 
L 236.768879 118.064268 
L 236.850063 267.374259 
L 236.931247 232.409267 
L 237.012431 79.555509 
L 237.093615 117.355517 
L 237.174799 273.989257 
L 237.255983 232.409267 
L 237.337167 74.358007 
L 237.418351 118.064268 
L 237.499535 278.241756 
L 237.580719 231.228017 
L 237.661903 71.995506 
L 237.743087 119.954268 
L 237.824271 279.423005 
L 237.905455 228.156767 
L 237.986638 72.231757 
L 238.067822 123.970519 
L 238.149006 277.296756 
L 238.23019 223.431768 
L 238.311374 75.303007 
L 238.392558 129.168019 
L 238.473742 273.280507 
L 238.554926 217.525519 
L 238.63611 80.973009 
L 238.717294 134.83802 
L 238.798478 265.484259 
L 238.960846 89.714262 
L 239.04203 141.453021 
L 239.123214 255.325512 
L 239.285581 101.054264 
L 239.366765 147.831771 
L 239.447949 243.040515 
L 239.610317 114.284267 
L 239.691501 155.391772 
L 239.772685 227.920517 
L 239.935053 129.876769 
L 240.016237 161.770522 
L 240.097421 211.61927 
L 240.259789 146.650521 
L 240.422156 194.136771 
L 240.584524 164.841772 
L 240.746892 175.473022 
L 240.828076 173.819272 
L 240.90926 183.505522 
L 240.990444 177.599272 
L 241.071628 156.809272 
L 241.152812 169.803022 
L 241.233996 202.405521 
L 241.396364 138.85427 
L 241.477548 166.731772 
L 241.558732 220.124269 
L 241.721099 121.135518 
L 241.883467 237.606766 
L 242.045835 104.834265 
L 242.208203 253.199262 
L 242.370571 90.895512 
L 242.532939 266.429259 
L 242.695307 78.610508 
L 242.857674 277.769256 
L 243.020042 69.160506 
L 243.18241 285.801753 
L 243.344778 62.545503 
L 243.507146 291.235501 
L 243.669514 59.001752 
L 243.831882 292.889251 
L 243.994249 58.765502 
L 244.156617 291.944251 
L 244.318985 61.600503 
L 244.481353 287.691753 
L 244.643721 67.034255 
L 244.806089 280.368005 
L 244.968457 75.303007 
L 245.130825 270.209258 
L 245.293192 86.879261 
L 245.45556 257.215511 
L 245.617928 100.581764 
L 245.780296 242.568015 
L 245.942664 115.938017 
L 246.105032 225.794268 
L 246.2674 133.65677 
L 246.429767 207.60302 
L 246.592135 151.375521 
L 246.754503 189.175522 
L 246.916871 170.039272 
L 246.998055 175.000522 
L 247.079239 170.748022 
L 247.241607 188.466772 
L 247.403975 152.556771 
L 247.566342 206.65802 
L 247.72871 135.31052 
L 247.891078 223.195518 
L 248.053446 119.245518 
L 248.215814 238.551765 
L 248.378182 105.306765 
L 248.54055 252.018013 
L 248.702918 93.258012 
L 248.865285 262.41301 
L 249.027653 84.04426 
L 249.190021 270.918008 
L 249.352389 77.193008 
L 249.514757 276.588006 
L 249.677125 73.176757 
L 249.839493 278.950505 
L 250.00186 72.468007 
L 250.164228 278.478006 
L 250.326596 74.121757 
L 250.488964 275.643006 
L 250.651332 78.374258 
L 250.8137 269.973008 
L 250.976068 85.22551 
L 251.138436 261.70426 
L 251.300803 94.203013 
L 251.463171 251.073013 
L 251.625539 105.779265 
L 251.787907 238.551765 
L 251.950275 118.300518 
L 252.112643 225.794268 
L 252.275011 131.76677 
L 252.437378 211.61927 
L 252.599746 145.941771 
L 252.762114 196.735521 
L 252.843298 159.880522 
L 252.924482 160.589272 
L 253.005666 184.450522 
L 253.08685 182.560522 
L 253.168034 171.929272 
L 253.249218 175.473022 
L 253.411586 167.440522 
L 253.573953 188.939272 
L 253.736321 154.683022 
L 253.898689 201.224271 
L 254.061057 143.106771 
L 254.223425 212.800519 
L 254.304609 131.29427 
L 254.385793 132.23927 
L 254.466977 225.558018 
L 254.548161 222.486768 
L 254.629345 118.536768 
L 254.710529 123.970519 
L 254.791712 238.315515 
L 254.872896 230.283017 
L 254.95408 106.724265 
L 255.035264 117.119267 
L 255.116448 249.183013 
L 255.197632 236.189266 
L 255.278816 96.565513 
L 255.36 112.630517 
L 255.441184 259.105511 
L 255.522368 239.733015 
L 255.603552 88.060511 
L 255.684736 109.795516 
L 255.76592 266.665509 
L 255.847104 241.623015 
L 255.928288 81.918009 
L 256.009471 109.323016 
L 256.090655 271.863007 
L 256.171839 241.150515 
L 256.253023 78.374258 
L 256.334207 110.976766 
L 256.415391 274.461757 
L 256.496575 238.788015 
L 256.577759 77.193008 
L 256.658943 114.048017 
L 256.740127 274.225507 
L 256.821311 234.771766 
L 256.902495 78.138008 
L 256.983679 118.773018 
L 257.064863 271.390508 
L 257.146047 229.101767 
L 257.22723 82.86301 
L 257.308414 124.679269 
L 257.389598 265.956759 
L 257.470782 222.486768 
L 257.551966 89.714262 
L 257.63315 132.00302 
L 257.714334 257.215511 
L 257.795518 214.926769 
L 257.876702 98.928014 
L 257.957886 139.79927 
L 258.03907 246.348014 
L 258.120254 207.36677 
L 258.201438 110.740516 
L 258.363805 233.590516 
L 258.444989 199.334271 
L 258.526173 125.151769 
L 258.688541 217.998019 
L 258.769725 190.829271 
L 258.850909 140.508021 
L 259.013277 201.460521 
L 259.094461 183.505522 
L 259.175645 157.990522 
L 259.338013 183.978022 
L 259.500381 175.709272 
L 259.581564 176.890522 
L 259.662748 165.786772 
L 259.743932 171.220522 
L 259.825116 194.136771 
L 259.9063 182.324272 
L 259.987484 147.595521 
L 260.068668 166.259272 
L 260.149852 212.32802 
L 260.31222 130.113019 
L 260.393404 162.243022 
L 260.474588 229.574267 
L 260.636956 113.103017 
L 260.71814 159.644272 
L 260.799323 245.875514 
L 260.961691 98.219264 
L 261.124059 260.286761 
L 261.286427 85.46176 
L 261.448795 272.099257 
L 261.611163 74.594257 
L 261.773531 282.258004 
L 261.935899 66.561755 
L 262.098266 288.873002 
L 262.260634 61.128003 
L 262.423002 292.653001 
L 262.58537 59.238002 
L 262.747738 293.125501 
L 262.910106 60.655503 
L 263.072474 290.290502 
L 263.234841 64.435504 
L 263.397209 284.620504 
L 263.559577 71.995506 
L 263.721945 275.406756 
L 263.884313 81.445509 
L 264.046681 264.06676 
L 264.209049 94.203013 
L 264.371416 250.364263 
L 264.533784 109.086766 
L 264.696152 234.535516 
L 264.85852 125.388019 
L 265.020888 216.816769 
L 265.183256 143.579271 
L 265.345624 198.153021 
L 265.507992 161.770522 
L 265.670359 179.016772 
L 265.751543 175.473022 
L 265.832727 181.379272 
L 265.995095 160.353022 
L 266.157463 199.570521 
L 266.319831 142.398021 
L 266.482199 217.525519 
L 266.644567 125.388019 
L 266.806934 234.063016 
L 266.969302 109.795516 
L 267.13167 248.710513 
L 267.294038 96.329263 
L 267.456406 261.23176 
L 267.618774 85.22551 
L 267.781142 271.390508 
L 267.94351 76.720508 
L 268.105877 278.478006 
L 268.268245 71.286756 
L 268.430613 282.966754 
L 268.592981 68.688005 
L 268.755349 283.911754 
L 268.917717 68.688005 
L 269.080085 282.258004 
L 269.242452 71.995506 
L 269.40482 277.296756 
L 269.567188 77.429258 
L 269.729556 270.445508 
L 269.891924 86.170511 
L 270.054292 260.75926 
L 270.21666 96.801763 
L 270.379027 248.710513 
L 270.541395 109.086766 
L 270.703763 235.480516 
L 270.866131 123.261768 
L 271.028499 220.596768 
L 271.190867 137.90927 
L 271.353235 205.47677 
L 271.515603 153.501772 
L 271.67797 189.884272 
L 271.759154 168.149272 
L 271.840338 168.621772 
L 271.921522 177.835522 
L 272.002706 174.764272 
L 272.165074 183.978022 
L 272.327442 159.880522 
L 272.48981 198.625521 
L 272.652178 146.178021 
L 272.814545 211.14677 
L 272.976913 134.12927 
L 273.139281 222.723018 
L 273.301649 123.498018 
L 273.464017 232.645517 
L 273.626385 114.993017 
L 273.707569 240.441765 
L 273.788753 239.969265 
L 273.869937 106.724265 
L 273.951121 108.141766 
L 274.032304 249.891763 
L 274.113488 245.639264 
L 274.194672 97.746764 
L 274.275856 104.125515 
L 274.35704 257.924261 
L 274.438224 249.183013 
L 274.519408 90.895512 
L 274.600592 102.944265 
L 274.681776 264.30301 
L 274.76296 249.655513 
L 274.844144 86.170511 
L 274.925328 102.708015 
L 275.006512 268.319258 
L 275.087696 248.238013 
L 275.168879 83.57176 
L 275.250063 105.070515 
L 275.331247 269.736758 
L 275.412431 244.930514 
L 275.493615 83.09926 
L 275.574799 109.323016 
L 275.655983 268.319258 
L 275.737167 240.205515 
L 275.818351 86.170511 
L 275.899535 114.520517 
L 275.980719 264.06676 
L 276.061903 233.826766 
L 276.143087 91.368012 
L 276.224271 121.844268 
L 276.305455 257.451761 
L 276.386638 226.030518 
L 276.467822 98.691764 
L 276.549006 129.876769 
L 276.63019 248.710513 
L 276.711374 217.289269 
L 276.792558 109.323016 
L 276.873742 139.09052 
L 276.954926 236.898016 
L 277.03611 208.31177 
L 277.117294 121.135518 
L 277.198478 148.304271 
L 277.279662 223.431768 
L 277.360846 199.334271 
L 277.44203 135.78302 
L 277.523214 157.518022 
L 277.604397 208.31177 
L 277.685581 189.884272 
L 277.766765 151.848021 
L 277.929133 191.774271 
L 278.010317 180.906772 
L 278.091501 168.385522 
L 278.253869 174.291772 
L 278.335053 173.110522 
L 278.416237 185.868022 
L 278.497421 181.851772 
L 278.578605 156.573022 
L 278.659789 166.259272 
L 278.740973 204.05927 
L 278.822156 188.466772 
L 278.90334 138.85427 
L 278.984524 160.353022 
L 279.065708 221.778018 
L 279.146892 193.428021 
L 279.228076 122.080518 
L 279.30926 156.336772 
L 279.390444 237.843016 
L 279.552812 106.724265 
L 279.633996 153.029271 
L 279.71518 252.963012 
L 279.877548 92.785512 
L 279.958732 151.139271 
L 280.039915 265.956759 
L 280.202283 81.209259 
L 280.283467 150.903021 
L 280.364651 276.588006 
L 280.527019 71.995506 
L 280.608203 151.375521 
L 280.689387 285.093003 
L 280.851755 65.144254 
L 281.014123 290.290502 
L 281.17649 61.364253 
L 281.338858 292.416751 
L 281.501226 60.891753 
L 281.663594 291.471751 
L 281.825962 63.490504 
L 281.98833 287.219253 
L 282.150698 68.924255 
L 282.313066 279.895505 
L 282.475433 77.665508 
L 282.637801 269.973008 
L 282.800169 88.769261 
L 282.962537 257.215511 
L 283.124905 102.471765 
L 283.287273 242.095515 
L 283.449641 118.300518 
L 283.612008 225.321768 
L 283.774376 136.01927 
L 283.936744 207.36677 
L 284.099112 153.974272 
L 284.26148 188.230522 
L 284.423848 173.346772 
L 284.505032 175.709272 
L 284.586216 168.621772 
L 284.748584 192.246771 
L 284.910951 149.958021 
L 285.073319 210.67427 
L 285.235687 132.00302 
L 285.398055 228.393017 
L 285.560423 115.701767 
L 285.722791 244.694264 
L 285.885159 100.818014 
L 286.047526 258.160511 
L 286.209894 88.296761 
L 286.372262 270.209258 
L 286.53463 78.138008 
L 286.696998 278.950505 
L 286.859366 71.286756 
L 287.021734 284.856754 
L 287.184101 66.798005 
L 287.346469 287.928003 
L 287.508837 65.380504 
L 287.671205 287.455503 
L 287.833573 66.798005 
L 287.995941 284.148004 
L 288.158309 71.759256 
L 288.320677 277.769256 
L 288.483044 79.083009 
L 288.645412 269.500508 
L 288.80778 88.769261 
L 288.970148 258.160511 
L 289.132516 100.818014 
L 289.294884 245.166764 
L 289.457252 114.284267 
L 289.619619 230.991767 
L 289.781987 128.931769 
L 289.944355 214.690519 
L 290.106723 145.469271 
L 290.269091 198.625521 
L 290.431459 161.770522 
L 290.593827 181.851772 
L 290.675011 174.528022 
L 290.756195 178.308022 
L 290.918562 166.023022 
L 291.08093 193.900521 
L 291.243298 150.903021 
L 291.405666 208.54802 
L 291.568034 137.20052 
L 291.730402 222.014268 
L 291.89277 124.679269 
L 292.055137 233.590516 
L 292.217505 114.048017 
L 292.379873 242.568015 
L 292.542241 106.015515 
L 292.704609 249.655513 
L 292.866977 100.345514 
L 293.029345 254.616762 
L 293.191712 96.565513 
L 293.35408 257.215511 
L 293.435264 94.439263 
L 293.516448 95.148013 
L 293.597632 260.75926 
L 293.678816 257.451761 
L 293.76 90.895512 
L 293.841184 96.565513 
L 293.922368 263.59426 
L 294.003552 255.089262 
L 294.084736 89.478012 
L 294.16592 99.636764 
L 294.247104 263.35801 
L 294.328288 250.600513 
L 294.409471 90.659262 
L 294.490655 105.070515 
L 294.571839 260.99551 
L 294.653023 244.458014 
L 294.734207 94.203013 
L 294.815391 112.394267 
L 294.896575 256.270512 
L 294.977759 236.661766 
L 295.058943 100.109264 
L 295.140127 120.190518 
L 295.221311 248.710513 
L 295.302495 227.211767 
L 295.383679 108.141766 
L 295.464863 129.640519 
L 295.546047 238.788015 
L 295.62723 217.761769 
L 295.708414 119.009268 
L 295.789598 139.79927 
L 295.870782 227.211767 
L 295.951966 207.13052 
L 296.03315 131.76677 
L 296.114334 149.958021 
L 296.195518 213.981769 
L 296.276702 196.971771 
L 296.357886 146.414271 
L 296.43907 160.589272 
L 296.520254 197.916771 
L 296.601438 187.049272 
L 296.682622 162.243022 
L 296.763805 170.039272 
L 296.844989 181.851772 
L 296.926173 177.126772 
L 297.007357 178.308022 
L 297.088541 179.489272 
L 297.169725 165.078022 
L 297.250909 168.385522 
L 297.332093 196.026771 
L 297.413277 187.994272 
L 297.494461 147.595521 
L 297.575645 160.353022 
L 297.656829 212.800519 
L 297.738013 195.081771 
L 297.819197 131.53052 
L 297.900381 154.210522 
L 297.981564 229.338017 
L 298.062748 201.224271 
L 298.143932 115.465517 
L 298.225116 149.485521 
L 298.3063 244.458014 
L 298.387484 205.47677 
L 298.468668 101.526764 
L 298.549852 145.705521 
L 298.631036 258.396761 
L 298.71222 208.07552 
L 298.793404 88.769261 
L 298.955772 270.209258 
L 299.036956 209.49302 
L 299.11814 77.901758 
L 299.280507 279.659255 
L 299.361691 209.49302 
L 299.442875 70.341756 
L 299.605243 286.274253 
L 299.686427 208.54802 
L 299.767611 65.144254 
L 299.929979 290.290502 
L 300.011163 206.18552 
L 300.092347 63.490504 
L 300.254715 290.290502 
L 300.335899 203.114271 
L 300.417082 63.963004 
L 300.57945 288.164252 
L 300.741818 67.979255 
L 300.904186 282.494254 
L 301.066554 75.066757 
L 301.228922 274.225507 
L 301.39129 85.22551 
L 301.553658 262.64926 
L 301.716025 97.510513 
L 301.878393 248.946763 
L 302.040761 112.394267 
L 302.203129 232.645517 
L 302.365497 128.223019 
L 302.527865 215.399269 
L 302.690233 146.178021 
L 302.8526 196.499271 
L 303.014968 165.078022 
L 303.177336 177.363022 
L 303.25852 176.418022 
L 303.339704 183.978022 
L 303.502072 158.463022 
L 303.66444 202.878021 
L 303.826808 139.79927 
L 303.989175 221.778018 
L 304.151543 122.789268 
L 304.313911 238.551765 
L 304.476279 106.488015 
L 304.638647 254.144262 
L 304.801015 92.785512 
L 304.963383 267.138009 
L 305.125751 80.973009 
L 305.288118 277.533006 
L 305.450486 72.231757 
L 305.612854 284.856754 
L 305.775222 66.089255 
L 305.93759 289.581752 
L 306.099958 63.963004 
L 306.262326 290.999252 
L 306.424693 63.726754 
L 306.587061 289.345502 
L 306.749429 66.561755 
L 306.911797 284.620504 
L 307.074165 73.176757 
L 307.236533 277.060506 
L 307.398901 81.445509 
L 307.561268 267.138009 
L 307.723636 92.785512 
L 307.886004 254.380512 
L 308.048372 106.251765 
L 308.21074 240.205515 
L 308.373108 120.663018 
L 308.535476 224.376768 
L 308.697844 136.96427 
L 308.860211 207.13052 
L 309.022579 154.210522 
L 309.184947 190.120521 
L 309.266131 171.220522 
L 309.347315 171.456772 
L 309.428499 176.890522 
L 309.509683 173.346772 
L 309.672051 187.994272 
L 309.834419 156.809272 
L 309.996786 204.29552 
L 310.159154 141.216771 
L 310.321522 218.943019 
L 310.48389 127.041769 
L 310.646258 232.173017 
L 310.808626 115.701767 
L 310.970994 243.513014 
L 311.133362 105.070515 
L 311.295729 252.726762 
L 311.458097 97.510513 
L 311.620465 259.105511 
L 311.782833 92.549262 
L 311.945201 262.88551 
L 312.107569 89.714262 
L 312.269937 264.775509 
L 312.432304 89.241761 
L 312.594672 263.35801 
L 312.75704 91.840512 
L 312.919408 260.286761 
L 313.081776 96.329263 
L 313.16296 256.034262 
L 313.244144 255.089262 
L 313.325328 98.455514 
L 313.406512 102.471765 
L 313.487696 253.199262 
L 313.568879 247.056764 
L 313.650063 103.180515 
L 313.731247 110.504266 
L 313.812431 247.765514 
L 313.893615 237.843016 
L 313.974799 109.795516 
L 314.055983 120.190518 
L 314.137167 239.496765 
L 314.218351 227.448017 
L 314.299535 118.300518 
L 314.380719 130.585519 
L 314.461903 229.338017 
L 314.543087 216.816769 
L 314.624271 129.168019 
L 314.705455 141.453021 
L 314.786638 217.525519 
L 314.867822 205.00427 
L 314.949006 142.161771 
L 315.03019 153.501772 
L 315.111374 203.58677 
L 315.192558 193.664271 
L 315.273742 156.336772 
L 315.354926 164.841772 
L 315.43611 188.466772 
L 315.517294 181.851772 
L 315.598478 171.929272 
L 315.679662 175.945522 
L 315.84203 171.456772 
L 315.923214 187.758022 
L 316.004397 186.576772 
L 316.085581 156.573022 
L 316.166765 161.534272 
L 316.247949 204.53177 
L 316.329133 195.081771 
L 316.410317 140.508021 
L 316.491501 153.501772 
L 316.572685 220.596768 
L 316.653869 202.641771 
L 316.735053 124.679269 
L 316.816237 146.886771 
L 316.897421 235.953016 
L 316.978605 209.49302 
L 317.059789 110.268016 
L 317.140973 140.980521 
L 317.222156 250.128013 
L 317.30334 214.218019 
L 317.384524 97.038013 
L 317.465708 137.43677 
L 317.546892 262.88551 
L 317.628076 216.816769 
L 317.70926 85.934261 
L 317.790444 135.07427 
L 317.871628 273.044257 
L 317.952812 218.943019 
L 318.033996 77.429258 
L 318.11518 134.60177 
L 318.196364 280.604255 
L 318.277548 218.470519 
L 318.358732 70.578006 
L 318.521099 286.038003 
L 318.602283 217.053019 
L 318.683467 67.034255 
L 318.845835 288.636752 
L 318.927019 214.454269 
L 319.008203 66.325505 
L 319.170571 287.455503 
L 319.251755 210.43802 
L 319.332939 68.924255 
L 319.495307 283.439254 
L 319.57649 205.94927 
L 319.657674 74.358007 
L 319.820042 277.060506 
L 319.901226 201.224271 
L 319.98241 82.15426 
L 320.144778 266.665509 
L 320.307146 93.258012 
L 320.469514 254.144262 
L 320.631882 106.488015 
L 320.794249 239.496765 
L 320.956617 121.844268 
L 321.118985 222.723018 
L 321.281353 138.85427 
L 321.443721 204.76802 
L 321.606089 157.281772 
L 321.768457 186.340522 
L 321.930825 176.181772 
L 322.012008 176.890522 
L 322.093192 166.968022 
L 322.25556 195.318021 
L 322.417928 148.304271 
L 322.580296 214.454269 
L 322.742664 130.585519 
L 322.905032 231.700517 
L 323.0674 113.339267 
L 323.229767 248.474263 
L 323.392135 98.219264 
L 323.554503 262.41301 
L 323.716871 85.22551 
L 323.879239 274.461757 
L 324.041607 75.539258 
L 324.203975 283.675504 
L 324.366342 67.506755 
L 324.52871 290.054252 
L 324.691078 63.018003 
L 324.853446 293.125501 
L 325.015814 61.600503 
L 325.178182 293.125501 
L 325.34055 63.018003 
L 325.502918 289.581752 
L 325.665285 67.979255 
L 325.827653 283.439254 
L 325.990021 75.303007 
L 326.152389 274.225507 
L 326.314757 85.69801 
L 326.477125 262.64926 
L 326.639493 97.983014 
L 326.80186 248.946763 
L 326.964228 112.158017 
L 327.126596 233.354266 
L 327.288964 128.695519 
L 327.451332 216.344269 
L 327.6137 145.705521 
L 327.776068 198.861771 
L 327.938436 163.424272 
L 328.100803 180.906772 
L 328.181987 176.654272 
L 328.263171 181.379272 
L 328.425539 163.188022 
L 328.587907 198.861771 
L 328.750275 146.886771 
L 328.912643 214.926769 
L 329.075011 131.29427 
L 329.237378 229.338017 
L 329.399746 117.591768 
L 329.562114 242.804265 
L 329.724482 105.779265 
L 329.88685 253.199262 
L 330.049218 96.565513 
L 330.211586 261.70426 
L 330.373953 89.241761 
L 330.536321 267.374259 
L 330.698689 84.98926 
L 330.861057 270.445508 
L 331.023425 83.33551 
L 331.185793 271.154258 
L 331.348161 84.04426 
L 331.510529 268.791758 
L 331.672896 87.824261 
L 331.835264 264.06676 
L 331.997632 93.258012 
L 332.16 257.215511 
L 332.322368 100.818014 
L 332.484736 248.238013 
L 332.647104 110.268016 
L 332.809471 238.315515 
L 332.890655 119.481768 
L 332.971839 121.844268 
L 333.053023 230.283017 
L 333.134207 226.266768 
L 333.215391 128.223019 
L 333.296575 132.94802 
L 333.377759 219.888019 
L 333.458943 214.218019 
L 333.540127 139.56302 
L 333.621311 145.705521 
L 333.702495 208.07552 
L 333.783679 201.460521 
L 333.864863 152.320521 
L 333.946047 158.226772 
L 334.02723 194.136771 
L 334.108414 188.466772 
L 334.189598 165.786772 
L 334.270782 170.748022 
L 334.351966 179.961772 
L 334.43315 176.181772 
L 334.595518 182.560522 
L 334.757886 164.841772 
L 334.83907 196.499271 
L 334.920254 193.900521 
L 335.001438 149.249271 
L 335.082622 154.683022 
L 335.163805 211.85552 
L 335.244989 203.58677 
L 335.326173 134.36552 
L 335.407357 145.941771 
L 335.488541 227.211767 
L 335.569725 211.85552 
L 335.650909 119.718018 
L 335.732093 138.38177 
L 335.813277 241.623015 
L 335.894461 217.761769 
L 335.975645 106.015515 
L 336.056829 132.71177 
L 336.138013 254.144262 
L 336.219197 223.195518 
L 336.300381 94.439263 
L 336.381564 128.931769 
L 336.462748 265.248009 
L 336.543932 226.503018 
L 336.625116 84.98926 
L 336.7063 126.096769 
L 336.787484 273.989257 
L 336.868668 228.156767 
L 336.949852 76.956758 
L 337.031036 126.569269 
L 337.11222 280.368005 
L 337.193404 227.211767 
L 337.274588 72.231757 
L 337.355772 127.750519 
L 337.436956 284.148004 
L 337.51814 225.321768 
L 337.599323 69.869256 
L 337.680507 130.349269 
L 337.761691 285.329253 
L 337.842875 222.014268 
L 337.924059 71.050506 
L 338.086427 282.730504 
L 338.167611 217.525519 
L 338.248795 74.594257 
L 338.411163 277.296756 
L 338.492347 212.56427 
L 338.573531 80.973009 
L 338.735899 269.500508 
L 338.817082 206.65802 
L 338.898266 90.659262 
L 339.060634 258.396761 
L 339.141818 200.751771 
L 339.223002 102.471765 
L 339.38537 245.166764 
L 339.466554 194.609271 
L 339.547738 116.646767 
L 339.710106 229.810517 
L 339.872474 132.71177 
L 340.034841 212.56427 
L 340.197209 149.485521 
L 340.359577 194.845521 
L 340.521945 168.385522 
L 340.603129 175.945522 
L 340.684313 175.709272 
L 340.765497 176.181772 
L 340.846681 187.285522 
L 340.927865 179.016772 
L 341.009049 156.573022 
L 341.171416 206.18552 
L 341.333784 138.61802 
L 341.496152 224.376768 
L 341.65852 121.371768 
L 341.820888 241.386765 
L 341.983256 105.070515 
L 342.145624 256.979261 
L 342.307992 90.895512 
L 342.470359 269.973008 
L 342.632727 79.555509 
L 342.795095 280.368005 
L 342.957463 70.814256 
L 343.119831 288.400502 
L 343.282199 64.199254 
L 343.444567 293.125501 
L 343.606934 61.364253 
L 343.769302 294.543 
L 343.93167 61.364253 
L 344.094038 293.125501 
L 344.256406 64.199254 
L 344.418774 288.636752 
L 344.581142 70.341756 
L 344.74351 280.840505 
L 344.905877 79.319259 
L 345.068245 269.973008 
L 345.230613 90.895512 
L 345.392981 257.215511 
L 345.555349 105.070515 
L 345.717717 242.095515 
L 345.880085 120.190518 
L 346.042452 225.558018 
L 346.20482 137.67302 
L 346.367188 207.36677 
L 346.529556 155.391772 
L 346.691924 189.411772 
L 346.854292 173.583022 
L 346.935476 176.418022 
L 347.01666 170.511772 
L 347.179027 191.774271 
L 347.341395 153.265521 
L 347.503763 209.25677 
L 347.666131 136.72802 
L 347.828499 225.558018 
L 347.990867 121.135518 
L 348.153235 239.260515 
L 348.315603 108.141766 
L 348.47797 252.726762 
L 348.640338 96.801763 
L 348.802706 262.41301 
L 348.965074 88.296761 
L 349.127442 270.209258 
L 349.28981 82.15426 
L 349.452178 275.170506 
L 349.614545 78.610508 
L 349.776913 276.824256 
L 349.939281 78.374258 
L 350.101649 275.879256 
L 350.264017 80.500509 
L 350.426385 273.044257 
L 350.588753 85.22551 
L 350.751121 266.429259 
L 350.913488 92.076762 
L 351.075856 257.688011 
L 351.238224 101.054264 
L 351.400592 247.765514 
L 351.56296 112.394267 
L 351.725328 235.953016 
L 351.887696 124.443019 
L 352.050063 223.668018 
L 352.212431 137.43677 
L 352.293615 210.67427 
L 352.374799 209.96552 
L 352.455983 149.013021 
L 352.537167 150.903021 
L 352.618351 199.098021 
L 352.699535 195.790521 
L 352.780719 161.298022 
L 352.861903 164.841772 
L 352.943087 186.104272 
L 353.024271 182.088022 
L 353.105455 175.000522 
L 353.186638 178.544272 
L 353.349006 169.330522 
L 353.511374 191.065521 
L 353.673742 157.045522 
L 353.754926 203.58677 
L 353.83611 202.169271 
L 353.917294 143.106771 
L 353.998478 146.414271 
L 354.079662 217.998019 
L 354.160846 212.800519 
L 354.24203 129.404269 
L 354.323214 137.20052 
L 354.404397 231.936767 
L 354.485581 221.069268 
L 354.566765 115.701767 
L 354.647949 129.640519 
L 354.729133 244.694264 
L 354.810317 228.156767 
L 354.891501 104.125515 
L 354.972685 123.970519 
L 355.053869 256.743011 
L 355.135053 232.645517 
L 355.216237 92.785512 
L 355.297421 120.190518 
L 355.378605 266.193009 
L 355.459789 235.480516 
L 355.540973 85.22551 
L 355.622156 118.300518 
L 355.70334 273.516757 
L 355.784524 236.189266 
L 355.865708 79.083009 
L 355.946892 118.300518 
L 356.028076 278.714255 
L 356.10926 235.480516 
L 356.190444 75.539258 
L 356.271628 120.190518 
L 356.352812 280.840505 
L 356.433996 232.645517 
L 356.51518 74.830507 
L 356.596364 123.734268 
L 356.677548 280.131755 
L 356.758732 228.865517 
L 356.839915 76.956758 
L 356.921099 128.459269 
L 357.002283 277.060506 
L 357.083467 223.431768 
L 357.164651 81.445509 
L 357.245835 133.89302 
L 357.327019 270.445508 
L 357.408203 217.761769 
L 357.489387 89.241761 
L 357.651755 260.99551 
L 357.732939 210.43802 
L 357.814123 99.873014 
L 357.97649 249.891763 
L 358.057674 203.350521 
L 358.138858 112.158017 
L 358.301226 235.244266 
L 358.38241 196.263021 
L 358.463594 126.569269 
L 358.625962 220.360518 
L 358.707146 189.648022 
L 358.78833 143.106771 
L 358.950698 202.405521 
L 359.113066 160.589272 
L 359.275433 184.214272 
L 359.356617 177.835522 
L 359.437801 179.253022 
L 359.518985 178.544272 
L 359.600169 165.550522 
L 359.681353 173.346772 
L 359.762537 197.680521 
L 359.843721 182.796772 
L 359.924905 147.359271 
L 360.087273 216.108019 
L 360.168457 185.631772 
L 360.249641 129.404269 
L 360.412008 233.590516 
L 360.574376 112.866767 
L 360.736744 249.891763 
L 360.899112 97.983014 
L 361.06148 264.06676 
L 361.223848 85.22551 
L 361.386216 275.879256 
L 361.548584 74.594257 
L 361.710951 285.329253 
L 361.873319 66.561755 
L 362.035687 291.708001 
L 362.198055 62.545503 
L 362.360423 295.25175 
L 362.603975 59.238002 
L 362.766342 294.77925 
L 362.92871 62.073003 
L 363.091078 291.708001 
L 363.253446 67.034255 
L 363.415814 285.565503 
L 363.578182 74.594257 
L 363.74055 276.115506 
L 363.902918 84.51676 
L 364.065285 264.539259 
L 364.227653 97.038013 
L 364.390021 250.128013 
L 364.552389 112.630517 
L 364.714757 234.063016 
L 364.877125 129.640519 
L 365.039493 216.344269 
L 365.20186 146.886771 
L 365.364228 198.153021 
L 365.526596 165.550522 
L 365.688964 179.489272 
L 365.770148 177.599272 
L 365.851332 184.214272 
L 366.0137 160.825522 
L 366.176068 202.641771 
L 366.338436 142.870521 
L 366.500803 220.124269 
L 366.663171 126.569269 
L 366.825539 236.189266 
L 366.987907 111.685516 
L 367.150275 250.128013 
L 367.312643 98.928014 
L 367.475011 261.94051 
L 367.637378 88.296761 
L 367.799746 271.154258 
L 367.962114 80.736759 
L 368.124482 277.769256 
L 368.28685 75.775508 
L 368.449218 281.076755 
L 368.611586 73.649257 
L 368.773953 282.021754 
L 368.936321 74.594257 
L 369.098689 280.131755 
L 369.261057 77.665508 
L 369.423425 274.698007 
L 369.585793 84.28051 
L 369.748161 267.374259 
L 369.910529 92.785512 
L 370.072896 257.688011 
L 370.235264 103.180515 
L 370.397632 246.348014 
L 370.56 115.229267 
L 370.722368 232.881766 
L 370.884736 128.459269 
L 371.047104 219.415519 
L 371.209471 142.634271 
L 371.371839 204.53177 
L 371.534207 157.754272 
L 371.615391 191.301771 
L 371.696575 189.648022 
L 371.777759 169.803022 
L 371.858943 172.165522 
L 371.940127 178.780522 
L 372.021311 175.236772 
L 372.183679 186.813022 
L 372.346047 161.534272 
L 372.508414 200.043021 
L 372.670782 148.776771 
L 372.83315 211.85552 
L 372.995518 137.67302 
L 373.076702 223.195518 
L 373.157886 222.486768 
L 373.23907 125.624269 
L 373.320254 128.223019 
L 373.401438 235.716766 
L 373.482622 230.519267 
L 373.563805 113.339267 
L 373.644989 121.135518 
L 373.726173 247.293014 
L 373.807357 237.606766 
L 373.888541 102.708015 
L 373.969725 115.229267 
L 374.050909 257.451761 
L 374.132093 241.623015 
L 374.213277 93.966763 
L 374.294461 111.685516 
L 374.375645 265.720509 
L 374.456829 244.221764 
L 374.538013 87.115511 
L 374.619197 110.504266 
L 374.700381 271.390508 
L 374.781564 244.458014 
L 374.862748 82.15426 
L 374.943932 110.976766 
L 375.025116 274.934257 
L 375.1063 243.040515 
L 375.187484 79.791759 
L 375.268668 113.811767 
L 375.349852 276.351756 
L 375.431036 239.496765 
L 375.51222 80.736759 
L 375.593404 117.828018 
L 375.674588 274.934257 
L 375.755772 234.299266 
L 375.836956 83.57176 
L 375.91814 123.498018 
L 375.999323 269.500508 
L 376.080507 227.920517 
L 376.161691 89.950512 
L 376.242875 130.349269 
L 376.324059 261.94051 
L 376.405243 221.069268 
L 376.486427 97.983014 
L 376.567611 137.90927 
L 376.648795 252.254263 
L 376.729979 213.273019 
L 376.811163 108.850516 
L 376.892347 145.705521 
L 376.973531 239.733015 
L 377.135899 122.553018 
L 377.217082 153.974272 
L 377.298266 225.085518 
L 377.460634 137.43677 
L 377.541818 162.243022 
L 377.623002 209.25677 
L 377.78537 153.974272 
L 377.866554 170.039272 
L 377.947738 192.010521 
L 378.110106 171.456772 
L 378.19129 177.126772 
L 378.272474 174.291772 
L 378.353658 174.764272 
L 378.434841 189.648022 
L 378.516025 182.560522 
L 378.597209 155.864272 
L 378.678393 169.094272 
L 378.759577 208.07552 
L 378.840761 187.994272 
L 378.921945 137.90927 
L 379.084313 225.321768 
L 379.165497 191.538021 
L 379.246681 121.135518 
L 379.409049 242.095515 
L 379.490233 194.373021 
L 379.571416 105.543015 
L 379.733784 257.215511 
L 379.814968 195.790521 
L 379.896152 91.840512 
L 380.05852 270.209258 
L 380.220888 80.264259 
L 380.383256 280.840505 
L 380.545624 71.050506 
L 380.707992 288.873002 
L 380.870359 64.671754 
L 381.032727 293.361751 
L 381.195095 61.836753 
L 381.357463 295.488 
L 381.519831 61.600503 
L 381.682199 293.598001 
L 381.844567 64.671754 
L 382.006934 289.109252 
L 382.169302 71.286756 
L 382.33167 280.840505 
L 382.494038 79.555509 
L 382.656406 270.681758 
L 382.818774 91.604262 
L 382.981142 257.215511 
L 383.14351 105.779265 
L 383.305877 242.095515 
L 383.468245 121.371768 
L 383.630613 224.613018 
L 383.792981 139.09052 
L 383.955349 206.42177 
L 384.117717 157.518022 
L 384.280085 187.994272 
L 384.361268 176.181772 
L 384.442452 176.418022 
L 384.523636 177.126772 
L 384.60482 168.858022 
L 384.767188 195.081771 
L 384.929556 150.194271 
L 385.091924 213.273019 
L 385.254292 132.71177 
L 385.41666 230.991767 
L 385.579027 116.646767 
L 385.741395 245.875514 
L 385.903763 102.708015 
L 386.066131 259.578011 
L 386.228499 90.895512 
L 386.390867 270.681758 
L 386.553235 81.209259 
L 386.715603 278.950505 
L 386.87797 74.358007 
L 387.040338 284.148004 
L 387.202706 70.814256 
L 387.365074 286.274253 
L 387.527442 69.869256 
L 387.68981 285.801753 
L 387.852178 72.231757 
L 388.014545 282.258004 
L 388.176913 77.193008 
L 388.339281 275.879256 
L 388.501649 84.75301 
L 388.664017 266.901759 
L 388.826385 94.439263 
L 388.988753 255.561762 
L 389.151121 106.488015 
L 389.313488 243.040515 
L 389.475856 119.718018 
L 389.638224 228.865517 
L 389.800592 134.36552 
L 389.96296 213.273019 
L 390.125328 149.958021 
L 390.287696 197.444271 
L 390.450063 165.314272 
L 390.531247 183.978022 
L 390.612431 181.615522 
L 390.693615 177.363022 
L 390.774799 180.670522 
L 390.937167 166.495522 
L 391.099535 195.554271 
L 391.261903 152.320521 
L 391.424271 209.02052 
L 391.586638 139.79927 
L 391.749006 221.778018 
L 391.911374 128.223019 
L 392.073742 232.173017 
L 392.23611 118.536768 
L 392.398478 240.441765 
L 392.560846 111.685516 
L 392.64203 247.765514 
L 392.723214 246.584264 
L 392.804397 102.944265 
L 392.885581 106.488015 
L 392.966765 256.979261 
L 393.047949 250.600513 
L 393.129133 95.620513 
L 393.210317 103.889265 
L 393.291501 263.59426 
L 393.372685 252.726762 
L 393.453869 90.659262 
L 393.535053 102.944265 
L 393.616237 268.083009 
L 393.697421 252.254263 
L 393.778605 86.879261 
L 393.859789 104.834265 
L 393.940973 270.445508 
L 394.022156 249.655513 
L 394.10334 85.46176 
L 394.184524 107.905516 
L 394.265708 270.209258 
L 394.346892 244.930514 
L 394.428076 87.351761 
L 394.50926 113.811767 
L 394.590444 266.901759 
L 394.671628 238.788015 
L 394.752812 91.368012 
L 394.833996 120.426768 
L 394.91518 260.99551 
L 394.996364 231.700517 
L 395.077548 97.983014 
L 395.158732 127.986769 
L 395.239915 253.435512 
L 395.321099 222.723018 
L 395.402283 107.905516 
L 395.483467 136.72802 
L 395.564651 242.568015 
L 395.645835 213.745519 
L 395.727019 119.245518 
L 395.808203 146.414271 
L 395.889387 229.810517 
L 395.970571 204.29552 
L 396.051755 132.71177 
L 396.132939 155.628022 
L 396.214123 215.163019 
L 396.295307 194.845521 
L 396.37649 147.831771 
L 396.457674 164.369272 
L 396.538858 199.098021 
L 396.701226 164.605522 
L 396.78241 173.110522 
L 396.863594 182.088022 
L 396.944778 177.363022 
L 397.025962 181.615522 
L 397.107146 181.143022 
L 397.18833 164.605522 
L 397.269514 170.275522 
L 397.350698 199.570521 
L 397.431882 188.230522 
L 397.513066 146.886771 
L 397.594249 163.660522 
L 397.675433 217.289269 
L 397.756617 194.136771 
L 397.837801 129.876769 
L 397.918985 158.699272 
L 398.000169 233.826766 
L 398.081353 198.625521 
L 398.162537 113.811767 
L 398.324905 249.419263 
L 398.406089 201.696771 
L 398.487273 99.636764 
L 398.487273 99.636764 
" style="fill:none;stroke:#1f77b4;stroke-linecap:square;stroke-width:1.5;"/>
   </g>
   <g id="patch_3">
    <path d="M 57.6 307.584 
L 57.6 41.472 
" style="fill:none;stroke:#000000;stroke-linecap:square;stroke-linejoin:miter;stroke-width:0.8;"/>
   </g>
   <g id="patch_4">
    <path d="M 414.72 307.584 
L 414.72 41.472 
" style="fill:none;stroke:#000000;stroke-linecap:square;stroke-linejoin:miter;stroke-width:0.8;"/>
   </g>
   <g id="patch_5">
    <path d="M 57.6 307.584 
L 414.72 307.584 
" style="fill:none;stroke:#000000;stroke-linecap:square;stroke-linejoin:miter;stroke-width:0.8;"/>
   </g>
   <g id="patch_6">
    <path d="M 57.6 41.472 
L 414.72 41.472 
" style="fill:none;stroke:#000000;stroke-linecap:square;stroke-linejoin:miter;stroke-width:0.8;"/>
   </g>
   <g id="text_19">
    <!-- received signal sliced -->
    <g transform="translate(171.605625 35.472)scale(0.12 -0.12)">
     <defs>
      <path d="M 2631 2963 
Q 2534 3019 2420 3045 
Q 2306 3072 2169 3072 
Q 1681 3072 1420 2755 
Q 1159 2438 1159 1844 
L 1159 0 
L 581 0 
L 581 3500 
L 1159 3500 
L 1159 2956 
Q 1341 3275 1631 3429 
Q 1922 3584 2338 3584 
Q 2397 3584 2469 3576 
Q 2541 3569 2628 3553 
L 2631 2963 
z
" id="DejaVuSans-72" transform="scale(0.015625)"/>
      <path d="M 3122 3366 
L 3122 2828 
Q 2878 2963 2633 3030 
Q 2388 3097 2138 3097 
Q 1578 3097 1268 2742 
Q 959 2388 959 1747 
Q 959 1106 1268 751 
Q 1578 397 2138 397 
Q 2388 397 2633 464 
Q 2878 531 3122 666 
L 3122 134 
Q 2881 22 2623 -34 
Q 2366 -91 2075 -91 
Q 1284 -91 818 406 
Q 353 903 353 1747 
Q 353 2603 823 3093 
Q 1294 3584 2113 3584 
Q 2378 3584 2631 3529 
Q 2884 3475 3122 3366 
z
" id="DejaVuSans-63" transform="scale(0.015625)"/>
      <path d="M 191 3500 
L 800 3500 
L 1894 563 
L 2988 3500 
L 3597 3500 
L 2284 0 
L 1503 0 
L 191 3500 
z
" id="DejaVuSans-76" transform="scale(0.015625)"/>
      <path d="M 2906 2969 
L 2906 4863 
L 3481 4863 
L 3481 0 
L 2906 0 
L 2906 525 
Q 2725 213 2448 61 
Q 2172 -91 1784 -91 
Q 1150 -91 751 415 
Q 353 922 353 1747 
Q 353 2572 751 3078 
Q 1150 3584 1784 3584 
Q 2172 3584 2448 3432 
Q 2725 3281 2906 2969 
z
M 947 1747 
Q 947 1113 1208 752 
Q 1469 391 1925 391 
Q 2381 391 2643 752 
Q 2906 1113 2906 1747 
Q 2906 2381 2643 2742 
Q 2381 3103 1925 3103 
Q 1469 3103 1208 2742 
Q 947 2381 947 1747 
z
" id="DejaVuSans-64" transform="scale(0.015625)"/>
      <path d="M 2906 1791 
Q 2906 2416 2648 2759 
Q 2391 3103 1925 3103 
Q 1463 3103 1205 2759 
Q 947 2416 947 1791 
Q 947 1169 1205 825 
Q 1463 481 1925 481 
Q 2391 481 2648 825 
Q 2906 1169 2906 1791 
z
M 3481 434 
Q 3481 -459 3084 -895 
Q 2688 -1331 1869 -1331 
Q 1566 -1331 1297 -1286 
Q 1028 -1241 775 -1147 
L 775 -588 
Q 1028 -725 1275 -790 
Q 1522 -856 1778 -856 
Q 2344 -856 2625 -561 
Q 2906 -266 2906 331 
L 2906 616 
Q 2728 306 2450 153 
Q 2172 0 1784 0 
Q 1141 0 747 490 
Q 353 981 353 1791 
Q 353 2603 747 3093 
Q 1141 3584 1784 3584 
Q 2172 3584 2450 3431 
Q 2728 3278 2906 2969 
L 2906 3500 
L 3481 3500 
L 3481 434 
z
" id="DejaVuSans-67" transform="scale(0.015625)"/>
      <path d="M 3513 2113 
L 3513 0 
L 2938 0 
L 2938 2094 
Q 2938 2591 2744 2837 
Q 2550 3084 2163 3084 
Q 1697 3084 1428 2787 
Q 1159 2491 1159 1978 
L 1159 0 
L 581 0 
L 581 3500 
L 1159 3500 
L 1159 2956 
Q 1366 3272 1645 3428 
Q 1925 3584 2291 3584 
Q 2894 3584 3203 3211 
Q 3513 2838 3513 2113 
z
" id="DejaVuSans-6e" transform="scale(0.015625)"/>
      <path d="M 2194 1759 
Q 1497 1759 1228 1600 
Q 959 1441 959 1056 
Q 959 750 1161 570 
Q 1363 391 1709 391 
Q 2188 391 2477 730 
Q 2766 1069 2766 1631 
L 2766 1759 
L 2194 1759 
z
M 3341 1997 
L 3341 0 
L 2766 0 
L 2766 531 
Q 2569 213 2275 61 
Q 1981 -91 1556 -91 
Q 1019 -91 701 211 
Q 384 513 384 1019 
Q 384 1609 779 1909 
Q 1175 2209 1959 2209 
L 2766 2209 
L 2766 2266 
Q 2766 2663 2505 2880 
Q 2244 3097 1772 3097 
Q 1472 3097 1187 3025 
Q 903 2953 641 2809 
L 641 3341 
Q 956 3463 1253 3523 
Q 1550 3584 1831 3584 
Q 2591 3584 2966 3190 
Q 3341 2797 3341 1997 
z
" id="DejaVuSans-61" transform="scale(0.015625)"/>
      <path d="M 603 4863 
L 1178 4863 
L 1178 0 
L 603 0 
L 603 4863 
z
" id="DejaVuSans-6c" transform="scale(0.015625)"/>
     </defs>
     <use xlink:href="#DejaVuSans-72"/>
     <use x="38.863281" xlink:href="#DejaVuSans-65"/>
     <use x="100.386719" xlink:href="#DejaVuSans-63"/>
     <use x="155.367188" xlink:href="#DejaVuSans-65"/>
     <use x="216.890625" xlink:href="#DejaVuSans-69"/>
     <use x="244.673828" xlink:href="#DejaVuSans-76"/>
     <use x="303.853516" xlink:href="#DejaVuSans-65"/>
     <use x="365.376953" xlink:href="#DejaVuSans-64"/>
     <use x="428.853516" xlink:href="#DejaVuSans-20"/>
     <use x="460.640625" xlink:href="#DejaVuSans-73"/>
     <use x="512.740234" xlink:href="#DejaVuSans-69"/>
     <use x="540.523438" xlink:href="#DejaVuSans-67"/>
     <use x="604" xlink:href="#DejaVuSans-6e"/>
     <use x="667.378906" xlink:href="#DejaVuSans-61"/>
     <use x="728.658203" xlink:href="#DejaVuSans-6c"/>
     <use x="756.441406" xlink:href="#DejaVuSans-20"/>
     <use x="788.228516" xlink:href="#DejaVuSans-73"/>
     <use x="840.328125" xlink:href="#DejaVuSans-6c"/>
     <use x="868.111328" xlink:href="#DejaVuSans-69"/>
     <use x="895.894531" xlink:href="#DejaVuSans-63"/>
     <use x="950.875" xlink:href="#DejaVuSans-65"/>
     <use x="1012.398438" xlink:href="#DejaVuSans-64"/>
    </g>
   </g>
  </g>
 </g>
 <defs>
  <clipPath id="p1411c09277">
   <rect height="266.112" width="357.12" x="57.6" y="41.472"/>
  </clipPath>
 </defs>
</svg>
