<?xml version="1.0" encoding="utf-8" standalone="no"?>
<!DOCTYPE svg PUBLIC "-//W3C//DTD SVG 1.1//EN"
  "http://www.w3.org/Graphics/SVG/1.1/DTD/svg11.dtd">
<svg height="345.6pt" version="1.1" viewBox="0 0 460.8 345.6" width="460.8pt" xmlns="http://www.w3.org/2000/svg" xmlns:xlink="http://www.w3.org/1999/xlink">
 <metadata>
  <rdf:RDF xmlns:cc="http://creativecommons.org/ns#" xmlns:dc="http://purl.org/dc/elements/1.1/" xmlns:rdf="http://www.w3.org/1999/02/22-rdf-syntax-ns#">
   <cc:Work>
    <dc:type rdf:resource="http://purl.org/dc/dcmitype/StillImage"/>
    <dc:date>2021-11-07T21:56:31.604970</dc:date>
    <dc:format>image/svg+xml</dc:format>
    <dc:creator>
     <cc:Agent>
      <dc:title>Matplotlib v3.4.3, https://matplotlib.org/</dc:title>
     </cc:Agent>
    </dc:creator>
   </cc:Work>
  </rdf:RDF>
 </metadata>
 <defs>
  <style type="text/css">*{stroke-linecap:butt;stroke-linejoin:round;}</style>
 </defs>
 <g id="figure_1">
  <g id="patch_1">
   <path d="M 0 345.6 
L 460.8 345.6 
L 460.8 0 
L 0 0 
z
" style="fill:#ffffff;"/>
  </g>
  <g id="axes_1">
   <g id="patch_2">
    <path d="M 57.6 307.584 
L 414.72 307.584 
L 414.72 41.472 
L 57.6 41.472 
z
" style="fill:#ffffff;"/>
   </g>
   <g id="matplotlib.axis_1">
    <g id="xtick_1">
     <g id="line2d_1">
      <defs>
       <path d="M 0 0 
L 0 3.5 
" id="mb37d22da99" style="stroke:#000000;stroke-width:0.8;"/>
      </defs>
      <g>
       <use style="stroke:#000000;stroke-width:0.8;" x="73.832727" xlink:href="#mb37d22da99" y="307.584"/>
      </g>
     </g>
     <g id="text_1">
      <!-- −10000 -->
      <g transform="translate(53.736634 322.182437)scale(0.1 -0.1)">
       <defs>
        <path d="M 678 2272 
L 4684 2272 
L 4684 1741 
L 678 1741 
L 678 2272 
z
" id="DejaVuSans-2212" transform="scale(0.015625)"/>
        <path d="M 794 531 
L 1825 531 
L 1825 4091 
L 703 3866 
L 703 4441 
L 1819 4666 
L 2450 4666 
L 2450 531 
L 3481 531 
L 3481 0 
L 794 0 
L 794 531 
z
" id="DejaVuSans-31" transform="scale(0.015625)"/>
        <path d="M 2034 4250 
Q 1547 4250 1301 3770 
Q 1056 3291 1056 2328 
Q 1056 1369 1301 889 
Q 1547 409 2034 409 
Q 2525 409 2770 889 
Q 3016 1369 3016 2328 
Q 3016 3291 2770 3770 
Q 2525 4250 2034 4250 
z
M 2034 4750 
Q 2819 4750 3233 4129 
Q 3647 3509 3647 2328 
Q 3647 1150 3233 529 
Q 2819 -91 2034 -91 
Q 1250 -91 836 529 
Q 422 1150 422 2328 
Q 422 3509 836 4129 
Q 1250 4750 2034 4750 
z
" id="DejaVuSans-30" transform="scale(0.015625)"/>
       </defs>
       <use xlink:href="#DejaVuSans-2212"/>
       <use x="83.789062" xlink:href="#DejaVuSans-31"/>
       <use x="147.412109" xlink:href="#DejaVuSans-30"/>
       <use x="211.035156" xlink:href="#DejaVuSans-30"/>
       <use x="274.658203" xlink:href="#DejaVuSans-30"/>
       <use x="338.28125" xlink:href="#DejaVuSans-30"/>
      </g>
     </g>
    </g>
    <g id="xtick_2">
     <g id="line2d_2">
      <g>
       <use style="stroke:#000000;stroke-width:0.8;" x="114.424693" xlink:href="#mb37d22da99" y="307.584"/>
      </g>
     </g>
     <g id="text_2">
      <!-- −7500 -->
      <g transform="translate(97.50985 322.182437)scale(0.1 -0.1)">
       <defs>
        <path d="M 525 4666 
L 3525 4666 
L 3525 4397 
L 1831 0 
L 1172 0 
L 2766 4134 
L 525 4134 
L 525 4666 
z
" id="DejaVuSans-37" transform="scale(0.015625)"/>
        <path d="M 691 4666 
L 3169 4666 
L 3169 4134 
L 1269 4134 
L 1269 2991 
Q 1406 3038 1543 3061 
Q 1681 3084 1819 3084 
Q 2600 3084 3056 2656 
Q 3513 2228 3513 1497 
Q 3513 744 3044 326 
Q 2575 -91 1722 -91 
Q 1428 -91 1123 -41 
Q 819 9 494 109 
L 494 744 
Q 775 591 1075 516 
Q 1375 441 1709 441 
Q 2250 441 2565 725 
Q 2881 1009 2881 1497 
Q 2881 1984 2565 2268 
Q 2250 2553 1709 2553 
Q 1456 2553 1204 2497 
Q 953 2441 691 2322 
L 691 4666 
z
" id="DejaVuSans-35" transform="scale(0.015625)"/>
       </defs>
       <use xlink:href="#DejaVuSans-2212"/>
       <use x="83.789062" xlink:href="#DejaVuSans-37"/>
       <use x="147.412109" xlink:href="#DejaVuSans-35"/>
       <use x="211.035156" xlink:href="#DejaVuSans-30"/>
       <use x="274.658203" xlink:href="#DejaVuSans-30"/>
      </g>
     </g>
    </g>
    <g id="xtick_3">
     <g id="line2d_3">
      <g>
       <use style="stroke:#000000;stroke-width:0.8;" x="155.01666" xlink:href="#mb37d22da99" y="307.584"/>
      </g>
     </g>
     <g id="text_3">
      <!-- −5000 -->
      <g transform="translate(138.101816 322.182437)scale(0.1 -0.1)">
       <use xlink:href="#DejaVuSans-2212"/>
       <use x="83.789062" xlink:href="#DejaVuSans-35"/>
       <use x="147.412109" xlink:href="#DejaVuSans-30"/>
       <use x="211.035156" xlink:href="#DejaVuSans-30"/>
       <use x="274.658203" xlink:href="#DejaVuSans-30"/>
      </g>
     </g>
    </g>
    <g id="xtick_4">
     <g id="line2d_4">
      <g>
       <use style="stroke:#000000;stroke-width:0.8;" x="195.608626" xlink:href="#mb37d22da99" y="307.584"/>
      </g>
     </g>
     <g id="text_4">
      <!-- −2500 -->
      <g transform="translate(178.693782 322.182437)scale(0.1 -0.1)">
       <defs>
        <path d="M 1228 531 
L 3431 531 
L 3431 0 
L 469 0 
L 469 531 
Q 828 903 1448 1529 
Q 2069 2156 2228 2338 
Q 2531 2678 2651 2914 
Q 2772 3150 2772 3378 
Q 2772 3750 2511 3984 
Q 2250 4219 1831 4219 
Q 1534 4219 1204 4116 
Q 875 4013 500 3803 
L 500 4441 
Q 881 4594 1212 4672 
Q 1544 4750 1819 4750 
Q 2544 4750 2975 4387 
Q 3406 4025 3406 3419 
Q 3406 3131 3298 2873 
Q 3191 2616 2906 2266 
Q 2828 2175 2409 1742 
Q 1991 1309 1228 531 
z
" id="DejaVuSans-32" transform="scale(0.015625)"/>
       </defs>
       <use xlink:href="#DejaVuSans-2212"/>
       <use x="83.789062" xlink:href="#DejaVuSans-32"/>
       <use x="147.412109" xlink:href="#DejaVuSans-35"/>
       <use x="211.035156" xlink:href="#DejaVuSans-30"/>
       <use x="274.658203" xlink:href="#DejaVuSans-30"/>
      </g>
     </g>
    </g>
    <g id="xtick_5">
     <g id="line2d_5">
      <g>
       <use style="stroke:#000000;stroke-width:0.8;" x="236.200592" xlink:href="#mb37d22da99" y="307.584"/>
      </g>
     </g>
     <g id="text_5">
      <!-- 0 -->
      <g transform="translate(233.019342 322.182437)scale(0.1 -0.1)">
       <use xlink:href="#DejaVuSans-30"/>
      </g>
     </g>
    </g>
    <g id="xtick_6">
     <g id="line2d_6">
      <g>
       <use style="stroke:#000000;stroke-width:0.8;" x="276.792558" xlink:href="#mb37d22da99" y="307.584"/>
      </g>
     </g>
     <g id="text_6">
      <!-- 2500 -->
      <g transform="translate(264.067558 322.182437)scale(0.1 -0.1)">
       <use xlink:href="#DejaVuSans-32"/>
       <use x="63.623047" xlink:href="#DejaVuSans-35"/>
       <use x="127.246094" xlink:href="#DejaVuSans-30"/>
       <use x="190.869141" xlink:href="#DejaVuSans-30"/>
      </g>
     </g>
    </g>
    <g id="xtick_7">
     <g id="line2d_7">
      <g>
       <use style="stroke:#000000;stroke-width:0.8;" x="317.384524" xlink:href="#mb37d22da99" y="307.584"/>
      </g>
     </g>
     <g id="text_7">
      <!-- 5000 -->
      <g transform="translate(304.659524 322.182437)scale(0.1 -0.1)">
       <use xlink:href="#DejaVuSans-35"/>
       <use x="63.623047" xlink:href="#DejaVuSans-30"/>
       <use x="127.246094" xlink:href="#DejaVuSans-30"/>
       <use x="190.869141" xlink:href="#DejaVuSans-30"/>
      </g>
     </g>
    </g>
    <g id="xtick_8">
     <g id="line2d_8">
      <g>
       <use style="stroke:#000000;stroke-width:0.8;" x="357.97649" xlink:href="#mb37d22da99" y="307.584"/>
      </g>
     </g>
     <g id="text_8">
      <!-- 7500 -->
      <g transform="translate(345.25149 322.182437)scale(0.1 -0.1)">
       <use xlink:href="#DejaVuSans-37"/>
       <use x="63.623047" xlink:href="#DejaVuSans-35"/>
       <use x="127.246094" xlink:href="#DejaVuSans-30"/>
       <use x="190.869141" xlink:href="#DejaVuSans-30"/>
      </g>
     </g>
    </g>
    <g id="xtick_9">
     <g id="line2d_9">
      <g>
       <use style="stroke:#000000;stroke-width:0.8;" x="398.568457" xlink:href="#mb37d22da99" y="307.584"/>
      </g>
     </g>
     <g id="text_9">
      <!-- 10000 -->
      <g transform="translate(382.662207 322.182437)scale(0.1 -0.1)">
       <use xlink:href="#DejaVuSans-31"/>
       <use x="63.623047" xlink:href="#DejaVuSans-30"/>
       <use x="127.246094" xlink:href="#DejaVuSans-30"/>
       <use x="190.869141" xlink:href="#DejaVuSans-30"/>
       <use x="254.492188" xlink:href="#DejaVuSans-30"/>
      </g>
     </g>
    </g>
    <g id="text_10">
     <!-- frequency $\left[Hz\right]$ -->
     <g transform="translate(199.06 335.862125)scale(0.1 -0.1)">
      <defs>
       <path d="M 2375 4863 
L 2375 4384 
L 1825 4384 
Q 1516 4384 1395 4259 
Q 1275 4134 1275 3809 
L 1275 3500 
L 2222 3500 
L 2222 3053 
L 1275 3053 
L 1275 0 
L 697 0 
L 697 3053 
L 147 3053 
L 147 3500 
L 697 3500 
L 697 3744 
Q 697 4328 969 4595 
Q 1241 4863 1831 4863 
L 2375 4863 
z
" id="DejaVuSans-66" transform="scale(0.015625)"/>
       <path d="M 2631 2963 
Q 2534 3019 2420 3045 
Q 2306 3072 2169 3072 
Q 1681 3072 1420 2755 
Q 1159 2438 1159 1844 
L 1159 0 
L 581 0 
L 581 3500 
L 1159 3500 
L 1159 2956 
Q 1341 3275 1631 3429 
Q 1922 3584 2338 3584 
Q 2397 3584 2469 3576 
Q 2541 3569 2628 3553 
L 2631 2963 
z
" id="DejaVuSans-72" transform="scale(0.015625)"/>
       <path d="M 3597 1894 
L 3597 1613 
L 953 1613 
Q 991 1019 1311 708 
Q 1631 397 2203 397 
Q 2534 397 2845 478 
Q 3156 559 3463 722 
L 3463 178 
Q 3153 47 2828 -22 
Q 2503 -91 2169 -91 
Q 1331 -91 842 396 
Q 353 884 353 1716 
Q 353 2575 817 3079 
Q 1281 3584 2069 3584 
Q 2775 3584 3186 3129 
Q 3597 2675 3597 1894 
z
M 3022 2063 
Q 3016 2534 2758 2815 
Q 2500 3097 2075 3097 
Q 1594 3097 1305 2825 
Q 1016 2553 972 2059 
L 3022 2063 
z
" id="DejaVuSans-65" transform="scale(0.015625)"/>
       <path d="M 947 1747 
Q 947 1113 1208 752 
Q 1469 391 1925 391 
Q 2381 391 2643 752 
Q 2906 1113 2906 1747 
Q 2906 2381 2643 2742 
Q 2381 3103 1925 3103 
Q 1469 3103 1208 2742 
Q 947 2381 947 1747 
z
M 2906 525 
Q 2725 213 2448 61 
Q 2172 -91 1784 -91 
Q 1150 -91 751 415 
Q 353 922 353 1747 
Q 353 2572 751 3078 
Q 1150 3584 1784 3584 
Q 2172 3584 2448 3432 
Q 2725 3281 2906 2969 
L 2906 3500 
L 3481 3500 
L 3481 -1331 
L 2906 -1331 
L 2906 525 
z
" id="DejaVuSans-71" transform="scale(0.015625)"/>
       <path d="M 544 1381 
L 544 3500 
L 1119 3500 
L 1119 1403 
Q 1119 906 1312 657 
Q 1506 409 1894 409 
Q 2359 409 2629 706 
Q 2900 1003 2900 1516 
L 2900 3500 
L 3475 3500 
L 3475 0 
L 2900 0 
L 2900 538 
Q 2691 219 2414 64 
Q 2138 -91 1772 -91 
Q 1169 -91 856 284 
Q 544 659 544 1381 
z
M 1991 3584 
L 1991 3584 
z
" id="DejaVuSans-75" transform="scale(0.015625)"/>
       <path d="M 3513 2113 
L 3513 0 
L 2938 0 
L 2938 2094 
Q 2938 2591 2744 2837 
Q 2550 3084 2163 3084 
Q 1697 3084 1428 2787 
Q 1159 2491 1159 1978 
L 1159 0 
L 581 0 
L 581 3500 
L 1159 3500 
L 1159 2956 
Q 1366 3272 1645 3428 
Q 1925 3584 2291 3584 
Q 2894 3584 3203 3211 
Q 3513 2838 3513 2113 
z
" id="DejaVuSans-6e" transform="scale(0.015625)"/>
       <path d="M 3122 3366 
L 3122 2828 
Q 2878 2963 2633 3030 
Q 2388 3097 2138 3097 
Q 1578 3097 1268 2742 
Q 959 2388 959 1747 
Q 959 1106 1268 751 
Q 1578 397 2138 397 
Q 2388 397 2633 464 
Q 2878 531 3122 666 
L 3122 134 
Q 2881 22 2623 -34 
Q 2366 -91 2075 -91 
Q 1284 -91 818 406 
Q 353 903 353 1747 
Q 353 2603 823 3093 
Q 1294 3584 2113 3584 
Q 2378 3584 2631 3529 
Q 2884 3475 3122 3366 
z
" id="DejaVuSans-63" transform="scale(0.015625)"/>
       <path d="M 2059 -325 
Q 1816 -950 1584 -1140 
Q 1353 -1331 966 -1331 
L 506 -1331 
L 506 -850 
L 844 -850 
Q 1081 -850 1212 -737 
Q 1344 -625 1503 -206 
L 1606 56 
L 191 3500 
L 800 3500 
L 1894 763 
L 2988 3500 
L 3597 3500 
L 2059 -325 
z
" id="DejaVuSans-79" transform="scale(0.015625)"/>
       <path id="DejaVuSans-20" transform="scale(0.015625)"/>
       <path d="M 550 4863 
L 1875 4863 
L 1875 4416 
L 1125 4416 
L 1125 -397 
L 1875 -397 
L 1875 -844 
L 550 -844 
L 550 4863 
z
" id="DejaVuSans-5b" transform="scale(0.015625)"/>
       <path d="M 1081 4666 
L 1716 4666 
L 1344 2753 
L 3634 2753 
L 4006 4666 
L 4641 4666 
L 3731 0 
L 3097 0 
L 3531 2222 
L 1241 2222 
L 806 0 
L 172 0 
L 1081 4666 
z
" id="DejaVuSans-Oblique-48" transform="scale(0.015625)"/>
       <path d="M 744 3500 
L 3475 3500 
L 3372 2975 
L 738 459 
L 2913 459 
L 2822 0 
L -19 0 
L 84 525 
L 2719 3041 
L 653 3041 
L 744 3500 
z
" id="DejaVuSans-Oblique-7a" transform="scale(0.015625)"/>
       <path d="M 1947 4863 
L 1947 -844 
L 622 -844 
L 622 -397 
L 1369 -397 
L 1369 4416 
L 622 4416 
L 622 4863 
L 1947 4863 
z
" id="DejaVuSans-5d" transform="scale(0.015625)"/>
      </defs>
      <use transform="translate(0 0.015625)" xlink:href="#DejaVuSans-66"/>
      <use transform="translate(35.205078 0.015625)" xlink:href="#DejaVuSans-72"/>
      <use transform="translate(76.318359 0.015625)" xlink:href="#DejaVuSans-65"/>
      <use transform="translate(137.841797 0.015625)" xlink:href="#DejaVuSans-71"/>
      <use transform="translate(201.318359 0.015625)" xlink:href="#DejaVuSans-75"/>
      <use transform="translate(264.697266 0.015625)" xlink:href="#DejaVuSans-65"/>
      <use transform="translate(326.220703 0.015625)" xlink:href="#DejaVuSans-6e"/>
      <use transform="translate(389.599609 0.015625)" xlink:href="#DejaVuSans-63"/>
      <use transform="translate(444.580078 0.015625)" xlink:href="#DejaVuSans-79"/>
      <use transform="translate(503.759766 0.015625)" xlink:href="#DejaVuSans-20"/>
      <use transform="translate(535.546875 0.015625)" xlink:href="#DejaVuSans-5b"/>
      <use transform="translate(574.560547 0.015625)" xlink:href="#DejaVuSans-Oblique-48"/>
      <use transform="translate(649.755859 0.015625)" xlink:href="#DejaVuSans-Oblique-7a"/>
      <use transform="translate(702.246094 0.015625)" xlink:href="#DejaVuSans-5d"/>
     </g>
    </g>
   </g>
   <g id="matplotlib.axis_2">
    <g id="ytick_1">
     <g id="line2d_10">
      <defs>
       <path d="M 0 0 
L -3.5 0 
" id="m0289a2ab48" style="stroke:#000000;stroke-width:0.8;"/>
      </defs>
      <g>
       <use style="stroke:#000000;stroke-width:0.8;" x="57.6" xlink:href="#m0289a2ab48" y="284.207009"/>
      </g>
     </g>
     <g id="text_11">
      <!-- $\mathdefault{10^{-5}}$ -->
      <g transform="translate(27.1 288.006228)scale(0.1 -0.1)">
       <use transform="translate(0 0.684375)" xlink:href="#DejaVuSans-31"/>
       <use transform="translate(63.623047 0.684375)" xlink:href="#DejaVuSans-30"/>
       <use transform="translate(128.203125 38.965625)scale(0.7)" xlink:href="#DejaVuSans-2212"/>
       <use transform="translate(186.855469 38.965625)scale(0.7)" xlink:href="#DejaVuSans-35"/>
      </g>
     </g>
    </g>
    <g id="ytick_2">
     <g id="line2d_11">
      <g>
       <use style="stroke:#000000;stroke-width:0.8;" x="57.6" xlink:href="#m0289a2ab48" y="232.668475"/>
      </g>
     </g>
     <g id="text_12">
      <!-- $\mathdefault{10^{-4}}$ -->
      <g transform="translate(27.1 236.467694)scale(0.1 -0.1)">
       <defs>
        <path d="M 2419 4116 
L 825 1625 
L 2419 1625 
L 2419 4116 
z
M 2253 4666 
L 3047 4666 
L 3047 1625 
L 3713 1625 
L 3713 1100 
L 3047 1100 
L 3047 0 
L 2419 0 
L 2419 1100 
L 313 1100 
L 313 1709 
L 2253 4666 
z
" id="DejaVuSans-34" transform="scale(0.015625)"/>
       </defs>
       <use transform="translate(0 0.684375)" xlink:href="#DejaVuSans-31"/>
       <use transform="translate(63.623047 0.684375)" xlink:href="#DejaVuSans-30"/>
       <use transform="translate(128.203125 38.965625)scale(0.7)" xlink:href="#DejaVuSans-2212"/>
       <use transform="translate(186.855469 38.965625)scale(0.7)" xlink:href="#DejaVuSans-34"/>
      </g>
     </g>
    </g>
    <g id="ytick_3">
     <g id="line2d_12">
      <g>
       <use style="stroke:#000000;stroke-width:0.8;" x="57.6" xlink:href="#m0289a2ab48" y="181.129941"/>
      </g>
     </g>
     <g id="text_13">
      <!-- $\mathdefault{10^{-3}}$ -->
      <g transform="translate(27.1 184.92916)scale(0.1 -0.1)">
       <defs>
        <path d="M 2597 2516 
Q 3050 2419 3304 2112 
Q 3559 1806 3559 1356 
Q 3559 666 3084 287 
Q 2609 -91 1734 -91 
Q 1441 -91 1130 -33 
Q 819 25 488 141 
L 488 750 
Q 750 597 1062 519 
Q 1375 441 1716 441 
Q 2309 441 2620 675 
Q 2931 909 2931 1356 
Q 2931 1769 2642 2001 
Q 2353 2234 1838 2234 
L 1294 2234 
L 1294 2753 
L 1863 2753 
Q 2328 2753 2575 2939 
Q 2822 3125 2822 3475 
Q 2822 3834 2567 4026 
Q 2313 4219 1838 4219 
Q 1578 4219 1281 4162 
Q 984 4106 628 3988 
L 628 4550 
Q 988 4650 1302 4700 
Q 1616 4750 1894 4750 
Q 2613 4750 3031 4423 
Q 3450 4097 3450 3541 
Q 3450 3153 3228 2886 
Q 3006 2619 2597 2516 
z
" id="DejaVuSans-33" transform="scale(0.015625)"/>
       </defs>
       <use transform="translate(0 0.765625)" xlink:href="#DejaVuSans-31"/>
       <use transform="translate(63.623047 0.765625)" xlink:href="#DejaVuSans-30"/>
       <use transform="translate(128.203125 39.046875)scale(0.7)" xlink:href="#DejaVuSans-2212"/>
       <use transform="translate(186.855469 39.046875)scale(0.7)" xlink:href="#DejaVuSans-33"/>
      </g>
     </g>
    </g>
    <g id="ytick_4">
     <g id="line2d_13">
      <g>
       <use style="stroke:#000000;stroke-width:0.8;" x="57.6" xlink:href="#m0289a2ab48" y="129.591407"/>
      </g>
     </g>
     <g id="text_14">
      <!-- $\mathdefault{10^{-2}}$ -->
      <g transform="translate(27.1 133.390626)scale(0.1 -0.1)">
       <use transform="translate(0 0.765625)" xlink:href="#DejaVuSans-31"/>
       <use transform="translate(63.623047 0.765625)" xlink:href="#DejaVuSans-30"/>
       <use transform="translate(128.203125 39.046875)scale(0.7)" xlink:href="#DejaVuSans-2212"/>
       <use transform="translate(186.855469 39.046875)scale(0.7)" xlink:href="#DejaVuSans-32"/>
      </g>
     </g>
    </g>
    <g id="ytick_5">
     <g id="line2d_14">
      <g>
       <use style="stroke:#000000;stroke-width:0.8;" x="57.6" xlink:href="#m0289a2ab48" y="78.052873"/>
      </g>
     </g>
     <g id="text_15">
      <!-- $\mathdefault{10^{-1}}$ -->
      <g transform="translate(27.1 81.852092)scale(0.1 -0.1)">
       <use transform="translate(0 0.684375)" xlink:href="#DejaVuSans-31"/>
       <use transform="translate(63.623047 0.684375)" xlink:href="#DejaVuSans-30"/>
       <use transform="translate(128.203125 38.965625)scale(0.7)" xlink:href="#DejaVuSans-2212"/>
       <use transform="translate(186.855469 38.965625)scale(0.7)" xlink:href="#DejaVuSans-31"/>
      </g>
     </g>
    </g>
    <g id="ytick_6">
     <g id="line2d_15">
      <defs>
       <path d="M 0 0 
L -2 0 
" id="m3e3902a292" style="stroke:#000000;stroke-width:0.6;"/>
      </defs>
      <g>
       <use style="stroke:#000000;stroke-width:0.6;" x="57.6" xlink:href="#m3e3902a292" y="304.716254"/>
      </g>
     </g>
    </g>
    <g id="ytick_7">
     <g id="line2d_16">
      <g>
       <use style="stroke:#000000;stroke-width:0.6;" x="57.6" xlink:href="#m3e3902a292" y="299.721654"/>
      </g>
     </g>
    </g>
    <g id="ytick_8">
     <g id="line2d_17">
      <g>
       <use style="stroke:#000000;stroke-width:0.6;" x="57.6" xlink:href="#m3e3902a292" y="295.640768"/>
      </g>
     </g>
    </g>
    <g id="ytick_9">
     <g id="line2d_18">
      <g>
       <use style="stroke:#000000;stroke-width:0.6;" x="57.6" xlink:href="#m3e3902a292" y="292.190429"/>
      </g>
     </g>
    </g>
    <g id="ytick_10">
     <g id="line2d_19">
      <g>
       <use style="stroke:#000000;stroke-width:0.6;" x="57.6" xlink:href="#m3e3902a292" y="289.201609"/>
      </g>
     </g>
    </g>
    <g id="ytick_11">
     <g id="line2d_20">
      <g>
       <use style="stroke:#000000;stroke-width:0.6;" x="57.6" xlink:href="#m3e3902a292" y="286.565283"/>
      </g>
     </g>
    </g>
    <g id="ytick_12">
     <g id="line2d_21">
      <g>
       <use style="stroke:#000000;stroke-width:0.6;" x="57.6" xlink:href="#m3e3902a292" y="268.692364"/>
      </g>
     </g>
    </g>
    <g id="ytick_13">
     <g id="line2d_22">
      <g>
       <use style="stroke:#000000;stroke-width:0.6;" x="57.6" xlink:href="#m3e3902a292" y="259.616879"/>
      </g>
     </g>
    </g>
    <g id="ytick_14">
     <g id="line2d_23">
      <g>
       <use style="stroke:#000000;stroke-width:0.6;" x="57.6" xlink:href="#m3e3902a292" y="253.17772"/>
      </g>
     </g>
    </g>
    <g id="ytick_15">
     <g id="line2d_24">
      <g>
       <use style="stroke:#000000;stroke-width:0.6;" x="57.6" xlink:href="#m3e3902a292" y="248.18312"/>
      </g>
     </g>
    </g>
    <g id="ytick_16">
     <g id="line2d_25">
      <g>
       <use style="stroke:#000000;stroke-width:0.6;" x="57.6" xlink:href="#m3e3902a292" y="244.102234"/>
      </g>
     </g>
    </g>
    <g id="ytick_17">
     <g id="line2d_26">
      <g>
       <use style="stroke:#000000;stroke-width:0.6;" x="57.6" xlink:href="#m3e3902a292" y="240.651895"/>
      </g>
     </g>
    </g>
    <g id="ytick_18">
     <g id="line2d_27">
      <g>
       <use style="stroke:#000000;stroke-width:0.6;" x="57.6" xlink:href="#m3e3902a292" y="237.663075"/>
      </g>
     </g>
    </g>
    <g id="ytick_19">
     <g id="line2d_28">
      <g>
       <use style="stroke:#000000;stroke-width:0.6;" x="57.6" xlink:href="#m3e3902a292" y="235.026749"/>
      </g>
     </g>
    </g>
    <g id="ytick_20">
     <g id="line2d_29">
      <g>
       <use style="stroke:#000000;stroke-width:0.6;" x="57.6" xlink:href="#m3e3902a292" y="217.15383"/>
      </g>
     </g>
    </g>
    <g id="ytick_21">
     <g id="line2d_30">
      <g>
       <use style="stroke:#000000;stroke-width:0.6;" x="57.6" xlink:href="#m3e3902a292" y="208.078345"/>
      </g>
     </g>
    </g>
    <g id="ytick_22">
     <g id="line2d_31">
      <g>
       <use style="stroke:#000000;stroke-width:0.6;" x="57.6" xlink:href="#m3e3902a292" y="201.639186"/>
      </g>
     </g>
    </g>
    <g id="ytick_23">
     <g id="line2d_32">
      <g>
       <use style="stroke:#000000;stroke-width:0.6;" x="57.6" xlink:href="#m3e3902a292" y="196.644586"/>
      </g>
     </g>
    </g>
    <g id="ytick_24">
     <g id="line2d_33">
      <g>
       <use style="stroke:#000000;stroke-width:0.6;" x="57.6" xlink:href="#m3e3902a292" y="192.5637"/>
      </g>
     </g>
    </g>
    <g id="ytick_25">
     <g id="line2d_34">
      <g>
       <use style="stroke:#000000;stroke-width:0.6;" x="57.6" xlink:href="#m3e3902a292" y="189.113361"/>
      </g>
     </g>
    </g>
    <g id="ytick_26">
     <g id="line2d_35">
      <g>
       <use style="stroke:#000000;stroke-width:0.6;" x="57.6" xlink:href="#m3e3902a292" y="186.124541"/>
      </g>
     </g>
    </g>
    <g id="ytick_27">
     <g id="line2d_36">
      <g>
       <use style="stroke:#000000;stroke-width:0.6;" x="57.6" xlink:href="#m3e3902a292" y="183.488215"/>
      </g>
     </g>
    </g>
    <g id="ytick_28">
     <g id="line2d_37">
      <g>
       <use style="stroke:#000000;stroke-width:0.6;" x="57.6" xlink:href="#m3e3902a292" y="165.615296"/>
      </g>
     </g>
    </g>
    <g id="ytick_29">
     <g id="line2d_38">
      <g>
       <use style="stroke:#000000;stroke-width:0.6;" x="57.6" xlink:href="#m3e3902a292" y="156.539811"/>
      </g>
     </g>
    </g>
    <g id="ytick_30">
     <g id="line2d_39">
      <g>
       <use style="stroke:#000000;stroke-width:0.6;" x="57.6" xlink:href="#m3e3902a292" y="150.100652"/>
      </g>
     </g>
    </g>
    <g id="ytick_31">
     <g id="line2d_40">
      <g>
       <use style="stroke:#000000;stroke-width:0.6;" x="57.6" xlink:href="#m3e3902a292" y="145.106052"/>
      </g>
     </g>
    </g>
    <g id="ytick_32">
     <g id="line2d_41">
      <g>
       <use style="stroke:#000000;stroke-width:0.6;" x="57.6" xlink:href="#m3e3902a292" y="141.025166"/>
      </g>
     </g>
    </g>
    <g id="ytick_33">
     <g id="line2d_42">
      <g>
       <use style="stroke:#000000;stroke-width:0.6;" x="57.6" xlink:href="#m3e3902a292" y="137.574827"/>
      </g>
     </g>
    </g>
    <g id="ytick_34">
     <g id="line2d_43">
      <g>
       <use style="stroke:#000000;stroke-width:0.6;" x="57.6" xlink:href="#m3e3902a292" y="134.586007"/>
      </g>
     </g>
    </g>
    <g id="ytick_35">
     <g id="line2d_44">
      <g>
       <use style="stroke:#000000;stroke-width:0.6;" x="57.6" xlink:href="#m3e3902a292" y="131.949681"/>
      </g>
     </g>
    </g>
    <g id="ytick_36">
     <g id="line2d_45">
      <g>
       <use style="stroke:#000000;stroke-width:0.6;" x="57.6" xlink:href="#m3e3902a292" y="114.076762"/>
      </g>
     </g>
    </g>
    <g id="ytick_37">
     <g id="line2d_46">
      <g>
       <use style="stroke:#000000;stroke-width:0.6;" x="57.6" xlink:href="#m3e3902a292" y="105.001277"/>
      </g>
     </g>
    </g>
    <g id="ytick_38">
     <g id="line2d_47">
      <g>
       <use style="stroke:#000000;stroke-width:0.6;" x="57.6" xlink:href="#m3e3902a292" y="98.562118"/>
      </g>
     </g>
    </g>
    <g id="ytick_39">
     <g id="line2d_48">
      <g>
       <use style="stroke:#000000;stroke-width:0.6;" x="57.6" xlink:href="#m3e3902a292" y="93.567518"/>
      </g>
     </g>
    </g>
    <g id="ytick_40">
     <g id="line2d_49">
      <g>
       <use style="stroke:#000000;stroke-width:0.6;" x="57.6" xlink:href="#m3e3902a292" y="89.486632"/>
      </g>
     </g>
    </g>
    <g id="ytick_41">
     <g id="line2d_50">
      <g>
       <use style="stroke:#000000;stroke-width:0.6;" x="57.6" xlink:href="#m3e3902a292" y="86.036293"/>
      </g>
     </g>
    </g>
    <g id="ytick_42">
     <g id="line2d_51">
      <g>
       <use style="stroke:#000000;stroke-width:0.6;" x="57.6" xlink:href="#m3e3902a292" y="83.047473"/>
      </g>
     </g>
    </g>
    <g id="ytick_43">
     <g id="line2d_52">
      <g>
       <use style="stroke:#000000;stroke-width:0.6;" x="57.6" xlink:href="#m3e3902a292" y="80.411147"/>
      </g>
     </g>
    </g>
    <g id="ytick_44">
     <g id="line2d_53">
      <g>
       <use style="stroke:#000000;stroke-width:0.6;" x="57.6" xlink:href="#m3e3902a292" y="62.538228"/>
      </g>
     </g>
    </g>
    <g id="ytick_45">
     <g id="line2d_54">
      <g>
       <use style="stroke:#000000;stroke-width:0.6;" x="57.6" xlink:href="#m3e3902a292" y="53.462743"/>
      </g>
     </g>
    </g>
    <g id="ytick_46">
     <g id="line2d_55">
      <g>
       <use style="stroke:#000000;stroke-width:0.6;" x="57.6" xlink:href="#m3e3902a292" y="47.023584"/>
      </g>
     </g>
    </g>
    <g id="ytick_47">
     <g id="line2d_56">
      <g>
       <use style="stroke:#000000;stroke-width:0.6;" x="57.6" xlink:href="#m3e3902a292" y="42.028984"/>
      </g>
     </g>
    </g>
    <g id="text_16">
     <!-- magnitude -->
     <g transform="translate(21.020312 201.574094)rotate(-90)scale(0.1 -0.1)">
      <defs>
       <path d="M 3328 2828 
Q 3544 3216 3844 3400 
Q 4144 3584 4550 3584 
Q 5097 3584 5394 3201 
Q 5691 2819 5691 2113 
L 5691 0 
L 5113 0 
L 5113 2094 
Q 5113 2597 4934 2840 
Q 4756 3084 4391 3084 
Q 3944 3084 3684 2787 
Q 3425 2491 3425 1978 
L 3425 0 
L 2847 0 
L 2847 2094 
Q 2847 2600 2669 2842 
Q 2491 3084 2119 3084 
Q 1678 3084 1418 2786 
Q 1159 2488 1159 1978 
L 1159 0 
L 581 0 
L 581 3500 
L 1159 3500 
L 1159 2956 
Q 1356 3278 1631 3431 
Q 1906 3584 2284 3584 
Q 2666 3584 2933 3390 
Q 3200 3197 3328 2828 
z
" id="DejaVuSans-6d" transform="scale(0.015625)"/>
       <path d="M 2194 1759 
Q 1497 1759 1228 1600 
Q 959 1441 959 1056 
Q 959 750 1161 570 
Q 1363 391 1709 391 
Q 2188 391 2477 730 
Q 2766 1069 2766 1631 
L 2766 1759 
L 2194 1759 
z
M 3341 1997 
L 3341 0 
L 2766 0 
L 2766 531 
Q 2569 213 2275 61 
Q 1981 -91 1556 -91 
Q 1019 -91 701 211 
Q 384 513 384 1019 
Q 384 1609 779 1909 
Q 1175 2209 1959 2209 
L 2766 2209 
L 2766 2266 
Q 2766 2663 2505 2880 
Q 2244 3097 1772 3097 
Q 1472 3097 1187 3025 
Q 903 2953 641 2809 
L 641 3341 
Q 956 3463 1253 3523 
Q 1550 3584 1831 3584 
Q 2591 3584 2966 3190 
Q 3341 2797 3341 1997 
z
" id="DejaVuSans-61" transform="scale(0.015625)"/>
       <path d="M 2906 1791 
Q 2906 2416 2648 2759 
Q 2391 3103 1925 3103 
Q 1463 3103 1205 2759 
Q 947 2416 947 1791 
Q 947 1169 1205 825 
Q 1463 481 1925 481 
Q 2391 481 2648 825 
Q 2906 1169 2906 1791 
z
M 3481 434 
Q 3481 -459 3084 -895 
Q 2688 -1331 1869 -1331 
Q 1566 -1331 1297 -1286 
Q 1028 -1241 775 -1147 
L 775 -588 
Q 1028 -725 1275 -790 
Q 1522 -856 1778 -856 
Q 2344 -856 2625 -561 
Q 2906 -266 2906 331 
L 2906 616 
Q 2728 306 2450 153 
Q 2172 0 1784 0 
Q 1141 0 747 490 
Q 353 981 353 1791 
Q 353 2603 747 3093 
Q 1141 3584 1784 3584 
Q 2172 3584 2450 3431 
Q 2728 3278 2906 2969 
L 2906 3500 
L 3481 3500 
L 3481 434 
z
" id="DejaVuSans-67" transform="scale(0.015625)"/>
       <path d="M 603 3500 
L 1178 3500 
L 1178 0 
L 603 0 
L 603 3500 
z
M 603 4863 
L 1178 4863 
L 1178 4134 
L 603 4134 
L 603 4863 
z
" id="DejaVuSans-69" transform="scale(0.015625)"/>
       <path d="M 1172 4494 
L 1172 3500 
L 2356 3500 
L 2356 3053 
L 1172 3053 
L 1172 1153 
Q 1172 725 1289 603 
Q 1406 481 1766 481 
L 2356 481 
L 2356 0 
L 1766 0 
Q 1100 0 847 248 
Q 594 497 594 1153 
L 594 3053 
L 172 3053 
L 172 3500 
L 594 3500 
L 594 4494 
L 1172 4494 
z
" id="DejaVuSans-74" transform="scale(0.015625)"/>
       <path d="M 2906 2969 
L 2906 4863 
L 3481 4863 
L 3481 0 
L 2906 0 
L 2906 525 
Q 2725 213 2448 61 
Q 2172 -91 1784 -91 
Q 1150 -91 751 415 
Q 353 922 353 1747 
Q 353 2572 751 3078 
Q 1150 3584 1784 3584 
Q 2172 3584 2448 3432 
Q 2725 3281 2906 2969 
z
M 947 1747 
Q 947 1113 1208 752 
Q 1469 391 1925 391 
Q 2381 391 2643 752 
Q 2906 1113 2906 1747 
Q 2906 2381 2643 2742 
Q 2381 3103 1925 3103 
Q 1469 3103 1208 2742 
Q 947 2381 947 1747 
z
" id="DejaVuSans-64" transform="scale(0.015625)"/>
      </defs>
      <use xlink:href="#DejaVuSans-6d"/>
      <use x="97.412109" xlink:href="#DejaVuSans-61"/>
      <use x="158.691406" xlink:href="#DejaVuSans-67"/>
      <use x="222.167969" xlink:href="#DejaVuSans-6e"/>
      <use x="285.546875" xlink:href="#DejaVuSans-69"/>
      <use x="313.330078" xlink:href="#DejaVuSans-74"/>
      <use x="352.539062" xlink:href="#DejaVuSans-75"/>
      <use x="415.917969" xlink:href="#DejaVuSans-64"/>
      <use x="479.394531" xlink:href="#DejaVuSans-65"/>
     </g>
    </g>
   </g>
   <g id="line2d_57">
    <path clip-path="url(#p8c8206ea86)" d="M 73.832727 218.051069 
L 73.913911 221.184523 
L 74.076279 212.336819 
L 74.157463 212.227055 
L 74.238647 218.863864 
L 74.319831 216.193171 
L 74.401015 240.413421 
L 74.482199 181.012972 
L 74.563383 199.317466 
L 74.806934 226.498238 
L 74.888118 231.495514 
L 75.050486 219.878798 
L 75.212854 224.300926 
L 75.375222 243.28312 
L 75.456406 264.315425 
L 75.618774 236.682131 
L 75.781142 223.85606 
L 75.862326 231.452663 
L 75.94351 226.090664 
L 76.024693 227.701626 
L 76.105877 229.793184 
L 76.268245 249.087952 
L 76.430613 227.466493 
L 76.511797 221.436362 
L 76.755349 249.149437 
L 76.917717 228.233145 
L 76.998901 219.723115 
L 77.080085 226.576146 
L 77.161268 226.072113 
L 77.323636 222.722689 
L 77.40482 193.623571 
L 77.567188 268.862411 
L 77.81074 228.462968 
L 77.891924 229.625306 
L 77.973108 224.035901 
L 78.135476 227.98685 
L 78.21666 225.805873 
L 78.297844 226.310949 
L 78.379027 232.43298 
L 78.460211 225.474762 
L 78.541395 225.682583 
L 78.622579 227.967725 
L 78.703763 203.022605 
L 78.784947 203.878867 
L 79.028499 228.789323 
L 79.190867 254.502174 
L 79.272051 255.111134 
L 79.434419 222.196427 
L 79.596786 224.26239 
L 79.840338 248.046252 
L 79.921522 236.89717 
L 80.002706 247.454458 
L 80.246258 216.688308 
L 80.327442 233.549513 
L 80.408626 229.484255 
L 80.48981 229.965543 
L 80.570994 261.163774 
L 80.733362 224.337745 
L 80.814545 225.346019 
L 80.895729 222.275771 
L 81.139281 229.34356 
L 81.220465 226.140045 
L 81.382833 244.306333 
L 81.545201 221.837998 
L 81.626385 223.387256 
L 81.707569 221.541227 
L 81.788753 224.188885 
L 81.869937 222.732867 
L 82.113488 237.332735 
L 82.194672 239.049519 
L 82.438224 220.031034 
L 82.681776 239.939858 
L 82.76296 230.921511 
L 82.844144 244.605066 
L 83.087696 222.148725 
L 83.168879 220.17099 
L 83.250063 221.027912 
L 83.493615 243.416696 
L 83.574799 237.953659 
L 83.655983 251.693881 
L 83.818351 222.688543 
L 83.899535 223.037616 
L 84.143087 233.704601 
L 84.224271 251.406035 
L 84.305455 245.196434 
L 84.549006 219.91118 
L 84.63019 221.65376 
L 84.711374 233.121155 
L 84.792558 230.842823 
L 84.873742 229.226935 
L 84.954926 243.158456 
L 85.03611 238.378444 
L 85.117294 240.777831 
L 85.198478 229.979268 
L 85.279662 232.165602 
L 85.44203 223.587831 
L 85.523214 221.898869 
L 85.766765 243.584121 
L 85.847949 238.68624 
L 85.929133 221.979587 
L 86.010317 228.780173 
L 86.091501 219.427884 
L 86.172685 230.043844 
L 86.253869 220.096407 
L 86.497421 239.077705 
L 86.578605 237.908496 
L 86.740973 222.180601 
L 86.822156 224.16297 
L 86.90334 217.962491 
L 87.065708 224.090079 
L 87.228076 259.220979 
L 87.471628 223.558046 
L 87.552812 216.085165 
L 88.039915 244.911087 
L 88.202283 228.529937 
L 88.364651 220.031823 
L 88.689387 242.145504 
L 88.851755 221.257655 
L 88.932939 231.487259 
L 89.095307 219.992933 
L 89.17649 226.771137 
L 89.257674 222.181585 
L 89.501226 244.082379 
L 89.663594 228.471765 
L 89.744778 223.627035 
L 89.825962 229.847722 
L 89.98833 224.924437 
L 90.069514 231.305964 
L 90.150698 249.25714 
L 90.231882 242.743664 
L 90.637801 217.013924 
L 90.881353 259.359481 
L 91.124905 218.955866 
L 91.287273 218.124496 
L 91.368457 221.251305 
L 91.530825 237.708387 
L 91.612008 233.812893 
L 91.693192 254.074323 
L 91.85556 226.714385 
L 92.017928 219.487093 
L 92.099112 230.052746 
L 92.26148 225.002694 
L 92.342664 250.781176 
L 92.6674 215.918555 
L 92.748584 214.695822 
L 92.829767 217.183349 
L 92.992135 228.000108 
L 93.073319 270.425785 
L 93.235687 229.623142 
L 93.398055 215.871324 
L 93.479239 217.827905 
L 93.560423 217.01037 
L 93.722791 230.908162 
L 93.885159 276.645797 
L 94.047526 225.579413 
L 94.12871 219.490434 
L 94.209894 225.273557 
L 94.372262 219.88872 
L 94.453446 229.059892 
L 94.53463 263.930422 
L 94.696998 229.628917 
L 94.778182 226.772834 
L 94.94055 218.298744 
L 95.021734 219.649913 
L 95.265285 248.470022 
L 95.671205 214.605917 
L 95.914757 229.543385 
L 95.995941 253.501543 
L 96.320677 212.560246 
L 96.40186 217.021158 
L 96.483044 223.5005 
L 96.564228 220.889035 
L 96.726596 251.639221 
L 96.80778 247.602946 
L 97.132516 215.637151 
L 97.2137 216.311804 
L 97.376068 233.959499 
L 97.457252 250.086486 
L 97.781987 218.547456 
L 97.863171 218.236707 
L 97.944355 214.447279 
L 98.025539 218.057184 
L 98.269091 251.073871 
L 98.512643 217.962561 
L 98.593827 216.529079 
L 98.675011 224.431177 
L 98.756195 223.766754 
L 98.837378 226.176481 
L 98.999746 256.853111 
L 99.243298 212.577664 
L 99.48685 224.518108 
L 99.730402 255.352574 
L 99.973953 215.908125 
L 100.298689 223.572208 
L 100.379873 251.074688 
L 100.461057 232.287526 
L 100.542241 239.108822 
L 100.704609 214.943162 
L 100.785793 223.371086 
L 100.866977 215.248618 
L 100.948161 218.69604 
L 101.029345 230.890188 
L 101.110529 262.671391 
L 101.35408 216.83993 
L 101.435264 216.841173 
L 101.516448 211.381734 
L 101.76 222.864468 
L 101.922368 249.306338 
L 102.16592 214.963507 
L 102.247104 214.72855 
L 102.328288 215.119737 
L 102.653023 242.757053 
L 102.734207 236.129319 
L 102.896575 218.203771 
L 103.058943 212.017887 
L 103.221311 224.94972 
L 103.302495 239.225166 
L 103.383679 282.837286 
L 103.546047 223.501202 
L 103.708414 213.761852 
L 103.789598 213.125564 
L 103.951966 225.229727 
L 104.114334 252.428131 
L 104.357886 213.017402 
L 104.43907 213.014422 
L 104.682622 222.74487 
L 104.844989 267.215621 
L 105.007357 219.73873 
L 105.250909 213.047129 
L 105.413277 219.721591 
L 105.575645 245.714737 
L 105.900381 209.841558 
L 105.981564 209.942575 
L 106.225116 233.494413 
L 106.3063 275.185908 
L 106.631036 213.860445 
L 106.71222 213.597893 
L 106.874588 219.940485 
L 107.036956 244.78723 
L 107.11814 222.624785 
L 107.199323 223.242903 
L 107.442875 210.344249 
L 107.605243 220.368879 
L 107.767611 267.71912 
L 108.011163 215.200777 
L 108.173531 209.29892 
L 108.254715 210.42726 
L 108.335899 216.434648 
L 108.498266 261.497351 
L 108.741818 218.167509 
L 108.823002 208.077977 
L 108.904186 209.837415 
L 108.98537 209.137684 
L 109.147738 225.054612 
L 109.228922 262.341467 
L 109.39129 216.68149 
L 109.553658 207.764633 
L 109.634841 208.049409 
L 109.716025 209.087899 
L 109.878393 229.942306 
L 109.959577 260.00166 
L 110.203129 213.004405 
L 110.284313 206.59556 
L 110.365497 207.388918 
L 110.446681 207.222608 
L 110.609049 238.146103 
L 110.690233 295.488 
L 110.8526 215.823719 
L 110.933784 215.080221 
L 111.096152 207.814108 
L 111.339704 234.284343 
L 111.420888 266.443768 
L 111.66444 207.455222 
L 111.826808 212.136686 
L 111.907992 210.97364 
L 111.989175 212.380063 
L 112.151543 236.310891 
L 112.232727 235.830102 
L 112.476279 209.169017 
L 112.557463 208.277857 
L 112.638647 209.256674 
L 112.963383 238.732641 
L 113.206934 207.196267 
L 113.288118 204.578146 
L 113.369302 207.144505 
L 113.694038 254.657908 
L 113.856406 210.748576 
L 114.018774 204.248222 
L 114.099958 205.353477 
L 114.34351 239.06654 
L 114.424693 236.02055 
L 114.749429 206.579343 
L 114.992981 219.25456 
L 115.074165 238.409906 
L 115.155349 234.949211 
L 115.398901 203.318066 
L 115.480085 205.911619 
L 115.642452 210.413436 
L 115.723636 217.69491 
L 115.80482 252.562864 
L 115.886004 240.366018 
L 116.129556 206.731702 
L 116.21074 204.571768 
L 116.373108 208.650324 
L 116.454292 217.430315 
L 116.535476 240.989983 
L 116.61666 238.879013 
L 116.779027 210.352632 
L 116.860211 204.361771 
L 116.941395 206.644442 
L 117.022579 203.987027 
L 117.184947 223.539796 
L 117.347315 245.761278 
L 117.590867 202.717055 
L 117.753235 206.747555 
L 117.915603 224.027832 
L 117.996786 240.584718 
L 118.07797 236.64095 
L 118.321522 204.986608 
L 118.402706 200.262792 
L 118.48389 201.992459 
L 118.646258 214.285461 
L 118.808626 242.178012 
L 119.052178 202.758618 
L 119.133362 202.822174 
L 119.214545 201.065172 
L 119.539281 233.604865 
L 119.864017 200.640848 
L 119.945201 201.27598 
L 120.107569 212.507617 
L 120.269937 244.966342 
L 120.432304 206.651193 
L 120.513488 204.309492 
L 120.594672 198.387638 
L 120.919408 224.641877 
L 121.000592 243.047379 
L 121.16296 209.501462 
L 121.406512 199.538601 
L 121.568879 212.855625 
L 121.731247 229.40926 
L 121.974799 202.109079 
L 122.055983 200.240156 
L 122.299535 210.673926 
L 122.380719 219.728199 
L 122.461903 244.084708 
L 122.624271 207.854116 
L 122.786638 199.967908 
L 122.949006 202.016218 
L 123.111374 224.553351 
L 123.192558 241.59473 
L 123.43611 200.350863 
L 123.517294 198.488185 
L 123.598478 199.885067 
L 123.760846 207.714372 
L 123.923214 232.378533 
L 124.166765 200.769219 
L 124.247949 197.215168 
L 124.329133 197.952365 
L 124.410317 199.908914 
L 124.572685 218.166014 
L 124.653869 238.453031 
L 124.897421 201.34027 
L 125.059789 197.261373 
L 125.222156 206.936273 
L 125.384524 236.926602 
L 125.628076 200.018517 
L 125.70926 197.131281 
L 125.790444 197.561584 
L 125.871628 196.929561 
L 126.11518 234.745134 
L 126.358732 200.185518 
L 126.439915 196.143424 
L 126.521099 197.390883 
L 126.602283 199.076049 
L 126.683467 204.823524 
L 126.845835 225.625959 
L 127.170571 197.038186 
L 127.251755 197.293983 
L 127.332939 195.234099 
L 127.57649 225.257203 
L 127.820042 198.526172 
L 127.901226 194.207997 
L 128.063594 197.436689 
L 128.225962 212.066719 
L 128.307146 231.831605 
L 128.631882 193.455623 
L 128.713066 194.016943 
L 128.875433 201.32474 
L 128.956617 210.139546 
L 129.037801 236.459263 
L 129.281353 200.860202 
L 129.362537 193.317826 
L 129.443721 193.676856 
L 129.606089 198.802185 
L 129.768457 217.977204 
L 130.174376 191.109876 
L 130.336744 200.816161 
L 130.499112 223.840988 
L 130.823848 191.792284 
L 130.905032 192.040754 
L 131.0674 198.266713 
L 131.229767 216.150577 
L 131.310951 212.55792 
L 131.554503 191.027239 
L 131.635687 190.980342 
L 131.716871 192.324606 
L 131.879239 206.428864 
L 131.960423 216.270577 
L 132.122791 203.925021 
L 132.366342 190.166991 
L 132.52871 194.00065 
L 132.691078 220.247536 
L 132.772262 215.233614 
L 133.015814 188.732592 
L 133.096998 189.107116 
L 133.178182 190.24864 
L 133.34055 202.384669 
L 133.502918 216.21529 
L 133.746469 188.675531 
L 133.827653 187.168327 
L 133.908837 188.890959 
L 134.233573 212.292311 
L 134.477125 187.642452 
L 134.558309 187.353655 
L 134.639493 187.7482 
L 134.964228 211.807057 
L 135.20778 187.824637 
L 135.288964 186.02834 
L 135.370148 186.078889 
L 135.451332 189.439593 
L 135.6137 210.160011 
L 135.694884 206.434394 
L 136.100803 185.47921 
L 136.181987 188.667056 
L 136.425539 211.383835 
L 136.750275 183.382677 
L 136.912643 188.957522 
L 137.156195 210.723882 
L 137.399746 185.568023 
L 137.48093 183.213094 
L 137.562114 183.766624 
L 137.88685 204.471608 
L 138.211586 181.704921 
L 138.29277 183.006313 
L 138.455137 193.415178 
L 138.617505 209.762754 
L 138.861057 182.761426 
L 138.942241 179.913004 
L 139.104609 184.362652 
L 139.348161 209.058288 
L 139.591712 181.935781 
L 139.672896 179.414867 
L 139.75408 180.166309 
L 139.916448 188.282663 
L 140.078816 208.897294 
L 140.322368 181.273052 
L 140.484736 178.360486 
L 140.647104 187.147431 
L 140.809471 202.621578 
L 141.134207 177.880167 
L 141.215391 178.245139 
L 141.296575 179.579523 
L 141.540127 203.016166 
L 141.864863 175.820715 
L 141.946047 175.576928 
L 142.108414 183.90618 
L 142.270782 202.982075 
L 142.595518 174.720302 
L 142.676702 173.745428 
L 142.757886 175.901348 
L 143.001438 197.954324 
L 143.082622 190.396606 
L 143.326173 172.938992 
L 143.407357 171.99814 
L 143.488541 174.17436 
L 143.732093 196.411826 
L 143.813277 191.566673 
L 144.056829 171.062089 
L 144.138013 170.343543 
L 144.300381 178.15843 
L 144.462748 196.428138 
L 144.868668 168.644984 
L 144.949852 170.393111 
L 145.193404 193.645289 
L 145.274588 189.120278 
L 145.51814 167.003478 
L 145.599323 166.180833 
L 145.761691 172.550977 
L 145.924059 190.150769 
L 146.329979 164.394407 
L 146.492347 170.187344 
L 146.654715 187.87166 
L 146.735899 185.169381 
L 146.97945 163.11895 
L 147.060634 161.494606 
L 147.223002 166.922787 
L 147.38537 183.31368 
L 147.466554 181.437564 
L 147.710106 160.347207 
L 147.79129 158.924868 
L 147.872474 160.077544 
L 148.034841 171.36548 
L 148.116025 180.658505 
L 148.197209 180.376777 
L 148.440761 156.684325 
L 148.521945 155.605292 
L 148.603129 156.167367 
L 148.765497 165.876274 
L 148.927865 177.157176 
L 149.171416 153.727201 
L 149.2526 151.765367 
L 149.333784 151.986961 
L 149.496152 161.22135 
L 149.65852 174.518407 
L 149.902072 149.128135 
L 149.983256 146.703965 
L 150.06444 146.779527 
L 150.226808 154.855252 
L 150.389175 169.568989 
L 150.713911 140.234999 
L 150.795095 139.690605 
L 150.876279 141.721162 
L 151.119831 162.759338 
L 151.444567 130.351313 
L 151.525751 128.7275 
L 151.606934 129.568035 
L 151.769302 140.810931 
L 151.850486 150.216949 
L 152.33759 98.779161 
L 152.499958 86.908902 
L 152.581142 53.968764 
L 152.74351 104.217383 
L 152.824693 105.168635 
L 152.987061 111.407812 
L 153.149429 124.603507 
L 153.392981 173.698574 
L 153.555349 141.213815 
L 153.717717 137.597249 
L 153.880085 144.751188 
L 154.042452 164.923609 
L 154.123636 179.924148 
L 154.367188 155.444855 
L 154.448372 154.359368 
L 154.529556 155.221903 
L 154.773108 160.216281 
L 155.01666 156.153987 
L 155.097844 157.124728 
L 155.341395 173.980112 
L 155.584947 143.234475 
L 155.747315 137.557513 
L 155.828499 138.428411 
L 155.909683 142.854684 
L 155.990867 154.383241 
L 156.072051 183.461444 
L 156.315603 119.951455 
L 156.721522 88.949236 
L 156.802706 53.568 
L 156.965074 103.338455 
L 157.046258 104.149945 
L 157.208626 109.64486 
L 157.370994 121.637898 
L 157.614545 149.547885 
L 157.858097 130.811455 
L 157.939281 130.542134 
L 158.020465 132.496021 
L 158.182833 144.506861 
L 158.345201 161.340398 
L 158.588753 141.533624 
L 158.669937 140.222597 
L 158.751121 141.250255 
L 158.913488 151.120953 
L 159.075856 166.990659 
L 159.400592 146.482674 
L 159.481776 146.93639 
L 159.644144 155.26336 
L 159.806512 171.980656 
L 160.212431 151.295995 
L 160.374799 159.148526 
L 160.537167 174.949919 
L 160.943087 154.862385 
L 161.105455 162.079247 
L 161.267822 176.581894 
L 161.349006 174.788722 
L 161.592558 158.647709 
L 161.673742 158.094981 
L 161.83611 164.284844 
L 161.998478 179.151876 
L 162.079662 178.28463 
L 162.323214 160.600966 
L 162.404397 160.316688 
L 162.485581 162.00786 
L 162.810317 180.688583 
L 163.053869 163.323691 
L 163.135053 162.509555 
L 163.297421 168.43008 
L 163.459789 183.380925 
L 163.540973 182.986303 
L 163.784524 165.43685 
L 163.865708 164.981863 
L 164.028076 169.496355 
L 164.271628 185.201271 
L 164.51518 166.698112 
L 164.596364 166.17842 
L 164.677548 167.258578 
L 164.839915 178.15755 
L 165.002283 186.239494 
L 165.327019 168.475919 
L 165.408203 168.955749 
L 165.570571 177.513107 
L 165.732939 188.557963 
L 166.057674 169.104534 
L 166.220042 173.402975 
L 166.463594 190.958825 
L 166.707146 172.063831 
L 166.78833 170.732696 
L 166.869514 170.752364 
L 167.031882 180.961062 
L 167.194249 191.399903 
L 167.518985 172.116108 
L 167.681353 175.395665 
L 167.924905 190.864043 
L 168.249641 173.106801 
L 168.412008 176.227793 
L 168.65556 194.36332 
L 168.899112 176.302733 
L 168.980296 174.603288 
L 169.06148 174.624194 
L 169.223848 183.799861 
L 169.386216 196.395759 
L 169.710951 175.71772 
L 169.792135 175.034179 
L 169.954503 183.122595 
L 170.116871 194.635659 
L 170.522791 175.234397 
L 170.766342 191.130654 
L 170.847526 199.163641 
L 171.172262 177.981103 
L 171.33463 179.399583 
L 171.415814 183.536417 
L 171.578182 196.718919 
L 171.902918 177.692744 
L 171.984101 178.283776 
L 172.227653 191.6277 
L 172.308837 197.930779 
L 172.633573 178.951143 
L 172.714757 179.879961 
L 172.795941 181.018518 
L 173.039493 199.352567 
L 173.120677 192.87747 
L 173.364228 179.910134 
L 173.445412 178.489681 
L 173.526596 180.843124 
L 173.770148 198.430027 
L 173.851332 195.864153 
L 174.094884 181.085337 
L 174.257252 182.920556 
L 174.500803 200.423514 
L 174.581987 195.276075 
L 174.825539 181.288759 
L 174.987907 183.001896 
L 175.231459 198.585932 
L 175.312643 197.212529 
L 175.556195 182.47755 
L 175.637378 182.469329 
L 175.799746 186.739076 
L 175.962114 199.654051 
L 176.043298 197.999706 
L 176.28685 183.487423 
L 176.368034 183.538517 
L 176.611586 192.951746 
L 176.69277 201.656061 
L 176.773953 200.46837 
L 177.017505 183.581253 
L 177.179873 184.115675 
L 177.423425 201.247929 
L 177.504609 197.82911 
L 177.829345 183.451158 
L 177.910529 185.125674 
L 178.15408 202.948309 
L 178.235264 201.435156 
L 178.478816 185.434112 
L 178.56 183.722692 
L 178.722368 187.811396 
L 178.96592 203.300428 
L 179.209471 185.264219 
L 179.290655 185.559872 
L 179.371839 186.521003 
L 179.696575 203.21083 
L 179.940127 187.829012 
L 180.021311 185.444161 
L 180.264863 195.011586 
L 180.346047 200.289052 
L 180.42723 200.249898 
L 180.83315 186.743948 
L 181.076702 200.883582 
L 181.157886 200.746254 
L 181.320254 191.654264 
L 181.482622 186.27582 
L 181.644989 191.886287 
L 181.888541 203.019364 
L 182.213277 186.362089 
L 182.375645 190.488166 
L 182.619197 205.908933 
L 182.943932 187.008317 
L 183.1063 191.062441 
L 183.349852 205.110517 
L 183.593404 188.986911 
L 183.674588 189.145162 
L 183.755772 188.912051 
L 183.91814 198.144182 
L 183.999323 207.469902 
L 184.080507 205.971617 
L 184.324059 188.729388 
L 184.486427 189.663322 
L 184.567611 191.232576 
L 184.811163 205.589703 
L 184.892347 203.807133 
L 185.135899 188.771147 
L 185.217082 189.042346 
L 185.460634 200.646402 
L 185.541818 207.454458 
L 185.78537 190.868371 
L 185.947738 189.184771 
L 186.272474 207.459257 
L 186.353658 205.754407 
L 186.516025 193.020407 
L 186.597209 188.805513 
L 186.678393 190.045171 
L 186.759577 191.420259 
L 187.003129 206.219313 
L 187.409049 190.568933 
L 187.733784 209.038789 
L 188.05852 189.382036 
L 188.220888 193.527015 
L 188.46444 205.78495 
L 188.626808 197.155088 
L 188.789175 191.306534 
L 188.870359 191.84906 
L 188.951543 193.534537 
L 189.195095 211.783583 
L 189.519831 190.811451 
L 189.601015 190.231817 
L 189.925751 208.466441 
L 190.33167 189.391109 
L 190.494038 198.072001 
L 190.575222 208.397426 
L 190.656406 207.260215 
L 190.73759 206.525172 
L 190.981142 192.614992 
L 191.062326 190.53251 
L 191.224693 196.253682 
L 191.387061 211.48811 
L 191.711797 191.639532 
L 191.792981 191.866447 
L 191.874165 193.804245 
L 192.117717 208.930752 
L 192.198901 206.034477 
L 192.361268 195.357699 
L 192.523636 192.297431 
L 192.60482 193.435977 
L 192.848372 210.942288 
L 193.091924 197.443917 
L 193.254292 191.1664 
L 193.579027 209.150283 
L 193.660211 205.277026 
L 193.903763 193.261365 
L 193.984947 192.029888 
L 194.390867 209.454972 
L 194.634419 192.981092 
L 194.796786 194.199588 
L 195.121522 209.631394 
L 195.365074 195.160952 
L 195.527442 194.204935 
L 195.68981 206.310821 
L 195.770994 211.845904 
L 195.852178 211.735866 
L 196.095729 194.994803 
L 196.176913 192.914521 
L 196.258097 194.241068 
L 196.420465 203.457738 
L 196.501649 210.438178 
L 196.664017 203.113186 
L 196.826385 194.62242 
L 196.907569 193.672218 
L 197.069937 196.928347 
L 197.232304 209.581319 
L 197.313488 207.812929 
L 197.638224 192.215446 
L 198.044144 210.529854 
L 198.287696 197.163559 
L 198.368879 194.661445 
L 198.450063 195.87823 
L 198.612431 206.523575 
L 198.693615 214.442335 
L 199.180719 194.786171 
L 199.505455 213.664073 
L 199.667822 199.211049 
L 199.83019 193.419263 
L 199.911374 195.598809 
L 200.154926 210.668983 
L 200.317294 205.511951 
L 200.479662 196.0101 
L 200.560846 195.296808 
L 200.723214 198.890526 
L 200.885581 213.064668 
L 200.966765 212.265038 
L 201.129133 199.421934 
L 201.210317 198.03945 
L 201.291501 194.281055 
L 201.453869 198.181204 
L 201.616237 212.028034 
L 201.697421 210.155716 
L 201.940973 194.747026 
L 202.022156 194.929852 
L 202.10334 195.796986 
L 202.184524 198.961357 
L 202.428076 214.822135 
L 202.671628 197.880247 
L 202.752812 194.802217 
L 202.833996 195.966968 
L 203.077548 212.155287 
L 203.158732 209.127503 
L 203.239915 206.780014 
L 203.402283 197.349292 
L 203.483467 196.724612 
L 203.564651 197.13914 
L 203.808203 212.160546 
L 203.889387 210.430469 
L 204.132939 196.071837 
L 204.214123 197.623681 
L 204.295307 198.62425 
L 204.37649 197.711303 
L 204.620042 210.602733 
L 204.863594 199.121981 
L 204.944778 195.188545 
L 205.025962 195.339483 
L 205.350698 213.877264 
L 205.675433 195.01849 
L 205.756617 195.471199 
L 205.918985 202.762366 
L 206.000169 217.391335 
L 206.081353 213.011414 
L 206.162537 210.443597 
L 206.324905 196.564573 
L 206.406089 195.216238 
L 206.568457 199.163054 
L 206.730825 209.324003 
L 206.812008 212.965198 
L 207.05556 198.177122 
L 207.136744 197.436172 
L 207.217928 195.568606 
L 207.46148 213.41265 
L 207.542664 211.062904 
L 207.623848 209.320386 
L 207.786216 200.980239 
L 207.948584 197.303848 
L 208.029767 198.094382 
L 208.273319 215.336079 
L 208.435687 201.223098 
L 208.516871 201.773645 
L 208.679239 197.884873 
L 208.760423 199.095962 
L 209.003975 212.99527 
L 209.32871 194.526901 
L 209.409894 195.69592 
L 209.572262 208.277648 
L 209.653446 217.661507 
L 209.73463 215.872772 
L 210.14055 197.221598 
L 210.221734 198.5978 
L 210.465285 213.151116 
L 210.546469 211.111826 
L 210.708837 200.486882 
L 210.790021 198.306114 
L 210.871205 198.336061 
L 210.952389 199.602476 
L 211.195941 213.079439 
L 211.520677 197.704645 
L 211.60186 198.794294 
L 211.845412 212.185982 
L 211.926596 217.504345 
L 212.251332 196.769262 
L 212.332516 200.537923 
L 212.4137 198.554538 
L 212.657252 212.675404 
L 212.738436 210.536372 
L 212.981987 197.659526 
L 213.063171 197.810222 
L 213.144355 200.288183 
L 213.387907 219.110394 
L 213.631459 201.385948 
L 213.793827 197.770613 
L 213.875011 199.378527 
L 214.118562 213.250608 
L 214.443298 196.418592 
L 214.524482 198.567917 
L 214.605666 198.97883 
L 214.849218 216.141224 
L 214.930402 212.626889 
L 215.173953 195.882764 
L 215.255137 199.670742 
L 215.336321 198.057746 
L 215.661057 217.317691 
L 215.823425 202.542774 
L 215.904609 198.352202 
L 215.985793 199.485744 
L 216.066977 200.250294 
L 216.148161 203.99011 
L 216.310529 214.341431 
L 216.391712 212.1687 
L 216.55408 198.937432 
L 216.635264 199.85146 
L 216.716448 198.680984 
L 217.041184 215.670978 
L 217.122368 212.762779 
L 217.36592 196.470963 
L 217.447104 196.743702 
L 217.690655 209.165636 
L 217.771839 215.113096 
L 218.096575 198.100998 
L 218.340127 203.611438 
L 218.502495 219.677354 
L 218.82723 197.919631 
L 218.908414 196.784487 
L 219.23315 218.172788 
L 219.557886 198.008749 
L 219.63907 196.681895 
L 219.963805 214.87855 
L 220.369725 197.559068 
L 220.450909 198.116023 
L 220.775645 219.230484 
L 220.938013 199.897804 
L 221.100381 198.782923 
L 221.181564 198.059256 
L 221.425116 219.945467 
L 221.5063 215.563904 
L 221.749852 197.925717 
L 221.91222 198.593178 
L 221.993404 202.873823 
L 222.155772 217.235212 
L 222.31814 208.369745 
L 222.480507 197.181294 
L 222.561691 198.856844 
L 222.886427 221.141537 
L 223.129979 200.980354 
L 223.211163 196.684464 
L 223.292347 198.33292 
L 223.373531 196.703307 
L 223.617082 219.957717 
L 223.698266 217.878995 
L 223.941818 197.178955 
L 224.023002 195.637313 
L 224.104186 197.284855 
L 224.266554 215.165737 
L 224.347738 230.217171 
L 224.59129 199.096069 
L 224.753658 195.261029 
L 224.916025 202.406472 
L 225.078393 224.388448 
L 225.403129 198.813393 
L 225.484313 196.411975 
L 225.565497 197.827614 
L 225.809049 224.757885 
L 226.214968 195.629384 
L 226.377336 201.493424 
L 226.539704 220.398154 
L 226.86444 196.722482 
L 226.945624 196.870587 
L 227.026808 197.873862 
L 227.270359 219.385458 
L 227.351543 215.981247 
L 227.513911 198.27784 
L 227.676279 194.142758 
L 227.838647 202.056131 
L 228.001015 221.061149 
L 228.082199 217.729291 
L 228.325751 196.990852 
L 228.406934 196.786764 
L 228.488118 198.328109 
L 228.73167 224.690889 
L 229.056406 192.886615 
L 229.13759 193.836034 
L 229.299958 200.919399 
L 229.462326 242.326514 
L 229.624693 202.037256 
L 229.787061 192.983642 
L 229.868245 193.073472 
L 229.949429 195.650214 
L 230.111797 216.078991 
L 230.192981 238.46245 
L 230.436533 197.841251 
L 230.598901 191.673983 
L 230.761268 202.339291 
L 230.842452 215.088049 
L 230.923636 255.526833 
L 231.086004 202.370693 
L 231.248372 191.429723 
L 231.329556 191.966771 
L 231.491924 201.5711 
L 231.573108 212.265398 
L 231.654292 272.325627 
L 231.81666 198.249438 
L 231.979027 191.189552 
L 232.060211 190.037156 
L 232.222579 197.098725 
L 232.384947 235.683578 
L 232.628499 189.524897 
L 232.709683 187.472886 
L 232.790867 187.883131 
L 232.872051 188.92671 
L 232.953235 193.802649 
L 233.115603 218.354657 
L 233.440338 183.930098 
L 233.521522 183.874092 
L 233.68389 192.304641 
L 233.846258 209.329031 
L 234.08981 182.301957 
L 234.252178 179.383641 
L 234.414545 186.2744 
L 234.495729 194.155588 
L 234.576913 191.62083 
L 234.739281 180.441002 
L 234.982833 171.436233 
L 235.226385 175.872494 
L 235.307569 174.97134 
L 236.038224 132.961229 
L 236.200592 90.578736 
L 236.444144 142.081805 
L 236.768879 157.232929 
L 237.174799 175.872494 
L 237.255983 174.986697 
L 237.418351 171.436233 
L 237.580719 175.440439 
L 237.905455 194.155588 
L 238.149006 179.383641 
L 238.311374 182.301957 
L 238.473742 198.130482 
L 238.554926 209.329031 
L 238.879662 183.874092 
L 238.960846 183.930098 
L 239.123214 193.895384 
L 239.285581 218.354657 
L 239.610317 187.883131 
L 239.691501 187.472886 
L 239.772685 189.524897 
L 239.935053 209.586738 
L 240.016237 235.683578 
L 240.259789 193.982493 
L 240.340973 190.037156 
L 240.422156 191.189552 
L 240.50334 192.915713 
L 240.584524 198.249438 
L 240.665708 210.911302 
L 240.746892 272.325627 
L 240.90926 201.5711 
L 241.071628 191.966771 
L 241.152812 191.429723 
L 241.31518 202.370693 
L 241.477548 255.526833 
L 241.639915 202.339291 
L 241.802283 191.673983 
L 242.045835 201.699349 
L 242.208203 238.46245 
L 242.451755 195.650214 
L 242.614123 192.983642 
L 242.857674 211.17983 
L 242.938858 242.326514 
L 243.101226 200.919399 
L 243.344778 192.886615 
L 243.507146 203.268715 
L 243.669514 224.690889 
L 243.994249 196.786764 
L 244.075433 196.990852 
L 244.237801 205.518243 
L 244.400169 221.061149 
L 244.724905 194.142758 
L 244.806089 195.736329 
L 244.968457 202.992801 
L 245.130825 219.385458 
L 245.293192 203.856588 
L 245.45556 196.870587 
L 245.536744 196.722482 
L 245.617928 197.465487 
L 245.86148 220.398154 
L 245.942664 217.909153 
L 246.105032 199.901261 
L 246.186216 195.629384 
L 246.429767 205.114681 
L 246.592135 224.757885 
L 246.916871 196.411975 
L 247.160423 202.538539 
L 247.322791 224.388448 
L 247.647526 195.261029 
L 247.809894 199.096069 
L 248.053446 230.217171 
L 248.296998 197.284855 
L 248.378182 195.637313 
L 248.54055 200.754417 
L 248.621734 205.286926 
L 248.784101 219.957717 
L 249.190021 196.684464 
L 249.433573 211.047089 
L 249.514757 221.141537 
L 249.920677 197.181294 
L 250.245412 217.235212 
L 250.326596 214.744561 
L 250.488964 198.593178 
L 250.651332 197.925717 
L 250.8137 205.656547 
L 250.976068 219.945467 
L 251.219619 198.059256 
L 251.463171 199.897804 
L 251.625539 219.230484 
L 251.706723 215.635472 
L 252.031459 197.559068 
L 252.112643 198.109252 
L 252.275011 202.895854 
L 252.437378 214.87855 
L 252.762114 196.681895 
L 252.843298 198.008749 
L 253.08685 210.870843 
L 253.168034 218.172788 
L 253.49277 196.784487 
L 253.655137 200.519565 
L 253.736321 203.261776 
L 253.898689 219.677354 
L 254.142241 200.945655 
L 254.304609 198.100998 
L 254.385793 198.609206 
L 254.629345 215.113096 
L 254.95408 196.743702 
L 255.035264 196.470963 
L 255.36 215.670978 
L 255.684736 198.680984 
L 255.76592 199.85146 
L 255.847104 198.937432 
L 256.090655 214.341431 
L 256.171839 212.868995 
L 256.334207 200.250294 
L 256.496575 198.352202 
L 256.658943 203.263702 
L 256.740127 217.317691 
L 256.821311 213.475176 
L 256.902495 212.717915 
L 257.064863 198.057746 
L 257.146047 199.670742 
L 257.22723 195.882764 
L 257.551966 216.141224 
L 257.63315 212.064273 
L 257.957886 196.418592 
L 258.282622 213.250608 
L 258.363805 210.766126 
L 258.607357 197.770613 
L 258.688541 197.932289 
L 258.932093 210.250009 
L 259.013277 219.110394 
L 259.256829 200.288183 
L 259.419197 197.659526 
L 259.581564 203.197897 
L 259.743932 212.675404 
L 260.149852 196.769262 
L 260.31222 203.984777 
L 260.474588 217.504345 
L 260.880507 197.704645 
L 261.042875 204.501921 
L 261.205243 213.079439 
L 261.286427 211.261968 
L 261.529979 198.336061 
L 261.611163 198.306114 
L 261.773531 200.958812 
L 261.935899 213.151116 
L 262.017082 210.984729 
L 262.260634 197.221598 
L 262.341818 198.754162 
L 262.423002 197.644214 
L 262.747738 217.661507 
L 262.99129 195.69592 
L 263.072474 194.526901 
L 263.397209 212.99527 
L 263.478393 212.338906 
L 263.721945 197.884873 
L 263.803129 198.442562 
L 264.127865 215.336079 
L 264.209049 213.201045 
L 264.4526 197.303848 
L 264.533784 197.580794 
L 264.939704 213.41265 
L 265.183256 195.568606 
L 265.426808 201.808851 
L 265.589175 212.965198 
L 265.995095 195.216238 
L 266.076279 196.564573 
L 266.401015 217.391335 
L 266.563383 199.1709 
L 266.725751 195.01849 
L 266.806934 196.823788 
L 267.050486 213.877264 
L 267.13167 211.145756 
L 267.456406 195.188545 
L 267.781142 210.602733 
L 268.024693 197.711303 
L 268.105877 198.62425 
L 268.268245 196.071837 
L 268.592981 212.160546 
L 268.755349 201.141899 
L 268.917717 196.724612 
L 268.998901 197.349292 
L 269.080085 199.899702 
L 269.323636 212.155287 
L 269.40482 209.503432 
L 269.567188 195.966968 
L 269.648372 194.802217 
L 269.891924 206.066938 
L 269.973108 214.822135 
L 270.379027 194.929852 
L 270.460211 194.747026 
L 270.703763 210.155716 
L 270.784947 212.028034 
L 271.109683 194.281055 
L 271.515603 213.064668 
L 271.759154 197.247085 
L 271.840338 195.296808 
L 271.921522 196.0101 
L 272.002706 196.91669 
L 272.165074 207.749677 
L 272.246258 210.668983 
L 272.570994 193.419263 
L 272.652178 195.286252 
L 272.814545 201.994573 
L 272.895729 213.664073 
L 273.220465 194.786171 
L 273.301649 195.19096 
L 273.382833 196.017427 
L 273.707569 214.442335 
L 273.951121 195.87823 
L 274.032304 194.661445 
L 274.275856 203.867833 
L 274.35704 210.529854 
L 274.76296 192.215446 
L 274.844144 194.511557 
L 275.168879 209.581319 
L 275.250063 206.356913 
L 275.412431 195.159405 
L 275.493615 193.672218 
L 275.655983 196.781466 
L 275.899535 210.438178 
L 276.143087 194.241068 
L 276.224271 192.914521 
L 276.386638 195.67763 
L 276.63019 211.845904 
L 276.873742 194.204935 
L 276.954926 194.830871 
L 277.03611 195.160952 
L 277.117294 197.089592 
L 277.279662 209.631394 
L 277.360846 209.259006 
L 277.766765 192.981092 
L 277.929133 201.753568 
L 278.010317 209.454972 
L 278.091501 207.685368 
L 278.416237 192.029888 
L 278.578605 195.369678 
L 278.822156 209.150283 
L 279.146892 191.1664 
L 279.390444 199.657739 
L 279.552812 210.942288 
L 279.796364 193.435977 
L 279.877548 192.297431 
L 279.958732 193.089071 
L 280.121099 197.784664 
L 280.283467 208.930752 
L 280.527019 193.804245 
L 280.689387 191.639532 
L 281.014123 211.48811 
L 281.095307 207.355275 
L 281.257674 193.504384 
L 281.338858 190.53251 
L 281.58241 198.589735 
L 281.744778 207.260215 
L 281.825962 208.397426 
L 282.069514 189.391109 
L 282.150698 190.458385 
L 282.475433 208.466441 
L 282.556617 205.161031 
L 282.800169 190.231817 
L 282.881353 190.811451 
L 282.962537 192.101917 
L 283.206089 211.783583 
L 283.449641 193.534537 
L 283.612008 191.306534 
L 283.693192 191.54303 
L 283.936744 205.78495 
L 284.342664 189.382036 
L 284.6674 209.038789 
L 284.748584 205.579585 
L 284.992135 190.568933 
L 285.073319 191.004576 
L 285.154503 190.768932 
L 285.235687 193.099643 
L 285.398055 206.219313 
L 285.560423 197.139564 
L 285.722791 190.045171 
L 285.803975 188.805513 
L 286.12871 207.459257 
L 286.209894 204.653984 
L 286.453446 189.184771 
L 286.615814 190.868371 
L 286.778182 200.398757 
L 286.859366 207.454458 
L 287.184101 189.042346 
L 287.265285 188.771147 
L 287.346469 189.369929 
L 287.590021 205.589703 
L 287.752389 196.621119 
L 287.914757 189.663322 
L 288.077125 188.729388 
L 288.40186 207.469902 
L 288.645412 188.912051 
L 288.726596 189.145162 
L 288.80778 188.986911 
L 289.051332 205.110517 
L 289.132516 202.074195 
L 289.457252 187.008317 
L 289.538436 188.503275 
L 289.781987 205.908933 
L 289.863171 202.94532 
L 290.187907 186.362089 
L 290.269091 186.86195 
L 290.512643 203.019364 
L 290.593827 201.473192 
L 290.918562 186.27582 
L 291.08093 191.654264 
L 291.243298 200.746254 
L 291.324482 200.883582 
L 291.568034 186.743948 
L 291.649218 187.536845 
L 291.730402 186.91327 
L 291.973953 200.249898 
L 292.055137 200.289052 
L 292.379873 185.444161 
L 292.623425 195.675325 
L 292.704609 203.21083 
L 292.785793 201.924868 
L 293.191712 185.264219 
L 293.435264 203.300428 
L 293.516448 199.963547 
L 293.841184 183.722692 
L 294.003552 188.411598 
L 294.247104 202.948309 
L 294.490655 185.125674 
L 294.571839 183.451158 
L 294.653023 184.133884 
L 294.977759 201.247929 
L 295.221311 184.115675 
L 295.383679 183.581253 
L 295.546047 192.396365 
L 295.708414 201.656061 
L 295.951966 186.090159 
L 296.114334 183.487423 
L 296.43907 199.654051 
L 296.763805 182.469329 
L 296.844989 182.47755 
L 297.169725 198.585932 
L 297.575645 181.288759 
L 297.819197 195.276075 
L 297.900381 200.423514 
L 298.225116 182.219537 
L 298.3063 181.085337 
L 298.387484 183.126124 
L 298.631036 198.430027 
L 298.955772 178.489681 
L 299.036956 179.910134 
L 299.280507 192.87747 
L 299.361691 199.352567 
L 299.686427 179.879961 
L 299.767611 178.951143 
L 299.929979 185.884051 
L 300.092347 197.930779 
L 300.417082 178.283776 
L 300.498266 177.692744 
L 300.823002 196.718919 
L 300.904186 193.583665 
L 301.066554 179.399583 
L 301.228922 177.981103 
L 301.39129 184.180508 
L 301.553658 199.163641 
L 301.878393 175.234397 
L 302.121945 182.520699 
L 302.284313 194.635659 
L 302.609049 175.034179 
L 302.690233 175.71772 
L 302.8526 182.320536 
L 303.014968 196.395759 
L 303.096152 192.951995 
L 303.339704 174.624194 
L 303.420888 174.603288 
L 303.502072 176.302733 
L 303.745624 194.36332 
L 303.826808 190.489866 
L 304.070359 174.435126 
L 304.151543 173.106801 
L 304.232727 174.530382 
L 304.476279 190.864043 
L 304.557463 189.85365 
L 304.801015 173.350742 
L 304.882199 172.116108 
L 305.044567 177.758079 
L 305.206934 191.399903 
L 305.288118 188.48805 
L 305.53167 170.752364 
L 305.612854 170.732696 
L 305.694038 172.063831 
L 305.93759 190.958825 
L 306.018774 187.531981 
L 306.262326 170.608322 
L 306.34351 169.104534 
L 306.424693 170.516106 
L 306.668245 188.557963 
L 306.749429 185.100195 
L 306.992981 168.955749 
L 307.074165 168.475919 
L 307.155349 168.963611 
L 307.317717 179.944005 
L 307.398901 186.239494 
L 307.480085 184.299991 
L 307.80482 166.17842 
L 307.886004 166.698112 
L 308.129556 185.201271 
L 308.21074 183.916388 
L 308.454292 166.408503 
L 308.535476 164.981863 
L 308.61666 165.43685 
L 308.697844 168.227623 
L 308.941395 183.380925 
L 309.184947 164.277568 
L 309.266131 162.509555 
L 309.347315 163.323691 
L 309.509683 172.441176 
L 309.590867 180.688583 
L 309.672051 180.471011 
L 309.996786 160.316688 
L 310.07797 160.600966 
L 310.240338 169.930564 
L 310.402706 179.151876 
L 310.727442 158.094981 
L 310.808626 158.647709 
L 310.970994 166.967171 
L 311.133362 176.581894 
L 311.458097 154.862385 
L 311.539281 154.990521 
L 311.701649 163.183945 
L 311.864017 174.949919 
L 312.188753 151.295995 
L 312.269937 151.401519 
L 312.351121 153.555019 
L 312.594672 171.980656 
L 312.919408 146.93639 
L 313.000592 146.482674 
L 313.16296 153.07745 
L 313.325328 166.990659 
L 313.731247 140.222597 
L 313.812431 141.533624 
L 313.974799 153.054838 
L 314.055983 161.340398 
L 314.461903 130.542134 
L 314.543087 130.811455 
L 314.705455 139.943868 
L 314.786638 149.547885 
L 314.867822 145.047446 
L 315.192558 109.64486 
L 315.43611 103.338455 
L 315.517294 102.472187 
L 315.598478 53.568 
L 315.760846 96.674405 
L 316.085581 119.951455 
L 316.247949 147.413497 
L 316.329133 183.461444 
L 316.491501 142.854684 
L 316.653869 137.557513 
L 316.735053 139.15507 
L 316.897421 149.702513 
L 317.059789 173.980112 
L 317.140973 171.419482 
L 317.384524 156.153987 
L 317.465708 156.595083 
L 317.628076 160.216281 
L 317.70926 160.135235 
L 317.952812 154.359368 
L 318.033996 155.444855 
L 318.196364 169.55651 
L 318.277548 179.924148 
L 318.602283 139.842928 
L 318.683467 137.597249 
L 318.764651 137.838789 
L 318.845835 141.213815 
L 318.927019 149.966709 
L 319.008203 173.698574 
L 319.332939 116.896787 
L 319.57649 105.168635 
L 319.738858 103.7008 
L 319.820042 53.968764 
L 319.98241 94.331353 
L 320.307146 116.005871 
L 320.550698 150.216949 
L 320.794249 129.568035 
L 320.875433 128.7275 
L 320.956617 130.351313 
L 321.118985 141.201665 
L 321.281353 162.759338 
L 321.606089 139.690605 
L 321.687273 140.234999 
L 321.849641 149.01704 
L 322.012008 169.568989 
L 322.417928 146.703965 
L 322.580296 154.172757 
L 322.742664 174.518407 
L 322.823848 171.3936 
L 323.0674 151.986961 
L 323.148584 151.765367 
L 323.310951 158.181707 
L 323.473319 177.157176 
L 323.554503 175.954529 
L 323.798055 156.167367 
L 323.879239 155.605292 
L 323.960423 156.684325 
L 324.122791 169.622494 
L 324.285159 180.658505 
L 324.52871 160.077544 
L 324.609894 158.924868 
L 324.691078 160.347207 
L 324.853446 171.814618 
L 325.015814 183.31368 
L 325.259366 163.537234 
L 325.34055 161.494606 
L 325.502918 166.774126 
L 325.746469 187.87166 
L 325.990021 166.220393 
L 326.071205 164.394407 
L 326.152389 165.262388 
L 326.233573 168.071469 
L 326.477125 190.150769 
L 326.80186 166.180833 
L 326.883044 167.003478 
L 327.045412 177.937384 
L 327.20778 193.645289 
L 327.451332 170.393111 
L 327.532516 168.644984 
L 327.694884 172.433391 
L 327.938436 196.428138 
L 328.181987 173.800625 
L 328.263171 170.343543 
L 328.344355 171.062089 
L 328.425539 173.237847 
L 328.669091 196.411826 
L 328.993827 171.99814 
L 329.156195 174.6382 
L 329.399746 197.954324 
L 329.724482 173.745428 
L 329.805666 174.720302 
L 329.968034 183.882642 
L 330.130402 202.982075 
L 330.455137 175.576928 
L 330.536321 175.820715 
L 330.698689 183.143353 
L 330.861057 203.016166 
L 331.185793 178.245139 
L 331.266977 177.880167 
L 331.348161 179.598441 
L 331.591712 202.621578 
L 331.672896 198.410771 
L 331.916448 178.360486 
L 331.997632 178.372745 
L 332.16 185.58252 
L 332.322368 208.897294 
L 332.728288 179.414867 
L 332.890655 187.053642 
L 333.053023 209.058288 
L 333.458943 179.913004 
L 333.621311 188.142837 
L 333.783679 209.762754 
L 333.864863 205.200645 
L 334.108414 183.006313 
L 334.189598 181.704921 
L 334.351966 188.851555 
L 334.514334 204.471608 
L 334.595518 203.882839 
L 334.83907 183.766624 
L 334.920254 183.213094 
L 335.082622 189.945723 
L 335.244989 210.723882 
L 335.326173 206.635596 
L 335.569725 185.28116 
L 335.650909 183.382677 
L 335.813277 190.763504 
L 335.975645 211.383835 
L 336.056829 208.827359 
L 336.300381 185.47921 
L 336.462748 187.362145 
L 336.543932 191.372097 
L 336.787484 210.160011 
L 337.031036 186.078889 
L 337.11222 186.02834 
L 337.193404 187.824637 
L 337.355772 199.03093 
L 337.436956 211.807057 
L 337.51814 208.037108 
L 337.842875 187.353655 
L 337.924059 187.642452 
L 338.086427 200.956453 
L 338.167611 212.292311 
L 338.248795 209.487203 
L 338.492347 188.890959 
L 338.573531 187.168327 
L 338.654715 188.675531 
L 338.817082 201.647003 
L 338.898266 216.21529 
L 338.97945 212.904758 
L 339.223002 190.24864 
L 339.38537 188.732592 
L 339.547738 201.042248 
L 339.710106 220.247536 
L 339.872474 194.00065 
L 340.034841 190.166991 
L 340.197209 196.47482 
L 340.440761 216.270577 
L 340.684313 192.324606 
L 340.765497 190.980342 
L 340.846681 191.027239 
L 341.009049 201.820317 
L 341.171416 216.150577 
L 341.496152 192.040754 
L 341.577336 191.792284 
L 341.739704 203.960717 
L 341.902072 223.840988 
L 342.226808 191.109876 
L 342.470359 203.468075 
L 342.632727 217.977204 
L 342.957463 193.676856 
L 343.038647 193.317826 
L 343.282199 215.582486 
L 343.363383 236.459263 
L 343.525751 201.32474 
L 343.769302 193.455623 
L 343.850486 197.738777 
L 344.094038 231.831605 
L 344.33759 197.436689 
L 344.499958 194.207997 
L 344.74351 211.516398 
L 344.824693 225.257203 
L 345.068245 195.234099 
L 345.149429 197.293983 
L 345.230613 197.038186 
L 345.311797 198.159311 
L 345.474165 216.598266 
L 345.555349 225.625959 
L 345.961268 196.143424 
L 346.123636 207.404459 
L 346.20482 214.616135 
L 346.286004 234.745134 
L 346.529556 196.929561 
L 346.61074 197.561584 
L 346.691924 197.131281 
L 346.854292 205.597235 
L 347.01666 236.926602 
L 347.097844 226.585548 
L 347.260211 202.198973 
L 347.341395 197.261373 
L 347.422579 198.908677 
L 347.503763 201.34027 
L 347.747315 238.453031 
L 347.990867 199.908914 
L 348.153235 197.215168 
L 348.315603 205.675707 
L 348.47797 232.378533 
L 348.559154 229.448692 
L 348.721522 204.937811 
L 348.88389 198.488185 
L 348.965074 200.350863 
L 349.046258 205.201393 
L 349.208626 241.59473 
L 349.452178 202.016218 
L 349.533362 201.554741 
L 349.614545 199.967908 
L 349.695729 201.543602 
L 349.858097 216.429817 
L 349.939281 244.084708 
L 350.182833 202.791566 
L 350.264017 202.711337 
L 350.345201 200.240156 
L 350.507569 206.370452 
L 350.669937 229.40926 
L 350.751121 227.74198 
L 350.994672 199.538601 
L 351.238224 209.501462 
L 351.319408 216.402078 
L 351.400592 243.047379 
L 351.644144 205.23679 
L 351.725328 205.311413 
L 351.806512 198.387638 
L 352.050063 218.581033 
L 352.131247 244.966342 
L 352.455983 201.27598 
L 352.537167 200.640848 
L 352.699535 208.018762 
L 352.861903 233.604865 
L 352.943087 232.463199 
L 353.186638 201.065172 
L 353.267822 202.822174 
L 353.349006 202.758618 
L 353.511374 221.507309 
L 353.592558 242.178012 
L 353.673742 236.242788 
L 353.83611 208.046405 
L 353.998478 200.262792 
L 354.24203 220.293155 
L 354.404397 240.584718 
L 354.647949 206.747555 
L 354.810317 202.717055 
L 355.053869 245.761278 
L 355.135053 245.170697 
L 355.378605 203.987027 
L 355.459789 206.644442 
L 355.540973 204.361771 
L 355.70334 215.300266 
L 355.865708 240.989983 
L 356.028076 208.650324 
L 356.190444 204.571768 
L 356.352812 207.96711 
L 356.596364 252.562864 
L 356.758732 210.413436 
L 357.002283 203.318066 
L 357.327019 238.409906 
L 357.489387 209.982042 
L 357.570571 209.569801 
L 357.651755 206.579343 
L 357.732939 207.010345 
L 357.814123 211.518805 
L 358.057674 239.06654 
L 358.301226 205.353477 
L 358.38241 204.248222 
L 358.544778 210.748576 
L 358.625962 221.451865 
L 358.707146 254.657908 
L 358.78833 246.25479 
L 359.113066 204.578146 
L 359.194249 207.196267 
L 359.437801 238.732641 
L 359.518985 237.891624 
L 359.762537 209.256674 
L 359.843721 208.277857 
L 359.924905 209.169017 
L 360.006089 212.179827 
L 360.249641 236.310891 
L 360.493192 210.97364 
L 360.574376 212.136686 
L 360.736744 207.455222 
L 360.980296 266.443768 
L 361.223848 213.894995 
L 361.305032 207.814108 
L 361.629767 228.939414 
L 361.710951 295.488 
L 361.873319 216.651527 
L 361.954503 207.222608 
L 362.035687 207.388918 
L 362.116871 206.59556 
L 362.360423 233.007294 
L 362.441607 260.00166 
L 362.685159 209.087899 
L 362.847526 207.764633 
L 363.009894 216.68149 
L 363.091078 226.884638 
L 363.172262 262.341467 
L 363.33463 220.99734 
L 363.415814 209.137684 
L 363.496998 209.837415 
L 363.578182 208.077977 
L 363.902918 261.497351 
L 364.146469 210.42726 
L 364.227653 209.29892 
L 364.471205 218.971968 
L 364.633573 267.71912 
L 364.877125 214.810206 
L 364.958309 210.344249 
L 365.20186 223.242903 
L 365.283044 222.624785 
L 365.364228 244.78723 
L 365.688964 213.597893 
L 365.770148 213.860445 
L 365.932516 221.135456 
L 366.094884 275.185908 
L 366.257252 220.958282 
L 366.500803 209.841558 
L 366.825539 245.714737 
L 366.906723 240.18816 
L 367.069091 218.742027 
L 367.150275 213.047129 
L 367.231459 214.397482 
L 367.393827 219.73873 
L 367.556195 267.215621 
L 367.799746 217.59092 
L 367.88093 217.014288 
L 367.962114 213.014422 
L 368.043298 213.017402 
L 368.28685 252.428131 
L 368.368034 248.96434 
L 368.530402 221.170842 
L 368.611586 213.125564 
L 368.69277 213.761852 
L 368.773953 213.782212 
L 368.936321 231.08763 
L 369.017505 282.837286 
L 369.179873 224.94972 
L 369.342241 212.017887 
L 369.423425 213.8383 
L 369.585793 218.902072 
L 369.748161 242.757053 
L 370.15408 214.72855 
L 370.235264 214.963507 
L 370.397632 228.654584 
L 370.478816 249.306338 
L 370.803552 214.549122 
L 370.884736 211.381734 
L 370.96592 216.841173 
L 371.047104 216.83993 
L 371.290655 262.671391 
L 371.453023 218.69604 
L 371.534207 215.248618 
L 371.615391 223.371086 
L 371.696575 214.943162 
L 372.021311 251.074688 
L 372.183679 222.776006 
L 372.264863 218.242965 
L 372.346047 218.34343 
L 372.42723 215.908125 
L 372.508414 215.947297 
L 372.670782 255.352574 
L 372.914334 224.518108 
L 372.995518 215.097839 
L 373.076702 216.260065 
L 373.157886 212.577664 
L 373.320254 231.265519 
L 373.401438 256.853111 
L 373.644989 223.766754 
L 373.726173 224.431177 
L 373.807357 216.529079 
L 373.888541 217.962561 
L 374.050909 231.526038 
L 374.132093 251.073871 
L 374.213277 248.735449 
L 374.456829 214.447279 
L 374.781564 226.46665 
L 374.943932 250.086486 
L 375.187484 216.311804 
L 375.268668 215.637151 
L 375.349852 215.958081 
L 375.51222 237.039235 
L 375.674588 251.639221 
L 375.999323 217.021158 
L 376.080507 212.560246 
L 376.405243 253.501543 
L 376.567611 220.850327 
L 376.729979 214.605917 
L 376.811163 216.503055 
L 376.973531 228.304702 
L 377.135899 248.470022 
L 377.460634 218.298744 
L 377.541818 218.367718 
L 377.78537 236.962966 
L 377.866554 263.930422 
L 378.028922 219.88872 
L 378.19129 225.273557 
L 378.272474 219.490434 
L 378.434841 230.561624 
L 378.516025 276.645797 
L 378.759577 225.316449 
L 378.840761 217.01037 
L 378.921945 217.827905 
L 379.003129 215.871324 
L 379.246681 240.807075 
L 379.327865 270.425785 
L 379.490233 224.446187 
L 379.6526 214.695822 
L 379.733784 215.918555 
L 380.05852 250.781176 
L 380.139704 225.002694 
L 380.220888 225.552823 
L 380.302072 230.052746 
L 380.383256 219.487093 
L 380.46444 221.516316 
L 380.626808 232.125445 
L 380.707992 254.074323 
L 380.789175 233.812893 
L 380.870359 237.708387 
L 381.113911 218.124496 
L 381.195095 218.450532 
L 381.276279 218.955866 
L 381.519831 259.359481 
L 381.601015 251.22659 
L 381.763383 217.013924 
L 381.844567 223.81799 
L 381.925751 221.298198 
L 382.006934 223.603919 
L 382.250486 249.25714 
L 382.412854 224.924437 
L 382.494038 224.999396 
L 382.575222 229.847722 
L 382.656406 223.627035 
L 382.899958 244.082379 
L 382.981142 240.964637 
L 383.062326 235.399501 
L 383.14351 222.181585 
L 383.224693 226.771137 
L 383.305877 219.992933 
L 383.387061 223.324129 
L 383.468245 231.487259 
L 383.549429 221.257655 
L 383.630613 226.181292 
L 383.711797 242.145504 
L 384.036533 220.031823 
L 384.280085 230.016607 
L 384.361268 244.911087 
L 384.442452 241.348094 
L 384.767188 222.246373 
L 384.848372 216.085165 
L 385.091924 242.51692 
L 385.173108 259.220979 
L 385.41666 220.814514 
L 385.497844 217.962491 
L 385.579027 224.16297 
L 385.660211 222.180601 
L 385.741395 223.482433 
L 385.903763 239.077705 
L 386.147315 220.096407 
L 386.228499 230.043844 
L 386.309683 219.427884 
L 386.390867 228.780173 
L 386.472051 221.979587 
L 386.634419 243.584121 
L 386.796786 233.240588 
L 386.87797 221.898869 
L 386.959154 223.587831 
L 387.040338 224.440731 
L 387.28389 240.777831 
L 387.365074 238.378444 
L 387.446258 243.158456 
L 387.527442 229.226935 
L 387.608626 230.842823 
L 387.68981 233.121155 
L 387.852178 219.91118 
L 388.014545 238.46908 
L 388.176913 251.406035 
L 388.339281 230.536799 
L 388.582833 222.688543 
L 388.664017 227.863534 
L 388.745201 251.693881 
L 388.826385 237.953659 
L 388.907569 243.416696 
L 389.151121 221.027912 
L 389.232304 220.17099 
L 389.313488 222.148725 
L 389.55704 244.605066 
L 389.638224 230.921511 
L 389.719408 239.939858 
L 389.881776 224.921445 
L 389.96296 220.031034 
L 390.044144 220.112818 
L 390.206512 239.049519 
L 390.287696 237.332735 
L 390.693615 221.541227 
L 390.774799 223.387256 
L 390.855983 221.837998 
L 391.018351 244.306333 
L 391.099535 240.666483 
L 391.180719 226.140045 
L 391.261903 229.34356 
L 391.505455 222.275771 
L 391.586638 225.346019 
L 391.667822 224.337745 
L 391.83019 261.163774 
L 391.992558 229.484255 
L 392.073742 233.549513 
L 392.154926 216.688308 
L 392.23611 218.201765 
L 392.398478 247.454458 
L 392.479662 236.89717 
L 392.560846 248.046252 
L 392.64203 227.814741 
L 392.723214 229.872884 
L 392.885581 223.886043 
L 392.966765 222.196427 
L 393.047949 224.908751 
L 393.129133 255.111134 
L 393.210317 254.502174 
L 393.291501 247.985854 
L 393.535053 211.818081 
L 393.697421 203.022605 
L 393.778605 227.967725 
L 393.859789 225.682583 
L 393.940973 225.474762 
L 394.022156 232.43298 
L 394.184524 225.805873 
L 394.265708 227.98685 
L 394.346892 227.278807 
L 394.428076 224.035901 
L 394.752812 249.856743 
L 394.833996 268.862411 
L 394.996364 193.623571 
L 395.158732 223.646196 
L 395.321099 226.576146 
L 395.402283 219.723115 
L 395.645835 249.149437 
L 395.889387 221.436362 
L 396.051755 228.082774 
L 396.132939 249.087952 
L 396.37649 227.701626 
L 396.457674 226.090664 
L 396.538858 231.452663 
L 396.620042 223.85606 
L 396.701226 224.796789 
L 396.944778 264.315425 
L 397.18833 224.300926 
L 397.350698 219.878798 
L 397.513066 231.495514 
L 397.756617 215.435215 
L 397.918985 181.012972 
L 398.000169 240.413421 
L 398.081353 216.193171 
L 398.162537 218.863864 
L 398.243721 212.227055 
L 398.324905 212.336819 
L 398.487273 221.184523 
L 398.487273 221.184523 
" style="fill:none;stroke:#1f77b4;stroke-linecap:square;stroke-width:1.5;"/>
   </g>
   <g id="patch_3">
    <path d="M 57.6 307.584 
L 57.6 41.472 
" style="fill:none;stroke:#000000;stroke-linecap:square;stroke-linejoin:miter;stroke-width:0.8;"/>
   </g>
   <g id="patch_4">
    <path d="M 414.72 307.584 
L 414.72 41.472 
" style="fill:none;stroke:#000000;stroke-linecap:square;stroke-linejoin:miter;stroke-width:0.8;"/>
   </g>
   <g id="patch_5">
    <path d="M 57.6 307.584 
L 414.72 307.584 
" style="fill:none;stroke:#000000;stroke-linecap:square;stroke-linejoin:miter;stroke-width:0.8;"/>
   </g>
   <g id="patch_6">
    <path d="M 57.6 41.472 
L 414.72 41.472 
" style="fill:none;stroke:#000000;stroke-linecap:square;stroke-linejoin:miter;stroke-width:0.8;"/>
   </g>
   <g id="text_17">
    <!-- AM frequency domain -->
    <g transform="translate(170.502187 35.472)scale(0.12 -0.12)">
     <defs>
      <path d="M 2188 4044 
L 1331 1722 
L 3047 1722 
L 2188 4044 
z
M 1831 4666 
L 2547 4666 
L 4325 0 
L 3669 0 
L 3244 1197 
L 1141 1197 
L 716 0 
L 50 0 
L 1831 4666 
z
" id="DejaVuSans-41" transform="scale(0.015625)"/>
      <path d="M 628 4666 
L 1569 4666 
L 2759 1491 
L 3956 4666 
L 4897 4666 
L 4897 0 
L 4281 0 
L 4281 4097 
L 3078 897 
L 2444 897 
L 1241 4097 
L 1241 0 
L 628 0 
L 628 4666 
z
" id="DejaVuSans-4d" transform="scale(0.015625)"/>
      <path d="M 1959 3097 
Q 1497 3097 1228 2736 
Q 959 2375 959 1747 
Q 959 1119 1226 758 
Q 1494 397 1959 397 
Q 2419 397 2687 759 
Q 2956 1122 2956 1747 
Q 2956 2369 2687 2733 
Q 2419 3097 1959 3097 
z
M 1959 3584 
Q 2709 3584 3137 3096 
Q 3566 2609 3566 1747 
Q 3566 888 3137 398 
Q 2709 -91 1959 -91 
Q 1206 -91 779 398 
Q 353 888 353 1747 
Q 353 2609 779 3096 
Q 1206 3584 1959 3584 
z
" id="DejaVuSans-6f" transform="scale(0.015625)"/>
     </defs>
     <use xlink:href="#DejaVuSans-41"/>
     <use x="68.408203" xlink:href="#DejaVuSans-4d"/>
     <use x="154.6875" xlink:href="#DejaVuSans-20"/>
     <use x="186.474609" xlink:href="#DejaVuSans-66"/>
     <use x="221.679688" xlink:href="#DejaVuSans-72"/>
     <use x="260.542969" xlink:href="#DejaVuSans-65"/>
     <use x="322.066406" xlink:href="#DejaVuSans-71"/>
     <use x="385.542969" xlink:href="#DejaVuSans-75"/>
     <use x="448.921875" xlink:href="#DejaVuSans-65"/>
     <use x="510.445312" xlink:href="#DejaVuSans-6e"/>
     <use x="573.824219" xlink:href="#DejaVuSans-63"/>
     <use x="628.804688" xlink:href="#DejaVuSans-79"/>
     <use x="687.984375" xlink:href="#DejaVuSans-20"/>
     <use x="719.771484" xlink:href="#DejaVuSans-64"/>
     <use x="783.248047" xlink:href="#DejaVuSans-6f"/>
     <use x="844.429688" xlink:href="#DejaVuSans-6d"/>
     <use x="941.841797" xlink:href="#DejaVuSans-61"/>
     <use x="1003.121094" xlink:href="#DejaVuSans-69"/>
     <use x="1030.904297" xlink:href="#DejaVuSans-6e"/>
    </g>
   </g>
  </g>
 </g>
 <defs>
  <clipPath id="p8c8206ea86">
   <rect height="266.112" width="357.12" x="57.6" y="41.472"/>
  </clipPath>
 </defs>
</svg>
