<?xml version="1.0" encoding="utf-8" standalone="no"?>
<!DOCTYPE svg PUBLIC "-//W3C//DTD SVG 1.1//EN"
  "http://www.w3.org/Graphics/SVG/1.1/DTD/svg11.dtd">
<svg height="345.6pt" version="1.1" viewBox="0 0 460.8 345.6" width="460.8pt" xmlns="http://www.w3.org/2000/svg" xmlns:xlink="http://www.w3.org/1999/xlink">
 <metadata>
  <rdf:RDF xmlns:cc="http://creativecommons.org/ns#" xmlns:dc="http://purl.org/dc/elements/1.1/" xmlns:rdf="http://www.w3.org/1999/02/22-rdf-syntax-ns#">
   <cc:Work>
    <dc:type rdf:resource="http://purl.org/dc/dcmitype/StillImage"/>
    <dc:date>2021-11-07T21:56:33.746280</dc:date>
    <dc:format>image/svg+xml</dc:format>
    <dc:creator>
     <cc:Agent>
      <dc:title>Matplotlib v3.4.3, https://matplotlib.org/</dc:title>
     </cc:Agent>
    </dc:creator>
   </cc:Work>
  </rdf:RDF>
 </metadata>
 <defs>
  <style type="text/css">*{stroke-linecap:butt;stroke-linejoin:round;}</style>
 </defs>
 <g id="figure_1">
  <g id="patch_1">
   <path d="M 0 345.6 
L 460.8 345.6 
L 460.8 0 
L 0 0 
z
" style="fill:#ffffff;"/>
  </g>
  <g id="axes_1">
   <g id="patch_2">
    <path d="M 57.6 307.584 
L 414.72 307.584 
L 414.72 41.472 
L 57.6 41.472 
z
" style="fill:#ffffff;"/>
   </g>
   <g id="matplotlib.axis_1">
    <g id="xtick_1">
     <g id="line2d_1">
      <defs>
       <path d="M 0 0 
L 0 3.5 
" id="mdfd166e79a" style="stroke:#000000;stroke-width:0.8;"/>
      </defs>
      <g>
       <use style="stroke:#000000;stroke-width:0.8;" x="73.784017" xlink:href="#mdfd166e79a" y="307.584"/>
      </g>
     </g>
     <g id="text_1">
      <!-- 300 -->
      <g transform="translate(64.240267 322.182437)scale(0.1 -0.1)">
       <defs>
        <path d="M 2597 2516 
Q 3050 2419 3304 2112 
Q 3559 1806 3559 1356 
Q 3559 666 3084 287 
Q 2609 -91 1734 -91 
Q 1441 -91 1130 -33 
Q 819 25 488 141 
L 488 750 
Q 750 597 1062 519 
Q 1375 441 1716 441 
Q 2309 441 2620 675 
Q 2931 909 2931 1356 
Q 2931 1769 2642 2001 
Q 2353 2234 1838 2234 
L 1294 2234 
L 1294 2753 
L 1863 2753 
Q 2328 2753 2575 2939 
Q 2822 3125 2822 3475 
Q 2822 3834 2567 4026 
Q 2313 4219 1838 4219 
Q 1578 4219 1281 4162 
Q 984 4106 628 3988 
L 628 4550 
Q 988 4650 1302 4700 
Q 1616 4750 1894 4750 
Q 2613 4750 3031 4423 
Q 3450 4097 3450 3541 
Q 3450 3153 3228 2886 
Q 3006 2619 2597 2516 
z
" id="DejaVuSans-33" transform="scale(0.015625)"/>
        <path d="M 2034 4250 
Q 1547 4250 1301 3770 
Q 1056 3291 1056 2328 
Q 1056 1369 1301 889 
Q 1547 409 2034 409 
Q 2525 409 2770 889 
Q 3016 1369 3016 2328 
Q 3016 3291 2770 3770 
Q 2525 4250 2034 4250 
z
M 2034 4750 
Q 2819 4750 3233 4129 
Q 3647 3509 3647 2328 
Q 3647 1150 3233 529 
Q 2819 -91 2034 -91 
Q 1250 -91 836 529 
Q 422 1150 422 2328 
Q 422 3509 836 4129 
Q 1250 4750 2034 4750 
z
" id="DejaVuSans-30" transform="scale(0.015625)"/>
       </defs>
       <use xlink:href="#DejaVuSans-33"/>
       <use x="63.623047" xlink:href="#DejaVuSans-30"/>
       <use x="127.246094" xlink:href="#DejaVuSans-30"/>
      </g>
     </g>
    </g>
    <g id="xtick_2">
     <g id="line2d_2">
      <g>
       <use style="stroke:#000000;stroke-width:0.8;" x="114.371924" xlink:href="#mdfd166e79a" y="307.584"/>
      </g>
     </g>
     <g id="text_2">
      <!-- 325 -->
      <g transform="translate(104.828174 322.182437)scale(0.1 -0.1)">
       <defs>
        <path d="M 1228 531 
L 3431 531 
L 3431 0 
L 469 0 
L 469 531 
Q 828 903 1448 1529 
Q 2069 2156 2228 2338 
Q 2531 2678 2651 2914 
Q 2772 3150 2772 3378 
Q 2772 3750 2511 3984 
Q 2250 4219 1831 4219 
Q 1534 4219 1204 4116 
Q 875 4013 500 3803 
L 500 4441 
Q 881 4594 1212 4672 
Q 1544 4750 1819 4750 
Q 2544 4750 2975 4387 
Q 3406 4025 3406 3419 
Q 3406 3131 3298 2873 
Q 3191 2616 2906 2266 
Q 2828 2175 2409 1742 
Q 1991 1309 1228 531 
z
" id="DejaVuSans-32" transform="scale(0.015625)"/>
        <path d="M 691 4666 
L 3169 4666 
L 3169 4134 
L 1269 4134 
L 1269 2991 
Q 1406 3038 1543 3061 
Q 1681 3084 1819 3084 
Q 2600 3084 3056 2656 
Q 3513 2228 3513 1497 
Q 3513 744 3044 326 
Q 2575 -91 1722 -91 
Q 1428 -91 1123 -41 
Q 819 9 494 109 
L 494 744 
Q 775 591 1075 516 
Q 1375 441 1709 441 
Q 2250 441 2565 725 
Q 2881 1009 2881 1497 
Q 2881 1984 2565 2268 
Q 2250 2553 1709 2553 
Q 1456 2553 1204 2497 
Q 953 2441 691 2322 
L 691 4666 
z
" id="DejaVuSans-35" transform="scale(0.015625)"/>
       </defs>
       <use xlink:href="#DejaVuSans-33"/>
       <use x="63.623047" xlink:href="#DejaVuSans-32"/>
       <use x="127.246094" xlink:href="#DejaVuSans-35"/>
      </g>
     </g>
    </g>
    <g id="xtick_3">
     <g id="line2d_3">
      <g>
       <use style="stroke:#000000;stroke-width:0.8;" x="154.959831" xlink:href="#mdfd166e79a" y="307.584"/>
      </g>
     </g>
     <g id="text_3">
      <!-- 350 -->
      <g transform="translate(145.416081 322.182437)scale(0.1 -0.1)">
       <use xlink:href="#DejaVuSans-33"/>
       <use x="63.623047" xlink:href="#DejaVuSans-35"/>
       <use x="127.246094" xlink:href="#DejaVuSans-30"/>
      </g>
     </g>
    </g>
    <g id="xtick_4">
     <g id="line2d_4">
      <g>
       <use style="stroke:#000000;stroke-width:0.8;" x="195.547738" xlink:href="#mdfd166e79a" y="307.584"/>
      </g>
     </g>
     <g id="text_4">
      <!-- 375 -->
      <g transform="translate(186.003988 322.182437)scale(0.1 -0.1)">
       <defs>
        <path d="M 525 4666 
L 3525 4666 
L 3525 4397 
L 1831 0 
L 1172 0 
L 2766 4134 
L 525 4134 
L 525 4666 
z
" id="DejaVuSans-37" transform="scale(0.015625)"/>
       </defs>
       <use xlink:href="#DejaVuSans-33"/>
       <use x="63.623047" xlink:href="#DejaVuSans-37"/>
       <use x="127.246094" xlink:href="#DejaVuSans-35"/>
      </g>
     </g>
    </g>
    <g id="xtick_5">
     <g id="line2d_5">
      <g>
       <use style="stroke:#000000;stroke-width:0.8;" x="236.135645" xlink:href="#mdfd166e79a" y="307.584"/>
      </g>
     </g>
     <g id="text_5">
      <!-- 400 -->
      <g transform="translate(226.591895 322.182437)scale(0.1 -0.1)">
       <defs>
        <path d="M 2419 4116 
L 825 1625 
L 2419 1625 
L 2419 4116 
z
M 2253 4666 
L 3047 4666 
L 3047 1625 
L 3713 1625 
L 3713 1100 
L 3047 1100 
L 3047 0 
L 2419 0 
L 2419 1100 
L 313 1100 
L 313 1709 
L 2253 4666 
z
" id="DejaVuSans-34" transform="scale(0.015625)"/>
       </defs>
       <use xlink:href="#DejaVuSans-34"/>
       <use x="63.623047" xlink:href="#DejaVuSans-30"/>
       <use x="127.246094" xlink:href="#DejaVuSans-30"/>
      </g>
     </g>
    </g>
    <g id="xtick_6">
     <g id="line2d_6">
      <g>
       <use style="stroke:#000000;stroke-width:0.8;" x="276.723552" xlink:href="#mdfd166e79a" y="307.584"/>
      </g>
     </g>
     <g id="text_6">
      <!-- 425 -->
      <g transform="translate(267.179802 322.182437)scale(0.1 -0.1)">
       <use xlink:href="#DejaVuSans-34"/>
       <use x="63.623047" xlink:href="#DejaVuSans-32"/>
       <use x="127.246094" xlink:href="#DejaVuSans-35"/>
      </g>
     </g>
    </g>
    <g id="xtick_7">
     <g id="line2d_7">
      <g>
       <use style="stroke:#000000;stroke-width:0.8;" x="317.311459" xlink:href="#mdfd166e79a" y="307.584"/>
      </g>
     </g>
     <g id="text_7">
      <!-- 450 -->
      <g transform="translate(307.767709 322.182437)scale(0.1 -0.1)">
       <use xlink:href="#DejaVuSans-34"/>
       <use x="63.623047" xlink:href="#DejaVuSans-35"/>
       <use x="127.246094" xlink:href="#DejaVuSans-30"/>
      </g>
     </g>
    </g>
    <g id="xtick_8">
     <g id="line2d_8">
      <g>
       <use style="stroke:#000000;stroke-width:0.8;" x="357.899366" xlink:href="#mdfd166e79a" y="307.584"/>
      </g>
     </g>
     <g id="text_8">
      <!-- 475 -->
      <g transform="translate(348.355616 322.182437)scale(0.1 -0.1)">
       <use xlink:href="#DejaVuSans-34"/>
       <use x="63.623047" xlink:href="#DejaVuSans-37"/>
       <use x="127.246094" xlink:href="#DejaVuSans-35"/>
      </g>
     </g>
    </g>
    <g id="xtick_9">
     <g id="line2d_9">
      <g>
       <use style="stroke:#000000;stroke-width:0.8;" x="398.487273" xlink:href="#mdfd166e79a" y="307.584"/>
      </g>
     </g>
     <g id="text_9">
      <!-- 500 -->
      <g transform="translate(388.943523 322.182437)scale(0.1 -0.1)">
       <use xlink:href="#DejaVuSans-35"/>
       <use x="63.623047" xlink:href="#DejaVuSans-30"/>
       <use x="127.246094" xlink:href="#DejaVuSans-30"/>
      </g>
     </g>
    </g>
    <g id="text_10">
     <!-- time [ms] -->
     <g transform="translate(211.898281 335.860562)scale(0.1 -0.1)">
      <defs>
       <path d="M 1172 4494 
L 1172 3500 
L 2356 3500 
L 2356 3053 
L 1172 3053 
L 1172 1153 
Q 1172 725 1289 603 
Q 1406 481 1766 481 
L 2356 481 
L 2356 0 
L 1766 0 
Q 1100 0 847 248 
Q 594 497 594 1153 
L 594 3053 
L 172 3053 
L 172 3500 
L 594 3500 
L 594 4494 
L 1172 4494 
z
" id="DejaVuSans-74" transform="scale(0.015625)"/>
       <path d="M 603 3500 
L 1178 3500 
L 1178 0 
L 603 0 
L 603 3500 
z
M 603 4863 
L 1178 4863 
L 1178 4134 
L 603 4134 
L 603 4863 
z
" id="DejaVuSans-69" transform="scale(0.015625)"/>
       <path d="M 3328 2828 
Q 3544 3216 3844 3400 
Q 4144 3584 4550 3584 
Q 5097 3584 5394 3201 
Q 5691 2819 5691 2113 
L 5691 0 
L 5113 0 
L 5113 2094 
Q 5113 2597 4934 2840 
Q 4756 3084 4391 3084 
Q 3944 3084 3684 2787 
Q 3425 2491 3425 1978 
L 3425 0 
L 2847 0 
L 2847 2094 
Q 2847 2600 2669 2842 
Q 2491 3084 2119 3084 
Q 1678 3084 1418 2786 
Q 1159 2488 1159 1978 
L 1159 0 
L 581 0 
L 581 3500 
L 1159 3500 
L 1159 2956 
Q 1356 3278 1631 3431 
Q 1906 3584 2284 3584 
Q 2666 3584 2933 3390 
Q 3200 3197 3328 2828 
z
" id="DejaVuSans-6d" transform="scale(0.015625)"/>
       <path d="M 3597 1894 
L 3597 1613 
L 953 1613 
Q 991 1019 1311 708 
Q 1631 397 2203 397 
Q 2534 397 2845 478 
Q 3156 559 3463 722 
L 3463 178 
Q 3153 47 2828 -22 
Q 2503 -91 2169 -91 
Q 1331 -91 842 396 
Q 353 884 353 1716 
Q 353 2575 817 3079 
Q 1281 3584 2069 3584 
Q 2775 3584 3186 3129 
Q 3597 2675 3597 1894 
z
M 3022 2063 
Q 3016 2534 2758 2815 
Q 2500 3097 2075 3097 
Q 1594 3097 1305 2825 
Q 1016 2553 972 2059 
L 3022 2063 
z
" id="DejaVuSans-65" transform="scale(0.015625)"/>
       <path id="DejaVuSans-20" transform="scale(0.015625)"/>
       <path d="M 550 4863 
L 1875 4863 
L 1875 4416 
L 1125 4416 
L 1125 -397 
L 1875 -397 
L 1875 -844 
L 550 -844 
L 550 4863 
z
" id="DejaVuSans-5b" transform="scale(0.015625)"/>
       <path d="M 2834 3397 
L 2834 2853 
Q 2591 2978 2328 3040 
Q 2066 3103 1784 3103 
Q 1356 3103 1142 2972 
Q 928 2841 928 2578 
Q 928 2378 1081 2264 
Q 1234 2150 1697 2047 
L 1894 2003 
Q 2506 1872 2764 1633 
Q 3022 1394 3022 966 
Q 3022 478 2636 193 
Q 2250 -91 1575 -91 
Q 1294 -91 989 -36 
Q 684 19 347 128 
L 347 722 
Q 666 556 975 473 
Q 1284 391 1588 391 
Q 1994 391 2212 530 
Q 2431 669 2431 922 
Q 2431 1156 2273 1281 
Q 2116 1406 1581 1522 
L 1381 1569 
Q 847 1681 609 1914 
Q 372 2147 372 2553 
Q 372 3047 722 3315 
Q 1072 3584 1716 3584 
Q 2034 3584 2315 3537 
Q 2597 3491 2834 3397 
z
" id="DejaVuSans-73" transform="scale(0.015625)"/>
       <path d="M 1947 4863 
L 1947 -844 
L 622 -844 
L 622 -397 
L 1369 -397 
L 1369 4416 
L 622 4416 
L 622 4863 
L 1947 4863 
z
" id="DejaVuSans-5d" transform="scale(0.015625)"/>
      </defs>
      <use xlink:href="#DejaVuSans-74"/>
      <use x="39.208984" xlink:href="#DejaVuSans-69"/>
      <use x="66.992188" xlink:href="#DejaVuSans-6d"/>
      <use x="164.404297" xlink:href="#DejaVuSans-65"/>
      <use x="225.927734" xlink:href="#DejaVuSans-20"/>
      <use x="257.714844" xlink:href="#DejaVuSans-5b"/>
      <use x="296.728516" xlink:href="#DejaVuSans-6d"/>
      <use x="394.140625" xlink:href="#DejaVuSans-73"/>
      <use x="446.240234" xlink:href="#DejaVuSans-5d"/>
     </g>
    </g>
   </g>
   <g id="matplotlib.axis_2">
    <g id="ytick_1">
     <g id="line2d_10">
      <defs>
       <path d="M 0 0 
L -3.5 0 
" id="ma34ab74e83" style="stroke:#000000;stroke-width:0.8;"/>
      </defs>
      <g>
       <use style="stroke:#000000;stroke-width:0.8;" x="57.6" xlink:href="#ma34ab74e83" y="277.734335"/>
      </g>
     </g>
     <g id="text_11">
      <!-- $\mathdefault{−7.5}$ -->
      <g transform="translate(26.3 281.533554)scale(0.1 -0.1)">
       <defs>
        <path d="M 678 2272 
L 4684 2272 
L 4684 1741 
L 678 1741 
L 678 2272 
z
" id="DejaVuSans-2212" transform="scale(0.015625)"/>
        <path d="M 684 794 
L 1344 794 
L 1344 0 
L 684 0 
L 684 794 
z
" id="DejaVuSans-2e" transform="scale(0.015625)"/>
       </defs>
       <use transform="translate(0 0.09375)" xlink:href="#DejaVuSans-2212"/>
       <use transform="translate(83.789062 0.09375)" xlink:href="#DejaVuSans-37"/>
       <use transform="translate(147.412109 0.09375)" xlink:href="#DejaVuSans-2e"/>
       <use transform="translate(179.199219 0.09375)" xlink:href="#DejaVuSans-35"/>
      </g>
     </g>
    </g>
    <g id="ytick_2">
     <g id="line2d_11">
      <g>
       <use style="stroke:#000000;stroke-width:0.8;" x="57.6" xlink:href="#ma34ab74e83" y="243.827058"/>
      </g>
     </g>
     <g id="text_12">
      <!-- $\mathdefault{−5.0}$ -->
      <g transform="translate(26.3 247.626277)scale(0.1 -0.1)">
       <use transform="translate(0 0.78125)" xlink:href="#DejaVuSans-2212"/>
       <use transform="translate(83.789062 0.78125)" xlink:href="#DejaVuSans-35"/>
       <use transform="translate(147.412109 0.78125)" xlink:href="#DejaVuSans-2e"/>
       <use transform="translate(179.199219 0.78125)" xlink:href="#DejaVuSans-30"/>
      </g>
     </g>
    </g>
    <g id="ytick_3">
     <g id="line2d_12">
      <g>
       <use style="stroke:#000000;stroke-width:0.8;" x="57.6" xlink:href="#ma34ab74e83" y="209.919782"/>
      </g>
     </g>
     <g id="text_13">
      <!-- $\mathdefault{−2.5}$ -->
      <g transform="translate(26.3 213.719)scale(0.1 -0.1)">
       <use transform="translate(0 0.78125)" xlink:href="#DejaVuSans-2212"/>
       <use transform="translate(83.789062 0.78125)" xlink:href="#DejaVuSans-32"/>
       <use transform="translate(147.412109 0.78125)" xlink:href="#DejaVuSans-2e"/>
       <use transform="translate(179.199219 0.78125)" xlink:href="#DejaVuSans-35"/>
      </g>
     </g>
    </g>
    <g id="ytick_4">
     <g id="line2d_13">
      <g>
       <use style="stroke:#000000;stroke-width:0.8;" x="57.6" xlink:href="#ma34ab74e83" y="176.012505"/>
      </g>
     </g>
     <g id="text_14">
      <!-- $\mathdefault{0.0}$ -->
      <g transform="translate(34.6 179.811724)scale(0.1 -0.1)">
       <use transform="translate(0 0.78125)" xlink:href="#DejaVuSans-30"/>
       <use transform="translate(63.623047 0.78125)" xlink:href="#DejaVuSans-2e"/>
       <use transform="translate(95.410156 0.78125)" xlink:href="#DejaVuSans-30"/>
      </g>
     </g>
    </g>
    <g id="ytick_5">
     <g id="line2d_14">
      <g>
       <use style="stroke:#000000;stroke-width:0.8;" x="57.6" xlink:href="#ma34ab74e83" y="142.105228"/>
      </g>
     </g>
     <g id="text_15">
      <!-- $\mathdefault{2.5}$ -->
      <g transform="translate(34.6 145.904447)scale(0.1 -0.1)">
       <use transform="translate(0 0.78125)" xlink:href="#DejaVuSans-32"/>
       <use transform="translate(63.623047 0.78125)" xlink:href="#DejaVuSans-2e"/>
       <use transform="translate(95.410156 0.78125)" xlink:href="#DejaVuSans-35"/>
      </g>
     </g>
    </g>
    <g id="ytick_6">
     <g id="line2d_15">
      <g>
       <use style="stroke:#000000;stroke-width:0.8;" x="57.6" xlink:href="#ma34ab74e83" y="108.197951"/>
      </g>
     </g>
     <g id="text_16">
      <!-- $\mathdefault{5.0}$ -->
      <g transform="translate(34.6 111.99717)scale(0.1 -0.1)">
       <use transform="translate(0 0.78125)" xlink:href="#DejaVuSans-35"/>
       <use transform="translate(63.623047 0.78125)" xlink:href="#DejaVuSans-2e"/>
       <use transform="translate(95.410156 0.78125)" xlink:href="#DejaVuSans-30"/>
      </g>
     </g>
    </g>
    <g id="ytick_7">
     <g id="line2d_16">
      <g>
       <use style="stroke:#000000;stroke-width:0.8;" x="57.6" xlink:href="#ma34ab74e83" y="74.290674"/>
      </g>
     </g>
     <g id="text_17">
      <!-- $\mathdefault{7.5}$ -->
      <g transform="translate(34.6 78.089893)scale(0.1 -0.1)">
       <use transform="translate(0 0.09375)" xlink:href="#DejaVuSans-37"/>
       <use transform="translate(63.623047 0.09375)" xlink:href="#DejaVuSans-2e"/>
       <use transform="translate(95.410156 0.09375)" xlink:href="#DejaVuSans-35"/>
      </g>
     </g>
    </g>
    <g id="text_18">
     <!-- $\times\mathdefault{10^{−1}}\mathdefault{}$ -->
     <g transform="translate(57.6 38.472)scale(0.1 -0.1)">
      <defs>
       <path d="M 4488 3438 
L 3059 2003 
L 4488 575 
L 4116 197 
L 2681 1631 
L 1247 197 
L 878 575 
L 2303 2003 
L 878 3438 
L 1247 3816 
L 2681 2381 
L 4116 3816 
L 4488 3438 
z
" id="DejaVuSans-d7" transform="scale(0.015625)"/>
       <path d="M 794 531 
L 1825 531 
L 1825 4091 
L 703 3866 
L 703 4441 
L 1819 4666 
L 2450 4666 
L 2450 531 
L 3481 531 
L 3481 0 
L 794 0 
L 794 531 
z
" id="DejaVuSans-31" transform="scale(0.015625)"/>
      </defs>
      <use transform="translate(0 0.684375)" xlink:href="#DejaVuSans-d7"/>
      <use transform="translate(83.789062 0.684375)" xlink:href="#DejaVuSans-31"/>
      <use transform="translate(147.412109 0.684375)" xlink:href="#DejaVuSans-30"/>
      <use transform="translate(211.992188 38.965625)scale(0.7)" xlink:href="#DejaVuSans-2212"/>
      <use transform="translate(270.644531 38.965625)scale(0.7)" xlink:href="#DejaVuSans-31"/>
     </g>
    </g>
   </g>
   <g id="line2d_17">
    <path clip-path="url(#p47b42054be)" d="M 73.832727 164.875847 
L 74.888118 114.586051 
L 75.53759 92.289144 
L 76.024693 81.710009 
L 76.349429 77.941061 
L 76.592981 76.909147 
L 76.674165 76.91002 
L 76.836533 77.428057 
L 77.080085 79.483724 
L 77.40482 84.547799 
L 77.891924 96.793042 
L 78.541395 120.509475 
L 79.515603 166.364598 
L 81.058097 239.182752 
L 81.707569 260.903266 
L 82.194672 271.383317 
L 82.600592 275.779908 
L 82.844144 276.434077 
L 83.006512 276.034684 
L 83.250063 274.189699 
L 83.574799 269.454254 
L 83.980719 260.069903 
L 84.549006 241.208219 
L 85.360846 205.622916 
L 87.552812 104.212885 
L 88.202283 85.745577 
L 88.608203 78.959961 
L 88.932939 76.417909 
L 89.095307 76.136009 
L 89.257674 76.517146 
L 89.501226 78.324732 
L 89.825962 82.992728 
L 90.231882 92.267494 
L 90.800169 110.937349 
L 91.612008 146.19697 
L 93.803975 246.673308 
L 94.453446 264.889602 
L 94.859366 271.527352 
L 95.184101 273.956269 
L 95.346469 274.183358 
L 95.508837 273.748605 
L 95.752389 271.862895 
L 96.077125 267.095214 
L 96.483044 257.703591 
L 97.051332 238.886472 
L 97.863171 203.456333 
L 100.055137 102.833772 
L 100.704609 84.6712 
L 101.110529 78.086486 
L 101.435264 75.708898 
L 101.597632 75.509945 
L 101.76 75.974215 
L 102.003552 77.906336 
L 102.328288 82.738741 
L 102.734207 92.21334 
L 103.302495 111.144412 
L 104.114334 146.717908 
L 106.3063 247.525451 
L 106.955772 265.693515 
L 107.361691 272.277328 
L 107.686427 274.65413 
L 107.848795 274.853178 
L 108.011163 274.389569 
L 108.254715 272.459878 
L 108.57945 267.634244 
L 108.98537 258.175371 
L 109.553658 239.282959 
L 110.365497 203.803034 
L 112.557463 103.444034 
L 113.125751 87.195821 
L 113.612854 78.954525 
L 113.93759 76.656995 
L 114.099958 76.496847 
L 114.262326 76.998757 
L 114.505877 78.984616 
L 114.830613 83.882419 
L 115.317717 95.761786 
L 115.967188 118.882828 
L 116.941395 163.938655 
L 118.565074 239.739697 
L 119.214545 260.903253 
L 119.701649 270.972837 
L 120.026385 274.557282 
L 120.269937 275.52543 
L 120.351121 275.516426 
L 120.513488 275.000399 
L 120.75704 272.989521 
L 121.081776 268.0513 
L 121.568879 256.096977 
L 122.218351 232.852989 
L 123.192558 187.582709 
L 124.816237 111.460098 
L 125.465708 90.225098 
L 125.952812 80.134949 
L 126.277548 76.554107 
L 126.521099 75.597969 
L 126.602283 75.612741 
L 126.764651 76.142917 
L 127.008203 78.181397 
L 127.332939 83.167708 
L 127.820042 95.215592 
L 128.469514 118.614404 
L 129.443721 164.141697 
L 131.0674 240.583041 
L 131.716871 261.859801 
L 132.203975 271.943302 
L 132.52871 275.502676 
L 132.772262 276.434707 
L 132.853446 276.410524 
L 133.015814 275.859659 
L 133.259366 273.786034 
L 133.584101 268.746898 
L 134.071205 256.612905 
L 134.720677 233.103041 
L 135.694884 187.46835 
L 137.318562 111.158718 
L 137.968034 90.059822 
L 138.455137 80.148426 
L 138.779873 76.717561 
L 139.023425 75.886969 
L 139.104609 75.945651 
L 139.266977 76.566214 
L 139.510529 78.745306 
L 139.835264 83.924414 
L 140.322368 96.259734 
L 140.971839 120.004446 
L 141.946047 165.876427 
L 143.569725 242.202576 
L 144.219197 263.191879 
L 144.7063 272.993456 
L 145.031036 276.343322 
L 145.274588 277.111195 
L 145.355772 277.031478 
L 145.51814 276.368919 
L 145.761691 274.127678 
L 146.086427 268.869001 
L 146.573531 256.426153 
L 147.223002 232.569826 
L 148.197209 186.61498 
L 149.739704 113.520428 
L 150.389175 91.594028 
L 150.876279 80.938759 
L 151.282199 76.394314 
L 151.525751 75.654989 
L 151.606934 75.743882 
L 151.769302 76.424183 
L 152.012854 78.690305 
L 152.33759 83.97842 
L 152.824693 96.456323 
L 153.474165 120.341101 
L 154.448372 166.300703 
L 155.990867 239.327189 
L 156.640338 261.202002 
L 157.127442 271.809494 
L 157.533362 276.307549 
L 157.776913 277.015922 
L 157.939281 276.64848 
L 158.182833 274.84351 
L 158.507569 270.143436 
L 158.913488 260.768384 
L 159.481776 241.843574 
L 160.293615 206.002967 
L 162.485581 103.279825 
L 163.135053 84.462163 
L 163.540973 77.519977 
L 163.865708 74.898338 
L 164.028076 74.59385 
L 164.190444 74.964662 
L 164.433996 76.780774 
L 164.758732 81.506718 
L 165.164651 90.930471 
L 165.732939 109.948741 
L 166.544778 145.952944 
L 168.736744 248.980559 
L 169.386216 267.7723 
L 169.792135 274.664147 
L 170.116871 277.227668 
L 170.279239 277.497658 
L 170.441607 277.089064 
L 170.685159 275.210792 
L 171.009894 270.393606 
L 171.415814 260.847006 
L 171.984101 241.653457 
L 172.795941 205.431574 
L 174.987907 102.395962 
L 175.637378 83.813301 
L 176.043298 77.094374 
L 176.368034 74.687421 
L 176.530402 74.50041 
L 176.69277 74.994375 
L 176.936321 77.0039 
L 177.261057 81.998837 
L 177.666977 91.76498 
L 178.235264 111.243564 
L 179.047104 147.783815 
L 181.157886 247.970293 
L 181.807357 267.468821 
L 182.294461 275.821351 
L 182.619197 278.093617 
L 182.781564 278.211456 
L 182.943932 277.647871 
L 183.187484 275.534326 
L 183.51222 270.404346 
L 183.999323 258.059497 
L 184.648795 234.151035 
L 185.623002 187.753072 
L 187.246681 110.119859 
L 187.896152 88.594545 
L 188.383256 78.429965 
L 188.707992 74.866355 
L 188.951543 73.956186 
L 189.032727 73.992228 
L 189.195095 74.573401 
L 189.438647 76.708198 
L 189.763383 81.855854 
L 190.250486 94.20225 
L 190.899958 118.065233 
L 191.874165 164.309364 
L 193.497844 241.608667 
L 194.147315 263.035269 
L 194.634419 273.154368 
L 194.959154 276.703136 
L 195.202706 277.610477 
L 195.28389 277.575052 
L 195.446258 276.997391 
L 195.68981 274.873336 
L 196.014545 269.749375 
L 196.501649 257.455089 
L 197.151121 233.680799 
L 198.125328 187.568541 
L 199.749006 110.329053 
L 200.398478 88.840036 
L 200.885581 78.642764 
L 201.210317 75.02944 
L 201.453869 74.068471 
L 201.535053 74.085205 
L 201.697421 74.624473 
L 201.940973 76.688967 
L 202.265708 81.731418 
L 202.752812 93.903867 
L 203.402283 117.528358 
L 204.37649 163.47136 
L 206.000169 240.613691 
L 206.649641 262.112025 
L 207.136744 272.322901 
L 207.46148 275.945244 
L 207.705032 276.911868 
L 207.786216 276.896699 
L 207.948584 276.359979 
L 208.192135 274.297639 
L 208.516871 269.254532 
L 209.003975 257.073111 
L 209.653446 233.423949 
L 210.627653 187.437628 
L 212.251332 110.35119 
L 212.900803 88.973063 
L 213.387907 78.899799 
L 213.712643 75.392059 
L 213.956195 74.522843 
L 214.037378 74.572547 
L 214.199746 75.181265 
L 214.443298 77.35839 
L 214.768034 82.565478 
L 215.255137 95.009739 
L 215.904609 119.020427 
L 216.878816 165.500659 
L 218.502495 243.001991 
L 219.151966 264.339327 
L 219.63907 274.300845 
L 219.963805 277.698562 
L 220.207357 278.4686 
L 220.288541 278.382953 
L 220.450909 277.698393 
L 220.694461 275.398611 
L 221.019197 270.014395 
L 221.5063 257.285434 
L 222.155772 232.887211 
L 223.129979 185.89165 
L 224.672474 111.184788 
L 225.321945 88.821821 
L 225.809049 77.993892 
L 226.214968 73.420012 
L 226.45852 72.714833 
L 226.620888 73.104629 
L 226.86444 74.972863 
L 227.189175 79.810528 
L 227.595095 89.435943 
L 228.163383 108.83264 
L 228.975222 145.503158 
L 231.167188 250.18764 
L 231.81666 269.226868 
L 232.222579 276.194378 
L 232.547315 278.774198 
L 232.709683 279.037918 
L 232.872051 278.613725 
L 233.115603 276.69519 
L 233.440338 271.794682 
L 233.846258 262.101016 
L 234.414545 242.635199 
L 235.226385 205.932397 
L 237.418351 101.540557 
L 238.067822 82.65265 
L 238.473742 75.782291 
L 238.798478 73.278791 
L 238.960846 73.052226 
L 239.123214 73.512672 
L 239.366765 75.483568 
L 239.691501 80.44945 
L 240.097421 90.216612 
L 240.665708 109.768457 
L 241.477548 146.559958 
L 243.669514 251.050976 
L 244.318985 269.952497 
L 244.724905 276.831625 
L 245.049641 279.342765 
L 245.212008 279.573419 
L 245.374376 279.117255 
L 245.617928 277.153161 
L 245.942664 272.197047 
L 246.348584 262.443161 
L 246.916871 242.911656 
L 247.72871 206.152337 
L 249.920677 101.779174 
L 250.570148 82.929643 
L 250.976068 76.088596 
L 251.300803 73.611046 
L 251.463171 73.398176 
L 251.625539 73.872731 
L 251.869091 75.865441 
L 252.193827 80.861257 
L 252.599746 90.666234 
L 253.168034 110.268653 
L 253.979873 147.116162 
L 256.171839 251.490461 
L 256.740127 268.406871 
L 257.22723 276.989007 
L 257.551966 279.381197 
L 257.714334 279.547284 
L 257.876702 279.023444 
L 258.120254 276.952565 
L 258.444989 271.845841 
L 258.932093 259.459564 
L 259.581564 235.350483 
L 260.555772 188.37011 
L 262.17945 109.374808 
L 262.828922 87.354836 
L 263.316025 76.903344 
L 263.640761 73.202924 
L 263.884313 72.223221 
L 263.965497 72.24281 
L 264.127865 72.801554 
L 264.371416 74.929651 
L 264.696152 80.120042 
L 265.183256 92.641925 
L 265.832727 116.935187 
L 266.806934 164.152262 
L 268.430613 243.292162 
L 269.080085 265.260783 
L 269.567188 275.636177 
L 269.891924 279.270821 
L 270.135476 280.194711 
L 270.21666 280.155468 
L 270.379027 279.55607 
L 270.622579 277.3642 
L 270.947315 272.085243 
L 271.434419 259.428206 
L 272.08389 234.963761 
L 273.058097 187.54519 
L 274.681776 108.303773 
L 275.331247 86.379544 
L 275.818351 76.062188 
L 276.143087 72.474923 
L 276.386638 71.589785 
L 276.467822 71.642393 
L 276.63019 72.269006 
L 276.873742 74.502433 
L 277.198478 79.836862 
L 277.685581 92.573341 
L 278.335053 117.127639 
L 279.30926 164.625505 
L 280.932939 243.820697 
L 281.58241 265.673995 
L 282.069514 275.926693 
L 282.394249 279.468073 
L 282.637801 280.318387 
L 282.718985 280.254215 
L 282.881353 279.604675 
L 283.124905 277.337681 
L 283.449641 271.960896 
L 283.936744 259.168424 
L 284.586216 234.558517 
L 285.560423 187.026967 
L 287.184101 107.901835 
L 287.833573 86.105119 
L 288.320677 75.89799 
L 288.645412 72.386402 
L 288.888964 71.557364 
L 288.970148 71.628341 
L 289.132516 72.290971 
L 289.376068 74.57609 
L 289.700803 79.973692 
L 290.187907 92.788811 
L 290.837378 117.410345 
L 291.811586 164.916495 
L 293.35408 240.622889 
L 294.003552 263.385661 
L 294.490655 274.476548 
L 294.896575 279.235661 
L 295.140127 280.034376 
L 295.221311 279.953423 
L 295.383679 279.271089 
L 295.62723 276.957158 
L 295.951966 271.522841 
L 296.43907 258.657108 
L 297.088541 233.977982 
L 298.062748 186.409218 
L 299.605243 110.661277 
L 300.254715 87.899 
L 300.741818 76.8138 
L 301.147738 72.062086 
L 301.39129 71.268669 
L 301.472474 71.351496 
L 301.634841 72.0377 
L 301.878393 74.357643 
L 302.203129 79.800062 
L 302.690233 92.677119 
L 303.339704 117.366879 
L 304.313911 164.931907 
L 305.856406 240.587457 
L 306.505877 263.268205 
L 306.992981 274.274439 
L 307.398901 278.94938 
L 307.642452 279.692443 
L 307.80482 279.317981 
L 308.048372 277.457504 
L 308.373108 272.601333 
L 308.779027 262.906517 
L 309.347315 243.329903 
L 310.159154 206.258228 
L 312.351121 100.180155 
L 313.000592 80.844579 
L 313.406512 73.761334 
L 313.731247 71.135192 
L 313.893615 70.86502 
L 314.055983 71.29437 
L 314.299535 73.242945 
L 314.624271 78.225815 
L 315.03019 88.090148 
L 315.598478 107.914526 
L 316.410317 145.330107 
L 318.602283 251.952875 
L 319.251755 271.290258 
L 319.657674 278.338931 
L 319.98241 280.920687 
L 320.144778 281.16397 
L 320.307146 280.705092 
L 320.550698 278.708155 
L 320.875433 273.655451 
L 321.281353 263.700311 
L 321.849641 243.755218 
L 322.66148 206.214444 
L 324.853446 99.784339 
L 325.421734 82.525728 
L 325.908837 73.761471 
L 326.233573 71.308951 
L 326.395941 71.131202 
L 326.558309 71.655574 
L 326.80186 73.749608 
L 327.126596 78.927121 
L 327.6137 91.497132 
L 328.263171 115.968375 
L 329.237378 163.638318 
L 330.861057 243.735568 
L 331.510529 266.06288 
L 331.997632 276.67637 
L 332.322368 280.451868 
L 332.56592 281.471308 
L 332.647104 281.461945 
L 332.809471 280.919322 
L 333.053023 278.805131 
L 333.377759 273.61585 
L 333.864863 261.064298 
L 334.514334 236.689452 
L 335.488541 189.307488 
L 337.11222 109.906056 
L 337.761691 87.851607 
L 338.248795 77.416702 
L 338.573531 73.743802 
L 338.817082 72.791765 
L 338.898266 72.821724 
L 339.060634 73.402718 
L 339.304186 75.567472 
L 339.628922 80.811589 
L 340.116025 93.421198 
L 340.765497 117.83937 
L 341.739704 165.258389 
L 343.363383 244.821298 
L 344.012854 267.002969 
L 344.499958 277.549642 
L 344.824693 281.299557 
L 345.068245 282.308089 
L 345.149429 282.296386 
L 345.311797 281.750642 
L 345.555349 279.634604 
L 345.880085 274.444848 
L 346.367188 261.885647 
L 347.01666 237.457867 
L 347.990867 189.826869 
L 349.614545 109.478253 
L 350.264017 86.953653 
L 350.751121 76.198675 
L 351.075856 72.34962 
L 351.319408 71.293447 
L 351.400592 71.294986 
L 351.56296 71.829609 
L 351.806512 73.9534 
L 352.131247 79.20239 
L 352.537167 89.451234 
L 353.105455 109.906032 
L 353.917294 148.37524 
L 356.10926 257.745179 
L 356.677548 275.488819 
L 357.164651 284.422019 
L 357.489387 286.825415 
L 357.651755 286.923285 
L 357.814123 286.279486 
L 358.057674 283.928363 
L 358.38241 278.255141 
L 358.869514 264.599241 
L 359.437801 241.807587 
L 360.330825 195.31399 
L 362.279239 90.160124 
L 362.92871 67.213607 
L 363.415814 57.012947 
L 363.74055 53.942013 
L 363.902918 53.568 
L 363.984101 53.673986 
L 364.146469 54.472082 
L 364.390021 57.125272 
L 364.714757 63.321212 
L 365.20186 77.974774 
L 365.851332 106.132813 
L 366.825539 160.659244 
L 368.449218 252.199866 
L 369.098689 277.773385 
L 369.585793 289.956127 
L 369.910529 294.303461 
L 370.15408 295.488 
L 370.235264 295.482465 
L 370.397632 294.870257 
L 370.641184 292.459 
L 370.96592 286.519803 
L 371.453023 272.125021 
L 372.102495 244.129695 
L 373.076702 189.661938 
L 374.700381 98.524795 
L 375.349852 73.384765 
L 375.836956 61.627971 
L 376.161691 57.600479 
L 376.405243 56.667973 
L 376.486427 56.758917 
L 376.648795 57.542934 
L 376.892347 60.211456 
L 377.217082 66.48438 
L 377.704186 81.333278 
L 378.353658 109.781961 
L 379.327865 164.44411 
L 380.870359 250.721982 
L 381.519831 276.227418 
L 382.006934 288.384964 
L 382.33167 292.733456 
L 382.575222 293.931626 
L 382.656406 293.933512 
L 382.818774 293.340981 
L 383.062326 290.972621 
L 383.387061 285.119037 
L 383.874165 270.922481 
L 384.523636 243.334396 
L 385.497844 189.756392 
L 387.121522 100.251586 
L 387.770994 75.473079 
L 388.258097 63.758215 
L 388.582833 59.62543 
L 388.826385 58.537659 
L 388.907569 58.561849 
L 389.069937 59.189579 
L 389.313488 61.566641 
L 389.638224 67.346228 
L 390.125328 81.24562 
L 390.774799 108.110696 
L 391.749006 160.086056 
L 393.372685 246.836882 
L 394.022156 271.01919 
L 394.50926 282.626893 
L 394.91518 287.485148 
L 395.158732 288.214802 
L 395.321099 287.785794 
L 395.564651 285.783 
L 395.889387 280.642112 
L 396.295307 270.479336 
L 396.863594 250.14083 
L 397.675433 212.028444 
L 398.487273 169.151463 
L 398.487273 169.151463 
" style="fill:none;stroke:#1f77b4;stroke-linecap:square;stroke-width:1.5;"/>
   </g>
   <g id="patch_3">
    <path d="M 57.6 307.584 
L 57.6 41.472 
" style="fill:none;stroke:#000000;stroke-linecap:square;stroke-linejoin:miter;stroke-width:0.8;"/>
   </g>
   <g id="patch_4">
    <path d="M 414.72 307.584 
L 414.72 41.472 
" style="fill:none;stroke:#000000;stroke-linecap:square;stroke-linejoin:miter;stroke-width:0.8;"/>
   </g>
   <g id="patch_5">
    <path d="M 57.6 307.584 
L 414.72 307.584 
" style="fill:none;stroke:#000000;stroke-linecap:square;stroke-linejoin:miter;stroke-width:0.8;"/>
   </g>
   <g id="patch_6">
    <path d="M 57.6 41.472 
L 414.72 41.472 
" style="fill:none;stroke:#000000;stroke-linecap:square;stroke-linejoin:miter;stroke-width:0.8;"/>
   </g>
   <g id="text_19">
    <!-- demodulated data -->
    <g transform="translate(180.913125 35.472)scale(0.12 -0.12)">
     <defs>
      <path d="M 2906 2969 
L 2906 4863 
L 3481 4863 
L 3481 0 
L 2906 0 
L 2906 525 
Q 2725 213 2448 61 
Q 2172 -91 1784 -91 
Q 1150 -91 751 415 
Q 353 922 353 1747 
Q 353 2572 751 3078 
Q 1150 3584 1784 3584 
Q 2172 3584 2448 3432 
Q 2725 3281 2906 2969 
z
M 947 1747 
Q 947 1113 1208 752 
Q 1469 391 1925 391 
Q 2381 391 2643 752 
Q 2906 1113 2906 1747 
Q 2906 2381 2643 2742 
Q 2381 3103 1925 3103 
Q 1469 3103 1208 2742 
Q 947 2381 947 1747 
z
" id="DejaVuSans-64" transform="scale(0.015625)"/>
      <path d="M 1959 3097 
Q 1497 3097 1228 2736 
Q 959 2375 959 1747 
Q 959 1119 1226 758 
Q 1494 397 1959 397 
Q 2419 397 2687 759 
Q 2956 1122 2956 1747 
Q 2956 2369 2687 2733 
Q 2419 3097 1959 3097 
z
M 1959 3584 
Q 2709 3584 3137 3096 
Q 3566 2609 3566 1747 
Q 3566 888 3137 398 
Q 2709 -91 1959 -91 
Q 1206 -91 779 398 
Q 353 888 353 1747 
Q 353 2609 779 3096 
Q 1206 3584 1959 3584 
z
" id="DejaVuSans-6f" transform="scale(0.015625)"/>
      <path d="M 544 1381 
L 544 3500 
L 1119 3500 
L 1119 1403 
Q 1119 906 1312 657 
Q 1506 409 1894 409 
Q 2359 409 2629 706 
Q 2900 1003 2900 1516 
L 2900 3500 
L 3475 3500 
L 3475 0 
L 2900 0 
L 2900 538 
Q 2691 219 2414 64 
Q 2138 -91 1772 -91 
Q 1169 -91 856 284 
Q 544 659 544 1381 
z
M 1991 3584 
L 1991 3584 
z
" id="DejaVuSans-75" transform="scale(0.015625)"/>
      <path d="M 603 4863 
L 1178 4863 
L 1178 0 
L 603 0 
L 603 4863 
z
" id="DejaVuSans-6c" transform="scale(0.015625)"/>
      <path d="M 2194 1759 
Q 1497 1759 1228 1600 
Q 959 1441 959 1056 
Q 959 750 1161 570 
Q 1363 391 1709 391 
Q 2188 391 2477 730 
Q 2766 1069 2766 1631 
L 2766 1759 
L 2194 1759 
z
M 3341 1997 
L 3341 0 
L 2766 0 
L 2766 531 
Q 2569 213 2275 61 
Q 1981 -91 1556 -91 
Q 1019 -91 701 211 
Q 384 513 384 1019 
Q 384 1609 779 1909 
Q 1175 2209 1959 2209 
L 2766 2209 
L 2766 2266 
Q 2766 2663 2505 2880 
Q 2244 3097 1772 3097 
Q 1472 3097 1187 3025 
Q 903 2953 641 2809 
L 641 3341 
Q 956 3463 1253 3523 
Q 1550 3584 1831 3584 
Q 2591 3584 2966 3190 
Q 3341 2797 3341 1997 
z
" id="DejaVuSans-61" transform="scale(0.015625)"/>
     </defs>
     <use xlink:href="#DejaVuSans-64"/>
     <use x="63.476562" xlink:href="#DejaVuSans-65"/>
     <use x="125" xlink:href="#DejaVuSans-6d"/>
     <use x="222.412109" xlink:href="#DejaVuSans-6f"/>
     <use x="283.59375" xlink:href="#DejaVuSans-64"/>
     <use x="347.070312" xlink:href="#DejaVuSans-75"/>
     <use x="410.449219" xlink:href="#DejaVuSans-6c"/>
     <use x="438.232422" xlink:href="#DejaVuSans-61"/>
     <use x="499.511719" xlink:href="#DejaVuSans-74"/>
     <use x="538.720703" xlink:href="#DejaVuSans-65"/>
     <use x="600.244141" xlink:href="#DejaVuSans-64"/>
     <use x="663.720703" xlink:href="#DejaVuSans-20"/>
     <use x="695.507812" xlink:href="#DejaVuSans-64"/>
     <use x="758.984375" xlink:href="#DejaVuSans-61"/>
     <use x="820.263672" xlink:href="#DejaVuSans-74"/>
     <use x="859.472656" xlink:href="#DejaVuSans-61"/>
    </g>
   </g>
  </g>
 </g>
 <defs>
  <clipPath id="p47b42054be">
   <rect height="266.112" width="357.12" x="57.6" y="41.472"/>
  </clipPath>
 </defs>
</svg>
